<svg viewBox="0 0 80 91.18" version="1.1" xmlns="http://www.w3.org/2000/svg" xmlns:xlink="http://www.w3.org/1999/xlink">
  <g fill="#e3051a">
    <path d="M40.12,31.91a20,20,0,0,0,0,40,19.39,19.39,0,0,0,3.34-.3V64.77a13.14,13.14,0,0,1-3.34.48,13.32,13.32,0,0,1-12.85-10H59.83a20.43,20.43,0,0,0,.29-3.34A20,20,0,0,0,40.12,31.91Zm0,6.67A13.31,13.31,0,0,1,53,48.58H27.27A13.31,13.31,0,0,1,40.12,38.58Z" transform="translate(-0.13 -0.73)"/>
    <path d="M46.72,12.5l7.06-7L49.07.73,37.77,12a40,40,0,1,0,8.95.47Zm-6.6,72.75A33.34,33.34,0,1,1,73.46,51.91,33.34,33.34,0,0,1,40.12,85.25Z" transform="translate(-0.13 -0.73)"/>
  </g>
</svg>
