<svg viewBox="0 0 129 63" xmlns="http://www.w3.org/2000/svg">
  <g fill="none" fill-rule="evenodd">
    <g fill="#FFF">
      <path d="M.843 46.32c0-1.51 0-1.783-.02-2.093-.019-.327-.096-.483-.416-.55a1.764 1.764 0 0 0-.329-.031c-.039 0-.078-.018-.078-.058 0-.058.049-.08.155-.08.436 0 1.046.032 1.095.032.067 0 1.994 0 2.218-.01.182-.01.338-.03.414-.05.048-.01.087-.046.135-.046.03 0 .04.037.04.087 0 .067-.049.183-.078.456-.01.095-.029.522-.049.638-.008.049-.028.108-.067.108-.057 0-.076-.05-.076-.126 0-.07-.01-.234-.06-.35-.067-.155-.163-.27-.687-.327-.164-.02-1.219-.03-1.327-.03-.038 0-.057.03-.057.098v2.668c0 .069.01.099.057.099.126 0 1.317 0 1.54-.02.233-.02.369-.04.455-.134.068-.076.106-.125.146-.125.028 0 .048.02.048.077 0 .053-.048.22-.077.542-.019.195-.038.55-.038.616 0 .081 0 .186-.069.186-.048 0-.068-.038-.068-.087 0-.099 0-.195-.04-.32-.037-.134-.124-.297-.502-.336-.262-.03-1.22-.05-1.385-.05-.048 0-.067.03-.067.067v.853c0 .327-.01 1.451 0 1.657.028.667.174.794 1.123.794.251 0 .678 0 .929-.108.252-.106.368-.302.437-.696.019-.108.038-.146.086-.146.058 0 .058.078.058.146 0 .076-.077.735-.125.935-.068.254-.147.254-.523.254-1.462 0-2.112-.06-2.391-.06-.05 0-.66.03-.949.03-.108 0-.156-.02-.156-.078 0-.028.02-.06.078-.06.087 0 .204-.018.29-.038.195-.039.242-.248.281-.53.05-.404.05-1.171.05-2.1V46.32zm2.807-4.125c.049.089 0 .116-.04.116-.027 0-.124-.017-.29 0-.474.05-1.15.27-1.47.405a.647.647 0 0 1-.146.05c-.02 0-.048-.021-.048-.06 0-.029.02-.047.067-.075a35.04 35.04 0 0 1 1.317-.824c.165-.097.223-.126.271-.126.029 0 .05.02.097.087.068.098.136.232.242.427zM6.816 49.92c-.939-.845-1.171-1.944-1.171-2.864 0-.649.222-1.783 1.084-2.645.58-.578 1.462-1.035 2.952-1.035a8.3 8.3 0 0 1 1.404.116c.369.066.679.126.988.144.107.01.126.05.126.108 0 .079-.03.194-.049.542-.019.32-.019.85-.029.997-.01.146-.029.205-.087.205-.068 0-.078-.07-.078-.205 0-.378-.155-.774-.406-.988-.339-.288-1.084-.551-1.937-.551-1.287 0-1.887.378-2.226.706-.707.677-.872 1.54-.872 2.528 0 1.85 1.425 3.545 3.497 3.545.725 0 1.296-.088 1.683-.487.203-.213.33-.638.358-.813.02-.108.04-.148.097-.148.049 0 .069.07.069.148 0 .07-.118.91-.215 1.242-.057.18-.076.2-.251.276-.387.156-1.123.225-1.741.225-1.453 0-2.43-.36-3.196-1.046M13.438 47.164c0 1.741 1.104 3.802 3.756 3.802 2.333 0 3.863-1.792 3.863-3.96 0-2.253-1.626-3.63-3.804-3.63-2.672 0-3.815 2.219-3.815 3.788m.92-.273c0-2.12 1.21-3.187 2.827-3.187 1.53 0 2.944 1.25 2.944 3.575 0 2.816-1.802 3.319-2.673 3.319-1.743 0-3.098-1.453-3.098-3.707M24.213 48.044c0 1.42.038 2.042.213 2.217.156.154.408.223 1.162.223.514 0 .938-.009 1.17-.292.127-.156.224-.399.253-.58.01-.077.029-.125.088-.125.048 0 .057.039.057.146 0 .104-.068.686-.145.964-.068.225-.096.264-.61.264-1.394 0-2.034-.06-2.595-.06-.086 0-.657.028-.949.028-.106 0-.155-.018-.155-.077 0-.028.02-.06.078-.06.088 0 .204-.018.29-.037.195-.04.242-.249.281-.53.05-.405.05-1.172.05-2.1V46.32c0-1.51 0-1.783-.02-2.092-.02-.328-.097-.484-.417-.551a1.763 1.763 0 0 0-.329-.032c-.039 0-.078-.017-.078-.057 0-.058.049-.079.156-.079.436 0 1.045.03 1.093.03.049 0 .756-.03 1.047-.03.105 0 .154.021.154.079 0 .04-.038.057-.077.057-.069 0-.204.012-.32.032-.282.047-.359.213-.378.55-.019.31-.019.583-.019 2.093v1.724zM29.13 46.32c0-1.51 0-1.783-.018-2.093-.02-.327-.097-.483-.416-.55a1.764 1.764 0 0 0-.33-.031c-.038 0-.076-.018-.076-.058 0-.058.047-.08.154-.08.435 0 1.045.032 1.093.032.068 0 1.995 0 2.218-.01.184-.01.339-.03.416-.05.049-.01.087-.046.136-.046.03 0 .038.037.038.087 0 .067-.048.183-.076.456-.011.095-.03.522-.05.638-.01.049-.029.108-.067.108-.058 0-.077-.05-.077-.126 0-.07-.01-.234-.058-.35-.07-.155-.165-.27-.688-.327-.165-.02-1.22-.03-1.326-.03-.04 0-.06.03-.06.098v2.668c0 .069.01.099.06.099.125 0 1.317 0 1.538-.02.233-.02.37-.04.456-.134.068-.076.107-.125.144-.125.03 0 .049.02.049.077 0 .053-.049.22-.075.542-.021.195-.04.55-.04.616 0 .081 0 .186-.068.186-.048 0-.068-.038-.068-.087 0-.099 0-.195-.039-.32-.039-.134-.126-.297-.503-.336-.262-.03-1.22-.05-1.384-.05-.05 0-.07.03-.07.067v.853c0 .327-.008 1.451 0 1.657.03.667.176.794 1.124.794.253 0 .677 0 .93-.108.253-.106.367-.302.435-.696.021-.108.04-.146.088-.146.057 0 .057.078.057.146 0 .076-.077.735-.124.935-.068.254-.146.254-.524.254-1.461 0-2.11-.06-2.392-.06-.048 0-.658.03-.948.03-.106 0-.155-.02-.155-.078 0-.028.02-.06.078-.06.087 0 .203-.018.29-.038.193-.039.242-.248.28-.53.049-.404.049-1.171.049-2.1V46.32zM38.183 46.32c0-1.51 0-1.783-.019-2.093-.019-.327-.097-.483-.416-.55a1.747 1.747 0 0 0-.329-.031c-.039 0-.078-.018-.078-.058 0-.058.048-.08.154-.08.437 0 1.017.032 1.095.032.212 0 .774-.031 1.22-.031 1.21 0 1.646.41 1.8.554.214.203.484.64.484 1.15 0 1.378-1.006 2.306-2.38 2.306-.05 0-.156 0-.204-.011-.05 0-.107-.018-.107-.068 0-.074.058-.084.261-.084.94 0 1.675-.69 1.675-1.58 0-.318-.029-.966-.542-1.49-.514-.522-1.103-.483-1.326-.483-.164 0-.33.02-.417.058-.058.02-.077.087-.077.183v3.98c0 .929 0 1.696.048 2.1.03.282.087.491.378.53.136.02.348.038.436.038.057 0 .077.032.077.06 0 .048-.049.077-.155.077-.532 0-1.142-.029-1.19-.029-.03 0-.64.03-.93.03-.107 0-.155-.02-.155-.078 0-.028.02-.06.077-.06.087 0 .204-.018.29-.038.195-.039.243-.248.281-.53.05-.404.05-1.171.05-2.1V46.32zM43.294 47.164c0 1.741 1.104 3.802 3.756 3.802 2.335 0 3.865-1.792 3.865-3.96 0-2.253-1.628-3.63-3.806-3.63-2.671 0-3.815 2.219-3.815 3.788m.92-.273c0-2.12 1.211-3.187 2.827-3.187 1.53 0 2.944 1.25 2.944 3.575 0 2.816-1.801 3.319-2.672 3.319-1.744 0-3.098-1.453-3.098-3.707M53.877 48.044c0 1.42.038 2.042.212 2.217.154.154.408.223 1.162.223.514 0 .939-.009 1.171-.292.127-.156.224-.399.252-.58.01-.077.03-.125.088-.125.047 0 .058.039.058.146 0 .104-.068.686-.146.964-.068.225-.096.264-.61.264-1.393 0-2.033-.06-2.595-.06-.086 0-.658.028-.948.028-.106 0-.155-.018-.155-.077 0-.028.02-.06.077-.06.089 0 .203-.018.291-.037.194-.04.243-.249.28-.53.05-.405.05-1.172.05-2.1V46.32c0-1.51 0-1.783-.02-2.092-.02-.328-.096-.484-.417-.551a1.739 1.739 0 0 0-.328-.032c-.04 0-.08-.017-.08-.057 0-.058.05-.079.157-.079.435 0 1.045.03 1.093.03.05 0 .756-.03 1.047-.03.106 0 .155.021.155.079 0 .04-.04.057-.077.057-.07 0-.204.012-.32.032-.282.047-.36.213-.378.55-.02.31-.02.583-.02 2.093v1.724zM59.676 48.322c0-.522-.096-.734-.223-1.014-.068-.154-1.365-2.286-1.703-2.79-.244-.358-.485-.598-.66-.715a.903.903 0 0 0-.416-.157c-.048 0-.096-.018-.096-.068 0-.038.038-.07.126-.07.183 0 .91.032.957.032.068 0 .437-.031.813-.031.108 0 .127.03.127.069 0 .04-.059.05-.146.089-.076.037-.124.097-.124.174 0 .118.048.231.124.378.155.28 1.608 2.777 1.782 3.06.184-.408 1.413-2.527 1.607-2.847.127-.205.164-.369.164-.494 0-.135-.037-.243-.154-.271-.086-.031-.145-.05-.145-.098 0-.039.059-.06.155-.06.251 0 .56.03.639.03.058 0 .755-.03.938-.03.068 0 .128.021.128.06 0 .049-.05.077-.128.077-.105 0-.29.04-.446.138-.193.116-.3.233-.511.49-.32.39-1.676 2.665-1.85 3.082-.145.347-.145.65-.145.966v.834c0 .154 0 .564.029.968.02.282.105.491.397.53.136.02.348.038.436.038.057 0 .077.031.077.06 0 .048-.048.077-.155.077-.532 0-1.142-.029-1.19-.029-.05 0-.66.03-.949.03-.108 0-.155-.02-.155-.078 0-.029.019-.06.076-.06.089 0 .203-.018.291-.038.195-.039.28-.248.3-.53.03-.404.03-.814.03-.968v-.834zM67.188 48.024c0 .929 0 1.695.047 2.1.029.282.088.491.38.53.136.02.348.038.433.038.06 0 .077.032.077.06 0 .05-.048.077-.152.077-.533 0-1.141-.028-1.19-.028-.05 0-.658.028-.95.028-.108 0-.157-.019-.157-.077 0-.028.02-.06.077-.06.09 0 .206-.018.293-.038.193-.039.243-.248.28-.53.05-.405.05-1.171.05-2.1v-4.096l-1.435.02c-.6.012-.831.079-.986.31-.107.164-.136.23-.165.3-.028.078-.057.097-.097.097-.03 0-.05-.03-.05-.088 0-.097.196-.931.215-1.008.019-.06.059-.183.097-.183.067 0 .164.095.427.116.279.028.646.048.764.048h3.63c.62 0 .879-.096.957-.096.05 0 .05.056.05.115 0 .29-.03.96-.03 1.067 0 .087-.028.127-.068.127-.048 0-.067-.03-.08-.166l-.008-.107c-.036-.29-.258-.511-1.187-.532l-1.222-.02v4.096zM71.815 46.32c0-1.51 0-1.783-.018-2.093-.019-.327-.096-.483-.417-.55-.077-.02-.24-.031-.33-.031-.039 0-.075-.018-.075-.058 0-.058.045-.08.153-.08.435 0 1.046.032 1.093.032.07 0 1.995 0 2.218-.01.183-.01.34-.03.42-.05.046-.01.085-.046.133-.046.029 0 .037.037.037.087 0 .067-.048.183-.075.456-.01.095-.029.522-.049.638-.01.049-.028.108-.067.108-.059 0-.08-.05-.08-.126 0-.07-.009-.234-.058-.35-.067-.155-.164-.27-.686-.327-.165-.02-1.221-.03-1.328-.03-.038 0-.058.03-.058.098v2.668c0 .069.01.099.058.099.126 0 1.318 0 1.54-.02.232-.02.369-.04.455-.134.068-.076.107-.125.147-.125.03 0 .05.02.05.077 0 .053-.05.22-.08.542-.019.195-.04.55-.04.616 0 .081 0 .186-.066.186-.05 0-.07-.038-.07-.087 0-.099 0-.195-.035-.32-.041-.134-.13-.297-.506-.336-.26-.03-1.22-.05-1.383-.05-.05 0-.07.03-.07.067v.853c0 .327-.008 1.451 0 1.657.03.667.175.794 1.123.794.253 0 .676 0 .93-.108.254-.106.369-.302.437-.696.019-.108.04-.146.085-.146.058 0 .058.078.058.146 0 .076-.077.735-.124.935-.068.254-.145.254-.524.254-1.46 0-2.109-.06-2.392-.06-.047 0-.658.03-.95.03-.103 0-.15-.02-.15-.078 0-.028.018-.06.074-.06.087 0 .204-.018.292-.038.195-.039.243-.248.281-.53.047-.404.047-1.171.047-2.1V46.32zM77.787 49.92c-.939-.845-1.17-1.944-1.17-2.864 0-.649.221-1.783 1.082-2.645.583-.578 1.464-1.035 2.958-1.035.386 0 .926.03 1.404.116.363.066.676.126.986.144.103.01.124.05.124.108 0 .079-.031.194-.047.542-.022.32-.022.85-.03.997-.009.146-.028.205-.084.205-.069 0-.079-.07-.079-.205 0-.378-.155-.774-.407-.988-.338-.288-1.084-.551-1.934-.551-1.29 0-1.89.378-2.23.706-.709.677-.871 1.54-.871 2.528 0 1.85 1.425 3.545 3.494 3.545.726 0 1.297-.088 1.683-.487.207-.213.333-.638.361-.813.02-.108.04-.148.097-.148.047 0 .064.07.064.148 0 .07-.113.91-.208 1.242-.059.18-.077.2-.255.276-.387.156-1.124.225-1.742.225-1.452 0-2.43-.36-3.196-1.046M91.362 48.024c0 .929 0 1.695.049 2.1.028.282.087.491.379.53.133.02.345.038.433.038.06 0 .077.032.077.06 0 .05-.048.077-.154.077-.532 0-1.141-.028-1.19-.028-.047 0-.66.028-.95.028-.105 0-.154-.019-.154-.077 0-.028.017-.06.077-.06.089 0 .205-.018.292-.038.191-.039.24-.248.279-.53.049-.405.049-1.171.049-2.1v-1.018c0-.038-.03-.058-.06-.058h-4.105c-.03 0-.057.01-.057.058v1.018c0 .929 0 1.695.047 2.1.03.282.09.491.381.53.136.02.347.038.431.038.06 0 .081.032.081.06 0 .05-.049.077-.156.077-.532 0-1.142-.028-1.19-.028-.049 0-.658.028-.948.028-.107 0-.157-.019-.157-.077 0-.028.02-.06.078-.06.087 0 .203-.018.291-.038.196-.039.244-.248.283-.53.047-.405.047-1.171.047-2.1V46.32c0-1.51 0-1.783-.02-2.093-.018-.327-.095-.483-.416-.55a1.84 1.84 0 0 0-.331-.031c-.038 0-.075-.018-.075-.058 0-.058.047-.08.153-.08.437 0 1.046.032 1.095.032.048 0 .658-.031.95-.031.108 0 .156.021.156.079 0 .04-.04.058-.078.058-.068 0-.127.011-.245.03-.26.049-.338.214-.359.551-.018.31-.018.583-.018 2.093v.205c0 .046.027.054.057.054h4.106c.029 0 .059-.008.059-.054v-.205c0-1.51 0-1.783-.02-2.093-.02-.327-.097-.483-.413-.55a1.897 1.897 0 0 0-.332-.031c-.04 0-.08-.018-.08-.058 0-.058.05-.08.158-.08.434 0 1.047.032 1.095.032.048 0 .657-.031.946-.031.107 0 .155.021.155.079 0 .04-.038.058-.077.058-.068 0-.124.011-.238.03-.265.049-.344.214-.362.551-.02.31-.02.583-.02 2.093v1.704zM95.071 49.514c.02.795.113 1.045.376 1.12.184.05.399.059.484.059.048 0 .075.019.075.059 0 .059-.056.077-.17.077-.555 0-.938-.028-1.027-.028-.088 0-.494.028-.93.028-.098 0-.155-.008-.155-.077 0-.04.029-.06.077-.06.079 0 .253-.007.4-.057.239-.066.287-.346.287-1.227l.01-5.547c0-.38.03-.485.107-.485s.245.212.34.31c.145.163 1.587 1.724 3.078 3.32.96 1.028 2.014 2.206 2.324 2.528l-.108-4.919c-.008-.628-.08-.843-.376-.92a2.658 2.658 0 0 0-.476-.05c-.067 0-.078-.027-.078-.067 0-.057.078-.069.195-.069.434 0 .9.031 1.008.031.108 0 .426-.03.822-.03.107 0 .174.011.174.068 0 .04-.038.067-.104.067-.05 0-.117 0-.234.031-.32.068-.36.283-.36.861l-.02 5.675c0 .639-.02.685-.087.685-.075 0-.19-.106-.707-.618a113.55 113.55 0 0 1-2.523-2.624 175.126 175.126 0 0 1-2.528-2.778l.126 4.637zM104.789 48.024c0 .929 0 1.695.05 2.1.028.282.086.491.38.53.133.02.345.038.432.038.058 0 .077.032.077.06 0 .05-.048.077-.154.077-.534 0-1.143-.028-1.19-.028-.049 0-.658.028-.95.028-.107 0-.155-.019-.155-.077 0-.028.018-.06.077-.06.088 0 .205-.018.292-.038.192-.039.242-.248.28-.53.047-.405.047-1.171.047-2.1V46.32c0-1.51 0-1.783-.018-2.093-.018-.327-.117-.493-.328-.541a1.356 1.356 0 0 0-.302-.04c-.038 0-.077-.018-.077-.058 0-.058.047-.08.154-.08.322 0 .931.032.98.032.047 0 .656-.031.951-.031.104 0 .153.021.153.079 0 .04-.04.058-.078.058-.068 0-.125.011-.24.03-.266.049-.343.214-.362.551-.02.31-.02.583-.02 2.093v1.704zM114.066 51.536c1.568.862 2.815 1.3 3.99 1.3a7.383 7.383 0 0 0 3.066-.669c.06-.03.08-.057.08-.095 0-.03-.02-.06-.06-.06-.029 0-.077.02-.137.042a5.542 5.542 0 0 1-1.906.374c-.484 0-1.953-.05-4.076-1.138l-1.985-1.029c.639-.42 1.716-1.55 1.716-3.255 0-2.244-1.628-3.63-3.805-3.63-2.673 0-3.817 2.218-3.817 3.788 0 1.742 1.104 3.802 3.788 3.802.511 0 1.17-.145 1.519-.33l1.627.9zm-6.015-4.645c0-2.12 1.213-3.187 2.829-3.187 1.53 0 2.943 1.25 2.943 3.575 0 2.816-1.803 3.319-2.673 3.319-1.743 0-3.099-1.454-3.099-3.707z"/>
      <path d="M116.583 46.32c0-1.51 0-1.783-.02-2.093-.018-.327-.096-.483-.419-.55a1.745 1.745 0 0 0-.327-.031c-.037 0-.077-.018-.077-.058 0-.058.05-.08.154-.08.437 0 1.026.032 1.115.032.085 0 .664-.031.957-.031.11 0 .156.021.156.079 0 .04-.041.058-.076.058-.07 0-.128.01-.245.03-.262.038-.337.214-.357.551-.02.31-.02.583-.02 2.093v1.354c0 1.393.31 1.997.728 2.391.473.448.909.533 1.46.533.59 0 1.17-.28 1.52-.699.445-.549.56-1.373.56-2.371V46.32c0-1.51 0-1.783-.018-2.093-.02-.327-.097-.483-.415-.55a1.76 1.76 0 0 0-.33-.031c-.041 0-.078-.018-.078-.058 0-.058.047-.08.155-.08.436 0 .969.032 1.028.032.067 0 .52-.031.814-.031.106 0 .152.021.152.079 0 .04-.037.058-.075.058-.067 0-.127 0-.244.03-.263.049-.338.214-.358.551-.021.31-.021.583-.021 2.093v1.036c0 1.043-.114 2.207-.89 2.895-.696.62-1.422.715-1.995.715-.326 0-1.304-.039-1.992-.687-.477-.457-.842-1.135-.842-2.546V46.32zM125.179 46.32c0-1.51 0-1.783-.019-2.093-.02-.327-.097-.483-.417-.55-.076-.02-.24-.031-.329-.031-.038 0-.077-.018-.077-.058 0-.058.048-.08.154-.08.436 0 1.047.032 1.094.032.067 0 1.995 0 2.218-.01.183-.01.337-.03.415-.05.048-.01.088-.046.136-.046.031 0 .04.037.04.087 0 .067-.049.183-.08.456-.008.095-.028.522-.048.638-.009.049-.029.108-.067.108-.059 0-.079-.05-.079-.126 0-.07-.008-.234-.057-.35-.067-.155-.164-.27-.686-.327-.164-.02-1.22-.03-1.328-.03-.036 0-.057.03-.057.098v2.668c0 .069.011.099.057.099.126 0 1.316 0 1.541-.02.232-.02.367-.04.451-.134.071-.076.108-.125.148-.125.03 0 .048.02.048.077 0 .053-.048.22-.077.542-.02.195-.04.55-.04.616 0 .081 0 .186-.067.186-.047 0-.067-.038-.067-.087 0-.099 0-.195-.037-.32-.04-.134-.127-.297-.505-.336-.26-.03-1.22-.05-1.383-.05-.048 0-.069.03-.069.067v.853c0 .327-.008 1.451 0 1.657.03.667.176.794 1.123.794.25 0 .678 0 .926-.108.256-.106.373-.302.44-.696.02-.108.04-.146.086-.146.06 0 .06.078.06.146 0 .076-.078.735-.127.935-.067.254-.146.254-.524.254-1.464 0-2.11-.06-2.391-.06-.047 0-.658.03-.948.03-.106 0-.154-.02-.154-.078 0-.028.02-.06.077-.06.087 0 .203-.018.287-.038.196-.039.243-.248.283-.53.049-.404.049-1.171.049-2.1V46.32zM.915 57.935c0-1.508 0-1.779-.02-2.09-.018-.331-.095-.482-.415-.55a1.769 1.769 0 0 0-.33-.028c-.038 0-.077-.02-.077-.058 0-.06.049-.08.155-.08.435 0 1.045.03 1.093.03.195 0 2.16 0 2.383-.01.184-.01.338-.01.425-.038.06-.02.097-.058.135-.058.04 0 .06.038.06.087 0 .069-.05.184-.079.453-.009.098-.028.525-.049.638-.008.048-.028.107-.076.107s-.067-.047-.067-.117c0-.076-.03-.239-.088-.365-.058-.127-.281-.301-.658-.311l-1.492-.031c-.057 0-.087.03-.087.109v2.673c0 .06.01.087.068.087l1.24-.01c.164 0 .3 0 .435-.009.233-.02.359-.048.445-.176.04-.049.068-.097.107-.097.038 0 .049.03.049.079 0 .057-.049.224-.078.54a11.9 11.9 0 0 0-.038.65c0 .085 0 .182-.068.182-.05 0-.068-.038-.068-.085-.01-.096-.02-.23-.058-.348-.05-.136-.204-.312-.504-.35-.242-.03-1.297-.03-1.462-.03-.049 0-.068.019-.068.088v.824c0 .928 0 1.693.049 2.1.029.28.087.494.377.533.136.02.349.04.436.04.058 0 .076.029.076.059 0 .049-.047.076-.154.076-.532 0-1.142-.027-1.19-.027-.049 0-.659.027-.949.027-.107 0-.155-.017-.155-.076 0-.03.02-.06.077-.06.088 0 .204-.019.291-.04.194-.038.242-.252.28-.531.049-.408.049-1.173.049-2.101v-1.706zM6.646 57.935c0-1.508 0-1.779-.019-2.09-.019-.331-.096-.482-.416-.55a1.769 1.769 0 0 0-.33-.028c-.038 0-.077-.02-.077-.058 0-.06.048-.08.155-.08.437 0 1.046.03 1.095.03.066 0 1.993 0 2.217-.01.183-.01.338-.03.416-.048.047-.01.087-.048.135-.048.03 0 .038.038.038.087 0 .069-.048.184-.077.453-.009.098-.029.525-.049.638-.009.048-.028.107-.067.107-.058 0-.077-.047-.077-.125 0-.068-.01-.231-.059-.347-.067-.158-.164-.273-.686-.331-.165-.021-1.22-.031-1.328-.031-.039 0-.058.03-.058.099v2.672c0 .07.01.098.058.098.127 0 1.317 0 1.54-.017.234-.022.369-.04.455-.137.068-.08.107-.128.145-.128.03 0 .05.02.05.079 0 .057-.05.224-.078.54-.02.193-.039.555-.039.62 0 .078 0 .182-.068.182-.047 0-.068-.039-.068-.086 0-.095 0-.19-.04-.317-.037-.136-.123-.302-.502-.34-.262-.03-1.22-.05-1.385-.05-.049 0-.068.029-.068.068v.854c0 .33-.009 1.451 0 1.654.03.668.175.793 1.124.793.251 0 .678 0 .929-.107.252-.106.368-.296.436-.696.02-.107.039-.146.087-.146.058 0 .058.08.058.146 0 .08-.077.736-.125.941-.069.252-.146.252-.523.252-1.462 0-2.111-.056-2.391-.056-.049 0-.658.027-.95.027-.107 0-.155-.017-.155-.076 0-.03.02-.06.078-.06.086 0 .203-.019.29-.04.194-.038.242-.252.281-.531.048-.408.048-1.173.048-2.101v-1.706zm2.808-4.124c.047.087 0 .117-.04.117-.027 0-.123-.02-.29 0-.474.048-1.151.272-1.47.409a.628.628 0 0 1-.146.048c-.019 0-.049-.02-.049-.058 0-.03.02-.05.068-.078.35-.244 1.25-.785 1.318-.823.164-.098.222-.127.27-.127.03 0 .048.019.097.088.068.097.136.233.242.424zM12.552 59.64c0 .93 0 1.694-.049 2.102-.038.28-.087.493-.281.532-.086.02-.202.04-.29.04-.058 0-.078.03-.078.058 0 .06.05.077.156.077.29 0 .9-.028.949-.028.096 0 1.316.114 2.149.114 1.646 0 2.516-.679 2.935-1.113.54-.57 1.044-1.51 1.044-2.73 0-1.15-.455-1.953-.938-2.461-1.154-1.19-2.925-1.101-3.882-1.101-.582 0-1.192.03-1.308.03-.05 0-.659-.03-1.095-.03-.106 0-.155.02-.155.079 0 .038.04.058.078.058.087 0 .253.009.329.029.32.067.397.218.417.549.02.311.02.582.02 2.09v1.706zm.813-1.86c0-.746 0-1.73.01-2.06 0-.107.029-.156.116-.195.079-.039.436-.069.63-.069 1.152 0 2.256.137 3.165 1.098.397.415.93 1.21.93 2.438 0 .892-.271 1.821-.774 2.313-.572.57-1.405.901-2.305.901-1.143 0-1.52-.203-1.646-.387-.077-.107-.097-.494-.106-.737-.01-.18-.02-1.072-.02-2.1v-1.201zM21.042 57.935c0-1.508 0-1.779-.019-2.09-.019-.331-.097-.482-.416-.55a1.752 1.752 0 0 0-.33-.028c-.038 0-.077-.02-.077-.058 0-.06.048-.08.155-.08.435 0 1.046.03 1.095.03.067 0 1.993 0 2.217-.01.183-.01.337-.03.416-.048.048-.01.086-.048.135-.048.03 0 .039.038.039.087 0 .069-.05.184-.078.453-.01.098-.029.525-.048.638-.01.048-.029.107-.067.107-.06 0-.079-.047-.079-.125 0-.068-.01-.231-.058-.347-.067-.158-.164-.273-.688-.331-.163-.021-1.218-.031-1.326-.031-.039 0-.058.03-.058.099v2.672c0 .07.011.098.058.098.127 0 1.318 0 1.54-.017.233-.022.369-.04.455-.137.067-.08.106-.128.145-.128.03 0 .05.02.05.079 0 .057-.05.224-.079.54-.02.193-.039.555-.039.62 0 .078 0 .182-.068.182-.048 0-.067-.039-.067-.086 0-.095 0-.19-.038-.317-.04-.136-.126-.302-.505-.34-.26-.03-1.218-.05-1.384-.05-.049 0-.068.029-.068.068v.854c0 .33-.009 1.451 0 1.654.03.668.175.793 1.124.793.252 0 .678 0 .93-.107.251-.106.367-.296.435-.696.019-.107.04-.146.087-.146.058 0 .058.08.058.146 0 .08-.078.736-.126.941-.067.252-.145.252-.523.252-1.462 0-2.11-.056-2.39-.056-.05 0-.66.027-.95.027-.107 0-.155-.017-.155-.076 0-.03.02-.06.077-.06.088 0 .205-.019.292-.04.192-.038.241-.252.28-.531.048-.408.048-1.173.048-2.101v-1.706zm2.808-4.124c.048.087 0 .117-.038.117-.03 0-.126-.02-.291 0-.474.048-1.153.272-1.471.409a.642.642 0 0 1-.146.048c-.019 0-.049-.02-.049-.058 0-.03.02-.05.068-.078a31.613 31.613 0 0 1 1.316-.823c.165-.098.224-.127.273-.127.028 0 .048.019.096.088.067.097.136.233.242.424zM26.948 59.64c0 .93 0 1.694-.048 2.102-.04.28-.088.493-.28.532-.088.02-.205.04-.292.04-.057 0-.077.03-.077.058 0 .06.049.077.155.077.29 0 .901-.028.91-.028.047 0 .658.028 1.19.028.107 0 .155-.028.155-.077 0-.029-.02-.059-.076-.059-.087 0-.3-.019-.437-.04-.29-.038-.348-.252-.377-.531-.048-.408-.048-1.173-.048-2.101v-.233c0-.048.019-.077.067-.077l1.19.02c.06 0 .088.02.127.057.195.252.648.899 1.055 1.434.552.726.891 1.2 1.307 1.424.252.136.494.183 1.036.183h.687c.175 0 .232-.018.232-.077 0-.029-.038-.059-.087-.059-.057 0-.193 0-.377-.03-.242-.039-.658-.146-1.18-.694-.562-.602-1.221-1.463-2.015-2.48.872-.803 1.172-1.518 1.172-2.236 0-.67-.427-1.144-.668-1.319-.514-.364-1.162-.424-1.771-.424-.302 0-1.037.03-1.144.03-.047 0-.658-.03-1.093-.03-.106 0-.155.02-.155.079 0 .038.038.058.078.058.087 0 .25.009.329.029.32.067.397.218.416.549.019.311.019.582.019 2.09v1.706zm.775-4.027c0-.059.029-.1.077-.117.096-.03.358-.06.649-.06 1.036 0 1.675.73 1.675 1.938 0 .736-.252 1.259-.59 1.491-.224.157-.495.185-.727.185-.426 0-.871-.068-1.017-.154-.048-.031-.067-.068-.067-.117v-3.166z"/>
      <path d="M33.444 61.382c-.174.484-.368.852-.813.912-.078.01-.214.02-.282.02-.047 0-.086.02-.086.058 0 .06.058.077.184.077.455 0 .987-.027 1.094-.027.107 0 .522.027.756.027.086 0 .145-.018.145-.077 0-.039-.03-.059-.097-.059h-.097c-.165 0-.369-.087-.369-.282 0-.175.05-.403.135-.649l.582-1.714c.02-.046.048-.075.097-.075h2.081c.05 0 .068.018.088.056l.9 2.382c.058.156 0 .242-.058.263-.039.01-.067.03-.067.068 0 .06.105.06.29.07.667.017 1.374.017 1.52.017.107 0 .193-.018.193-.077 0-.049-.038-.059-.097-.059-.096 0-.242-.009-.388-.057-.202-.06-.482-.215-.831-1.078-.59-1.47-2.112-5.47-2.256-5.836-.116-.3-.155-.348-.213-.348-.058 0-.096.059-.213.377l-2.198 6.011zm1.354-2.136c-.027 0-.048-.02-.027-.07l.851-2.614c.049-.147.097-.147.146 0l.92 2.614c.009.04.009.07-.04.07h-1.85zM41.838 59.66c0 1.422.039 2.045.212 2.215.156.156.408.224 1.163.224.513 0 .938-.01 1.171-.291.126-.151.223-.395.252-.58.009-.078.029-.126.088-.126.048 0 .057.038.057.146 0 .107-.068.686-.145.968-.067.224-.096.261-.61.261-1.394 0-2.034-.055-2.595-.055-.087 0-.658.026-.948.026-.107 0-.156-.016-.156-.076 0-.029.02-.058.078-.058.087 0 .204-.02.29-.04.194-.039.243-.252.282-.532.048-.407.048-1.172.048-2.1v-1.707c0-1.508 0-1.778-.02-2.09-.02-.33-.096-.482-.415-.55a1.864 1.864 0 0 0-.33-.029c-.04 0-.077-.019-.077-.057 0-.06.048-.079.155-.079.435 0 1.045.03 1.093.03.048 0 .756-.03 1.047-.03.105 0 .154.02.154.08 0 .037-.039.056-.078.056-.068 0-.204.01-.32.03-.28.046-.357.208-.377.55-.02.31-.02.581-.02 2.09v1.724zM46.756 57.935c0-1.508 0-1.779-.02-2.09-.019-.331-.095-.482-.416-.55a1.766 1.766 0 0 0-.329-.028c-.039 0-.077-.02-.077-.058 0-.06.048-.08.154-.08.437 0 1.046.03 1.095.03.067 0 1.995 0 2.217-.01.184-.01.339-.03.416-.048.048-.01.086-.048.135-.048.03 0 .04.038.04.087 0 .069-.049.184-.078.453-.01.098-.03.525-.049.638-.009.048-.029.107-.067.107-.058 0-.078-.047-.078-.125 0-.068-.01-.231-.058-.347-.068-.158-.165-.273-.687-.331-.165-.021-1.22-.031-1.327-.031-.039 0-.058.03-.058.099v2.672c0 .07.01.098.058.098.126 0 1.317 0 1.54-.017.232-.022.368-.04.454-.137.068-.08.107-.128.146-.128.03 0 .048.02.048.079 0 .057-.048.224-.077.54-.02.193-.039.555-.039.62 0 .078 0 .182-.068.182-.048 0-.067-.039-.067-.086 0-.095 0-.19-.04-.317-.038-.136-.125-.302-.502-.34-.262-.03-1.22-.05-1.386-.05-.048 0-.067.029-.067.068v.854c0 .33-.009 1.451 0 1.654.03.668.175.793 1.123.793.252 0 .678 0 .929-.107.252-.106.37-.296.436-.696.02-.107.04-.146.088-.146.057 0 .057.08.057.146 0 .08-.076.736-.126.941-.067.252-.145.252-.522.252-1.462 0-2.111-.056-2.391-.056-.049 0-.658.027-.949.027-.107 0-.156-.017-.156-.076 0-.03.02-.06.078-.06.087 0 .204-.019.29-.04.195-.038.242-.252.282-.531.048-.408.048-1.173.048-2.101v-1.706zM55.807 59.64c0 .93 0 1.694-.048 2.102-.038.28-.087.493-.281.532a1.38 1.38 0 0 1-.29.04c-.058 0-.077.03-.077.058 0 .06.048.077.155.077.29 0 .9-.028.949-.028.096 0 1.317.114 2.149.114 1.644 0 2.517-.679 2.934-1.113.54-.57 1.044-1.51 1.044-2.73 0-1.15-.454-1.953-.939-2.461-1.153-1.19-2.923-1.101-3.881-1.101-.581 0-1.19.03-1.307.03-.048 0-.659-.03-1.094-.03-.108 0-.155.02-.155.079 0 .038.038.058.076.058.088 0 .254.009.33.029.32.067.397.218.416.549.02.311.02.582.02 2.09v1.706zm.814-1.86c0-.746 0-1.73.01-2.06 0-.107.028-.156.117-.195.076-.039.435-.069.628-.069 1.152 0 2.256.137 3.166 1.098.397.415.929 1.21.929 2.438 0 .892-.271 1.821-.774 2.313-.57.57-1.404.901-2.304.901-1.143 0-1.52-.203-1.645-.387-.078-.107-.098-.494-.108-.737-.01-.18-.02-1.072-.02-2.1v-1.201zM64.686 57.935c0-1.508 0-1.779-.02-2.09-.02-.331-.096-.482-.416-.55a1.756 1.756 0 0 0-.329-.028c-.04 0-.079-.02-.079-.058 0-.06.05-.08.156-.08.435 0 1.045.03 1.094.03.068 0 1.995 0 2.215-.01.186-.01.342-.03.42-.048.048-.01.085-.048.134-.048.029 0 .04.038.04.087 0 .069-.05.184-.08.453-.01.098-.028.525-.046.638-.01.048-.03.107-.067.107-.059 0-.08-.047-.08-.125 0-.068-.008-.231-.056-.347-.07-.158-.166-.273-.687-.331-.166-.021-1.223-.031-1.328-.031-.038 0-.057.03-.057.099v2.672c0 .07.008.098.057.098.125 0 1.317 0 1.539-.017.232-.022.368-.04.456-.137.068-.08.106-.128.146-.128.029 0 .048.02.048.079 0 .057-.048.224-.078.54-.019.193-.04.555-.04.62 0 .078 0 .182-.067.182-.049 0-.068-.039-.068-.086 0-.095 0-.19-.039-.317-.038-.136-.126-.302-.502-.34-.263-.03-1.223-.05-1.385-.05-.048 0-.067.029-.067.068v.854c0 .33-.011 1.451 0 1.654.029.668.17.793 1.121.793.253 0 .678 0 .931-.107.25-.106.367-.296.435-.696.017-.107.037-.146.084-.146.06 0 .06.08.06.146 0 .08-.079.736-.127.941-.065.252-.143.252-.52.252-1.462 0-2.109-.056-2.392-.056-.049 0-.659.027-.948.027-.107 0-.154-.017-.154-.076 0-.03.017-.06.076-.06.088 0 .204-.019.291-.04.194-.038.241-.252.28-.531.049-.408.049-1.173.049-2.101v-1.706zM74.551 59.66c0 1.422.038 2.045.213 2.215.155.156.405.224 1.162.224.513 0 .936-.01 1.171-.291.127-.151.224-.395.252-.58.01-.078.029-.126.086-.126.048 0 .058.038.058.146 0 .107-.068.686-.144.968-.066.224-.096.261-.611.261-1.394 0-2.032-.055-2.592-.055-.089 0-.66.026-.949.026-.108 0-.157-.016-.157-.076 0-.029.02-.058.077-.058.088 0 .206-.02.291-.04.192-.039.242-.252.28-.532.05-.407.05-1.172.05-2.1v-1.707c0-1.508 0-1.778-.021-2.09-.02-.33-.096-.482-.415-.55a1.843 1.843 0 0 0-.328-.029c-.041 0-.08-.019-.08-.057 0-.06.05-.079.157-.079.435 0 1.047.03 1.095.03.046 0 .755-.03 1.044-.03.104 0 .154.02.154.08 0 .037-.04.056-.079.056-.066 0-.201.01-.317.03-.282.046-.359.208-.378.55-.019.31-.019.581-.019 2.09v1.724zM78.86 61.382c-.175.484-.37.852-.812.912-.08.01-.216.02-.285.02-.048 0-.088.02-.088.058 0 .06.06.077.186.077.455 0 .988-.027 1.096-.027.106 0 .52.027.757.027.086 0 .143-.018.143-.077 0-.039-.028-.059-.095-.059h-.098c-.167 0-.37-.087-.37-.282 0-.175.047-.403.136-.649l.58-1.714c.019-.046.048-.075.096-.075h2.085c.048 0 .065.018.087.056l.898 2.382c.057.156 0 .242-.058.263-.04.01-.067.03-.067.068 0 .06.103.06.29.07.667.017 1.373.017 1.52.017.106 0 .194-.018.194-.077 0-.049-.04-.059-.098-.059-.097 0-.243-.009-.384-.057-.206-.06-.488-.215-.834-1.078-.592-1.47-2.112-5.47-2.255-5.836-.115-.3-.154-.348-.214-.348-.057 0-.097.059-.213.377l-2.196 6.011zm1.353-2.136c-.028 0-.048-.02-.028-.07l.85-2.614c.049-.147.099-.147.149 0l.918 2.614c.012.04.012.07-.038.07h-1.851zM85.878 57.935c0-1.508 0-1.779-.02-2.09-.02-.331-.096-.482-.415-.55a1.748 1.748 0 0 0-.33-.028c-.04 0-.08-.02-.08-.058 0-.06.05-.08.159-.08.434 0 1.026.03 1.111.03.087 0 .67-.03.958-.03.108 0 .154.02.154.08 0 .038-.035.058-.076.058-.07 0-.126.009-.242.029-.26.036-.339.208-.359.549-.017.311-.017.582-.017 2.09v1.358c0 1.395.31 1.992.725 2.392.475.444.91.531 1.462.531a2.04 2.04 0 0 0 1.52-.696c.446-.552.562-1.376.562-2.372v-1.213c0-1.508 0-1.779-.018-2.09-.018-.331-.098-.482-.42-.55a1.747 1.747 0 0 0-.325-.028c-.038 0-.078-.02-.078-.058 0-.06.048-.08.153-.08.435 0 .966.03 1.026.03.067 0 .524-.03.812-.03.107 0 .156.02.156.08 0 .038-.038.058-.078.058-.068 0-.125 0-.244.029-.255.046-.335.208-.355.549-.019.311-.019.582-.019 2.09v1.038c0 1.05-.118 2.205-.89 2.893-.697.624-1.422.718-1.995.718-.328 0-1.308-.039-1.994-.69-.474-.453-.843-1.129-.843-2.543v-1.416zM93.854 62.324c-.135-.068-.145-.108-.145-.37 0-.483.039-.872.05-1.024.01-.105.028-.155.077-.155.058 0 .068.028.068.106 0 .087 0 .22.028.357.147.716.786.988 1.433.988.93 0 1.383-.667 1.383-1.286 0-.671-.277-1.056-1.111-1.742l-.437-.362c-1.024-.842-1.258-1.441-1.258-2.097 0-1.04.776-1.745 2.004-1.745.379 0 .66.038.9.097.183.039.262.049.34.049.076 0 .099.02.099.069 0 .048-.04.365-.04 1.022 0 .157-.02.224-.07.224-.057 0-.067-.05-.077-.126a1.754 1.754 0 0 0-.126-.484c-.058-.106-.319-.513-1.207-.513-.672 0-1.195.417-1.195 1.123 0 .552.273.881 1.186 1.626l.267.216c1.143.901 1.414 1.5 1.414 2.272 0 .399-.152 1.136-.822 1.608-.418.293-.938.407-1.462.407-.456 0-.9-.067-1.3-.26M99.189 61.382c-.172.484-.367.852-.814.912-.077.01-.212.02-.277.02-.05 0-.089.02-.089.058 0 .06.058.077.183.077.455 0 .985-.027 1.092-.027.107 0 .526.027.755.027.087 0 .145-.018.145-.077 0-.039-.029-.059-.094-.059h-.1c-.162 0-.364-.087-.364-.282 0-.175.05-.403.136-.649l.58-1.714c.02-.046.05-.075.098-.075h2.08c.047 0 .066.018.085.056l.902 2.382c.057.156 0 .242-.058.263-.04.01-.07.03-.07.068 0 .06.108.06.295.07.667.017 1.372.017 1.519.017.108 0 .195-.018.195-.077 0-.049-.041-.059-.098-.059-.097 0-.244-.009-.39-.057-.204-.06-.482-.215-.833-1.078-.59-1.47-2.109-5.47-2.255-5.836-.116-.3-.156-.348-.214-.348-.056 0-.094.059-.21.377l-2.2 6.011zm1.356-2.136c-.028 0-.048-.02-.028-.07l.852-2.614c.05-.147.096-.147.143 0l.92 2.614c.01.04.01.07-.04.07h-1.847zM107.031 61.13c.02.796.116 1.047.377 1.126.187.048.398.058.484.058.048 0 .078.02.078.058 0 .06-.059.076-.172.076-.556 0-.939-.026-1.027-.026-.089 0-.495.026-.93.026-.099 0-.156-.008-.156-.076 0-.039.03-.058.077-.058.078 0 .253-.01.399-.058.24-.069.288-.351.288-1.23l.008-5.55c0-.376.03-.483.108-.483s.245.216.343.312c.144.161 1.586 1.721 3.076 3.32.96 1.024 2.01 2.21 2.324 2.524l-.108-4.918c-.01-.629-.077-.84-.376-.916a2.652 2.652 0 0 0-.476-.049c-.067 0-.077-.029-.077-.067 0-.06.077-.069.194-.069.435 0 .901.03 1.008.03.106 0 .423-.03.822-.03.107 0 .175.01.175.07 0 .037-.039.066-.106.066a.86.86 0 0 0-.233.03c-.322.068-.358.277-.358.86l-.02 5.673c0 .641-.021.687-.087.687-.075 0-.193-.106-.706-.621-.108-.097-1.502-1.52-2.529-2.62a184.709 184.709 0 0 1-2.523-2.78l.123 4.635zM116.197 61.13c.021.796.119 1.047.381 1.126.183.048.395.058.483.058.05 0 .077.02.077.058 0 .06-.057.076-.176.076-.55 0-.938-.026-1.024-.026-.088 0-.494.026-.93.026-.096 0-.153-.008-.153-.076 0-.039.03-.058.078-.058.075 0 .25-.01.394-.058.242-.069.292-.351.292-1.23l.01-5.55c0-.376.028-.483.105-.483s.244.216.338.312c.146.161 1.589 1.721 3.08 3.32.957 1.024 2.015 2.21 2.324 2.524l-.104-4.918c-.012-.629-.08-.84-.38-.916a2.656 2.656 0 0 0-.473-.049c-.068 0-.078-.029-.078-.067 0-.06.078-.069.194-.069.434 0 .9.03 1.004.03.107 0 .427-.03.823-.03.107 0 .174.01.174.07 0 .037-.036.066-.107.066-.05 0-.116 0-.23.03-.318.068-.36.277-.36.86l-.017 5.673c0 .641-.022.687-.088.687-.078 0-.195-.106-.705-.621-.11-.097-1.5-1.52-2.53-2.62a229.563 229.563 0 0 1-2.527-2.78l.125 4.635zM125.106 57.935c0-1.508 0-1.779-.019-2.09-.02-.331-.098-.482-.415-.55a1.755 1.755 0 0 0-.33-.028c-.04 0-.078-.02-.078-.058 0-.06.05-.08.154-.08.435 0 1.048.03 1.095.03.067 0 1.995 0 2.219-.01.181-.01.334-.03.414-.048.048-.01.087-.048.137-.048.029 0 .038.038.038.087 0 .069-.048.184-.078.453-.01.098-.03.525-.05.638-.008.048-.027.107-.068.107-.06 0-.077-.047-.077-.125 0-.068-.011-.231-.056-.347-.069-.158-.166-.273-.691-.331-.163-.021-1.216-.031-1.322-.031-.04 0-.06.03-.06.099v2.672c0 .07.011.098.06.098.126 0 1.313 0 1.539-.017.233-.022.368-.04.454-.137.065-.08.105-.128.143-.128.031 0 .05.02.05.079 0 .057-.05.224-.078.54a9.83 9.83 0 0 0-.04.62c0 .078 0 .182-.065.182-.05 0-.069-.039-.069-.086 0-.095 0-.19-.039-.317-.036-.136-.123-.302-.503-.34-.263-.03-1.22-.05-1.383-.05-.05 0-.069.029-.069.068v.854c0 .33-.009 1.451 0 1.654.03.668.177.793 1.125.793.248 0 .678 0 .928-.107.252-.106.367-.296.438-.696.017-.107.037-.146.086-.146.058 0 .058.08.058.146 0 .08-.079.736-.127.941-.067.252-.144.252-.524.252-1.463 0-2.11-.056-2.39-.056-.047 0-.66.027-.947.027-.109 0-.156-.017-.156-.076 0-.03.02-.06.077-.06.086 0 .204-.019.29-.04.193-.038.241-.252.28-.531.05-.408.05-1.173.05-2.101v-1.706z"/>
    </g>
    <path d="M41.58 36.524H0V0h41.58c-10.812 21.625 0 36.524 0 36.524zm50.184.02c-5.495-8.74-5.136-16.579-5.136-16.579L86.605 0h42.259l-.034 36.54-37.066.003z" fill="#E30713"/>
    <path d="M50.787 0s-4.774 8.334-4.954 16.172h4.415v3.783h-4.596s-.36 7.84 5.135 16.576h-4.46s-10.81-14.908 0-36.531h4.46zm16.648 36.53l-.02-18.248C67.526 13.036 68.78 6.855 72.21 0h4.458s-4.775 8.334-4.957 16.171h4.417v3.785H71.64V36.53h-4.205zm14.178-16.567s-.363 7.838 5.134 16.577h-4.461s-5.043-6.954-4.794-18.253V0h4.1l.021 19.963zM53.03 36.538V0h4.144v36.538H53.03zM63.198 0c6.536 9.65 0 18.29 0 18.29h-4.414c6.939-9.19 0-18.29 0-18.29h4.414z" fill="#FFF"/>
  </g>
</svg>