<svg id="Calque_1" data-name="Calque 1" xmlns="http://www.w3.org/2000/svg" width="253" height="360" viewBox="0 0 253 360"><title>portrait-placeholder</title><path d="M100.93,176.53S104,204,126.5,204s25.57-27.46,25.57-27.46,4.85,1,7.19-9.28c1.5-6.7-.5-8.49-1.76-8.49h-1.2c5.88-32.49-17.8-42.77-29.8-42.77s-35.68,10.28-29.8,42.76H95.5c-1.26,0-3.26,1.79-1.76,8.49C96.08,177.58,100.93,176.53,100.93,176.53ZM168.86,216c-20.26-3.89-24.34-8-25.1-11.64a29.14,29.14,0,0,1-34.52,0c-.74,3.64-4.84,7.72-25.1,11.64-20.85,4-20.57,21.18-20.57,24H189.43c0-2.85.28-20-20.57-24Z"/></svg>