<svg xmlns="http://www.w3.org/2000/svg" viewBox="0 0 755.98 339.77"><defs><style>.cls-1{fill:#fff;}</style></defs><title>reseaux-solidaires</title><g id="Layer_2" data-name="Layer 2"><g id="Designs"><path class="cls-1" d="M81.53,86.41c13.7-6.61,22-20.26,22-36.89,0-24.3-17.33-40.63-43.12-40.63H14.63A4.91,4.91,0,0,0,9.72,13.8V133.68a4.91,4.91,0,0,0,4.91,4.91h15a4.91,4.91,0,0,0,4.91-4.91V91.15H56.15L80.43,136a4.91,4.91,0,0,0,4.32,2.57h17.53a4.91,4.91,0,0,0,4.29-7.3ZM34.49,32H58.41c12.8,0,19.85,6.4,19.85,18,0,12-6.46,18.1-19.18,18.1H34.49Z"/><path class="cls-1" d="M165.8,28.2h12.3a4.91,4.91,0,0,0,3.7-1.69L196.94,8.13A4.91,4.91,0,0,0,193.24,0H176.79a4.91,4.91,0,0,0-4,2.08l-11,18.38a4.91,4.91,0,0,0,4,7.73Z"/><path class="cls-1" d="M213.49,104.91a4.91,4.91,0,0,0-3.74-1.73H195.46a4.91,4.91,0,0,0-4.69,3.47c-1.94,6.32-8.77,10.24-17.82,10.24-12,0-19.83-7.21-21.27-19.09h59.16a4.91,4.91,0,0,0,4.91-4.91V87.24c0-29.68-17.19-48.86-43.79-48.86-27.08,0-45.28,20.44-45.28,50.85s18,50.18,45.95,50.18c21.45,0,39.11-12.84,42-30.54A4.91,4.91,0,0,0,213.49,104.91Zm-41.79-44c9.77,0,16.71,5.94,18.64,15.52H152.24C154.66,66.85,161.9,60.91,171.7,60.91Z"/><path class="cls-1" d="M317.41,108.42c0-17.88-11.31-24.4-28.31-28.69l-13.62-3.41c-11.4-2.85-11.4-6.56-11.4-7.95,0-5.62,6.8-8.14,13.54-8.14,8.33,0,13.68,3.46,14.31,9.25a4.91,4.91,0,0,0,4.88,4.38h13.87a4.91,4.91,0,0,0,4.9-5.1c-.68-17.28-16.79-30.3-37.47-30.3C256.05,38.46,240,51.36,240,69.13c0,14.38,9.09,24,27,28.68l15.7,4.07c10.28,2.68,10.28,5.15,10.28,7.55,0,6.06-7.72,8.22-14.95,8.22-9.71,0-15.18-3.34-16.26-9.92A4.91,4.91,0,0,0,257,103.6H242.46a4.91,4.91,0,0,0-4.89,5.35c1.66,18.22,17.54,30.47,39.53,30.47C300.46,139.42,317.41,126.38,317.41,108.42Z"/><path class="cls-1" d="M427.23,108.88a4.91,4.91,0,0,0-4.84-5.69H408.1a4.91,4.91,0,0,0-4.69,3.47c-1.94,6.32-8.77,10.24-17.82,10.24-12,0-19.83-7.21-21.27-19.09h59.16a4.91,4.91,0,0,0,4.91-4.91V87.24c0-29.68-17.19-48.86-43.79-48.86-27.08,0-45.28,20.44-45.28,50.85s18,50.18,45.95,50.18C406.71,139.42,424.36,126.57,427.23,108.88Zm-42.89-48c9.77,0,16.71,5.94,18.64,15.52H364.87C367.3,66.85,374.53,60.91,384.34,60.91Z"/><path class="cls-1" d="M533,72.2c0-20.23-16-33.82-39.72-33.82-21.63,0-38.31,13.52-38.8,31.44a4.91,4.91,0,0,0,4.91,5H473.3a4.91,4.91,0,0,0,4.81-3.92c1.25-6.09,7-9.87,15-9.87,15.61,0,15.61,9.31,15.61,12.37V76.3l-20.48,1.22C464,79,450.11,90.17,450.11,108.17c0,18.69,14.12,31.24,35.15,31.24a39.18,39.18,0,0,0,24.25-8.23v2.49a4.91,4.91,0,0,0,4.91,4.91h13.71a4.91,4.91,0,0,0,4.91-4.91Zm-44.7,44.86c-6.58,0-13.62-2.31-13.62-8.8,0-2.1,0-8.5,15.84-9.47l18.21-1.16v2C508.76,109.72,500.17,117.06,488.33,117.06Z"/><path class="cls-1" d="M598.31,139.42c9.71,0,17.7-2.48,23.92-7.39v1.65a4.91,4.91,0,0,0,4.91,4.91h13.62a4.91,4.91,0,0,0,4.91-4.91V44.12a4.91,4.91,0,0,0-4.91-4.91H626.3a4.91,4.91,0,0,0-4.91,4.91v52c0,12.9-7,20.6-18.69,20.6-11.08,0-16-5.46-16-17.69V44.12a4.91,4.91,0,0,0-4.91-4.91H567.32a4.91,4.91,0,0,0-4.91,4.91v57.41C562.41,124.9,576.16,139.42,598.31,139.42Z"/><path class="cls-1" d="M694.14,136.31l17.86-28,17.72,28a4.91,4.91,0,0,0,4.15,2.29H750a4.91,4.91,0,0,0,4.1-7.61L726,88.37,754.45,46.9a4.91,4.91,0,0,0-4-7.68H734.28a4.91,4.91,0,0,0-4.14,2.27L712.49,69.11,694.62,41.46a4.91,4.91,0,0,0-4.12-2.24H674.39a4.91,4.91,0,0,0-4.07,7.65l28.29,42-28.77,42a4.91,4.91,0,0,0,4,7.68H690A4.91,4.91,0,0,0,694.14,136.31Z"/><path class="cls-1" d="M54.82,269.47l-13.19-3.28C20,260.85,17,253.73,17,246.83,17,234.38,29,225,44.93,225c16.16,0,28.78,8.81,29.37,20.5a4.91,4.91,0,0,0,4.9,4.66h4A4.91,4.91,0,0,0,88.1,245c-.84-19.12-19.4-33.53-43.17-33.53C21.53,211.49,3.2,227,3.2,246.83c0,21.46,19.86,28.91,34.79,32.64l13.34,3.36c21,5.27,25.2,11.68,25.2,20.32,0,13.62-12.4,23.13-30.16,23.13-18.43,0-31.82-9.78-32.56-23.79a4.91,4.91,0,0,0-4.9-4.65h-4A4.91,4.91,0,0,0,0,303c1,21.32,20.43,36.79,46.2,36.79,26,0,44.13-15.12,44.13-36.78C90.34,281.12,71.36,273.59,54.82,269.47Z"/><path class="cls-1" d="M151.28,241.13c-25.58,0-42.77,19.76-42.77,49.16s17.19,49.16,42.77,49.16S194,319.7,194,290.29,176.86,241.13,151.28,241.13Zm0,84.75c-17.86,0-29-13.64-29-35.59s11.1-35.67,29-35.67,29,13.67,29,35.67S169.19,325.88,151.28,325.88Z"/><rect class="cls-1" x="214.53" y="208.06" width="13.73" height="130.12" rx="4.91" ry="4.91"/><path class="cls-1" d="M260.85,211.57a8.74,8.74,0,1,0,8.74,8.74A8.79,8.79,0,0,0,260.85,211.57Z"/><rect class="cls-1" x="253.94" y="242.41" width="13.73" height="95.77" rx="4.91" ry="4.91"/><path class="cls-1" d="M367.43,208.06h-4a4.91,4.91,0,0,0-4.91,4.91v40.5a39.36,39.36,0,0,0-28.8-12.33c-24.48,0-41.57,20.22-41.57,49.16s17.1,49.16,41.57,49.16a39.46,39.46,0,0,0,29.12-12.77v6.58a4.91,4.91,0,0,0,4.91,4.91h3.67a4.91,4.91,0,0,0,4.91-4.91V213A4.91,4.91,0,0,0,367.43,208.06ZM329.89,325.88c-16.7,0-27.92-14.34-27.92-35.67s11.22-35.59,27.92-35.59c16.86,0,28.64,14.67,28.64,35.67S346.75,325.88,329.89,325.88Z"/><path class="cls-1" d="M435.2,241.13c-20.83,0-35.1,11.74-37.23,30.64a4.91,4.91,0,0,0,4.88,5.46h3.75a4.91,4.91,0,0,0,4.85-4.15c2.37-15.25,14.22-18.45,23.75-18.45,13.58,0,21.05,7.53,21.05,21.21V279l-26.56,2c-30.34,2.43-34.87,19.42-34.87,29.34,0,16.82,14,29,33.35,29a42.63,42.63,0,0,0,28.08-10.24v4.05a4.91,4.91,0,0,0,4.91,4.91h3.91a4.91,4.91,0,0,0,4.91-4.91V275.59C470,254.66,456.33,241.13,435.2,241.13ZM428.41,326c-11.46,0-19.78-6.54-19.78-15.54,0-9.54,7.56-15,22.46-16.12l25.15-1.91v9.24C456.25,315,443.76,326,428.41,326Z"/><rect class="cls-1" x="494.3" y="242.41" width="13.73" height="95.77" rx="4.91" ry="4.91"/><path class="cls-1" d="M501.21,211.57a8.74,8.74,0,1,0,8.74,8.74A8.79,8.79,0,0,0,501.21,211.57Z"/><path class="cls-1" d="M575.94,243.2a28.58,28.58,0,0,0-10.56-2.07c-7.55,0-14,2.35-19,6.83v-.64a4.91,4.91,0,0,0-4.91-4.91h-3.67a4.91,4.91,0,0,0-4.91,4.91v86a4.91,4.91,0,0,0,4.91,4.91h3.91a4.91,4.91,0,0,0,4.91-4.91V279.75c0-15.22,7.1-25,18.1-25a15.87,15.87,0,0,1,7.07,1.48,4.91,4.91,0,0,0,7.1-4.39v-4.07A4.91,4.91,0,0,0,575.94,243.2Z"/><path class="cls-1" d="M626.75,241.13c-25.3,0-42.29,19.76-42.29,49.16,0,30.32,16.45,49.16,42.93,49.16,20.56,0,36.12-11.43,39.64-29.11a4.91,4.91,0,0,0-4.81-5.86h-4.07a4.91,4.91,0,0,0-4.8,3.9c-2.28,10.85-12.2,17.59-25.87,17.59-16.9,0-27.5-11.29-29-30.6h64.88a4.91,4.91,0,0,0,4.91-4.91v-3C668.25,260.16,651.18,241.13,626.75,241.13Zm-27.94,40.82c2.41-16.77,13-27.33,27.94-27.33,15.11,0,25.7,10.79,27.43,27.33Z"/><path class="cls-1" d="M728.09,283.92l-13.37-3.2c-14.13-3.29-15.3-7.59-15.3-12.07,0-8.78,10.22-14,20.1-14,12.2,0,20.23,6.79,21.48,18.15a4.91,4.91,0,0,0,4.88,4.37h3.83a4.91,4.91,0,0,0,4.89-5.37c-1.76-18.62-15.53-30.65-35.08-30.65-19.28,0-33.83,11.86-33.83,27.59,0,17.17,14.5,22.62,25.45,25.23l13.48,3.11c16.19,3.82,17.55,9.08,17.55,14.16,0,9.68-11.27,14.74-22.41,14.74-12.34,0-22.29-7.48-23.15-17.4a4.91,4.91,0,0,0-4.89-4.49h-4a4.91,4.91,0,0,0-4.9,5.22c1.1,17.48,16.66,30.16,37,30.16,21.28,0,36.14-11.71,36.14-28.47C756,293,741.09,287.09,728.09,283.92Z"/></g></g></svg>