<?xml version="1.0" standalone="no"?>
<!DOCTYPE svg PUBLIC "-//W3C//DTD SVG 1.1//EN" "http://www.w3.org/Graphics/SVG/1.1/DTD/svg11.dtd" >
<svg xmlns="http://www.w3.org/2000/svg">
<metadata>
Created by FontPrep 20130207 at Mon Jul 31 08:58:03 2017
 By Toni Fisler
(c) 2015 Apple Inc. All rights reserved.
</metadata>
<defs>
<font id="e94601dcad73f6dc7b5cc6eac8aff4e6" horiz-adv-x='1024' >
  <font-face 
    font-family="SFUIText-Semibold"
    font-weight="600"
    font-stretch="normal"
    units-per-em="2048"
    panose-1="0 0 7 0 0 0 0 0 0 0"
    ascent="1638"
    descent="-410"
    x-height="1094"
    cap-height="1443"
    bbox="-616 -571.014 2756 2209"
    underline-thickness="169"
    underline-position="-205"
    unicode-range="U+0020-FB02"
  />
<missing-glyph horiz-adv-x="2048" 
d="M100 1721v229h1848v-229h-1848zM100 1278v229h1848v-229h-1848zM100 835v229h1848v-229h-1848zM100 392v229h1848v-229h-1848zM100 -51v229h1848v-229h-1848zM100 -494v229h1848v-229h-1848z" />
    <glyph glyph-name=".notdef" horiz-adv-x="2048" 
d="M100 1721v229h1848v-229h-1848zM100 1278v229h1848v-229h-1848zM100 835v229h1848v-229h-1848zM100 392v229h1848v-229h-1848zM100 -51v229h1848v-229h-1848zM100 -494v229h1848v-229h-1848z" />
    <glyph glyph-name=".null" 
 />
    <glyph glyph-name="nonmarkingreturn" 
 />
    <glyph glyph-name="space" unicode=" " horiz-adv-x="546" 
 />
    <glyph glyph-name="exclam" unicode="!" horiz-adv-x="696" 
d="M182 134q0 72 45 116t121 43q76 1 121 -43t45 -116t-45 -116t-121 -44t-121 44t-45 116zM209 1444h277l-23 -967h-231z" />
    <glyph glyph-name="quotedbl" unicode="&#x22;" horiz-adv-x="972" 
d="M810 857h-217v586h217v-586zM379 857h-217v586h217v-586z" />
    <glyph glyph-name="numbersign" unicode="#" horiz-adv-x="1337" 
d="M558 886l-63 -312h278l65 312h-280zM1232 873h-213l-59 -286h211l-37 -194h-212l-79 -393h-194l80 393h-260l-80 -393h-193l80 393h-210l39 194h210l58 286h-209l37 192h210l77 378h192l-76 -378h260l77 378h194l-78 -378h212z" />
    <glyph glyph-name="dollar" unicode="$" horiz-adv-x="1383" 
d="M422 1063q0 -149 205 -192v377q-89 -5 -147 -58t-58 -127zM995 392q0 84 -56 134t-174 72v-402q110 8 170 60t60 136zM765 -136h-138v129q-223 13 -353 124t-130 288h244q7 -84 71 -140t168 -67v426l-96 23q-356 89 -356 407q0 164 120 273q120 110 332 128v138h138v-138
q200 -18 321 -129t125 -280h-239q-2 77 -60 133t-147 68v-405l99 -21q375 -87 375 -399q0 -186 -124 -298t-350 -130v-130z" />
    <glyph glyph-name="percent" unicode="%" horiz-adv-x="1668" 
d="M398 923q58 0 92 52q34 53 34 141t-34 138t-92 51q-59 0 -93 -51t-34 -139q1 -88 35 -140t92 -52zM457 0h-246l547 754l460 689h245l-556 -764zM398 754q-146 0 -237 100t-91 260t91 260t237 99q146 1 236 -99t90 -260t-90 -260t-236 -100zM1270 -30q-146 0 -236 100
t-90 260t90 260t236 99q146 1 236 -99t91 -260q-1 -160 -91 -260t-236 -100zM1270 139q58 0 92 52t35 140t-33 139t-92 51q-58 1 -94 -51q-34 -52 -34 -140t34 -140t92 -51z" />
    <glyph glyph-name="ampersand" unicode="&#x26;" horiz-adv-x="1500" 
d="M836 1126q0 72 -48 118t-126 46q-76 0 -124 -46t-49 -110q-1 -63 31 -115t110 -128q110 56 158 110q48 53 48 125zM349 400q1 -104 79 -168t185 -65q208 0 315 111l-359 385q-19 -7 -45 -22q-175 -93 -175 -241zM609 -27q-225 -1 -362 111t-137 296q0 125 67 220t208 171
q3 2 29 16t32 17q-98 102 -139 178t-41 155q0 145 112 239t284 94q170 0 280 -92t110 -238q0 -112 -72 -202t-228 -173l307 -325q57 106 57 309v54h217v-66q0 -286 -121 -460l261 -277h-290l-119 127q-85 -73 -204 -113t-251 -41z" />
    <glyph glyph-name="quotesingle" unicode="'" horiz-adv-x="540" 
d="M379 857h-217v586h217v-586z" />
    <glyph glyph-name="parenleft" unicode="(" horiz-adv-x="775" 
d="M166 600q0 256 66 454t214 388h224q-108 -126 -178 -362t-70 -475q0 -238 58 -448t187 -434h-230q-129 161 -200 391t-71 486z" />
    <glyph glyph-name="parenright" unicode=")" horiz-adv-x="775" 
d="M353 606q1 238 -69 474t-179 362h225q148 -189 214 -387q66 -199 65 -455t-71 -485t-199 -392h-231q128 224 186 434q58 211 59 449z" />
    <glyph glyph-name="asterisk" unicode="*" horiz-adv-x="1037" 
d="M631 1064l256 -112l-84 -148l-226 161l26 -275h-169l26 275l-226 -161l-84 148l257 112l-257 116l84 150l227 -170l-27 283h169l-27 -283l227 170l84 -150z" />
    <glyph glyph-name="plus" unicode="+" horiz-adv-x="1383" 
d="M800 474v-419h-216v419h-421v218h421v418h216v-418h420v-218h-420z" />
    <glyph glyph-name="comma" unicode="," horiz-adv-x="674" 
d="M348 -381h-203l85 612h257z" />
    <glyph glyph-name="hyphen" unicode="-" horiz-adv-x="983" 
d="M820 465h-657v233h657v-233z" />
    <glyph glyph-name="hyphen" unicode="&#x2011;" horiz-adv-x="983" 
d="M820 465h-657v233h657v-233z" />
    <glyph glyph-name="period" unicode="." horiz-adv-x="674" 
d="M338 -21q-70 0 -116 45q-45 46 -45 114t45 112q46 44 116 45q70 -1 114 -45t45 -112q-1 -68 -45 -114q-44 -45 -114 -45z" />
    <glyph glyph-name="slash" unicode="/" horiz-adv-x="750" 
d="M274 -302h-225l423 1745h229z" />
    <glyph glyph-name="zero" unicode="0" horiz-adv-x="1361" 
d="M681 178q137 0 213 140t76 404q0 262 -76 402t-213 140t-213 -140t-77 -402q0 -262 76 -404q76 -140 214 -140zM680 -36q-260 0 -404 200q-146 200 -146 558t146 558t405 199q258 0 404 -200q146 -199 146 -557q1 -358 -145 -558t-406 -200z" />
    <glyph glyph-name="one" unicode="1" horiz-adv-x="1016" 
d="M499 0v1183h-17l-359 -252v248l377 264h257v-1443h-258z" />
    <glyph glyph-name="two" unicode="2" horiz-adv-x="1289" 
d="M137 1021q1 202 141 330t358 128t356 -117t139 -298q0 -116 -70 -230t-254 -295l-302 -303v-17h648v-219h-1002v179l481 492q148 149 197 225t49 162t-70 147q-70 62 -179 62q-110 0 -180 -68t-70 -178v-4h-242v4z" />
    <glyph glyph-name="three" unicode="3" horiz-adv-x="1339" 
d="M482 640v200h176q110 0 179 60t69 158q0 96 -68 154t-180 57q-112 0 -182 -59t-76 -161h-241q10 199 146 315q135 116 353 115q218 1 358 -109t139 -276q-1 -127 -71 -217t-190 -115v-17q148 -17 234 -111t85 -238q1 -186 -155 -309t-390 -123t-380 119t-157 317h247
q8 -100 87 -160t203 -59t204 65q78 64 78 168t-77 165t-210 61h-181z" />
    <glyph glyph-name="four" unicode="4" horiz-adv-x="1377" 
d="M354 481h470v752h-14q-234 -346 -456 -737v-15zM820 0v269h-705v230q176 324 588 944h364v-956h195v-218h-195v-269h-247z" />
    <glyph glyph-name="five" unicode="5" horiz-adv-x="1326" 
d="M675 755q-181 0 -265 -142h-234l75 830h869v-218h-669l-35 -405h17q100 135 305 135q204 0 336 -136t132 -355q0 -220 -148 -360t-378 -140q-232 0 -375 122t-152 314h242q12 -99 89 -160q76 -61 196 -61q120 1 198 79t79 207q-1 129 -79 209t-203 81z" />
    <glyph glyph-name="six" unicode="6" horiz-adv-x="1366" 
d="M700 180q122 0 204 82t82 204t-80 202t-204 79q-124 0 -205 -79t-81 -201q0 -123 82 -205q80 -82 202 -82zM703 -35q-159 0 -281 73t-194 212q-102 180 -102 456q0 364 154 568t431 205q197 1 337 -107t171 -286h-258q-23 82 -91 130t-161 47q-158 1 -247 -139t-89 -388
h17q51 104 149 160t225 56q206 0 340 -136t135 -352q-1 -216 -151 -357q-150 -142 -385 -142z" />
    <glyph glyph-name="seven" unicode="7" horiz-adv-x="1213" 
d="M841 1226h-744v217h1004v-220l-617 -1223h-270l627 1210v16z" />
    <glyph glyph-name="eight" unicode="8" horiz-adv-x="1380" 
d="M690 849q110 -1 178 59t69 156q-1 96 -69 156t-178 61q-110 -1 -180 -61q-68 -60 -68 -156t69 -156t179 -59zM690 165q130 -1 212 67t81 176q1 108 -81 176t-212 67q-130 1 -212 -67t-82 -176t82 -176t212 -67zM690 -36q-248 0 -404 118t-156 304q0 138 85 238t227 130
v17q-114 29 -184 115t-70 202q0 171 141 281t361 110t360 -110t141 -281q-1 -116 -69 -202t-184 -115v-17q140 -26 226 -126t86 -241q0 -187 -156 -305t-404 -118z" />
    <glyph glyph-name="nine" unicode="9" horiz-adv-x="1366" 
d="M664 697q124 0 205 79q81 78 81 200t-82 205t-203 83t-203 -82t-82 -204t80 -202t204 -79zM993 708h-17q-51 -104 -149 -160t-225 -56q-206 0 -340 136t-135 351q1 215 151 357t385 143q158 0 280 -73t195 -212q102 -181 102 -456q0 -364 -155 -568t-430 -205
q-198 -1 -337 107t-171 286h257q24 -82 92 -130t161 -47q158 -1 247 139t89 388z" />
    <glyph glyph-name="colon" unicode=":" horiz-adv-x="674" 
d="M338 729q-70 1 -116 45q-45 44 -45 112t45 114q46 44 116 44t114 -44t45 -114q-1 -68 -45 -112t-114 -45zM338 -21q-70 0 -116 45q-45 46 -45 114t45 112q46 44 116 45q70 -1 114 -45t45 -112q-1 -68 -45 -114q-44 -45 -114 -45z" />
    <glyph glyph-name="semicolon" unicode=";" horiz-adv-x="674" 
d="M338 729q-70 1 -116 45q-45 44 -45 112t45 114q46 44 116 44t114 -44t45 -114q-1 -68 -45 -112t-114 -45zM331 -381h-203l85 612h257z" />
    <glyph glyph-name="less" unicode="&#x3c;" horiz-adv-x="1383" 
d="M1155 252v-260l-927 501v201l927 501v-260l-676 -333v-17z" />
    <glyph glyph-name="equal" unicode="=" horiz-adv-x="1383" 
d="M1216 697h-1049v219h1049v-219zM1216 251h-1049v219h1049v-219z" />
    <glyph glyph-name="greater" unicode="&#x3e;" horiz-adv-x="1383" 
d="M228 252l676 333v17l-676 333v260l927 -501v-201l-927 -501v260z" />
    <glyph glyph-name="question" unicode="?" horiz-adv-x="1108" 
d="M518 -26q-76 0 -120 44q-46 44 -46 116t46 116t120 43q76 1 121 -43t45 -116t-45 -116t-121 -44zM540 1455q210 0 336 -106t127 -273q0 -215 -212 -341q-98 -57 -133 -105t-35 -122v-57h-232l-1 68q-6 111 38 185t144 134t135 108q36 48 36 124t-58 126t-153 50t-154 -54
t-65 -146h-235q6 183 128 296q124 113 334 113z" />
    <glyph glyph-name="at" unicode="@" horiz-adv-x="1892" 
d="M971 1445q177 -1 327 -55t255 -150t164 -235q59 -138 59 -301q0 -241 -104 -382t-283 -141q-91 0 -154 44t-77 117h-18q-64 -156 -232 -156t-262 116q-96 116 -96 303t95 301t246 114q80 0 142 -38t91 -104h18v121h183v-551q1 -52 27 -82t75 -30q83 0 132 97t49 261
q0 270 -178 436t-468 166q-291 0 -476 -194t-185 -500q1 -306 189 -490t508 -184q197 0 295 39v-150q-133 -40 -305 -40q-257 1 -451 103t-299 291t-105 437q-1 248 105 437q106 190 296 295t437 105zM938 851q-88 1 -137 -65t-49 -182t49 -181q49 -66 137 -66q88 1 139 67
q52 66 52 180q1 114 -51 180t-140 67z" />
    <glyph glyph-name="A" unicode="A" horiz-adv-x="1456" 
d="M714 1168l-198 -595h411l-196 595h-17zM1109 0l-122 369h-531l-124 -369h-261l512 1443h290l513 -1443h-277z" />
    <glyph glyph-name="B" unicode="B" horiz-adv-x="1393" 
d="M436 205h300q143 -1 217 57t74 167q0 221 -301 221h-290v-445zM436 1238v-402h249q137 0 209 52t71 148q0 96 -65 149t-182 53h-282zM795 0h-617v1443h603q205 -1 322 -97t117 -263q0 -114 -74 -203t-183 -106v-18q146 -14 237 -110t91 -236q-1 -190 -133 -300t-363 -110
z" />
    <glyph glyph-name="C" unicode="C" horiz-adv-x="1499" 
d="M780 -36q-307 0 -485 204t-178 554q-1 351 177 554t485 203q246 -1 417 -145t194 -370h-254q-27 130 -124 208t-233 77q-184 1 -291 -141t-107 -386t107 -386t292 -142q137 0 234 72t123 192h254q-26 -222 -194 -358t-417 -136z" />
    <glyph glyph-name="D" unicode="D" horiz-adv-x="1514" 
d="M436 1220v-997h249q216 0 333 130q117 131 117 369q-1 238 -119 368t-331 130h-249zM178 1443h541q323 1 501 -187t178 -532t-178 -534t-501 -190h-541v1443z" />
    <glyph glyph-name="E" unicode="E" horiz-adv-x="1254" 
d="M1112 223v-223h-934v1443h934v-223h-676v-383h639v-210h-639v-404h676z" />
    <glyph glyph-name="F" unicode="F" horiz-adv-x="1205" 
d="M436 0h-258v1443h920v-223h-662v-420h605v-215h-605v-585z" />
    <glyph glyph-name="G" unicode="G" horiz-adv-x="1547" 
d="M1426 578q0 -282 -171 -448t-473 -166t-483 204q-182 204 -182 552t183 554t491 205q250 0 419 -132t204 -353h-257q-39 123 -133 189t-233 66q-189 0 -299 -141q-110 -142 -111 -386q1 -244 113 -386t291 -142t282 92t106 241l1 30h-347v202h599v-181z" />
    <glyph glyph-name="H" unicode="H" horiz-adv-x="1573" 
d="M1395 0h-257v623h-702v-623h-258v1443h258v-597h702v597h257v-1443z" />
    <glyph glyph-name="I" unicode="I" horiz-adv-x="614" 
d="M436 0h-258v1443h258v-1443z" />
    <glyph glyph-name="J" unicode="J" horiz-adv-x="1184" 
d="M79 393h252q1 -89 58 -143t154 -54t151 60t54 177v1010h258v-1012q0 -223 -123 -345t-337 -122t-340 117q-127 117 -127 312z" />
    <glyph glyph-name="K" unicode="K" horiz-adv-x="1415" 
d="M436 0h-258v1443h258v-664h17l569 664h296l-545 -629l588 -814h-315l-456 637l-154 -177v-460z" />
    <glyph glyph-name="L" unicode="L" horiz-adv-x="1198" 
d="M1098 226v-226h-920v1443h258v-1217h662z" />
    <glyph glyph-name="M" unicode="M" horiz-adv-x="1846" 
d="M418 0h-240v1443h302l434 -1051h18l434 1051h302v-1443h-240v1015h-14l-399 -959h-184l-399 959h-14v-1015z" />
    <glyph glyph-name="N" unicode="N" horiz-adv-x="1554" 
d="M427 0h-249v1443h224l708 -981h17v981h248v-1443h-223l-708 982h-17v-982z" />
    <glyph glyph-name="O" unicode="O" horiz-adv-x="1599" 
d="M800 1250q-192 0 -306 -143t-113 -385t113 -386q112 -143 306 -143q194 -1 306 143t112 386t-112 385q-114 143 -306 143zM800 1479q314 0 498 -204t184 -553q0 -350 -183 -554t-499 -204t-500 204t-183 554t185 553q184 204 498 204z" />
    <glyph glyph-name="P" unicode="P" horiz-adv-x="1351" 
d="M436 1227v-540h255q139 0 215 70t77 200t-75 200t-216 70h-256zM178 1443h582q216 0 350 -135t135 -351q-1 -216 -139 -350t-357 -134h-313v-473h-258v1443z" />
    <glyph glyph-name="Q" unicode="Q" horiz-adv-x="1599" 
d="M801 193q62 0 122 17l-173 246h248l91 -114q129 120 129 371t-113 394t-305 143t-306 -142t-113 -386q-1 -244 113 -386t307 -143zM801 -36q-317 0 -501 203t-183 553t185 555q184 204 498 204t498 -204t184 -554q0 -201 -62 -357t-176 -247l180 -266h-259l-110 153
q-117 -40 -254 -40z" />
    <glyph glyph-name="R" unicode="R" horiz-adv-x="1391" 
d="M436 541v-541h-258v1443h586q227 1 360 -121t133 -330q0 -144 -72 -254t-200 -157l315 -581h-295l-283 541h-286zM436 1229v-483h298q122 0 190 63t68 177t-70 178t-194 65h-292z" />
    <glyph glyph-name="S" unicode="S" horiz-adv-x="1354" 
d="M686 180q132 0 216 58q82 58 82 144q0 84 -62 133t-202 81l-187 43q-197 43 -291 143t-94 261q0 197 148 317t382 119q234 0 383 -118t158 -304h-247q-13 95 -91 151t-200 56q-121 0 -197 -56t-76 -138t59 -128t193 -76l166 -38q220 -49 318 -146t98 -262
q0 -212 -152 -334t-408 -122t-408 116t-162 312h252q12 -96 101 -154t221 -58z" />
    <glyph glyph-name="T" unicode="T" horiz-adv-x="1332" 
d="M795 0h-258v1220h-444v223h1147v-223h-445v-1220z" />
    <glyph glyph-name="U" unicode="U" horiz-adv-x="1549" 
d="M439 1443v-922q0 -149 89 -237t247 -89q159 1 247 89t88 237v922h258v-946q0 -239 -161 -386t-432 -147t-432 147t-161 386v946h257z" />
    <glyph glyph-name="V" unicode="V" horiz-adv-x="1442" 
d="M872 0h-297l-504 1443h285l363 -1142h17l360 1142h275z" />
    <glyph glyph-name="W" unicode="W" horiz-adv-x="2036" 
d="M1010 1022l-292 -1022h-243l-387 1443h269l247 -1074h15l284 1074h229l288 -1074h14l247 1074h267l-387 -1443h-242l-294 1022h-15z" />
    <glyph glyph-name="X" unicode="X" horiz-adv-x="1456" 
d="M89 0l472 727l-468 716h305l329 -530h17l334 530h290l-484 -722l476 -721h-298l-335 518h-17l-340 -518h-281z" />
    <glyph glyph-name="Y" unicode="Y" horiz-adv-x="1412" 
d="M835 0h-258v564l-506 879h283l344 -617h17l343 617h283l-506 -879v-564z" />
    <glyph glyph-name="Z" unicode="Z" horiz-adv-x="1373" 
d="M138 0v176l759 1027v17h-738v223h1057v-176l-756 -1027v-17h775v-223h-1097z" />
    <glyph glyph-name="bracketleft" unicode="[" horiz-adv-x="815" 
d="M166 1444h530v-191h-290v-1302h303v-191h-543v1684z" />
    <glyph glyph-name="backslash" unicode="\" horiz-adv-x="750" 
d="M476 -302l-427 1745h229l423 -1745h-225z" />
    <glyph glyph-name="bracketright" unicode="]" horiz-adv-x="815" 
d="M648 1444v-1684h-542v191h303v1302h-290v191h529z" />
    <glyph glyph-name="asciicircum" unicode="^" horiz-adv-x="1036" 
d="M509 1218l-196 -443h-222l310 637h234l311 -637h-223l-196 443h-18z" />
    <glyph glyph-name="underscore" unicode="_" horiz-adv-x="934" 
d="M939 -298h-944v191h944v-191z" />
    <glyph glyph-name="grave" unicode="`" horiz-adv-x="1096" 
d="M810 1275h-242l-284 347h277z" />
    <glyph glyph-name="a" unicode="a" horiz-adv-x="1179" 
d="M582 914q-180 0 -215 -114h-234q15 144 141 230t328 86t316 -97t115 -272v-747h-239v150h-17q-45 -80 -131 -124t-193 -44q-160 0 -261 90t-101 238q-1 148 107 232t308 96l282 17v92q0 81 -53 124t-153 43zM540 177q98 1 173 65t75 159v87l-247 -16q-204 -13 -204 -148
q1 -68 53 -108t150 -39z" />
    <glyph glyph-name="b" unicode="b" horiz-adv-x="1306" 
d="M682 901q-128 1 -202 -95t-74 -260t74 -258q74 -95 202 -95q128 1 200 95t72 259t-72 259t-200 95zM760 -18q-115 0 -205 50t-137 141h-17v-173h-239v1517h248v-597h17q43 88 132 140t201 52q208 0 328 -152t121 -412q0 -262 -121 -414t-328 -152z" />
    <glyph glyph-name="c" unicode="c" horiz-adv-x="1182" 
d="M606 908q-114 0 -186 -94t-71 -265q0 -171 72 -267t199 -96q98 0 160 45t81 130h236q-21 -175 -147 -279t-329 -104q-247 0 -385 151t-138 419t138 418t384 150q206 0 332 -106t145 -284h-236q-18 82 -80 132q-61 50 -175 50z" />
    <glyph glyph-name="d" unicode="d" horiz-adv-x="1306" 
d="M625 901q-127 -1 -200 -95t-73 -260t72 -259q72 -94 201 -94q127 1 201 95t74 258t-74 260q-74 95 -201 95zM548 -18q-208 0 -329 152t-121 413t122 413t328 152q112 0 200 -51t132 -141h17v597h248v-1517h-240v173h-17q-46 -91 -136 -141t-204 -50z" />
    <glyph glyph-name="e" unicode="e" horiz-adv-x="1208" 
d="M614 -22q-240 0 -378 150t-138 415t138 419t374 154t368 -146t133 -406v-80h-764v-13q5 -137 79 -217t195 -79q188 0 244 126h235q-34 -151 -164 -237t-322 -86zM612 919q-112 0 -184 -73t-80 -193h515q-4 122 -72 194q-67 72 -179 72z" />
    <glyph glyph-name="f" unicode="f" horiz-adv-x="801" 
d="M232 0v889h-179v198h179v107q0 164 92 239t275 75q57 0 125 -11v-185q-42 8 -108 8t-102 -35q-38 -35 -38 -110v-88h238v-198h-235v-889h-247z" />
    <glyph glyph-name="g" unicode="g" horiz-adv-x="1295" 
d="M637 -416q-225 0 -355 85t-145 227h249q12 -57 76 -90t177 -33q114 0 185 57t71 160v207h-17q-48 -89 -134 -135t-200 -46q-206 0 -327 148t-121 397q0 251 122 401t330 150q112 0 203 -52t136 -141h17v175h239v-1098q0 -190 -141 -301t-365 -111zM899 559q0 157 -74 249
q-75 92 -203 93q-128 0 -200 -92t-71 -250q0 -157 71 -249t200 -92t203 92t74 249z" />
    <glyph glyph-name="h" unicode="h" horiz-adv-x="1274" 
d="M884 647q0 251 -220 251q-120 0 -187 -72t-67 -191v-635h-248v1517h244v-600h18q39 93 125 145t207 52q176 0 276 -107t100 -301v-706h-248v647z" />
    <glyph glyph-name="i" unicode="i" horiz-adv-x="557" 
d="M278 1272q-68 0 -110 38q-43 38 -43 99t43 99q42 38 110 38t110 -38t43 -99q-1 -61 -43 -99t-110 -38zM155 0v1094h247v-1094h-247z" />
    <glyph glyph-name="j" unicode="j" horiz-adv-x="557" 
d="M278 1272q-68 0 -110 38q-43 38 -43 99t43 99q42 38 110 38t110 -38t43 -99q-1 -61 -43 -99t-110 -38zM155 -37v1131h247v-1135q0 -333 -368 -333q-39 0 -60 3v195l32 -1q82 1 116 33t33 107z" />
    <glyph glyph-name="k" unicode="k" horiz-adv-x="1188" 
d="M410 0h-248v1517h248v-869h17l404 446h288l-436 -469l466 -625h-300l-351 469l-88 -88v-381z" />
    <glyph glyph-name="l" unicode="l" horiz-adv-x="571" 
d="M162 0v1517h248v-1517h-248z" />
    <glyph glyph-name="m" unicode="m" horiz-adv-x="1856" 
d="M152 0v1094h239v-177h17q35 95 115 147t190 52t188 -52t113 -147h17q41 91 130 145t202 54q163 0 257 -97t94 -267v-752h-247v689q0 211 -200 211q-96 0 -155 -62t-59 -157v-681h-241v707q0 89 -53 141t-145 52t-153 -67t-61 -168v-665h-248z" />
    <glyph glyph-name="n" unicode="n" horiz-adv-x="1252" 
d="M1110 708v-708h-248v649q0 251 -221 251q-111 0 -176 -71t-65 -192v-637h-248v1094h239v-175h17q84 197 325 197q181 0 279 -106t98 -302z" />
    <glyph glyph-name="o" unicode="o" horiz-adv-x="1248" 
d="M624 -22q-246 0 -386 152t-140 416q0 266 141 418t385 152t386 -152q140 -152 140 -418t-140 -416q-140 -152 -386 -152zM624 186q130 0 200 94t71 266q0 172 -71 267q-70 95 -200 95t-201 -95t-71 -267t71 -266t201 -94z" />
    <glyph glyph-name="p" unicode="p" horiz-adv-x="1296" 
d="M671 193q129 0 201 94t72 260t-72 260t-200 94t-202 -95t-74 -259t74 -259t201 -95zM748 1112q208 0 330 -151t121 -413t-121 -414t-327 -152q-117 0 -205 48t-129 136h-17v-530h-248v1458h239v-181h17q48 93 138 146t202 53z" />
    <glyph glyph-name="q" unicode="q" horiz-adv-x="1296" 
d="M624 193q128 0 202 95q74 94 74 258t-74 260t-202 95q-128 0 -200 -94q-72 -95 -72 -261t72 -260t200 -93zM98 547q0 261 122 413t329 152q111 0 202 -54t136 -145h17v181h241v-1458h-250v530h-17q-99 -184 -320 -184q-220 0 -340 152t-120 413z" />
    <glyph glyph-name="r" unicode="r" horiz-adv-x="851" 
d="M152 0v1094h239v-170h17q24 82 104 135t166 53t122 -11v-230q-38 14 -143 14q-105 1 -181 -69t-76 -184v-632h-248z" />
    <glyph glyph-name="s" unicode="s" horiz-adv-x="1128" 
d="M781 302q0 91 -151 124l-194 45q-158 35 -234 111t-75 212q0 136 122 228q123 94 317 94t310 -82t130 -232h-233q-13 58 -67 92t-140 34t-142 -37t-56 -89t40 -83q40 -30 122 -49l193 -44q158 -36 232 -107t74 -191q0 -158 -130 -254q-129 -96 -335 -96t-328 84t-137 233
h245q37 -129 225 -129q94 0 153 38t59 98z" />
    <glyph glyph-name="t" unicode="t" horiz-adv-x="808" 
d="M231 1362h247v-275h234v-198h-234v-537q0 -80 36 -118t114 -38q34 0 84 5v-194q-62 -12 -130 -12q-188 0 -270 69t-81 228v597h-173v198h173v275z" />
    <glyph glyph-name="u" unicode="u" horiz-adv-x="1256" 
d="M1104 1094v-1094h-239v174h-17q-83 -196 -327 -196q-179 0 -279 106t-100 299v711h248v-649q0 -125 53 -187t169 -62t180 69t64 192v637h248z" />
    <glyph glyph-name="v" unicode="v" horiz-adv-x="1163" 
d="M57 1094h266l253 -846h17l251 846h262l-387 -1094h-273z" />
    <glyph glyph-name="w" unicode="w" horiz-adv-x="1681" 
d="M1617 1094l-296 -1094h-261l-213 788h-17l-212 -788h-258l-296 1094h250l182 -817h17l210 817h237l212 -817h17l181 817h247z" />
    <glyph glyph-name="x" unicode="x" horiz-adv-x="1149" 
d="M578 377h-17l-224 -377h-267l354 543l-357 551h287l218 -376h17l216 376h273l-353 -541l357 -553h-280z" />
    <glyph glyph-name="y" unicode="y" horiz-adv-x="1183" 
d="M272 -397q-77 0 -98 4v203q19 -4 83 -4q136 0 181 141l13 48l-391 1099h272l256 -854h17l255 854h262l-395 -1129q-69 -203 -169 -283t-286 -79z" />
    <glyph glyph-name="z" unicode="z" horiz-adv-x="1140" 
d="M127 0v155l581 722v17h-576v200h872v-169l-560 -708v-17h569v-200h-886z" />
    <glyph glyph-name="braceleft" unicode="{" horiz-adv-x="889" 
d="M538 352v-286q0 -118 49 -165t172 -47h45v-191h-88q-216 -1 -316 89t-99 285v244q1 117 -37 163t-135 45v246q96 0 134 46t38 163v211q0 190 99 277t316 87h88v-191h-45q-125 0 -173 -46t-48 -166v-258q0 -219 -198 -238v-17q198 -18 198 -251z" />
    <glyph glyph-name="bar" unicode="|" horiz-adv-x="722" 
d="M473 -303h-224v1746h224v-1746z" />
    <glyph glyph-name="braceright" unicode="}" horiz-adv-x="889" 
d="M352 352q0 233 197 251v17q-197 19 -197 238v258q0 118 -49 165t-173 47h-45v191h89q218 -1 316 -87t98 -277v-211q0 -117 38 -163t134 -46v-246q-96 1 -134 -45t-38 -163v-244q0 -195 -100 -285t-314 -89h-89v191h45q122 0 172 47t50 165v286z" />
    <glyph glyph-name="asciitilde" unicode="~" horiz-adv-x="1216" 
d="M417 715q-120 0 -127 -178h-203q-1 8 -1 24q-1 174 84 275t232 101q124 -1 244 -119q60 -58 91 -78q32 -20 63 -19q119 0 127 179h203v-24q0 -174 -84 -275t-230 -101q-125 0 -244 118q-59 58 -91 78t-64 19z" />
    <glyph glyph-name="nonbreakingspace" unicode="&#xa0;" horiz-adv-x="546" 
 />
    <glyph glyph-name="exclamdown" unicode="&#xa1;" horiz-adv-x="696" 
d="M182 982q0 72 45 115t121 43t121 -43t45 -115t-45 -116t-121 -44t-121 44t-45 116zM209 -329l23 967h231l23 -967h-277z" />
    <glyph glyph-name="cent" unicode="&#xa2;" horiz-adv-x="1383" 
d="M814 -33h-217v182q-198 35 -318 185t-120 374q0 226 120 374t318 182v183h217v-179q166 -27 278 -129t129 -253h-236q-25 84 -97 132t-188 49q-116 0 -202 -97t-87 -262q1 -166 87 -264t206 -98t190 46t91 129h236q-17 -153 -127 -253t-280 -123v-178z" />
    <glyph glyph-name="sterling" unicode="&#xa3;" horiz-adv-x="1383" 
d="M1237 220v-220h-1101v208q133 23 218 116t86 217q0 47 -15 99h-287v188h228q-60 148 -60 250q0 189 144 295t399 106q185 0 319 -37v-212q-138 37 -286 37q-148 1 -232 -59t-85 -158q0 -98 49 -222h437v-188h-379q13 -49 13 -95q3 -93 -44 -177t-131 -131v-17h727z" />
    <glyph glyph-name="currency" unicode="&#xa4;" horiz-adv-x="1383" 
d="M1121 651q0 -120 -61 -222l155 -156l-145 -148l-156 156q-100 -63 -222 -63t-223 64l-156 -157l-144 148l156 156q-61 102 -61 222t61 222l-156 156l144 148l156 -156q102 63 223 63t222 -63l156 156l145 -148l-155 -156q61 -102 61 -222zM447 651q1 -100 73 -172
t172 -72t174 72q72 72 72 172t-72 172t-174 72q-100 0 -172 -72t-73 -172z" />
    <glyph glyph-name="yen" unicode="&#xa5;" horiz-adv-x="1383" 
d="M1094 229h-274v-229h-257v229h-273v157h273v145h-273v157h205l-438 755h283l343 -617h18l343 617h282l-438 -755h206v-157h-274v-145h274v-157z" />
    <glyph glyph-name="brokenbar" unicode="&#xa6;" horiz-adv-x="722" 
d="M473 -303h-224v670h224v-670zM473 774h-224v669h224v-669z" />
    <glyph glyph-name="section" unicode="&#xa7;" horiz-adv-x="1032" 
d="M88 1092q0 148 117 238t301 90t298 -86t127 -229h-222q-9 58 -63 93t-138 35t-136 -38q-52 -39 -52 -93t38 -86t127 -58l159 -52q160 -50 234 -120t74 -170t-66 -178t-174 -102v-18q120 -38 177 -102t57 -161q0 -147 -119 -239t-305 -92t-304 90t-127 232h225
q8 -60 66 -98t142 -37q85 1 139 39t54 92q1 54 -39 87q-40 32 -128 57l-163 52q-161 50 -234 120t-73 171t58 171t161 101v17q-211 92 -211 274zM727 556q0 114 -152 154l-100 31q-71 -6 -120 -52t-49 -102q0 -113 153 -153l99 -30q72 5 120 50q48 44 49 102z" />
    <glyph glyph-name="dieresis" unicode="&#xa8;" horiz-adv-x="1145" 
d="M795 1265q-61 1 -102 41t-41 100t41 100t102 41q61 -1 102 -41t41 -100t-41 -100t-102 -41zM350 1265q-61 1 -102 41t-41 100t41 100t102 41q61 -1 102 -41t41 -100t-41 -100t-102 -41z" />
    <glyph glyph-name="copyright" unicode="&#xa9;" horiz-adv-x="1742" 
d="M875 899q-83 0 -139 -68q-56 -67 -56 -187t56 -189t140 -69q166 0 196 132h170q-16 -130 -112 -206t-258 -75q-164 0 -268 110q-104 111 -104 297t104 295t266 109q161 0 258 -78t114 -208h-170q-14 63 -64 100t-133 37zM850 9q154 -1 270 49q118 50 202 134t134 202
t50 272t-84 298q-84 146 -229 230q-146 84 -300 83q-153 1 -271 -49t-202 -134t-134 -202t-50 -271t84 -299t230 -230t300 -83zM871 -148q-163 0 -309 62t-252 167t-168 252t-61 310q1 217 105 399t286 286t399 105q165 1 311 -61t251 -167t167 -251t61 -311
q-1 -219 -105 -401t-286 -286t-399 -104z" />
    <glyph glyph-name="ordfeminine" unicode="&#xaa;" horiz-adv-x="999" 
d="M391 503q-136 -1 -218 77t-82 205t91 199t264 82l221 13v77q1 59 -43 92t-115 33q-145 0 -164 -92h-220q10 127 114 201q103 74 277 74t276 -84t101 -230v-626h-220v115h-17q-35 -64 -105 -100t-160 -36zM478 678q78 0 134 50t57 127v80l-189 -14q-161 -11 -161 -121
q0 -56 41 -89q40 -33 118 -33z" />
    <glyph glyph-name="guillemotleft" unicode="&#xab;" horiz-adv-x="1426" 
d="M413 572v-12l348 -411h-249l-347 412v8l350 413h246zM913 572v-12l348 -411h-250l-347 412v8l350 413h247z" />
    <glyph glyph-name="logicalnot" unicode="&#xac;" horiz-adv-x="1383" 
d="M1197 692v-608h-217v390h-793v218h1010z" />
    <glyph glyph-name="registered" unicode="&#xae;" horiz-adv-x="1260" 
d="M539 1126v-129h108q83 1 83 65t-80 64h-111zM855 1069q0 -119 -108 -148l131 -188h-138l-118 171h-83v-171h-115v491h253q78 0 128 -44t50 -111zM630 566q169 0 287 118t118 286q1 169 -117 286t-288 117t-287 -117q-118 -117 -118 -286q0 -168 118 -286t287 -118z
M630 442q-144 0 -266 70t-191 192q-70 122 -70 248q-1 126 41 224t112 168t168 112t206 41q108 1 206 -41t168 -112t112 -168t41 -224q0 -126 -70 -248q-69 -122 -191 -192t-266 -70z" />
    <glyph glyph-name="macron" unicode="&#xaf;" horiz-adv-x="1048" 
d="M880 1305h-712v164h712v-164z" />
    <glyph glyph-name="degree" unicode="&#xb0;" horiz-adv-x="915" 
d="M458 927q84 0 136 54q52 55 52 135t-52 134t-136 53q-84 1 -136 -53t-52 -134t52 -135q52 -54 136 -54zM458 768q-148 0 -248 100t-100 247t100 247t248 100t248 -100t99 -247q1 -147 -99 -247t-248 -100z" />
    <glyph glyph-name="plusminus" unicode="&#xb1;" horiz-adv-x="1383" 
d="M798 654v-255h-213v255h-396v192h396v255h213v-255h397v-192h-397zM1193 86h-1004v197h1004v-197z" />
    <glyph glyph-name="two.sups" unicode="&#xb2;" horiz-adv-x="881" 
d="M85 1533q0 139 97 223q96 84 252 84t250 -76t93 -198q0 -82 -50 -158t-176 -180l-140 -129v-18h380v-184h-691v160l286 265q100 90 134 135t34 92t-36 79t-93 32t-93 -35t-36 -92v-4h-211v4z" />
    <glyph glyph-name="three.sups" unicode="&#xb3;" horiz-adv-x="915" 
d="M338 1286v157h112q58 -1 94 29t36 80t-36 78q-36 29 -96 29q-60 1 -98 -31t-41 -86h-210q2 136 98 216q95 80 251 80t252 -70t95 -181q1 -79 -47 -135t-126 -71v-17q96 -8 152 -66t56 -149q0 -122 -105 -200t-270 -78q-165 1 -265 83t-103 219h213q4 -53 45 -85t107 -32
t107 32t41 84t-39 84q-39 30 -109 30h-114z" />
    <glyph glyph-name="acute" unicode="&#xb4;" horiz-adv-x="1096" 
d="M269 1275l249 347h277l-284 -347h-242z" />
    <glyph glyph-name="mugreek" unicode="&#xb5;" horiz-adv-x="1326" 
d="M1104 316q0 -125 76 -125q34 0 69 7v-193q-49 -15 -138 -15t-147 41t-83 152h-17q-60 -205 -259 -205q-137 0 -188 96h-17v-438h-248v1458h248v-648q0 -250 216 -250q108 0 174 70t66 190v638h248v-778z" />
    <glyph glyph-name="mugreek" unicode="&#x3bc;" horiz-adv-x="1326" 
d="M1104 316q0 -125 76 -125q34 0 69 7v-193q-49 -15 -138 -15t-147 41t-83 152h-17q-60 -205 -259 -205q-137 0 -188 96h-17v-438h-248v1458h248v-648q0 -250 216 -250q108 0 174 70t66 190v638h248v-778z" />
    <glyph glyph-name="paragraph" unicode="&#xb6;" horiz-adv-x="1486" 
d="M1079 -245v1688h243v-1688h-243zM918 -245h-244v736h-20q-216 0 -360 135t-145 340q0 205 143 341t363 136h263v-1688z" />
    <glyph glyph-name="periodcentered" unicode="&#xb7;" horiz-adv-x="689" 
d="M345 570q-76 0 -122 46t-46 120t46 119q46 46 122 46q75 0 121 -46q46 -45 46 -119t-46 -120t-121 -46z" />
    <glyph glyph-name="cedilla" unicode="&#xb8;" horiz-adv-x="1096" 
d="M567 -123q203 -9 203 -179q0 -86 -68 -138q-68 -54 -174 -54t-163 18v124q44 -14 118 -14q114 0 114 64q0 32 -32 46t-105 14h-59v104l58 142h159z" />
    <glyph glyph-name="one.sups" unicode="&#xb9;" horiz-adv-x="726" 
d="M548 897h-227v702h-17q-10 -5 -113 -75t-105 -72v205q72 53 233 159h229v-919z" />
    <glyph glyph-name="ordmasculine" unicode="&#xba;" horiz-adv-x="1077" 
d="M538 503q-210 -1 -328 127t-118 352t120 352t326 128q208 0 327 -128t119 -352t-118 -352t-328 -127zM538 692q100 0 155 76t55 215t-55 215t-155 77q-100 0 -155 -77q-55 -78 -55 -216t55 -214t155 -76z" />
    <glyph glyph-name="guillemotright" unicode="&#xbb;" horiz-adv-x="1426" 
d="M1013 572l-348 410h247l349 -413v-8l-347 -412h-249l348 411v12zM514 572l-349 410h247l350 -413v-8l-347 -412h-250l349 411v12z" />
    <glyph glyph-name="onequarter" unicode="&#xbc;" horiz-adv-x="2133" 
d="M546 0l372 752l304 691h235l-369 -734l-308 -709h-234zM548 524h-227v702h-17q-10 -5 -113 -75t-105 -72v205q72 53 233 159h229v-919zM1451 321h272v424h-11q-194 -295 -261 -419v-5zM1935 919v-592h114v-174h-120v-153h-207v147h-471v187q84 166 366 585h318z" />
    <glyph glyph-name="onehalf" unicode="&#xbd;" horiz-adv-x="2136" 
d="M546 0l372 752l304 691h235l-369 -734l-308 -709h-234zM548 524h-227v702h-17q-10 -5 -113 -75t-105 -72v205q72 53 233 159h229v-919zM1340 636q0 138 97 222t253 85t248 -75q94 -76 94 -199q0 -81 -50 -157t-176 -181l-140 -129v-18h380v-184h-691v160l286 265
q101 90 135 135t33 92q0 47 -36 79t-93 32t-93 -35t-36 -92v-4h-211v4z" />
    <glyph glyph-name="threequarters" unicode="&#xbe;" horiz-adv-x="2304" 
d="M717 0l372 752l304 691h235l-369 -734l-308 -709h-234zM1622 321h272v424h-11q-194 -295 -261 -419v-5zM2106 919v-592h114v-174h-120v-153h-207v147h-471v187q84 166 366 585h318zM338 913v157h112q58 0 94 30t36 78q0 50 -36 79t-96 29t-98 -32t-41 -85h-210
q2 135 98 215q95 80 251 81q156 0 252 -70t95 -181q1 -80 -47 -136t-126 -70v-17q96 -9 152 -67t56 -148q0 -122 -105 -200t-270 -78t-265 82t-103 220h213q4 -53 45 -85t107 -32t107 32q41 33 41 85t-39 82t-109 31h-114z" />
    <glyph glyph-name="questiondown" unicode="&#xbf;" horiz-adv-x="1108" 
d="M590 821q-76 -1 -121 43t-45 116t45 116t121 44t121 -44t45 -116t-45 -116t-121 -43zM568 -342q-210 0 -336 106t-127 275q0 212 212 339q99 58 133 106t34 122v57h232l1 -68q7 -111 -37 -185t-144 -134t-135 -108q-36 -48 -36 -124t58 -126t153 -50t154 54t65 146h235
q-5 -184 -128 -297q-124 -113 -334 -113z" />
    <glyph glyph-name="Agrave" unicode="&#xc0;" horiz-adv-x="1456" 
d="M571 1895l288 -310h-250l-321 310h283zM714 1168l-198 -595h411l-196 595h-17zM1109 0l-122 369h-531l-124 -369h-261l512 1443h290l513 -1443h-277z" />
    <glyph glyph-name="Aacute" unicode="&#xc1;" horiz-adv-x="1456" 
d="M600 1585l288 310h283l-321 -310h-250zM714 1168l-198 -595h411l-196 595h-17zM1109 0l-122 369h-531l-124 -369h-261l512 1443h290l513 -1443h-277z" />
    <glyph glyph-name="Acircumflex" unicode="&#xc2;" horiz-adv-x="1456" 
d="M844 1906l290 -321h-242l-155 183h-18l-155 -183h-242l290 321h232zM714 1168l-198 -595h411l-196 595h-17zM1109 0l-122 369h-531l-124 -369h-261l512 1443h290l513 -1443h-277z" />
    <glyph glyph-name="Atilde" unicode="&#xc3;" horiz-adv-x="1456" 
d="M589 1725q-85 0 -90 -136h-166q-1 141 65 220t164 79t164 -52q26 -22 64 -60t77 -37q83 0 90 134h166q1 -137 -65 -217t-162 -80t-158 52q-26 22 -49 44q-55 53 -100 53zM714 1168l-198 -595h411l-196 595h-17zM1109 0l-122 369h-531l-124 -369h-261l512 1443h290
l513 -1443h-277z" />
    <glyph glyph-name="Adieresis" unicode="&#xc4;" horiz-adv-x="1456" 
d="M950 1577q-61 1 -102 41t-41 100t41 100t102 41q61 -1 102 -41t41 -100t-41 -100t-102 -41zM505 1577q-61 1 -102 41t-41 100t41 100t102 41q61 -1 102 -41t41 -100t-41 -100t-102 -41zM714 1168l-198 -595h411l-196 595h-17zM1109 0l-122 369h-531l-124 -369h-261
l512 1443h290l513 -1443h-277z" />
    <glyph glyph-name="Aring" unicode="&#xc5;" horiz-adv-x="1456" 
d="M728 1649q43 -1 71 27t28 70t-28 70t-71 28t-71 -28t-28 -70t28 -70t71 -27zM728 1548q-86 0 -144 57t-59 141q1 84 59 142q58 57 144 57t144 -57q58 -58 59 -142q-1 -84 -59 -141t-144 -57zM714 1168l-198 -595h411l-196 595h-17zM1109 0l-122 369h-531l-124 -369h-261
l512 1443h290l513 -1443h-277z" />
    <glyph glyph-name="AE" unicode="&#xc6;" horiz-adv-x="2025" 
d="M989 0v398h-488l-174 -398h-256l615 1443h1197v-223h-653v-389h616v-211h-616v-397h653v-223h-894zM989 1235h-136l-272 -632h408v632z" />
    <glyph glyph-name="Ccedilla" unicode="&#xc7;" horiz-adv-x="1499" 
d="M1026 -302q0 -86 -68 -138q-68 -54 -174 -54t-163 18v124q44 -14 118 -14q114 0 114 64q0 32 -32 46t-105 14h-59v104l43 106q-272 26 -428 226t-155 540q-1 339 177 542t485 203q246 -1 417 -145t194 -370h-254q-27 130 -124 208t-233 77q-184 1 -291 -141t-107 -386
t107 -386t292 -142q137 0 234 72t123 192h254q-23 -204 -167 -336t-364 -154l-37 -91q203 -9 203 -179z" />
    <glyph glyph-name="Egrave" unicode="&#xc8;" horiz-adv-x="1254" 
d="M1112 223v-223h-934v1443h934v-223h-676v-383h639v-210h-639v-404h676zM488 1895l288 -310h-250l-321 310h283z" />
    <glyph glyph-name="Eacute" unicode="&#xc9;" horiz-adv-x="1254" 
d="M1112 223v-223h-934v1443h934v-223h-676v-383h639v-210h-639v-404h676zM517 1585l288 310h283l-321 -310h-250z" />
    <glyph glyph-name="Ecircumflex" unicode="&#xca;" horiz-adv-x="1254" 
d="M1112 223v-223h-934v1443h934v-223h-676v-383h639v-210h-639v-404h676zM761 1906l290 -321h-242l-155 183h-18l-155 -183h-242l290 321h232z" />
    <glyph glyph-name="Edieresis" unicode="&#xcb;" horiz-adv-x="1254" 
d="M1112 223v-223h-934v1443h934v-223h-676v-383h639v-210h-639v-404h676zM867 1577q-61 1 -102 41t-41 100t41 100t102 41q61 -1 102 -41t41 -100t-41 -100t-102 -41zM422 1577q-61 1 -102 41t-41 100t41 100t102 41q61 -1 102 -41t41 -100t-41 -100t-102 -41z" />
    <glyph glyph-name="Igrave" unicode="&#xcc;" horiz-adv-x="614" 
d="M150 1895l288 -310h-250l-321 310h283zM436 0h-258v1443h258v-1443z" />
    <glyph glyph-name="Iacute" unicode="&#xcd;" horiz-adv-x="614" 
d="M179 1585l288 310h283l-321 -310h-250zM436 0h-258v1443h258v-1443z" />
    <glyph glyph-name="Icircumflex" unicode="&#xce;" horiz-adv-x="614" 
d="M423 1906l290 -321h-242l-155 183h-18l-155 -183h-242l290 321h232zM436 0h-258v1443h258v-1443z" />
    <glyph glyph-name="Idieresis" unicode="&#xcf;" horiz-adv-x="614" 
d="M529 1577q-61 1 -102 41t-41 100t41 100t102 41q61 -1 102 -41t41 -100t-41 -100t-102 -41zM84 1577q-61 1 -102 41t-41 100t41 100t102 41q61 -1 102 -41t41 -100t-41 -100t-102 -41zM436 0h-258v1443h258v-1443z" />
    <glyph glyph-name="Eth" unicode="&#xd0;" horiz-adv-x="1514" 
d="M178 1443h541q323 1 501 -187t178 -532t-178 -534t-501 -190h-541v634h-137v204h137v605zM436 223h249q216 0 333 130q117 131 117 369q-1 238 -119 368t-331 130h-249v-382h235v-204h-235v-411z" />
    <glyph glyph-name="Ntilde" unicode="&#xd1;" horiz-adv-x="1554" 
d="M427 0h-249v1443h224l708 -981h17v981h248v-1443h-223l-708 982h-17v-982zM635 1725q-85 0 -90 -136h-166q-1 141 65 220t164 79t164 -52q26 -22 64 -60q38 -37 77 -37q83 0 90 134h166q1 -137 -65 -217t-162 -80t-158 52q-26 22 -49 44q-55 53 -100 53z" />
    <glyph glyph-name="Ograve" unicode="&#xd2;" horiz-adv-x="1599" 
d="M800 1250q-192 0 -306 -143t-113 -385t113 -386q112 -143 306 -143q194 -1 306 143t112 386t-112 385q-114 143 -306 143zM800 1479q314 0 498 -204t184 -553q0 -350 -183 -554t-499 -204t-500 204t-183 554t185 553q184 204 498 204zM644 1895l288 -310h-250l-321 310
h283z" />
    <glyph glyph-name="Oacute" unicode="&#xd3;" horiz-adv-x="1599" 
d="M800 1250q-192 0 -306 -143t-113 -385t113 -386q112 -143 306 -143q194 -1 306 143t112 386t-112 385q-114 143 -306 143zM800 1479q314 0 498 -204t184 -553q0 -350 -183 -554t-499 -204t-500 204t-183 554t185 553q184 204 498 204zM673 1585l288 310h283l-321 -310
h-250z" />
    <glyph glyph-name="Ocircumflex" unicode="&#xd4;" horiz-adv-x="1599" 
d="M800 1250q-192 0 -306 -143t-113 -385t113 -386q112 -143 306 -143q194 -1 306 143t112 386t-112 385q-114 143 -306 143zM800 1479q314 0 498 -204t184 -553q0 -350 -183 -554t-499 -204t-500 204t-183 554t185 553q184 204 498 204zM917 1906l290 -321h-242l-155 183
h-18l-155 -183h-242l290 321h232z" />
    <glyph glyph-name="Otilde" unicode="&#xd5;" horiz-adv-x="1599" 
d="M406 1589q0 141 66 220t163 79t163 -52q26 -22 65 -60q38 -38 77 -37q83 0 90 134h166q0 -137 -66 -217t-161 -80q-97 0 -159 52q-26 22 -48 44q-55 53 -100 53q-85 0 -90 -136h-166zM800 1250q-192 0 -306 -143t-113 -385t113 -386q112 -143 306 -143q194 -1 306 143
t112 386t-112 385q-114 143 -306 143zM800 1479q314 0 498 -204t184 -553q0 -350 -183 -554t-499 -204t-500 204t-183 554t185 553q184 204 498 204z" />
    <glyph glyph-name="Odieresis" unicode="&#xd6;" horiz-adv-x="1599" 
d="M800 1250q-192 0 -306 -143t-113 -385t113 -386q112 -143 306 -143q194 -1 306 143t112 386t-112 385q-114 143 -306 143zM800 1479q314 0 498 -204t184 -553q0 -350 -183 -554t-499 -204t-500 204t-183 554t185 553q184 204 498 204zM1023 1577q-61 1 -102 41t-41 100
t41 100t102 41q61 -1 102 -41t41 -100t-41 -100t-102 -41zM578 1577q-61 1 -102 41t-41 100t41 100t102 41q61 -1 102 -41t41 -100t-41 -100t-102 -41z" />
    <glyph glyph-name="multiply" unicode="&#xd7;" horiz-adv-x="1383" 
d="M692 428l-306 -304l-149 153l305 306l-305 305l149 154l306 -305l305 305l150 -154l-305 -305l305 -306l-150 -153z" />
    <glyph glyph-name="Oslash" unicode="&#xd8;" horiz-adv-x="1577" 
d="M1482 737q0 -365 -183 -569t-498 -204q-231 0 -394 111l-95 -136l-101 70l102 145q-196 205 -196 561q1 356 185 560t499 204q216 0 372 -98l84 119l104 -62l-92 -132q213 -205 213 -569zM801 1250q-193 0 -307 -143t-113 -369q0 -226 86 -364l565 805q-99 71 -231 71z
M801 193q193 -1 305 143t112 378t-100 377l-568 -812q101 -86 251 -86z" />
    <glyph glyph-name="Ugrave" unicode="&#xd9;" horiz-adv-x="1550" 
d="M439 1443v-922q0 -149 89 -237t247 -89q159 1 247 89t88 237v922h258v-946q0 -239 -161 -386t-432 -147t-432 147t-161 386v946h257zM618 1895l288 -310h-250l-321 310h283z" />
    <glyph glyph-name="Uacute" unicode="&#xda;" horiz-adv-x="1550" 
d="M439 1443v-922q0 -149 89 -237t247 -89q159 1 247 89t88 237v922h258v-946q0 -239 -161 -386t-432 -147t-432 147t-161 386v946h257zM647 1585l288 310h283l-321 -310h-250z" />
    <glyph glyph-name="Ucircumflex" unicode="&#xdb;" horiz-adv-x="1550" 
d="M439 1443v-922q0 -149 89 -237t247 -89q159 1 247 89t88 237v922h258v-946q0 -239 -161 -386t-432 -147t-432 147t-161 386v946h257zM891 1906l290 -321h-242l-155 183h-18l-155 -183h-242l290 321h232z" />
    <glyph glyph-name="Udieresis" unicode="&#xdc;" horiz-adv-x="1550" 
d="M439 1443v-922q0 -149 89 -237t247 -89q159 1 247 89t88 237v922h258v-946q0 -239 -161 -386t-432 -147t-432 147t-161 386v946h257zM997 1577q-61 1 -102 41t-41 100t41 100t102 41q61 -1 102 -41t41 -100t-41 -100t-102 -41zM552 1577q-61 1 -102 41t-41 100t41 100
t102 41q61 -1 102 -41t41 -100t-41 -100t-102 -41z" />
    <glyph glyph-name="Yacute" unicode="&#xdd;" horiz-adv-x="1412" 
d="M578 1585l288 310h283l-321 -310h-250zM835 0h-258v564l-506 879h283l344 -617h17l343 617h283l-506 -879v-564z" />
    <glyph glyph-name="Thorn" unicode="&#xde;" horiz-adv-x="1342" 
d="M436 983v-460h260q123 0 194 59q71 60 71 172t-71 170t-193 59h-261zM178 1443h259v-244h331q127 0 230 -52q102 -53 164 -155t62 -238t-63 -238t-168 -154t-235 -53h-322v-309h-258v1443z" />
    <glyph glyph-name="germandbls" unicode="&#xdf;" horiz-adv-x="1355" 
d="M451 0h-247v1087q0 185 128 293t338 107q210 0 340 -105t129 -272q0 -120 -62 -209t-160 -117v-19q153 -11 245 -107t91 -268q1 -172 -129 -288t-345 -117q-99 0 -167 15v209q56 -16 129 -16q125 1 193 61t68 162t-78 162t-220 60h-68v218h50q98 0 155 57t57 153t-60 154
q-60 56 -164 56t-164 -61t-59 -174v-1041z" />
    <glyph glyph-name="agrave" unicode="&#xe0;" horiz-adv-x="1179" 
d="M740 1275h-242l-284 347h277zM582 914q-180 0 -215 -114h-234q15 144 141 230t328 86t316 -97t115 -272v-747h-239v150h-17q-45 -80 -131 -124t-193 -44q-160 0 -261 90t-101 238q-1 148 107 232t308 96l282 17v92q0 81 -53 124t-153 43zM540 177q98 1 173 65t75 159v87
l-247 -16q-204 -13 -204 -148q1 -68 53 -108t150 -39z" />
    <glyph glyph-name="aacute" unicode="&#xe1;" horiz-adv-x="1179" 
d="M454 1275l249 347h277l-284 -347h-242zM582 914q-180 0 -215 -114h-234q15 144 141 230t328 86t316 -97t115 -272v-747h-239v150h-17q-45 -80 -131 -124t-193 -44q-160 0 -261 90t-101 238q-1 148 107 232t308 96l282 17v92q0 81 -53 124t-153 43zM540 177q98 1 173 65
t75 159v87l-247 -16q-204 -13 -204 -148q1 -68 53 -108t150 -39z" />
    <glyph glyph-name="acircumflex" unicode="&#xe2;" horiz-adv-x="1179" 
d="M723 1591l277 -348h-239l-159 215h-17l-159 -215h-239l277 348h259zM582 914q-180 0 -215 -114h-234q15 144 141 230t328 86t316 -97t115 -272v-747h-239v150h-17q-45 -80 -131 -124t-193 -44q-160 0 -261 90t-101 238q-1 148 107 232t308 96l282 17v92q0 81 -53 124
t-153 43zM540 177q98 1 173 65t75 159v87l-247 -16q-204 -13 -204 -148q1 -68 53 -108t150 -39z" />
    <glyph glyph-name="atilde" unicode="&#xe3;" horiz-adv-x="1179" 
d="M200 1246q0 142 68 226t183 84q82 0 143 -52q26 -22 63 -59t74 -37q91 0 92 145h170q1 -141 -67 -225t-183 -84q-51 0 -97 24t-72 50q-70 74 -111 75q-91 0 -92 -147h-171zM582 914q-180 0 -215 -114h-234q15 144 141 230t328 86t316 -97t115 -272v-747h-239v150h-17
q-45 -80 -131 -124t-193 -44q-160 0 -261 90t-101 238q-1 148 107 232t308 96l282 17v92q0 81 -53 124t-153 43zM540 177q98 1 173 65t75 159v87l-247 -16q-204 -13 -204 -148q1 -68 53 -108t150 -39z" />
    <glyph glyph-name="adieresis" unicode="&#xe4;" horiz-adv-x="1179" 
d="M816 1242q-61 0 -102 40t-41 101t41 101t102 40t102 -40t41 -101t-41 -101t-102 -40zM371 1242q-61 0 -102 40t-41 101t41 101t102 40t102 -40t41 -101t-41 -101t-102 -40zM582 914q-180 0 -215 -114h-234q15 144 141 230t328 86t316 -97t115 -272v-747h-239v150h-17
q-45 -80 -131 -124t-193 -44q-160 0 -261 90t-101 238q-1 148 107 232t308 96l282 17v92q0 81 -53 124t-153 43zM540 177q98 1 173 65t75 159v87l-247 -16q-204 -13 -204 -148q1 -68 53 -108t150 -39z" />
    <glyph glyph-name="aring" unicode="&#xe5;" horiz-adv-x="1179" 
d="M594 1368q48 0 80 32t31 78q1 48 -31 80t-80 31q-48 1 -80 -31t-32 -80t32 -78q32 -32 80 -32zM594 1243q-102 -1 -172 67t-69 169q-1 101 69 168t172 67t171 -67t69 -168t-69 -169t-171 -67zM582 914q-180 0 -215 -114h-234q15 144 141 230t328 86t316 -97t115 -272
v-747h-239v150h-17q-45 -80 -131 -124t-193 -44q-160 0 -261 90t-101 238q-1 148 107 232t308 96l282 17v92q0 81 -53 124t-153 43zM540 177q98 1 173 65t75 159v87l-247 -16q-204 -13 -204 -148q1 -68 53 -108t150 -39z" />
    <glyph glyph-name="ae" unicode="&#xe6;" horiz-adv-x="1878" 
d="M544 175q100 1 172 67t72 160v86l-247 -16q-204 -13 -204 -150q-1 -68 53 -108t154 -39zM1283 919q-109 0 -179 -71t-78 -190h507q-5 116 -73 188t-177 73zM898 188q-126 -210 -428 -210q-158 0 -269 92q-110 92 -110 240q-1 148 107 232t308 96l282 17v82q0 87 -54 132
t-152 45q-180 0 -215 -114h-234q15 140 137 228t304 88q251 0 354 -168h17q54 76 149 122t207 46q223 0 351 -146t128 -396v-84h-754v-23q4 -131 80 -211t198 -80q170 0 231 125h234q-35 -151 -159 -237t-305 -86q-129 0 -235 58t-155 152h-17z" />
    <glyph glyph-name="ccedilla" unicode="&#xe7;" horiz-adv-x="1182" 
d="M665 -123q203 -9 203 -179q0 -86 -68 -138q-68 -54 -174 -54t-163 18v124q44 -14 118 -14q114 0 114 64q0 32 -32 46t-105 14h-59v104l49 120q-214 22 -332 170t-118 407q0 257 138 407t384 150q206 0 332 -106t145 -284h-236q-18 82 -80 132q-61 50 -175 50t-186 -94
t-71 -265q0 -171 72 -267t199 -96q98 0 160 45t81 130h236q-18 -155 -120 -256t-269 -122z" />
    <glyph glyph-name="egrave" unicode="&#xe8;" horiz-adv-x="1208" 
d="M614 -22q-240 0 -378 150t-138 415t138 419t374 154t368 -146t133 -406v-80h-764v-13q5 -137 79 -217t195 -79q188 0 244 126h235q-34 -151 -164 -237t-322 -86zM612 919q-112 0 -184 -73t-80 -193h515q-4 122 -72 194q-67 72 -179 72zM758 1275h-242l-284 347h277z" />
    <glyph glyph-name="eacute" unicode="&#xe9;" horiz-adv-x="1208" 
d="M614 -22q-240 0 -378 150t-138 415t138 419t374 154t368 -146t133 -406v-80h-764v-13q5 -137 79 -217t195 -79q188 0 244 126h235q-34 -151 -164 -237t-322 -86zM612 919q-112 0 -184 -73t-80 -193h515q-4 122 -72 194q-67 72 -179 72zM472 1275l249 347h277l-284 -347
h-242z" />
    <glyph glyph-name="ecircumflex" unicode="&#xea;" horiz-adv-x="1208" 
d="M614 -22q-240 0 -378 150t-138 415t138 419t374 154t368 -146t133 -406v-80h-764v-13q5 -137 79 -217t195 -79q188 0 244 126h235q-34 -151 -164 -237t-322 -86zM612 919q-112 0 -184 -73t-80 -193h515q-4 122 -72 194q-67 72 -179 72zM741 1591l277 -348h-239l-159 215
h-17l-159 -215h-239l277 348h259z" />
    <glyph glyph-name="edieresis" unicode="&#xeb;" horiz-adv-x="1208" 
d="M834 1242q-61 0 -102 40t-41 101t41 101t102 40t102 -40t41 -101t-41 -101t-102 -40zM389 1242q-61 0 -102 40t-41 101t41 101t102 40t102 -40t41 -101t-41 -101t-102 -40zM614 -22q-240 0 -378 150t-138 415t138 419t374 154t368 -146t133 -406v-80h-764v-13
q5 -137 79 -217t195 -79q188 0 244 126h235q-34 -151 -164 -237t-322 -86zM612 919q-112 0 -184 -73t-80 -193h515q-4 122 -72 194q-67 72 -179 72z" />
    <glyph glyph-name="igrave" unicode="&#xec;" horiz-adv-x="557" 
d="M155 0v1094h247v-1094h-247zM424 1275h-242l-284 347h277z" />
    <glyph glyph-name="iacute" unicode="&#xed;" horiz-adv-x="557" 
d="M155 0v1094h247v-1094h-247zM138 1275l249 347h277l-284 -347h-242z" />
    <glyph glyph-name="icircumflex" unicode="&#xee;" horiz-adv-x="557" 
d="M155 0v1094h247v-1094h-247zM407 1591l277 -348h-239l-159 215h-17l-159 -215h-239l277 348h259z" />
    <glyph glyph-name="idieresis" unicode="&#xef;" horiz-adv-x="557" 
d="M500 1242q-61 0 -102 40t-41 101t41 101t102 40t102 -40t41 -101t-41 -101t-102 -40zM55 1242q-61 0 -102 40t-41 101t41 101t102 40t102 -40t41 -101t-41 -101t-102 -40zM155 0v1094h247v-1094h-247z" />
    <glyph glyph-name="eth" unicode="&#xf0;" horiz-adv-x="1244" 
d="M629 864q-125 0 -199 -91t-74 -245t74 -244t199 -91q126 1 200 91t74 244q-1 154 -75 244q-74 92 -199 92zM1146 592q0 -278 -142 -444t-380 -166q-239 0 -381 148t-142 392q1 242 127 388t329 145q94 1 176 -39t120 -103h16q-42 155 -175 307l-282 -93l-48 131l229 76
q-68 67 -227 186h306q68 -53 128 -115l260 86l49 -132l-206 -68q243 -303 243 -699z" />
    <glyph glyph-name="ntilde" unicode="&#xf1;" horiz-adv-x="1252" 
d="M1110 708v-708h-248v649q0 251 -221 251q-111 0 -176 -71t-65 -192v-637h-248v1094h239v-175h17q84 197 325 197q181 0 279 -106t98 -302zM505 1393q-91 0 -92 -147h-171q0 142 68 226t183 84q82 0 143 -52q26 -22 63 -59t74 -37q91 0 92 145h170q1 -141 -67 -225
t-183 -84q-51 0 -97 24t-72 50q-70 74 -111 75z" />
    <glyph glyph-name="ograve" unicode="&#xf2;" horiz-adv-x="1248" 
d="M624 -22q-246 0 -386 152t-140 416q0 266 141 418t385 152t386 -152q140 -152 140 -418t-140 -416q-140 -152 -386 -152zM624 186q130 0 200 94t71 266q0 172 -71 267q-70 95 -200 95t-201 -95t-71 -267t71 -266t201 -94zM770 1275h-242l-284 347h277z" />
    <glyph glyph-name="oacute" unicode="&#xf3;" horiz-adv-x="1248" 
d="M624 -22q-246 0 -386 152t-140 416q0 266 141 418t385 152t386 -152q140 -152 140 -418t-140 -416q-140 -152 -386 -152zM624 186q130 0 200 94t71 266q0 172 -71 267q-70 95 -200 95t-201 -95t-71 -267t71 -266t201 -94zM484 1275l249 347h277l-284 -347h-242z" />
    <glyph glyph-name="ocircumflex" unicode="&#xf4;" horiz-adv-x="1248" 
d="M624 -22q-246 0 -386 152t-140 416q0 266 141 418t385 152t386 -152q140 -152 140 -418t-140 -416q-140 -152 -386 -152zM624 186q130 0 200 94t71 266q0 172 -71 267q-70 95 -200 95t-201 -95t-71 -267t71 -266t201 -94zM753 1591l277 -348h-239l-159 215h-17l-159 -215
h-239l277 348h259z" />
    <glyph glyph-name="otilde" unicode="&#xf5;" horiz-adv-x="1248" 
d="M624 -22q-246 0 -386 152t-140 416q0 266 141 418t385 152t386 -152q140 -152 140 -418t-140 -416q-140 -152 -386 -152zM624 186q130 0 200 94t71 266q0 172 -71 267q-70 95 -200 95t-201 -95t-71 -267t71 -266t201 -94zM493 1393q-91 0 -92 -147h-171q0 142 68 226
t183 84q82 0 143 -52q26 -22 63 -59t74 -37q91 0 92 145h170q1 -141 -67 -225t-183 -84q-51 0 -97 24t-72 50q-70 74 -111 75z" />
    <glyph glyph-name="odieresis" unicode="&#xf6;" horiz-adv-x="1248" 
d="M624 -22q-246 0 -386 152t-140 416q0 266 141 418t385 152t386 -152q140 -152 140 -418t-140 -416q-140 -152 -386 -152zM624 186q130 0 200 94t71 266q0 172 -71 267q-70 95 -200 95t-201 -95t-71 -267t71 -266t201 -94zM846 1242q-61 0 -102 40t-41 101t41 101t102 40
t102 -40t41 -101t-41 -101t-102 -40zM401 1242q-61 0 -102 40t-41 101t41 101t102 40t102 -40t41 -101t-41 -101t-102 -40z" />
    <glyph glyph-name="divide" unicode="&#xf7;" horiz-adv-x="1383" 
d="M692 55q-68 -1 -110 41t-42 108t42 106q42 42 110 42q67 0 109 -42t42 -106q0 -66 -42 -108t-109 -41zM692 814q-68 0 -110 42t-42 106q0 66 42 108t110 41q67 1 109 -41t42 -108t-42 -106q-42 -42 -109 -42zM1220 484h-1057v197h1057v-197z" />
    <glyph glyph-name="oslash" unicode="&#xf8;" horiz-adv-x="1248" 
d="M1150 558q0 -278 -140 -428q-140 -152 -386 -152q-146 0 -256 55l-60 -93l-103 65l62 96q-169 152 -169 431q0 280 141 432t385 152q147 0 259 -57l61 94l104 -61l-65 -101q167 -155 167 -433zM624 908q-130 0 -201 -95t-71 -251t51 -250l359 559q-59 37 -138 37z
M624 186q130 0 200 94t71 252q0 156 -49 246l-358 -557q58 -35 136 -35z" />
    <glyph glyph-name="ugrave" unicode="&#xf9;" horiz-adv-x="1256" 
d="M1104 1094v-1094h-239v174h-17q-83 -196 -327 -196q-179 0 -279 106t-100 299v711h248v-649q0 -125 53 -187t169 -62t180 69t64 192v637h248zM769 1275h-242l-284 347h277z" />
    <glyph glyph-name="uacute" unicode="&#xfa;" horiz-adv-x="1256" 
d="M1104 1094v-1094h-239v174h-17q-83 -196 -327 -196q-179 0 -279 106t-100 299v711h248v-649q0 -125 53 -187t169 -62t180 69t64 192v637h248zM483 1275l249 347h277l-284 -347h-242z" />
    <glyph glyph-name="ucircumflex" unicode="&#xfb;" horiz-adv-x="1256" 
d="M1104 1094v-1094h-239v174h-17q-83 -196 -327 -196q-179 0 -279 106t-100 299v711h248v-649q0 -125 53 -187t169 -62t180 69t64 192v637h248zM752 1591l277 -348h-239l-159 215h-17l-159 -215h-239l277 348h259z" />
    <glyph glyph-name="udieresis" unicode="&#xfc;" horiz-adv-x="1256" 
d="M845 1242q-61 0 -102 40t-41 101t41 101t102 40t102 -40t41 -101t-41 -101t-102 -40zM400 1242q-61 0 -102 40t-41 101t41 101t102 40t102 -40t41 -101t-41 -101t-102 -40zM1104 1094v-1094h-239v174h-17q-83 -196 -327 -196q-179 0 -279 106t-100 299v711h248v-649
q0 -125 53 -187t169 -62t180 69t64 192v637h248z" />
    <glyph glyph-name="yacute" unicode="&#xfd;" horiz-adv-x="1183" 
d="M452 1275l249 347h277l-284 -347h-242zM272 -397q-77 0 -98 4v203q19 -4 83 -4q136 0 181 141l13 48l-391 1099h272l256 -854h17l255 854h262l-395 -1129q-69 -203 -169 -283t-286 -79z" />
    <glyph glyph-name="thorn" unicode="&#xfe;" horiz-adv-x="1310" 
d="M678 193q128 0 200 94t73 260q-1 166 -73 260t-200 94t-201 -95q-74 -95 -74 -259q-1 -164 73 -259t202 -95zM756 1112q210 0 330 -151t120 -413t-120 -414t-328 -152q-117 0 -205 48t-129 136h-18v-516h-247v1857h242v-594h17q46 93 136 146t202 53z" />
    <glyph glyph-name="ydieresis" unicode="&#xff;" horiz-adv-x="1183" 
d="M814 1242q-61 0 -102 40t-41 101t41 101t102 40t102 -40t41 -101t-41 -101t-102 -40zM369 1242q-61 0 -102 40t-41 101t41 101t102 40t102 -40t41 -101t-41 -101t-102 -40zM272 -397q-77 0 -98 4v203q19 -4 83 -4q136 0 181 141l13 48l-391 1099h272l256 -854h17l255 854
h262l-395 -1129q-69 -203 -169 -283t-286 -79z" />
    <glyph glyph-name="Amacron" unicode="&#x100;" horiz-adv-x="1456" 
d="M1088 1628h-720v164h720v-164zM714 1168l-198 -595h411l-196 595h-17zM1109 0l-122 369h-531l-124 -369h-261l512 1443h290l513 -1443h-277z" />
    <glyph glyph-name="amacron" unicode="&#x101;" horiz-adv-x="1179" 
d="M950 1305h-712v164h712v-164zM582 914q-180 0 -215 -114h-234q15 144 141 230t328 86t316 -97t115 -272v-747h-239v150h-17q-45 -80 -131 -124t-193 -44q-160 0 -261 90t-101 238q-1 148 107 232t308 96l282 17v92q0 81 -53 124t-153 43zM540 177q98 1 173 65t75 159v87
l-247 -16q-204 -13 -204 -148q1 -68 53 -108t150 -39z" />
    <glyph glyph-name="Abreve" unicode="&#x102;" horiz-adv-x="1456" 
d="M341 1900h188q1 -77 55 -122t144 -45t144 45t55 122h188q-1 -146 -105 -234t-282 -88t-282 88t-105 234zM714 1168l-198 -595h411l-196 595h-17zM1109 0l-122 369h-531l-124 -369h-261l512 1443h290l513 -1443h-277z" />
    <glyph glyph-name="abreve" unicode="&#x103;" horiz-adv-x="1179" 
d="M206 1585h188q2 -84 54 -135t145 -51t145 51t54 135h188q0 -152 -104 -247t-283 -95t-283 95t-104 247zM582 914q-180 0 -215 -114h-234q15 144 141 230t328 86t316 -97t115 -272v-747h-239v150h-17q-45 -80 -131 -124t-193 -44q-160 0 -261 90t-101 238q-1 148 107 232
t308 96l282 17v92q0 81 -53 124t-153 43zM540 177q98 1 173 65t75 159v87l-247 -16q-204 -13 -204 -148q1 -68 53 -108t150 -39z" />
    <glyph glyph-name="Aogonek" unicode="&#x104;" horiz-adv-x="1456" 
d="M1151 -182q1 -53 33 -79t78 -26t73 7v-154q-51 -20 -126 -20q-119 0 -191 62t-72 142q0 82 46 146t118 102l-123 371h-531l-124 -369h-261l512 1443h290l513 -1443l-36 -5q-81 -25 -140 -75t-59 -102zM714 1168l-198 -595h411l-196 595h-17z" />
    <glyph glyph-name="aogonek" unicode="&#x105;" horiz-adv-x="1179" 
d="M582 914q-180 0 -215 -114h-234q15 144 140 230t327 86t318 -97q115 -97 115 -272v-747l-27 -6q-82 -26 -132 -76t-50 -100t31 -78q31 -27 81 -27t72 7v-154q-53 -20 -126 -20q-116 0 -190 61t-73 147q-1 86 49 150t126 97v149h-17q-45 -80 -131 -124t-193 -44
q-162 0 -262 90t-100 238t107 232t308 96l282 17v92q0 81 -53 124t-153 43zM539 177q99 0 174 64t75 160v87l-247 -16q-204 -13 -204 -148q-1 -67 51 -107t151 -40z" />
    <glyph glyph-name="Cacute" unicode="&#x106;" horiz-adv-x="1499" 
d="M780 -36q-307 0 -485 204t-178 554q-1 351 177 554t485 203q246 -1 417 -145t194 -370h-254q-27 130 -124 208t-233 77q-184 1 -291 -141t-107 -386t107 -386t292 -142q137 0 234 72t123 192h254q-26 -222 -194 -358t-417 -136zM651 1587l288 310h283l-321 -310h-250z
" />
    <glyph glyph-name="cacute" unicode="&#x107;" horiz-adv-x="1182" 
d="M479 1275l249 347h277l-284 -347h-242zM606 908q-114 0 -186 -94t-71 -265q0 -171 72 -267t199 -96q98 0 160 45t81 130h236q-21 -175 -147 -279t-329 -104q-247 0 -385 151t-138 419t138 418t384 150q206 0 332 -106t145 -284h-236q-18 82 -80 132q-61 50 -175 50z" />
    <glyph glyph-name="Ccircumflex" unicode="&#x108;" horiz-adv-x="1499" 
d="M895 1908l290 -321h-242l-155 183h-18l-155 -183h-242l290 321h232zM780 -36q-307 0 -485 204t-178 554q-1 351 177 554t485 203q246 -1 417 -145t194 -370h-254q-27 130 -124 208t-233 77q-184 1 -291 -141t-107 -386t107 -386t292 -142q137 0 234 72t123 192h254
q-26 -222 -194 -358t-417 -136z" />
    <glyph glyph-name="ccircumflex" unicode="&#x109;" horiz-adv-x="1182" 
d="M606 908q-114 0 -186 -94t-71 -265q0 -171 72 -267t199 -96q98 0 160 45t81 130h236q-21 -175 -147 -279t-329 -104q-247 0 -385 151t-138 419t138 418t384 150q206 0 332 -106t145 -284h-236q-18 82 -80 132q-61 50 -175 50zM748 1591l277 -348h-239l-159 215h-17
l-159 -215h-239l277 348h259z" />
    <glyph glyph-name="Cdotaccent" unicode="&#x10a;" horiz-adv-x="1499" 
d="M780 -36q-307 0 -485 204t-178 554q-1 351 177 554t485 203q246 -1 417 -145t194 -370h-254q-27 130 -124 208t-233 77q-184 1 -291 -141t-107 -386t107 -386t292 -142q137 0 234 72t123 192h254q-26 -222 -194 -358t-417 -136zM779 1580q-62 0 -103 42t-41 102
q1 62 41 104t102 41q62 1 104 -41q41 -42 41 -104t-41 -102q-41 -42 -103 -42z" />
    <glyph glyph-name="cdotaccent" unicode="&#x10b;" horiz-adv-x="1182" 
d="M619 1281q-65 0 -107 43t-42 106q0 64 42 106t106 42t107 -43t43 -105t-42 -106q-42 -43 -107 -43zM606 908q-114 0 -186 -94t-71 -265q0 -171 72 -267t199 -96q98 0 160 45t81 130h236q-21 -175 -147 -279t-329 -104q-247 0 -385 151t-138 419t138 418t384 150
q206 0 332 -106t145 -284h-236q-18 82 -80 132q-61 50 -175 50z" />
    <glyph glyph-name="Ccaron" unicode="&#x10c;" horiz-adv-x="1499" 
d="M890 1587h-222l-288 310h235l155 -174h18l155 174h235zM780 -36q-307 0 -485 204t-178 554q-1 351 177 554t485 203q246 -1 417 -145t194 -370h-254q-27 130 -124 208t-233 77q-184 1 -291 -141t-107 -386t107 -386t292 -142q137 0 234 72t123 192h254
q-26 -222 -194 -358t-417 -136z" />
    <glyph glyph-name="ccaron" unicode="&#x10d;" horiz-adv-x="1182" 
d="M606 908q-114 0 -186 -94t-71 -265q0 -171 72 -267t199 -96q98 0 160 45t81 130h236q-21 -175 -147 -279t-329 -104q-247 0 -385 151t-138 419t138 418t384 150q206 0 332 -106t145 -284h-236q-18 82 -80 132q-61 50 -175 50zM748 1243h-259l-277 348h239l159 -215h17
l159 215h239z" />
    <glyph glyph-name="Dcaron" unicode="&#x10e;" horiz-adv-x="1514" 
d="M436 1220v-997h249q216 0 333 130q117 131 117 369q-1 238 -119 368t-331 130h-249zM178 1443h541q323 1 501 -187t178 -532t-178 -534t-501 -190h-541v1443zM734 1585h-222l-288 310h235l155 -174h18l155 174h235z" />
    <glyph glyph-name="dcaron" unicode="&#x10f;" horiz-adv-x="1481" 
d="M625 901q-127 -1 -200 -95t-73 -260t72 -259q72 -94 201 -94q127 1 201 95t74 258t-74 260q-74 95 -201 95zM548 -18q-208 0 -329 152t-121 413t122 413t328 152q112 0 200 -51t132 -141h17v597h248v-1517h-240v173h-17q-46 -91 -136 -141t-204 -50zM1286 1517h221
l-50 -498h-171v498z" />
    <glyph glyph-name="Dcroat" unicode="&#x110;" horiz-adv-x="1518" 
d="M181 1443h541q322 1 500 -187t179 -532t-177 -534t-502 -190h-541v634h-140v204h140v605zM439 223h249q216 0 333 130q117 131 117 369t-118 368t-332 130h-249v-382h232v-204h-232v-411z" />
    <glyph glyph-name="dcroat" unicode="&#x111;" horiz-adv-x="1314" 
d="M1296 1405v-142h-144v-1263h-239v173h-17q-47 -91 -137 -141t-203 -50q-208 0 -330 152t-121 413q0 261 122 413t329 152q112 0 200 -51t132 -141h16v343h-242v142h242v112h248v-112h144zM633 193q127 1 201 95t74 258t-74 260q-74 95 -201 95q-127 -1 -200 -95t-73 -260
t72 -259q72 -94 201 -94z" />
    <glyph glyph-name="Emacron" unicode="&#x112;" horiz-adv-x="1254" 
d="M1005 1628h-720v164h720v-164zM1112 223v-223h-934v1443h934v-223h-676v-383h639v-210h-639v-404h676z" />
    <glyph glyph-name="emacron" unicode="&#x113;" horiz-adv-x="1208" 
d="M968 1305h-712v164h712v-164zM614 -22q-240 0 -378 150t-138 415t138 419t374 154t368 -146t133 -406v-80h-764v-13q5 -137 79 -217t195 -79q188 0 244 126h235q-34 -151 -164 -237t-322 -86zM612 919q-112 0 -184 -73t-80 -193h515q-4 122 -72 194q-67 72 -179 72z" />
    <glyph glyph-name="Ebreve" unicode="&#x114;" horiz-adv-x="1254" 
d="M258 1900h188q2 -77 56 -122t143 -45t143 45t56 122h188q0 -146 -104 -234t-283 -88t-283 88t-104 234zM1112 223v-223h-934v1443h934v-223h-676v-383h639v-210h-639v-404h676z" />
    <glyph glyph-name="ebreve" unicode="&#x115;" horiz-adv-x="1208" 
d="M224 1585h188q2 -84 54 -135t145 -51t145 51t54 135h188q0 -152 -104 -247t-283 -95t-283 95t-104 247zM614 -22q-240 0 -378 150t-138 415t138 419t374 154t368 -146t133 -406v-80h-764v-13q5 -137 79 -217t195 -79q188 0 244 126h235q-34 -151 -164 -237t-322 -86z
M612 919q-112 0 -184 -73t-80 -193h515q-4 122 -72 194q-67 72 -179 72z" />
    <glyph glyph-name="Edotaccent" unicode="&#x116;" horiz-adv-x="1254" 
d="M1112 223v-223h-934v1443h934v-223h-676v-383h639v-210h-639v-404h676zM645 1578q-62 0 -103 42t-41 102q1 62 41 104t102 41q62 1 104 -41q41 -42 41 -104t-41 -102q-41 -42 -103 -42z" />
    <glyph glyph-name="edotaccent" unicode="&#x117;" horiz-adv-x="1208" 
d="M614 -22q-240 0 -378 150t-138 415t138 419t374 154t368 -146t133 -406v-80h-764v-13q5 -137 79 -217t195 -79q188 0 244 126h235q-34 -151 -164 -237t-322 -86zM612 919q-112 0 -184 -73t-80 -193h515q-4 122 -72 194q-67 72 -179 72zM612 1281q-64 0 -106 43t-43 106
q1 64 43 106t106 42t106 -43t43 -105q-1 -62 -43 -106q-42 -43 -106 -43z" />
    <glyph glyph-name="Eogonek" unicode="&#x118;" horiz-adv-x="1254" 
d="M814 0h-636v1443h934v-223h-676v-383h639v-210h-639v-404h676v-215l-45 -13q-77 -24 -133 -74t-56 -103t32 -79t80 -26q46 0 72 7v-154q-51 -20 -126 -20q-118 0 -190 62t-73 142q0 156 141 233v17z" />
    <glyph glyph-name="eogonek" unicode="&#x119;" horiz-adv-x="1208" 
d="M561 -237q1 61 35 116t96 92v17q-28 -10 -78 -10q-240 0 -378 150t-138 415t138 419t374 154t368 -146t133 -406v-80h-764v-13q5 -137 79 -217t195 -79q188 0 244 126h235q-11 -59 -59 -133q-49 -74 -123 -134q-152 -124 -152 -221q0 -47 32 -73t78 -27q46 0 73 7v-154
q-51 -20 -125 -20q-118 0 -190 62t-73 155zM612 919q-112 0 -184 -73t-80 -193h515q-4 122 -72 194q-67 72 -179 72z" />
    <glyph glyph-name="Ecaron" unicode="&#x11a;" horiz-adv-x="1254" 
d="M1112 223v-223h-934v1443h934v-223h-676v-383h639v-210h-639v-404h676zM756 1585h-222l-288 310h235l155 -174h18l155 174h235z" />
    <glyph glyph-name="ecaron" unicode="&#x11b;" horiz-adv-x="1208" 
d="M614 -22q-240 0 -378 150t-138 415t138 419t374 154t368 -146t133 -406v-80h-764v-13q5 -137 79 -217t195 -79q188 0 244 126h235q-34 -151 -164 -237t-322 -86zM612 919q-112 0 -184 -73t-80 -193h515q-4 122 -72 194q-67 72 -179 72zM741 1243h-259l-277 348h239
l159 -215h17l159 215h239z" />
    <glyph glyph-name="Gcircumflex" unicode="&#x11c;" horiz-adv-x="1547" 
d="M1426 578q0 -282 -171 -448t-473 -166t-483 204q-182 204 -182 552t183 554t491 205q250 0 419 -132t204 -353h-257q-39 123 -133 189t-233 66q-189 0 -299 -141q-110 -142 -111 -386q1 -244 113 -386t291 -142t282 92t106 241l1 30h-347v202h599v-181zM907 1907
l290 -321h-242l-155 183h-18l-155 -183h-242l290 321h232z" />
    <glyph glyph-name="gcircumflex" unicode="&#x11d;" horiz-adv-x="1295" 
d="M637 -416q-225 0 -355 85t-145 227h249q12 -57 76 -90t177 -33q114 0 185 57t71 160v207h-17q-48 -89 -134 -135t-200 -46q-206 0 -327 148t-121 397q0 251 122 401t330 150q112 0 203 -52t136 -141h17v175h239v-1098q0 -190 -141 -301t-365 -111zM899 559q0 157 -74 249
q-75 92 -203 93q-128 0 -200 -92t-71 -250q0 -157 71 -249t200 -92t203 92t74 249zM754 1591l277 -348h-239l-159 215h-17l-159 -215h-239l277 348h259z" />
    <glyph glyph-name="Gbreve" unicode="&#x11e;" horiz-adv-x="1547" 
d="M404 1901h188q2 -77 56 -122t143 -45t143 45t56 122h188q0 -145 -104 -233t-283 -89q-179 1 -283 89t-104 233zM1426 578q0 -282 -171 -448t-473 -166t-483 204q-182 204 -182 552t183 554t491 205q250 0 419 -132t204 -353h-257q-39 123 -133 189t-233 66
q-189 0 -299 -141q-110 -142 -111 -386q1 -244 113 -386t291 -142t282 92t106 241l1 30h-347v202h599v-181z" />
    <glyph glyph-name="gbreve" unicode="&#x11f;" horiz-adv-x="1295" 
d="M637 -416q-225 0 -355 85t-145 227h249q12 -57 76 -90t177 -33q114 0 185 57t71 160v207h-17q-48 -89 -134 -135t-200 -46q-206 0 -327 148t-121 397q0 251 122 401t330 150q112 0 203 -52t136 -141h17v175h239v-1098q0 -190 -141 -301t-365 -111zM899 559q0 157 -74 249
q-75 92 -203 93q-128 0 -200 -92t-71 -250q0 -157 71 -249t200 -92t203 92t74 249zM237 1585h188q3 -84 55 -135t144 -51t144 51t55 135h188q-1 -152 -105 -247t-282 -95t-282 95t-105 247z" />
    <glyph glyph-name="Gdotaccent" unicode="&#x120;" horiz-adv-x="1547" 
d="M1426 578q0 -282 -171 -448t-473 -166t-483 204q-182 204 -182 552t183 554t491 205q250 0 419 -132t204 -353h-257q-39 123 -133 189t-233 66q-189 0 -299 -141q-110 -142 -111 -386q1 -244 113 -386t291 -142t282 92t106 241l1 30h-347v202h599v-181zM791 1579
q-62 -1 -103 41t-41 104q1 62 41 102q40 42 102 42t104 -42q41 -42 41 -102q0 -62 -41 -104t-103 -41z" />
    <glyph glyph-name="gdotaccent" unicode="&#x121;" horiz-adv-x="1295" 
d="M637 -416q-225 0 -355 85t-145 227h249q12 -57 76 -90t177 -33q114 0 185 57t71 160v207h-17q-48 -89 -134 -135t-200 -46q-206 0 -327 148t-121 397q0 251 122 401t330 150q112 0 203 -52t136 -141h17v175h239v-1098q0 -190 -141 -301t-365 -111zM899 559q0 157 -74 249
q-75 92 -203 93q-128 0 -200 -92t-71 -250q0 -157 71 -249t200 -92t203 92t74 249zM625 1281q-65 0 -107 43t-42 106q0 64 42 106t106 42t107 -43t43 -105t-42 -106q-42 -43 -107 -43z" />
    <glyph glyph-name="Gcommaaccent" unicode="&#x122;" horiz-adv-x="1547" 
d="M1426 578q0 -282 -171 -448t-473 -166t-483 204q-182 204 -182 552t183 554t491 205q250 0 419 -132t204 -353h-257q-39 123 -133 189t-233 66q-189 0 -299 -141q-110 -142 -111 -386q1 -244 113 -386t291 -142t282 92t106 241l1 30h-347v202h599v-181zM798 -512h-225
l121 364h253z" />
    <glyph glyph-name="gcommaaccent" unicode="&#x123;" horiz-adv-x="1295" 
d="M637 -416q-225 0 -355 85t-145 227h249q12 -57 76 -90t177 -33q114 0 185 57t71 160v207h-17q-48 -89 -134 -135t-200 -46q-206 0 -327 148t-121 397q0 251 122 401t330 150q112 0 203 -52t136 -141h17v175h239v-1098q0 -190 -141 -301t-365 -111zM899 559q0 157 -74 249
q-75 92 -203 93q-128 0 -200 -92t-71 -250q0 -157 71 -249t200 -92t203 92t74 249zM646 1654h225l-121 -364h-253z" />
    <glyph glyph-name="Hcircumflex" unicode="&#x124;" horiz-adv-x="1573" 
d="M903 1906l290 -321h-242l-155 183h-18l-155 -183h-242l290 321h232zM1395 0h-257v623h-702v-623h-258v1443h258v-597h702v597h257v-1443z" />
    <glyph glyph-name="hcircumflex" unicode="&#x125;" horiz-adv-x="1274" 
d="M400 1980l290 -321h-242l-155 183h-18l-155 -183h-242l290 321h232zM884 647q0 251 -220 251q-120 0 -187 -72t-67 -191v-635h-248v1517h244v-600h18q39 93 125 145t207 52q176 0 276 -107t100 -301v-706h-248v647z" />
    <glyph glyph-name="Hbar" unicode="&#x126;" horiz-adv-x="1573" 
d="M1526 1246v-184h-131v-1062h-257v623h-702v-623h-258v1062h-131v184h131v197h258v-197h702v197h257v-197h131zM1138 846v216h-702v-216h702z" />
    <glyph glyph-name="hbar" unicode="&#x127;" horiz-adv-x="1274" 
d="M884 647q0 251 -220 251q-120 0 -187 -72t-67 -191v-635h-248v1263h-144v142h144v112h244v-112h243v-142h-243v-346h18q39 93 125 145t207 52q176 0 276 -107t100 -301v-706h-248v647z" />
    <glyph glyph-name="Itilde" unicode="&#x128;" horiz-adv-x="614" 
d="M168 1725q-85 0 -90 -136h-166q0 141 66 220t163 79t163 -52q26 -22 65 -60q38 -38 77 -37q83 0 90 134h166q0 -137 -66 -217t-161 -80q-97 0 -159 52q-26 22 -48 44q-55 53 -100 53zM436 0h-258v1443h258v-1443z" />
    <glyph glyph-name="itilde" unicode="&#x129;" horiz-adv-x="557" 
d="M147 1393q-91 0 -92 -147h-171q0 142 68 226t183 84q82 0 143 -52q26 -22 63 -59t74 -37q91 0 92 145h170q1 -141 -67 -225t-183 -84q-51 0 -97 24t-72 50q-70 74 -111 75zM155 0v1094h247v-1094h-247z" />
    <glyph glyph-name="Imacron" unicode="&#x12a;" horiz-adv-x="614" 
d="M667 1628h-720v164h720v-164zM436 0h-258v1443h258v-1443z" />
    <glyph glyph-name="imacron" unicode="&#x12b;" horiz-adv-x="557" 
d="M634 1305h-712v164h712v-164zM155 0v1094h247v-1094h-247z" />
    <glyph glyph-name="Ibreve" unicode="&#x12c;" horiz-adv-x="614" 
d="M-80 1900h188q2 -77 56 -122t143 -45t143 45t56 122h188q0 -146 -104 -234t-283 -88t-283 88t-104 234zM436 0h-258v1443h258v-1443z" />
    <glyph glyph-name="ibreve" unicode="&#x12d;" horiz-adv-x="557" 
d="M-110 1585h188q2 -84 54 -135t145 -51t145 51t54 135h188q0 -152 -104 -247t-283 -95t-283 95t-104 247zM155 0v1094h247v-1094h-247z" />
    <glyph glyph-name="Iogonek" unicode="&#x12e;" horiz-adv-x="614" 
d="M53 -237q0 138 125 216v1464h258v-1443q-76 -24 -127 -78t-51 -104t32 -78t78 -27q46 0 77 7v-154q-53 -20 -149 -20t-170 61t-73 156z" />
    <glyph glyph-name="iogonek" unicode="&#x12f;" horiz-adv-x="557" 
d="M155 1094h247v-1094l-22 -5q-72 -31 -114 -79t-42 -99t34 -77t78 -27q45 0 75 7v-154q-49 -20 -124 -20q-121 0 -195 62t-73 158q0 135 136 223v1105zM278 1272q-68 0 -110 38q-43 38 -43 99t43 99q42 38 110 38t110 -38t43 -99q-1 -61 -43 -99t-110 -38z" />
    <glyph glyph-name="Idotaccent" unicode="&#x130;" horiz-adv-x="614" 
d="M307 1578q-62 0 -103 42t-41 102q1 62 41 104t102 41q62 1 104 -41q41 -42 41 -104t-41 -102q-41 -42 -103 -42zM436 0h-258v1443h258v-1443z" />
    <glyph glyph-name="dotlessi" unicode="&#x131;" horiz-adv-x="557" 
d="M155 0v1094h247v-1094h-247z" />
    <glyph glyph-name="u0132" unicode="&#x132;" horiz-adv-x="1798" 
d="M693 393h252q1 -89 58 -143t154 -54t151 60t54 177v1010h258v-1012q0 -223 -123 -345t-337 -122t-340 117q-127 117 -127 312zM436 0h-258v1443h258v-1443z" />
    <glyph glyph-name="u0133" unicode="&#x133;" horiz-adv-x="1135" 
d="M846 1272q-68 0 -110 38q-43 38 -43 99t43 99q42 38 110 38t110 -38t43 -99q-1 -61 -43 -99t-110 -38zM723 -37v1131h247v-1135q0 -333 -368 -333q-39 0 -60 3v195l32 -1q82 1 116 33t33 107zM278 1272q-68 0 -110 38q-43 38 -43 99t43 99q42 38 110 38t110 -38t43 -99
q-1 -61 -43 -99t-110 -38zM155 0v1094h247v-1094h-247z" />
    <glyph glyph-name="Jcircumflex" unicode="&#x134;" horiz-adv-x="1184" 
d="M993 1906l290 -321h-242l-155 183h-18l-155 -183h-242l290 321h232zM79 393h252q1 -89 58 -143t154 -54t151 60t54 177v1010h258v-1012q0 -223 -123 -345t-337 -122t-340 117q-127 117 -127 312z" />
    <glyph glyph-name="jcircumflex" unicode="&#x135;" horiz-adv-x="557" 
d="M409 1591l277 -348h-239l-159 215h-17l-159 -215h-239l277 348h259zM151 -37v1131h247v-1135q0 -333 -368 -333q-39 0 -60 3v195l32 -1q82 1 116 33t33 107z" />
    <glyph glyph-name="Kcommaaccent" unicode="&#x136;" horiz-adv-x="1415" 
d="M681 -512h-225l121 364h253zM436 0h-258v1443h258v-664h17l569 664h296l-545 -629l588 -814h-315l-456 637l-154 -177v-460z" />
    <glyph glyph-name="kcommaaccent" unicode="&#x137;" horiz-adv-x="1188" 
d="M630 -512h-225l121 364h253zM410 0h-248v1517h248v-869h17l404 446h288l-436 -469l466 -625h-300l-351 469l-88 -88v-381z" />
    <glyph glyph-name="Lacute" unicode="&#x139;" horiz-adv-x="1198" 
d="M1098 226v-226h-920v1443h258v-1217h662zM179 1585l288 310h283l-321 -310h-250z" />
    <glyph glyph-name="lacute" unicode="&#x13a;" horiz-adv-x="571" 
d="M162 0v1517h248v-1517h-248zM158 1659l288 310h283l-321 -310h-250z" />
    <glyph glyph-name="Lcommaaccent" unicode="&#x13b;" horiz-adv-x="1198" 
d="M1098 226v-226h-920v1443h258v-1217h662zM632 -512h-225l121 364h253z" />
    <glyph glyph-name="lcommaaccent" unicode="&#x13c;" horiz-adv-x="571" 
d="M162 0v1517h248v-1517h-248zM283 -512h-225l121 364h253z" />
    <glyph glyph-name="Lcaron" unicode="&#x13d;" horiz-adv-x="1198" 
d="M1098 226v-226h-920v1443h258v-1217h662zM643 1443h219l-50 -498h-169v498z" />
    <glyph glyph-name="lcaron" unicode="&#x13e;" horiz-adv-x="746" 
d="M162 0v1517h248v-1517h-248zM551 1517h221l-50 -498h-171v498z" />
    <glyph glyph-name="Lslash" unicode="&#x141;" horiz-adv-x="1198" 
d="M436 226h662v-226h-920v682l-157 -77v182l157 77v579h258v-451l258 127v-183l-258 -127v-583z" />
    <glyph glyph-name="lslash" unicode="&#x142;" horiz-adv-x="571" 
d="M410 0h-248v683l-126 -65v183l126 65v651h248v-523l125 64v-183l-125 -64v-811z" />
    <glyph glyph-name="Nacute" unicode="&#x143;" horiz-adv-x="1554" 
d="M427 0h-249v1443h224l708 -981h17v981h248v-1443h-223l-708 982h-17v-982zM646 1585l288 310h283l-321 -310h-250z" />
    <glyph glyph-name="nacute" unicode="&#x144;" horiz-adv-x="1252" 
d="M1110 708v-708h-248v649q0 251 -221 251q-111 0 -176 -71t-65 -192v-637h-248v1094h239v-175h17q84 197 325 197q181 0 279 -106t98 -302zM496 1275l249 347h277l-284 -347h-242z" />
    <glyph glyph-name="Ncommaaccent" unicode="&#x145;" horiz-adv-x="1554" 
d="M427 0h-249v1443h224l708 -981h17v981h248v-1443h-223l-708 982h-17v-982zM771 -512h-225l121 364h253z" />
    <glyph glyph-name="ncommaaccent" unicode="&#x146;" horiz-adv-x="1252" 
d="M1110 708v-708h-248v649q0 251 -221 251q-111 0 -176 -71t-65 -192v-637h-248v1094h239v-175h17q84 197 325 197q181 0 279 -106t98 -302zM633 -512h-225l121 364h253z" />
    <glyph glyph-name="Ncaron" unicode="&#x147;" horiz-adv-x="1554" 
d="M427 0h-249v1443h224l708 -981h17v981h248v-1443h-223l-708 982h-17v-982zM885 1585h-222l-288 310h235l155 -174h18l155 174h235z" />
    <glyph glyph-name="ncaron" unicode="&#x148;" horiz-adv-x="1252" 
d="M1110 708v-708h-248v649q0 251 -221 251q-111 0 -176 -71t-65 -192v-637h-248v1094h239v-175h17q84 197 325 197q181 0 279 -106t98 -302zM765 1243h-259l-277 348h239l159 -215h17l159 215h239z" />
    <glyph glyph-name="Omacron" unicode="&#x14c;" horiz-adv-x="1599" 
d="M1161 1628h-720v164h720v-164zM800 1250q-192 0 -306 -143t-113 -385t113 -386q112 -143 306 -143q194 -1 306 143t112 386t-112 385q-114 143 -306 143zM800 1479q314 0 498 -204t184 -553q0 -350 -183 -554t-499 -204t-500 204t-183 554t185 553q184 204 498 204z" />
    <glyph glyph-name="omacron" unicode="&#x14d;" horiz-adv-x="1248" 
d="M624 -22q-246 0 -386 152t-140 416q0 266 141 418t385 152t386 -152q140 -152 140 -418t-140 -416q-140 -152 -386 -152zM624 186q130 0 200 94t71 266q0 172 -71 267q-70 95 -200 95t-201 -95t-71 -267t71 -266t201 -94zM980 1305h-712v164h712v-164z" />
    <glyph glyph-name="Obreve" unicode="&#x14e;" horiz-adv-x="1599" 
d="M414 1900h188q2 -77 56 -122t143 -45t143 45t56 122h188q0 -146 -104 -234t-283 -88t-283 88t-104 234zM800 1250q-192 0 -306 -143t-113 -385t113 -386q112 -143 306 -143q194 -1 306 143t112 386t-112 385q-114 143 -306 143zM800 1479q314 0 498 -204t184 -553
q0 -350 -183 -554t-499 -204t-500 204t-183 554t185 553q184 204 498 204z" />
    <glyph glyph-name="obreve" unicode="&#x14f;" horiz-adv-x="1248" 
d="M624 -22q-246 0 -386 152t-140 416q0 266 141 418t385 152t386 -152q140 -152 140 -418t-140 -416q-140 -152 -386 -152zM624 186q130 0 200 94t71 266q0 172 -71 267q-70 95 -200 95t-201 -95t-71 -267t71 -266t201 -94zM236 1585h188q2 -84 54 -135t145 -51t145 51
t54 135h188q0 -152 -104 -247t-283 -95t-283 95t-104 247z" />
    <glyph glyph-name="Ohungarumlaut" unicode="&#x150;" horiz-adv-x="1599" 
d="M800 1250q-192 0 -306 -143t-113 -385t113 -386q112 -143 306 -143q194 -1 306 143t112 386t-112 385q-114 143 -306 143zM800 1479q314 0 498 -204t184 -553q0 -350 -183 -554t-499 -204t-500 204t-183 554t185 553q184 204 498 204zM434 1585l273 310h254l-297 -310
h-230zM863 1585l273 310h254l-297 -310h-230z" />
    <glyph glyph-name="ohungarumlaut" unicode="&#x151;" horiz-adv-x="1248" 
d="M624 -22q-246 0 -386 152t-140 416q0 266 141 418t385 152t386 -152q140 -152 140 -418t-140 -416q-140 -152 -386 -152zM624 186q130 0 200 94t71 266q0 172 -71 267q-70 95 -200 95t-201 -95t-71 -267t71 -266t201 -94zM274 1275l227 347h241l-256 -347h-212zM697 1275
l227 347h241l-256 -347h-212z" />
    <glyph glyph-name="OE" unicode="&#x152;" horiz-adv-x="2291" 
d="M1267 0v238h-18q-59 -122 -189 -198t-285 -76q-303 0 -477 202t-174 556t174 555q174 202 477 202q153 0 285 -74t189 -191h18v229h908v-223h-688v-383h651v-210h-651v-404h688v-223h-908zM810 1250q-194 0 -308 -142q-115 -142 -115 -387q1 -244 115 -386t308 -142
q194 1 305 143t111 386t-111 386t-305 142z" />
    <glyph glyph-name="oe" unicode="&#x153;" horiz-adv-x="2006" 
d="M626 186q130 0 201 94t71 266t-71 267t-200 95t-200 -95t-71 -267t70 -266t200 -94zM1410 919q-112 -1 -183 -73q-72 -72 -81 -193h515q-3 122 -71 194t-180 72zM1421 -22q-131 0 -237 54t-155 147h-17q-51 -93 -156 -147t-238 -54q-240 0 -378 152t-139 417
q1 265 139 417t379 152q131 0 233 -54t161 -151h17q58 97 160 151t230 54q226 0 358 -148t132 -403v-80h-764v-13q4 -136 78 -216t195 -80q189 0 245 125h233q-35 -151 -163 -237t-313 -86z" />
    <glyph glyph-name="Racute" unicode="&#x154;" horiz-adv-x="1391" 
d="M436 541v-541h-258v1443h586q227 1 360 -121t133 -330q0 -144 -72 -254t-200 -157l315 -581h-295l-283 541h-286zM436 1229v-483h298q122 0 190 63t68 177t-70 178t-194 65h-292zM508 1585l288 310h283l-321 -310h-250z" />
    <glyph glyph-name="racute" unicode="&#x155;" horiz-adv-x="838" 
d="M152 0v1094h239v-170h17q24 82 104 135t166 53t122 -11v-230q-38 14 -143 14q-105 1 -181 -69t-76 -184v-632h-248zM283 1275l249 347h277l-284 -347h-242z" />
    <glyph glyph-name="Rcommaaccent" unicode="&#x156;" horiz-adv-x="1391" 
d="M633 -512h-225l121 364h253zM436 541v-541h-258v1443h586q227 1 360 -121t133 -330q0 -144 -72 -254t-200 -157l315 -581h-295l-283 541h-286zM436 1229v-483h298q122 0 190 63t68 177t-70 178t-194 65h-292z" />
    <glyph glyph-name="rcommaaccent" unicode="&#x157;" horiz-adv-x="838" 
d="M271 -512h-225l121 364h253zM152 0v1094h239v-170h17q24 82 104 135t166 53t122 -11v-230q-38 14 -143 14q-105 1 -181 -69t-76 -184v-632h-248z" />
    <glyph glyph-name="Rcaron" unicode="&#x158;" horiz-adv-x="1391" 
d="M747 1585h-222l-288 310h235l155 -174h18l155 174h235zM436 541v-541h-258v1443h586q227 1 360 -121t133 -330q0 -144 -72 -254t-200 -157l315 -581h-295l-283 541h-286zM436 1229v-483h298q122 0 190 63t68 177t-70 178t-194 65h-292z" />
    <glyph glyph-name="rcaron" unicode="&#x159;" horiz-adv-x="838" 
d="M152 0v1094h239v-170h17q24 82 104 135t166 53t122 -11v-230q-38 14 -143 14q-105 1 -181 -69t-76 -184v-632h-248zM552 1243h-259l-277 348h239l159 -215h17l159 215h239z" />
    <glyph glyph-name="Sacute" unicode="&#x15a;" horiz-adv-x="1354" 
d="M686 180q132 0 216 58q82 58 82 144q0 84 -62 133t-202 81l-187 43q-197 43 -291 143t-94 261q0 197 148 317t382 119q234 0 383 -118t158 -304h-247q-13 95 -91 151t-200 56q-121 0 -197 -56t-76 -138t59 -128t193 -76l166 -38q220 -49 318 -146t98 -262
q0 -212 -152 -334t-408 -122t-408 116t-162 312h252q12 -96 101 -154t221 -58zM557 1585l288 310h283l-321 -310h-250z" />
    <glyph glyph-name="sacute" unicode="&#x15b;" horiz-adv-x="1128" 
d="M425 1275l249 347h277l-284 -347h-242zM781 302q0 91 -151 124l-194 45q-158 35 -234 111t-75 212q0 136 122 228q123 94 317 94t310 -82t130 -232h-233q-13 58 -67 92t-140 34t-142 -37t-56 -89t40 -83q40 -30 122 -49l193 -44q158 -36 232 -107t74 -191
q0 -158 -130 -254q-129 -96 -335 -96t-328 84t-137 233h245q37 -129 225 -129q94 0 153 38t59 98z" />
    <glyph glyph-name="Scircumflex" unicode="&#x15c;" horiz-adv-x="1354" 
d="M801 1906l290 -321h-242l-155 183h-18l-155 -183h-242l290 321h232zM686 180q132 0 216 58q82 58 82 144q0 84 -62 133t-202 81l-187 43q-197 43 -291 143t-94 261q0 197 148 317t382 119q234 0 383 -118t158 -304h-247q-13 95 -91 151t-200 56q-121 0 -197 -56t-76 -138
t59 -128t193 -76l166 -38q220 -49 318 -146t98 -262q0 -212 -152 -334t-408 -122t-408 116t-162 312h252q12 -96 101 -154t221 -58z" />
    <glyph glyph-name="scircumflex" unicode="&#x15d;" horiz-adv-x="1128" 
d="M781 302q0 91 -151 124l-194 45q-158 35 -234 111t-75 212q0 136 122 228q123 94 317 94t310 -82t130 -232h-233q-13 58 -67 92t-140 34t-142 -37t-56 -89t40 -83q40 -30 122 -49l193 -44q158 -36 232 -107t74 -191q0 -158 -130 -254q-129 -96 -335 -96t-328 84t-137 233
h245q37 -129 225 -129q94 0 153 38t59 98zM694 1591l277 -348h-239l-159 215h-17l-159 -215h-239l277 348h259z" />
    <glyph glyph-name="Scedilla" unicode="&#x15e;" horiz-adv-x="1354" 
d="M719 -123q203 -9 203 -179q0 -86 -68 -138q-68 -54 -174 -54t-163 18v124q44 -14 118 -14q114 0 114 64q0 32 -32 46t-105 14h-59v104l43 105q-215 19 -345 132t-139 293h252q12 -96 101 -154t221 -58t216 58q82 58 82 144q0 84 -62 133t-202 81l-187 43
q-197 43 -291 143t-94 261q0 197 148 317t382 119q234 0 383 -118t158 -304h-247q-13 95 -91 151t-200 56q-121 0 -197 -56t-76 -138t59 -128t193 -76l166 -38q220 -49 318 -146q98 -96 98 -276t-130 -300t-357 -139z" />
    <glyph glyph-name="scedilla" unicode="&#x15f;" horiz-adv-x="1128" 
d="M607 -123q203 -9 203 -179q0 -86 -68 -138q-68 -54 -174 -54t-163 18v124q44 -14 118 -14q114 0 114 64q0 32 -32 46t-105 14h-59v104l49 119q-174 15 -276 97t-115 217h245q37 -129 225 -129q94 0 153 38t59 98q0 91 -151 124l-194 45q-158 35 -234 111t-75 212
q0 136 122 228q123 94 317 94t310 -82t130 -232h-233q-13 58 -67 92t-140 34t-142 -37t-56 -89t40 -83q40 -30 122 -49l193 -44q158 -36 232 -107t74 -201t-104 -222q-104 -93 -275 -113z" />
    <glyph glyph-name="Scaron" unicode="&#x160;" horiz-adv-x="1354" 
d="M796 1585h-222l-288 310h235l155 -174h18l155 174h235zM686 180q132 0 216 58q82 58 82 144q0 84 -62 133t-202 81l-187 43q-197 43 -291 143t-94 261q0 197 148 317t382 119q234 0 383 -118t158 -304h-247q-13 95 -91 151t-200 56q-121 0 -197 -56t-76 -138t59 -128
t193 -76l166 -38q220 -49 318 -146t98 -262q0 -212 -152 -334t-408 -122t-408 116t-162 312h252q12 -96 101 -154t221 -58z" />
    <glyph glyph-name="scaron" unicode="&#x161;" horiz-adv-x="1128" 
d="M781 302q0 91 -151 124l-194 45q-158 35 -234 111t-75 212q0 136 122 228q123 94 317 94t310 -82t130 -232h-233q-13 58 -67 92t-140 34t-142 -37t-56 -89t40 -83q40 -30 122 -49l193 -44q158 -36 232 -107t74 -191q0 -158 -130 -254q-129 -96 -335 -96t-328 84t-137 233
h245q37 -129 225 -129q94 0 153 38t59 98zM694 1243h-259l-277 348h239l159 -215h17l159 215h239z" />
    <glyph glyph-name="Tcedilla" unicode="&#x162;" horiz-adv-x="1332" 
d="M712 -123q203 -9 203 -179q0 -86 -68 -138q-68 -54 -174 -54t-163 18v124q44 -14 118 -14q114 0 114 64q0 32 -32 46t-105 14h-59v104l56 138h-65v1220h-444v223h1147v-223h-445v-1220h-34z" />
    <glyph glyph-name="tcedilla" unicode="&#x163;" horiz-adv-x="808" 
d="M530 -301q0 59 -137 59h-60v104l64 157q-87 28 -127 94t-39 179v597h-173v198h173v275h247v-275h234v-198h-234v-537q0 -80 36 -118t114 -38q34 0 82 5v-194q-60 -12 -106 -12t-57 1l-47 -119q97 -3 150 -48t53 -131q-1 -86 -69 -138q-68 -54 -170 -54t-167 18v125
q40 -14 119 -14q114 0 114 64z" />
    <glyph glyph-name="Tcaron" unicode="&#x164;" horiz-adv-x="1332" 
d="M795 0h-258v1220h-444v223h1147v-223h-445v-1220zM775 1585h-222l-288 310h235l155 -174h18l155 174h235z" />
    <glyph glyph-name="tcaron" unicode="&#x165;" horiz-adv-x="808" 
d="M231 1362h247v-275h234v-198h-234v-537q0 -80 36 -118t114 -38q34 0 84 5v-194q-62 -12 -130 -12q-188 0 -270 69t-81 228v597h-173v198h173v275zM592 1231v499h222l-50 -499h-172z" />
    <glyph glyph-name="Tbar" unicode="&#x166;" horiz-adv-x="1332" 
d="M1240 1220h-445v-422h289v-191h-289v-607h-258v607h-293v191h293v422h-444v223h1147v-223z" />
    <glyph glyph-name="tbar" unicode="&#x167;" horiz-adv-x="805" 
d="M724 493h-246v-141q0 -80 36 -118t114 -38q34 0 84 5v-194q-62 -12 -130 -12q-188 0 -270 69t-81 228v201h-175v155h175v241h-173v198h173v275h247v-275h234v-198h-234v-241h246v-155z" />
    <glyph glyph-name="Utilde" unicode="&#x168;" horiz-adv-x="1550" 
d="M636 1725q-85 0 -90 -136h-166q0 141 66 220t163 79t163 -52q26 -22 65 -60q38 -38 77 -37q83 0 90 134h166q0 -137 -66 -217t-161 -80q-97 0 -159 52q-26 22 -48 44q-55 53 -100 53zM439 1443v-922q0 -149 89 -237t247 -89q159 1 247 89t88 237v922h258v-946
q0 -239 -161 -386t-432 -147t-432 147t-161 386v946h257z" />
    <glyph glyph-name="utilde" unicode="&#x169;" horiz-adv-x="1256" 
d="M492 1393q-91 0 -92 -147h-171q0 142 68 226t183 84q82 0 143 -52q26 -22 63 -59t74 -37q91 0 92 145h170q0 -141 -68 -225t-182 -84q-52 0 -98 24t-71 50q-70 74 -111 75zM1104 1094v-1094h-239v174h-17q-83 -196 -327 -196q-179 0 -279 106t-100 299v711h248v-649
q0 -125 53 -187t169 -62t180 69t64 192v637h248z" />
    <glyph glyph-name="Umacron" unicode="&#x16a;" horiz-adv-x="1550" 
d="M1135 1628h-720v164h720v-164zM439 1443v-922q0 -149 89 -237t247 -89q159 1 247 89t88 237v922h258v-946q0 -239 -161 -386t-432 -147t-432 147t-161 386v946h257z" />
    <glyph glyph-name="umacron" unicode="&#x16b;" horiz-adv-x="1256" 
d="M979 1305h-712v164h712v-164zM1104 1094v-1094h-239v174h-17q-83 -196 -327 -196q-179 0 -279 106t-100 299v711h248v-649q0 -125 53 -187t169 -62t180 69t64 192v637h248z" />
    <glyph glyph-name="Ubreve" unicode="&#x16c;" horiz-adv-x="1550" 
d="M388 1900h188q2 -77 56 -122t143 -45t143 45t56 122h188q0 -146 -104 -234t-283 -88t-283 88t-104 234zM439 1443v-922q0 -149 89 -237t247 -89q159 1 247 89t88 237v922h258v-946q0 -239 -161 -386t-432 -147t-432 147t-161 386v946h257z" />
    <glyph glyph-name="ubreve" unicode="&#x16d;" horiz-adv-x="1256" 
d="M235 1585h188q3 -84 55 -135t144 -51t144 51t55 135h188q-1 -152 -105 -247t-282 -95t-282 95t-105 247zM1104 1094v-1094h-239v174h-17q-83 -196 -327 -196q-179 0 -279 106t-100 299v711h248v-649q0 -125 53 -187t169 -62t180 69t64 192v637h248z" />
    <glyph glyph-name="Uring" unicode="&#x16e;" horiz-adv-x="1550" 
d="M439 1443v-922q0 -149 89 -237t247 -89q159 1 247 89t88 237v922h258v-946q0 -239 -161 -386t-432 -147t-432 147t-161 386v946h257zM775 1649q43 -1 71 27t28 70t-28 70t-71 28t-71 -28t-28 -70t28 -70t71 -27zM775 1548q-87 0 -145 57t-58 141t58 142q58 57 145 57
t145 -57q58 -58 58 -142t-58 -141t-145 -57z" />
    <glyph glyph-name="uring" unicode="&#x16f;" horiz-adv-x="1256" 
d="M622 1368q48 0 80 32t32 78q0 48 -32 80t-80 31q-48 1 -80 -31t-31 -80q-1 -48 31 -78q32 -32 80 -32zM623 1243q-101 -1 -171 67t-70 169t70 168t171 67q102 0 171 -67t69 -168t-69 -169t-171 -67zM1104 1094v-1094h-239v174h-17q-83 -196 -327 -196q-179 0 -279 106
t-100 299v711h248v-649q0 -125 53 -187t169 -62t180 69t64 192v637h248z" />
    <glyph glyph-name="Uhungarumlaut" unicode="&#x170;" horiz-adv-x="1550" 
d="M408 1585l273 310h254l-297 -310h-230zM837 1585l273 310h254l-297 -310h-230zM439 1443v-922q0 -149 89 -237t247 -89q159 1 247 89t88 237v922h258v-946q0 -239 -161 -386t-432 -147t-432 147t-161 386v946h257z" />
    <glyph glyph-name="uhungarumlaut" unicode="&#x171;" horiz-adv-x="1256" 
d="M1104 1094v-1094h-239v174h-17q-83 -196 -327 -196q-179 0 -279 106t-100 299v711h248v-649q0 -125 53 -187t169 -62t180 69t64 192v637h248zM273 1275l227 347h241l-256 -347h-212zM696 1275l227 347h241l-256 -347h-212z" />
    <glyph glyph-name="Uogonek" unicode="&#x172;" horiz-adv-x="1549" 
d="M1044 -454q-118 0 -190 60t-73 141q0 146 131 223v18q-48 -24 -137 -24q-269 0 -431 146t-162 387v946h257v-922q1 -151 91 -239t245 -87q155 -1 245 87t90 239v922h258v-946q0 -137 -60 -249t-190 -226q-132 -114 -132 -209q0 -46 32 -73t78 -27t73 7v-154
q-51 -20 -125 -20z" />
    <glyph glyph-name="uogonek" unicode="&#x173;" horiz-adv-x="1256" 
d="M689 -246q0 86 50 150t126 96v174h-17q-83 -196 -327 -196q-179 0 -279 106t-100 299v711h248v-649q0 -125 53 -187t169 -62t180 69t64 192v637h248v-1094l-27 -6q-83 -26 -133 -76t-50 -100t32 -78q32 -27 80 -27q49 0 72 7v-154q-50 -20 -146 -20t-170 61t-73 147z" />
    <glyph glyph-name="Wcircumflex" unicode="&#x174;" horiz-adv-x="2036" 
d="M1010 1022l-292 -1022h-243l-387 1443h269l247 -1074h15l284 1074h229l288 -1074h14l247 1074h267l-387 -1443h-242l-294 1022h-15zM1134 1906l290 -321h-242l-155 183h-18l-155 -183h-242l290 321h232z" />
    <glyph glyph-name="wcircumflex" unicode="&#x175;" horiz-adv-x="1681" 
d="M1617 1094l-296 -1094h-261l-213 788h-17l-212 -788h-258l-296 1094h250l182 -817h17l210 817h237l212 -817h17l181 817h247zM971 1591l277 -348h-239l-159 215h-17l-159 -215h-239l277 348h259z" />
    <glyph glyph-name="Ycircumflex" unicode="&#x176;" horiz-adv-x="1412" 
d="M822 1906l290 -321h-242l-155 183h-18l-155 -183h-242l290 321h232zM835 0h-258v564l-506 879h283l344 -617h17l343 617h283l-506 -879v-564z" />
    <glyph glyph-name="ycircumflex" unicode="&#x177;" horiz-adv-x="1183" 
d="M721 1591l277 -348h-239l-159 215h-17l-159 -215h-239l277 348h259zM272 -397q-77 0 -98 4v203q19 -4 83 -4q136 0 181 141l13 48l-391 1099h272l256 -854h17l255 854h262l-395 -1129q-69 -203 -169 -283t-286 -79z" />
    <glyph glyph-name="Ydieresis" unicode="&#x178;" horiz-adv-x="1412" 
d="M928 1577q-61 1 -102 41t-41 100t41 100t102 41q61 -1 102 -41t41 -100t-41 -100t-102 -41zM483 1577q-61 1 -102 41t-41 100t41 100t102 41q61 -1 102 -41t41 -100t-41 -100t-102 -41zM835 0h-258v564l-506 879h283l344 -617h17l343 617h283l-506 -879v-564z" />
    <glyph glyph-name="Zacute" unicode="&#x179;" horiz-adv-x="1373" 
d="M138 0v176l759 1027v17h-738v223h1057v-176l-756 -1027v-17h775v-223h-1097zM559 1585l288 310h283l-321 -310h-250z" />
    <glyph glyph-name="zacute" unicode="&#x17a;" horiz-adv-x="1140" 
d="M127 0v155l581 722v17h-576v200h872v-169l-560 -708v-17h569v-200h-886zM425 1275l249 347h277l-284 -347h-242z" />
    <glyph glyph-name="Zdotaccent" unicode="&#x17b;" horiz-adv-x="1373" 
d="M138 0v176l759 1027v17h-738v223h1057v-176l-756 -1027v-17h775v-223h-1097zM687 1578q-62 0 -103 42t-41 102q1 62 41 104t102 41q62 1 104 -41q41 -42 41 -104t-41 -102q-41 -42 -103 -42z" />
    <glyph glyph-name="zdotaccent" unicode="&#x17c;" horiz-adv-x="1140" 
d="M127 0v155l581 722v17h-576v200h872v-169l-560 -708v-17h569v-200h-886zM565 1281q-65 0 -107 43t-42 106q0 64 42 106t106 42t107 -43t43 -105t-42 -106q-42 -43 -107 -43z" />
    <glyph glyph-name="Zcaron" unicode="&#x17d;" horiz-adv-x="1373" 
d="M798 1585h-222l-288 310h235l155 -174h18l155 174h235zM138 0v176l759 1027v17h-738v223h1057v-176l-756 -1027v-17h775v-223h-1097z" />
    <glyph glyph-name="zcaron" unicode="&#x17e;" horiz-adv-x="1140" 
d="M127 0v155l581 722v17h-576v200h872v-169l-560 -708v-17h569v-200h-886zM694 1243h-259l-277 348h239l159 -215h17l159 215h239z" />
    <glyph glyph-name="florin" unicode="&#x192;" horiz-adv-x="1383" 
d="M313 -24q-121 0 -217 24v218q87 -29 187 -29q195 0 223 187l47 306h-324v191h352l31 202q29 191 146 289t316 98q125 0 206 -17v-213q-70 19 -176 19q-210 0 -240 -201l-27 -177h356v-191h-385l-48 -320q-30 -200 -140 -293t-307 -93z" />
    <glyph glyph-name="Ohorn" unicode="&#x1a0;" horiz-adv-x="1642" 
d="M800 1250q-192 0 -306 -143t-113 -385t113 -386q112 -143 306 -143q194 -1 306 143t112 386t-112 385q-114 143 -306 143zM1482 722q0 -350 -183 -554t-499 -204t-500 204t-183 554t185 553q184 204 499 204q83 1 215 -23t201 -24q68 0 93 22t25 69v155h205v-219
q0 -91 -54 -143t-144 -52h-60v-15q88 -65 144 -211t56 -316z" />
    <glyph glyph-name="ohorn" unicode="&#x1a1;" horiz-adv-x="1327" 
d="M624 186q130 0 200 94q71 94 71 267t-71 267t-200 94q-128 0 -200 -94t-72 -267t71 -267t201 -94zM1150 547q0 -265 -140 -417t-386 -152t-386 152t-140 416q0 266 140 418t386 152q72 0 154 -16t138 -17q56 0 80 20t23 68v143h205v-211q0 -85 -46 -133t-121 -48h-50v-11
q63 -43 103 -143t40 -221z" />
    <glyph glyph-name="Uhorn" unicode="&#x1af;" horiz-adv-x="1717" 
d="M774 -36q-268 0 -430 146t-162 387v946h257v-922q1 -151 91 -239t245 -87q155 -1 245 87t90 239v922h265q84 0 84 80v175h205v-224q0 -98 -59 -152t-159 -53h-78v-772q0 -241 -162 -387q-164 -146 -432 -146z" />
    <glyph glyph-name="uhorn" unicode="&#x1b0;" horiz-adv-x="1438" 
d="M390 445q0 -249 217 -249q119 0 184 69t65 192v637h237q84 0 84 80v157h205v-206q0 -97 -59 -151t-159 -54h-60v-920h-239v174h-17q-84 -196 -327 -196q-181 0 -280 107t-99 298v711h248v-649z" />
    <glyph glyph-name="u01C4" unicode="&#x1c4;" horiz-adv-x="2894" 
d="M2319 1585h-222l-288 310h235l155 -174h18l155 174h235zM1659 0v176l759 1027v17h-738v223h1057v-176l-756 -1027v-17h775v-223h-1097zM436 1220v-997h249q216 0 333 130q117 131 117 369q-1 238 -119 368t-331 130h-249zM178 1443h541q323 1 501 -187t178 -532
t-178 -534t-501 -190h-541v1443z" />
    <glyph glyph-name="u01C5" unicode="&#x1c5;" horiz-adv-x="2660" 
d="M1648 0v155l581 722v17h-576v200h872v-169l-560 -708v-17h569v-200h-886zM2215 1243h-259l-277 348h239l159 -215h17l159 215h239zM436 1220v-997h249q216 0 333 130q117 131 117 369q-1 238 -119 368t-331 130h-249zM178 1443h541q323 1 501 -187t178 -532t-178 -534
t-501 -190h-541v1443z" />
    <glyph glyph-name="u01C6" unicode="&#x1c6;" horiz-adv-x="2452" 
d="M1439 0v155l581 722v17h-576v200h872v-169l-560 -708v-17h569v-200h-886zM2006 1243h-259l-277 348h239l159 -215h17l159 215h239zM625 901q-127 -1 -200 -95t-73 -260t72 -259q72 -94 201 -94q127 1 201 95t74 258t-74 260q-74 95 -201 95zM548 -18q-208 0 -329 152
t-121 413t122 413t328 152q112 0 200 -51t132 -141h17v597h248v-1517h-240v173h-17q-46 -91 -136 -141t-204 -50z" />
    <glyph glyph-name="u01C7" unicode="&#x1c7;" horiz-adv-x="2379" 
d="M1098 226v-226h-920v1443h258v-1217h662zM1274 393h252q1 -89 58 -143t154 -54t151 60t54 177v1010h258v-1012q0 -223 -123 -345q-122 -122 -336 -122t-341 117t-127 312z" />
    <glyph glyph-name="u01C8" unicode="&#x1c8;" horiz-adv-x="1762" 
d="M1098 226v-226h-920v1443h258v-1217h662zM1474 1272q-68 0 -111 38t-43 99t43 99t111 38t110 -38t42 -99t-42 -99t-110 -38zM1350 -37v1131h247v-1135q0 -333 -368 -333q-39 0 -60 3v195l32 -1q81 1 115 33t34 107z" />
    <glyph glyph-name="u01C9" unicode="&#x1c9;" horiz-adv-x="1135" 
d="M162 0v1517h248v-1517h-248zM846 1272q-68 0 -110 38q-43 38 -43 99t43 99q42 38 110 38t110 -38t43 -99q-1 -61 -43 -99t-110 -38zM723 -37v1131h247v-1135q0 -333 -368 -333q-39 0 -60 3v195l32 -1q82 1 116 33t33 107z" />
    <glyph glyph-name="u01CA" unicode="&#x1ca;" horiz-adv-x="2738" 
d="M427 0h-249v1443h224l708 -981h17v981h248v-1443h-223l-708 982h-17v-982zM1633 393h252q1 -89 58 -143t154 -54t151 60t54 177v1010h258v-1012q0 -223 -123 -345t-337 -122t-340 117q-127 117 -127 312z" />
    <glyph glyph-name="u01CB" unicode="&#x1cb;" horiz-adv-x="2121" 
d="M427 0h-249v1443h224l708 -981h17v981h248v-1443h-223l-708 982h-17v-982zM1832 1272q-68 0 -110 38q-43 38 -43 99t43 99q42 38 110 38t110 -38t43 -99q-1 -61 -43 -99t-110 -38zM1709 -37v1131h247v-1135q0 -333 -368 -333q-39 0 -60 3v195l32 -1q82 1 116 33t33 107z
" />
    <glyph glyph-name="u01CC" unicode="&#x1cc;" horiz-adv-x="1809" 
d="M1110 708v-708h-248v649q0 251 -221 251q-111 0 -176 -71t-65 -192v-637h-248v1094h239v-175h17q84 197 325 197q181 0 279 -106t98 -302zM1530 1272q-68 0 -110 38q-43 38 -43 99t43 99q42 38 110 38t110 -38t43 -99q-1 -61 -43 -99t-110 -38zM1407 -37v1131h247v-1135
q0 -333 -368 -333q-39 0 -60 3v195l32 -1q82 1 116 33t33 107z" />
    <glyph glyph-name="Acaron" unicode="&#x1cd;" horiz-adv-x="1456" 
d="M839 1585h-222l-288 310h235l155 -174h18l155 174h235zM714 1168l-198 -595h411l-196 595h-17zM1109 0l-122 369h-531l-124 -369h-261l512 1443h290l513 -1443h-277z" />
    <glyph glyph-name="acaron" unicode="&#x1ce;" horiz-adv-x="1179" 
d="M723 1243h-259l-277 348h239l159 -215h17l159 215h239zM582 914q-180 0 -215 -114h-234q15 144 141 230t328 86t316 -97t115 -272v-747h-239v150h-17q-45 -80 -131 -124t-193 -44q-160 0 -261 90t-101 238q-1 148 107 232t308 96l282 17v92q0 81 -53 124t-153 43z
M540 177q98 1 173 65t75 159v87l-247 -16q-204 -13 -204 -148q1 -68 53 -108t150 -39z" />
    <glyph glyph-name="Icaron" unicode="&#x1cf;" horiz-adv-x="614" 
d="M418 1585h-222l-288 310h235l155 -174h18l155 174h235zM436 0h-258v1443h258v-1443z" />
    <glyph glyph-name="icaron" unicode="&#x1d0;" horiz-adv-x="557" 
d="M155 0v1094h247v-1094h-247zM407 1243h-259l-277 348h239l159 -215h17l159 215h239z" />
    <glyph glyph-name="Ocaron" unicode="&#x1d1;" horiz-adv-x="1599" 
d="M800 1250q-192 0 -306 -143t-113 -385t113 -386q112 -143 306 -143q194 -1 306 143t112 386t-112 385q-114 143 -306 143zM800 1479q314 0 498 -204t184 -553q0 -350 -183 -554t-499 -204t-500 204t-183 554t185 553q184 204 498 204zM912 1585h-222l-288 310h235
l155 -174h18l155 174h235z" />
    <glyph glyph-name="ocaron" unicode="&#x1d2;" horiz-adv-x="1248" 
d="M624 -22q-246 0 -386 152t-140 416q0 266 141 418t385 152t386 -152q140 -152 140 -418t-140 -416q-140 -152 -386 -152zM624 186q130 0 200 94t71 266q0 172 -71 267q-70 95 -200 95t-201 -95t-71 -267t71 -266t201 -94zM753 1243h-259l-277 348h239l159 -215h17
l159 215h239z" />
    <glyph glyph-name="Ucaron" unicode="&#x1d3;" horiz-adv-x="1550" 
d="M439 1443v-922q0 -149 89 -237t247 -89q159 1 247 89t88 237v922h258v-946q0 -239 -161 -386t-432 -147t-432 147t-161 386v946h257zM886 1585h-222l-288 310h235l155 -174h18l155 174h235z" />
    <glyph glyph-name="ucaron" unicode="&#x1d4;" horiz-adv-x="1256" 
d="M1104 1094v-1094h-239v174h-17q-83 -196 -327 -196q-179 0 -279 106t-100 299v711h248v-649q0 -125 53 -187t169 -62t180 69t64 192v637h248zM752 1243h-259l-277 348h239l159 -215h17l159 215h239z" />
    <glyph glyph-name="Udieresismacron" unicode="&#x1d5;" horiz-adv-x="1550" 
d="M998 1578q-60 0 -101 40q-40 40 -40 98t40 98q41 40 101 40t100 -40t40 -98t-40 -98t-100 -40zM552 1578q-60 0 -100 40t-40 98t40 98t100 40t101 -40q40 -40 40 -98t-40 -98q-41 -40 -101 -40zM415 1973v154h720v-154h-720zM439 1443v-922q0 -149 89 -237t247 -89
q159 1 247 89t88 237v922h258v-946q0 -239 -161 -386t-432 -147t-432 147t-161 386v946h257z" />
    <glyph glyph-name="udieresismacron" unicode="&#x1d6;" horiz-adv-x="1256" 
d="M979 1657h-712v164h712v-164zM837 1243q-59 1 -97 39t-38 95t38 96t97 39q58 0 97 -39t39 -96t-39 -95t-97 -39zM409 1243q-58 1 -97 39t-39 95t39 96t97 39q59 0 97 -39t38 -96t-38 -95t-97 -39zM1104 1094v-1094h-239v174h-17q-83 -196 -327 -196q-179 0 -279 106
t-100 299v711h248v-649q0 -125 53 -187t169 -62t180 69t64 192v637h248z" />
    <glyph glyph-name="Udieresisacute" unicode="&#x1d7;" horiz-adv-x="1550" 
d="M439 1443v-922q0 -149 89 -237t247 -89q159 1 247 89t88 237v922h258v-946q0 -239 -161 -386t-432 -147t-432 147t-161 386v946h257zM997 1577q-61 1 -102 41t-41 100t41 100t102 41q61 -1 102 -41t41 -100t-41 -100t-102 -41zM552 1577q-61 1 -102 41t-41 100t41 100
t102 41q61 -1 102 -41t41 -100t-41 -100t-102 -41zM667 1914l189 235h268l-241 -235h-216z" />
    <glyph glyph-name="udieresisacute" unicode="&#x1d8;" horiz-adv-x="1256" 
d="M1104 1094v-1094h-239v174h-17q-83 -196 -327 -196q-179 0 -279 106t-100 299v711h248v-649q0 -125 53 -187t169 -62t180 69t64 192v637h248zM845 1246q-61 0 -102 40t-41 101t41 101t102 40t102 -40t41 -101t-41 -101t-102 -40zM400 1246q-61 0 -102 40t-41 101t41 101
t102 40t102 -40t41 -101t-41 -101t-102 -40zM506 1617l200 311h250l-236 -311h-214z" />
    <glyph glyph-name="Udieresiscaron" unicode="&#x1d9;" horiz-adv-x="1550" 
d="M439 1443v-922q0 -149 89 -237t247 -89q159 1 247 89t88 237v922h258v-946q0 -239 -161 -386t-432 -147t-432 147t-161 386v946h257zM897 1893h-244l-283 275h248l148 -154h18l148 154h248zM997 1568q-59 0 -99 38t-40 96t40 96t99 39q59 -1 99 -39t40 -96t-40 -96
t-99 -38zM553 1568q-59 0 -99 38t-40 96t40 96t99 39q59 -1 99 -39t40 -96t-40 -96t-99 -38z" />
    <glyph glyph-name="udieresiscaron" unicode="&#x1da;" horiz-adv-x="1256" 
d="M1104 1094v-1094h-239v174h-17q-83 -196 -327 -196q-179 0 -279 106t-100 299v711h248v-649q0 -125 53 -187t169 -62t180 69t64 192v637h248zM747 1605h-248l-275 337h233l157 -208h18l157 208h233zM837 1243q-59 1 -97 39t-38 95t38 96t97 39q58 0 97 -39t39 -96
t-39 -95t-97 -39zM409 1243q-58 1 -97 39t-39 95t39 96t97 39q59 0 97 -39t38 -96t-38 -95t-97 -39z" />
    <glyph glyph-name="Udieresisgrave" unicode="&#x1db;" horiz-adv-x="1550" 
d="M439 1443v-922q0 -149 89 -237t247 -89q159 1 247 89t88 237v922h258v-946q0 -239 -161 -386t-432 -147t-432 147t-161 386v946h257zM997 1577q-61 1 -102 41t-41 100t41 100t102 41q61 -1 102 -41t41 -100t-41 -100t-102 -41zM552 1577q-61 1 -102 41t-41 100t41 100
t102 41q61 -1 102 -41t41 -100t-41 -100t-102 -41zM896 1914h-217l-241 235h268z" />
    <glyph glyph-name="udieresisgrave" unicode="&#x1dc;" horiz-adv-x="1256" 
d="M1104 1094v-1094h-239v174h-17q-83 -196 -327 -196q-179 0 -279 106t-100 299v711h248v-649q0 -125 53 -187t169 -62t180 69t64 192v637h248zM845 1246q-61 0 -102 40t-41 101t41 101t102 40t102 -40t41 -101t-41 -101t-102 -40zM400 1246q-61 0 -102 40t-41 101t41 101
t102 40t102 -40t41 -101t-41 -101t-102 -40zM740 1617h-214l-236 311h250z" />
    <glyph glyph-name="Adieresismacron" unicode="&#x1de;" horiz-adv-x="1456" 
d="M950 1578q-60 0 -100 40t-40 98t40 98t100 40t101 -40q40 -40 40 -98t-40 -98q-41 -40 -101 -40zM506 1578q-60 0 -101 40q-40 40 -40 98t40 98q41 40 101 40t100 -40t40 -98t-40 -98t-100 -40zM368 1973v154h720v-154h-720zM714 1168l-198 -595h411l-196 595h-17z
M1109 0l-122 369h-531l-124 -369h-261l512 1443h290l513 -1443h-277z" />
    <glyph glyph-name="adieresismacron" unicode="&#x1df;" horiz-adv-x="1179" 
d="M950 1657h-712v164h712v-164zM808 1243q-58 1 -96 39t-39 95q1 57 39 96t96 39t97 -39t39 -96t-39 -95t-97 -39zM380 1243q-58 1 -97 39t-39 95t39 96t97 39t96 -39t39 -96q-1 -57 -39 -95t-96 -39zM582 914q-180 0 -215 -114h-234q15 144 141 230t328 86t316 -97
t115 -272v-747h-239v150h-17q-45 -80 -131 -124t-193 -44q-160 0 -261 90t-101 238q-1 148 107 232t308 96l282 17v92q0 81 -53 124t-153 43zM540 177q98 1 173 65t75 159v87l-247 -16q-204 -13 -204 -148q1 -68 53 -108t150 -39z" />
    <glyph glyph-name="Adotmacron" unicode="&#x1e0;" horiz-adv-x="1456" 
d="M1088 1973h-720v154h720v-154zM728 1576q-61 0 -102 40t-41 98t41 98t102 40t102 -40t41 -98t-41 -98t-102 -40zM714 1168l-198 -595h411l-196 595h-17zM1109 0l-122 369h-531l-124 -369h-261l512 1443h290l513 -1443h-277z" />
    <glyph glyph-name="adotmacron" unicode="&#x1e1;" horiz-adv-x="1179" 
d="M950 1657h-712v164h712v-164zM594 1243q-60 -1 -100 39t-39 100q-1 60 39 98q40 40 100 40t100 -40t39 -98q1 -60 -39 -100t-100 -39zM582 914q-180 0 -215 -114h-234q15 144 141 230t328 86t316 -97t115 -272v-747h-239v150h-17q-45 -80 -131 -124t-193 -44
q-160 0 -261 90t-101 238q-1 148 107 232t308 96l282 17v92q0 81 -53 124t-153 43zM540 177q98 1 173 65t75 159v87l-247 -16q-204 -13 -204 -148q1 -68 53 -108t150 -39z" />
    <glyph glyph-name="AEmacron" unicode="&#x1e2;" horiz-adv-x="2025" 
d="M1852 1628h-720v164h720v-164zM989 0v398h-488l-174 -398h-256l615 1443h1197v-223h-653v-389h616v-211h-616v-397h653v-223h-894zM989 1235h-136l-272 -632h408v632z" />
    <glyph glyph-name="aemacron" unicode="&#x1e3;" horiz-adv-x="1882" 
d="M1323 1305h-712v164h712v-164zM544 175q100 1 172 67t72 160v86l-247 -16q-204 -13 -204 -150q-1 -68 53 -108t154 -39zM1283 919q-109 0 -179 -71t-78 -190h507q-5 116 -73 188t-177 73zM898 188q-126 -210 -428 -210q-158 0 -269 92q-110 92 -110 240q-1 148 107 232
t308 96l282 17v82q0 87 -54 132t-152 45q-180 0 -215 -114h-234q15 140 137 228t304 88q251 0 354 -168h17q54 76 149 122t207 46q223 0 351 -146t128 -396v-84h-754v-23q4 -131 80 -211t198 -80q170 0 231 125h234q-35 -151 -159 -237t-305 -86q-129 0 -235 58t-155 152
h-17z" />
    <glyph glyph-name="Gcaron" unicode="&#x1e6;" horiz-adv-x="1547" 
d="M1426 578q0 -282 -171 -448t-473 -166t-483 204q-182 204 -182 552t183 554t491 205q250 0 419 -132t204 -353h-257q-39 123 -133 189t-233 66q-189 0 -299 -141q-110 -142 -111 -386q1 -244 113 -386t291 -142t282 92t106 241l1 30h-347v202h599v-181zM902 1586h-222
l-288 310h235l155 -174h18l155 174h235z" />
    <glyph glyph-name="gcaron" unicode="&#x1e7;" horiz-adv-x="1295" 
d="M637 -416q-225 0 -355 85t-145 227h249q12 -57 76 -90t177 -33q114 0 185 57t71 160v207h-17q-48 -89 -134 -135t-200 -46q-206 0 -327 148t-121 397q0 251 122 401t330 150q112 0 203 -52t136 -141h17v175h239v-1098q0 -190 -141 -301t-365 -111zM899 559q0 157 -74 249
q-75 92 -203 93q-128 0 -200 -92t-71 -250q0 -157 71 -249t200 -92t203 92t74 249zM754 1243h-259l-277 348h239l159 -215h17l159 215h239z" />
    <glyph glyph-name="Kcaron" unicode="&#x1e8;" horiz-adv-x="1415" 
d="M795 1585h-222l-288 310h235l155 -174h18l155 174h235zM436 0h-258v1443h258v-664h17l569 664h296l-545 -629l588 -814h-315l-456 637l-154 -177v-460z" />
    <glyph glyph-name="kcaron" unicode="&#x1e9;" horiz-adv-x="1188" 
d="M397 1659h-222l-288 310h235l155 -174h18l155 174h235zM410 0h-248v1517h248v-869h17l404 446h288l-436 -469l466 -625h-300l-351 469l-88 -88v-381z" />
    <glyph glyph-name="Oogonek" unicode="&#x1ea;" horiz-adv-x="1599" 
d="M800 1250q-192 0 -306 -143t-113 -385q-1 -242 113 -386q114 -143 306 -143q192 -1 305 143t113 386t-112 385q-114 143 -306 143zM117 721q1 350 185 554t498 204t498 -204t184 -553q0 -220 -82 -388t-257 -312q-140 -114 -140 -209q-1 -44 31 -72t81 -28t72 7v-154
q-53 -20 -147 -20t-168 60t-74 138q0 147 131 226v18q-36 -24 -128 -24q-317 0 -501 204t-183 553z" />
    <glyph glyph-name="oogonek" unicode="&#x1eb;" horiz-adv-x="1248" 
d="M564 -237q0 61 35 116t97 92v17q-26 -10 -72 -10q-246 0 -386 152t-140 416q0 266 140 418t386 152t386 -152t140 -417q0 -320 -243 -526q-138 -120 -138 -208q1 -47 33 -73t78 -27q46 0 73 7v-154q-51 -20 -126 -20q-119 0 -191 62t-72 155zM624 186q130 0 200 94
q71 94 71 267t-71 267t-200 94q-128 0 -200 -94t-72 -267t71 -267t201 -94z" />
    <glyph glyph-name="Oogonekmacron" unicode="&#x1ec;" horiz-adv-x="1599" 
d="M1161 1628h-720v164h720v-164zM800 1250q-192 0 -306 -143t-113 -385q-1 -242 113 -386q114 -143 306 -143q192 -1 305 143t113 386t-112 385q-114 143 -306 143zM117 721q1 350 185 554t498 204t498 -204t184 -553q0 -220 -82 -388t-257 -312q-140 -114 -140 -209
q-1 -44 31 -72t81 -28t72 7v-154q-53 -20 -147 -20t-168 60t-74 138q0 147 131 226v18q-36 -24 -128 -24q-317 0 -501 204t-183 553z" />
    <glyph glyph-name="oogonekmacron" unicode="&#x1ed;" horiz-adv-x="1248" 
d="M980 1305h-712v164h712v-164zM564 -237q0 61 35 116t97 92v17q-26 -10 -72 -10q-246 0 -386 152t-140 416q0 266 140 418t386 152t386 -152t140 -417q0 -320 -243 -526q-138 -120 -138 -208q1 -47 33 -73t78 -27q46 0 73 7v-154q-51 -20 -126 -20q-119 0 -191 62t-72 155
zM624 186q130 0 200 94q71 94 71 267t-71 267t-200 94q-128 0 -200 -94t-72 -267t71 -267t201 -94z" />
    <glyph glyph-name="u01F1" unicode="&#x1f1;" horiz-adv-x="2894" 
d="M436 1220v-997h249q216 0 333 130q117 131 117 369q-1 238 -119 368t-331 130h-249zM178 1443h541q323 1 501 -187t178 -532t-178 -534t-501 -190h-541v1443zM1659 0v176l759 1027v17h-738v223h1057v-176l-756 -1027v-17h775v-223h-1097z" />
    <glyph glyph-name="u01F2" unicode="&#x1f2;" horiz-adv-x="2660" 
d="M436 1220v-997h249q216 0 333 130q117 131 117 369q-1 238 -119 368t-331 130h-249zM178 1443h541q323 1 501 -187t178 -532t-178 -534t-501 -190h-541v1443zM1648 0v155l581 722v17h-576v200h872v-169l-560 -708v-17h569v-200h-886z" />
    <glyph glyph-name="u01F3" unicode="&#x1f3;" horiz-adv-x="2452" 
d="M625 901q-127 -1 -200 -95t-73 -260t72 -259q72 -94 201 -94q127 1 201 95t74 258t-74 260q-74 95 -201 95zM548 -18q-208 0 -329 152t-121 413t122 413t328 152q112 0 200 -51t132 -141h17v597h248v-1517h-240v173h-17q-46 -91 -136 -141t-204 -50zM1439 0v155l581 722
v17h-576v200h872v-169l-560 -708v-17h569v-200h-886z" />
    <glyph glyph-name="Gacute" unicode="&#x1f4;" horiz-adv-x="1547" 
d="M1426 578q0 -282 -171 -448t-473 -166t-483 204q-182 204 -182 552t183 554t491 205q250 0 419 -132t204 -353h-257q-39 123 -133 189t-233 66q-189 0 -299 -141q-110 -142 -111 -386q1 -244 113 -386t291 -142t282 92t106 241l1 30h-347v202h599v-181zM663 1586l288 310
h283l-321 -310h-250z" />
    <glyph glyph-name="gacute" unicode="&#x1f5;" horiz-adv-x="1295" 
d="M637 -416q-225 0 -355 85t-145 227h249q12 -57 76 -90t177 -33q114 0 185 57t71 160v207h-17q-48 -89 -134 -135t-200 -46q-206 0 -327 148t-121 397q0 251 122 401t330 150q112 0 203 -52t136 -141h17v175h239v-1098q0 -190 -141 -301t-365 -111zM899 559q0 157 -74 249
q-75 92 -203 93q-128 0 -200 -92t-71 -250q0 -157 71 -249t200 -92t203 92t74 249zM485 1275l249 347h277l-284 -347h-242z" />
    <glyph glyph-name="Ngrave" unicode="&#x1f8;" horiz-adv-x="1554" 
d="M427 0h-249v1443h224l708 -981h17v981h248v-1443h-223l-708 982h-17v-982zM617 1895l288 -310h-250l-321 310h283z" />
    <glyph glyph-name="ngrave" unicode="&#x1f9;" horiz-adv-x="1252" 
d="M1110 708v-708h-248v649q0 251 -221 251q-111 0 -176 -71t-65 -192v-637h-248v1094h239v-175h17q84 197 325 197q181 0 279 -106t98 -302zM782 1275h-242l-284 347h277z" />
    <glyph glyph-name="Aringacute" unicode="&#x1fa;" horiz-adv-x="1456" 
d="M748 2200h236l-150 -188h-209zM728 1532q-89 0 -150 60t-61 146q0 87 61 146t150 59q89 -1 150 -59t61 -146t-61 -146q-61 -60 -150 -60zM660 1762q-10 -28 3 -54t42 -37t55 1t36 40t-3 54t-42 37t-55 -1t-36 -40zM714 1168l-198 -595h411l-196 595h-17zM1109 0l-122 369
h-531l-124 -369h-261l512 1443h290l513 -1443h-277z" />
    <glyph glyph-name="aringacute" unicode="&#x1fb;" horiz-adv-x="1179" 
d="M496 1718l162 233h232l-197 -233h-197zM499 1422q-1 -40 27 -67t68 -27t68 27t27 67q1 40 -27 68t-68 28t-68 -28t-27 -68zM594 1210q-92 0 -155 61t-63 152t63 153t155 61q92 1 155 -61t63 -153t-63 -152t-155 -61zM582 914q-180 0 -215 -114h-234q15 144 141 230
t328 86t316 -97t115 -272v-747h-239v150h-17q-45 -80 -131 -124t-193 -44q-160 0 -261 90t-101 238q-1 148 107 232t308 96l282 17v92q0 81 -53 124t-153 43zM540 177q98 1 173 65t75 159v87l-247 -16q-204 -13 -204 -148q1 -68 53 -108t150 -39z" />
    <glyph glyph-name="AEacute" unicode="&#x1fc;" horiz-adv-x="2025" 
d="M989 0v398h-488l-174 -398h-256l615 1443h1197v-223h-653v-389h616v-211h-616v-397h653v-223h-894zM989 1235h-136l-272 -632h408v632zM1364 1585l288 310h283l-321 -310h-250z" />
    <glyph glyph-name="aeacute" unicode="&#x1fd;" horiz-adv-x="1882" 
d="M544 175q100 1 172 67t72 160v86l-247 -16q-204 -13 -204 -150q-1 -68 53 -108t154 -39zM1283 919q-109 0 -179 -71t-78 -190h507q-5 116 -73 188t-177 73zM898 188q-126 -210 -428 -210q-158 0 -269 92q-110 92 -110 240q-1 148 107 232t308 96l282 17v82q0 87 -54 132
t-152 45q-180 0 -215 -114h-234q15 140 137 228t304 88q251 0 354 -168h17q54 76 149 122t207 46q223 0 351 -146t128 -396v-84h-754v-23q4 -131 80 -211t198 -80q170 0 231 125h234q-35 -151 -159 -237t-305 -86q-129 0 -235 58t-155 152h-17zM827 1275l249 347h277
l-284 -347h-242z" />
    <glyph glyph-name="Oslashacute" unicode="&#x1fe;" horiz-adv-x="1577" 
d="M1482 737q0 -365 -183 -569t-498 -204q-231 0 -394 111l-95 -136l-101 70l102 145q-196 205 -196 561q1 356 185 560t499 204q216 0 372 -98l84 119l104 -62l-92 -132q213 -205 213 -569zM801 1250q-193 0 -307 -143t-113 -369q0 -226 86 -364l565 805q-99 71 -231 71z
M801 193q193 -1 305 143t112 378t-100 377l-568 -812q101 -86 251 -86zM1246 1895l-321 -310h-250l288 310h283z" />
    <glyph glyph-name="oslashacute" unicode="&#x1ff;" horiz-adv-x="1248" 
d="M1150 558q0 -278 -140 -428q-140 -152 -386 -152q-146 0 -256 55l-60 -93l-103 65l62 96q-169 152 -169 431q0 280 141 432t385 152q147 0 259 -57l61 94l104 -61l-65 -101q167 -155 167 -433zM624 908q-130 0 -201 -95t-71 -251t51 -250l359 559q-59 37 -138 37z
M624 186q130 0 200 94t71 252q0 156 -49 246l-358 -557q58 -35 136 -35zM994 1622l-284 -347h-242l249 347h277z" />
    <glyph glyph-name="Adblgrave" unicode="&#x200;" horiz-adv-x="1456" 
d="M1067 1585h-229l-298 310h254zM639 1585h-230l-297 310h254zM714 1168l-198 -595h411l-196 595h-17zM1109 0l-122 369h-531l-124 -369h-261l512 1443h290l513 -1443h-277z" />
    <glyph glyph-name="adblgrave" unicode="&#x201;" horiz-adv-x="1179" 
d="M933 1275h-212l-256 347h241zM510 1275h-212l-256 347h241zM582 914q-180 0 -215 -114h-234q15 144 141 230t328 86t316 -97t115 -272v-747h-239v150h-17q-45 -80 -131 -124t-193 -44q-160 0 -261 90t-101 238q-1 148 107 232t308 96l282 17v92q0 81 -53 124t-153 43z
M540 177q98 1 173 65t75 159v87l-247 -16q-204 -13 -204 -148q1 -68 53 -108t150 -39z" />
    <glyph glyph-name="Ainvertedbreve" unicode="&#x202;" horiz-adv-x="1456" 
d="M341 1578q1 146 105 234t282 88t282 -88t105 -234h-188q-1 77 -55 122t-144 45t-144 -45t-55 -122h-188zM714 1168l-198 -595h411l-196 595h-17zM1109 0l-122 369h-531l-124 -369h-261l512 1443h290l513 -1443h-277z" />
    <glyph glyph-name="ainvertedbreve" unicode="&#x203;" horiz-adv-x="1179" 
d="M207 1243q1 152 105 247t282 95t282 -95t105 -247h-188q-3 84 -55 135t-144 51t-144 -51t-55 -135h-188zM582 914q-180 0 -215 -114h-234q15 144 141 230t328 86t316 -97t115 -272v-747h-239v150h-17q-45 -80 -131 -124t-193 -44q-160 0 -261 90t-101 238q-1 148 107 232
t308 96l282 17v92q0 81 -53 124t-153 43zM540 177q98 1 173 65t75 159v87l-247 -16q-204 -13 -204 -148q1 -68 53 -108t150 -39z" />
    <glyph glyph-name="Edblgrave" unicode="&#x204;" horiz-adv-x="1254" 
d="M1112 223v-223h-934v1443h934v-223h-676v-383h639v-210h-639v-404h676zM984 1585h-229l-298 310h254zM556 1585h-230l-297 310h254z" />
    <glyph glyph-name="edblgrave" unicode="&#x205;" horiz-adv-x="1208" 
d="M951 1275h-212l-256 347h241zM528 1275h-212l-256 347h241zM614 -22q-240 0 -378 150t-138 415t138 419t374 154t368 -146t133 -406v-80h-764v-13q5 -137 79 -217t195 -79q188 0 244 126h235q-34 -151 -164 -237t-322 -86zM612 919q-112 0 -184 -73t-80 -193h515
q-4 122 -72 194q-67 72 -179 72z" />
    <glyph glyph-name="Einvertedbreve" unicode="&#x206;" horiz-adv-x="1254" 
d="M258 1578q0 146 104 234t283 88t283 -88t104 -234h-188q-2 77 -56 122t-143 45t-143 -45t-56 -122h-188zM1112 223v-223h-934v1443h934v-223h-676v-383h639v-210h-639v-404h676z" />
    <glyph glyph-name="einvertedbreve" unicode="&#x207;" horiz-adv-x="1208" 
d="M225 1243q1 152 105 247t282 95t282 -95t105 -247h-188q-3 84 -55 135t-144 51t-144 -51t-55 -135h-188zM614 -22q-240 0 -378 150t-138 415t138 419t374 154t368 -146t133 -406v-80h-764v-13q5 -137 79 -217t195 -79q188 0 244 126h235q-34 -151 -164 -237t-322 -86z
M612 919q-112 0 -184 -73t-80 -193h515q-4 122 -72 194q-67 72 -179 72z" />
    <glyph glyph-name="Idblgrave" unicode="&#x208;" horiz-adv-x="614" 
d="M646 1585h-229l-298 310h254zM218 1585h-230l-297 310h254zM436 0h-258v1443h258v-1443z" />
    <glyph glyph-name="idblgrave" unicode="&#x209;" horiz-adv-x="557" 
d="M617 1275h-212l-256 347h241zM194 1275h-212l-256 347h241zM155 0v1094h247v-1094h-247z" />
    <glyph glyph-name="Iinvertedbreve" unicode="&#x20a;" horiz-adv-x="614" 
d="M-80 1578q0 146 104 234t283 88t283 -88t104 -234h-188q-2 77 -56 122t-143 45t-143 -45t-56 -122h-188zM436 0h-258v1443h258v-1443z" />
    <glyph glyph-name="iinvertedbreve" unicode="&#x20b;" horiz-adv-x="557" 
d="M-109 1243q1 152 105 247t282 95t282 -95t105 -247h-188q-3 84 -55 135t-144 51t-144 -51t-55 -135h-188zM155 0v1094h247v-1094h-247z" />
    <glyph glyph-name="Odblgrave" unicode="&#x20c;" horiz-adv-x="1599" 
d="M800 1250q-192 0 -306 -143t-113 -385t113 -386q112 -143 306 -143q194 -1 306 143t112 386t-112 385q-114 143 -306 143zM800 1479q314 0 498 -204t184 -553q0 -350 -183 -554t-499 -204t-500 204t-183 554t185 553q184 204 498 204zM1140 1585h-229l-298 310h254z
M712 1585h-230l-297 310h254z" />
    <glyph glyph-name="odblgrave" unicode="&#x20d;" horiz-adv-x="1248" 
d="M963 1275h-212l-256 347h241zM540 1275h-212l-256 347h241zM624 -22q-246 0 -386 152t-140 416q0 266 141 418t385 152t386 -152q140 -152 140 -418t-140 -416q-140 -152 -386 -152zM624 186q130 0 200 94t71 266q0 172 -71 267q-70 95 -200 95t-201 -95t-71 -267
t71 -266t201 -94z" />
    <glyph glyph-name="Oinvertedbreve" unicode="&#x20e;" horiz-adv-x="1599" 
d="M800 1250q-192 0 -306 -143t-113 -385t113 -386q112 -143 306 -143q194 -1 306 143t112 386t-112 385q-114 143 -306 143zM800 1479q314 0 498 -204t184 -553q0 -350 -183 -554t-499 -204t-500 204t-183 554t185 553q184 204 498 204zM414 1578q0 146 104 234t283 88
t283 -88t104 -234h-188q-2 77 -56 122t-143 45t-143 -45t-56 -122h-188z" />
    <glyph glyph-name="oinvertedbreve" unicode="&#x20f;" horiz-adv-x="1248" 
d="M237 1243q1 152 105 247t282 95t282 -95t105 -247h-188q-3 84 -55 135t-144 51t-144 -51t-55 -135h-188zM624 -22q-246 0 -386 152t-140 416q0 266 141 418t385 152t386 -152q140 -152 140 -418t-140 -416q-140 -152 -386 -152zM624 186q130 0 200 94t71 266
q0 172 -71 267q-70 95 -200 95t-201 -95t-71 -267t71 -266t201 -94z" />
    <glyph glyph-name="Rdblgrave" unicode="&#x210;" horiz-adv-x="1391" 
d="M436 541v-541h-258v1443h586q227 1 360 -121t133 -330q0 -144 -72 -254t-200 -157l315 -581h-295l-283 541h-286zM436 1229v-483h298q122 0 190 63t68 177t-70 178t-194 65h-292zM975 1585h-229l-298 310h254zM547 1585h-230l-297 310h254z" />
    <glyph glyph-name="rdblgrave" unicode="&#x211;" horiz-adv-x="838" 
d="M762 1275h-212l-256 347h241zM339 1275h-212l-256 347h241zM152 0v1094h239v-170h17q24 82 104 135t166 53t122 -11v-230q-38 14 -143 14q-105 1 -181 -69t-76 -184v-632h-248z" />
    <glyph glyph-name="Rinvertedbreve" unicode="&#x212;" horiz-adv-x="1391" 
d="M249 1578q1 146 105 234t282 88t282 -88t105 -234h-188q-1 77 -55 122t-144 45t-144 -45t-55 -122h-188zM436 541v-541h-258v1443h586q227 1 360 -121t133 -330q0 -144 -72 -254t-200 -157l315 -581h-295l-283 541h-286zM436 1229v-483h298q122 0 190 63t68 177t-70 178
t-194 65h-292z" />
    <glyph glyph-name="rinvertedbreve" unicode="&#x213;" horiz-adv-x="838" 
d="M36 1243q0 152 104 247t283 95t283 -95t104 -247h-188q-2 84 -54 135t-145 51t-145 -51t-54 -135h-188zM152 0v1094h239v-170h17q24 82 104 135t166 53t122 -11v-230q-38 14 -143 14q-105 1 -181 -69t-76 -184v-632h-248z" />
    <glyph glyph-name="Udblgrave" unicode="&#x214;" horiz-adv-x="1550" 
d="M439 1443v-922q0 -149 89 -237t247 -89q159 1 247 89t88 237v922h258v-946q0 -239 -161 -386t-432 -147t-432 147t-161 386v946h257zM1114 1585h-229l-298 310h254zM686 1585h-230l-297 310h254z" />
    <glyph glyph-name="udblgrave" unicode="&#x215;" horiz-adv-x="1256" 
d="M962 1275h-212l-256 347h241zM539 1275h-212l-256 347h241zM1104 1094v-1094h-239v174h-17q-83 -196 -327 -196q-179 0 -279 106t-100 299v711h248v-649q0 -125 53 -187t169 -62t180 69t64 192v637h248z" />
    <glyph glyph-name="Uinvertedbreve" unicode="&#x216;" horiz-adv-x="1550" 
d="M388 1578q0 146 104 234t283 88t283 -88t104 -234h-188q-2 77 -56 122t-143 45t-143 -45t-56 -122h-188zM439 1443v-922q0 -149 89 -237t247 -89q159 1 247 89t88 237v922h258v-946q0 -239 -161 -386t-432 -147t-432 147t-161 386v946h257z" />
    <glyph glyph-name="uinvertedbreve" unicode="&#x217;" horiz-adv-x="1256" 
d="M236 1243q0 152 104 247t283 95t283 -95t104 -247h-188q-2 84 -54 135t-145 51t-145 -51t-54 -135h-188zM1104 1094v-1094h-239v174h-17q-83 -196 -327 -196q-179 0 -279 106t-100 299v711h248v-649q0 -125 53 -187t169 -62t180 69t64 192v637h248z" />
    <glyph glyph-name="Scommaaccent" unicode="&#x218;" horiz-adv-x="1354" 
d="M672 -512h-225l121 364h253zM686 180q132 0 216 58q82 58 82 144q0 84 -62 133t-202 81l-187 43q-197 43 -291 143t-94 261q0 197 148 317t382 119q234 0 383 -118t158 -304h-247q-13 95 -91 151t-200 56q-121 0 -197 -56t-76 -138t59 -128t193 -76l166 -38
q220 -49 318 -146t98 -262q0 -212 -152 -334t-408 -122t-408 116t-162 312h252q12 -96 101 -154t221 -58z" />
    <glyph glyph-name="scommaaccent" unicode="&#x219;" horiz-adv-x="1128" 
d="M560 -512h-225l121 364h253zM781 302q0 91 -151 124l-194 45q-158 35 -234 111t-75 212q0 136 122 228q123 94 317 94t310 -82t130 -232h-233q-13 58 -67 92t-140 34t-142 -37t-56 -89t40 -83q40 -30 122 -49l193 -44q158 -36 232 -107t74 -191q0 -158 -130 -254
q-129 -96 -335 -96t-328 84t-137 233h245q37 -129 225 -129q94 0 153 38t59 98z" />
    <glyph glyph-name="Tcommaaccent" unicode="&#x21a;" horiz-adv-x="1332" 
d="M795 0h-258v1220h-444v223h1147v-223h-445v-1220zM661 -512h-225l121 364h253z" />
    <glyph glyph-name="tcommaaccent" unicode="&#x21b;" horiz-adv-x="808" 
d="M231 1362h247v-275h234v-198h-234v-537q0 -80 36 -118t114 -38q34 0 84 5v-194q-62 -12 -130 -12q-188 0 -270 69t-81 228v597h-173v198h173v275zM456 -512h-225l121 364h253z" />
    <glyph glyph-name="Hcaron" unicode="&#x21e;" horiz-adv-x="1573" 
d="M898 1585h-222l-288 310h235l155 -174h18l155 174h235zM1395 0h-257v623h-702v-623h-258v1443h258v-597h702v597h257v-1443z" />
    <glyph glyph-name="hcaron" unicode="&#x21f;" horiz-adv-x="1274" 
d="M395 1659h-222l-288 310h235l155 -174h18l155 174h235zM884 647q0 251 -220 251q-120 0 -187 -72t-67 -191v-635h-248v1517h244v-600h18q39 93 125 145t207 52q176 0 276 -107t100 -301v-706h-248v647z" />
    <glyph glyph-name="Adotaccent" unicode="&#x226;" horiz-adv-x="1456" 
d="M728 1578q-62 0 -103 42t-41 102q0 62 40 104t104 41q62 1 103 -41t41 -104t-41 -102q-41 -42 -103 -42zM714 1168l-198 -595h411l-196 595h-17zM1109 0l-122 369h-531l-124 -369h-261l512 1443h290l513 -1443h-277z" />
    <glyph glyph-name="adotaccent" unicode="&#x227;" horiz-adv-x="1179" 
d="M594 1281q-64 0 -106 43t-43 106q1 64 43 106t106 42t106 -43t43 -105q-1 -62 -43 -106q-42 -43 -106 -43zM582 914q-180 0 -215 -114h-234q15 144 141 230t328 86t316 -97t115 -272v-747h-239v150h-17q-45 -80 -131 -124t-193 -44q-160 0 -261 90t-101 238
q-1 148 107 232t308 96l282 17v92q0 81 -53 124t-153 43zM540 177q98 1 173 65t75 159v87l-247 -16q-204 -13 -204 -148q1 -68 53 -108t150 -39z" />
    <glyph glyph-name="Ecedilla" unicode="&#x228;" horiz-adv-x="1254" 
d="M689 -123q203 -9 203 -179q0 -86 -68 -138q-68 -54 -174 -54t-163 18v124q44 -14 118 -14q114 0 114 64q0 32 -32 46t-105 14h-59v104l56 138h-401v1443h934v-223h-676v-383h639v-210h-639v-404h676v-223h-374z" />
    <glyph glyph-name="ecedilla" unicode="&#x229;" horiz-adv-x="1208" 
d="M659 -123q203 -9 203 -179q0 -86 -68 -138q-68 -54 -174 -54t-163 18v124q44 -14 118 -14q114 0 114 64q0 32 -32 46t-105 14h-59v104l49 120q-210 22 -327 170t-117 402t138 408t374 154t368 -146t133 -406v-80h-764v-13q5 -137 79 -217t195 -79q188 0 244 126h235
q-32 -131 -136 -215t-262 -103zM612 919q-112 0 -184 -73t-80 -193h515q-4 122 -72 194q-67 72 -179 72z" />
    <glyph glyph-name="Odieresismacron" unicode="&#x22a;" horiz-adv-x="1599" 
d="M1024 1578q-60 0 -101 40q-40 40 -40 98t40 98q41 40 101 40t100 -40t40 -98t-40 -98t-100 -40zM578 1578q-60 0 -100 40t-40 98t40 98t100 40t101 -40q40 -40 40 -98t-40 -98q-41 -40 -101 -40zM441 1973v154h720v-154h-720zM800 1250q-192 0 -306 -143t-113 -385
t113 -386q112 -143 306 -143q194 -1 306 143t112 386t-112 385q-114 143 -306 143zM800 1479q314 0 498 -204t184 -553q0 -350 -183 -554t-499 -204t-500 204t-183 554t185 553q184 204 498 204z" />
    <glyph glyph-name="odieresismacron" unicode="&#x22b;" horiz-adv-x="1248" 
d="M624 -22q-246 0 -386 152t-140 416q0 266 141 418t385 152t386 -152q140 -152 140 -418t-140 -416q-140 -152 -386 -152zM624 186q130 0 200 94t71 266q0 172 -71 267q-70 95 -200 95t-201 -95t-71 -267t71 -266t201 -94zM980 1657h-712v164h712v-164zM838 1243
q-58 1 -96 39t-39 95q1 57 39 96t96 39t97 -39t39 -96t-39 -95t-97 -39zM410 1243q-58 1 -97 39t-39 95t39 96t97 39t96 -39t39 -96q-1 -57 -39 -95t-96 -39z" />
    <glyph glyph-name="Otildemacron" unicode="&#x22c;" horiz-adv-x="1599" 
d="M800 1250q-192 0 -306 -143t-113 -385t113 -386q112 -143 306 -143q194 -1 306 143t112 386t-112 385q-114 143 -306 143zM800 1479q314 0 498 -204t184 -553q0 -350 -183 -554t-499 -204t-500 204t-183 554t185 553q184 204 498 204zM1189 1844q0 -118 -67 -192
t-163 -74q-97 0 -151 44q-24 18 -58 48q-35 31 -82 31q-83 0 -89 -110h-166q1 123 67 195t162 73q96 0 152 -43q24 -18 57 -49q34 -31 83 -31q81 0 89 108h166zM1161 1967h-720v160h720v-160z" />
    <glyph glyph-name="otildemacron" unicode="&#x22d;" horiz-adv-x="1248" 
d="M624 -22q-246 0 -386 152t-140 416q0 266 141 418t385 152t386 -152q140 -152 140 -418t-140 -416q-140 -152 -386 -152zM624 186q130 0 200 94t71 266q0 172 -71 267q-70 95 -200 95t-201 -95t-71 -267t71 -266t201 -94zM980 1660h-712v164h712v-164zM222 1246
q0 142 68 226t183 84q82 0 143 -52q26 -22 63 -59t74 -37q91 0 92 145h170q1 -141 -67 -225t-183 -84q-51 0 -97 24t-72 50q-70 75 -111 75q-91 0 -92 -147h-171z" />
    <glyph glyph-name="Odotaccent" unicode="&#x22e;" horiz-adv-x="1599" 
d="M800 1250q-192 0 -306 -143t-113 -385t113 -386q112 -143 306 -143q194 -1 306 143t112 386t-112 385q-114 143 -306 143zM800 1479q314 0 498 -204t184 -553q0 -350 -183 -554t-499 -204t-500 204t-183 554t185 553q184 204 498 204zM801 1578q-62 0 -103 42t-41 102
q1 62 41 104t102 41q62 1 104 -41q41 -42 41 -104t-41 -102q-41 -42 -103 -42z" />
    <glyph glyph-name="odotaccent" unicode="&#x22f;" horiz-adv-x="1248" 
d="M624 -22q-246 0 -386 152t-140 416q0 266 141 418t385 152t386 -152q140 -152 140 -418t-140 -416q-140 -152 -386 -152zM624 186q130 0 200 94t71 266q0 172 -71 267q-70 95 -200 95t-201 -95t-71 -267t71 -266t201 -94zM624 1281q-64 0 -106 43t-43 106q1 64 43 106
t106 42t106 -43t43 -105q-1 -62 -43 -106q-42 -43 -106 -43z" />
    <glyph glyph-name="Odotaccentmacron" unicode="&#x230;" horiz-adv-x="1599" 
d="M800 1250q-192 0 -306 -143t-113 -385t113 -386q112 -143 306 -143q194 -1 306 143t112 386t-112 385q-114 143 -306 143zM800 1479q314 0 498 -204t184 -553q0 -350 -183 -554t-499 -204t-500 204t-183 554t185 553q184 204 498 204zM1161 1973h-720v154h720v-154z
M801 1576q-61 0 -102 40t-41 98t41 98t102 40t102 -40t41 -98t-41 -98t-102 -40z" />
    <glyph glyph-name="odotaccentmacron" unicode="&#x231;" horiz-adv-x="1248" 
d="M980 1657h-712v164h712v-164zM624 1243q-60 -1 -100 39t-39 100q-1 60 39 98q40 40 100 40t100 -40t39 -98q1 -60 -39 -100t-100 -39zM624 -22q-246 0 -386 152t-140 416q0 266 141 418t385 152t386 -152q140 -152 140 -418t-140 -416q-140 -152 -386 -152zM624 186
q130 0 200 94t71 266q0 172 -71 267q-70 95 -200 95t-201 -95t-71 -267t71 -266t201 -94z" />
    <glyph glyph-name="Ymacron" unicode="&#x232;" horiz-adv-x="1412" 
d="M1066 1628h-720v164h720v-164zM835 0h-258v564l-506 879h283l344 -617h17l343 617h283l-506 -879v-564z" />
    <glyph glyph-name="ymacron" unicode="&#x233;" horiz-adv-x="1183" 
d="M948 1305h-712v164h712v-164zM272 -397q-77 0 -98 4v203q19 -4 83 -4q136 0 181 141l13 48l-391 1099h272l256 -854h17l255 854h262l-395 -1129q-69 -203 -169 -283t-286 -79z" />
    <glyph glyph-name="dotlessj" unicode="&#x237;" horiz-adv-x="557" 
d="M155 -37v1131h247v-1135q0 -333 -368 -333q-39 0 -60 3v195l32 -1q82 1 116 33t33 107z" />
    <glyph glyph-name="quoteright" unicode="&#x2bc;" horiz-adv-x="634" 
d="M345 857h-211l118 586h248z" />
    <glyph glyph-name="quoteright" unicode="&#x2019;" horiz-adv-x="634" 
d="M345 857h-211l118 586h248z" />
    <glyph glyph-name="circumflex" unicode="&#x2c6;" horiz-adv-x="1097" 
d="M678 1591l277 -348h-239l-159 215h-17l-159 -215h-239l277 348h259z" />
    <glyph glyph-name="caron" unicode="&#x2c7;" horiz-adv-x="1097" 
d="M678 1243h-259l-277 348h239l159 -215h17l159 215h239z" />
    <glyph glyph-name="breve" unicode="&#x2d8;" horiz-adv-x="1048" 
d="M137 1585h188q3 -84 55 -135t144 -51t144 51t55 135h188q-1 -152 -105 -247t-282 -95t-282 95t-105 247z" />
    <glyph glyph-name="dotaccent" unicode="&#x2d9;" horiz-adv-x="1048" 
d="M524 1281q-64 0 -106 43t-43 106q1 64 43 106t106 42t106 -43t43 -105q-1 -62 -43 -106q-42 -43 -106 -43z" />
    <glyph glyph-name="ring" unicode="&#x2da;" horiz-adv-x="1097" 
d="M548 1368q48 0 80 32t32 78q0 48 -32 80t-80 31q-48 1 -80 -31t-31 -80q-1 -48 31 -78q32 -32 80 -32zM549 1243q-101 -1 -171 67t-70 169t70 168t171 67q102 0 171 -67t69 -168t-69 -169t-171 -67z" />
    <glyph glyph-name="ogonek" unicode="&#x2db;" horiz-adv-x="1048" 
d="M568 -454q-93 0 -160 54t-67 136t40 140t133 126l16 13h182l-74 -58q-110 -81 -110 -160q0 -41 32 -65t80 -24q50 0 79 9v-149q-58 -22 -151 -22z" />
    <glyph glyph-name="tilde" unicode="&#x2dc;" horiz-adv-x="1096" 
d="M151 1267q0 142 68 226t183 84q82 0 143 -52q26 -22 63 -59t74 -37q91 0 92 145h170q0 -142 -68 -226t-182 -83q-52 -1 -98 23t-71 52q-70 75 -111 74q-91 0 -92 -147h-171z" />
    <glyph glyph-name="hungarumlaut" unicode="&#x2dd;" horiz-adv-x="1048" 
d="M73 1275l227 347h241l-256 -347h-212zM496 1275l227 347h241l-256 -347h-212z" />
    <glyph glyph-name="gravecmb" unicode="&#x300;" 
d="M146 1275h-242l-284 347h277z" />
    <glyph glyph-name="acutecmb" unicode="&#x301;" 
d="M-140 1275l249 347h277l-284 -347h-242z" />
    <glyph glyph-name="circumflexcmb" unicode="&#x302;" 
d="M129 1591l277 -348h-239l-159 215h-17l-159 -215h-239l277 348h259z" />
    <glyph glyph-name="tildecmb" unicode="&#x303;" 
d="M-131 1393q-91 0 -92 -147h-171q0 142 68 226t183 84q82 0 143 -52q26 -22 63 -59t74 -37q91 0 92 145h170q1 -141 -67 -225t-183 -84q-51 0 -97 24t-72 50q-70 74 -111 75z" />
    <glyph glyph-name="macroncmb" unicode="&#x304;" 
d="M356 1305h-712v164h712v-164z" />
    <glyph glyph-name="brevecmb" unicode="&#x306;" 
d="M-388 1585h188q2 -84 54 -135t145 -51t145 51t54 135h188q0 -152 -104 -247t-283 -95t-283 95t-104 247z" />
    <glyph glyph-name="dotaccentcmb" unicode="&#x307;" 
d="M0 1281q-64 0 -106 43t-43 106q1 64 43 106t106 42t106 -43t43 -105q-1 -62 -43 -106q-42 -43 -106 -43z" />
    <glyph glyph-name="dieresiscmb" unicode="&#x308;" 
d="M222 1242q-61 0 -102 40t-41 101t41 101t102 40t102 -40t41 -101t-41 -101t-102 -40zM-223 1242q-61 0 -102 40t-41 101t41 101t102 40t102 -40t41 -101t-41 -101t-102 -40z" />
    <glyph glyph-name="hookabovecmb" unicode="&#x309;" 
d="M-4 1647q96 -1 163 -55t67 -139t-53 -149t-143 -97l-87 110q49 16 79 45q30 28 30 62t-29 56t-86 21q-57 0 -103 -21v144q66 23 162 23z" />
    <glyph glyph-name="ringcmb" unicode="&#x30a;" 
d="M0 1368q48 0 80 32t31 78q1 48 -31 80t-80 31q-48 1 -80 -31t-32 -80t32 -78q32 -32 80 -32zM0 1243q-102 -1 -172 67t-69 169q-1 101 69 168t172 67t171 -67t69 -168t-69 -169t-171 -67z" />
    <glyph glyph-name="hungarumlautcmb" unicode="&#x30b;" 
d="M-350 1275l227 347h241l-256 -347h-212zM73 1275l227 347h241l-256 -347h-212z" />
    <glyph glyph-name="caroncmb" unicode="&#x30c;" 
d="M129 1243h-259l-277 348h239l159 -215h17l159 215h239z" />
    <glyph glyph-name="dblgravecmb" unicode="&#x30f;" 
d="M339 1275h-212l-256 347h241zM-84 1275h-212l-256 347h241z" />
    <glyph glyph-name="invertedbrevecmb" unicode="&#x311;" 
d="M-387 1243q1 152 105 247t282 95t282 -95t105 -247h-188q-3 84 -55 135t-144 51t-144 -51t-55 -135h-188z" />
    <glyph glyph-name="horncmb" unicode="&#x31b;" 
d="M180 1229v158h205v-211q-1 -126 -69 -202t-167 -75q-99 0 -149 34v183q36 -30 85 -28t72 35t23 106z" />
    <glyph glyph-name="dotbelowcmb" unicode="&#x323;" 
d="M0 -413q-64 0 -104 38t-40 95t40 95t104 38t104 -38t40 -95t-40 -95t-104 -38z" />
    <glyph glyph-name="dieresisbelowcmb" unicode="&#x324;" 
d="M222 -432q-64 0 -104 38t-40 95t40 95t104 37q64 1 104 -37t40 -95t-40 -95t-104 -38zM-222 -432q-64 0 -104 38t-40 95t40 95t104 37q64 1 104 -37t40 -95t-40 -95t-104 -38z" />
    <glyph glyph-name="ringbelowcmb" unicode="&#x325;" 
d="M0 -446q48 0 80 32t31 78q1 48 -31 80t-80 31q-48 1 -80 -31t-32 -80t32 -78q32 -32 80 -32zM0 -571q-102 -1 -172 67t-69 169q-1 101 69 168t172 67t171 -67t69 -168t-69 -169t-171 -67z" />
    <glyph glyph-name="commabelowcmb" unicode="&#x326;" 
d="M-3 -512h-225l121 364h253z" />
    <glyph glyph-name="cedillacmb" unicode="&#x327;" 
d="M44 -123q203 -9 203 -179q0 -86 -68 -138q-68 -54 -174 -54t-163 18v124q44 -14 118 -14q114 0 114 64q0 32 -32 46t-105 14h-59v104l58 142h159z" />
    <glyph glyph-name="ogonekcmb" unicode="&#x328;" 
d="M-10 -456q-93 0 -160 54t-67 136t40 140t133 126l16 13h182l-74 -58q-110 -81 -110 -160q0 -41 32 -65t81 -24q50 0 78 9v-149q-58 -22 -151 -22z" />
    <glyph glyph-name="circumflexbelowcmb" unicode="&#x32d;" 
d="M124 -148l291 -284h-254l-152 160h-18l-152 -160h-254l291 284h248z" />
    <glyph glyph-name="brevebelowcmb" unicode="&#x32e;" 
d="M-387 -120h190q0 -74 53 -118t144 -44t144 44t53 118h190q0 -138 -104 -225t-283 -87t-283 87t-104 225z" />
    <glyph glyph-name="tildebelowcmb" unicode="&#x330;" 
d="M-141 -281q-84 0 -88 -129h-166q0 138 65 213t164 75q98 0 162 -51q26 -21 66 -57q39 -36 79 -37q84 0 89 127h165q1 -134 -65 -210t-161 -76t-159 51q-26 21 -49 43q-55 52 -102 51z" />
    <glyph glyph-name="macronbelowcmb" unicode="&#x331;" 
d="M360 -382h-720v164h720v-164z" />
    <glyph glyph-name="greekquestionmark" unicode="&#x37e;" horiz-adv-x="674" 
d="M338 729q-70 1 -116 45q-45 44 -45 112t45 114q46 44 116 44t114 -44t45 -114q-1 -68 -45 -112t-114 -45zM331 -381h-203l85 612h257z" />
    <glyph glyph-name="tonosgreek" unicode="&#x384;" horiz-adv-x="921" 
d="M269 1265l85 364h265l-141 -364h-209z" />
    <glyph glyph-name="dieresistonosgreek" unicode="&#x385;" horiz-adv-x="1411" 
d="M581 1265l30 364h246l-85 -364h-191zM1067 1265q-57 1 -97 39t-40 96t39 95q39 38 98 38t97 -38q38 -37 39 -95q0 -58 -39 -96t-97 -39zM344 1265q-58 1 -98 39t-39 96q0 58 39 95q40 38 98 38t97 -38q39 -37 39 -95t-39 -96t-97 -39z" />
    <glyph glyph-name="Alphatonosgreek" unicode="&#x386;" horiz-adv-x="1499" 
d="M77 1079l85 364h265l-141 -364h-209zM756 1168l-198 -595h411l-196 595h-17zM1151 0l-122 369h-531l-124 -369h-261l512 1443h290l513 -1443h-277z" />
    <glyph glyph-name="anoteleia" unicode="&#x387;" horiz-adv-x="689" 
d="M345 763q-76 0 -122 46q-46 45 -46 119t46 120t122 46q75 0 121 -46t46 -120t-46 -119q-46 -46 -121 -46z" />
    <glyph glyph-name="Epsilontonosgreek" unicode="&#x388;" horiz-adv-x="1678" 
d="M1536 223v-223h-934v1443h934v-223h-676v-383h639v-210h-639v-404h676zM87 1079l85 364h265l-141 -364h-209z" />
    <glyph glyph-name="Etatonosgreek" unicode="&#x389;" horiz-adv-x="1998" 
d="M1819 0h-257v623h-702v-623h-258v1443h258v-597h702v597h257v-1443zM87 1079l85 364h265l-141 -364h-209z" />
    <glyph glyph-name="Iotatonosgreek" unicode="&#x38a;" horiz-adv-x="1039" 
d="M87 1079l85 364h265l-141 -364h-209zM860 0h-258v1443h258v-1443z" />
    <glyph glyph-name="Omicrontonosgreek" unicode="&#x38c;" horiz-adv-x="1895" 
d="M87 1079l85 364h265l-141 -364h-209zM1096 1250q-192 0 -306 -143t-113 -385t113 -386q112 -143 306 -143q194 -1 306 143t112 386t-112 385q-114 143 -306 143zM1096 1479q314 0 498 -204t184 -553q0 -350 -183 -554t-499 -204t-500 204t-183 554t185 553
q184 204 498 204z" />
    <glyph glyph-name="Upsilontonosgreek" unicode="&#x38e;" horiz-adv-x="1853" 
d="M1275 0h-258v564l-506 879h283l344 -617h17l343 617h283l-506 -879v-564zM87 1079l85 364h265l-141 -364h-209z" />
    <glyph glyph-name="Omegatonosgreek" unicode="&#x38f;" horiz-adv-x="1919" 
d="M87 1079l85 364h265l-141 -364h-209zM428 0v216h293v17q-137 84 -215 236q-78 151 -78 343t86 345t242 237t356 85q305 -1 495 -187t190 -486q1 -185 -77 -337t-216 -236v-17h293v-216h-559v274q153 90 226 216t73 319q-1 193 -115 317t-310 124t-310 -124t-114 -317
t73 -319t225 -216v-274h-558z" />
    <glyph glyph-name="iotadieresistonosgreek" unicode="&#x390;" horiz-adv-x="671" 
d="M171 1265l30 364h246l-85 -364h-191zM657 1265q-57 1 -97 39t-40 96t39 95q39 38 98 38t97 -38q38 -37 39 -95q0 -58 -39 -96t-97 -39zM-66 1265q-58 1 -98 39t-39 96q0 58 39 95q40 38 98 38t97 -38q39 -37 39 -95t-39 -96t-97 -39zM493 -5q-185 0 -263 70t-78 228v801
h248v-742q0 -80 34 -118t112 -38q19 0 67 5v-194q-53 -12 -120 -12z" />
    <glyph glyph-name="Alphagreek" unicode="&#x391;" horiz-adv-x="1456" 
d="M714 1168l-198 -595h411l-196 595h-17zM1109 0l-122 369h-531l-124 -369h-261l512 1443h290l513 -1443h-277z" />
    <glyph glyph-name="Betagreek" unicode="&#x392;" horiz-adv-x="1393" 
d="M436 205h300q143 -1 217 57t74 167q0 221 -301 221h-290v-445zM436 1238v-402h249q137 0 209 52t71 148q0 96 -65 149t-182 53h-282zM795 0h-617v1443h603q205 -1 322 -97t117 -263q0 -114 -74 -203t-183 -106v-18q146 -14 237 -110t91 -236q-1 -190 -133 -300t-363 -110
z" />
    <glyph glyph-name="Gammagreek" unicode="&#x393;" horiz-adv-x="1185" 
d="M178 0v1443h900v-223h-642v-1220h-258z" />
    <glyph glyph-name="Deltagreek" unicode="&#x394;" horiz-adv-x="1465" 
d="M385 223h681v17l-330 938h-18l-333 -938v-17zM110 0v159l477 1284h291l478 -1284v-159h-1246z" />
    <glyph glyph-name="Deltagreek" unicode="&#x2206;" horiz-adv-x="1465" 
d="M385 223h681v17l-330 938h-18l-333 -938v-17zM110 0v159l477 1284h291l478 -1284v-159h-1246z" />
    <glyph glyph-name="Epsilongreek" unicode="&#x395;" horiz-adv-x="1254" 
d="M1112 223v-223h-934v1443h934v-223h-676v-383h639v-210h-639v-404h676z" />
    <glyph glyph-name="Zetagreek" unicode="&#x396;" horiz-adv-x="1373" 
d="M138 0v176l759 1027v17h-738v223h1057v-176l-756 -1027v-17h775v-223h-1097z" />
    <glyph glyph-name="Etagreek" unicode="&#x397;" horiz-adv-x="1573" 
d="M1395 0h-257v623h-702v-623h-258v1443h258v-597h702v597h257v-1443z" />
    <glyph glyph-name="Thetagreek" unicode="&#x398;" horiz-adv-x="1644" 
d="M822 -36q-330 0 -517 200q-188 200 -188 558q1 360 189 558t518 199q330 -1 516 -199q187 -198 187 -557q1 -359 -187 -559t-518 -200zM822 190q204 0 322 140t118 392t-118 392t-321 139q-205 1 -323 -139t-118 -392t118 -392t322 -140zM549 608v219h545v-219h-545z" />
    <glyph glyph-name="Iotagreek" unicode="&#x399;" horiz-adv-x="614" 
d="M436 0h-258v1443h258v-1443z" />
    <glyph glyph-name="Kappagreek" unicode="&#x39a;" horiz-adv-x="1415" 
d="M436 0h-258v1443h258v-664h17l569 664h296l-545 -629l588 -814h-315l-456 637l-154 -177v-460z" />
    <glyph glyph-name="Lambdagreek" unicode="&#x39b;" horiz-adv-x="1435" 
d="M80 0l492 1443h291l492 -1443h-279l-354 1154h-17l-360 -1154h-265z" />
    <glyph glyph-name="Mugreek" unicode="&#x39c;" horiz-adv-x="1847" 
d="M418 0h-240v1443h302l434 -1051h18l434 1051h302v-1443h-240v1015h-14l-399 -959h-184l-399 959h-14v-1015z" />
    <glyph glyph-name="Nugreek" unicode="&#x39d;" horiz-adv-x="1554" 
d="M427 0h-249v1443h224l708 -981h17v981h248v-1443h-223l-708 982h-17v-982z" />
    <glyph glyph-name="Xigreek" unicode="&#x39e;" horiz-adv-x="1362" 
d="M142 1213v230h1077v-230h-1077zM229 622v217h903v-217h-903zM142 0v230h1077v-230h-1077z" />
    <glyph glyph-name="Omicrongreek" unicode="&#x39f;" horiz-adv-x="1599" 
d="M800 1250q-192 0 -306 -143t-113 -385t113 -386q112 -143 306 -143q194 -1 306 143t112 386t-112 385q-114 143 -306 143zM800 1479q314 0 498 -204t184 -553q0 -350 -183 -554t-499 -204t-500 204t-183 554t185 553q184 204 498 204z" />
    <glyph glyph-name="Pigreek" unicode="&#x3a0;" horiz-adv-x="1553" 
d="M178 0v1443h1197v-1443h-257v1220h-682v-1220h-258z" />
    <glyph glyph-name="Rhogreek" unicode="&#x3a1;" horiz-adv-x="1351" 
d="M436 1227v-540h255q139 0 215 70t77 200t-75 200t-216 70h-256zM178 1443h582q216 0 350 -135t135 -351q-1 -216 -139 -350t-357 -134h-313v-473h-258v1443z" />
    <glyph glyph-name="Sigmagreek" unicode="&#x3a3;" horiz-adv-x="1353" 
d="M138 0v169l393 555l-373 520v199h1037v-223h-709v-17l316 -450v-35l-339 -478v-17h752v-223h-1077z" />
    <glyph glyph-name="Taugreek" unicode="&#x3a4;" horiz-adv-x="1332" 
d="M795 0h-258v1220h-444v223h1147v-223h-445v-1220z" />
    <glyph glyph-name="Upsilongreek" unicode="&#x3a5;" horiz-adv-x="1412" 
d="M835 0h-258v564l-506 879h283l344 -617h17l343 617h283l-506 -879v-564z" />
    <glyph glyph-name="Phigreek" unicode="&#x3a6;" horiz-adv-x="1811" 
d="M1448 715q0 199 -114 315t-308 128v-885q194 12 308 127t114 315zM363 715q-1 -200 113 -315t309 -127v885q-195 -12 -309 -128t-113 -315zM785 -91v148q-305 14 -491 193t-187 465q1 286 187 465t491 193v151h241v-151q306 -14 492 -193t186 -465t-186 -465t-492 -193
v-148h-241z" />
    <glyph glyph-name="Chigreek" unicode="&#x3a7;" horiz-adv-x="1456" 
d="M89 0l472 727l-468 716h305l329 -530h17l334 530h290l-484 -722l476 -721h-298l-335 518h-17l-340 -518h-281z" />
    <glyph glyph-name="Psigreek" unicode="&#x3a8;" horiz-adv-x="1742" 
d="M747 0v318q-271 4 -431 162t-161 422v541h248v-541q0 -170 88 -262t256 -100v903h248v-903q167 8 255 100t88 262v541h248v-541q0 -265 -160 -423t-431 -161v-318h-248z" />
    <glyph glyph-name="Omegagreek" unicode="&#x3a9;" horiz-adv-x="1613" 
d="M122 0v216h293v17q-137 84 -215 236q-78 151 -78 343t86 345t242 237t356 85q305 -1 495 -187t190 -486q1 -185 -77 -337t-216 -236v-17h293v-216h-559v274q153 90 226 216t73 319q-1 193 -115 317t-310 124t-310 -124t-114 -317t73 -319t225 -216v-274h-558z" />
    <glyph glyph-name="Omegagreek" unicode="&#x2126;" horiz-adv-x="1613" 
d="M122 0v216h293v17q-137 84 -215 236q-78 151 -78 343t86 345t242 237t356 85q305 -1 495 -187t190 -486q1 -185 -77 -337t-216 -236v-17h293v-216h-559v274q153 90 226 216t73 319q-1 193 -115 317t-310 124t-310 -124t-114 -317t73 -319t225 -216v-274h-558z" />
    <glyph glyph-name="Iotadieresisgreek" unicode="&#x3aa;" horiz-adv-x="614" 
d="M529 1577q-61 1 -102 41t-41 100t41 100t102 41q61 -1 102 -41t41 -100t-41 -100t-102 -41zM84 1577q-61 1 -102 41t-41 100t41 100t102 41q61 -1 102 -41t41 -100t-41 -100t-102 -41zM436 0h-258v1443h258v-1443z" />
    <glyph glyph-name="Upsilondieresisgreek" unicode="&#x3ab;" horiz-adv-x="1412" 
d="M928 1577q-61 1 -102 41t-41 100t41 100t102 41q61 -1 102 -41t41 -100t-41 -100t-102 -41zM483 1577q-61 1 -102 41t-41 100t41 100t102 41q61 -1 102 -41t41 -100t-41 -100t-102 -41zM835 0h-258v564l-506 879h283l344 -617h17l343 617h283l-506 -879v-564z" />
    <glyph glyph-name="alphatonosgreek" unicode="&#x3ac;" horiz-adv-x="1329" 
d="M485 1265l85 364h265l-141 -364h-209zM601 193q120 1 196 97t76 256t-72 258t-192 97q-119 0 -191 -95t-72 -258t68 -259t187 -96zM1118 316q0 -125 79 -125q36 0 62 7v-193q-45 -15 -122 -15q-211 0 -246 180l-6 20h-18q-37 -98 -123 -153t-201 -55q-208 0 -330 152
t-122 412q-1 262 121 414t327 152q238 0 321 -219h17v201h241v-778z" />
    <glyph glyph-name="epsilontonosgreek" unicode="&#x3ad;" horiz-adv-x="1136" 
d="M122 785q0 156 125 243t335 87q210 -1 338 -89t151 -258h-244q-41 144 -245 144q-98 0 -158 -36t-59 -99q1 -61 53 -95t153 -34h142v-194h-141q-106 0 -162 -36t-55 -100t59 -100t162 -37q104 0 175 44t93 124h253q-25 -164 -172 -268t-359 -104t-338 87t-127 231
q0 184 189 248v17q-168 69 -168 225zM477 1265l85 364h265l-141 -364h-209z" />
    <glyph glyph-name="etatonosgreek" unicode="&#x3ae;" horiz-adv-x="1322" 
d="M490 1265l85 364h265l-141 -364h-209zM235 778q0 125 -85 125q-39 0 -63 -7v194q47 14 124 14q211 0 255 -178l4 -18h17q38 96 123 152t198 56q180 0 276 -106t96 -304v-1070h-248v1011q0 253 -216 253q-108 0 -170 -70t-63 -195v-635h-248v778z" />
    <glyph glyph-name="iotatonosgreek" unicode="&#x3af;" horiz-adv-x="671" 
d="M163 1265l85 364h265l-141 -364h-209zM493 -5q-185 0 -263 70t-78 228v801h248v-742q0 -80 34 -118t112 -38q19 0 67 5v-194q-53 -12 -120 -12z" />
    <glyph glyph-name="upsilondieresistonosgreek" unicode="&#x3b0;" horiz-adv-x="1182" 
d="M597 -22q-223 0 -343 117t-120 345v654h238v-627q0 -271 222 -271q112 0 172 90t61 264q0 174 -22 289q-22 116 -79 255h244q46 -101 74 -238t28 -274q0 -298 -126 -451t-349 -153zM457 1265l30 364h246l-85 -364h-191zM943 1265q-57 1 -97 39t-40 96t39 95q39 38 98 38
t97 -38q38 -37 39 -95q0 -58 -39 -96t-97 -39zM220 1265q-58 1 -98 39t-39 96q0 58 39 95q40 38 98 38t97 -38q39 -37 39 -95t-39 -96t-97 -39z" />
    <glyph glyph-name="alphagreek" unicode="&#x3b1;" horiz-adv-x="1329" 
d="M601 193q120 1 196 97t76 256t-72 258t-192 97q-119 0 -191 -95t-72 -258t68 -259t187 -96zM1118 316q0 -125 79 -125q36 0 62 7v-193q-45 -15 -122 -15q-211 0 -246 180l-6 20h-18q-37 -98 -123 -153t-201 -55q-208 0 -330 152t-122 412q-1 262 121 414t327 152
q238 0 321 -219h17v201h241v-778z" />
    <glyph glyph-name="betagreek" unicode="&#x3b2;" horiz-adv-x="1286" 
d="M676 193q120 1 189 71t69 190t-82 189q-82 68 -236 68h-77v197h76q111 0 173 55t62 155t-59 156q-59 58 -158 58q-234 0 -234 -302v-504q0 -158 78 -246q79 -88 199 -87zM1189 428q0 -200 -123 -323t-323 -123q-115 0 -201 50t-125 134h-17v-530h-248v1374q0 257 123 393
t341 136t342 -105t124 -287q0 -103 -54 -185t-148 -122v-18q309 -75 309 -394z" />
    <glyph glyph-name="gammagreek" unicode="&#x3b3;" horiz-adv-x="1165" 
d="M579 227q230 337 230 634q0 139 -22 233h244q23 -101 23 -200q0 -206 -92 -432t-297 -496v-323h-245v310l-365 1141h260l247 -867h17z" />
    <glyph glyph-name="deltagreek" unicode="&#x3b4;" horiz-adv-x="1213" 
d="M602 172q120 0 193 90t73 241q0 152 -76 245t-191 93t-191 -91t-76 -245q0 -153 74 -243t194 -90zM600 -22q-236 0 -376 141t-141 377q0 186 107 318t274 168v20q-102 54 -148 116t-46 146q0 127 108 201t304 74t336 -82v-195q-170 82 -339 82q-73 0 -113 -26t-39 -69
q-1 -44 35 -77t139 -83q221 -119 321 -255t100 -331q0 -233 -143 -379t-379 -146z" />
    <glyph glyph-name="epsilongreek" unicode="&#x3b5;" horiz-adv-x="1136" 
d="M122 786q0 156 125 243t335 87t338 -88t151 -259h-244q-41 144 -245 144q-98 -1 -158 -37t-59 -98t53 -96t153 -33h142v-194h-141q-106 0 -162 -36t-55 -100q1 -65 59 -101t162 -36t175 44t93 124h253q-25 -164 -172 -268t-359 -104t-338 87t-127 231q0 184 189 248v17
q-168 69 -168 225z" />
    <glyph glyph-name="zetagreek" unicode="&#x3b6;" horiz-adv-x="978" 
d="M731 -113q1 69 -39 103t-164 74q-243 83 -343 200t-100 308q0 363 475 716v17h-389v212h767v-182q-324 -219 -462 -391t-139 -351q1 -119 63 -187t246 -132t252 -134q69 -70 69 -204t-121 -301l-189 70q74 113 74 182z" />
    <glyph glyph-name="etagreek" unicode="&#x3b7;" horiz-adv-x="1322" 
d="M235 778q0 125 -85 125q-39 0 -63 -7v194q47 14 124 14q211 0 255 -178l4 -18h17q38 96 123 152t198 56q180 0 276 -106t96 -304v-1070h-248v1011q0 253 -216 253q-108 0 -170 -70t-63 -195v-635h-248v778z" />
    <glyph glyph-name="thetagreek" unicode="&#x3b8;" horiz-adv-x="1239" 
d="M620 177q134 -1 202 115t72 371h-550q6 -255 74 -371t202 -115zM619 1341q-130 -1 -198 -115t-76 -358h549q-8 245 -76 359t-199 114zM619 -22q-257 0 -391 199t-134 583t135 581q135 198 391 198q256 1 390 -197t134 -582t-134 -583t-391 -199z" />
    <glyph glyph-name="iotagreek" unicode="&#x3b9;" horiz-adv-x="671" 
d="M493 -5q-185 0 -263 70t-78 228v801h248v-742q0 -80 34 -118t112 -38q19 0 67 5v-194q-53 -12 -120 -12z" />
    <glyph glyph-name="kappagreek" unicode="&#x3ba;" horiz-adv-x="1235" 
d="M152 0v1094h238v-494h18l277 321q91 105 157 144t141 39t123 -14v-194q-30 7 -72 7q-42 1 -80 -23t-99 -93l-130 -149l419 -638h-267l-310 476l-177 -189v-287h-238z" />
    <glyph glyph-name="lambdagreek" unicode="&#x3bb;" horiz-adv-x="1192" 
d="M202 1338q-16 0 -56 -6v193q54 14 117 14q137 0 222 -82t168 -317l296 -835q41 -114 117 -114q32 0 69 7v-193q-43 -15 -137 -15t-155 47t-103 173l-169 506h-18l-276 -716h-252l436 1031l-33 90q-52 137 -94 177t-132 40z" />
    <glyph glyph-name="nugreek" unicode="&#x3bd;" horiz-adv-x="1165" 
d="M809 859q0 135 -22 235h244q23 -103 23 -198q0 -200 -86 -418t-278 -478h-284l-351 1094h260l246 -868h17q231 342 231 633z" />
    <glyph glyph-name="xigreek" unicode="&#x3be;" horiz-adv-x="1013" 
d="M730 -95q0 51 -40 85t-179 81q-235 79 -331 169t-96 214q0 245 272 317v17q-109 44 -159 106t-50 156q1 92 57 155t154 84v16h-207v212h783v-183l-116 -14q-236 -28 -334 -84t-98 -148t72 -132t237 -40h164v-204h-181q-168 0 -256 -54t-87 -147q1 -51 23 -85
q45 -69 259 -143q213 -73 281 -144t68 -191q0 -78 -28 -148t-93 -165l-189 70q42 67 58 107t16 93z" />
    <glyph glyph-name="omicrongreek" unicode="&#x3bf;" horiz-adv-x="1213" 
d="M606 186q122 0 192 96t70 265t-70 265t-192 96q-120 0 -190 -96t-70 -265t70 -265q68 -96 190 -96zM607 -22q-238 0 -377 152t-139 416t140 418q140 152 376 152t376 -152t140 -417t-139 -417t-377 -152z" />
    <glyph glyph-name="pigreek" unicode="&#x3c0;" horiz-adv-x="1459" 
d="M306 0v882h-228v212h1274v-212h-218v-567q0 -72 24 -98t68 -26t72 7v-193q-47 -15 -118 -15q-145 0 -213 71t-68 222v599h-359v-882h-234z" />
    <glyph glyph-name="rhogreek" unicode="&#x3c1;" horiz-adv-x="1266" 
d="M652 193q124 0 196 96q72 95 72 267t-72 262t-197 90q-126 0 -199 -98t-73 -262q0 -166 75 -260t198 -95zM139 -364v903q0 271 138 424t380 153t380 -152t138 -414t-123 -414q-123 -154 -332 -154q-107 0 -191 48t-125 136h-18v-530h-247z" />
    <glyph glyph-name="sigmafinalgreek" unicode="&#x3c2;" horiz-adv-x="1149" 
d="M973 -64q0 -134 -121 -300l-189 70q74 114 74 181t-39 101t-165 77q-248 89 -345 201t-97 336q-1 224 139 369t352 145t336 -102t146 -288h-237q-42 182 -231 182q-110 0 -182 -84t-72 -220t60 -200q60 -63 246 -129q186 -65 256 -135q69 -70 69 -204z" />
    <glyph glyph-name="sigmagreek" unicode="&#x3c3;" horiz-adv-x="1353" 
d="M608 183q120 0 192 94t72 254q0 161 -74 255t-190 94q-114 0 -188 -94t-74 -256t71 -254t191 -93zM600 -22q-232 0 -370 150q-139 150 -139 404t153 408t408 154h610v-212h-279v-17q61 -52 95 -142t35 -194q-1 -251 -141 -401t-372 -150z" />
    <glyph glyph-name="taugreek" unicode="&#x3c4;" horiz-adv-x="1096" 
d="M742 -5q-188 0 -270 69t-82 228v590h-335v212h944v-212h-362v-530q0 -80 36 -118t96 -38t102 5v-194q-53 -12 -129 -12z" />
    <glyph glyph-name="upsilongreek" unicode="&#x3c5;" horiz-adv-x="1182" 
d="M597 -22q-223 0 -343 117t-120 345v654h238v-627q0 -271 222 -271q112 0 172 90t61 264q0 174 -22 289q-22 116 -79 255h244q46 -101 74 -238t28 -274q0 -298 -126 -451t-349 -153z" />
    <glyph glyph-name="phigreek" unicode="&#x3c6;" horiz-adv-x="1551" 
d="M329 550q0 -162 85 -258t250 -115v740q-157 -17 -246 -111t-89 -256zM1222 550q0 162 -89 256t-246 111v-740q163 19 249 115t86 258zM661 -364v342q-267 16 -420 168t-153 409t162 403q162 147 411 159v245h229v-245q247 -12 410 -159q163 -146 163 -403t-153 -409
t-420 -168v-342h-229z" />
    <glyph glyph-name="chigreek" unicode="&#x3c7;" horiz-adv-x="1174" 
d="M178 1104q80 0 142 -43t119 -154l160 -311h17l258 498h246l-402 -735l217 -419q59 -112 133 -112q36 0 61 6v-193q-47 -15 -128 -15t-141 39t-109 136l-167 329h-18l-255 -494h-246l399 727l-220 425q-58 115 -134 115q-34 0 -61 -7v194q49 14 129 14z" />
    <glyph glyph-name="psigreek" unicode="&#x3c8;" horiz-adv-x="1495" 
d="M627 -364v342q-237 4 -365 126t-128 335v655h238v-607q0 -149 64 -219t191 -72v1166h236v-1165q133 5 205 97t72 265q0 299 -102 535h244q46 -92 74 -232t28 -279q0 -285 -138 -442t-383 -163v-342h-236z" />
    <glyph glyph-name="omegagreek" unicode="&#x3c9;" horiz-adv-x="1629" 
d="M503 -22q-186 0 -289 138t-103 395q1 169 47 323t128 260h255q-185 -266 -185 -582t176 -316q74 0 120 64t46 168v353h232v-353q0 -104 47 -168t120 -64q176 0 176 316t-185 582h255q83 -106 129 -260t46 -323q0 -255 -102 -394t-289 -139q-212 0 -304 223h-17
q-91 -223 -303 -223z" />
    <glyph glyph-name="iotadieresisgreek" unicode="&#x3ca;" horiz-adv-x="671" 
d="M489 1242q-61 0 -102 40t-41 101t41 101t102 40t102 -40t41 -101t-41 -101t-102 -40zM44 1242q-61 0 -102 40t-41 101t41 101t102 40t102 -40t41 -101t-41 -101t-102 -40zM493 -5q-185 0 -263 70t-78 228v801h248v-742q0 -80 34 -118t112 -38q19 0 67 5v-194
q-53 -12 -120 -12z" />
    <glyph glyph-name="upsilondieresisgreek" unicode="&#x3cb;" horiz-adv-x="1182" 
d="M597 -22q-223 0 -343 117t-120 345v654h238v-627q0 -271 222 -271q112 0 172 90t61 264q0 174 -22 289q-22 116 -79 255h244q46 -101 74 -238t28 -274q0 -298 -126 -451t-349 -153zM793 1242q-61 0 -102 40t-41 101t41 101t102 40t102 -40t41 -101t-41 -101t-102 -40z
M348 1242q-61 0 -102 40t-41 101t41 101t102 40t102 -40t41 -101t-41 -101t-102 -40z" />
    <glyph glyph-name="omicrontonosgreek" unicode="&#x3cc;" horiz-adv-x="1213" 
d="M482 1265l85 364h265l-141 -364h-209zM606 186q122 0 192 96t70 265t-70 265t-192 96q-120 0 -190 -96t-70 -265t70 -265q68 -96 190 -96zM607 -22q-238 0 -377 152t-139 416t140 418q140 152 376 152t376 -152t140 -417t-139 -417t-377 -152z" />
    <glyph glyph-name="upsilontonosgreek" unicode="&#x3cd;" horiz-adv-x="1182" 
d="M597 -22q-223 0 -343 117t-120 345v654h238v-627q0 -271 222 -271q112 0 172 90t61 264q0 174 -22 289q-22 116 -79 255h244q46 -101 74 -238t28 -274q0 -298 -126 -451t-349 -153zM446 1265l85 364h265l-141 -364h-209z" />
    <glyph glyph-name="omegatonosgreek" unicode="&#x3ce;" horiz-adv-x="1629" 
d="M702 1265l85 364h265l-141 -364h-209zM503 -22q-186 0 -289 138t-103 395q1 169 47 323t128 260h255q-185 -266 -185 -582t176 -316q74 0 120 64t46 168v353h232v-353q0 -104 47 -168t120 -64q176 0 176 316t-185 582h255q83 -106 129 -260t46 -323q0 -255 -102 -394
t-289 -139q-212 0 -304 223h-17q-91 -223 -303 -223z" />
    <glyph glyph-name="Iocyrillic" unicode="&#x401;" horiz-adv-x="1274" 
d="M1122 223v-223h-934v1443h934v-223h-676v-383h639v-210h-639v-404h676zM877 1577q-61 1 -102 41t-41 100t41 100t102 41q61 -1 102 -41t41 -100t-41 -100t-102 -41zM432 1577q-61 1 -102 41t-41 100t41 100t102 41q61 -1 102 -41t41 -100t-41 -100t-102 -41z" />
    <glyph glyph-name="Djecyrillic" unicode="&#x402;" horiz-adv-x="1771" 
d="M1174 -52q-77 0 -140 18v214q40 -14 136 -14t164 66q67 66 67 182t-71 190t-205 74q-184 0 -286 -126q-21 -26 -34 -51v-501h-258v1220h-444v223h1147v-223h-445v-442h17q133 129 360 129t352 -138t125 -346q1 -209 -129 -342t-356 -133z" />
    <glyph glyph-name="Gjecyrillic" unicode="&#x403;" horiz-adv-x="1201" 
d="M447 0h-259v1443h903v-224h-644v-1219zM477 1574l288 310h283l-321 -310h-250z" />
    <glyph glyph-name="Ecyrillic" unicode="&#x404;" horiz-adv-x="1533" 
d="M799 -36q-311 0 -491 203t-181 555q1 352 181 554q180 203 490 203q250 0 423 -143t196 -365h-254q-27 126 -126 202t-253 76q-154 1 -260 -109q-108 -110 -127 -300h593v-213h-596q14 -199 124 -316t266 -117t255 70t125 187h253q-25 -217 -195 -352t-423 -135z" />
    <glyph glyph-name="Dzecyrillic" unicode="&#x405;" horiz-adv-x="1374" 
d="M696 180q132 0 216 58q82 58 82 144q0 84 -62 133t-202 81l-187 43q-197 43 -291 143t-94 261q0 197 148 317t382 119q234 0 383 -118t158 -304h-247q-13 95 -91 151t-200 56q-121 0 -197 -56t-76 -138t59 -128t193 -76l166 -38q220 -49 318 -146t98 -262
q0 -212 -152 -334t-408 -122t-408 116t-162 312h252q12 -96 101 -154t221 -58z" />
    <glyph glyph-name="Icyrillic" unicode="&#x406;" horiz-adv-x="634" 
d="M446 0h-258v1443h258v-1443z" />
    <glyph glyph-name="Yicyrillic" unicode="&#x407;" horiz-adv-x="634" 
d="M539 1577q-61 1 -102 41t-41 100t41 100t102 41q61 -1 102 -41t41 -100t-41 -100t-102 -41zM94 1577q-61 1 -102 41t-41 100t41 100t102 41q61 -1 102 -41t41 -100t-41 -100t-102 -41zM446 0h-258v1443h258v-1443z" />
    <glyph glyph-name="Jecyrillic" unicode="&#x408;" horiz-adv-x="1204" 
d="M89 393h252q1 -89 58 -143t154 -54t151 60t54 177v1010h258v-1012q0 -223 -123 -345t-337 -122t-340 117q-127 117 -127 312z" />
    <glyph glyph-name="Ljecyrillic" unicode="&#x409;" horiz-adv-x="2224" 
d="M1313 217h248q139 0 215 66t76 189q0 124 -76 190t-216 66h-247v-511zM174 -11q-80 0 -118 12v233q30 -7 74 -7q99 0 138 93q40 93 50 257l46 866h949v-500h306q220 -1 358 -131t138 -340t-135 -342q-135 -130 -351 -130h-574v1220h-459l-39 -659q-25 -429 -227 -533
q-76 -39 -156 -39z" />
    <glyph glyph-name="Njecyrillic" unicode="&#x40a;" horiz-adv-x="2290" 
d="M446 633v-633h-258v1443h258v-590h668v590h258v-590h306q220 -1 358 -117t138 -306t-135 -310t-351 -120h-574v633h-668zM1372 217h258q135 1 209 57t74 157t-74 153t-210 53h-257v-420z" />
    <glyph glyph-name="Tshecyrillic" unicode="&#x40b;" horiz-adv-x="1807" 
d="M1115 678q-189 0 -287 -138q-14 -19 -23 -39v-501h-258v1220h-444v223h1147v-223h-445v-441h17q130 128 355 128t349 -145t124 -369v-393h-258v376q0 138 -70 220t-207 82z" />
    <glyph glyph-name="Kjecyrillic" unicode="&#x40c;" horiz-adv-x="1435" 
d="M456 823h44l542 620h296l-619 -702l665 -741h-318l-565 618h-45v-618h-258v1443h258v-620zM559 1574l288 310h283l-321 -310h-250z" />
    <glyph glyph-name="Ushortcyrillic" unicode="&#x40e;" horiz-adv-x="1383" 
d="M361 214q128 0 201 119l-484 1110h273l339 -842h17l328 842h270l-442 -1030q-89 -208 -196 -317q-107 -108 -288 -108q-87 0 -118 14v221q41 -9 100 -9zM323 1901h195q0 -75 48 -120t122 -45t121 45q48 45 49 120h195q0 -144 -100 -229q-99 -85 -265 -85t-266 85t-99 229
z" />
    <glyph glyph-name="Dzhecyrillic" unicode="&#x40f;" horiz-adv-x="1576" 
d="M667 0h-479v1443h258v-1220h684v1220h258v-1443h-479v-285h-242v285z" />
    <glyph glyph-name="Acyrillic" unicode="&#x410;" horiz-adv-x="1476" 
d="M724 1168l-198 -595h411l-196 595h-17zM1119 0l-122 369h-531l-124 -369h-261l512 1443h290l513 -1443h-277z" />
    <glyph glyph-name="Becyrillic" unicode="&#x411;" horiz-adv-x="1359" 
d="M446 217h245q137 0 212 60t75 172t-75 172t-213 60h-244v-464zM1242 446q0 -198 -135 -322t-351 -124h-568v1443h917v-223h-659v-329h302q218 0 356 -123q138 -124 138 -322z" />
    <glyph glyph-name="Vecyrillic" unicode="&#x412;" horiz-adv-x="1413" 
d="M446 205h300q143 -1 217 57t74 167q0 221 -301 221h-290v-445zM446 1238v-402h249q137 0 209 52t71 148q0 96 -65 149t-182 53h-282zM805 0h-617v1443h603q205 -1 322 -97t117 -263q0 -114 -74 -203t-183 -106v-18q146 -14 237 -110t91 -236q-1 -190 -133 -300t-363 -110
z" />
    <glyph glyph-name="Gecyrillic" unicode="&#x413;" horiz-adv-x="1201" 
d="M447 0h-259v1443h903v-224h-644v-1219z" />
    <glyph glyph-name="Decyrillic" unicode="&#x414;" horiz-adv-x="1567" 
d="M275 0v-285h-235v508h103q73 47 105 135t42 242l51 843h976v-1220h180v-508h-234v285h-988zM433 223h627v997h-491l-41 -637q-8 -128 -28 -209t-67 -135v-16z" />
    <glyph glyph-name="Iecyrillic" unicode="&#x415;" horiz-adv-x="1274" 
d="M1122 223v-223h-934v1443h934v-223h-676v-383h639v-210h-639v-404h676z" />
    <glyph glyph-name="Zhecyrillic" unicode="&#x416;" horiz-adv-x="2134" 
d="M938 820v623h254v-623h47l495 623h289l-572 -704l619 -739h-313l-517 620h-48v-620h-254v620h-47l-518 -620h-309l616 734l-575 709h292l495 -623h46z" />
    <glyph glyph-name="Zecyrillic" unicode="&#x417;" horiz-adv-x="1321" 
d="M456 628v212h193q114 0 185 60t71 158q0 96 -68 152t-188 57q-119 -1 -193 -59t-82 -159h-242q10 198 150 314t368 116q226 -1 366 -109t140 -281q0 -119 -74 -211t-190 -118v-17q144 -15 233 -108t89 -239q0 -188 -159 -310t-399 -122t-390 120q-152 120 -162 316h248
q8 -99 91 -158t215 -59q132 -1 212 63t79 166q0 102 -78 158q-78 58 -218 58h-197z" />
    <glyph glyph-name="Iicyrillic" unicode="&#x418;" horiz-adv-x="1597" 
d="M1152 0v1026h-17l-697 -1026h-250v1443h257v-1028h17l696 1028h250v-1443h-256z" />
    <glyph glyph-name="Iishortcyrillic" unicode="&#x419;" horiz-adv-x="1597" 
d="M1152 0v1026h-17l-697 -1026h-250v1443h257v-1028h17l696 1028h250v-1443h-256zM425 1901h195q0 -75 48 -120t122 -45t121 45q48 45 49 120h195q0 -144 -100 -229q-99 -85 -265 -85t-266 85t-99 229z" />
    <glyph glyph-name="Kacyrillic" unicode="&#x41a;" horiz-adv-x="1438" 
d="M446 823h44l542 620h296l-619 -702l665 -741h-318l-565 618h-45v-618h-258v1443h258v-620z" />
    <glyph glyph-name="Elcyrillic" unicode="&#x41b;" horiz-adv-x="1491" 
d="M1303 0h-258v1220h-459l-39 -659q-25 -429 -227 -533q-76 -39 -156 -39t-118 12v233q30 -7 74 -7q99 0 138 93q40 93 50 257l46 866h949v-1443z" />
    <glyph glyph-name="Emcyrillic" unicode="&#x41c;" horiz-adv-x="1866" 
d="M428 0h-240v1443h302l434 -1051h18l434 1051h302v-1443h-240v1015h-14l-399 -959h-184l-399 959h-14v-1015z" />
    <glyph glyph-name="Encyrillic" unicode="&#x41d;" horiz-adv-x="1593" 
d="M1405 0h-257v623h-702v-623h-258v1443h258v-597h702v597h257v-1443z" />
    <glyph glyph-name="Ocyrillic" unicode="&#x41e;" horiz-adv-x="1619" 
d="M810 1250q-192 0 -306 -143t-113 -385t113 -386q112 -143 306 -143q194 -1 306 143t112 386t-112 385q-114 143 -306 143zM810 1479q314 0 498 -204t184 -553q0 -350 -183 -554t-499 -204t-500 204t-183 554t185 553q184 204 498 204z" />
    <glyph glyph-name="Pecyrillic" unicode="&#x41f;" horiz-adv-x="1576" 
d="M1388 0h-257v1219h-684v-1219h-259v1443h1200v-1443z" />
    <glyph glyph-name="Ercyrillic" unicode="&#x420;" horiz-adv-x="1371" 
d="M446 1227v-540h255q139 0 215 70t77 200t-75 200t-216 70h-256zM188 1443h582q216 0 350 -135t135 -351q-1 -216 -139 -350t-357 -134h-313v-473h-258v1443z" />
    <glyph glyph-name="Escyrillic" unicode="&#x421;" horiz-adv-x="1533" 
d="M790 -36q-307 0 -485 204t-178 554q-1 351 177 554t485 203q246 -1 417 -145t194 -370h-254q-27 130 -124 208t-233 77q-184 1 -291 -141t-107 -386t107 -386t292 -142q137 0 234 72t123 192h254q-26 -222 -194 -358t-417 -136z" />
    <glyph glyph-name="Tecyrillic" unicode="&#x422;" horiz-adv-x="1352" 
d="M805 0h-258v1220h-444v223h1147v-223h-445v-1220z" />
    <glyph glyph-name="Ucyrillic" unicode="&#x423;" horiz-adv-x="1383" 
d="M361 214q128 0 201 119l-484 1110h273l339 -842h17l328 842h270l-442 -1030q-89 -208 -196 -317q-107 -108 -288 -108q-87 0 -118 14v221q41 -9 100 -9z" />
    <glyph glyph-name="Efcyrillic" unicode="&#x424;" horiz-adv-x="1791" 
d="M114 725q0 273 179 431t475 167v147h255v-147q297 -8 475 -167q178 -160 178 -432t-178 -430t-475 -168v-153h-255v153q-298 8 -476 168t-178 431zM1416 724q0 170 -107 272t-288 109v-761q181 8 288 109t107 271zM374 725q0 -169 107 -271t289 -110v761
q-180 -8 -288 -109t-108 -271z" />
    <glyph glyph-name="Xacyrillic" unicode="&#x425;" horiz-adv-x="1476" 
d="M99 0l472 727l-468 716h305l329 -530h17l334 530h290l-484 -722l476 -721h-298l-335 518h-17l-340 -518h-281z" />
    <glyph glyph-name="Tsecyrillic" unicode="&#x426;" horiz-adv-x="1638" 
d="M1568 -285h-234v285h-1146v1443h258v-1220h685v1220h257v-1220h180v-508z" />
    <glyph glyph-name="Checyrillic" unicode="&#x427;" horiz-adv-x="1486" 
d="M1298 0h-258v637h-17q-136 -128 -368 -128q-233 0 -375 149t-142 385v400h257v-376q1 -148 81 -237t214 -89t223 50q88 50 127 130v522h258v-1443z" />
    <glyph glyph-name="Shacyrillic" unicode="&#x428;" horiz-adv-x="2051" 
d="M188 0v1443h258v-1220h451v1220h257v-1220h451v1220h258v-1443h-1675z" />
    <glyph glyph-name="Shchacyrillic" unicode="&#x429;" horiz-adv-x="2113" 
d="M2043 -285h-235v285h-1620v1443h258v-1220h451v1220h257v-1220h451v1220h258v-1220h180v-508z" />
    <glyph glyph-name="Hardsigncyrillic" unicode="&#x42a;" horiz-adv-x="1603" 
d="M691 217h249q138 0 214 66t76 189q0 124 -76 190t-215 66h-248v-511zM1008 0h-574v1220h-334v223h591v-500h306q221 -1 359 -131t138 -340t-135 -342q-135 -130 -351 -130z" />
    <glyph glyph-name="Yericyrillic" unicode="&#x42b;" horiz-adv-x="1865" 
d="M446 217h249q138 0 214 66t76 189q0 124 -76 190t-215 66h-248v-511zM188 0v1443h258v-500h306q220 -1 358 -131t139 -340q0 -210 -135 -342q-135 -130 -351 -130h-575zM1677 0h-258v1443h258v-1443z" />
    <glyph glyph-name="Softsigncyrillic" unicode="&#x42c;" horiz-adv-x="1364" 
d="M446 217h249q138 0 214 66t76 189q0 124 -76 190t-215 66h-248v-511zM188 0v1443h258v-500h306q220 -1 358 -131t139 -340q0 -210 -135 -342q-135 -130 -351 -130h-575z" />
    <glyph glyph-name="Ereversedcyrillic" unicode="&#x42d;" horiz-adv-x="1533" 
d="M741 -36q-256 0 -428 135t-198 352h254q26 -117 127 -187q102 -70 258 -70t264 116t121 317h-597v213h596q-19 191 -125 300q-105 109 -259 109t-256 -76t-128 -202h-254q23 222 198 365t427 143q309 -1 487 -203t178 -554t-178 -554q-178 -204 -487 -204z" />
    <glyph glyph-name="IUcyrillic" unicode="&#x42e;" horiz-adv-x="2143" 
d="M1344 1250q-188 0 -299 -143t-111 -385t110 -386q110 -143 299 -143q189 -1 299 143t111 386q-1 242 -111 385t-298 143zM1356 -36q-300 0 -477 176t-202 483h-231v-623h-258v1443h258v-597h233q33 295 209 464t472 169q296 1 476 -203t180 -554t-180 -554t-480 -204z
" />
    <glyph glyph-name="IAcyrillic" unicode="&#x42f;" horiz-adv-x="1424" 
d="M166 984q0 205 138 332t364 127h567v-1443h-256v531h-230l-363 -531h-290l392 567q-146 42 -234 153t-88 264zM979 737v491h-267q-134 0 -208 -64t-74 -182q0 -116 74 -180t208 -65h267z" />
    <glyph glyph-name="acyrillic" unicode="&#x430;" horiz-adv-x="1199" 
d="M592 914q-180 0 -215 -114h-234q15 144 141 230t328 86t316 -97t115 -272v-747h-239v150h-17q-45 -80 -131 -124t-193 -44q-160 0 -261 90t-101 238q-1 148 107 232t308 96l282 17v92q0 81 -53 124t-153 43zM550 177q98 1 173 65t75 159v87l-247 -16q-204 -13 -204 -148
q1 -68 53 -108t150 -39z" />
    <glyph glyph-name="becyrillic" unicode="&#x431;" horiz-adv-x="1278" 
d="M689 1061q217 1 349 -141t132 -393t-142 -400t-392 -149q-252 0 -390 165t-138 490q0 415 134 617t441 214l129 5q147 6 215 27q69 21 71 23v-206q-29 -18 -106 -34t-166 -19l-125 -5q-204 -8 -289 -108t-108 -292h18q52 96 144 151t223 55zM638 186q132 0 204 90t73 250
q-1 160 -73 248q-72 87 -203 87t-204 -87q-73 -88 -73 -248t72 -250t204 -90z" />
    <glyph glyph-name="vecyrillic" unicode="&#x432;" horiz-adv-x="1188" 
d="M161 0v1094h514q165 0 257 -74t92 -203q0 -85 -54 -151t-136 -80v-18q107 -12 173 -82t66 -170q0 -144 -105 -230t-286 -86h-521zM613 484h-207v-310h229q92 0 141 40t49 115q0 155 -212 155zM618 920h-212v-273h192q183 0 183 138q0 63 -41 99t-122 36z" />
    <glyph glyph-name="gecyrillic" unicode="&#x433;" horiz-adv-x="988" 
d="M898 896h-489v-896h-248v1094h737v-198z" />
    <glyph glyph-name="decyrillic" unicode="&#x434;" horiz-adv-x="1322" 
d="M264 -285h-228v483h86q107 64 125 325l38 571h819v-896h168v-483h-229v285h-779v-285zM857 198v699h-359l-28 -388q-15 -198 -82 -293v-18h469z" />
    <glyph glyph-name="iecyrillic" unicode="&#x435;" horiz-adv-x="1228" 
d="M624 -22q-240 0 -378 150t-138 415t138 419t374 154t368 -146t133 -406v-80h-764v-13q5 -137 79 -217t195 -79q188 0 244 126h235q-34 -151 -164 -237t-322 -86zM622 919q-112 0 -184 -73t-80 -193h515q-4 122 -72 194q-67 72 -179 72z" />
    <glyph glyph-name="zhecyrillic" unicode="&#x436;" horiz-adv-x="1739" 
d="M747 652v442h242v-442h54l331 442h281l-411 -504l434 -590h-294l-338 474h-57v-474h-242v474h-56l-338 -474h-293l432 587l-412 507h282l331 -442h54z" />
    <glyph glyph-name="zecyrillic" unicode="&#x437;" horiz-adv-x="1142" 
d="M783 330q0 145 -210 145h-157v177h152q178 0 178 132q0 60 -45 97t-132 37t-141 -36t-65 -99h-237q16 153 132 243t313 90t307 -82t110 -224q0 -82 -46 -142t-122 -79v-18q102 -25 156 -89t54 -156q0 -158 -124 -253t-324 -95t-330 88t-145 258h242q37 -144 223 -144
q99 0 155 40t56 110z" />
    <glyph glyph-name="iicyrillic" unicode="&#x438;" horiz-adv-x="1295" 
d="M161 0v1094h245v-724h17l466 724h245v-1094h-245v729h-17l-466 -729h-245z" />
    <glyph glyph-name="iishortcyrillic" unicode="&#x439;" horiz-adv-x="1295" 
d="M161 0v1094h245v-724h17l466 724h245v-1094h-245v729h-17l-466 -729h-245zM264 1594h196q2 -83 48 -138t123 -55t123 55t49 138h195q0 -150 -102 -246t-265 -96t-265 96t-102 246z" />
    <glyph glyph-name="kacyrillic" unicode="&#x43a;" horiz-adv-x="1192" 
d="M409 656h48l367 438h286l-449 -505l470 -589h-301l-371 470h-50v-470h-248v1094h248v-438z" />
    <glyph glyph-name="elcyrillic" unicode="&#x43b;" horiz-adv-x="1239" 
d="M141 -11q-62 0 -96 12v220q26 -7 60 -7q75 0 109 80t44 229l36 571h784v-1094h-247v896h-321l-27 -387q-14 -201 -51 -293t-76 -136t-96 -67q-57 -24 -119 -24z" />
    <glyph glyph-name="emcyrillic" unicode="&#x43c;" horiz-adv-x="1615" 
d="M398 0h-237v1094h316l324 -753h18l325 753h310v-1094h-238v744h-18l-302 -693h-178l-301 693h-19v-744z" />
    <glyph glyph-name="encyrillic" unicode="&#x43d;" horiz-adv-x="1281" 
d="M161 0v1094h248v-432h463v432h248v-1094h-248v464h-463v-464h-248z" />
    <glyph glyph-name="ocyrillic" unicode="&#x43e;" horiz-adv-x="1268" 
d="M634 -22q-246 0 -386 152t-140 416q0 266 141 418t385 152t386 -152q140 -152 140 -418t-140 -416q-140 -152 -386 -152zM634 186q130 0 200 94t71 266q0 172 -71 267q-70 95 -200 95t-201 -95t-71 -267t71 -266t201 -94z" />
    <glyph glyph-name="pecyrillic" unicode="&#x43f;" horiz-adv-x="1271" 
d="M862 0v896h-453v-896h-248v1094h949v-1094h-248z" />
    <glyph glyph-name="ercyrillic" unicode="&#x440;" horiz-adv-x="1317" 
d="M680 193q128 0 200 94t73 260q-1 166 -73 260t-200 94t-201 -95q-74 -95 -74 -259q-1 -164 73 -259t202 -95zM757 1112q207 0 329 -151t122 -413t-120 -414t-328 -152q-116 0 -204 48t-130 136h-17v-530h-248v1458h239v-181h17q47 93 137 146t203 53z" />
    <glyph glyph-name="escyrillic" unicode="&#x441;" horiz-adv-x="1202" 
d="M616 908q-114 0 -186 -94t-71 -265q0 -171 72 -267t199 -96q98 0 160 45t81 130h236q-21 -175 -147 -279t-329 -104q-247 0 -385 151t-138 419t138 418t384 150q206 0 332 -106t145 -284h-236q-18 82 -80 132q-61 50 -175 50z" />
    <glyph glyph-name="tecyrillic" unicode="&#x442;" horiz-adv-x="1070" 
d="M996 1094v-198h-337v-896h-248v896h-337v198h922z" />
    <glyph glyph-name="ucyrillic" unicode="&#x443;" horiz-adv-x="1203" 
d="M282 -397q-77 0 -98 4v203q19 -4 83 -4q136 0 181 141l13 48l-391 1099h272l256 -854h17l255 854h262l-395 -1129q-69 -203 -169 -283t-286 -79z" />
    <glyph glyph-name="efcyrillic" unicode="&#x444;" horiz-adv-x="1618" 
d="M108 546q0 254 158 406t421 157v343h244v-343q265 -7 422 -157t157 -404t-158 -406t-421 -157v-349h-244v349q-265 7 -422 157t-157 404zM1258 548q0 166 -88 261q-88 96 -241 100v-724q151 5 240 101t89 262zM359 546q1 -166 89 -261q88 -96 241 -100v724
q-152 -5 -241 -101t-89 -262z" />
    <glyph glyph-name="hacyrillic" unicode="&#x445;" horiz-adv-x="1169" 
d="M588 377h-17l-224 -377h-267l354 543l-357 551h287l218 -376h17l216 376h273l-353 -541l357 -553h-280z" />
    <glyph glyph-name="tsecyrillic" unicode="&#x446;" horiz-adv-x="1322" 
d="M1271 -285h-228v285h-882v1094h248v-896h447v896h247v-896h168v-483z" />
    <glyph glyph-name="checyrillic" unicode="&#x447;" horiz-adv-x="1232" 
d="M1071 0h-248v474h-17q-108 -113 -286 -113q-178 1 -280 109t-101 291v333h248v-305q0 -99 51 -155t143 -57q92 0 152 37t90 81v399h248v-1094z" />
    <glyph glyph-name="shacyrillic" unicode="&#x448;" horiz-adv-x="1764" 
d="M161 0v1094h248v-896h349v896h248v-896h349v896h248v-1094h-1442z" />
    <glyph glyph-name="shchacyrillic" unicode="&#x449;" horiz-adv-x="1817" 
d="M1767 -285h-228v285h-1378v1094h248v-896h349v896h248v-896h349v896h248v-896h164v-483z" />
    <glyph glyph-name="hardsigncyrillic" unicode="&#x44a;" horiz-adv-x="1321" 
d="M786 569h-181v-371h181q91 0 146 51t55 135t-55 134t-146 51zM815 0h-458v896h-287v198h535v-328h210q191 0 305 -104t113 -279q1 -175 -113 -279t-305 -104z" />
    <glyph glyph-name="yericyrillic" unicode="&#x44b;" horiz-adv-x="1563" 
d="M161 0v1094h248v-328h210q191 0 305 -104t113 -279q1 -175 -113 -279t-305 -104h-458zM590 569h-181v-371h181q92 0 146 51t54 135t-54 134t-146 51zM1154 0v1094h248v-1094h-248z" />
    <glyph glyph-name="softsigncyrillic" unicode="&#x44c;" horiz-adv-x="1132" 
d="M161 0v1094h248v-328h210q191 0 305 -104t113 -279q1 -175 -113 -279t-305 -104h-458zM590 569h-181v-371h181q92 0 146 51t54 135t-54 134t-146 51z" />
    <glyph glyph-name="ereversedcyrillic" unicode="&#x44d;" horiz-adv-x="1216" 
d="M600 -22q-224 0 -351 104t-149 276h237q19 -82 83 -126t171 -45q106 0 180 77t84 209h-441v177h438q-13 118 -87 188t-177 70t-167 -48t-83 -127h-237q22 171 150 277t350 106q223 0 365 -153t142 -415t-142 -416t-366 -154z" />
    <glyph glyph-name="iucyrillic" unicode="&#x44e;" horiz-adv-x="1725" 
d="M1097 186q127 0 196 94t69 266t-70 268q-70 94 -195 94t-195 -94t-70 -268q0 -172 69 -266t196 -94zM1108 -22q-232 0 -368 128t-157 358h-174v-464h-248v1094h248v-432h178q29 214 164 334t361 120t366 -152q139 -152 139 -418q-1 -266 -139 -417t-370 -151z" />
    <glyph glyph-name="iacyrillic" unicode="&#x44f;" horiz-adv-x="1165" 
d="M760 0v366h-143l-256 -366h-284l293 409q-112 31 -176 115t-64 197q0 173 116 273t307 100h451v-1094h-244zM572 554h188v343h-188q-90 1 -144 -47t-53 -126q0 -78 54 -124t143 -46z" />
    <glyph glyph-name="iocyrillic" unicode="&#x451;" horiz-adv-x="1228" 
d="M844 1242q-61 0 -102 40t-41 101t41 101t102 40t102 -40t41 -101t-41 -101t-102 -40zM399 1242q-61 0 -102 40t-41 101t41 101t102 40t102 -40t41 -101t-41 -101t-102 -40zM624 -22q-240 0 -378 150t-138 415t138 419t374 154t368 -146t133 -406v-80h-764v-13
q5 -137 79 -217t195 -79q188 0 244 126h235q-34 -151 -164 -237t-322 -86zM622 919q-112 0 -184 -73t-80 -193h515q-4 122 -72 194q-67 72 -179 72z" />
    <glyph glyph-name="djecyrillic" unicode="&#x452;" horiz-adv-x="1295" 
d="M895 647q0 251 -220 251q-119 0 -187 -72t-68 -191v-635h-248v1263h-144v142h144v112h245v-112h243v-142h-243v-346h17q40 93 126 145t207 52q177 0 277 -107t99 -301v-749q0 -331 -369 -331q-36 0 -60 3v195l33 -1q81 1 115 33t33 107v684z" />
    <glyph glyph-name="gjecyrillic" unicode="&#x453;" horiz-adv-x="986" 
d="M905 896h-489v-896h-248v1094h737v-198zM368 1275l249 347h277l-284 -347h-242z" />
    <glyph glyph-name="ecyrillic" unicode="&#x454;" horiz-adv-x="1205" 
d="M632 -22q-242 0 -383 154t-141 416t141 415t382 153q203 0 329 -106t149 -277h-236q-21 79 -83 127t-164 48t-176 -68q-72 -68 -86 -188h432v-177h-435q7 -133 81 -211t180 -77q211 0 251 171h237q-22 -172 -148 -276t-330 -104z" />
    <glyph glyph-name="dzecyrillic" unicode="&#x455;" horiz-adv-x="1149" 
d="M791 302q0 91 -151 124l-194 45q-158 35 -234 111t-75 212q0 136 122 228q123 94 317 94t310 -82t130 -232h-233q-13 58 -67 92t-140 34t-142 -37t-56 -89t40 -83q40 -30 122 -49l193 -44q158 -36 232 -107t74 -191q0 -158 -130 -254q-129 -96 -335 -96t-328 84t-137 233
h245q37 -129 225 -129q94 0 153 38t59 98z" />
    <glyph glyph-name="icyrillic" unicode="&#x456;" horiz-adv-x="576" 
d="M288 1272q-68 0 -110 38q-43 38 -43 99t43 99q42 38 110 38t110 -38t43 -99q-1 -61 -43 -99t-110 -38zM165 0v1094h247v-1094h-247z" />
    <glyph glyph-name="yicyrillic" unicode="&#x457;" horiz-adv-x="586" 
d="M155 0v1094h247v-1094h-247zM491 1273q-61 0 -102 40q-41 41 -41 101t40 100t102 40t103 -40t41 -100t-41 -101q-41 -40 -102 -40zM92 1273q-61 0 -102 40q-41 41 -41 101t41 100q40 40 102 40t102 -40t41 -100q0 -60 -41 -101q-41 -40 -102 -40z" />
    <glyph glyph-name="jecyrillic" unicode="&#x458;" horiz-adv-x="577" 
d="M288 1272q-68 0 -110 38q-43 38 -43 99t43 99q42 38 110 38t110 -38t43 -99q-1 -61 -43 -99t-110 -38zM165 -37v1131h247v-1135q0 -333 -368 -333q-39 0 -60 3v195l32 -1q82 1 116 33t33 107z" />
    <glyph glyph-name="ljecyrillic" unicode="&#x459;" horiz-adv-x="1808" 
d="M1266 569h-181v-371h181q91 0 146 51t55 135t-55 134t-146 51zM156 -11q-70 0 -104 12v220q26 -7 60 -7q76 0 110 80t43 229l36 571h784v-328h210q191 0 305 -104t113 -279q1 -175 -113 -279t-305 -104h-458v896h-320l-27 -387q-25 -390 -197 -484q-67 -36 -137 -36z" />
    <glyph glyph-name="njecyrillic" unicode="&#x45a;" horiz-adv-x="1830" 
d="M859 0v494h-450v-494h-248v1094h248v-405h450v405h247v-401h217q189 0 301 -94t111 -253q1 -158 -111 -252t-301 -94h-464zM1303 498h-197v-303h197q85 0 136 42q51 41 51 109t-52 110t-135 42z" />
    <glyph glyph-name="tshecyrillic" unicode="&#x45b;" horiz-adv-x="1294" 
d="M894 647q0 251 -220 251q-120 0 -187 -72t-67 -191v-635h-248v1263h-144v142h144v112h244v-112h243v-142h-243v-346h18q39 93 125 145t207 52q176 0 276 -107t100 -301v-706h-248v647z" />
    <glyph glyph-name="kjecyrillic" unicode="&#x45c;" horiz-adv-x="1190" 
d="M409 656h48l367 438h286l-449 -505l470 -589h-301l-371 470h-50v-470h-248v1094h248v-438zM457 1275l249 347h277l-284 -347h-242z" />
    <glyph glyph-name="ushortcyrillic" unicode="&#x45e;" horiz-adv-x="1203" 
d="M282 -397q-77 0 -98 4v203q19 -4 83 -4q136 0 181 141l13 48l-391 1099h272l256 -854h17l255 854h262l-395 -1129q-69 -203 -169 -283t-286 -79zM240 1594h196q2 -83 48 -138t123 -55t123 55t49 138h195q0 -150 -102 -246t-265 -96t-265 96t-102 246z" />
    <glyph glyph-name="dzhecyrillic" unicode="&#x45f;" horiz-adv-x="1274" 
d="M1113 0h-362v-285h-228v285h-362v1094h248v-896h457v896h247v-1094z" />
    <glyph glyph-name="Geupturncyrillic" unicode="&#x490;" horiz-adv-x="1201" 
d="M447 1219v-1219h-259v1443h662v285h241v-509h-644z" />
    <glyph glyph-name="geupturncyrillic" unicode="&#x491;" horiz-adv-x="988" 
d="M898 896h-489v-896h-248v1094h509v285h228v-483z" />
    <glyph glyph-name="baht" unicode="&#xe3f;" horiz-adv-x="1383" 
d="M1227 410q0 -190 -132 -300t-363 -110h-28v-136h-138v136h-410v1443h410v150h138v-150h13q206 -1 323 -97t117 -263q0 -114 -74 -203t-183 -106v-18q146 -14 236 -110t91 -236zM908 1037q0 85 -53 137t-151 62v-395q204 29 204 196zM410 1238v-402h156v402h-156zM410 205
h156v445h-156v-445zM964 430q0 205 -260 219v-444q260 11 260 225z" />
    <glyph glyph-name="Aringbelow" unicode="&#x1e00;" horiz-adv-x="1456" 
d="M720 -446q48 0 80 32t32 78q0 48 -32 80t-80 31q-48 1 -80 -31t-31 -80q-1 -48 31 -78q32 -32 80 -32zM721 -571q-101 -1 -171 67t-70 169t70 168t171 67q102 0 171 -67t69 -168t-69 -169t-171 -67zM714 1168l-198 -595h411l-196 595h-17zM1109 0l-122 369h-531
l-124 -369h-261l512 1443h290l513 -1443h-277z" />
    <glyph glyph-name="aringbelow" unicode="&#x1e01;" horiz-adv-x="1179" 
d="M574 -446q48 0 80 32t32 78q0 48 -32 80t-80 31q-48 1 -80 -31t-31 -80q-1 -48 31 -78q32 -32 80 -32zM575 -571q-101 -1 -171 67t-70 169t70 168t171 67q102 0 171 -67t69 -168t-69 -169t-171 -67zM582 914q-180 0 -215 -114h-234q15 144 141 230t328 86t316 -97
t115 -272v-747h-239v150h-17q-45 -80 -131 -124t-193 -44q-160 0 -261 90t-101 238q-1 148 107 232t308 96l282 17v92q0 81 -53 124t-153 43zM540 177q98 1 173 65t75 159v87l-247 -16q-204 -13 -204 -148q1 -68 53 -108t150 -39z" />
    <glyph glyph-name="Bdotaccent" unicode="&#x1e02;" horiz-adv-x="1393" 
d="M436 205h300q143 -1 217 57t74 167q0 221 -301 221h-290v-445zM436 1238v-402h249q137 0 209 52t71 148q0 96 -65 149t-182 53h-282zM795 0h-617v1443h603q205 -1 322 -97t117 -263q0 -114 -74 -203t-183 -106v-18q146 -14 237 -110t91 -236q-1 -190 -133 -300t-363 -110
zM628 1578q-62 0 -103 42t-41 102q0 62 40 104t104 41q62 1 103 -41t41 -104t-41 -102q-41 -42 -103 -42z" />
    <glyph glyph-name="bdotaccent" unicode="&#x1e03;" horiz-adv-x="1306" 
d="M682 901q-128 1 -202 -95t-74 -260t74 -258q74 -95 202 -95q128 1 200 95t72 259t-72 259t-200 95zM760 -18q-115 0 -205 50t-137 141h-17v-173h-239v1517h248v-597h17q43 88 132 140t201 52q208 0 328 -152t121 -412q0 -262 -121 -414t-328 -152zM286 1652
q-62 0 -103 42t-41 102q0 62 40 104t104 41q62 1 103 -41t41 -104t-41 -102q-41 -42 -103 -42z" />
    <glyph glyph-name="Bdotbelow" unicode="&#x1e04;" horiz-adv-x="1393" 
d="M436 205h300q143 -1 217 57t74 167q0 221 -301 221h-290v-445zM436 1238v-402h249q137 0 209 52t71 148q0 96 -65 149t-182 53h-282zM795 0h-617v1443h603q205 -1 322 -97t117 -263q0 -114 -74 -203t-183 -106v-18q146 -14 237 -110t91 -236q-1 -190 -133 -300t-363 -110
zM629 -413q-63 0 -103 38t-41 95q1 57 41 95t103 38t103 -38t41 -95q-1 -57 -41 -95t-103 -38z" />
    <glyph glyph-name="bdotbelow" unicode="&#x1e05;" horiz-adv-x="1306" 
d="M682 901q-128 1 -202 -95t-74 -260t74 -258q74 -95 202 -95q128 1 200 95t72 259t-72 259t-200 95zM760 -18q-115 0 -205 50t-137 141h-17v-173h-239v1517h248v-597h17q43 88 132 140t201 52q208 0 328 -152t121 -412q0 -262 -121 -414t-328 -152zM657 -413
q-63 0 -103 38t-41 95q1 57 41 95t103 38t103 -38t41 -95q-1 -57 -41 -95t-103 -38z" />
    <glyph glyph-name="Blinebelow" unicode="&#x1e06;" horiz-adv-x="1393" 
d="M989 -382h-720v164h720v-164zM436 205h300q143 -1 217 57t74 167q0 221 -301 221h-290v-445zM436 1238v-402h249q137 0 209 52t71 148q0 96 -65 149t-182 53h-282zM795 0h-617v1443h603q205 -1 322 -97t117 -263q0 -114 -74 -203t-183 -106v-18q146 -14 237 -110t91 -236
q-1 -190 -133 -300t-363 -110z" />
    <glyph glyph-name="blinebelow" unicode="&#x1e07;" horiz-adv-x="1306" 
d="M682 901q-128 1 -202 -95t-74 -260t74 -258q74 -95 202 -95q128 1 200 95t72 259t-72 259t-200 95zM760 -18q-115 0 -205 50t-137 141h-17v-173h-239v1517h248v-597h17q43 88 132 140t201 52q208 0 328 -152t121 -412q0 -262 -121 -414t-328 -152zM1017 -382h-720v164
h720v-164z" />
    <glyph glyph-name="Ccedillaacute" unicode="&#x1e08;" horiz-adv-x="1499" 
d="M1026 -302q0 -86 -68 -138q-68 -54 -174 -54t-163 18v124q44 -14 118 -14q114 0 114 64q0 32 -32 46t-105 14h-59v104l43 106q-272 26 -428 226t-155 540q-1 339 177 542t485 203q246 -1 417 -145t194 -370h-254q-27 130 -124 208t-233 77q-184 1 -291 -141t-107 -386
t107 -386t292 -142q137 0 234 72t123 192h254q-23 -204 -167 -336t-364 -154l-37 -91q203 -9 203 -179zM1222 1897l-321 -310h-250l288 310h283z" />
    <glyph glyph-name="ccedillaacute" unicode="&#x1e09;" horiz-adv-x="1182" 
d="M665 -123q203 -9 203 -179q0 -86 -68 -138q-68 -54 -174 -54t-163 18v124q44 -14 118 -14q114 0 114 64q0 32 -32 46t-105 14h-59v104l49 120q-214 22 -332 170t-118 407q0 257 138 407t384 150q206 0 332 -106t145 -284h-236q-18 82 -80 132q-61 50 -175 50t-186 -94
t-71 -265q0 -171 72 -267t199 -96q98 0 160 45t81 130h236q-18 -155 -120 -256t-269 -122zM1005 1622l-284 -347h-242l249 347h277z" />
    <glyph glyph-name="Ddotaccent" unicode="&#x1e0a;" horiz-adv-x="1514" 
d="M436 1220v-997h249q216 0 333 130q117 131 117 369q-1 238 -119 368t-331 130h-249zM178 1443h541q323 1 501 -187t178 -532t-178 -534t-501 -190h-541v1443zM623 1578q-62 0 -103 42t-41 102q1 62 41 104t102 41q62 1 104 -41q41 -42 41 -104t-41 -102q-41 -42 -103 -42
z" />
    <glyph glyph-name="ddotaccent" unicode="&#x1e0b;" horiz-adv-x="1306" 
d="M625 901q-127 -1 -200 -95t-73 -260t72 -259q72 -94 201 -94q127 1 201 95t74 258t-74 260q-74 95 -201 95zM548 -18q-208 0 -329 152t-121 413t122 413t328 152q112 0 200 -51t132 -141h17v597h248v-1517h-240v173h-17q-46 -91 -136 -141t-204 -50zM1021 1652
q-62 0 -103 42t-41 102q1 62 41 104t102 41q62 1 104 -41q41 -42 41 -104t-41 -102q-41 -42 -103 -42z" />
    <glyph glyph-name="Ddotbelow" unicode="&#x1e0c;" horiz-adv-x="1514" 
d="M436 1220v-997h249q216 0 333 130q117 131 117 369q-1 238 -119 368t-331 130h-249zM178 1443h541q323 1 501 -187t178 -532t-178 -534t-501 -190h-541v1443zM623 -413q-63 0 -103 38t-41 95q1 57 41 95t103 38t103 -38t41 -95q-1 -57 -41 -95t-103 -38z" />
    <glyph glyph-name="ddotbelow" unicode="&#x1e0d;" horiz-adv-x="1306" 
d="M625 901q-127 -1 -200 -95t-73 -260t72 -259q72 -94 201 -94q127 1 201 95t74 258t-74 260q-74 95 -201 95zM548 -18q-208 0 -329 152t-121 413t122 413t328 152q112 0 200 -51t132 -141h17v597h248v-1517h-240v173h-17q-46 -91 -136 -141t-204 -50zM688 -413
q-64 0 -104 38t-40 95t40 95t104 38t104 -38t40 -95t-40 -95t-104 -38z" />
    <glyph glyph-name="Dlinebelow" unicode="&#x1e0e;" horiz-adv-x="1514" 
d="M436 1220v-997h249q216 0 333 130q117 131 117 369q-1 238 -119 368t-331 130h-249zM178 1443h541q323 1 501 -187t178 -532t-178 -534t-501 -190h-541v1443zM983 -382h-720v164h720v-164z" />
    <glyph glyph-name="dlinebelow" unicode="&#x1e0f;" horiz-adv-x="1306" 
d="M625 901q-127 -1 -200 -95t-73 -260t72 -259q72 -94 201 -94q127 1 201 95t74 258t-74 260q-74 95 -201 95zM548 -18q-208 0 -329 152t-121 413t122 413t328 152q112 0 200 -51t132 -141h17v597h248v-1517h-240v173h-17q-46 -91 -136 -141t-204 -50zM1048 -382h-720v164
h720v-164z" />
    <glyph glyph-name="Dcommaaccent" unicode="&#x1e10;" horiz-adv-x="1514" 
d="M436 1220v-997h249q216 0 333 130q117 131 117 369q-1 238 -119 368t-331 130h-249zM178 1443h541q323 1 501 -187t178 -532t-178 -534t-501 -190h-541v1443zM620 -512h-225l121 364h253z" />
    <glyph glyph-name="dcommaaccent" unicode="&#x1e11;" horiz-adv-x="1306" 
d="M625 901q-127 -1 -200 -95t-73 -260t72 -259q72 -94 201 -94q127 1 201 95t74 258t-74 260q-74 95 -201 95zM548 -18q-208 0 -329 152t-121 413t122 413t328 152q112 0 200 -51t132 -141h17v597h248v-1517h-240v173h-17q-46 -91 -136 -141t-204 -50zM685 -512h-225
l121 364h253z" />
    <glyph glyph-name="Dcircumflexbelow" unicode="&#x1e12;" horiz-adv-x="1514" 
d="M747 -148l291 -284h-254l-152 160h-18l-152 -160h-254l291 284h248zM436 1220v-997h249q216 0 333 130q117 131 117 369q-1 238 -119 368t-331 130h-249zM178 1443h541q323 1 501 -187t178 -532t-178 -534t-501 -190h-541v1443z" />
    <glyph glyph-name="dcircumflexbelow" unicode="&#x1e13;" horiz-adv-x="1306" 
d="M812 -148l291 -284h-254l-152 160h-18l-152 -160h-254l291 284h248zM625 901q-127 -1 -200 -95t-73 -260t72 -259q72 -94 201 -94q127 1 201 95t74 258t-74 260q-74 95 -201 95zM548 -18q-208 0 -329 152t-121 413t122 413t328 152q112 0 200 -51t132 -141h17v597h248
v-1517h-240v173h-17q-46 -91 -136 -141t-204 -50z" />
    <glyph glyph-name="Emacrongrave" unicode="&#x1e14;" horiz-adv-x="1254" 
d="M1112 223v-223h-934v1443h934v-223h-676v-383h639v-210h-639v-404h676zM761 1900h-232l-209 249h260zM1005 1614h-720v161h720v-161z" />
    <glyph glyph-name="emacrongrave" unicode="&#x1e15;" horiz-adv-x="1208" 
d="M968 1290h-712v164h712v-164zM744 1607h-229l-242 301h264zM614 -22q-240 0 -378 150t-138 415t138 419t374 154t368 -146t133 -406v-80h-764v-13q5 -137 79 -217t195 -79q188 0 244 126h235q-34 -151 -164 -237t-322 -86zM612 919q-112 0 -184 -73t-80 -193h515
q-4 122 -72 194q-67 72 -179 72z" />
    <glyph glyph-name="Emacronacute" unicode="&#x1e16;" horiz-adv-x="1254" 
d="M1112 223v-223h-934v1443h934v-223h-676v-383h639v-210h-639v-404h676zM529 1899l181 249h260l-209 -249h-232zM1005 1613h-720v161h720v-161z" />
    <glyph glyph-name="emacronacute" unicode="&#x1e17;" horiz-adv-x="1208" 
d="M968 1290h-712v164h712v-164zM480 1607l207 301h264l-242 -301h-229zM614 -22q-240 0 -378 150t-138 415t138 419t374 154t368 -146t133 -406v-80h-764v-13q5 -137 79 -217t195 -79q188 0 244 126h235q-34 -151 -164 -237t-322 -86zM612 919q-112 0 -184 -73t-80 -193
h515q-4 122 -72 194q-67 72 -179 72z" />
    <glyph glyph-name="Ecircumflexbelow" unicode="&#x1e18;" horiz-adv-x="1254" 
d="M769 -148l291 -284h-254l-152 160h-18l-152 -160h-254l291 284h248zM1112 223v-223h-934v1443h934v-223h-676v-383h639v-210h-639v-404h676z" />
    <glyph glyph-name="ecircumflexbelow" unicode="&#x1e19;" horiz-adv-x="1208" 
d="M739 -148l291 -284h-254l-152 160h-18l-152 -160h-254l291 284h248zM614 -22q-240 0 -378 150t-138 415t138 419t374 154t368 -146t133 -406v-80h-764v-13q5 -137 79 -217t195 -79q188 0 244 126h235q-34 -151 -164 -237t-322 -86zM612 919q-112 0 -184 -73t-80 -193h515
q-4 122 -72 194q-67 72 -179 72z" />
    <glyph glyph-name="Etildebelow" unicode="&#x1e1a;" horiz-adv-x="1254" 
d="M1112 223v-223h-934v1443h934v-223h-676v-383h639v-210h-639v-404h676zM504 -281q-84 0 -88 -129h-166q0 138 65 213t164 75t163 -51q26 -21 65 -57t79 -37q84 0 89 127h165q0 -134 -66 -210t-160 -76q-95 0 -159 51q-26 21 -49 43q-55 52 -102 51z" />
    <glyph glyph-name="etildebelow" unicode="&#x1e1b;" horiz-adv-x="1208" 
d="M614 -22q-240 0 -378 150t-138 415t138 419t374 154t368 -146t133 -406v-80h-764v-13q5 -137 79 -217t195 -79q188 0 244 126h235q-34 -151 -164 -237t-322 -86zM612 919q-112 0 -184 -73t-80 -193h515q-4 122 -72 194q-67 72 -179 72zM220 -410q0 138 65 213t164 75
t163 -51q26 -21 65 -57t79 -37q84 0 89 127h165q0 -134 -66 -210t-160 -76q-95 0 -159 51q-26 21 -49 43q-55 52 -102 51q-84 0 -88 -129h-166z" />
    <glyph glyph-name="Ecedillabreve" unicode="&#x1e1c;" horiz-adv-x="1254" 
d="M689 -123q203 -9 203 -179q0 -86 -68 -138q-68 -54 -174 -54t-163 18v124q44 -14 118 -14q114 0 114 64q0 32 -32 46t-105 14h-59v104l56 138h-401v1443h934v-223h-676v-383h639v-210h-639v-404h676v-223h-374zM1032 1900q0 -146 -104 -234t-283 -88t-283 88t-104 234
h188q2 -77 56 -122t143 -45t143 45t56 122h188z" />
    <glyph glyph-name="ecedillabreve" unicode="&#x1e1d;" horiz-adv-x="1208" 
d="M659 -123q203 -9 203 -179q0 -86 -68 -138q-68 -54 -174 -54t-163 18v124q44 -14 118 -14q114 0 114 64q0 32 -32 46t-105 14h-59v104l49 120q-210 22 -327 170t-117 402t138 408t374 154t368 -146t133 -406v-80h-764v-13q5 -137 79 -217t195 -79q188 0 244 126h235
q-32 -131 -136 -215t-262 -103zM612 919q-112 0 -184 -73t-80 -193h515q-4 122 -72 194q-67 72 -179 72zM998 1585q0 -152 -104 -247t-283 -95t-283 95t-104 247h188q2 -84 54 -135t145 -51t145 51t54 135h188z" />
    <glyph glyph-name="Fdotaccent" unicode="&#x1e1e;" horiz-adv-x="1205" 
d="M436 0h-258v1443h920v-223h-662v-420h605v-215h-605v-585zM638 1578q-62 0 -103 42t-41 102q0 62 40 104t104 41q62 1 103 -41t41 -104t-41 -102q-41 -42 -103 -42z" />
    <glyph glyph-name="fdotaccent" unicode="&#x1e1f;" horiz-adv-x="791" 
d="M232 0v889h-179v198h179v107q0 164 92 239t275 75q57 0 125 -11v-185q-42 8 -108 8t-102 -35q-38 -35 -38 -110v-88h238v-198h-235v-889h-247zM450 1628q-62 0 -103 42t-41 102q0 62 40 104t104 41q62 1 103 -41t41 -104t-41 -102q-41 -42 -103 -42z" />
    <glyph glyph-name="Gmacron" unicode="&#x1e20;" horiz-adv-x="1547" 
d="M1151 1629h-720v164h720v-164zM1426 578q0 -282 -171 -448t-473 -166t-483 204q-182 204 -182 552t183 554t491 205q250 0 419 -132t204 -353h-257q-39 123 -133 189t-233 66q-189 0 -299 -141q-110 -142 -111 -386q1 -244 113 -386t291 -142t282 92t106 241l1 30h-347
v202h599v-181z" />
    <glyph glyph-name="gmacron" unicode="&#x1e21;" horiz-adv-x="1295" 
d="M637 -416q-225 0 -355 85t-145 227h249q12 -57 76 -90t177 -33q114 0 185 57t71 160v207h-17q-48 -89 -134 -135t-200 -46q-206 0 -327 148t-121 397q0 251 122 401t330 150q112 0 203 -52t136 -141h17v175h239v-1098q0 -190 -141 -301t-365 -111zM899 559q0 157 -74 249
q-75 92 -203 93q-128 0 -200 -92t-71 -250q0 -157 71 -249t200 -92t203 92t74 249zM981 1305h-712v164h712v-164z" />
    <glyph glyph-name="Hdotaccent" unicode="&#x1e22;" horiz-adv-x="1573" 
d="M787 1578q-62 0 -103 42t-41 102q1 62 41 104t102 41q62 1 104 -41q41 -42 41 -104t-41 -102q-41 -42 -103 -42zM1395 0h-257v623h-702v-623h-258v1443h258v-597h702v597h257v-1443z" />
    <glyph glyph-name="hdotaccent" unicode="&#x1e23;" horiz-adv-x="1274" 
d="M284 1652q-62 0 -103 42t-41 102q0 62 40 104t104 41q62 1 103 -41t41 -104t-41 -102q-41 -42 -103 -42zM884 647q0 251 -220 251q-120 0 -187 -72t-67 -191v-635h-248v1517h244v-600h18q39 93 125 145t207 52q176 0 276 -107t100 -301v-706h-248v647z" />
    <glyph glyph-name="Hdotbelow" unicode="&#x1e24;" horiz-adv-x="1573" 
d="M787 -413q-63 0 -103 38t-41 95q1 57 41 95t103 38t103 -38t41 -95q-1 -57 -41 -95t-103 -38zM1395 0h-257v623h-702v-623h-258v1443h258v-597h702v597h257v-1443z" />
    <glyph glyph-name="hdotbelow" unicode="&#x1e25;" horiz-adv-x="1274" 
d="M652 -413q-64 0 -104 38t-40 95t40 95t104 38t104 -38t40 -95t-40 -95t-104 -38zM884 647q0 251 -220 251q-120 0 -187 -72t-67 -191v-635h-248v1517h244v-600h18q39 93 125 145t207 52q176 0 276 -107t100 -301v-706h-248v647z" />
    <glyph glyph-name="Hdieresis" unicode="&#x1e26;" horiz-adv-x="1573" 
d="M1009 1577q-61 1 -102 41t-41 100t41 100t102 41q61 -1 102 -41t41 -100t-41 -100t-102 -41zM564 1577q-61 1 -102 41t-41 100t41 100t102 41q61 -1 102 -41t41 -100t-41 -100t-102 -41zM1395 0h-257v623h-702v-623h-258v1443h258v-597h702v597h257v-1443z" />
    <glyph glyph-name="hdieresis" unicode="&#x1e27;" horiz-adv-x="1274" 
d="M506 1651q-61 1 -102 41t-41 100t41 100t102 41q61 -1 102 -41t41 -100t-41 -100t-102 -41zM61 1651q-61 1 -102 41t-41 100t41 100t102 41q61 -1 102 -41t41 -100t-41 -100t-102 -41zM884 647q0 251 -220 251q-120 0 -187 -72t-67 -191v-635h-248v1517h244v-600h18
q39 93 125 145t207 52q176 0 276 -107t100 -301v-706h-248v647z" />
    <glyph glyph-name="Hcedilla" unicode="&#x1e28;" horiz-adv-x="1573" 
d="M385 -123q203 -9 203 -179q0 -86 -68 -138q-68 -54 -174 -54t-163 18v124q44 -14 118 -14q114 0 114 64q0 32 -32 46t-104 14h-60v104l57 138h-98v1443h258v-597h702v597h257v-1443h-257v623h-702v-619z" />
    <glyph glyph-name="hcedilla" unicode="&#x1e29;" horiz-adv-x="1274" 
d="M884 647q0 251 -220 251q-120 0 -187 -72t-67 -191v-631l-54 -131q96 -1 150 -47t55 -132t-67 -138q-68 -54 -172 -54t-166 18v125q40 -14 118 -14q114 0 114 63q0 32 -32 46t-105 14h-59v104l59 142h-89v1517h244v-600h18q39 93 125 145t207 52q176 0 276 -107t100 -301
v-706h-248v647z" />
    <glyph glyph-name="Hbrevebelow" unicode="&#x1e2a;" horiz-adv-x="1573" 
d="M1395 0h-257v623h-702v-623h-258v1443h258v-597h702v597h257v-1443zM400 -112h190q0 -74 53 -118t144 -44t144 44t53 118h190q0 -138 -104 -225t-283 -87t-283 87t-104 225z" />
    <glyph glyph-name="hbrevebelow" unicode="&#x1e2b;" horiz-adv-x="1274" 
d="M884 647q0 251 -220 251q-120 0 -187 -72t-67 -191v-635h-248v1517h244v-600h18q39 93 125 145t207 52q176 0 276 -107t100 -301v-706h-248v647zM265 -112h190q0 -74 53 -118t144 -44t144 44t53 118h190q0 -138 -104 -225t-283 -87t-283 87t-104 225z" />
    <glyph glyph-name="Itildebelow" unicode="&#x1e2c;" horiz-adv-x="614" 
d="M166 -281q-84 0 -88 -129h-166q0 138 65 213t164 75t163 -51q26 -21 65 -58t79 -36q84 0 89 127h165q0 -134 -66 -210t-160 -76q-95 0 -159 51q-26 21 -49 43q-55 52 -102 51zM436 0h-258v1443h258v-1443z" />
    <glyph glyph-name="itildebelow" unicode="&#x1e2d;" horiz-adv-x="557" 
d="M137 -281q-84 0 -88 -129h-166q0 138 65 213t164 75q98 0 162 -51q26 -21 66 -57q39 -36 79 -37q84 0 89 127h165q1 -134 -65 -210t-161 -76t-159 51q-26 21 -49 43q-55 52 -102 51zM278 1272q-68 0 -110 38q-43 38 -43 99t43 99q42 38 110 38t110 -38t43 -99
q-1 -61 -43 -99t-110 -38zM155 0v1094h247v-1094h-247z" />
    <glyph glyph-name="Idieresisacute" unicode="&#x1e2e;" horiz-adv-x="614" 
d="M529 1577q-61 1 -102 41t-41 100t41 100t102 41q61 -1 102 -41t41 -100t-41 -100t-102 -41zM84 1577q-61 1 -102 41t-41 100t41 100t102 41q61 -1 102 -41t41 -100t-41 -100t-102 -41zM199 1914l189 235h268l-241 -235h-216zM436 0h-258v1443h258v-1443z" />
    <glyph glyph-name="idieresisacute" unicode="&#x1e2f;" horiz-adv-x="557" 
d="M155 0v1094h247v-1094h-247zM500 1246q-61 0 -102 40t-41 101t41 101t102 40t102 -40t41 -101t-41 -101t-102 -40zM55 1246q-61 0 -102 40t-41 101t41 101t102 40t102 -40t41 -101t-41 -101t-102 -40zM161 1617l200 311h250l-236 -311h-214z" />
    <glyph glyph-name="Kacute" unicode="&#x1e30;" horiz-adv-x="1415" 
d="M436 0h-258v1443h258v-664h17l569 664h296l-545 -629l588 -814h-315l-456 637l-154 -177v-460zM556 1585l288 310h283l-321 -310h-250z" />
    <glyph glyph-name="kacute" unicode="&#x1e31;" horiz-adv-x="1188" 
d="M410 0h-248v1517h248v-869h17l404 446h288l-436 -469l466 -625h-300l-351 469l-88 -88v-381zM158 1659l288 310h283l-321 -310h-250z" />
    <glyph glyph-name="Kdotbelow" unicode="&#x1e32;" horiz-adv-x="1415" 
d="M436 0h-258v1443h258v-664h17l569 664h296l-545 -629l588 -814h-315l-456 637l-154 -177v-460zM684 -413q-64 0 -104 38t-40 95t40 95t104 38t104 -38t40 -95t-40 -95t-104 -38z" />
    <glyph glyph-name="kdotbelow" unicode="&#x1e33;" horiz-adv-x="1188" 
d="M410 0h-248v1517h248v-869h17l404 446h288l-436 -469l466 -625h-300l-351 469l-88 -88v-381zM633 -413q-63 0 -103 38t-41 95q1 57 41 95t103 38t103 -38t41 -95q-1 -57 -41 -95t-103 -38z" />
    <glyph glyph-name="Klinebelow" unicode="&#x1e34;" horiz-adv-x="1415" 
d="M1044 -382h-720v164h720v-164zM436 0h-258v1443h258v-664h17l569 664h296l-545 -629l588 -814h-315l-456 637l-154 -177v-460z" />
    <glyph glyph-name="klinebelow" unicode="&#x1e35;" horiz-adv-x="1188" 
d="M993 -382h-720v164h720v-164zM410 0h-248v1517h248v-869h17l404 446h288l-436 -469l466 -625h-300l-351 469l-88 -88v-381z" />
    <glyph glyph-name="Ldotbelow" unicode="&#x1e36;" horiz-adv-x="1198" 
d="M1098 226v-226h-920v1443h258v-1217h662zM635 -413q-63 0 -103 38t-41 95q1 57 41 95t103 38t103 -38t41 -95q-1 -57 -41 -95t-103 -38z" />
    <glyph glyph-name="ldotbelow" unicode="&#x1e37;" horiz-adv-x="571" 
d="M162 0v1517h248v-1517h-248zM286 -413q-64 0 -104 38t-40 95t40 95t104 38t104 -38t40 -95t-40 -95t-104 -38z" />
    <glyph glyph-name="Ldotbelowmacron" unicode="&#x1e38;" horiz-adv-x="1198" 
d="M667 1628h-720v164h720v-164zM1098 226v-226h-920v1443h258v-1217h662zM635 -413q-63 0 -103 38t-41 95q1 57 41 95t103 38t103 -38t41 -95q-1 -57 -41 -95t-103 -38z" />
    <glyph glyph-name="ldotbelowmacron" unicode="&#x1e39;" horiz-adv-x="571" 
d="M646 1702h-720v164h720v-164zM162 0v1517h248v-1517h-248zM286 -413q-64 0 -104 38t-40 95t40 95t104 38t104 -38t40 -95t-40 -95t-104 -38z" />
    <glyph glyph-name="Llinebelow" unicode="&#x1e3a;" horiz-adv-x="1198" 
d="M1098 226v-226h-920v1443h258v-1217h662zM995 -382h-720v164h720v-164z" />
    <glyph glyph-name="llinebelow" unicode="&#x1e3b;" horiz-adv-x="571" 
d="M162 0v1517h248v-1517h-248zM646 -382h-720v164h720v-164z" />
    <glyph glyph-name="Lcircumflexbelow" unicode="&#x1e3c;" horiz-adv-x="1198" 
d="M759 -148l291 -284h-254l-152 160h-18l-152 -160h-254l291 284h248zM1098 226v-226h-920v1443h258v-1217h662z" />
    <glyph glyph-name="lcircumflexbelow" unicode="&#x1e3d;" horiz-adv-x="571" 
d="M410 -148l291 -284h-254l-152 160h-18l-152 -160h-254l291 284h248zM162 0v1517h248v-1517h-248z" />
    <glyph glyph-name="Macute" unicode="&#x1e3e;" horiz-adv-x="1846" 
d="M418 0h-240v1443h302l434 -1051h18l434 1051h302v-1443h-240v1015h-14l-399 -959h-184l-399 959h-14v-1015zM795 1585l288 310h283l-321 -310h-250z" />
    <glyph glyph-name="macute" unicode="&#x1e3f;" horiz-adv-x="1860" 
d="M152 0v1094h239v-177h17q35 95 115 147t190 52t188 -52t113 -147h17q41 91 130 145t202 54q163 0 257 -97t94 -267v-752h-247v689q0 211 -200 211q-96 0 -155 -62t-59 -157v-681h-241v707q0 89 -53 141t-145 52t-153 -67t-61 -168v-665h-248zM793 1275l249 347h277
l-284 -347h-242z" />
    <glyph glyph-name="Mdotaccent" unicode="&#x1e40;" horiz-adv-x="1846" 
d="M418 0h-240v1443h302l434 -1051h18l434 1051h302v-1443h-240v1015h-14l-399 -959h-184l-399 959h-14v-1015zM923 1578q-62 0 -103 42t-41 102q1 62 41 104t102 41q62 1 104 -41q41 -42 41 -104t-41 -102q-41 -42 -103 -42z" />
    <glyph glyph-name="mdotaccent" unicode="&#x1e41;" horiz-adv-x="1860" 
d="M152 0v1094h239v-177h17q35 95 115 147t190 52t188 -52t113 -147h17q41 91 130 145t202 54q163 0 257 -97t94 -267v-752h-247v689q0 211 -200 211q-96 0 -155 -62t-59 -157v-681h-241v707q0 89 -53 141t-145 52t-153 -67t-61 -168v-665h-248zM933 1281q-65 0 -107 43
t-42 106q0 64 42 106t106 42t107 -43t43 -105t-42 -106q-42 -43 -107 -43z" />
    <glyph glyph-name="Mdotbelow" unicode="&#x1e42;" horiz-adv-x="1846" 
d="M418 0h-240v1443h302l434 -1051h18l434 1051h302v-1443h-240v1015h-14l-399 -959h-184l-399 959h-14v-1015zM923 -413q-63 0 -103 38t-41 95q1 57 41 95t103 38t103 -38t41 -95q-1 -57 -41 -95t-103 -38z" />
    <glyph glyph-name="mdotbelow" unicode="&#x1e43;" horiz-adv-x="1860" 
d="M152 0v1094h239v-177h17q35 95 115 147t190 52t188 -52t113 -147h17q41 91 130 145t202 54q163 0 257 -97t94 -267v-752h-247v689q0 211 -200 211q-96 0 -155 -62t-59 -157v-681h-241v707q0 89 -53 141t-145 52t-153 -67t-61 -168v-665h-248zM933 -413q-63 0 -103 38
t-41 95q1 57 41 95t103 38t103 -38t41 -95q-1 -57 -41 -95t-103 -38z" />
    <glyph glyph-name="Ndotaccent" unicode="&#x1e44;" horiz-adv-x="1554" 
d="M427 0h-249v1443h224l708 -981h17v981h248v-1443h-223l-708 982h-17v-982zM774 1578q-62 0 -103 42t-41 102q0 62 40 104t104 41q62 1 103 -41t41 -104t-41 -102q-41 -42 -103 -42z" />
    <glyph glyph-name="ndotaccent" unicode="&#x1e45;" horiz-adv-x="1252" 
d="M1110 708v-708h-248v649q0 251 -221 251q-111 0 -176 -71t-65 -192v-637h-248v1094h239v-175h17q84 197 325 197q181 0 279 -106t98 -302zM636 1281q-64 0 -106 43t-43 106q1 64 43 106t106 42t106 -43t43 -105q-1 -62 -43 -106q-42 -43 -106 -43z" />
    <glyph glyph-name="Ndotbelow" unicode="&#x1e46;" horiz-adv-x="1554" 
d="M427 0h-249v1443h224l708 -981h17v981h248v-1443h-223l-708 982h-17v-982zM774 -413q-64 0 -104 38t-40 95t40 95t104 38t104 -38t40 -95t-40 -95t-104 -38z" />
    <glyph glyph-name="ndotbelow" unicode="&#x1e47;" horiz-adv-x="1252" 
d="M1110 708v-708h-248v649q0 251 -221 251q-111 0 -176 -71t-65 -192v-637h-248v1094h239v-175h17q84 197 325 197q181 0 279 -106t98 -302zM636 -413q-64 0 -104 38t-40 95t40 95t104 38t104 -38t40 -95t-40 -95t-104 -38z" />
    <glyph glyph-name="Nlinebelow" unicode="&#x1e48;" horiz-adv-x="1554" 
d="M427 0h-249v1443h224l708 -981h17v981h248v-1443h-223l-708 982h-17v-982zM1134 -382h-720v164h720v-164z" />
    <glyph glyph-name="nlinebelow" unicode="&#x1e49;" horiz-adv-x="1252" 
d="M1110 708v-708h-248v649q0 251 -221 251q-111 0 -176 -71t-65 -192v-637h-248v1094h239v-175h17q84 197 325 197q181 0 279 -106t98 -302zM996 -382h-720v164h720v-164z" />
    <glyph glyph-name="Ncircumflexbelow" unicode="&#x1e4a;" horiz-adv-x="1554" 
d="M898 -148l291 -284h-254l-152 160h-18l-152 -160h-254l291 284h248zM427 0h-249v1443h224l708 -981h17v981h248v-1443h-223l-708 982h-17v-982z" />
    <glyph glyph-name="ncircumflexbelow" unicode="&#x1e4b;" horiz-adv-x="1252" 
d="M760 -148l291 -284h-254l-152 160h-18l-152 -160h-254l291 284h248zM1110 708v-708h-248v649q0 251 -221 251q-111 0 -176 -71t-65 -192v-637h-248v1094h239v-175h17q84 197 325 197q181 0 279 -106t98 -302z" />
    <glyph glyph-name="Otildeacute" unicode="&#x1e4c;" horiz-adv-x="1599" 
d="M1189 1844q0 -118 -67 -192t-163 -74q-97 0 -151 44q-24 18 -58 48q-35 31 -82 31q-83 0 -89 -110h-166q1 123 67 195t162 73q96 0 152 -43q24 -18 57 -49q34 -31 83 -31q81 0 89 108h166zM730 1914l182 235h260l-211 -235h-231zM800 1250q-192 0 -306 -143t-113 -385
t113 -386q112 -143 306 -143q194 -1 306 143t112 386t-112 385q-114 143 -306 143zM800 1479q314 0 498 -204t184 -553q0 -350 -183 -554t-499 -204t-500 204t-183 554t185 553q184 204 498 204z" />
    <glyph glyph-name="otildeacute" unicode="&#x1e4d;" horiz-adv-x="1248" 
d="M624 -22q-246 0 -386 152t-140 416q0 266 141 418t385 152t386 -152q140 -152 140 -418t-140 -416q-140 -152 -386 -152zM624 186q130 0 200 94t71 266q0 172 -71 267q-70 95 -200 95t-201 -95t-71 -267t71 -266t201 -94zM222 1233q0 142 68 226t183 84q82 0 143 -52
q26 -22 63 -59t74 -37q91 0 92 145h170q1 -142 -67 -226t-183 -83q-51 -1 -97 23t-72 52q-70 75 -111 74q-91 0 -92 -147h-171zM518 1653l185 275h243l-222 -275h-206z" />
    <glyph glyph-name="Otildedieresis" unicode="&#x1e4e;" horiz-adv-x="1599" 
d="M800 1250q-192 0 -306 -143t-113 -385t113 -386q112 -143 306 -143q194 -1 306 143t112 386t-112 385q-114 143 -306 143zM800 1479q314 0 498 -204t184 -553q0 -350 -183 -554t-499 -204t-500 204t-183 554t185 553q184 204 498 204zM1014 1922q-58 0 -94 32t-37 83
q1 51 37 83t94 32t94 -32t36 -83t-36 -83t-94 -32zM588 1922q-58 0 -94 32t-36 83t36 83t94 32t94 -32t37 -83q-1 -51 -37 -83t-94 -32zM1189 1839q0 -119 -67 -193t-163 -74q-97 0 -151 44q-24 18 -58 48q-35 31 -82 31q-83 0 -89 -110h-166q1 123 67 195t162 73
q96 0 152 -43q24 -18 57 -49q34 -31 83 -31q81 0 89 109h166z" />
    <glyph glyph-name="otildedieresis" unicode="&#x1e4f;" horiz-adv-x="1248" 
d="M624 -22q-246 0 -386 152t-140 416q0 266 141 418t385 152t386 -152q140 -152 140 -418t-140 -416q-140 -152 -386 -152zM624 186q130 0 200 94t71 266q0 172 -71 267q-70 95 -200 95t-201 -95t-71 -267t71 -266t201 -94zM222 1246q0 142 68 226t183 84q82 0 143 -52
q26 -22 63 -59t74 -37q91 0 92 145h170q1 -141 -67 -225t-183 -84q-51 0 -97 24t-72 50q-70 75 -111 75q-91 0 -92 -147h-171zM838 1652q-58 0 -96 38t-39 96q1 58 39 97t96 39t97 -39t39 -97t-39 -96t-97 -38zM410 1652q-58 0 -97 38t-39 96t39 97t97 39t96 -39t39 -97
q-1 -58 -39 -96t-96 -38z" />
    <glyph glyph-name="Omacrongrave" unicode="&#x1e50;" horiz-adv-x="1599" 
d="M800 1250q-192 0 -306 -143t-113 -385t113 -386q112 -143 306 -143q194 -1 306 143t112 386t-112 385q-114 143 -306 143zM800 1479q314 0 498 -204t184 -553q0 -350 -183 -554t-499 -204t-500 204t-183 554t185 553q184 204 498 204zM917 1900h-232l-209 249h260z
M1161 1614h-720v161h720v-161z" />
    <glyph glyph-name="omacrongrave" unicode="&#x1e51;" horiz-adv-x="1248" 
d="M980 1275h-712v164h712v-164zM756 1592h-229l-242 301h264zM624 -22q-246 0 -386 152t-140 416q0 266 141 418t385 152t386 -152q140 -152 140 -418t-140 -416q-140 -152 -386 -152zM624 186q130 0 200 94t71 266q0 172 -71 267q-70 95 -200 95t-201 -95t-71 -267
t71 -266t201 -94z" />
    <glyph glyph-name="Omacronacute" unicode="&#x1e52;" horiz-adv-x="1599" 
d="M800 1250q-192 0 -306 -143t-113 -385t113 -386q112 -143 306 -143q194 -1 306 143t112 386t-112 385q-114 143 -306 143zM800 1479q314 0 498 -204t184 -553q0 -350 -183 -554t-499 -204t-500 204t-183 554t185 553q184 204 498 204zM685 1899l181 249h260l-209 -249
h-232zM1161 1613h-720v161h720v-161z" />
    <glyph glyph-name="omacronacute" unicode="&#x1e53;" horiz-adv-x="1248" 
d="M980 1275h-712v164h712v-164zM492 1592l207 301h264l-242 -301h-229zM624 -22q-246 0 -386 152t-140 416q0 266 141 418t385 152t386 -152q140 -152 140 -418t-140 -416q-140 -152 -386 -152zM624 186q130 0 200 94t71 266q0 172 -71 267q-70 95 -200 95t-201 -95
t-71 -267t71 -266t201 -94z" />
    <glyph glyph-name="Pacute" unicode="&#x1e54;" horiz-adv-x="1351" 
d="M436 1227v-540h255q139 0 215 70t77 200t-75 200t-216 70h-256zM178 1443h582q216 0 350 -135t135 -351q-1 -216 -139 -350t-357 -134h-313v-473h-258v1443zM465 1585l288 310h283l-321 -310h-250z" />
    <glyph glyph-name="pacute" unicode="&#x1e55;" horiz-adv-x="1296" 
d="M498 1275l249 347h277l-284 -347h-242zM671 193q129 0 201 94t72 260t-72 260t-200 94t-202 -95t-74 -259t74 -259t201 -95zM748 1112q208 0 330 -151t121 -413t-121 -414t-327 -152q-117 0 -205 48t-129 136h-17v-530h-248v1458h239v-181h17q48 93 138 146t202 53z" />
    <glyph glyph-name="Pdotaccent" unicode="&#x1e56;" horiz-adv-x="1351" 
d="M593 1578q-62 0 -103 42t-41 102q1 62 41 104t102 41q62 1 104 -41q41 -42 41 -104t-41 -102q-41 -42 -103 -42zM436 1227v-540h255q139 0 215 70t77 200t-75 200t-216 70h-256zM178 1443h582q216 0 350 -135t135 -351q-1 -216 -139 -350t-357 -134h-313v-473h-258v1443z
" />
    <glyph glyph-name="pdotaccent" unicode="&#x1e57;" horiz-adv-x="1296" 
d="M638 1281q-64 0 -106 43t-43 106q1 64 43 106t106 42t106 -43t43 -105q-1 -62 -43 -106q-42 -43 -106 -43zM671 193q129 0 201 94t72 260t-72 260t-200 94t-202 -95t-74 -259t74 -259t201 -95zM748 1112q208 0 330 -151t121 -413t-121 -414t-327 -152q-117 0 -205 48
t-129 136h-17v-530h-248v1458h239v-181h17q48 93 138 146t202 53z" />
    <glyph glyph-name="Rdotaccent" unicode="&#x1e58;" horiz-adv-x="1391" 
d="M436 541v-541h-258v1443h586q227 1 360 -121t133 -330q0 -144 -72 -254t-200 -157l315 -581h-295l-283 541h-286zM436 1229v-483h298q122 0 190 63t68 177t-70 178t-194 65h-292zM636 1578q-62 0 -103 42t-41 102q0 62 40 104t104 41q62 1 103 -41t41 -104t-41 -102
q-41 -42 -103 -42z" />
    <glyph glyph-name="rdotaccent" unicode="&#x1e59;" horiz-adv-x="838" 
d="M423 1281q-65 0 -107 43t-42 106q0 64 42 106t106 42t107 -43t43 -105t-42 -106q-42 -43 -107 -43zM152 0v1094h239v-170h17q24 82 104 135t166 53t122 -11v-230q-38 14 -143 14q-105 1 -181 -69t-76 -184v-632h-248z" />
    <glyph glyph-name="Rdotbelow" unicode="&#x1e5a;" horiz-adv-x="1391" 
d="M436 541v-541h-258v1443h586q227 1 360 -121t133 -330q0 -144 -72 -254t-200 -157l315 -581h-295l-283 541h-286zM436 1229v-483h298q122 0 190 63t68 177t-70 178t-194 65h-292zM636 -413q-64 0 -104 38t-40 95t40 95t104 38t104 -38t40 -95t-40 -95t-104 -38z" />
    <glyph glyph-name="rdotbelow" unicode="&#x1e5b;" horiz-adv-x="838" 
d="M152 0v1094h239v-170h17q24 82 104 135t166 53t122 -11v-230q-38 14 -143 14q-105 1 -181 -69t-76 -184v-632h-248zM274 -413q-64 0 -104 38t-40 95t40 95t104 38t104 -38t40 -95t-40 -95t-104 -38z" />
    <glyph glyph-name="Rdotbelowmacron" unicode="&#x1e5c;" horiz-adv-x="1391" 
d="M996 1628h-720v164h720v-164zM436 541v-541h-258v1443h586q227 1 360 -121t133 -330q0 -144 -72 -254t-200 -157l315 -581h-295l-283 541h-286zM436 1229v-483h298q122 0 190 63t68 177t-70 178t-194 65h-292zM636 -413q-64 0 -104 38t-40 95t40 95t104 38t104 -38
t40 -95t-40 -95t-104 -38z" />
    <glyph glyph-name="rdotbelowmacron" unicode="&#x1e5d;" horiz-adv-x="838" 
d="M779 1305h-712v164h712v-164zM152 0v1094h239v-170h17q24 82 104 135t166 53t122 -11v-230q-38 14 -143 14q-105 1 -181 -69t-76 -184v-632h-248zM274 -413q-64 0 -104 38t-40 95t40 95t104 38t104 -38t40 -95t-40 -95t-104 -38z" />
    <glyph glyph-name="Rlinebelow" unicode="&#x1e5e;" horiz-adv-x="1391" 
d="M996 -382h-720v164h720v-164zM436 541v-541h-258v1443h586q227 1 360 -121t133 -330q0 -144 -72 -254t-200 -157l315 -581h-295l-283 541h-286zM436 1229v-483h298q122 0 190 63t68 177t-70 178t-194 65h-292z" />
    </font>
</defs>
</svg>
