<?xml version="1.0" encoding="UTF-8"?>
<svg width="76px" height="88px" viewBox="0 0 76 88" version="1.1" xmlns="http://www.w3.org/2000/svg" xmlns:xlink="http://www.w3.org/1999/xlink">
    <!-- Generator: Sketch 47.1 (45422) - http://www.bohemiancoding.com/sketch -->
    <title>Page 1</title>
    <desc>Created with Sketch.</desc>
    <defs></defs>
    <g id="Page-1" stroke="none" stroke-width="1" fill="none" fill-rule="evenodd">
        <path d="M0,62.3010155 C0,63.3127155 0.51172,64.2541155 1.3594,64.8088155 L36.0004,87.5078125 C37.0004,88.1640625 38.2934,88.1640625 39.2895,87.5078125 L73.9305,64.8088155 C74.77034,64.2541255 75.2743,63.3127155 75.2743,62.3088155 C75.2743,61.3049155 74.77039,60.3635155 73.9305,59.8088155 L64.0828,53.3791155 L73.9344,46.9299155 L73.93049,46.9299155 C74.77033,46.3752255 75.27429,45.4338155 75.27429,44.4299155 C75.27429,43.4221155 74.77038,42.4846155 73.93049,41.9299155 L64.08279,35.3791155 L73.93439,28.9299155 L73.93048,28.9299155 C74.77032,28.3752255 75.27428,27.4338155 75.27428,26.4299155 C75.27428,25.4221155 74.77037,24.4846155 73.93048,23.9299155 L39.28248,1.2499155 C38.28248,0.5936655 36.98948,0.5936655 35.99338,1.2499155 L1.35239,23.9489155 C0.51255,24.5036055 0.00859,25.4450155 0.00859,26.4489155 C0.00859,27.4528155 0.5125,28.3942155 1.35239,28.9489155 L11.20009,35.3786155 L1.34849,41.8278155 L1.35239,41.8278155 C0.51255,42.3825055 0.00859,43.3239155 0.00859,44.3278155 C0.00859,45.3356155 0.5125,46.2731155 1.35239,46.8278155 L11.20009,53.3786155 L1.34849,59.8278155 L1.3524,59.8278155 C0.52037,60.3746955 0.0126,61.3005155 0.0008,62.3005155 L0,62.3010155 Z M8.4688,26.4490155 L37.6408,7.3790155 L66.8128,26.4570155 L37.6408,45.5590055 L8.4688,26.4490155 Z M8.4688,44.3710155 L16.6407,38.9999155 L35.9997,51.6599155 C36.9997,52.3122555 38.2927,52.3122555 39.2888,51.6599155 L58.6408,38.9999155 L66.8127,44.3788155 L37.6407,63.4878155 L8.4688,44.3710155 Z M16.6407,56.9300155 L35.9997,69.5780155 C36.9997,70.2342655 38.2927,70.2342655 39.2888,69.5780155 L58.6408,56.9300155 L66.8517,62.3089155 L37.6407,81.3789155 L8.4687,62.3009155 L16.6407,56.9300155 Z" fill="#000000"></path>
    </g>
</svg>