<svg xmlns="http://www.w3.org/2000/svg"><symbol id="icon-accessibility" viewBox="0 0 24 24"><path d="M12 0a12 12 0 1 0 12 12A12 12 0 0 0 12 0Zm0 4.6a1.32 1.32 0 0 1 1.3 1.3A1.42 1.42 0 0 1 12 7.3 1.32 1.32 0 0 1 10.7 6 1.35 1.35 0 0 1 12 4.6Zm5.1 5.6-3.9.5v2.5l2.1 5.1a.76.76 0 1 1-1.4.6L12 14.2l-1.9 4.7a.76.76 0 0 1-1.4-.6l2.1-5.1v-2.5l-3.9-.5a.64.64 0 0 1-.5-.8c.1-.4.4-.7.7-.6l3.8.5h2.2l3.8-.5a.73.73 0 0 1 .7.6c0 .4-.2.8-.5.8Z"/></symbol><symbol id="icon-arrow-left" viewBox="0 0 16 16"><path d="m4.414 9 5.293 5.293-1.414 1.414L.586 8 8.293.293l1.414 1.414L4.414 7H16v2z"/></symbol><symbol id="icon-arrow-right" viewBox="0 0 16 16"><path d="M11.586 7 6.293 1.707 7.707.293 15.414 8l-7.707 7.707-1.414-1.414L11.586 9H0V7h11.586z"/></symbol><symbol id="icon-browse" viewBox="0 0 14 14"><path d="M0 5h3v3H0zm0 5h3v3H0zM0 0h3v3H0zm5 0h8v3H5zm0 5h8v3H5zm0 5h8v3H5z"/></symbol><symbol id="icon-chevron-bottom" viewBox="0 0 24 24"><path fill="currentColor" d="M6.1 7.1 4.1 9l7.9 7.9L19.9 9l-2-1.9L12 13Z"/></symbol><symbol id="icon-chevron-last-left" viewBox="0 0 24 24"><path fill="currentColor" d="m18 6.1-2-2-7.2 7.3V5.1H6v13.8h2.8v-6.3l7.2 7.3 2-2-5.9-5.9z"/></symbol><symbol id="icon-chevron-last-right" viewBox="0 0 24 24"><path fill="currentColor" d="m6 17.9 2 2 7.2-7.3v6.3H18V5.1h-2.8v6.3L8 4.1l-2 2 5.9 5.9z"/></symbol><symbol id="icon-chevron-left" viewBox="0 0 24 24"><path fill="currentColor" d="m16.9 6.1-1.9-2L7.1 12l7.9 7.9 1.9-2L11 12z"/></symbol><symbol id="icon-chevron-right" viewBox="0 0 24 24"><path fill="currentColor" d="m7.1 17.9 1.9 2 7.9-7.9L9 4.1l-1.9 2L13 12z"/></symbol><symbol id="icon-chevron-top" viewBox="0 0 24 24"><path fill="currentColor" d="m17.9 16.9 2-1.9L12 7.1 4.1 15l2 1.9L12 11Z"/></symbol><symbol id="icon-close" viewBox="0 0 14 14"><path d="M13 1.4 11.6 0 6.5 5.1 1.4 0 0 1.4l5.1 5.1L0 11.6 1.4 13l5.1-5.1 5.1 5.1 1.4-1.4-5.1-5.1z"/></symbol><symbol id="icon-elements" viewBox="0 0 80 91.18"><path d="M39.99 31.18a20 20 0 0 0 0 40 19.39 19.39 0 0 0 3.34-.3v-6.84a13.14 13.14 0 0 1-3.34.48 13.32 13.32 0 0 1-12.85-10H59.7a20.43 20.43 0 0 0 .29-3.34 20 20 0 0 0-20-20zm0 6.67a13.31 13.31 0 0 1 12.88 10H27.14a13.31 13.31 0 0 1 12.85-10z"/><path d="m46.59 11.77 7.06-7L48.94 0l-11.3 11.27a40 40 0 1 0 8.95.47zm-6.6 72.75a33.34 33.34 0 1 1 33.34-33.34 33.34 33.34 0 0 1-33.34 33.34z"/></symbol><symbol id="icon-facebook" viewBox="0 0 24 24"><path d="M9 8H6v4h3v12h5V12h3.642L18 8h-4V6.333C14 5.378 14.192 5 15.115 5H18V0h-3.808C10.596 0 9 1.583 9 4.615V8z"/></symbol><symbol id="icon-google" viewBox="0 0 488 512"><path d="M488 261.8C488 403.3 391.1 504 248 504 110.8 504 0 393.2 0 256S110.8 8 248 8c66.8 0 123 24.5 166.3 64.9l-67.5 64.9C258.5 52.6 94.3 116.6 94.3 256c0 86.5 69.1 156.6 153.7 156.6 98.2 0 135-70.4 140.8-106.9H248v-85.3h236.1c2.3 12.7 3.9 24.9 3.9 41.4z"/></symbol><symbol id="icon-googleplus" viewBox="0 0 24 24"><path d="M7 11v2.4h3.97c-.16 1.029-1.2 3.02-3.97 3.02-2.39 0-4.34-1.979-4.34-4.42 0-2.44 1.95-4.42 4.34-4.42 1.36 0 2.27.58 2.79 1.08l1.9-1.83C10.47 5.69 8.89 5 7 5c-3.87 0-7 3.13-7 7s3.13 7 7 7c4.04 0 6.721-2.84 6.721-6.84 0-.46-.051-.81-.111-1.16H7zm0 0 17 2h-3v3h-2v-3h-3v-2h3V8h2v3h3v2z" fill-rule="evenodd" clip-rule="evenodd"/></symbol><symbol id="icon-home" viewBox="0 0 11 12"><path d="m0 5 5.25-5 5.25 5v7H0z" fill-rule="evenodd"/></symbol><symbol id="icon-info" viewBox="0 0 54 54"><path d="M30.4 43.8h-6.7V23.6h6.7v20.2zm0-26.9h-6.7v-6.7h6.7v6.7z"/></symbol><symbol id="icon-instagram" viewBox="0 0 24 24"><path d="M12 2.163c3.204 0 3.584.012 4.85.07 3.252.148 4.771 1.691 4.919 4.919.058 1.265.069 1.645.069 4.849 0 3.205-.012 3.584-.069 4.849-.149 3.225-1.664 4.771-4.919 4.919-1.266.058-1.644.07-4.85.07-3.204 0-3.584-.012-4.849-.07-3.26-.149-4.771-1.699-4.919-4.92-.058-1.265-.07-1.644-.07-4.849 0-3.204.013-3.583.07-4.849.149-3.227 1.664-4.771 4.919-4.919 1.266-.057 1.645-.069 4.849-.069zM12 0C8.741 0 8.333.014 7.053.072 2.695.272.273 2.69.073 7.052.014 8.333 0 8.741 0 12c0 3.259.014 3.668.072 4.948.2 4.358 2.618 6.78 6.98 6.98C8.333 23.986 8.741 24 12 24c3.259 0 3.668-.014 4.948-.072 4.354-.2 6.782-2.618 6.979-6.98.059-1.28.073-1.689.073-4.948 0-3.259-.014-3.667-.072-4.947-.196-4.354-2.617-6.78-6.979-6.98C15.668.014 15.259 0 12 0zm0 5.838a6.162 6.162 0 1 0 0 12.324 6.162 6.162 0 0 0 0-12.324zM12 16a4 4 0 1 1 0-8 4 4 0 0 1 0 8zm6.406-11.845a1.44 1.44 0 1 0 0 2.881 1.44 1.44 0 0 0 0-2.881z"/></symbol><symbol id="icon-linkedin" viewBox="0 0 24 24"><path d="M4.98 3.5C4.98 4.881 3.87 6 2.5 6S.02 4.881.02 3.5C.02 2.12 1.13 1 2.5 1s2.48 1.12 2.48 2.5zM5 8H0v16h5V8zm7.982 0H8.014v16h4.969v-8.399c0-4.67 6.029-5.052 6.029 0V24H24V13.869c0-7.88-8.922-7.593-11.018-3.714V8z"/></symbol><symbol id="icon-lock" viewBox="0 0 10 15"><path d="M7 7V4a2 2 0 0 0-4 0v3h4zM1 7V4a4 4 0 1 1 8 0v3a1 1 0 0 1 1 1v7H0V8a1 1 0 0 1 1-1z"/></symbol><symbol id="icon-mail-plane" viewBox="0 0 24 24"><path d="m0 12 11 3.1L18 7l-8.156 5.672-4.312-1.202 15.362-7.68-3.974 14.57-3.75-3.339L11 17.946v-.769l-2-.56V24l4.473-6.031L18 22l6-22z"/></symbol><symbol id="icon-planet" viewBox="0 0 24 24"><path d="M12 .3C5.5.3.3 5.5.3 12S5.5 23.7 12 23.7 23.7 18.5 23.7 12 18.5.3 12 .3zM2.6 7.9c1.1-2.5 3.1-4.4 5.6-5.4l.8-.4-.5.8C7.7 4.4 7 6.1 6.6 8.1v.2H2.4l.2-.4zm-.7 6.2c-.1-.7-.2-1.4-.2-2.1 0-.7.1-1.4.2-2.1v-.2h4.4v.3c-.1 1.3-.1 2.6 0 3.9v.3H2l-.1-.1zm6.3 7.5c-2.5-1-4.5-3-5.6-5.4l-.2-.4h4.2v.2c.4 1.9 1 3.7 1.9 5.2l.5.7-.8-.3zm3.1.9-.5-.6c-1.2-1.5-2.2-3.5-2.7-5.8l-.1-.4h3.3v6.8zm0-8.2H7.8V14c-.1-1.4-.1-2.6 0-4.1v-.3h3.5v4.7zm0-6H8l.1-.4c.5-2.3 1.4-4.3 2.7-5.8l.5-.6v6.8zm4.5-5.9c2.5 1 4.5 3 5.6 5.4l.2.4h-4.2V8c-.4-1.9-1-3.7-1.9-5.2l-.5-.7.8.3zm-3.1-.9.5.6c1.2 1.5 2.2 3.5 2.7 5.8l.1.4h-3.3V1.5zm0 8.2h3.5v.3c.1 1.4.1 2.6 0 4.1v.3h-3.5V9.7zm0 12.8v-6.8H16l-.1.4c-.5 2.3-1.4 4.3-2.7 5.8l-.5.6zm8.7-6.4c-1.1 2.5-3.1 4.4-5.6 5.4l-.8.4.4-.8c.9-1.5 1.5-3.3 1.9-5.2v-.2h4.2l-.1.4zm.6-1.8h-4.4V14c.1-1.3.1-2.6 0-3.9v-.3H22v.2c.1.7.2 1.4.2 2.1 0 .7-.1 1.4-.2 2.1v.1z"/></symbol><symbol id="icon-search-bold" viewBox="0 0 17 17"><g stroke="currentColor" fill="none" fill-rule="evenodd"><path d="m11 11 4.243 4.243" stroke-width="3"/><circle stroke-width="2" cx="7" cy="7" r="6"/></g></symbol><symbol id="icon-search" viewBox="0 0 24 24"><path d="m23.809 21.646-6.205-6.205a9.68 9.68 0 0 0 1.857-5.711C19.461 4.365 15.096 0 9.73 0 4.365 0 0 4.365 0 9.73c0 5.366 4.365 9.73 9.73 9.73a9.678 9.678 0 0 0 5.487-1.698L21.455 24l2.354-2.354zM2.854 9.73c0-3.792 3.085-6.877 6.877-6.877s6.877 3.085 6.877 6.877-3.085 6.877-6.877 6.877A6.884 6.884 0 0 1 2.854 9.73z"/></symbol><symbol id="icon-toolbox" viewBox="0 0 80 91.18"><path d="M39.99 31.18a20 20 0 0 0 0 40 19.39 19.39 0 0 0 3.34-.3v-6.84a13.14 13.14 0 0 1-3.34.48 13.32 13.32 0 0 1-12.85-10H59.7a20.43 20.43 0 0 0 .29-3.34 20 20 0 0 0-20-20Zm0 6.67a13.31 13.31 0 0 1 12.88 10H27.14a13.31 13.31 0 0 1 12.85-10Z"/><path d="m46.59 11.77 7.06-7L48.94 0l-11.3 11.27a40 40 0 1 0 8.95.47Zm-6.6 72.75a33.34 33.34 0 1 1 33.34-33.34 33.34 33.34 0 0 1-33.34 33.34Z"/></symbol><symbol id="icon-triangle" viewBox="0 0 10 5"><path d="M.235.162h9.757l-4.879 4.77z" fill-rule="evenodd"/></symbol><symbol id="icon-twitter" viewBox="0 0 24 24"><path d="M24 4.557a9.83 9.83 0 0 1-2.828.775 4.932 4.932 0 0 0 2.165-2.724 9.864 9.864 0 0 1-3.127 1.195 4.916 4.916 0 0 0-3.594-1.555c-3.179 0-5.515 2.966-4.797 6.045A13.978 13.978 0 0 1 1.671 3.149a4.93 4.93 0 0 0 1.523 6.574 4.903 4.903 0 0 1-2.229-.616c-.054 2.281 1.581 4.415 3.949 4.89a4.935 4.935 0 0 1-2.224.084 4.928 4.928 0 0 0 4.6 3.419A9.9 9.9 0 0 1 0 19.54a13.94 13.94 0 0 0 7.548 2.212c9.142 0 14.307-7.721 13.995-14.646A10.025 10.025 0 0 0 24 4.557z"/></symbol><symbol id="icon-upload" viewBox="0 0 14.2 14.2"><path d="M12.2 14.2H2c-1.1 0-2-.9-2-2V9.3c0-.3.3-.6.6-.6s.6.3.6.6v2.9c0 .4.4.8.8.8h10.1c.5 0 .8-.4.8-.8V9.3c0-.3.3-.6.6-.6s.6.3.6.6v2.9c.1 1.1-.8 2-1.9 2zM7.1 9.9c-.3 0-.6-.3-.6-.6V2L3.9 4.6c-.2.2-.6.2-.8 0s-.3-.6 0-.8L6.7.2c.1-.1.2-.2.4-.2s.3.1.4.2l3.6 3.6c.2.2.2.6 0 .8s-.6.2-.8 0L7.7 2v7.2c0 .4-.3.7-.6.7z"/></symbol><symbol id="icon-whatsapp" viewBox="0 0 24 24"><path d="m.057 24 1.687-6.163a11.867 11.867 0 0 1-1.587-5.946C.16 5.335 5.495 0 12.05 0a11.817 11.817 0 0 1 8.413 3.488 11.824 11.824 0 0 1 3.48 8.414c-.003 6.557-5.338 11.892-11.893 11.892a11.9 11.9 0 0 1-5.688-1.448L.057 24zm6.597-3.807c1.676.995 3.276 1.591 5.392 1.592 5.448 0 9.886-4.434 9.889-9.885.002-5.462-4.415-9.89-9.881-9.892-5.452 0-9.887 4.434-9.889 9.884-.001 2.225.651 3.891 1.746 5.634l-.999 3.648 3.742-.981zm11.387-5.464c-.074-.124-.272-.198-.57-.347-.297-.149-1.758-.868-2.031-.967-.272-.099-.47-.149-.669.149-.198.297-.768.967-.941 1.165-.173.198-.347.223-.644.074-.297-.149-1.255-.462-2.39-1.475-.883-.788-1.48-1.761-1.653-2.059-.173-.297-.018-.458.13-.606.134-.133.297-.347.446-.521.151-.172.2-.296.3-.495.099-.198.05-.372-.025-.521-.075-.148-.669-1.611-.916-2.206-.242-.579-.487-.501-.669-.51l-.57-.01c-.198 0-.52.074-.792.372s-1.04 1.016-1.04 2.479 1.065 2.876 1.213 3.074c.149.198 2.095 3.2 5.076 4.487.709.306 1.263.489 1.694.626.712.226 1.36.194 1.872.118.571-.085 1.758-.719 2.006-1.413.248-.695.248-1.29.173-1.414z"/></symbol><symbol id="icon-youtube" viewBox="0 0 24 24"><path d="M12 4s-6.254 0-7.814.418a2.503 2.503 0 0 0-1.768 1.768C2 7.746 2 12 2 12s0 4.254.418 5.814c.23.861.908 1.538 1.768 1.768C5.746 20 12 20 12 20s6.254 0 7.814-.418a2.505 2.505 0 0 0 1.768-1.768C22 16.254 22 12 22 12s0-4.254-.418-5.814a2.505 2.505 0 0 0-1.768-1.768C18.254 4 12 4 12 4zm0 2c2.882 0 6.49.134 7.297.35a.508.508 0 0 1 .353.353c.241.898.35 3.639.35 5.297s-.109 4.398-.35 5.297a.508.508 0 0 1-.353.353c-.805.216-4.415.35-7.297.35-2.881 0-6.49-.134-7.297-.35a.508.508 0 0 1-.353-.353C4.109 16.399 4 13.658 4 12s.109-4.399.35-5.299a.505.505 0 0 1 .353-.351C5.508 6.134 9.118 6 12 6zm-2 2.535v6.93L16 12l-6-3.465z"/></symbol></svg>