<?xml version="1.0" standalone="no"?>
<!DOCTYPE svg PUBLIC "-//W3C//DTD SVG 20010904//EN"
 "http://www.w3.org/TR/2001/REC-SVG-20010904/DTD/svg10.dtd">
<svg version="1.0" xmlns="http://www.w3.org/2000/svg"
 width="756.000000pt" height="756.000000pt" viewBox="0 0 756.000000 756.000000"
 preserveAspectRatio="xMidYMid meet">
<metadata>
Created by potrace 1.11, written by Peter Selinger 2001-2013
</metadata>
<g transform="translate(0.000000,756.000000) scale(0.100000,-0.100000)"
fill="#000000" stroke="none">
<path d="M20 4520 l0 -1070 1210 0 c666 0 1210 2 1210 4 0 3 -16 33 -37 67
-84 145 -165 373 -204 582 -30 159 -37 475 -15 647 31 235 106 492 215 738 22
51 41 95 41 97 0 3 -544 5 -1210 5 l-1210 0 0 -1070z"/>
<path d="M2640 5473 c-104 -237 -181 -509 -210 -746 -14 -114 -14 -390 0 -501
33 -270 125 -551 239 -733 l26 -43 128 0 c70 0 127 2 127 5 0 3 -25 49 -55
103 -131 235 -235 588 -235 800 l0 62 135 0 135 0 0 110 0 110 -131 0 -132 0
7 87 c16 207 118 538 241 784 19 38 35 71 35 74 0 3 -58 5 -129 5 l-129 0 -52
-117z"/>
<path d="M3120 4520 l0 -1070 120 0 120 0 0 1070 0 1070 -120 0 -120 0 0
-1070z"/>
<path d="M3476 5513 c177 -312 174 -672 -9 -940 l-36 -53 130 0 129 0 27 43
c44 69 84 166 111 267 34 129 36 326 4 441 -26 95 -73 209 -114 272 l-30 47
-128 0 -128 0 44 -77z"/>
<path d="M4200 5563 c-124 -265 -202 -513 -246 -783 -15 -89 -18 -199 -21
-717 l-3 -613 125 0 125 0 0 485 0 485 130 0 130 0 0 110 0 110 -125 0 -125 0
0 53 c0 179 107 541 236 799 24 48 44 90 44 93 0 3 -58 5 -128 5 l-129 0 -13
-27z"/>
<path d="M4593 4918 c5 -735 5 -744 68 -977 44 -167 117 -345 185 -453 l24
-38 131 0 131 0 -25 43 c-109 186 -196 411 -243 627 l-27 125 -4 673 -4 672
-120 0 -120 0 4 -672z"/>
<path d="M5080 4997 c0 -348 4 -639 11 -703 23 -235 85 -443 203 -677 l81
-162 1088 -3 1087 -2 0 1070 0 1070 -1235 0 -1235 0 0 -593z"/>
<path d="M140 3159 c-33 -22 -38 -29 -20 -25 14 4 40 9 58 13 22 4 32 11 30
21 -5 26 -21 23 -68 -9z"/>
<path d="M115 3080 c-66 -3 -109 -7 -95 -10 l25 -5 3 -170 c3 -192 -1 -232
-26 -238 -9 -3 35 -5 99 -6 125 -1 130 1 128 52 l0 22 -9 -22 c-11 -26 -70
-41 -109 -27 -25 9 -26 12 -29 102 l-3 92 40 0 c50 0 71 -8 72 -29 1 -19 17
25 18 52 1 14 -3 16 -18 7 -11 -5 -40 -10 -65 -10 l-46 0 0 85 0 85 38 0 c58
0 82 -10 83 -34 1 -11 5 -3 10 18 5 21 8 39 7 40 -2 1 -57 -1 -123 -4z"/>
<path d="M480 3079 c-172 -52 -201 -303 -47 -398 45 -28 130 -43 194 -35 65 8
79 19 87 69 l7 40 -21 -33 c-49 -80 -193 -67 -268 24 -88 106 -52 281 64 313
57 16 103 13 152 -9 34 -15 44 -26 49 -52 7 -32 8 -32 14 17 3 28 3 53 0 58
-12 12 -193 17 -231 6z"/>
<path d="M934 3077 c-55 -22 -92 -57 -120 -113 -23 -47 -26 -63 -21 -114 11
-124 93 -203 211 -204 161 -2 267 141 222 297 -19 64 -73 120 -133 136 -49 14
-120 13 -159 -2z m133 -18 c71 -27 113 -100 113 -199 0 -124 -55 -190 -156
-190 -141 0 -225 177 -152 322 31 64 122 95 195 67z"/>
<path d="M1780 3080 c-63 -3 -105 -8 -92 -12 22 -6 22 -8 22 -195 0 -103 -4
-193 -8 -199 -4 -6 -14 -14 -22 -17 -8 -3 39 -5 105 -4 l119 2 7 35 c7 34 7
34 -10 11 -20 -27 -87 -39 -120 -22 -19 11 -21 20 -21 101 l0 90 50 0 c36 0
52 -4 56 -15 10 -25 24 -17 24 14 l0 29 -65 -6 -65 -5 0 87 0 86 44 0 c56 0
76 -8 76 -29 1 -14 2 -14 11 2 6 10 9 25 7 35 -3 15 -15 16 -118 12z"/>
<path d="M2675 3072 c-190 -91 -163 -380 40 -422 76 -16 139 0 195 48 56 47
80 101 80 178 0 124 -77 203 -207 211 -53 3 -77 -1 -108 -15z m165 -22 c25
-13 49 -37 67 -67 24 -41 28 -59 28 -123 0 -87 -20 -131 -75 -167 -48 -33
-123 -32 -174 3 -94 64 -115 241 -38 328 42 47 128 59 192 26z"/>
<path d="M3750 3075 c0 -5 -3 -21 -6 -35 -5 -24 -5 -24 10 -6 11 13 33 20 80
23 l66 6 0 -189 c0 -104 -4 -194 -8 -200 -4 -6 -14 -14 -22 -17 -8 -3 19 -6
60 -6 67 -1 72 1 50 12 l-25 13 -3 192 -2 192 34 0 c60 0 97 -12 106 -34 7
-17 9 -13 9 19 l1 40 -175 0 c-110 0 -175 -4 -175 -10z"/>
<path d="M4290 3080 c-63 -3 -105 -8 -92 -12 22 -6 22 -8 22 -195 0 -103 -4
-193 -8 -199 -4 -6 -14 -14 -22 -17 -8 -3 39 -5 105 -4 l120 2 2 35 c2 30 1
32 -7 13 -11 -26 -70 -40 -109 -27 -25 9 -26 12 -29 102 l-3 92 51 0 c36 0 52
-4 56 -15 11 -27 24 -16 24 20 0 32 -2 35 -19 25 -11 -5 -40 -10 -65 -10 l-46
0 0 85 0 85 44 0 c56 0 76 -8 76 -29 1 -14 2 -14 11 2 6 10 9 25 7 35 -3 15
-15 16 -118 12z"/>
<path d="M4648 3076 c-60 -22 -85 -43 -115 -93 -53 -91 -30 -226 50 -287 48
-36 145 -59 218 -51 66 8 74 15 84 70 l7 40 -24 -35 c-28 -41 -73 -56 -141
-46 -59 9 -105 40 -140 97 -23 39 -28 57 -28 112 0 124 54 182 171 182 82 -1
121 -19 136 -65 l12 -35 7 48 c5 29 4 52 -2 58 -18 18 -193 21 -235 5z"/>
<path d="M5558 3084 c-5 -4 -8 -99 -8 -211 0 -202 0 -204 -22 -213 -17 -6 -5
-9 47 -9 63 -1 67 1 45 12 -24 12 -25 16 -33 165 -5 85 -7 156 -4 158 3 3 27
-19 53 -48 27 -29 101 -106 164 -171 l115 -118 7 83 c3 46 6 140 7 210 1 112
3 127 19 131 9 3 -12 5 -48 4 -36 0 -55 -2 -42 -4 13 -3 25 -10 27 -16 8 -28
15 -319 7 -315 -8 3 -229 238 -297 316 -16 18 -33 30 -37 26z"/>
<path d="M6445 3079 c-46 -13 -100 -63 -125 -116 -32 -68 -25 -167 17 -226 51
-73 139 -107 228 -87 43 10 48 8 149 -44 157 -81 267 -93 377 -41 19 8 25 13
14 9 -44 -14 -146 -16 -196 -4 -30 6 -100 34 -157 61 l-103 50 32 36 c44 51
61 98 60 165 -1 96 -52 167 -140 197 -39 13 -113 13 -156 0z m168 -42 c90 -69
102 -238 23 -324 -28 -31 -40 -37 -88 -41 -46 -3 -64 0 -98 19 -128 72 -132
308 -6 365 48 22 128 13 169 -19z"/>
<path d="M1346 3073 c19 -4 22 -13 28 -99 10 -135 -2 -302 -23 -314 -11 -6 25
-9 107 -10 90 0 124 3 126 13 3 6 7 26 10 42 l6 30 -14 -24 c-16 -29 -38 -39
-87 -40 -69 -2 -73 9 -78 178 -4 171 2 218 27 224 9 3 -14 5 -53 4 -38 0 -60
-2 -49 -4z"/>
<path d="M2218 3073 c22 -4 22 -5 22 -203 0 -179 -2 -200 -17 -209 -14 -8 0
-10 52 -10 39 0 63 3 55 6 -36 13 -40 34 -40 219 l0 182 24 4 c58 11 116 -44
116 -111 0 -39 -36 -80 -80 -91 l-35 -8 33 -1 c98 -3 161 123 98 196 -24 27
-27 28 -138 30 -62 1 -103 -1 -90 -4z"/>
<path d="M3085 3073 c11 -3 23 -10 27 -17 9 -13 10 -341 2 -373 -3 -12 -13
-24 -23 -26 -9 -3 41 -5 110 -6 123 -1 127 0 133 22 3 12 6 31 6 42 l-1 20
-11 -20 c-17 -33 -40 -45 -81 -45 -78 0 -77 -3 -77 210 0 188 0 189 23 193 12
2 -12 4 -53 4 -41 1 -66 -2 -55 -4z"/>
<path d="M3346 3070 c20 -8 42 -39 124 -169 29 -45 34 -64 38 -131 4 -69 2
-80 -17 -99 l-21 -21 73 1 c45 1 63 4 47 8 -24 7 -25 10 -28 99 l-3 93 55 92
c53 90 76 119 106 130 8 3 -8 6 -37 6 -45 1 -51 -1 -46 -18 4 -16 -84 -190
-97 -191 -11 0 -111 184 -106 197 4 10 -8 13 -52 12 -41 0 -51 -3 -36 -9z"/>
<path d="M4997 3073 c31 -6 36 -41 32 -233 -4 -146 -6 -163 -23 -176 -18 -13
-12 -14 55 -13 46 1 65 4 49 8 -29 8 -38 45 -39 154 l-1 67 125 0 125 0 0 -97
c0 -100 -4 -116 -30 -126 -8 -3 19 -6 60 -6 67 -1 72 1 50 12 l-25 13 -3 192
c-2 192 -2 193 20 202 17 6 5 9 -47 9 -52 0 -64 -3 -47 -9 20 -9 22 -16 22
-90 l0 -81 -122 3 -123 3 -3 40 c-5 64 7 123 26 128 9 3 -14 5 -53 4 -38 0
-60 -2 -48 -4z"/>
<path d="M6093 3069 c15 -9 17 -29 17 -197 0 -103 -4 -192 -8 -198 -4 -6 -14
-14 -22 -17 -8 -3 19 -6 60 -6 67 -1 72 1 50 12 l-25 13 -3 189 c-2 170 -1
191 15 202 14 11 7 13 -43 13 -45 -1 -55 -3 -41 -11z"/>
<path d="M6826 3070 c21 -8 22 -16 25 -162 4 -173 15 -205 79 -243 48 -27 135
-26 183 4 59 36 71 75 75 241 3 119 6 147 20 158 13 10 6 12 -44 11 -45 0 -54
-2 -36 -9 21 -9 22 -13 22 -155 0 -165 -10 -204 -59 -229 -77 -40 -162 -3
-181 79 -11 48 -13 275 -2 291 4 6 14 14 22 17 8 3 -16 5 -55 6 -49 0 -64 -3
-49 -9z"/>
<path d="M7327 3073 c32 -6 35 -26 31 -222 -3 -157 -5 -174 -22 -187 -18 -12
-6 -14 96 -14 112 0 116 1 122 23 3 12 5 31 5 42 0 16 -2 15 -10 -6 -11 -30
-59 -45 -110 -34 l-29 7 0 94 0 94 39 0 c50 0 71 -8 71 -28 0 -25 7 -10 14 31
7 36 6 38 -13 28 -11 -6 -40 -11 -65 -11 l-46 0 0 85 0 85 43 0 c44 0 71 -14
79 -40 3 -8 7 2 9 23 l5 37 -121 -1 c-66 -1 -110 -4 -98 -6z"/>
<path d="M488 2480 c-27 -17 -48 -32 -48 -34 0 -3 19 1 43 9 23 8 50 15 60 17
15 3 16 6 5 20 -12 16 -16 15 -60 -12z"/>
<path d="M1325 2474 c-36 -23 -37 -25 -11 -19 15 3 41 9 58 12 16 3 27 11 25
17 -7 20 -31 16 -72 -10z"/>
<path d="M5585 2396 c-39 -17 -55 -37 -62 -79 -7 -47 15 -85 86 -147 33 -29
64 -65 70 -81 22 -63 -30 -119 -98 -104 -34 7 -49 22 -61 62 -7 25 -8 22 -9
-20 -1 -42 2 -49 25 -57 105 -40 214 43 185 141 -11 38 -30 60 -114 136 -35
32 -47 49 -47 71 0 67 92 91 136 37 l24 -30 0 36 c0 34 -2 37 -37 43 -52 8
-63 7 -98 -8z"/>
<path d="M20 2391 l25 -7 3 -194 c2 -174 1 -196 -15 -207 -14 -11 -5 -13 53
-12 38 1 59 4 47 6 -27 5 -35 40 -31 138 3 77 9 83 75 70 22 -4 37 -14 43 -28
8 -21 9 -21 10 -2 0 11 3 29 6 40 5 19 1 20 -66 17 l-71 -4 3 84 3 83 55 -3
c41 -2 59 -8 73 -23 17 -21 17 -21 17 15 l0 36 -127 -1 c-71 -1 -117 -4 -103
-8z"/>
<path d="M363 2388 l27 -10 0 -186 c0 -103 -4 -192 -8 -198 -4 -6 -14 -14 -22
-17 -8 -3 39 -5 105 -4 l120 2 3 35 c3 34 2 35 -10 10 -10 -19 -23 -26 -52
-28 -22 -2 -50 -1 -63 2 -22 6 -23 10 -23 101 0 93 0 95 24 95 49 0 86 -12 86
-29 0 -14 2 -14 10 -1 5 8 10 24 10 35 0 18 -5 20 -65 17 l-65 -4 0 86 c0 84
1 86 24 86 52 0 89 -13 94 -33 5 -20 6 -20 13 -1 21 53 18 54 -113 53 -95 0
-117 -3 -95 -11z"/>
<path d="M700 2393 c35 -13 40 -35 40 -194 0 -176 -5 -216 -29 -222 -9 -2 34
-7 94 -11 169 -11 241 19 291 120 23 47 26 63 21 120 -8 100 -60 161 -157 183
-45 11 -288 14 -260 4z m255 -36 c48 -24 73 -51 95 -98 51 -112 0 -238 -107
-268 -48 -14 -68 -14 -115 0 l-38 10 0 191 0 191 68 -5 c37 -3 81 -12 97 -21z"/>
<path d="M1203 2393 c30 -8 37 -47 37 -196 0 -168 -6 -214 -29 -220 -9 -3 37
-5 101 -6 l116 -1 7 31 c4 17 4 33 1 36 -3 4 -6 1 -6 -5 0 -6 -7 -18 -16 -26
-18 -18 -109 -22 -119 -6 -5 8 -8 115 -6 178 2 29 106 6 113 -25 3 -10 6 0 9
22 l4 40 -65 -3 -65 -4 0 83 c0 93 2 95 71 84 34 -5 47 -12 53 -28 7 -19 9
-17 13 16 l4 37 -121 -1 c-66 -1 -112 -3 -102 -6z"/>
<path d="M1558 2390 c22 -9 22 -11 22 -204 0 -175 -2 -196 -17 -205 -14 -8 0
-10 52 -10 44 1 61 4 45 8 -24 6 -25 11 -28 89 l-3 82 40 0 c37 0 42 -4 91
-70 77 -104 87 -110 184 -109 44 1 73 3 63 6 -21 5 -18 33 12 113 l17 45 64 0
64 0 28 -70 c15 -38 25 -76 23 -82 -3 -10 12 -13 58 -12 34 1 52 4 39 6 -33 6
-50 39 -128 244 -38 98 -73 178 -78 176 -5 -2 -39 -87 -76 -189 -74 -202 -86
-228 -101 -228 -22 0 -64 38 -119 108 l-58 75 28 36 c61 75 42 168 -37 190
-48 14 -219 14 -185 1z m156 -20 c36 -13 59 -64 53 -117 -7 -63 -30 -85 -86
-81 l-46 3 -3 103 -3 102 30 0 c16 0 41 -4 55 -10z m414 -128 c12 -38 22 -71
22 -75 0 -4 -22 -7 -50 -7 -27 0 -50 4 -50 9 0 20 41 141 48 141 5 0 18 -31
30 -68z"/>
<path d="M2380 2391 l25 -7 3 -179 c3 -198 0 -221 -26 -228 -9 -3 40 -5 109
-6 136 -1 139 0 139 52 -1 22 -1 22 -12 2 -17 -30 -28 -35 -85 -35 -42 0 -54
4 -63 19 -6 12 -10 93 -10 196 0 173 0 176 23 185 16 6 1 9 -53 8 -46 0 -65
-3 -50 -7z"/>
<path d="M2720 2387 c25 -12 25 -14 28 -167 4 -183 -2 -237 -26 -243 -9 -3 35
-5 99 -6 125 -1 129 1 129 52 -1 22 -1 22 -12 2 -16 -29 -28 -35 -70 -35 -67
0 -68 2 -68 106 l0 94 29 0 c42 0 79 -16 84 -37 3 -12 5 -9 6 9 0 14 3 33 6
40 5 11 -7 13 -60 10 l-65 -4 0 86 c0 95 -3 92 73 79 27 -4 41 -12 46 -27 7
-17 9 -15 13 17 l4 37 -121 0 c-103 0 -117 -2 -95 -13z"/>
<path d="M3245 2393 c11 -3 23 -10 27 -17 4 -6 8 -92 8 -191 0 -99 -4 -185 -8
-191 -4 -6 -14 -13 -22 -16 -25 -8 184 -19 227 -12 59 9 113 43 147 92 58 81
45 228 -25 286 -49 41 -118 56 -253 55 -67 -1 -112 -4 -101 -6z m272 -49 c84
-52 117 -164 78 -262 -27 -67 -116 -111 -199 -98 -67 11 -66 9 -66 214 l0 185
70 -5 c54 -4 81 -12 117 -34z"/>
<path d="M3770 2391 l25 -7 3 -197 c2 -197 2 -198 -20 -207 -16 -6 15 -9 100
-9 l122 -1 0 32 c0 32 0 32 -16 10 -12 -17 -25 -22 -63 -22 -26 0 -52 5 -59
12 -8 8 -12 45 -12 101 l0 90 51 -6 c32 -4 56 -13 65 -24 12 -16 13 -15 14 17
l0 35 -65 -3 -65 -4 0 86 c0 84 1 86 24 86 50 0 89 -13 94 -32 4 -15 7 -17 13
-6 5 7 9 23 9 36 0 22 -2 22 -122 21 -68 -1 -112 -4 -98 -8z"/>
<path d="M4308 2390 c22 -9 22 -11 22 -204 0 -175 -2 -196 -17 -205 -13 -8 17
-10 107 -8 l125 2 3 35 c3 34 2 35 -10 10 -12 -21 -21 -25 -68 -28 -87 -4 -85
-9 -85 200 l0 182 25 13 c22 11 17 13 -50 12 -55 0 -69 -3 -52 -9z"/>
<path d="M4765 2388 c-3 -7 -34 -93 -69 -190 -77 -210 -79 -215 -108 -221 -13
-2 6 -4 42 -4 36 -1 57 1 48 4 -23 6 -22 24 5 98 l22 60 65 0 64 0 28 -73 c15
-41 26 -78 22 -83 -3 -5 20 -9 53 -8 46 0 53 2 35 10 -26 10 -51 62 -133 276
-52 137 -64 158 -74 131z m36 -155 c10 -31 19 -60 19 -65 0 -4 -22 -8 -50 -8
-32 0 -50 4 -50 12 0 6 10 42 22 80 24 76 26 75 59 -19z"/>
<path d="M5010 2393 c35 -12 40 -35 40 -175 0 -170 13 -207 87 -240 82 -36
164 -15 217 56 18 24 22 46 26 183 5 138 8 156 25 169 17 13 12 14 -46 14 -58
0 -62 -1 -39 -13 l25 -13 0 -149 c-1 -172 -10 -201 -71 -230 -43 -20 -96 -15
-127 12 -39 35 -47 75 -47 228 0 142 1 146 23 155 16 6 2 9 -53 9 -41 -1 -68
-3 -60 -6z"/>
<path d="M5896 2213 c-76 -210 -86 -230 -118 -236 -13 -2 6 -5 42 -5 41 -1 60
2 51 7 -16 10 -11 50 16 119 l16 42 62 0 63 0 26 -71 c14 -38 26 -77 26 -85 0
-11 13 -14 58 -13 31 1 47 4 34 6 -28 6 -41 30 -123 243 -37 96 -72 176 -76
177 -5 2 -39 -81 -77 -184z m92 40 c11 -32 23 -66 27 -75 6 -16 1 -18 -49 -18
-31 0 -56 2 -56 3 0 3 33 103 45 135 8 21 12 14 33 -45z"/>
<path d="M6260 2221 c0 -198 -5 -238 -29 -244 -9 -3 13 -5 49 -4 36 0 55 2 43
4 -16 3 -24 13 -28 36 -5 30 -12 297 -8 297 1 0 26 -26 55 -57 104 -113 272
-283 280 -283 4 0 8 92 8 205 0 204 0 206 23 215 16 6 3 9 -48 8 -44 0 -61 -3
-45 -7 21 -6 26 -15 33 -61 4 -30 6 -105 5 -167 l-3 -112 -160 174 c-88 96
-163 175 -167 175 -5 0 -8 -80 -8 -179z"/>
<path d="M6800 2228 c0 -198 -6 -245 -29 -251 -9 -3 13 -5 49 -4 36 0 55 2 43
4 -29 6 -31 16 -37 193 l-4 145 51 -55 c185 -198 276 -290 286 -290 8 0 11 60
11 205 0 204 0 206 23 215 16 6 3 9 -48 8 -44 0 -61 -3 -45 -7 23 -6 25 -12
33 -96 4 -50 6 -125 5 -168 l-3 -78 -160 175 c-88 97 -163 175 -167 176 -5 0
-8 -78 -8 -172z"/>
<path d="M7328 2390 c22 -9 22 -11 22 -204 0 -175 -2 -196 -17 -205 -13 -8 15
-10 100 -11 109 0 117 1 117 19 0 11 3 28 6 38 3 11 -2 8 -16 -9 -18 -24 -29
-28 -69 -28 -26 0 -52 5 -59 12 -8 8 -12 45 -12 101 l0 90 51 -6 c32 -4 56
-13 65 -24 12 -16 13 -15 14 17 l0 35 -65 -3 -65 -4 0 81 c0 45 5 83 10 86 19
12 110 -6 110 -20 0 -8 5 -17 10 -20 6 -4 10 8 10 29 l0 36 -117 -1 c-81 0
-111 -3 -95 -9z"/>
</g>
</svg>
