<svg id="Calque_1" data-name="Calque 1" xmlns="http://www.w3.org/2000/svg" viewBox="0 0 700 600"><defs><style>.cls-1{fill:#413d3a;}</style></defs><path class="cls-1" d="M138.88,454.46V382.11c-33.67-10.46-58.24-41.86-58.24-78.71a81.76,81.76,0,0,1,58.24-78.26V117.3l86.91,30.49A141.58,141.58,0,0,1,350,75c52.33,0,98.29,27.3,124.22,72.8l86.45-30.49V225.14a81.63,81.63,0,0,1,58.7,78.26c0,36.85-24.58,68.25-58.7,78.71v72.35L350,529.08Zm58.7-151.06c0-18.66-15.47-34.13-34.58-34.13s-34.58,15.47-34.58,34.13c0,19.11,15.47,34.12,34.58,34.12S197.58,322.51,197.58,303.4Zm128.76-69.62L186.66,184.64v40.5A81.76,81.76,0,0,1,244.9,303.4c0,36.85-24.57,68.25-58.24,78.71v38.68l139.68,49.14Zm101.47-69.61a93.24,93.24,0,0,0-155.61,0L350,191.92Zm85.54,256.62V382.11c-33.67-10.46-58.24-41.86-58.24-78.71a81.76,81.76,0,0,1,58.24-78.26v-40.5L373.66,233.78V469.93ZM571.59,303.4a34.38,34.38,0,0,0-34.13-34.13c-19.1,0-34.58,15.47-34.58,34.13,0,19.11,15.48,34.12,34.58,34.12A34.08,34.08,0,0,0,571.59,303.4Z"/></svg>