<svg id="Calque_1" data-name="Calque 1" xmlns="http://www.w3.org/2000/svg" viewBox="0 0 700 600"><defs><style>.cls-1{fill:#413d3a;}</style></defs><path class="cls-1" d="M630.05,140V333.37l-90.09.45V583.16H289.71V486.7H182.79V329.27H70V140ZM182.79,187.77H117.72V282h65.07ZM385.72,438.93V187.77H230.56V438.93ZM351.59,338.37c0,21.84-13.65,35.49-30.94,40V404.8H291.53V378.41c-11.37-2.27-21.84-8.19-31.39-16.38l13.65-22.75c9.1,8.19,20.47,14.11,31.85,14.11,9.1,0,16.83-5,16.83-12.74,0-20.48-56-14.56-56-56.42,0-18.66,10.92-31.4,26.39-36.4V220.07h29.57V246c9.56,1.36,18.66,5.91,28.21,13.19l-15,21.84c-6.83-5.91-15-10.46-24.12-10.46-8.64,0-14.56,5-14.56,11.37C297,301.06,351.59,295.6,351.59,338.37ZM492.19,277h-58.7V486.7h-96v48.69h154.7Zm90.09-89.18H433.49v41.4H540v56.88l42.32-.46Z"/></svg>