<svg id="Calque_1" data-name="Calque 1" xmlns="http://www.w3.org/2000/svg" viewBox="0 0 700 600"><defs><style>.cls-1{fill:#413d3a;}</style></defs><path class="cls-1" d="M135.92,378.93V192.83h71.44a28.46,28.46,0,0,1-2.73-12.28,57.84,57.84,0,0,1,17.29-41.41,9.66,9.66,0,0,0,3.18-6.82c0-2.73-1.36-5-3.18-7.28l-15.47-15.47L240.12,75.9,256,91.37a58.76,58.76,0,0,1,0,82.35c-2.73,1.82-3.18,4.55-3.18,6.83a8.81,8.81,0,0,0,3.18,7.28l4.56,5h72.8a30,30,0,0,1-2.73-12.28c0-15.47,5.46-30,16.83-41.41a9.67,9.67,0,0,0,3.19-6.82c0-2.73-1.37-5-3.19-7.28l-15-15.47L366.16,75.9l15.46,15.47a56.8,56.8,0,0,1,17.3,40.95c0,15-5.92,29.57-17.3,41.4a8.8,8.8,0,0,0-3.18,6.83,10.45,10.45,0,0,0,3.18,7.28l5,5h81.9a95.55,95.55,0,1,1,0,191.1h-7.28L459.89,398c-7.28,56-34.13,96.46-86.45,126H224.19C165.5,491.31,135.92,438.53,135.92,378.93Zm224.32,96.91C393,455.82,413,418.51,413,378.93V241.06H184.15V378.93a114.75,114.75,0,0,0,52.79,96.91ZM468.53,336.16c25.94,0,47.78-21.84,47.78-47.78,0-26.39-21.84-47.32-47.78-47.32h-7.28v95.1Z"/></svg>