<svg id="Calque_1" data-name="Calque 1" xmlns="http://www.w3.org/2000/svg" viewBox="0 0 700 600"><defs><style>.cls-1{fill:#413d3a;}</style></defs><path class="cls-1" d="M463.53,381.6V490.34h53.69A65.24,65.24,0,0,1,580,443.48a66,66,0,0,1,0,131.95c-29.58,0-54.6-20-62.79-46.41H425.31V381.6H365.25a165.39,165.39,0,0,1,20.93,80.08V584.07H54V461.68c0-56.88,29.58-107.84,73.71-137.87a115.75,115.75,0,0,1-25-71.89C102.71,186.86,155,135,220.1,135A116.61,116.61,0,0,1,337,251.92c0,27.3-9.1,52.33-25,71.89a189.49,189.49,0,0,1,23.66,19.11h89.64V194.14h91.91A65.23,65.23,0,0,1,580,147.27a66,66,0,0,1,0,132c-29.58,0-54.6-20-62.79-46.41H463.53V342.92h53.69A65.1,65.1,0,0,1,580,295.6a66,66,0,1,1-62.79,86ZM337,461.68c0-44.14-26.85-86.45-66.43-105.11-15,8.19-32.31,12.29-50.51,12.29s-35.94-4.1-51-12.29c-40.49,20-66,60.52-66,105.11v73.25H337ZM151.85,251.92c0,39.13,32.31,68.25,68.25,68.25a68.15,68.15,0,0,0,68.25-68.25c0-39.13-31.85-68.25-68.25-68.25A68.16,68.16,0,0,0,151.85,251.92ZM278.34,66.74c0-31.85,23.66-55.06,53.24-55.06C348,11.68,363,19,373.89,30.34L361.15,43.08c-9.55-9.1-20-12.29-29.12-12.29-19.56,0-34.12,13.65-34.12,35.95,0,21.84,14.1,35.94,33.67,35.94,11.37,0,22.75-5,30.94-11.83l10.92,12.74c-10.92,10.92-26.39,18.2-42.32,18.2C302,121.79,278.34,98.59,278.34,66.74Zm145.6,52.32H392.09V12.59h31.85c33.67,0,58.24,22.3,58.24,53.24S457.61,119.06,423.94,119.06Zm0-87.81H411.2V100h12.74c24.12,0,38.68-13.19,38.68-35C462.62,44.9,447.6,31.25,423.94,31.25Zm98.28,87.81H503.11V12.59h19.11V57.18h49.6V12.59h19.56V119.06H571.82V74.93h-49.6Zm30,94.19A27.58,27.58,0,0,0,580,241c15.47,0,27.3-12.74,27.3-27.75,0-15.47-11.83-27.76-27.3-27.76A27.58,27.58,0,0,0,552.25,213.25Zm0,148.33A27.58,27.58,0,0,0,580,389.33c15.47,0,27.3-12.28,27.3-27.75,0-15-12.29-27.76-27.3-27.76A27.87,27.87,0,0,0,552.25,361.58Zm0,147.87A27.87,27.87,0,0,0,580,537.21c15.47,0,27.3-12.74,27.3-27.76,0-15.47-11.83-27.75-27.3-27.75A27.57,27.57,0,0,0,552.25,509.45Z"/></svg>