<svg id="Calque_1" data-name="Calque 1" xmlns="http://www.w3.org/2000/svg" viewBox="0 0 700 600"><defs><style>.cls-1{fill:#413d3a;}</style></defs><path class="cls-1" d="M627.55,406.17a56,56,0,0,1-50,15.47c-24.11-1.37-44.13-17.29-52.32-40.5H463.3a108,108,0,0,1-21.39,58.24l25.94,28.67c15-3.64,25.48-2.73,37.31,1.36,32.76,11.38,50.05,48.23,36.85,81.45-12.74,30.48-44.59,45-77.8,34.58-34.13-10-50-49.14-36.86-81.45A58.81,58.81,0,0,1,436,489.43l-21.84-23.2a113.2,113.2,0,0,1-150.61-19.11l-86,26.84a62.21,62.21,0,0,1-5.92,26.85c-10.46,21.84-32.76,33.67-55.51,33.67-45.95,0-76-48.69-55-90.09a62.1,62.1,0,0,1,55.51-33.67,60.81,60.81,0,0,1,50,26.39l76.89-23.66c-15.47-36.86-7.73-81.45,17.29-112.84l-49.14-48.69a66.66,66.66,0,0,1-27.3,5.92c-34.12,0-61.88-27.76-61.88-61.43a61.88,61.88,0,1,1,123.76,0A60.93,60.93,0,0,1,239,225.08l49.6,49.59c23.2-15,57.78-20.47,90.09-12.74l8.19-18.2a56.68,56.68,0,0,1-17.75-23.2C352.28,180,381.4,135,426,135a61.49,61.49,0,0,1,57.33,38.22c13.19,31.39-1.82,67.79-33.22,80.53-8.64,3.64-20.47,5-27.75,4.55l-9.1,19.57a110.06,110.06,0,0,1,46.41,64.61h66a41.73,41.73,0,0,1,20.48-25.94c23.2-21.38,59.15-20,81.44,2.28A61.78,61.78,0,0,1,627.55,406.17Zm-511,42.77c-14.11,0-23.66,11.83-22.3,25,0,11.38,9.56,19.11,18.2,20.93,8.65,2.28,19.57-1.82,24.57-11.37C144.8,467.59,134.33,448.94,116.59,448.94ZM208,196.41a23.66,23.66,0,1,0-47.32,0c0,12.74,10.92,23.21,23.66,23.21S208,209.15,208,196.41ZM416,372.5a66.32,66.32,0,0,0-66.43-66.89c-36.86,0-66.43,29.58-66.43,66.89,0,37.76,31.39,66.43,66.43,66.43A66.22,66.22,0,0,0,416,372.5ZM302.23,66.74c0-31.85,23.66-55.06,53.23-55.06,16.38,0,31.4,7.28,42.32,18.66L385,43.08c-9.56-9.1-20-12.29-29.12-12.29-19.57,0-34.13,13.65-34.13,35.95,0,21.84,14.11,35.94,33.67,35.94,11.38,0,22.75-5,30.94-11.83l10.92,12.74c-10.92,10.92-26.39,18.2-42.31,18.2C325.89,121.79,302.23,98.59,302.23,66.74ZM404.15,200.05c1.36,9.56,8.64,17.29,17.74,18.66,15.47,2.73,28.67-10.47,25.94-25.48a22.2,22.2,0,0,0-21.84-20C410.52,173.21,401.42,188.22,404.15,200.05Zm43.68-81h-31.4V12.59h31.4c34.12,0,58.69,22.3,58.69,53.24S482,119.06,447.83,119.06Zm0-87.81H435.54V100h12.29c24.11,0,38.67-13.19,38.67-35C486.5,44.9,471.94,31.25,447.83,31.25Zm30.48,518.24a22.08,22.08,0,0,0,27.76-19.11c4.09-14.56-9.1-26.84-21.39-26.84A21.6,21.6,0,0,0,462.84,524C461,535.39,467.39,546.31,478.31,549.49ZM535.64,120H516.53V11.68L568,66.74l51-55.06V120H599.8V59.91L568,92.22,535.64,59.91Zm48.23,219.31a23.21,23.21,0,1,0,0,46.41c6.37,0,14.11-3.64,18.66-11.83C612.08,360.21,602.53,339.28,583.87,339.28Z"/></svg>