<svg id="Calque_1" data-name="Calque 1" xmlns="http://www.w3.org/2000/svg" viewBox="0 0 700 600"><defs><style>.cls-1{fill:#413d3a;}</style></defs><path class="cls-1" d="M445.78,75c82.81,0,151.06,67.34,151.06,150.6a151,151,0,0,1-44.59,106.93L360.24,525c-6.82,6.37-16.83,5-21.38,0C148.66,334.79,142.29,328.42,144.57,330.24A151.77,151.77,0,0,1,103.16,226.5C103.16,141.87,172.32,75,254.23,75a151.83,151.83,0,0,1,95.55,34.12A151.2,151.2,0,0,1,445.78,75Zm-192,47.77A103.42,103.42,0,0,0,150.48,227c.46,30.94,9.1,50.5,43.23,86,23.66,25,69.16,68.71,150.61,150.61,1.82,1.82,7.73,1.82,9.55,0,70.53-71,118.3-116.48,151.52-151.06,34.58-35.95,43.68-56,43.68-86.91,0-58.24-47.78-103.28-103.74-103.28-38.68,0-56.42,16.38-95.55,48.68C309.74,138.23,291.54,122.76,253.77,122.76Zm19.11,151.06h57.79V215.13h38.22v58.69h58.69V312H368.89v57.79H330.67V312H272.88Z"/></svg>