<svg id="Calque_1" data-name="Calque 1" xmlns="http://www.w3.org/2000/svg" viewBox="0 0 700 600"><defs><style>.cls-1{fill:#413d3a;}</style></defs><path class="cls-1" d="M62.44,402.59a156.69,156.69,0,0,1,64.16-126C107,254.26,96.11,227,96.11,196.47,96.11,129.13,151.17,75,219,75c67.34,0,122.4,54.14,122.4,121.48,0,30-10.47,58.24-30,80.08,7.28,5.46,14.1,10.92,20,17.75l40.49-95.55V80H543.38V198.75L683.07,524.07H62.44ZM253.09,476.3,310,343.44a104.91,104.91,0,0,0-38.67-35.95A119.21,119.21,0,0,1,219,319.32a120.61,120.61,0,0,1-52.32-11.83c-34.13,18.2-56.42,56-56.42,95.1V476.3Zm41-279.83c0-41.4-33.67-74.16-75.08-74.16-41.86,0-75.07,33.21-75.07,74.16a75.08,75.08,0,1,0,150.15,0ZM610.26,476.3,495.6,208.76V128.68h-76v80.08L305,476.3ZM372.75,409.41a27.3,27.3,0,1,1,27.3,27.3A27.39,27.39,0,0,1,372.75,409.41Zm57.79-98.73a27.3,27.3,0,0,1,54.6,0,27.3,27.3,0,0,1-54.6,0Zm57.78,98.73a27.39,27.39,0,0,1,27.3-27.3c14.56,0,27.3,12.29,27.3,27.3s-12.74,27.3-27.3,27.3A27.38,27.38,0,0,1,488.32,409.41Z"/></svg>