<svg id="Calque_1" data-name="Calque 1" xmlns="http://www.w3.org/2000/svg" viewBox="0 0 700 600"><defs><style>.cls-1{fill:#413d3a;}</style></defs><path class="cls-1" d="M101.34,479.88c0-61.43,50-109.66,108.75-109.66,17.74,0,34.58,3.64,50,12.29l58.69-71.44L198.71,165l36.4-30.49L349.77,273.31,464.43,134.53,501.29,165l-120.58,146,59.15,71.44c15-8.65,32.31-12.29,49.6-12.29,60.51,0,110.11,50.51,109.2,111-.45,61-50.51,107.84-109.66,107.84-60.06,0-109.65-48.23-109.65-109.2,0-25,9.55-49.6,23.66-67.34l-53.24-64.16-52.32,64.16a112.56,112.56,0,0,1,22.75,67.79c0,60.52-49.14,108.75-109.66,108.75A109.23,109.23,0,0,1,101.34,479.88Zm171.08,0a61.65,61.65,0,1,0-123.3,0c0,35.94,30.48,64.61,66.43,61.42A61.23,61.23,0,0,0,272.42,479.88Zm278.46,0a61.88,61.88,0,1,0-123.76.45c0,34.13,27.76,61.43,62.79,61.43C523.58,541.76,550.88,513.55,550.88,479.88Z"/></svg>