<svg id="Calque_1" data-name="Calque 1" xmlns="http://www.w3.org/2000/svg" viewBox="0 0 700 600"><defs><style>.cls-1{fill:#413d3a;}</style></defs><path class="cls-1" d="M358,228.54a68.32,68.32,0,0,1-44.59,64.16v88.72l-126,.46V357.76c0-10.92-9.56-20.47-20.48-20.47a20.78,20.78,0,0,0-20.93,20.47v24.12l-135.59-.46V71.57h303v93.27C339.31,174.4,358,199.88,358,228.54Zm-47.78,0a20.68,20.68,0,0,0-20.47-20.47H265.6V119.34H58.12V333.65l44.59.45a68.3,68.3,0,0,1,64.15-44.59c28.67,0,54.15,18.66,63.25,44.59H265.6V249.47h24.12C301.09,249.47,310.19,240.37,310.19,228.54ZM595.93,480.62a67.79,67.79,0,0,1-127.4,0H379.81l-.91-126H403a21.17,21.17,0,0,0,20.93-20.93c0-11.38-9.55-20.48-20.93-20.48H378.9l.91-135.59H689.66v303Zm46-255.26H427.58l-.45,44.13c25.93,10,44.59,35,44.59,64.16s-19.11,54.14-44.59,63.7v35.49H511.3V457a21.17,21.17,0,0,0,20.93,20.92c11.38,0,20.48-9.55,20.48-20.92V432.84h89.18Z"/></svg>