<svg id="Calque_1" data-name="Calque 1" xmlns="http://www.w3.org/2000/svg" viewBox="0 0 772 600.6"><defs><style>.cls-1{fill:#413d3a;}</style></defs><path class="cls-1" d="M161.69,263H113.91a89.29,89.29,0,0,1,49.14-79.63c-17.29-12.28-29.12-32.3-29.12-55.51,0-38.22,31.4-69.16,69.62-69.16s69.61,30.94,69.61,69.16c0,23.21-11.83,43.23-29.57,55.51A88.89,88.89,0,0,1,293.18,263H245.41a41.86,41.86,0,1,0-83.72,0Zm99.19,189.73c-52.78-39.13-83.27-101.46-83.27-167.44h47.78c0,51.42,23.2,99.65,64.15,129.22ZM181.71,127.85a21.84,21.84,0,0,0,21.84,21.84,21.84,21.84,0,0,0,0-43.68A21.84,21.84,0,0,0,181.71,127.85Zm104.65-25.48a206.8,206.8,0,0,1,199.29,0L462.9,143.78c-48.69-25.94-105.11-25.48-153.79,0ZM475.64,507.78H427.86a41.86,41.86,0,1,0-83.72,0H296.37c0-35,20-65.52,49.14-79.62-17.75-12.29-28.67-32.77-28.67-56,0-38.22,30.49-69.62,69.16-69.62,38.22,0,69.16,31.4,69.16,69.62a68.52,68.52,0,0,1-28.66,56C455.62,442.26,475.64,472.75,475.64,507.78ZM364.16,372.19A21.85,21.85,0,0,0,386,394c11.83,0,21.39-10,21.39-21.84A21.46,21.46,0,0,0,386,350.35,21.84,21.84,0,0,0,364.16,372.19ZM658.09,263H610.32a41.86,41.86,0,0,0-83.72,0H478.82a88.88,88.88,0,0,1,49.6-79.63c-17.75-12.28-29.58-32.3-29.58-55.51,0-38.22,31.4-69.16,69.62-69.16s69.61,30.94,69.61,69.16c0,23.21-11.83,43.23-29.12,55.51A89.29,89.29,0,0,1,658.09,263Zm-63.24,22.29c0,65.52-31.4,128.77-83.72,167.44L482.92,414.5c40.49-30.94,64.15-77.8,64.15-129.22ZM546.62,127.85A21.84,21.84,0,1,0,568.46,106,22.14,22.14,0,0,0,546.62,127.85Z"/></svg>