<svg id="Calque_1" data-name="Calque 1" xmlns="http://www.w3.org/2000/svg" viewBox="0 0 700 600"><defs><style>.cls-1{fill:#413d3a;}</style></defs><path class="cls-1" d="M323.16,562.23a26.49,26.49,0,0,1,7.28-18.65V519.46c-28.67-3.18-55.51-14.56-78.72-32.76L234.89,504c.45,14.11-11.83,26.85-26.85,26.85-15.92,0-26.84-13.2-26.84-27.3s12.28-27.3,26.84-26.85l16.84-16.83c-18.66-24.12-28.21-47.78-32.76-78.72H168a25,25,0,0,1-18.65,7.74,27.08,27.08,0,0,1,0-54.15A25.42,25.42,0,0,1,168,342.92h24.12c3.18-29.12,14.56-56,32.76-79.17L208,246.92c-16.38-.46-26.84-13.2-26.84-26.85,0-15.92,13.65-27.3,26.84-27.3,15.47,0,27.3,14.11,26.85,26.85l16.83,16.83c22.3-17.29,51-29.57,78.72-32.3V180.49a28.49,28.49,0,0,1-7.28-19.11,26.85,26.85,0,1,1,53.69,0,28.9,28.9,0,0,1-7.74,19.11v23.66c27.76,2.73,56.42,15,78.72,32.3l16.83-16.83c.46-15.93,13.65-26.85,26.85-26.85,14.56,0,27.3,12.74,27.3,27.3S506.52,246.46,492,246.92l-16.83,16.83c17.29,22.3,29.57,51,32.3,79.17h24.12a26.46,26.46,0,0,1,19.11-8.19,27.08,27.08,0,0,1,0,54.15c-7.28,0-14.56-2.73-19.11-7.74H507.43c-3.18,27.76-15,56.42-32.3,78.72L492,476.69c14.56-.45,26.85,12.74,26.85,26.85s-11.83,27.3-27.3,27.3c-15,0-26.39-11.83-26.85-26.85L447.83,486.7a150.07,150.07,0,0,1-78.72,32.76v24.12a26.79,26.79,0,1,1-45.95,18.65ZM461,361.58c0-62.34-51-111.48-111-111.48-61.42,0-111.47,50.51-111.47,111.48a111.25,111.25,0,1,0,222.49,0ZM265.37,343.83c0-15.92,13.65-27.3,27.76-27.3,15.47,0,26.84,13.65,26.84,27.3,0,15.93-13.65,27.3-26.84,27.3A27.77,27.77,0,0,1,265.37,343.83ZM305,418.91c0-15.93,13.65-27.3,27.3-27.3,15.92,0,27.3,13.65,27.3,27.3,0,15.92-14.11,27.3-27.3,27.3C316.33,446.21,305,432.56,305,418.91ZM340.45,304.7c0-15.92,14.1-27.3,27.3-27.3,15.47,0,26.84,13.65,26.84,27.3,0,15.93-14.1,26.85-27.3,26.85A26.89,26.89,0,0,1,340.45,304.7ZM380,379.32a26.89,26.89,0,0,1,26.85-26.84c14.56,0,27.3,11.83,27.3,26.84,0,15.93-13.65,27.3-27.3,27.3C391.41,406.62,380,393,380,379.32Z"/></svg>