<svg id="Calque_1" data-name="Calque 1" xmlns="http://www.w3.org/2000/svg" viewBox="0 0 700 600"><defs><style>.cls-1{fill:#413d3a;}</style></defs><path class="cls-1" d="M294,514.06l-96-56.42C149.35,417.15,122.5,358,122.5,297.94V223.77l95.55-16.83a144.61,144.61,0,0,0,43.23-16.38c54.6-32.31,122.85-32.31,177,0a143,143,0,0,0,44.14,16.38l95.09,16.83v74.17c0,61.42-28.21,121-75.53,159.7l-96,56.42c-17.29,10.47-36.86,15-56,15S311.33,524.53,294,514.06Zm87.81-40.95,91-53.69a159.23,159.23,0,0,0,56.88-121.48V263.36l-56-9.56c-21.38-3.64-40-10.92-59.6-22.29-39.59-23.66-89.18-23.21-128.77,0-19.11,11.37-38.22,18.65-59.15,22.29l-56,9.56v34.58c0,45.95,21.38,92.36,56.87,121.48l91.46,53.69C337.72,484.49,362.29,484.49,381.85,473.11ZM217.6,101.83a26.85,26.85,0,1,1,26.84,26.85A26.6,26.6,0,0,1,217.6,101.83ZM328.16,340.25l-105.1-21.84,7.73-37.31L335.9,302.94a73.55,73.55,0,0,0,28.21,0l105.1-21.84L477,318.41,371.84,340.25a105.74,105.74,0,0,1-43.68,0Zm5,83.72L255.82,408.5l7.73-37.76,76.9,15.92a44.94,44.94,0,0,0,19.11,0l76.89-15.92,7.74,37.76L366.84,424a78.77,78.77,0,0,1-33.67,0Zm95.09-322.14a27.08,27.08,0,1,1,27.3,26.85A27,27,0,0,1,428.26,101.83Z"/></svg>