<svg id="Calque_1" data-name="Calque 1" xmlns="http://www.w3.org/2000/svg" viewBox="0 0 700 600"><defs><style>.cls-1{fill:#413d3a;}</style></defs><path class="cls-1" d="M378.44,566.78l-79.17-79.62H43.1V439.38H319.29l92.82,93.73A30.94,30.94,0,0,0,434,541.76a29.91,29.91,0,0,0,21.39-8.65l10.92-11.83L424.4,479.42l27.3-26.84,41.86,41.86,26.84-27.3-41.86-41.41,27.3-27.3,41.86,41.86L580,408.44l-86.91-91L469.44,341.1c-13.19,14.11-31.85,21.39-51.41,21.39-40.95-.91-72.8-32.31-72.8-72.8,0-15.93,4.55-30.94,13.65-43.23,3.18-3.64,6.37-7.28,10-10.92H255.14l79.17,128.31-16.38,28.67H43.1L26.72,363.85,164.14,140H196.9l28.66,47.78H416.21L464,140H671.92v38.22h-192l-86.45,86.45a35.44,35.44,0,0,0-10,25c0,20.47,16.83,34.58,34.58,34.58a36.4,36.4,0,0,0,24.57-10l86.9-86.91,26.85,26.85-36,36.4,97.83,101.92h53.69v38.22H625.05l-136,136a79.68,79.68,0,0,1-110.57,0ZM283.8,354.3,180.52,187.77,77.68,354.3ZM161.41,237.82h38.67v56.42H161.41Zm0,74.16h38.67v27.3H161.41Z"/></svg>