<svg id="Calque_1" data-name="Calque 1" xmlns="http://www.w3.org/2000/svg" viewBox="0 0 700 600"><defs><style>.cls-1{fill:#413d3a;}</style></defs><path class="cls-1" d="M69.72,269.21A27.08,27.08,0,1,1,97,296.06,27,27,0,0,1,69.72,269.21Zm96.46,297.57L117,536.3H72.91V488.52h57.33l61,37.31a69,69,0,0,0,36.4,10.47H391a69.75,69.75,0,0,0,34.13-9.1L577.5,451.67a19,19,0,0,0,7.74-20.93,17.62,17.62,0,0,0-21.39-12.29L415.52,454.4a65.12,65.12,0,0,1-62.33,46H244V453h109.2c9.55,0,18.2-8.19,18.2-17.74a18.25,18.25,0,0,0-18.2-18.2h-95.1a59.75,59.75,0,0,1-22.75-4.55l-41.86-13.2a20.25,20.25,0,0,0-4.55-.91h-116V351.11h116a57.24,57.24,0,0,1,21.39,3.64L252.63,368a16.63,16.63,0,0,0,6.83,1.36h93.73a65.41,65.41,0,0,1,58.69,36.86L552,372a66.65,66.65,0,0,1,79.17,44.59c8.65,29.12-4.09,61-30.48,76.44l-152.88,76a118,118,0,0,1-56.88,15H227.61C205.77,584.07,184.84,577.7,166.18,566.78Zm9.56-282.55A27.07,27.07,0,1,1,203,311.07,27,27,0,0,1,175.74,284.23Zm11.83-119.67a27.18,27.18,0,0,1,26.84-26.84c14.56,0,27.3,12.28,27.3,26.84s-12.74,27.3-27.3,27.3S187.57,179.12,187.57,164.56Zm80.53,99.65c0-35,45-91,82.81-129.22,40,40.49,81.9,94.64,81.9,129.22a82.14,82.14,0,0,1-81.9,81.9C305.41,346.11,268.1,309.25,268.1,264.21Zm116.94,0c0-15-17.29-38.22-34.13-58.24-16.83,19.11-35,46.41-35,58.24,0,18.65,15.47,34.58,35,34.58C369.57,298.79,385,282.86,385,264.21ZM464.21,196a27.07,27.07,0,1,1,27.3,26.84A27,27,0,0,1,464.21,196Zm8.19,127.4a27.07,27.07,0,1,1,27.3,26.84A27,27,0,0,1,472.4,323.36Zm97.82-70.07c0-14.56,12.29-26.85,27.3-26.85a27.2,27.2,0,0,1,26.85,26.85,27.08,27.08,0,0,1-54.15,0Z"/></svg>