<svg id="Calque_1" data-name="Calque 1" xmlns="http://www.w3.org/2000/svg" viewBox="0 0 700 600"><defs><style>.cls-1{fill:#413d3a;}</style></defs><path class="cls-1" d="M-60.18,461.68c0-56.88,29.58-107.84,73.71-137.87a115.75,115.75,0,0,1-25-71.89C-11.49,186.86,40.83,135,105.9,135A116.6,116.6,0,0,1,222.83,251.92c0,27.3-9.1,52.33-25,71.89,44.59,30,74.16,81,74.16,137.87V584.07H-60.18Zm283,73.25V461.68c0-44.14-26.84-86.45-66.43-105.11-15,8.19-32.3,12.29-50.5,12.29s-35.95-4.1-51-12.29c-40.5,20-66,60.52-66,105.11v73.25Zm-48.68-283c0-39.13-31.85-68.25-68.25-68.25a67.87,67.87,0,0,0-68.25,68.25c0,39.13,32.3,68.25,68.25,68.25A68.15,68.15,0,0,0,174.15,251.92ZM278.8,182.76l13.65,10.47-29.12,40H431.68l-29.12-40,13.65-10.47,42.31,60.06-41.86,60.06-13.19-10L432.13,251H262.87l28.67,41.86-13.2,10-41.86-60.06ZM428.49,461.68c0-56.88,29.12-107.84,73.71-137.87-15.92-19.56-25-44.59-25-71.89C477.18,186.86,529.5,135,594.57,135a116.64,116.64,0,0,1,91.91,188.82c44.59,30,73.71,81,73.71,137.87V584.07H428.49Zm283,73.25V461.68c0-44.14-26.84-86.45-66.43-105.11-15,8.19-32.76,12.29-50.5,12.29-18.66,0-36-4.1-51.42-12.29-40,20-66,60.52-66,105.11v73.25Zm-49.14-283a67.76,67.76,0,0,0-67.79-68.25c-38.68,0-68.25,30.49-68.25,68.25,0,39.13,31.85,68.25,68.25,68.25A67.77,67.77,0,0,0,662.36,251.92Z"/></svg>