<svg id="Calque_1" data-name="Calque 1" xmlns="http://www.w3.org/2000/svg" viewBox="0 0 700 600"><defs><style>.cls-1{fill:#413d3a;}</style></defs><path class="cls-1" d="M170.51,451.27c4.09-37.76,13.65-63.7,30.94-75.53C217.83,363.91,235.57,358,251,353.45c10.47-3.19,19.57-6.37,25.48-10.47,14.56-9.1,21.39-22.75,33.67-59.15,5.92-18.65,9.1-43.22,9.1-65.52,0-15-1.36-29.57-4.55-40.49-9.1-30.94-60.06-55.51-104.65-55.51-56.42,0-82.81,31.39-82.81,91,0,21.38,6.83,36.85,13.65,53.23,8.19,18.2,12.74,30.94,12.74,48.69,0,39.13-23.2,83.26-35.94,103.74-21.39,35.49-46.87,46.41-76,66.43L20.36,442.17c9.1-4.09,41.86-23.2,56.87-47.77,17.29-28.67,29.12-59.61,29.12-79.63,0-10-5-18.65-9.1-29.12-7.73-18.2-18.2-40.95-18.2-71.89,0-84.63,46.41-139.23,131-139.23,78.26,0,137.41,45.05,150.15,90.09,5,17.29,7.28,40.5,6.37,65.52-.91,24.12-5,48.69-11.37,68.71-11.83,35.94-22.75,64.61-52.33,83.72-11.37,7.73-24.57,12.28-37.31,16.38-13.19,4.09-26.84,7.73-36.4,15.47-3.64,2.73-8.19,13.19-11.37,36.85a246.7,246.7,0,0,0-1.82,25H608.22L480.36,171,524,152.34,679.65,524.07H167.78C167.78,487.22,167.32,473.11,170.51,451.27ZM373.44,326.6c0-14.56,11.83-27.3,26.84-27.3,15.93,0,26.85,13.65,26.85,27.3a26.61,26.61,0,0,1-26.85,26.85C383.9,353.45,373.44,339.8,373.44,326.6Zm30.48,90.09a27.08,27.08,0,0,1,54.15,0c0,15-11.83,26.85-27.3,26.85A26.61,26.61,0,0,1,403.92,416.69Zm59.15-59.6c0-15.47,13.65-26.85,27.3-26.85,14.11,0,26.85,11.83,26.85,26.85a27,27,0,0,1-26.85,27.3A27.39,27.39,0,0,1,463.07,357.09Z"/></svg>