<svg id="Calque_1" data-name="Calque 1" xmlns="http://www.w3.org/2000/svg" viewBox="0 0 700 600"><defs><style>.cls-1{fill:#413d3a;}</style></defs><path class="cls-1" d="M649.85,80V434.44H590.24c-7.73,54.6-53.69,94.64-109.2,94.64-53.69,0-98.73-37.77-108.29-88.27-6.82-5.46-15-7.74-23.66-7.74a35.49,35.49,0,0,0-21.84,6.83A109.9,109.9,0,0,1,219,529.08c-56,0-101.46-40.5-109.65-94.64H50.16V80H97.93V387.12h15a110.13,110.13,0,0,1,106-79.63c50.51,0,93.28,34.58,106,81,8.19-1.82,15.92-3.18,24.57-3.18a94.86,94.86,0,0,1,25,3.64c12.29-46.87,55.51-81.45,106.47-81.45A110,110,0,0,1,586.6,387.12h15.47V80ZM219,355.27a63.11,63.11,0,0,0-63.24,63.24c0,35,27.3,63.25,63.24,63.25,36.4,0,62.79-29.58,62.79-63.25A63.3,63.3,0,0,0,219,355.27Zm262.08,0a63.11,63.11,0,0,0-63.24,63.24c0,35,27.3,63.25,63.24,63.25,36.4,0,62.79-29.58,62.79-63.25A63.3,63.3,0,0,0,481,355.27Z"/></svg>