<svg id="Calque_1" data-name="Calque 1" xmlns="http://www.w3.org/2000/svg" viewBox="0 0 700 600"><defs><style>.cls-1{fill:#413d3a;}</style></defs><path class="cls-1" d="M95.88,151.43,120,110l44.13,25.48L140,177.36Zm0,60.06L140,186l24.11,41.4L120,252.89ZM172.32,464,120,494l-24.12-41.4,52.33-30-52.33-30L120,351.17l52.32,30V321.14h47.32V381.2l52.33-30,23.66,41.41-52.33,30,52.33,30L272,494l-52.33-30v60.06H172.32Zm0-384h47.32v51.42L171.87,131Zm0,152h47.32v51H172.32Zm55.06-96.46L272,110l23.66,41.41-44.14,25.93Zm0,91.91L251.49,186l44.14,25.48L272,252.89Zm308.94,32.31c-23.66,9.55-46.41,14.56-67.79,14.56-25.48,0-48.69-7.28-67.8-20.93-18.65-13.2-32.76-32.76-41-57.79-7.73-23.2-10-51-6.82-81.9l1.36-13.19,12.29-5.92C394.82,81.81,421.66,75,446.69,75h.45c25.48,0,48.69,6.82,67.34,20.47,18.66,13.2,33.22,33.22,41.41,57.79,6.37,20,9.1,42.31,7.73,67.34l46,30.48-26.39,40ZM359.78,420.33a26.85,26.85,0,1,1,26.85,26.85A26.61,26.61,0,0,1,359.78,420.33ZM391.63,343a27,27,0,1,1,0,38.22A27.2,27.2,0,0,1,391.63,343Zm0,116.48a27,27,0,1,1,0,38.22A27.2,27.2,0,0,1,391.63,459.46Zm124.22-243c.91-18.65-.91-34.58-5.46-48.23-5-15-13.2-26.39-23.66-34.12s-24.12-11.83-39.59-11.83h-.45c-14.56,0-30.49,3.64-47.32,10.46-.91,18.2.91,34.13,5.46,48.23,5,14.56,13.19,26.39,23.66,33.67,10.92,7.74,24.11,11.83,40,11.83C483.09,226.5,499,222.86,515.85,216.49Zm-73.71,121c0-14.56,12.28-26.84,27.3-26.84a27.18,27.18,0,0,1,26.84,26.84c0,15-12.28,27.3-26.84,27.3A27.37,27.37,0,0,1,442.14,337.52Zm0,82.81a27.07,27.07,0,1,1,27.3,26.85A27,27,0,0,1,442.14,420.33Zm0,82.36c0-14.56,12.28-27.3,27.3-27.3,14.56,0,26.84,12.74,26.84,27.3a27.07,27.07,0,0,1-54.14,0ZM508.57,343c10.46-10.46,27.3-10.46,38.22,0a27.2,27.2,0,0,1,0,38.22c-10.92,10.47-27.76,10.47-38.22,0A26.39,26.39,0,0,1,508.57,343Zm0,116.48c10.46-10.46,27.3-10.46,38.22,0a27.2,27.2,0,0,1,0,38.22c-10.92,10.47-27.76,10.47-38.22,0A26.39,26.39,0,0,1,508.57,459.46ZM525,420.33a26.6,26.6,0,0,1,26.84-26.84,26.85,26.85,0,1,1,0,53.69A26.61,26.61,0,0,1,525,420.33Z"/></svg>