<svg id="Calque_1" data-name="Calque 1" xmlns="http://www.w3.org/2000/svg" viewBox="0 0 700 600"><defs><style>.cls-1{fill:#413d3a;}</style></defs><path class="cls-1" d="M326.12,482.21C218.74,471.75,135.47,378.93,135.47,269.27V245.61h24.11c32.77,0,68.71,8.65,97.38,23.66,17.74-45.95,41-85.08,76.44-119.21l16.83-16.83,16.84,16.83c35,34.13,58.69,73.26,76.44,119.21,28.66-15,64.15-23.66,96.91-23.66h24.12v23.66c0,109.2-82.81,202.48-190.65,212.94v41.86H326.12ZM170.5,171l-8.19-76.44,31.86-3.18,3.64,35.49a249.22,249.22,0,0,1,304.39,0l3.64-35.49,31.85,3.18L530,171,456.7,195.11l-10-30.49,36.4-11.83c-36.85-30-87.36-45.95-132.86-45.95-46.86,0-97.37,16.83-133.31,45.95l36.4,11.83-10,30.49ZM277.43,342.07a166.41,166.41,0,0,0-91.91-46.41c5,34.58,21.84,66.89,46.41,91.91,25,25.48,57.79,40.95,91.91,46.41C318.84,399.4,302.46,367.55,277.43,342.07Zm125.13-45.95c-13.2-37.31-30.94-69.16-52.33-94.19-24.11,27.76-40.49,61-52.78,94.19C325.21,321.6,338,338,350.23,364.37,362.52,337.52,375.26,321.14,402.56,296.12Zm65.06,91.45a161.37,161.37,0,0,0,46.87-91.91,166.41,166.41,0,0,0-91.91,46.41c-25,25.48-41.41,57.33-46,91.91C410.75,428.52,443.05,412.6,467.62,387.57Z"/></svg>