<svg id="Calque_1" data-name="Calque 1" xmlns="http://www.w3.org/2000/svg" viewBox="0 0 700 600"><defs><style>.cls-1{fill:#413d3a;}</style></defs><path class="cls-1" d="M60.17,298.39c0-80.53,64.61-142.87,142.87-142.87a143.07,143.07,0,0,1,41.86,5.92l52.32-51.87h-46L253.54,80H360V186.46H329.53v-45l-40,42.77a194.73,194.73,0,0,1,15,13.19l-33.67,33.67c-58.69-59.6-162.89-17.74-162.89,67.34a95.56,95.56,0,0,0,162.89,67.8l33.67,33.67c-27.3,27.3-62.79,41.86-101.46,41.86C122.5,441.72,60.17,376.65,60.17,298.39Zm232.05-56.87H407.79v38.67H292.22Zm0,71.43H407.79v38.22H292.22ZM472.85,502.23H443.73V464h29.12V439.9c-29.12-5-56.87-19.11-77.35-40l33.67-33.67a96.24,96.24,0,0,0,67.34,27.75c53.24,0,95.55-41.86,95.55-95.55,0-54.14-43.68-95.09-95.55-95.09a94.33,94.33,0,0,0-67.34,27.75L395.5,197.38c26.39-27.3,62.79-41.86,101-41.86,80.54,0,143.33,65.52,143.33,142.87,0,69.62-51,129.68-119.21,141.51V464h29.12v38.22H520.63v21.84H472.85Z"/></svg>