<svg id="Calque_1" data-name="Calque 1" xmlns="http://www.w3.org/2000/svg" viewBox="0 0 700 600"><defs><style>.cls-1{fill:#413d3a;}</style></defs><path class="cls-1" d="M81.55,119.06H11.48V12.59H80.19V31.25H30.59V55.82h40V73.11h-40V100h51Zm572.39,74.62V584.07H606.17V224.17l-81-36.86-81,36.86v109.2c23.66-5,39.58-5.92,78.26-5.92,0,152-93.73,261.63-238.42,261.63-140.6,0-238-106.47-238-261.63,65.52,0,106.47,6.83,156.07,40.5,9.1-50.05,32.76-90.55,81.9-142,45,47.32,71.43,85.54,81.9,142a224,224,0,0,1,30.48-18.2V193.68L525.18,135ZM258.55,539.48C245.35,452.58,179.38,388,95.66,377.05,107,462.13,173,526.29,258.55,539.48ZM126.14,120H107V11.68l71,66.43V13.5h19.11V121.79l-71-65.52Zm111.93,0H216.69L269,11.68,321.34,120H300l-9.1-19.56H247.17Zm46,344a210.11,210.11,0,0,1,38.67-59.6c-1.82-38.22-15.47-76-38.67-105.56-23.21,31.39-36.86,66.88-38.68,105.56A216.64,216.64,0,0,1,284,464ZM282.66,82.66,269,53.54,255.36,82.66ZM310,539.48c87.82-13.19,150.15-77.8,162.89-162.43C388.22,388,320.88,455.76,310,539.48ZM330,66.74c0-31.85,23.66-55.06,53.24-55.06,16.38,0,31.39,7.28,42.31,18.66L412.79,43.08c-9.55-9.1-20-12.29-29.12-12.29-19.56,0-34.12,13.65-34.12,35.95,0,21.84,14.1,35.94,33.67,35.94,11.37,0,22.75-5,31.39-11.83l10.92,12.74c-11.37,10.92-26.84,18.2-42.77,18.2C353.64,121.79,330,98.59,330,66.74Z"/></svg>