<svg id="Calque_1" data-name="Calque 1" xmlns="http://www.w3.org/2000/svg" viewBox="0 0 700 600"><defs><style>.cls-1{fill:#413d3a;}</style></defs><path class="cls-1" d="M101.35,379.38a150.84,150.84,0,0,1,98.73-141.5,120.63,120.63,0,0,1-.45-12.74C199.63,141.87,267,75,350.23,75A150,150,0,0,1,500.38,225.14a120.63,120.63,0,0,1-.45,12.74,150.27,150.27,0,1,1-149.7,255.25,152.71,152.71,0,0,1-98.73,36A149.62,149.62,0,0,1,101.35,379.38Zm253.89-3.18c0-56-47.78-100.56-103.74-100.56-58.7,0-103.29,48.23-103.29,103.74,0,56.42,46,102.83,103.29,102.83C310.19,482.21,355.24,436.26,355.24,376.2Zm-97.83-4.1c-11.83-6.37-20-12.28-20-19.56,0-8.19,6.37-12.74,14.56-12.74,8.65,0,13.65,4.09,20.48,10.46L283.35,338c-8.19-7.74-15.93-11.83-25.48-14.11V310.22H244.22v14.11c-13.65,2.73-24.57,14.1-24.57,28.21,0,10.92,8.19,19.56,16.38,24.57,9.55,6.82,31.85,16.83,31.85,26.84,0,9.56-8.19,14.56-15.93,14.56-11.83,0-17.29-7.28-27.75-15.92L212.37,414c8.64,9.56,20.47,18.2,31.85,20v14.11h13.65V434c15.92-3.18,27.3-13.65,27.3-30C285.17,389.39,272.88,380.75,257.41,372.1ZM453.06,229.69c.91-61.88-45.5-107.84-102.83-107.84C292,121.85,246,167.81,247,229.69c36.85-1.82,74.62,11.37,103.28,35.94C378,241.06,417.12,227.87,453.06,229.69ZM551.8,379.38c0-56.87-46-103.74-103.29-103.74A103.7,103.7,0,0,0,379.81,302a140.31,140.31,0,0,1,22.29,76.44,148.4,148.4,0,0,1-22.29,77.81,103.48,103.48,0,0,0,172-76.9Z"/></svg>