<svg id="Calque_1" data-name="Calque 1" xmlns="http://www.w3.org/2000/svg" viewBox="0 0 700 600"><defs><style>.cls-1{fill:#413d3a;}</style></defs><path class="cls-1" d="M653.94,242.82,638,287.41,350.46,185.49,62,287.41,46.06,242.82,350.46,135ZM618,445.75V584.07H570.22V535.84H131.6v48.23H83.83V333.37H131.6v154.7H570.22V445.75a44.66,44.66,0,0,0-44.59-44.59H374.12V353.39H525.63A92.43,92.43,0,0,1,618,445.75ZM253.09,457.58c-49.6,0-91-40.49-91-91,0-50.05,41.4-90.54,91-90.54,50,0,91,40.49,91,90.54A91,91,0,0,1,253.09,457.58Zm0-47.77a43,43,0,1,0,0-86c-23.66,0-43.23,19.11-43.23,42.77A43.21,43.21,0,0,0,253.09,409.81Z"/></svg>