<svg id="Calque_1" data-name="Calque 1" xmlns="http://www.w3.org/2000/svg" viewBox="0 0 700 600"><defs><style>.cls-1{fill:#413d3a;}</style></defs><path class="cls-1" d="M390.72,422.15,356.6,456.28,196,296.12,230.56,262,128.19,159.62l232.05-25.48,4.55-4.1c52.78-47.32,132-54.6,207.48-47.77,5,103.74-4.55,162.89-48.23,207l-4.55,4.55L493.1,525ZM129.1,368.92l34.58-35L322,492.22l-34.58,34.13ZM316.56,176.45,211,188.74l46.86,46.86ZM487.64,257c27.3-27.3,39.58-82.36,36.85-129.68C474.44,126,428,135.05,397.09,166l-131,130.58,90.55,91Zm-10.92,80.08L418,395.31l46.41,46.86Z"/></svg>