<svg id="Calque_1" data-name="Calque 1" xmlns="http://www.w3.org/2000/svg" viewBox="0 0 700 600"><defs><style>.cls-1{fill:#413d3a;}</style></defs><path class="cls-1" d="M135.7,113.21l16.83-34.58,63.25,30.94-16.84,34.12Zm0,188.82,63.24-30.94,16.84,34.58-63.25,30.49Zm126.49,52.33c0-69.16-44.59-77.81-44.59-147a132.41,132.41,0,0,1,264.81,0c0,70.07-44.59,76.44-44.59,147v25.48H262.19Zm.91,50.5H437.36v47.78H263.1Zm0,71.44H437.36v47.77H263.1ZM392.32,332.06V314.32c0-45.5,42.31-60.06,42.31-106.93A84.56,84.56,0,0,0,350,122.31h-.45a85.34,85.34,0,0,0-84.18,85.08c0,47.32,42.32,65.52,42.32,109.66v15Zm91.91-222.49,63.24-30.94,16.84,34.58-63.25,30.48Zm0,196.1,16.83-34.58L564.31,302l-16.84,34.13Z"/></svg>