<svg id="Calque_1" data-name="Calque 1" xmlns="http://www.w3.org/2000/svg" viewBox="0 0 700 600"><defs><style>.cls-1{fill:#413d3a;}</style></defs><path class="cls-1" d="M52.21,133.68,350.23,75,647.8,133.68V524.07H600v-354l-249.8-47.77L100,170.08v354H52.21Zm273,368.1a95,95,0,0,1-45.5-160.16l16.38-16.84-89.18-55.51,93.27-122.85L511.76,294.3,426.22,406.23,329.3,345.71l-22.75,22.75A58.32,58.32,0,0,0,290.17,409a56.74,56.74,0,0,0,16.38,40.49,56.16,56.16,0,0,0,40,16.84,57.46,57.46,0,0,0,41-16.84l5-5.46H502.66v38.22H408a91.23,91.23,0,0,1-44.59,20.48v21.38H325.21Zm118.3-197L310.65,211.94,276.52,257l138.32,85.54Z"/></svg>