<svg id="Calque_1" data-name="Calque 1" xmlns="http://www.w3.org/2000/svg" viewBox="0 0 700 600"><defs><style>.cls-1{fill:#413d3a;}</style></defs><path class="cls-1" d="M52.21,136.41l298-59.15L647.8,136.41V524.07H600V172.36L350.23,125,100,172.36V524.07H52.21ZM167.32,430.34c0-27.3,10.92-62.79,23.21-86.45-16.84-34.58-25-67.79-21.84-101,6.37-50.5,43.68-79.62,93.27-79.62,29.58,0,60.06,10,86.45,22.75,27.76-13.2,56.42-22.3,84.63-22.3,54.15,0,89.64,30.49,95.1,81.45,3.18,34.12-6.83,68.25-21.84,99.19,13.65,28.21,22.75,60.06,22.75,86.45,0,56.42-37.77,94.18-94.64,94.18-29.58,0-59.61-9.55-86.45-22.75C320.66,515.88,289.72,525,262,525,205.09,525,167.32,487.67,167.32,430.34Zm130.59,40c-27.3-19.11-56.88-48.68-76-76-4.09,12.74-6.82,25-6.82,35.94,0,31.4,16.38,46.87,46.86,46.87C272.88,477.21,285.62,474.48,297.91,470.38Zm0-252.52c-12.29-4.1-25-6.83-36-6.83-29.57,0-45.95,15.93-46.41,45.5-.45,11.38,1.82,23.66,6.37,36.86C243.31,264.27,269.7,238.79,297.91,217.86ZM451.24,344.35C425.76,302,388.45,266.09,348.41,241.06,307,267,270.15,302.94,244.67,343.89c25.48,38.68,72.35,84.63,103.74,103.74C387.09,424,428,383,451.24,344.35Zm-130.13,0a27,27,0,0,1,27.3-26.85,26.61,26.61,0,0,1,26.85,26.85c0,14.56-11.83,27.3-26.85,27.3S321.11,358.91,321.11,344.35ZM481.27,257.9c0-30.94-16.83-46.41-46.86-46.41-10.92,0-23.21,2.73-35.49,6.37,25.93,18.65,57.33,50.05,75.53,76C479.45,280.65,481.27,270.64,481.27,257.9Zm0,172.9c0-11.38-2.73-23.66-6.82-35.95-21.84,29.12-47.32,55.06-75.53,76,12.28,4.09,24.57,6.37,35.49,6.37C466.71,477.21,481.27,459.46,481.27,430.8Z"/></svg>