<svg id="Calque_1" data-name="Calque 1" xmlns="http://www.w3.org/2000/svg" viewBox="0 0 700 600"><defs><style>.cls-1{fill:#413d3a;}</style></defs><path class="cls-1" d="M69,204.66a122.83,122.83,0,0,1,36.4-87.81c23.2-23.66,54.14-36.4,87.36-36.4H507.21A122.83,122.83,0,0,1,595,116.85a124.28,124.28,0,0,1,36,87.81V524.07H583.19V204.66c0-42.31-34.12-76.44-76-76.44H192.8c-41.86,0-76,34.13-76,76.44V524.07H69Zm94.18,319.41,92.37-83.26A69,69,0,0,1,206,374.38V242a69.61,69.61,0,0,1,69.62-69.61H424.39c38.23,0,69.16,31.39,69.16,69.61V374.38c0,31.39-20,57.78-48.68,66.43l92.37,83.26H465.8L377.53,444h-54.6L234.2,524.07Zm283-225.68V242a21.85,21.85,0,0,0-21.84-21.84H275.61A21.85,21.85,0,0,0,253.77,242v56.42Zm-21.84,97.83a22.14,22.14,0,0,0,21.84-21.84V346.17H253.77v28.21a22.14,22.14,0,0,0,21.84,21.84Z"/></svg>