<svg id="Calque_1" data-name="Calque 1" xmlns="http://www.w3.org/2000/svg" viewBox="0 0 700 600"><defs><style>.cls-1{fill:#413d3a;}</style></defs><path class="cls-1" d="M282.89,485.85C262,491.77,243.3,494,220.1,494,120,489.49,61.3,402.13,70,302.49l.91-15L84.51,282Q135,260.86,181.42,262.9c40,1.82,76,18.2,101.47,47.78V257.44c-45.5-10.46-78.26-51.87-78.26-99.19V80H252.4v78.26a54.47,54.47,0,0,0,54.6,54.6c30,0,54.15-24.57,54.15-54.6V80h47.77v78.26c0,48.23-34.12,89.18-78.26,99.19V524.07H282.89Zm-24.57-43.22-71.44-50.05,22.3-31.4,71.43,50.05c-15.92-89.18-79.17-118.3-162.89-91,.46,70.07,36.4,123.31,103.74,126A149.19,149.19,0,0,0,258.32,442.63ZM287.44,80h38.22v85.09H287.44Zm178.81,0h81.91c46,0,82.81,34.13,82.81,79.63V307.49c0,45.5-37.31,82.81-82.81,82.81H514V524.07H466.25Zm81.91,262.54a34.76,34.76,0,0,0,35-35V159.62c0-20.93-17.29-31.85-35-31.85H514V342.53Z"/></svg>