<svg id="Calque_1" data-name="Calque 1" xmlns="http://www.w3.org/2000/svg" viewBox="0 0 700 600"><defs><style>.cls-1{fill:#413d3a;}</style></defs><path class="cls-1" d="M577.5,301.58c0,125.58-101.92,227.5-227.5,227.5S122.5,427.16,122.5,301.58,224.42,74.08,350,74.08,577.5,176,577.5,301.58ZM350,121.85c-99.64,0-179.72,82.36-179.72,179.73,0,100.55,82.35,180.18,179.72,180.18A179.63,179.63,0,0,0,529.73,301.58C529.73,202.84,449.19,121.85,350,121.85Zm24.12,156.07v-81H326.34v81H244.9v47.77h81.44v81.45h47.78V325.69h81.44V277.92Z"/></svg>