<svg id="Calque_1" data-name="Calque 1" xmlns="http://www.w3.org/2000/svg" viewBox="0 0 700 600"><defs><style>.cls-1{fill:#413d3a;}</style></defs><path class="cls-1" d="M328.62,522.25c-13.2,4.1-26.85,6.83-40,6.83-63.7,0-114.66-53.69-139.69-113.75l-34.12,40L80.64,424.88l65.52-81.44,108.29,20.93-1.82,44.13-58.69-10c19.56,44.14,53.69,83.27,94.64,83.27,13.19,0,21.84-3.19,40-10.92,20,8.19,27.75,10.92,40,10.92,42.31,0,76-41.41,95.55-83.27l43.22,20c-29.12,63.25-77.8,110.57-138.77,110.57A125.48,125.48,0,0,1,328.62,522.25Zm81.44-208.84,27.3-37.31,50.05,32.76c3.64-70.53-26.84-109.2-96-109.2-18.66,0-37.77,3.18-62.79,9.1-26.39-6.37-45.5-9.1-62.79-9.1-63.25,0-97.37,33.21-97.37,96.46H120.68c0-90.55,56.88-144.24,145.15-144.24a241.22,241.22,0,0,1,46.86,5C323.16,120,345,93.64,378.21,75l18.66,32.76c-23.21,13.19-36.86,30.94-42.32,47.32,12.29-1.82,24.12-3.19,35.49-3.19,91.46,0,146.06,55.06,145.15,147l46.41-24.12,24.11,40.5L505.16,377.11Z"/></svg>