<svg id="Calque_1" data-name="Calque 1" xmlns="http://www.w3.org/2000/svg" viewBox="0 0 700 600"><defs><style>.cls-1{fill:#413d3a;}</style></defs><path class="cls-1" d="M206.9,336.55c-50.5-11.37-87.36-56.87-87.36-108.74V140h47.78v87.82a63.7,63.7,0,0,0,127.4,0V140h47.77v87.82c0,53.23-38.22,97.82-87.81,108.74V584.07H206.9ZM211.45,140h38.68v95.1H211.45Zm208.85,0h79.62a80.4,80.4,0,0,1,80.54,80.54v157A80.4,80.4,0,0,1,499.92,458H468.07v126H420.3Zm79.62,270.27a32.91,32.91,0,0,0,32.76-32.76v-157a32.91,32.91,0,0,0-32.76-32.76H468.07V410.26Z"/></svg>