<svg id="Calque_1" data-name="Calque 1" xmlns="http://www.w3.org/2000/svg" viewBox="0 0 700 600"><defs><style>.cls-1{fill:#413d3a;}</style></defs><path class="cls-1" d="M70,229.69C70,144.15,139.11,75,224.19,75c38.22,0,75.53,16.83,105.11,41C359.78,91.37,398.46,75,434.86,75c85.08,0,154.24,69.16,154.24,154.7a156.48,156.48,0,0,1-4.55,38.22c19.57,14.1,39.13,41.4,39.13,87.36,0,78.71-52.32,173.81-126.49,173.81a103.88,103.88,0,0,1-28.66-4.1,104.73,104.73,0,0,1-29.12,4.1c-26.39,0-49.6-12.29-68.25-29.58L329.3,529.08C207.36,450.36,70,328,70,229.69ZM342.49,461.28c-17.74-31.39-29.12-71.43-29.12-106,0-68.71,44.59-109.66,110.11-109.66,9.56,0,20,1.37,30.49,2.73,5.46-17.74,19.11-40,46.86-55.51l19.11,33.22c-9.55,5.46-16.83,12.28-20.93,20.93,14.11-.91,21.39-2.28,40.5,1.36,10-69.16-39.13-126-104.65-126-37.77,0-66,18.65-105.56,60.51-33.67-36.4-63.7-60.51-105.11-60.51-58.69,0-106.47,48.23-106.47,107.38,0,80.53,124.22,177.45,211.58,241.6Zm126,12.29c15,6.37,21.84,8.19,29.12,8.19,43.68,0,78.26-74.17,78.26-126.49,0-42.77-23.21-61.88-62.79-61.88-15,0-26.39,2.27-44.59,6.82-20-5-32.76-6.82-45-6.82-42.31,0-62.33,22.29-62.33,61.88,0,53.69,35.49,126.49,78.26,126.49C448.05,481.76,454.42,479.48,468.53,473.57Z"/></svg>