<svg id="Calque_1" data-name="Calque 1" xmlns="http://www.w3.org/2000/svg" viewBox="0 0 700 600"><defs><style>.cls-1{fill:#413d3a;}</style></defs><path class="cls-1" d="M117.27,374.32l105.11-18.66L231,402.53,125.46,421.18Zm19.56-112.39L161,221l97.37,56-23.66,41.4Zm45.5,258,66.89-79.17,36.4,30.48-66.43,79.63Zm66-372.19,45.05-16.38,39.58,108.29-45,15.92Zm7.74,216.58a94,94,0,1,1,93.73,94.18C298.36,458.49,256.05,416.18,256.05,364.31Zm140.14,0a46.19,46.19,0,0,0-92.37,0c0,25.48,20.48,46.41,46,46.41A46.32,46.32,0,0,0,396.19,364.31Zm-70.07,123.3h47.77V589.08H326.12Zm41.4-248,39.59-108.29,45,16.38L412.57,255.56Zm46.87,231.59,36.85-30.48,66,79.17-36.4,30.94ZM441.69,277l97.37-56,23.66,41L465.8,318.35Zm26.84,125.58,8.19-46.87,106,18.66-8.19,46.86Z"/></svg>