<svg id="Calque_1" data-name="Calque 1" xmlns="http://www.w3.org/2000/svg" viewBox="0 0 700 600"><defs><style>.cls-1{fill:#413d3a;}</style></defs><path class="cls-1" d="M255.36,525.38a66.1,66.1,0,0,1-13.65,1.36c-56,0-102.37-46.41-102.37-102.37,0-21.84,8.19-45.05,21.84-62.34-13.65-16.83-21.84-41.4-21.84-62.33,0-56.42,46.41-102.38,102.83-102.38,4.55,0,9.1,0,13.19.91C270.83,160.47,308.6,135,350,135c41.86,0,79.17,25,94.19,63.24a68.87,68.87,0,0,1,13.65-.91c57.78,0,102.83,47.32,102.83,102.38,0,21.38-8.65,45-21.84,62.33,13.65,17.75,21.84,40.5,21.84,62.34,0,57.33-48.23,102.37-101.92,102.37a78.76,78.76,0,0,1-14.56-1.36C428.72,565,390,589.08,350,589.08,308.6,589.08,270.83,563.14,255.36,525.38Zm152.88-62.79c32.31,14.1,36.86,16.38,49.6,16.38a54.66,54.66,0,0,0,55.05-55.06c0-25.93-10.46-34.58-46.41-61.88,37.31-28.66,46.41-36.85,46.41-61.88a55,55,0,0,0-55.05-55c-13.2,0-19.11,3.18-49.6,15.92-7.28-56.42-20-78.26-58.24-78.26-39.13,0-51.41,22.75-58.24,78.26-32.3-13.65-37.31-15.92-49.59-15.92-30,0-54.6,23.2-54.6,54.14,0,26.39,10.46,35,45.5,62.79-36.4,28.21-45.5,36.86-45.5,62.34,0,31.85,25.48,54.6,54.6,54.6,13.19,0,18.65-3.19,49.59-16.38,7.28,57.33,20,79.17,58.24,79.17C388.68,541.76,401,518.55,408.24,462.59ZM259.46,362c0-49.59,40.49-90.54,90.54-90.54,49.6,0,90.55,40.95,90.55,90.54,0,50.05-40.95,90.55-90.55,90.55A90.49,90.49,0,0,1,259.46,362Zm133.31,0A42.77,42.77,0,1,0,350,404.8,42.72,42.72,0,0,0,392.77,362Z"/></svg>