<svg id="Calque_1" data-name="Calque 1" xmlns="http://www.w3.org/2000/svg" viewBox="0 0 700 600"><defs><style>.cls-1{fill:#413d3a;}</style></defs><path class="cls-1" d="M571.36,140V584.07H128.65V140Zm-47.77,47.78H176.42V361.58c106.93,20.47,218.86,90.09,297.12,174.72h50.05ZM405.74,536.3c-85.08-77.81-174.26-113.75-229.32-125.58V536.3Zm-93.27-227a82.33,82.33,0,0,1,82.35-82.35c45.05,0,81.9,36.85,81.9,82.35s-36.85,82.36-81.9,82.36A82.33,82.33,0,0,1,312.47,309.25Zm47.77,0a34.56,34.56,0,0,0,34.58,34.58A34.18,34.18,0,0,0,429,309.25c0-18.65-15-34.58-34.13-34.58A34.86,34.86,0,0,0,360.24,309.25Z"/></svg>