<svg id="Calque_1" data-name="Calque 1" xmlns="http://www.w3.org/2000/svg" viewBox="0 0 700 600"><defs><style>.cls-1{fill:#413d3a;}</style></defs><path class="cls-1" d="M540.19,362c24.12,44.14,37.31,87.82,37.31,124.67,0,63.7-39.13,102.38-102.37,102.38-37.31,0-81-12.74-125.58-37.31-44.14,24.11-87.82,37.31-124.67,37.31-65.07,0-102.38-40-102.38-102.38,0-37.31,13.2-81,37.31-125.12-24.11-44.14-37.31-87.82-37.31-125.13,0-63.24,38.68-102.37,102.38-102.37,37.31,0,81,13.19,125.12,37.76,44.59-24.57,88.27-37.31,125.13-37.31,63.7,0,102.37,38.22,102.37,102.38C577.5,273.76,564.31,317.44,540.19,362ZM303.14,521.74a505.12,505.12,0,0,1-113.3-113.3c-10.92,24.12-19.56,54.15-19.56,78.26,0,37.31,16.83,54.6,54.6,54.6C251.27,541.3,277.2,533.11,303.14,521.74Zm-112.84-207c31.85-44.13,71-83.26,113.29-112.84-25-11.37-54.14-20-78.71-20-32.31,0-51,13.2-53.69,45.5C168,251.92,177.56,286.5,190.3,314.71ZM350,496.26C402.78,462.59,450.1,413.45,484.68,362c-32.3-50.5-84.17-101.92-134.68-134.68-52.32,33.22-99.64,81-134.68,134.23C248.08,412.08,298.59,463.5,350,496.26ZM315.42,91.31c0-23.21-47.77-17.29-47.77-49.14,0-17.75,14.56-30.49,33.21-30.49,11.83,0,25.94,5.92,34.58,14.11L322.25,38.53a29.3,29.3,0,0,0-20.48-8.19c-9.1,0-14.56,3.18-14.56,9.1,0,18.65,47.78,13.65,47.78,48.68,0,20-15.93,33.67-34.58,33.67-15,0-29.58-8.64-39.59-21.84l12.74-12.74c8.65,10.92,16.38,15.93,26.85,15.93C309.51,103.14,315.42,99,315.42,91.31Zm61.43,270.27A26.85,26.85,0,1,1,350,334.73,27,27,0,0,1,376.85,361.58Zm15.47-242.52H356.83V12.59H390.5c19.56,0,33.67,12.74,33.67,27.76a23.72,23.72,0,0,1-10.47,20c10.47,3.18,18.2,15,18.2,27.3C431.9,106.32,414.61,119.06,392.32,119.06Zm-3.19-87.81H375.94V54h13.19c9.1,0,15.93-4.55,15.93-11.83C405.06,35.8,398.69,31.25,389.13,31.25Zm4.55,40H375.94v29.12h17.74c10.92,0,18.66-5.46,18.66-14.56C412.34,77.2,404.6,71.29,393.68,71.29ZM529.27,487.16c0-25-9.1-56-19.56-78.26-30.49,42.77-72.35,83.72-113.3,112.84,25,11.83,55.06,20,78.72,20C514.26,541.76,529.27,522.19,529.27,487.16Zm.46-250.25c0-37.31-17.75-55.06-54.6-55.06-24.12,0-52.78,8.65-78.26,20C437.82,231,482,274.67,509.71,315.17,521.54,289.23,529.73,262.39,529.73,236.91Z"/></svg>