<svg id="Calque_1" data-name="Calque 1" xmlns="http://www.w3.org/2000/svg" viewBox="0 0 700 600"><defs><style>.cls-1{fill:#413d3a;}</style></defs><path class="cls-1" d="M93.84,319.32A143.17,143.17,0,0,1,194.85,75a140.91,140.91,0,0,1,101,41.86l8.19,7.73,7.73-7.73C339.54,89.55,374.57,75,413.25,75c80.08,0,142.87,66,142.87,142.87a105,105,0,0,1-1.37,16.83c36,21.39,61.43,47.78,93.28,95.1-56,83.26-116.48,122.85-190.65,122.85a177.14,177.14,0,0,1-65.06-11.83l-88.27,88.27ZM348.18,417.6c-32.3-21.84-53.23-45-81.9-87.81,56-82.81,116-122.85,191.1-122.85a170.66,170.66,0,0,1,50.05,7.28,16.93,16.93,0,0,0,.46-5c-4.1-49.59-46.87-86.9-94.64-86.9a95.4,95.4,0,0,0-67.34,28.21l-41.86,42.77-41.86-42.77a95.42,95.42,0,0,0-67.34-28.21c-52.78,0-95.1,42.77-95.1,95.55,0,25.93,9.56,49.59,27.76,67.79L304.05,461.74Zm241.61-87.81c-35-44.59-80.54-75.08-132.41-75.08-53.69,0-99.64,31.4-132.86,75.08,34.13,45,80.54,75.53,132.86,75.53C510.62,405.32,555.66,373.47,589.79,329.79Zm-159.71,0a27,27,0,0,1,27.3-26.85,26.85,26.85,0,1,1,0,53.69A27,27,0,0,1,430.08,329.79Z"/></svg>