<svg id="Calque_1" data-name="Calque 1" xmlns="http://www.w3.org/2000/svg" viewBox="0 0 700 600"><defs><style>.cls-1{fill:#413d3a;}</style></defs><path class="cls-1" d="M63.58,482.67l26.84-27.3,30.49,30.48H578.64l30.48-30.48,27.3,27.3L595,524.07H105Zm269.36-82.36c-26.85,38.68-68.25,58.24-112.39,45.05C133.65,471.29,67.67,381.2,67.67,289.75c0-67.8,44.14-108.29,108.29-108.29a175.29,175.29,0,0,1,30,2.73c3.19-17.29,27.3-46.87,49.6-59.15l18.65,32.76c-12.74,7.73-19.56,16.83-25,24.57a170.3,170.3,0,0,1,30.48,0c41.41,2.73,73.71,27.75,86.91,63.7H626.87v73.25c0,61-31.4,100.1-87.36,132H391.18C365.24,436.71,349.32,423.52,332.94,400.31Zm-112.39-6.37c16.38,6.37,19.11,7.74,28.67,7.74,44.13,0,76.44-62.79,76.44-111.93,0-40.5-20.48-60.06-60.52-60.06-13.19,0-26.39,1.82-44.59,6.37-17.74-4.55-30.94-6.37-44.13-6.37-40.5,0-61,19.56-61,60.06,0,50.5,33.21,111.93,76.89,111.93C201.9,401.68,206.9,399.86,220.55,393.94Zm305.76,9.56c32.77-20,52.78-45.5,52.78-84.18V293.84H373.43C373,315.23,368,340.25,359.78,363c8.65,21.39,24.12,28.21,44.14,40.5ZM417.57,226.05a58.86,58.86,0,0,1-17.29-41.86c0-15.93,5.91-31.4,17.29-42.32a12.09,12.09,0,0,0,0-17.29l-16.38-15.47L434.86,75l16.38,15.92C462.61,102.74,469,117.3,469,133.23a59.59,59.59,0,0,1-17.74,42.31,12.22,12.22,0,0,0-3.64,8.19,12.42,12.42,0,0,0,3.64,8.65l12.28,12.28-33.67,34.13Zm115.57,0a58.78,58.78,0,0,1,0-84.18,12.09,12.09,0,0,0,0-17.29l-16.38-15.47L550.43,75l16.38,15.92a61.11,61.11,0,0,1,17.29,42.32,59.16,59.16,0,0,1-17.29,42.31,12.27,12.27,0,0,0-3.64,8.19,12.46,12.46,0,0,0,3.64,8.65l12.28,12.28-33.67,34.13Z"/></svg>