<svg id="Calque_1" data-name="Calque 1" xmlns="http://www.w3.org/2000/svg" viewBox="0 0 700 600"><defs><style>.cls-1{fill:#413d3a;}</style></defs><path class="cls-1" d="M460.34,441.94v83.27L337.49,446h-61C174.6,446,91.33,362.77,91.33,261.3c0-101.92,83.27-185.18,185.19-185.18h147c101.92,0,185.19,83.26,185.19,185.18C608.67,350.48,545,425.1,460.34,441.94Zm-36.86-318h-147c-74.62,0-137.41,61.88-137.41,137.41,0,54.6,34.12,105.11,84.17,126,29.12,11.83,40,10.92,128.31,10.92l61,39.58V403.26l38.68-7.73c65.06-13.2,109.65-71,109.65-134.23C560.89,184.41,497.65,123.89,423.48,123.89ZM400.73,299.52,347.5,286.33l-76.44,77.8-27.3-26.84,76-76.9-13.65-55,47.78-47.78L394.36,163l-5,37.77-21.84-3.19-19.11,19.11L356.6,249l32.3,8.19L408,238.55l-3.18-21.84,37.76-5.46,5.92,40.5Z"/></svg>