<svg id="Calque_1" data-name="Calque 1" xmlns="http://www.w3.org/2000/svg" viewBox="0 0 700 600"><defs><style>.cls-1{fill:#413d3a;}</style></defs><path class="cls-1" d="M163.22,286.57l-30,30.49-27.3-27.3,30.49-30ZM288.35,217l-20,20.47-15.47,66.89-26.39-26.39-21.84,22.29-80.54-80.53,22.3-21.84-25.48-25.94,67.79-15,20-20c26.39-22.75,64.16-26.85,103.74-24.12C314.28,166.91,309.73,195.12,288.35,217Zm80.08,336.25c-116.48,0-213.85-87.82-225.68-203.39l47.32-5.46A179.24,179.24,0,0,0,368.43,505.88c98.74,0,179.27-80.53,179.27-179.72,0-100.56-81.9-179.73-179.27-179.73V99.11C493.1,99.11,595,200.12,595,326.16,595,453.1,491.74,553.21,368.43,553.21ZM234.66,165.09l-56,55,25.94,25.94,56.87-56.42c10-10,11.38-23.21,12.29-37.77C258.77,153.26,245.58,156.44,234.66,165.09ZM368.43,243.8a82.36,82.36,0,1,1,0,164.71c-45.5,0-82.81-36.85-82.81-82.35S322.93,243.8,368.43,243.8Zm-44.59,82.36A44.36,44.36,0,1,0,368.43,282,44.27,44.27,0,0,0,323.84,326.16Z"/></svg>