<svg id="Calque_1" data-name="Calque 1" xmlns="http://www.w3.org/2000/svg" viewBox="0 0 700 600"><defs><style>.cls-1{fill:#413d3a;}</style></defs><path class="cls-1" d="M614.81,331.55l30.94,21.84-28.21,40L586.6,371.59a109.32,109.32,0,0,1-63.7,29.57l-3.64,37.77-48.68-4.55,3.18-37.77c-23.2-6.37-43.22-21.38-57.33-40.49L371.84,377.5a97.7,97.7,0,0,1,2.73,24.12l49.6,7.73-7.28,47.78-50.05-7.74A134,134,0,0,1,307.23,524l18.2,47.32-45,17.75-18.66-47.32a139.62,139.62,0,0,1-27.3,3.18,136.08,136.08,0,0,1-66.88-17.74L135.7,566.78,97.48,536.3l31.85-39.59C107.49,473.05,95.2,440.29,94.75,408l-50-7.74L52.43,352l49.6,7.74a138,138,0,0,1,59.6-74.62l-18.2-47.32,45.5-17.29,18.2,46.86a143.79,143.79,0,0,1,27.3-3.18A136.11,136.11,0,0,1,301.32,282l31.85-39.58,38.22,30.48-31.85,39.59a114.34,114.34,0,0,1,14.1,19.11l42.32-20a80.92,80.92,0,0,1-2.73-25.94,111.71,111.71,0,0,1,9.1-43.68l-30.94-21.84,28.21-40,30.94,21.84a112,112,0,0,1,63.7-29.57l3.64-37.77,48.23,4.1-3.19,38.22c23.21,6.82,43.23,21.38,57.79,40l34.12-15.47,20.48,44.13-34.58,15.93a102.44,102.44,0,0,1,3.18,26.39C623.46,303.34,619.82,320.63,614.81,331.55ZM325.43,405.26c0-51.87-41.86-91.91-91-91.91-52.32,0-91,43.68-91,91.45,0,51,43.23,91,91,91C284.48,495.8,325.43,453.49,325.43,405.26ZM230.34,91.31C230.34,68.1,183,74,183,42.17c0-17.75,14.56-30.49,33.21-30.49,11.83,0,25.48,5.92,34.13,14.11L237.62,38.53c-6.37-5.46-12.74-8.19-20.48-8.19-9.1,0-14.56,3.18-14.56,9.1,0,18.65,47.78,13.65,47.78,48.68,0,20-15.93,33.67-34.58,33.67-15,0-30-8.64-39.59-21.84l12.29-12.74c8.64,10.92,16.83,15.93,26.84,15.93C224.88,103.14,230.34,99,230.34,91.31ZM261.73,404.8a27,27,0,0,1-27.3,26.85,26.85,26.85,0,0,1,0-53.69A27,27,0,0,1,261.73,404.8Zm33.67-374h-35V12.59h88.72v18.2H314.51v88.27H295.4Zm93.28,88.27H369.57V12.59h19.11Zm120.57,101c-37.31,0-68.7,29.58-69.16,62.79-.45,38.22,29.58,70.53,68.25,70.53,35.49,0,66-28.67,66.43-62.34C575.23,253.74,547,220.07,509.25,220.07Zm25.94,66c0,14.56-12.29,26.84-27.3,26.84A27.19,27.19,0,0,1,481,286.05c0-15,12.29-27.3,26.85-27.3A27.38,27.38,0,0,1,535.19,286.05Z"/></svg>