<svg id="Calque_1" data-name="Calque 1" xmlns="http://www.w3.org/2000/svg" viewBox="0 0 700 600"><defs><style>.cls-1{fill:#413d3a;}</style></defs><path class="cls-1" d="M193.48,383.42,164.82,187.77H75.18V140H602.07L564.76,383.42ZM349.55,499.9a89,89,0,0,1-89.18,89.18c-49.6,0-89.64-40-89.64-89.18a89.41,89.41,0,1,1,178.82,0ZM213.05,187.77l21.84,147.87H523.81l22.75-147.87Zm89.18,310.76a41.86,41.86,0,1,0-41.86,41.86A42,42,0,0,0,302.23,498.53Zm278.46,1.37c0,49.14-40.5,89.18-89.64,89.18s-89.63-40-89.63-89.18a89.64,89.64,0,1,1,179.27,0Zm-47.78-1.37a41.86,41.86,0,1,0-41.86,41.86A41.75,41.75,0,0,0,532.91,498.53Z"/></svg>