<svg id="Calque_1" data-name="Calque 1" xmlns="http://www.w3.org/2000/svg" viewBox="0 0 700 600"><defs><style>.cls-1{fill:#413d3a;}</style></defs><path class="cls-1" d="M578.87,584.07H531.09a101.15,101.15,0,0,0-2.27-20.47H170.73a101.2,101.2,0,0,0-1.82,20.47H121.14c0-107.83,101-191.1,218.85-243.88,45.05-19.56,70.07-35.94,106-61.88H253.54a437.86,437.86,0,0,0,62.79,40L269,343.83C204.4,309.71,121.14,228.26,121.14,140h47.77a124.94,124.94,0,0,0,1.82,22.75H528.82A124.8,124.8,0,0,0,531.09,140h47.78c0,109.66-105.11,192.47-219.31,243.88-37.31,16.84-81.45,41.86-108.29,64.16h197c-14.1-11.83-30.48-23.21-58.24-41.41l46-26.39C511.53,425.28,578.87,496.71,578.87,584.07Zm-63.25-59.15c-5-10.92-17.74-30-25.93-38.67H209.86c-10.92,12.74-20,25.93-25.93,38.67Zm-27.3-285.28a180.29,180.29,0,0,0,26.39-38.22H184.84c5.91,11.83,18.65,29.57,26.39,38.22ZM319.06,91.31c0-23.21-47.77-17.29-47.77-49.14,0-17.75,15-30.49,33.67-30.49,11.83,0,25.48,5.92,34.12,14.11L326.34,38.53c-6.37-5.46-12.74-8.19-20.93-8.19-8.64,0-14.1,3.18-14.1,9.1,0,18.65,47.77,13.65,47.77,48.68,0,20-15.92,33.67-35,33.67-14.56,0-29.58-8.64-39.13-21.84L277.2,87.21c8.65,10.92,16.84,15.93,26.85,15.93C313.6,103.14,319.06,99,319.06,91.31Zm79.17,30L347.73,12.59h20.93l29.57,62.79,29.58-62.79h21.38Z"/></svg>