<svg id="Calque_1" data-name="Calque 1" xmlns="http://www.w3.org/2000/svg" viewBox="0 0 700 600"><defs><style>.cls-1{fill:#413d3a;}</style></defs><path class="cls-1" d="M242.62,135l186.1,104.65V584.07H268.1V449.85h-51V584.07H56.53V239.64Zm138.32,132.4-138.32-77.8L104.3,267.39V536.3h65.07V402.07H315.88V536.3h65.06ZM491.51,186a214.47,214.47,0,0,1,16.38,86c-.46,28.67-5.92,56.42-17.29,82.81l-35-14.56A183.46,183.46,0,0,0,456,200.05Zm95.55,86.9a295.33,295.33,0,0,1-22.3,108.29l-35.49-14.56a258.33,258.33,0,0,0,19.57-94.18,251.13,251.13,0,0,0-18.66-97.83l35.49-14.1A288.8,288.8,0,0,1,587.06,272.85Zm79.17.46c-.91,46.41-10,91.45-28.21,133.77l-35.49-14.56a310.83,310.83,0,0,0,1.36-243.43L639.38,135A355,355,0,0,1,666.23,273.31Z"/></svg>