<svg id="Calque_1" data-name="Calque 1" xmlns="http://www.w3.org/2000/svg" viewBox="0 0 700 600"><defs><style>.cls-1{fill:#413d3a;}</style></defs><path class="cls-1" d="M248.08,379.84c-32.3-5-57.78-33.67-57.78-67.8V149.15c0-38.22,31.39-69.16,69.61-69.16H440.55a69.13,69.13,0,0,1,69.16,69.16V312c0,34.13-25,62.79-57.79,67.8L568,524.07H506.52l-45-56H238.53l-45.05,56H132.06ZM461.93,205.57V149.15a21.35,21.35,0,0,0-21.38-21.38H259.91a21.46,21.46,0,0,0-21.84,21.38v56.42ZM440.55,333.43A21.36,21.36,0,0,0,461.93,312V244.25H238.07V312a21.47,21.47,0,0,0,21.84,21.39Zm-17.29,86.9L391.41,381.2H308.6l-31.85,39.13Z"/></svg>