<svg id="Calque_1" data-name="Calque 1" xmlns="http://www.w3.org/2000/svg" viewBox="0 0 700 600"><defs><style>.cls-1{fill:#413d3a;}</style></defs><path class="cls-1" d="M596.16,493.53l-151.52,76a120.52,120.52,0,0,1-57.33,14.56H224a119.36,119.36,0,0,1-61-16.83l-49.6-30.49H69.72V489h57.33l60.52,37.31a68.63,68.63,0,0,0,36.4,10H387.31c11.83,0,24.12-2.73,34.13-8.65l152.42-76c7.28-4.1,10.47-12.74,8.19-20.93-2.73-9.1-12.74-14.56-21.84-12.29l-147.87,36.4c-8.65,26.39-33.67,46-62.79,46H240.35V453h109.2a17.86,17.86,0,0,0,18.2-17.74,18.25,18.25,0,0,0-18.2-18.2H254.91c-19.11,0-63.25-18.66-70.07-18.66H69.72V350.66H184.84c15.92,0,62.79,18.65,70.07,18.65h94.64a65.31,65.31,0,0,1,58.69,37.31l141-34.58c33.22-8.19,67.8,11.38,78.26,44.59C636.65,446.66,624.37,478.06,596.16,493.53ZM192.57,252.83c0-50.05,41-91,91-91A76.2,76.2,0,0,1,306.32,165c16.84-18.2,40.5-30,66.89-30,37.31,0,70.07,23.2,83.26,55.51,51-.46,91.91,40,91.91,90.54,0,50-41.4,91-91.45,91A90.76,90.76,0,0,1,373.66,317a79.18,79.18,0,0,1-23.2-3.19,89.5,89.5,0,0,1-66.89,30C233.52,343.83,192.57,302.88,192.57,252.83Zm59.61-25.48c-7.28,11.83-7.28,25.48-1.82,35.49,3.64,18.2,20.47,30,38.67,28.67,2.73-1.82,6.83-6.37,12.74-13.65-7.73-10-12.74-22.75-15-35.49-5-11.83-7.28-23.66-6.83-32.76C268.1,210.52,257.18,217.8,252.18,227.35ZM330,226a43.23,43.23,0,1,0,43.23-43.23A43.5,43.5,0,0,0,330,226Zm121.94,42.77C446,283.32,434.63,295.6,421,303.34c6.37,13.65,19.57,21.38,34.13,21.38,22.75,0,45.5-17.74,45.5-43.68a42.34,42.34,0,0,0-37.31-41.86A97.42,97.42,0,0,1,451.92,268.76Z"/></svg>