<svg xmlns="http://www.w3.org/2000/svg" xmlns:xlink="http://www.w3.org/1999/xlink" style="display:none"><defs><path id="a" d="M1 142h141V1H1z"/><style>.cls-1{fill:currentColor}</style><style>.cls-1{fill:currentColor}</style><style>.cls-1{fill:currentColor}</style><style>.cls-1{fill:currentColor}</style><style>.cls-1{fill:currentColor}</style><style>.cls-1{fill:currentColor}</style><style>.cls-1{fill:currentColor}</style><style>.cls-1{fill:currentColor}</style><style>.cls-1{fill:currentColor}</style><style>.cls-1{fill:currentColor}</style><style>.cls-1{fill:currentColor}</style><style>.cls-1{fill:currentColor}</style><style>.cls-1{fill:currentColor}</style><style>.cls-1{fill:currentColor}</style><style>.cls-1{fill:currentColor}</style><style>.cls-1{fill:currentColor}</style><style>.cls-1{fill:currentColor}</style><style>.cls-1{fill:currentColor}</style><style>.cls-1{fill:currentColor}</style><style>.cls-1{fill:currentColor}</style><style>.cls-1{fill:currentColor}</style><style>.cls-1{fill:currentColor}</style><style>.cls-1{fill:currentColor}</style><style>.cls-1{fill:currentColor}</style><style>.cls-1{fill:currentColor}</style><style>.cls-1{fill:currentColor}</style><style>.cls-1{fill:currentColor}</style><style>.cls-1{fill:currentColor}</style><style>.cls-1{fill:currentColor}</style><style>.cls-1{fill:currentColor}</style><style>.cls-1{fill:currentColor}</style><style>.cls-1{fill:currentColor}</style><style>.cls-1{fill:currentColor}</style><style>.cls-1{fill:currentColor}</style><style>.cls-1{fill:currentColor}</style><style>.cls-1{fill:currentColor}</style><style>.cls-1{fill:currentColor}</style><style>.cls-1{fill:currentColor}</style><style>.cls-1{fill:currentColor}</style><style>.cls-1{fill:currentColor}</style><style>.cls-1{fill:currentColor}</style><style>.cls-1{fill:currentColor}</style><style>.cls-1{fill:currentColor}</style><style>.cls-1{fill:currentColor}</style><style>.cls-1{fill:currentColor}</style><path id="a" d="M0 90h90V0H0z"/></defs><symbol id="icon-activities-big" viewbox="0 0 141 141"><g fill="currentColor"><path d="M103.531 12.983c0-5.537-4.488-10.025-10.025-10.025-5.536 0-10.024 4.488-10.024 10.025 0 5.536 4.488 10.024 10.024 10.024 5.537 0 10.025-4.488 10.025-10.024zm2.958 0c0 7.17-5.812 12.982-12.983 12.982-7.17 0-12.982-5.813-12.982-12.982C80.524 5.813 86.337 0 93.506 0c7.17 0 12.983 5.813 12.983 12.983zM57.517 12.983c0-5.537-4.488-10.025-10.025-10.025-5.536 0-10.024 4.488-10.024 10.025 0 5.536 4.488 10.024 10.024 10.024 5.537 0 10.025-4.488 10.025-10.024zm2.958 0c0 7.17-5.812 12.982-12.983 12.982-7.17 0-12.982-5.813-12.982-12.982C34.51 5.813 40.323 0 47.492 0c7.17 0 12.983 5.813 12.983 12.983zM7.231 48.972a7.231 7.231 0 0 1 0-14.462H133.77a7.231 7.231 0 0 1 0 14.462h-15.776v84.797a7.231 7.231 0 0 1-14.462 0V83.483h-8.545v50.286a7.231 7.231 0 0 1-14.461 0V48.972H60.476v84.797a7.231 7.231 0 0 1-14.462 0V83.483h-8.546v50.286a7.23 7.23 0 1 1-14.46 0V48.972H7.23zM133.77 37.468H7.231a4.273 4.273 0 1 0 0 8.546h17.255c.817 0 1.48.662 1.48 1.48v86.275a4.272 4.272 0 1 0 8.544 0V82.004c0-.817.662-1.48 1.48-1.48h11.503c.817 0 1.48.663 1.48 1.48v51.765a4.273 4.273 0 0 0 8.546 0l-.001-86.276c0-.817.662-1.479 1.479-1.479h23.007c.816 0 1.479.662 1.479 1.48v86.275a4.273 4.273 0 0 0 8.546 0V82.004c0-.817.662-1.48 1.478-1.48h11.503c.817 0 1.48.663 1.48 1.48v51.765a4.273 4.273 0 0 0 8.545 0V47.493c0-.817.662-1.479 1.48-1.479h17.254a4.273 4.273 0 0 0 0-8.546z"/></g></symbol><symbol id="icon-activities" viewbox="0 0 50 50"><g fill="currentColor"><path d="M14 8.834a4.833 4.833 0 1 1 9.668 0 4.833 4.833 0 0 1-9.668 0zm3 0a1.833 1.833 0 1 0 3.665 0 1.833 1.833 0 0 0-3.665 0zM27.333 8.834a4.834 4.834 0 1 1 9.667 0 4.834 4.834 0 0 1-9.667 0zm3 0A1.834 1.834 0 1 0 34 8.832a1.834 1.834 0 0 0-3.667.002zM8.833 25.666a4.834 4.834 0 0 1 0-9.667h33.334a4.834 4.834 0 0 1 0 9.667h-1.5V40.5a6.5 6.5 0 0 1-6.5 6.5 6.5 6.5 0 0 1-6.5-6.5V25.666h-4.334V40.5a6.5 6.5 0 1 1-13 0V25.666h-1.5zm33.334-3a1.833 1.833 0 1 0 0-3.667H8.833a1.834 1.834 0 0 0 0 3.668h3a1.5 1.5 0 0 1 1.5 1.5v16.332a3.5 3.5 0 1 0 7 0V24.166a1.5 1.5 0 0 1 1.5-1.5h7.334a1.5 1.5 0 0 1 1.5 1.5V40.5a3.5 3.5 0 1 0 7 0V24.166a1.5 1.5 0 0 1 1.5-1.5h3z"/></g></symbol><symbol id="icon-arrow" viewbox="0 0 50 50"><path d="M46.886 26.07l.007-.023c.067-.17.107-.352.107-.547 0-.194-.04-.378-.107-.547l-.007-.023a1.507 1.507 0 0 0-.326-.49l-20-20a1.5 1.5 0 1 0-2.121 2.12L41.879 24H5.5a1.5 1.5 0 0 0 0 3h36.379l-17.44 17.44a1.5 1.5 0 1 0 2.121 2.12l20-19.999a1.5 1.5 0 0 0 .326-.49" fill="currentColor"/></symbol><symbol id="icon-calendar-big" viewbox="0 0 143 143"><g fill="currentColor"><path d="M54 14.667h35a1.5 1.5 0 0 0 0-3H54a1.5 1.5 0 0 0 0 3zM42.333 11.667H13.166C5.896 11.667 0 17.562 0 24.834v105C0 137.104 5.895 143 13.166 143h99.167a1.5 1.5 0 0 0 0-3H13.166C7.552 140 3 135.448 3 129.834v-105c0-5.615 4.552-10.167 10.166-10.167h29.167a1.5 1.5 0 0 0 0-3zM100.667 14.667h29.167c5.614 0 10.166 4.552 10.166 10.167v87.5a1.5 1.5 0 0 0 3 0v-87.5c0-7.272-5.895-13.167-13.166-13.167h-29.167a1.5 1.5 0 0 0 0 3z"/><path d="M43.833 19a4.333 4.333 0 1 0 8.667 0V7.334a4.334 4.334 0 0 0-8.667 0V19zm-3-11.666a7.333 7.333 0 1 1 14.667 0V19a7.334 7.334 0 0 1-14.667 0V7.334zM90.5 19a4.333 4.333 0 1 0 8.667 0V7.334a4.334 4.334 0 0 0-8.667 0V19zm-3-11.666a7.333 7.333 0 1 1 14.667 0V19A7.334 7.334 0 0 1 87.5 19V7.334zM137.879 113.833H124c-5.615 0-10.167 4.552-10.167 10.167v13.879l24.046-24.046zM110.833 141.5V124c0-7.272 5.895-13.167 13.167-13.167h17.5c1.337 0 2.006 1.616 1.06 2.56l-29.166 29.168c-.945.945-2.56.275-2.56-1.06zM1.5 49.667h140a1.5 1.5 0 0 0 0-3H1.5a1.5 1.5 0 0 0 0 3zM29.167 71.5a4.333 4.333 0 1 0-8.666 0 4.333 4.333 0 0 0 8.666 0zm3 0a7.333 7.333 0 0 1-7.333 7.333 7.333 7.333 0 1 1 7.333-7.333zM52.5 71.5a4.333 4.333 0 1 0-8.666 0 4.333 4.333 0 0 0 8.666 0zm3 0a7.333 7.333 0 0 1-7.333 7.333A7.333 7.333 0 1 1 55.5 71.5zM75.833 71.5a4.333 4.333 0 1 0-8.666 0 4.333 4.333 0 0 0 8.666 0zm3 0a7.333 7.333 0 0 1-7.333 7.333 7.333 7.333 0 1 1 7.333-7.333zM99.167 71.5a4.333 4.333 0 1 0-8.666 0 4.333 4.333 0 0 0 8.666 0zm3 0a7.333 7.333 0 0 1-7.333 7.333 7.333 7.333 0 1 1 7.333-7.333zM122.5 71.5a4.333 4.333 0 1 0-8.666 0 4.333 4.333 0 0 0 8.666 0zm3 0a7.333 7.333 0 0 1-7.333 7.333A7.333 7.333 0 1 1 125.5 71.5zM29.167 94.833a4.333 4.333 0 1 0-8.666 0 4.333 4.333 0 0 0 8.666 0zm3 0a7.333 7.333 0 0 1-7.333 7.333 7.333 7.333 0 1 1 7.333-7.333zM52.5 94.833a4.333 4.333 0 1 0-8.666 0 4.333 4.333 0 0 0 8.666 0zm3 0a7.333 7.333 0 0 1-7.333 7.333 7.333 7.333 0 1 1 7.333-7.333zM75.833 94.833a4.333 4.333 0 1 0-8.666 0 4.333 4.333 0 0 0 8.666 0zm3 0a7.333 7.333 0 0 1-7.333 7.333 7.333 7.333 0 1 1 7.333-7.333zM99.167 94.833a4.333 4.333 0 1 0-8.666 0 4.333 4.333 0 0 0 8.666 0zm3 0a7.333 7.333 0 0 1-7.333 7.333 7.333 7.333 0 1 1 7.333-7.333zM29.167 118.167a4.333 4.333 0 1 0-8.666 0 4.333 4.333 0 0 0 8.666 0zm3 0a7.333 7.333 0 0 1-7.333 7.333 7.333 7.333 0 1 1 7.333-7.333zM52.5 118.167a4.333 4.333 0 1 0-8.666 0 4.333 4.333 0 0 0 8.666 0zm3 0a7.333 7.333 0 0 1-7.333 7.333 7.333 7.333 0 1 1 7.333-7.333zM75.833 118.167a4.333 4.333 0 1 0-8.666 0 4.333 4.333 0 0 0 8.666 0zm3 0A7.333 7.333 0 0 1 71.5 125.5a7.333 7.333 0 1 1 7.333-7.333zM99.167 118.167a4.333 4.333 0 1 0-8.666 0 4.333 4.333 0 0 0 8.666 0zm3 0a7.333 7.333 0 0 1-7.333 7.333 7.333 7.333 0 1 1 7.333-7.333zM122.5 94.833a4.333 4.333 0 1 0-8.666 0 4.333 4.333 0 0 0 8.666 0zm3 0a7.333 7.333 0 0 1-7.333 7.333 7.333 7.333 0 1 1 7.333-7.333z"/></g></symbol><symbol id="icon-calendar" viewbox="0 0 50 50"><g fill="currentColor"><path d="M44 11H7v33h37V11zm.167 36H6.834A2.833 2.833 0 0 1 4 44.167V10.833A2.833 2.833 0 0 1 6.834 8h37.333A2.833 2.833 0 0 1 47 10.833v33.334A2.833 2.833 0 0 1 44.167 47z"/><path d="M14.008 5.5v4a1.5 1.5 0 0 0 3 0v-4a1.5 1.5 0 0 0-3 0zM34.008 5.5v4a1.5 1.5 0 0 0 3 0v-4a1.5 1.5 0 0 0-3 0zM5.5 23h40a1.5 1.5 0 0 0 0-3h-40a1.5 1.5 0 0 0 0 3zM5.5 31h40a1.5 1.5 0 0 0 0-3h-40a1.5 1.5 0 0 0 0 3zM5.5 39h40a1.5 1.5 0 0 0 0-3h-40a1.5 1.5 0 0 0 0 3z"/></g></symbol><symbol id="icon-check" viewbox="0 0 50 50"><path d="M18.833 39.666c-.397 0-.78-.157-1.061-.438L4.439 25.892a1.501 1.501 0 0 1 2.122-2.12l12.272 12.272L44.439 10.44a1.5 1.5 0 0 1 2.122 2.12L19.894 39.228a1.504 1.504 0 0 1-1.061.438" fill="currentColor"/></symbol><symbol id="icon-chevron-left" viewbox="0 0 50 50"><path d="M35.06 7.06a1.5 1.5 0 0 0-2.12-2.12l-20 20a1.5 1.5 0 0 0 0 2.12l20 20a1.5 1.5 0 0 0 2.12-2.12L16.122 26l18.94-18.94z" fill="currentColor"/></symbol><symbol id="icon-chevron-top" viewbox="0 0 50 50"><path d="M25 19.121l18.94 18.94a1.5 1.5 0 0 0 2.12-2.122l-20-20a1.5 1.5 0 0 0-2.12 0l-20 20a1.5 1.5 0 0 0 2.12 2.122L25 19.12z" fill="currentColor"/></symbol><symbol id="icon-communities" viewbox="0 0 123 108.1"><style>.st0{fill:currentColor}</style><path class="st0" d="M61.5 47.6c-3.3 0-6 2.7-6 6s2.7 6 6 6 6-2.7 6-6-2.7-6-6-6zm0 9c-1.6 0-3-1.3-3-3 0-1.6 1.3-3 3-3 1.6 0 3 1.3 3 3s-1.4 3-3 3zM71.6 33c-1.5-.4-3.2-.2-4.5.6-1.4.8-2.4 2.1-2.8 3.6s-.2 3.2.6 4.5c.8 1.4 2.1 2.4 3.6 2.8.5.1 1 .2 1.6.2 1 0 2.1-.3 3-.8 2.9-1.7 3.8-5.3 2.2-8.2-.9-1.3-2.1-2.3-3.7-2.7zm0 8.4c-.7.4-1.5.5-2.3.3-.8-.2-1.4-.7-1.8-1.4-.4-.7-.5-1.5-.3-2.3.2-.8.7-1.4 1.4-1.8.5-.3 1-.4 1.5-.4.3 0 .5 0 .8.1.8.2 1.4.7 1.8 1.4.8 1.4.3 3.3-1.1 4.1zM58.1 41.8c1.7-2.9.7-6.5-2.2-8.2-1.4-.8-3-1-4.5-.6s-2.8 1.4-3.6 2.8c-.8 1.4-1 3-.6 4.5s1.4 2.8 2.8 3.6c.9.5 1.9.8 3 .8.5 0 1-.1 1.6-.2 1.4-.3 2.7-1.3 3.5-2.7zm-2.6-1.5c-.4.7-1 1.2-1.8 1.4-.8.2-1.6.1-2.3-.3-.7-.4-1.2-1-1.4-1.8-.2-.8-.1-1.6.3-2.3.4-.7 1-1.2 1.8-1.4.3-.1.5-.1.8-.1.5 0 1 .1 1.5.4 1.5.8 2 2.7 1.1 4.1z"/><path class="st0" d="M122.2 20.1c-1.7-2.9-5.3-3.8-8.2-2.2l-14.3 8.2-3.9-6.7 14.3-8.2c2.9-1.7 3.8-5.3 2.2-8.2C110.6.1 107-.8 104.1.8L78.5 15.6c-3.5-2.1-7.2-3.5-11.2-4.3h-.1c-2.2-.4-4.4.5-5.7 2.2-.4-.4-.8-.9-1.2-1.2-1.3-.9-2.9-1.3-4.5-1h-.1c-4 .7-7.7 2.1-11.2 4.3L18.9.8C16-.9 12.3.1 10.7 3 9 5.9 10 9.5 12.9 11.2l14.3 8.2-3.9 6.7L9 17.9c-2.9-1.7-6.5-.7-8.2 2.2C-.8 23 .1 26.6 3 28.3l25.6 14.8v.7c0 3.8.7 7.6 2 11.2v.1c.8 2.1 2.6 3.6 4.7 3.9-.8 2-.5 4.3 1 6l.2.2c2.6 3 5.7 5.5 9.1 7.5v29.6c0 3.3 2.7 6 6 6s6-2.7 6-6V85.7h7.8v16.5c0 3.3 2.7 6 6 6s6-2.7 6-6V72.6c3.5-1.9 6.5-4.4 9.1-7.4.1-.1.2-.1.2-.2 1-1.2 1.5-2.8 1.4-4.4-.1-.6-.2-1.1-.4-1.7.6-.1 1.1-.2 1.6-.5 1.5-.7 2.6-1.9 3.1-3.4v-.1c1.3-3.6 2-7.3 2-11.2V43L120 28.3c1.4-.8 2.4-2.1 2.8-3.6.4-1.6.2-3.2-.6-4.6zm-41 30.7c0 .1 0 .1 0 0-.5 1.5-.5 3 0 4.3-1.4.2-2.6.9-3.6 1.9l-.1.1c-4 4.8-9.9 7.5-16 7.5-6.3 0-12.2-2.8-16.2-7.6-.1-.1-.1-.2-.2-.2-.9-.9-2.1-1.5-3.4-1.7.5-1.3.6-2.8.1-4.3v-.1c-.8-2.3-1.2-4.7-1.2-7.1 0-10.2 7.2-18.8 17.2-20.6h.1c1.5-.3 2.8-1.1 3.6-2.2.9 1.1 2.1 1.9 3.6 2.2h.1c10 1.8 17.2 10.5 17.2 20.6.1 2.6-.4 5-1.2 7.2zm-47.8 3.3c-1.2-3.3-1.8-6.8-1.8-10.3v-.9-.6c0-.6-.3-1.1-.7-1.4L4.5 25.7c-1.4-.8-1.9-2.7-1.1-4.1.8-1.4 2.7-1.9 4.1-1.1l15.6 9c.7.4 1.6.2 2-.5l5.4-9.3c.2-.3.3-.8.1-1.1-.1-.4-.4-.7-.7-.9l-15.6-9c-1.4-.8-1.9-2.7-1.1-4.1.8-1.4 2.7-1.9 4.1-1.1l26.4 15.2c.5.3 1.1.3 1.6 0 3.4-2.2 7.1-3.6 11-4.3h.1c.8-.1 1.5.1 2.2.5.7.5 1.1 1.1 1.2 1.9.3 1.6-.8 3.1-2.4 3.5h-.1c-11.5 2-19.8 11.9-19.8 23.6 0 2.8.5 5.6 1.4 8.2v.1c.5 1.5-.3 3.2-1.8 3.8-1.4.3-3.1-.4-3.7-1.9zm51.2 8.7l-.2.2c-2.6 3.1-5.7 5.5-9.2 7.4-.5.3-.8.8-.8 1.3v30.5c0 1.6-1.3 3-3 3-1.6 0-3-1.3-3-3v-18c0-.8-.7-1.5-1.5-1.5H56.1c-.8 0-1.5.7-1.5 1.5v18c0 1.6-1.3 3-3 3-1.6 0-3-1.3-3-3V71.7c0-.6-.3-1.1-.8-1.3-3.5-1.8-6.7-4.3-9.2-7.4l-.2-.2c-.9-1.3-.7-3 .5-4 1.3-1.1 3.2-.9 4.2.4l.1.1c4.6 5.4 11.2 8.4 18.2 8.4s13.7-3.1 18.2-8.4l.1-.1c.5-.6 1.2-1 2-1.1.8-.1 1.6.2 2.2.7s1 1.2 1.1 2c.2.7 0 1.4-.4 2zm35.3-38.9c-.2.8-.7 1.4-1.4 1.8L92.1 40.9c-.5.3-.8.8-.7 1.4v1.5c0 3.5-.6 7-1.8 10.2v.1c-.3.7-.8 1.3-1.5 1.6-.7.3-1.5.4-2.3.1s-1.4-.8-1.7-1.5c-.3-.7-.4-1.5-.1-2.2V52c1-2.6 1.4-5.4 1.4-8.2 0-11.7-8.3-21.6-19.8-23.6h-.1c-1.6-.3-2.6-1.9-2.4-3.5.3-1.6 1.8-2.7 3.4-2.4h.1c3.9.7 7.6 2.2 11 4.3.5.3 1.1.3 1.6 0l26.4-15.2c1.4-.8 3.3-.3 4.1 1.1.8 1.4.3 3.3-1.1 4.1l-15.6 9c-.3.2-.6.5-.7.9-.1.4 0 .8.2 1.1l5.4 9.3c.4.7 1.3 1 2 .5l15.6-9c1.4-.8 3.3-.3 4.1 1.1.4.8.5 1.6.3 2.4z"/></symbol><symbol id="icon-confirmed" viewbox="0 0 50 50"><path d="M10.335 25.745a2.36 2.36 0 1 0-3.338 3.337l8.95 8.95a2.36 2.36 0 0 0 3.338 0L42.35 14.966a2.36 2.36 0 1 0-3.338-3.338L17.616 33.025l-7.28-7.28z" fill="currentColor"/></symbol><symbol id="icon-flag" viewbox="0 0 84 104"><path d="M2.056 103.559a1.607 1.607 0 0 1-1.996-1.56V8C.06 3.8 3.466.394 7.667.394h68c4.2 0 7.607 3.406 7.607 7.607v94a1.607 1.607 0 0 1-1.996 1.559l-39.611-9.895-39.61 9.895z" fill="currentColor"/><path d="M79 98.667L41.668 89.34 4.333 98.667V10.933a5.6 5.6 0 0 1 5.6-5.6H73.4a5.6 5.6 0 0 1 5.6 5.6v87.734z"/></symbol><symbol id="icon-look" viewbox="0 0 50 50"><g fill="currentColor"><path d="M30.046 30.046c5.271-5.272 5.271-13.82 0-19.092-5.272-5.272-13.82-5.272-19.092 0-5.272 5.273-5.272 13.82 0 19.092 5.273 5.271 13.82 5.271 19.092 0zm2.122 2.121c-6.444 6.443-16.89 6.443-23.336 0-6.443-6.443-6.443-16.89 0-23.334 6.445-6.444 16.892-6.444 23.336 0 6.442 6.444 6.442 16.89 0 23.334z"/><path d="M15.904 25.096a6.5 6.5 0 0 1 0-9.192 1.5 1.5 0 0 0-2.121-2.121 9.5 9.5 0 0 0 0 13.434 1.5 1.5 0 0 0 2.12-2.121zM38.429 43.379L28.016 32.965a1.5 1.5 0 0 0-2.122 2.12l11.474 11.476a1.5 1.5 0 0 0 2.122 0l7.07-7.071a1.5 1.5 0 0 0 0-2.121L35.087 25.894a1.5 1.5 0 0 0-2.122 2.121L43.38 38.429l-4.95 4.95z"/></g></symbol><symbol id="icon-meeting" viewbox="0 0 50 50"><g fill="currentColor"><path d="M9 4.5v40a1.5 1.5 0 0 0 3 0v-40a1.5 1.5 0 0 0-3 0z"/><path d="M5.5 46h10a1.5 1.5 0 0 0 0-3h-10a1.5 1.5 0 0 0 0 3zM43.379 19.5l-8.5-8.5H12v17H34.88l8.5-8.5zM35.5 31h-25A1.5 1.5 0 0 1 9 29.5v-20A1.5 1.5 0 0 1 10.5 8h25a1.5 1.5 0 0 1 1.061.44l10 10a1.5 1.5 0 0 1 0 2.12l-10 10a1.5 1.5 0 0 1-1.06.44z"/></g></symbol><symbol id="icon-money" viewbox="0 0 50 50"><g fill="currentColor"><path d="M5.5 37A1.5 1.5 0 0 1 4 35.5v-20A1.5 1.5 0 0 1 5.5 14h40a1.5 1.5 0 0 1 1.5 1.5v20a1.5 1.5 0 0 1-1.5 1.5h-40zM44 34V17H7v17h37z"/><path d="M5.5 24.253a8.753 8.753 0 0 0 8.753-8.753 1.5 1.5 0 0 0-3 0A5.753 5.753 0 0 1 5.5 21.253a1.5 1.5 0 0 0 0 3zM14.253 35.5A8.753 8.753 0 0 0 5.5 26.747a1.5 1.5 0 0 0 0 3 5.753 5.753 0 0 1 5.753 5.753 1.5 1.5 0 0 0 3 0zM45.5 26.747a8.753 8.753 0 0 0-8.753 8.753 1.5 1.5 0 0 0 3 0 5.753 5.753 0 0 1 5.753-5.753 1.5 1.5 0 0 0 0-3zM36.747 15.5a8.753 8.753 0 0 0 8.753 8.753 1.5 1.5 0 0 0 0-3 5.753 5.753 0 0 1-5.753-5.753 1.5 1.5 0 0 0-3 0zM28.699 25.5a3.198 3.198 0 1 0-6.397 0 3.198 3.198 0 0 0 6.397 0zm3 0a6.198 6.198 0 1 1-12.397 0 6.198 6.198 0 0 1 12.397 0z"/></g></symbol><symbol id="icon-pictures-big" viewbox="0 0 143 142"><g transform="translate(0 -1)"><path d="M74.02 6.498a2.52 2.52 0 1 0-5.039 0 2.52 2.52 0 0 0 5.038 0zm3 0a5.52 5.52 0 1 1-11.039 0 5.52 5.52 0 0 1 11.038 0z" fill="currentColor"/><path d="M74.492 6.89l37.909 31.257a1.5 1.5 0 0 0 1.908-2.314L76.401 4.576a1.5 1.5 0 1 0-1.909 2.315zM66.601 4.574l-37.91 31.258a1.5 1.5 0 1 0 1.908 2.315l37.91-31.259a1.5 1.5 0 1 0-1.908-2.314z" fill="currentColor"/><path d="M135 139.021c2.22 0 4.02-1.8 4.02-4.022V42.511c0-2.221-1.8-4.021-4.02-4.021H8A4.021 4.021 0 0 0 3.98 42.51V135c0 2.222 1.8 4.022 4.022 4.022h126.998zm0 3H8A7.021 7.021 0 0 1 .98 135V42.511A7.021 7.021 0 0 1 8 35.49h126.998a7.021 7.021 0 0 1 7.022 7.021V135a7.021 7.021 0 0 1-7.022 7.022z" fill="currentColor"/><path d="M62.63 102.484a1.5 1.5 0 0 0 2.12 0l28.841-28.84 32.826 32.827a1.5 1.5 0 1 0 2.121-2.121L94.652 70.462a1.5 1.5 0 0 0-2.122 0l-28.84 28.84-13.22-13.22a1.5 1.5 0 0 0-2.12 0L14.461 119.97a1.5 1.5 0 1 0 2.121 2.121L49.41 89.265l13.22 13.22z" fill="currentColor"/><path d="M70 68.735a9.545 9.545 0 0 0-9.545-9.546 9.545 9.545 0 0 0-9.545 9.546 9.545 9.545 0 0 0 9.545 9.545A9.545 9.545 0 0 0 70 68.735zm3 0c0 6.929-5.616 12.545-12.545 12.545S47.91 75.664 47.91 68.735c0-6.93 5.616-12.546 12.545-12.546S73 61.806 73 68.735zM62.63 102.485l26.053 26.053a1.5 1.5 0 0 0 2.12-2.121L64.75 100.363a1.5 1.5 0 0 0-2.12 2.122z" fill="currentColor"/><mask id="b" fill="#fff"><use xlink:href="#a"/></mask><path d="M15.522 128.978a1.5 1.5 0 0 1-1.5-1.5V50.033a1.5 1.5 0 0 1 1.5-1.5h111.955a1.5 1.5 0 0 1 1.5 1.5v77.445a1.5 1.5 0 0 1-1.5 1.5H15.522zm110.455-3V51.533H17.022v74.445h108.955z" fill="currentColor" mask="url(#b)"/></g></symbol><symbol id="icon-plus" viewbox="0 0 50 50"><path d="M45.5 24H27V5.5a1.5 1.5 0 0 0-3 0V24H5.5a1.5 1.5 0 0 0 0 3H24v18.5a1.5 1.5 0 0 0 3 0V27h18.5a1.5 1.5 0 0 0 0-3" fill="currentColor"/></symbol><symbol id="icon-register" viewbox="0 0 50 50"><g fill="currentColor"><path d="M18.825 30.8a1.5 1.5 0 1 0-2.122 2.122l4.138 4.139a1.5 1.5 0 0 0 2.122 0L33.63 26.394a1.5 1.5 0 0 0-2.122-2.121l-9.606 9.606-3.077-3.078z"/><path d="M31.834 13.667H38.5c1.013 0 1.834.82 1.834 1.833v26.667A1.834 1.834 0 0 1 38.5 44H11.834A1.834 1.834 0 0 1 10 42.167V15.5c0-1.013.82-1.833 1.834-1.833H18.5a1.5 1.5 0 0 0 0-3h-6.666A4.834 4.834 0 0 0 7 15.5v26.667A4.834 4.834 0 0 0 11.834 47H38.5a4.834 4.834 0 0 0 4.834-4.833V15.5a4.834 4.834 0 0 0-4.834-4.833h-6.666a1.5 1.5 0 0 0 0 3z"/><path d="M30.334 12.167a5.167 5.167 0 1 0-10.335 0 5.167 5.167 0 0 0 10.335 0zm3 0a8.167 8.167 0 1 1-16.335 0 8.167 8.167 0 0 1 16.335 0z"/></g></symbol><symbol id="icon-settings-big" viewbox="0 0 143 143"><g fill="currentColor"><path d="M5.964 137.036c3.951 3.952 10.426 3.952 14.378 0L78.089 79.29c3.95-3.95 3.95-10.426 0-14.377-3.952-3.952-10.427-3.952-14.378 0L5.964 122.659c-3.951 3.95-3.951 10.426 0 14.377zm-2.121 2.122c-5.123-5.123-5.123-13.498 0-18.62L61.59 62.79c5.122-5.122 13.497-5.122 18.62 0 5.123 5.123 5.123 13.498 0 18.62l-57.747 57.748c-5.123 5.122-13.498 5.122-18.62 0z"/><path d="M132.94 3.311l6.749 6.75-9.921 20.75-14.66 3.522a1.5 1.5 0 0 0-.71.397L81.06 68.067a1.5 1.5 0 0 0 2.121 2.122l33.04-33.038 14.942-3.59a1.5 1.5 0 0 0 1.003-.81l10.687-22.354a1.5 1.5 0 0 0-.293-1.708L134.31.44a1.5 1.5 0 0 0-1.707-.292l-22.354 10.687a1.5 1.5 0 0 0-.812 1.003L105.85 26.78 72.81 59.818a1.5 1.5 0 0 0 2.121 2.122l33.337-33.338a1.5 1.5 0 0 0 .398-.71l3.52-14.66 20.752-9.92zM9.383 117.118l16.499 16.5a1.5 1.5 0 1 0 2.121-2.122l-16.499-16.499a1.5 1.5 0 1 0-2.121 2.121zM56.05 70.452L72.547 86.95a1.5 1.5 0 0 0 2.122-2.121l-16.5-16.5a1.5 1.5 0 0 0-2.12 2.122z"/><path d="M61.55 73.83l-46.668 46.667a1.5 1.5 0 1 0 2.121 2.122L63.67 75.952a1.5 1.5 0 0 0-2.12-2.122zM67.049 79.33l-46.667 46.667a1.5 1.5 0 1 0 2.121 2.121L69.17 81.451a1.5 1.5 0 0 0-2.121-2.121zM35 24.833c0-5.615-4.552-10.167-10.167-10.167-5.614 0-10.166 4.552-10.166 10.167S19.22 35 24.833 35C30.448 35 35 30.448 35 24.833zm3 0C38 32.105 32.105 38 24.833 38c-7.271 0-13.166-5.895-13.166-13.167 0-7.271 5.895-13.167 13.166-13.167C32.105 11.666 38 17.561 38 24.833z"/><path d="M46.209 37.43a24.674 24.674 0 0 0 3.458-12.597C49.667 11.118 38.55 0 24.833 0 11.118 0 0 11.118 0 24.833c0 13.715 11.118 24.833 24.833 24.833 4.478 0 8.788-1.207 12.598-3.457a1.5 1.5 0 1 0-1.526-2.583 21.685 21.685 0 0 1-11.072 3.04C12.775 46.666 3 36.891 3 24.833 3 12.775 12.775 3 24.833 3c12.059 0 21.834 9.775 21.834 21.833 0 3.934-1.06 7.72-3.041 11.071a1.5 1.5 0 1 0 2.583 1.526zM133.25 114.63l-5.773-5.774c-5.142-5.142-13.479-5.142-18.62 0-5.143 5.142-5.143 13.478 0 18.62l5.773 5.774-6.128 6.129-5.774-5.775c-7.077-7.076-8.375-17.997-3.352-26.509a1.5 1.5 0 0 0-2.584-1.524c-5.713 9.682-4.236 22.104 3.814 30.155l6.835 6.835a1.5 1.5 0 0 0 2.122 0l8.249-8.25a1.5 1.5 0 0 0 0-2.122l-6.834-6.834c-3.97-3.97-3.97-10.407 0-14.378 3.97-3.97 10.407-3.97 14.377 0l6.834 6.835a1.5 1.5 0 0 0 2.121 0l8.25-8.25a1.5 1.5 0 0 0 0-2.12l-6.833-6.835c-8.052-8.051-20.473-9.528-30.156-3.816a1.5 1.5 0 0 0 1.524 2.584c8.513-5.022 19.433-3.723 26.51 3.353l5.774 5.774-6.129 6.128z"/><path d="M31.833 26.333H36.5a1.5 1.5 0 0 0 0-3h-4.667a1.5 1.5 0 0 0 0 3zM13.167 26.333h4.667a1.5 1.5 0 0 0 0-3h-4.667a1.5 1.5 0 0 0 0 3zM23.333 31.833V36.5a1.5 1.5 0 0 0 3 0v-4.667a1.5 1.5 0 0 0-3 0zM23.333 13.166v4.667a1.5 1.5 0 0 0 3 0v-4.667a1.5 1.5 0 0 0-3 0zM107.394 97.022L83.42 73.05a1.5 1.5 0 1 0-2.121 2.122l23.973 23.972a1.5 1.5 0 1 0 2.12-2.122zM43.857 37.728L67.829 61.7a1.5 1.5 0 0 0 2.121-2.121L45.978 35.607a1.5 1.5 0 0 0-2.121 2.121zM74.564 84.935l22.46 22.459a1.5 1.5 0 1 0 2.12-2.122L76.687 82.813a1.5 1.5 0 0 0-2.122 2.122zM60.187 66.314L37.729 43.856a1.5 1.5 0 0 0-2.122 2.122l22.458 22.458a1.5 1.5 0 0 0 2.122-2.122z"/></g></symbol><symbol id="icon-stories-big" viewbox="0 0 143 143"><g fill="currentColor"><path d="M116.667 1.497v127.429a1.5 1.5 0 0 0 3 0V1.496a1.5 1.5 0 0 0-3 0zM13.167 142.01h116.667a1.5 1.5 0 0 0 0-3H13.167a1.5 1.5 0 0 0 0 3zM48.167 26.165h35a1.5 1.5 0 0 0 0-3h-35a1.5 1.5 0 1 0 0 3zM13.167 118.84a1.5 1.5 0 0 1-1.5-1.5V94.173a1.5 1.5 0 0 1 1.5-1.5H36.5a1.5 1.5 0 0 1 1.5 1.5v23.169a1.5 1.5 0 0 1-1.5 1.5H13.167zm1.5-3H35V95.673H14.667v20.169zM13.167 72.504a1.5 1.5 0 0 1-1.5-1.5V24.665a1.5 1.5 0 0 1 1.5-1.5H36.5a1.5 1.5 0 0 1 1.5 1.5v46.339a1.5 1.5 0 0 1-1.5 1.5H13.167zm1.5-3H35V26.165H14.667v43.339zM48.167 72.504h35a1.5 1.5 0 1 0 0-3h-35a1.5 1.5 0 0 0 0 3zM48.167 49.335H106.5a1.5 1.5 0 0 0 0-3H48.167a1.5 1.5 0 0 0 0 3zM48.167 60.919H106.5a1.5 1.5 0 0 0 0-3H48.167a1.5 1.5 0 0 0 0 3zM48.167 84.088H106.5a1.5 1.5 0 0 0 0-3H48.167a1.5 1.5 0 1 0 0 3zM48.167 95.673H106.5a1.5 1.5 0 0 0 0-3H48.167a1.5 1.5 0 0 0 0 3zM48.167 107.257H106.5a1.5 1.5 0 0 0 0-3H48.167a1.5 1.5 0 0 0 0 3zM48.167 118.842H106.5a1.5 1.5 0 1 0 0-3H48.167a1.5 1.5 0 0 0 0 3z"/><path d="M118.167-.003H1.5a1.5 1.5 0 1 0 0 3h116.667a1.5 1.5 0 0 0 0-3zM140 128.926c0 5.567-4.55 10.085-10.166 10.085-5.618 0-10.167-4.518-10.167-10.085a1.5 1.5 0 0 0-3 0c0 7.229 5.897 13.085 13.167 13.085 7.269 0 13.166-5.856 13.166-13.085V13.081a1.5 1.5 0 0 0-1.5-1.5h-23.333a1.5 1.5 0 0 0 0 3H140v114.345zM0 128.926c0 7.229 5.897 13.085 13.167 13.085a1.5 1.5 0 0 0 0-3C7.549 139.01 3 134.493 3 128.926a1.5 1.5 0 0 0-3 0z"/><path d="M3 128.926V1.496a1.5 1.5 0 0 0-3 0v127.43a1.5 1.5 0 0 0 3 0z"/></g></symbol><symbol id="icon-theme_activitescreatrices" viewbox="0 0 80 80"><title>ActivitesCreatrices_S</title><path class="cls-1" d="M47 31.5A11.5 11.5 0 1 1 58.5 20 11.51 11.51 0 0 1 47 31.5zm0-20a8.5 8.5 0 1 0 8.5 8.5 8.51 8.51 0 0 0-8.5-8.5z"/><path class="cls-1" d="M27 51.5a1.5 1.5 0 0 1-1.5-1.5 6.51 6.51 0 0 1 6.5-6.5 3.5 3.5 0 0 0 3.5-3.5A11.51 11.51 0 0 1 47 28.5a1.5 1.5 0 0 1 0 3 8.51 8.51 0 0 0-8.5 8.5 6.51 6.51 0 0 1-6.5 6.5 3.5 3.5 0 0 0-3.5 3.5 1.5 1.5 0 0 1-1.5 1.5zM33.87 71.5a12.86 12.86 0 0 1-3.29-.43A1.5 1.5 0 0 1 29.52 70a12.66 12.66 0 0 1 15.53-15.53 1.5 1.5 0 0 1 1.07 1.07 12.63 12.63 0 0 1-12.25 16zm-1.64-3.14a9.64 9.64 0 0 0 11.18-11.19 9.64 9.64 0 0 0-11.18 11.19z"/><path class="cls-1" d="M44.67 57.42a1.5 1.5 0 0 1-1.06-2.56l25.33-25.34a1.5 1.5 0 0 1 2.12 2.12L45.73 57a1.5 1.5 0 0 1-1.06.42z"/><path class="cls-1" d="M64.18 56.73a1.49 1.49 0 0 1-.75-.2L24.19 33.87a1.5 1.5 0 0 1 1.5-2.6l39.24 22.66a1.5 1.5 0 0 1-.75 2.8z"/><path class="cls-1" d="M17.41 36.08a16.3 16.3 0 0 1-8.16-2.17 1.5 1.5 0 0 1-.55-2l7.5-13a1.5 1.5 0 0 1 2-.55 16.54 16.54 0 0 1 8.19 14.25 1.5 1.5 0 0 1-.75 1.31 16.66 16.66 0 0 1-8.23 2.16zM12.09 32a13.33 13.33 0 0 0 11.32-.3 13.32 13.32 0 0 0-5.4-10z"/></symbol><symbol id="icon-theme_activitescreatrices_lg" viewbox="0 0 140 140"><title>ActivitesCreatrices_L</title><path class="cls-1" d="M20 131.5a1.5 1.5 0 0 1-.75-.2 21.4 21.4 0 0 1-5.37-32.74 1.5 1.5 0 0 1 2.25 2A18.39 18.39 0 0 0 20 128.24a18.57 18.57 0 0 0 8.5-15.54 18.42 18.42 0 0 0-4.63-12.16 1.5 1.5 0 1 1 2.25-2 21.42 21.42 0 0 1 5.38 14.16 21.57 21.57 0 0 1-10.75 18.6 1.5 1.5 0 0 1-.75.2z"/><path class="cls-1" d="M20 131.5a1.5 1.5 0 0 1-1.5-1.5v-20a1.5 1.5 0 0 1 3 0v20a1.5 1.5 0 0 1-1.5 1.5zM25 101.05H15a1.5 1.5 0 0 1-1.47-1.2 102.29 102.29 0 0 1 0-40.45v-.14a99.26 99.26 0 0 0 2-19.68 99.17 99.17 0 0 0-2-19.68A1.5 1.5 0 0 1 15 18.09h10a1.5 1.5 0 0 1 1.47 1.8 99.27 99.27 0 0 0 0 39.36 1.46 1.46 0 0 1 0 .16 102.2 102.2 0 0 1 2 20.16 102.31 102.31 0 0 1-2 20.28 1.5 1.5 0 0 1-1.47 1.2zm-8.77-3h7.53a99.33 99.33 0 0 0 1.74-18.48 99.17 99.17 0 0 0-2-19.68 1.49 1.49 0 0 1 0-.16 102.29 102.29 0 0 1-.32-38.64h-6.36a102.32 102.32 0 0 1 1.68 18.48 102.32 102.32 0 0 1-2 20.18v.14a99.29 99.29 0 0 0-.24 38.16zM122.93 111.67a1.5 1.5 0 0 1-1.06-.44L57.78 47.14a1.5 1.5 0 0 1 0-2.12L64.85 38A1.5 1.5 0 0 1 67 38l64.06 64a1.5 1.5 0 0 1 0 2.12l-7.06 7.11a1.5 1.5 0 0 1-1.07.44zM61 46.08l62 62 5-5-62-62zM110 51.5A21.5 21.5 0 1 1 131.5 30 21.52 21.52 0 0 1 110 51.5zm0-40A18.5 18.5 0 1 0 128.5 30 18.52 18.52 0 0 0 110 11.5z"/><path class="cls-1" d="M114 47.5A21.52 21.52 0 0 1 92.5 26a21.3 21.3 0 0 1 4.32-12.89 1.5 1.5 0 1 1 2.4 1.8A18.33 18.33 0 0 0 95.5 26 18.52 18.52 0 0 0 114 44.5a18.33 18.33 0 0 0 11.08-3.72 1.5 1.5 0 0 1 1.8 2.4A21.31 21.31 0 0 1 114 47.5z"/><path class="cls-1" d="M118 41.5a21.45 21.45 0 0 1-20.19-28.84 1.5 1.5 0 1 1 2.82 1A18.47 18.47 0 0 0 128 35.57a1.5 1.5 0 0 1 1.62 2.52A21.42 21.42 0 0 1 118 41.5z"/><path class="cls-1" d="M120 33.5a21.4 21.4 0 0 1-21.46-20.77 1.5 1.5 0 1 1 3-.1A18.46 18.46 0 0 0 129.22 28a1.5 1.5 0 0 1 1.5 2.6A21.5 21.5 0 0 1 120 33.5z"/><path class="cls-1" d="M122 23.5a21.38 21.38 0 0 1-19.24-11.95 1.5 1.5 0 0 1 2.69-1.34A18.4 18.4 0 0 0 122 20.5a18.49 18.49 0 0 0 5.46-.82 1.5 1.5 0 0 1 .88 2.87 21.48 21.48 0 0 1-6.34.95zM58.84 47.58a41.12 41.12 0 0 1-30.1-13 1.5 1.5 0 0 1 0-2.09L52.33 8.94a1.5 1.5 0 0 1 2.09 0 41.11 41.11 0 0 1 13 30.1 1.5 1.5 0 0 1-3 0 38.09 38.09 0 0 0-11-26.9L31.94 33.58a38.1 38.1 0 0 0 26.9 11 1.5 1.5 0 0 1 0 3z"/><path class="cls-1" d="M62.37 44a1.5 1.5 0 0 1-1.06-.44L40.55 22.84a1.5 1.5 0 0 1 2.12-2.12l20.77 20.77A1.5 1.5 0 0 1 62.37 44zM54.33 47.32a1.5 1.5 0 0 1-1.06-.44L34.89 28.5A1.5 1.5 0 0 1 37 26.38l18.39 18.37a1.5 1.5 0 0 1-1.06 2.56zM65.64 36a1.5 1.5 0 0 1-1.06-.44L46.21 17.19a1.5 1.5 0 1 1 2.12-2.12L66.7 33.44A1.5 1.5 0 0 1 65.64 36zM70 91.5a1.5 1.5 0 0 1-1.5-1.5A11.51 11.51 0 0 1 80 78.5a8.51 8.51 0 0 0 8.5-8.5A21.52 21.52 0 0 1 110 48.5a1.5 1.5 0 0 1 0 3A18.52 18.52 0 0 0 91.5 70 11.51 11.51 0 0 1 80 81.5a8.51 8.51 0 0 0-8.5 8.5 1.5 1.5 0 0 1-1.5 1.5z"/><path class="cls-1" d="M80 101.5A11.51 11.51 0 0 1 68.5 90a1.5 1.5 0 1 1 3 0 8.51 8.51 0 0 0 8.5 8.5 1.5 1.5 0 1 1 0 3z"/><path class="cls-1" d="M90 111.5a1.5 1.5 0 0 1-1.5-1.5 8.51 8.51 0 0 0-8.5-8.5 1.5 1.5 0 1 1 0-3A11.51 11.51 0 0 1 91.5 110a1.5 1.5 0 0 1-1.5 1.5z"/><path class="cls-1" d="M80 121.5a1.5 1.5 0 0 1 0-3 8.51 8.51 0 0 0 8.5-8.5 1.5 1.5 0 0 1 3 0A11.51 11.51 0 0 1 80 121.5z"/><path class="cls-1" d="M76.46 130a6.5 6.5 0 1 1 4.6-1.9 6.46 6.46 0 0 1-4.6 1.9zm0-10a3.5 3.5 0 0 0-2.46 6 3.58 3.58 0 0 0 5 0 3.5 3.5 0 0 0-2.48-6z"/><path class="cls-1" d="M72.93 121.5a1.5 1.5 0 0 1-1.06-.44L42.79 92a1.5 1.5 0 0 1 2.12-2.12L74 118.94a1.5 1.5 0 0 1-1.06 2.56z"/></symbol><symbol id="icon-theme_activitescreatrices_o" viewbox="0 0 120 120"><title>ActivitesCreatrices</title><path class="cls-1" d="M60 111.5A51.5 51.5 0 1 1 111.5 60 51.56 51.56 0 0 1 60 111.5zm0-100A48.5 48.5 0 1 0 108.5 60 48.55 48.55 0 0 0 60 11.5z"/><circle class="cls-2" cx="60" cy="60" r="51.5"/><path class="cls-1" d="M65.83 53.17a9.83 9.83 0 1 1 9.83-9.83 9.84 9.84 0 0 1-9.83 9.83zm0-16.67a6.83 6.83 0 1 0 6.83 6.83 6.84 6.84 0 0 0-6.83-6.83z"/><path class="cls-1" d="M49.17 69.83a1.5 1.5 0 0 1-1.5-1.5 5.67 5.67 0 0 1 5.67-5.67A2.67 2.67 0 0 0 56 60a9.84 9.84 0 0 1 9.83-9.83 1.5 1.5 0 0 1 0 3A6.84 6.84 0 0 0 59 60a5.67 5.67 0 0 1-5.67 5.67 2.67 2.67 0 0 0-2.67 2.67 1.5 1.5 0 0 1-1.49 1.49zM54.89 86.5a11 11 0 0 1-2.8-.36A1.5 1.5 0 0 1 51 85.06a10.8 10.8 0 0 1 13.27-13.25 1.5 1.5 0 0 1 1.07 1.07A10.78 10.78 0 0 1 54.89 86.5zm-1.15-3.08a7.79 7.79 0 0 0 8.88-8.88 7.78 7.78 0 0 0-8.88 8.88z"/><path class="cls-1" d="M63.89 74.76a1.5 1.5 0 0 1-1.06-2.56l21.11-21.11a1.5 1.5 0 0 1 2.12 2.12L65 74.32a1.5 1.5 0 0 1-1.11.44z"/><path class="cls-1" d="M80.15 74.19a1.49 1.49 0 0 1-.75-.2L46.7 55.11a1.5 1.5 0 1 1 1.5-2.6l32.7 18.88a1.5 1.5 0 0 1-.75 2.8z"/><path class="cls-1" d="M41.17 57a13.83 13.83 0 0 1-6.92-1.84 1.5 1.5 0 0 1-.55-2l6.3-10.9a1.5 1.5 0 0 1 2-.55 14 14 0 0 1 6.95 12.09 1.5 1.5 0 0 1-.75 1.31A14.14 14.14 0 0 1 41.17 57zm-4.07-3.8a10.85 10.85 0 0 0 8.81-.28 10.85 10.85 0 0 0-4.16-7.77z"/></symbol><symbol id="icon-theme_boireunpot" viewbox="0 0 80 80"><title>BoireUnPot_S</title><path class="cls-1" d="M44.49 71.5a18 18 0 0 1-18-18V42a1.5 1.5 0 0 1 1.5-1.5H61a1.5 1.5 0 0 1 1.5 1.5v11.52A18 18 0 0 1 44.49 71.5zm-15-28v10a15 15 0 1 0 30 0v-10z"/><path class="cls-1" d="M64.24 58.79h-3.73a1.5 1.5 0 0 1 0-3h3.73a4.26 4.26 0 0 0 0-8.51H61a1.5 1.5 0 0 1 0-3h3.28a7.26 7.26 0 0 1 0 14.51zM70 71.5H22.24a1.5 1.5 0 0 1 0-3H70a1.5 1.5 0 0 1 0 3zM53.43 36.41a5.33 5.33 0 1 1 0-10.65 2.33 2.33 0 1 0 0-4.65 1.5 1.5 0 0 1 0-3 5.33 5.33 0 1 1 0 10.65 2.33 2.33 0 1 0 0 4.65 1.5 1.5 0 0 1 0 3zM42.5 36.41a5.33 5.33 0 0 1 0-10.65 2.33 2.33 0 0 0 0-4.65 1.5 1.5 0 0 1 0-3 5.33 5.33 0 0 1 0 10.65 2.33 2.33 0 0 0 0 4.65 1.5 1.5 0 0 1 0 3zM28 54.44H12.45A1.5 1.5 0 0 1 11 53L8.5 19.71A1.5 1.5 0 0 1 10 18.1h24.07a1.5 1.5 0 0 1 1.5 1.62L33.85 42a1.5 1.5 0 1 1-3-.23l1.6-20.67H11.61l2.23 30.33H28a1.5 1.5 0 1 1 0 3z"/><path class="cls-1" d="M26.77 21.1h-.11a1.5 1.5 0 0 1-1.39-1.6l.3-4.29a7.24 7.24 0 0 1 7.19-6.71H40a1.5 1.5 0 0 1 0 3h-7.24a4.23 4.23 0 0 0-4.2 3.92l-.3 4.29a1.5 1.5 0 0 1-1.49 1.39z"/></symbol><symbol id="icon-theme_boireunpot_lg" viewbox="0 0 140 140"><title>BoireUnPot_L</title><path class="cls-1" d="M82.24 131.5a37.74 37.74 0 0 1-37.7-37.7V73.71a1.5 1.5 0 0 1 1.5-1.5h72.4a1.5 1.5 0 0 1 1.5 1.5V93.8a37.74 37.74 0 0 1-37.7 37.7zm-34.7-56.29V93.8a34.7 34.7 0 0 0 69.4 0V75.21z"/><path class="cls-1" d="M118.49 108.48H116a1.5 1.5 0 0 1 0-3h2.53a10 10 0 1 0 0-20 1.5 1.5 0 1 1 0-3 13 13 0 1 1 0 26zM130 131.5H34.47a1.5 1.5 0 1 1 0-3H130a1.5 1.5 0 0 1 0 3zM95.55 62.84a9.91 9.91 0 0 1 0-19.83 6.91 6.91 0 1 0 0-13.83 1.5 1.5 0 0 1 0-3 9.91 9.91 0 1 1 0 19.83 6.91 6.91 0 0 0 0 13.83 1.5 1.5 0 0 1 0 3zM78.72 62.84a9.91 9.91 0 0 1 0-19.83 6.91 6.91 0 1 0 0-13.83 1.5 1.5 0 0 1 0-3 9.91 9.91 0 1 1 0 19.83 6.91 6.91 0 0 0 0 13.83 1.5 1.5 0 1 1 0 3zM46.1 97.38H14.9A1.5 1.5 0 0 1 13.4 96L8.5 22.1a1.5 1.5 0 0 1 1.5-1.6h48.14a1.5 1.5 0 0 1 1.5 1.6l-3.43 51.7a1.5 1.5 0 1 1-3-.2l3.32-50.1H11.6l4.7 70.87h29.8a1.5 1.5 0 0 1 0 3z"/><path class="cls-1" d="M56.87 42.07H11.26a1.5 1.5 0 1 1 0-3h45.61a1.5 1.5 0 0 1 0 3z"/><path class="cls-1" d="M42.74 42.07h-.11a1.5 1.5 0 0 1-1.39-1.6l1.39-19.94a13 13 0 0 1 12.9-12H70a1.5 1.5 0 0 1 0 3H55.53a10 10 0 0 0-9.9 9.23l-1.4 19.92a1.5 1.5 0 0 1-1.49 1.39z"/></symbol><symbol id="icon-theme_boireunpot_o" viewbox="0 0 120 120"><title>BoireUnPot</title><path class="cls-1" d="M60 111.5A51.5 51.5 0 1 1 111.5 60 51.56 51.56 0 0 1 60 111.5zm0-100A48.5 48.5 0 1 0 108.5 60 48.55 48.55 0 0 0 60 11.5z"/><circle class="cls-2" cx="60" cy="60" r="51.5"/><path class="cls-1" d="M63.74 86.5a15.25 15.25 0 0 1-15.23-15.23v-9.62a1.5 1.5 0 0 1 1.5-1.5h27.46a1.5 1.5 0 0 1 1.5 1.5v9.62A15.25 15.25 0 0 1 63.74 86.5zM51.51 63.15v8.12a12.23 12.23 0 0 0 24.46 0v-8.12z"/><path class="cls-1" d="M80.2 75.91h-3.1a1.5 1.5 0 0 1 0-3h3.1a3.3 3.3 0 1 0 0-6.59h-2.73a1.5 1.5 0 0 1 0-3h2.73a6.3 6.3 0 1 1 0 12.59zM85 86.5H45.2a1.5 1.5 0 0 1 0-3H85a1.5 1.5 0 0 1 0 3zM71.19 57.26a4.69 4.69 0 0 1 0-9.38 1.69 1.69 0 0 0 0-3.38 1.5 1.5 0 0 1 0-3 4.69 4.69 0 0 1 0 9.38 1.69 1.69 0 0 0 0 3.38 1.5 1.5 0 0 1 0 3zM62.08 57.26a4.69 4.69 0 1 1 0-9.38 1.69 1.69 0 0 0 0-3.38 1.5 1.5 0 0 1 0-3 4.69 4.69 0 0 1 0 9.38 1.69 1.69 0 1 0 0 3.38 1.5 1.5 0 0 1 0 3zM50 72.28H37a1.5 1.5 0 0 1-1.5-1.39l-2-27.78A1.5 1.5 0 0 1 35 41.5h20.06a1.5 1.5 0 0 1 1.5 1.62l-1.43 18.54a1.5 1.5 0 0 1-3-.23l1.3-16.93H36.61l1.82 24.78H50a1.5 1.5 0 0 1 0 3z"/><path class="cls-1" d="M49 44.5h-.11a1.5 1.5 0 0 1-1.39-1.6l.25-3.57A6.28 6.28 0 0 1 54 33.5h6a1.5 1.5 0 0 1 0 3h-6a3.27 3.27 0 0 0-3.25 3l-.25 3.57A1.5 1.5 0 0 1 49 44.5z"/></symbol><symbol id="icon-theme_conferences" viewbox="0 0 80 80"><title>Conferences_S</title><path class="cls-1" d="M55 41.5a1.5 1.5 0 0 1-1.06-.44l-15-15A1.5 1.5 0 0 1 38.5 25 16.5 16.5 0 1 1 55 41.5zM41.51 24.39l14.1 14.1a13.5 13.5 0 1 0-14.1-14.1z"/><path class="cls-1" d="M25 67.12a1.5 1.5 0 0 1-1.06-.44l-10.62-10.6a1.5 1.5 0 0 1-.09-2l22.08-26.51.09-.1 3.54-3.54a1.5 1.5 0 0 1 2.12 2.12l-3.49 3.49-21.16 25.38 8.67 8.67 25.37-21.16 3.49-3.49a1.5 1.5 0 0 1 2.12 2.12l-3.54 3.54-.1.09-26.48 22.08a1.5 1.5 0 0 1-.94.35z"/><path class="cls-1" d="M10 71.5a1.5 1.5 0 0 1-1.06-2.56l9.68-9.68a1.5 1.5 0 0 1 2.12 2.12l-9.68 9.68a1.5 1.5 0 0 1-1.06.44zM36 45.5a1.5 1.5 0 0 1-1.06-2.56l3.68-3.68a1.5 1.5 0 0 1 2.12 2.12l-3.68 3.68a1.5 1.5 0 0 1-1.06.44z"/></symbol><symbol id="icon-theme_conferences_lg" viewbox="0 0 140 140"><title>Conferences_L</title><path class="cls-1" d="M100 71.5a1.5 1.5 0 0 1-1.06-.44l-30-30A1.5 1.5 0 0 1 68.5 40 31.5 31.5 0 1 1 100 71.5zM71.51 39.39l29.11 29.11a28.5 28.5 0 1 0-29.11-29.11z"/><path class="cls-1" d="M100.13 71.63a1.5 1.5 0 0 1-1.5-1.5v-60a1.5 1.5 0 1 1 3 0v60a1.5 1.5 0 0 1-1.5 1.5zM85.13 56.37a1.5 1.5 0 0 1-1.5-1.5V14a1.5 1.5 0 0 1 1.5-1.5 1.5 1.5 0 0 1 1.5 1.5v40.87a1.5 1.5 0 0 1-1.5 1.5zM115.13 67.43a1.5 1.5 0 0 1-1.5-1.5V14.36a1.5 1.5 0 0 1 3 0v51.57a1.5 1.5 0 0 1-1.5 1.5z"/><path class="cls-1" d="M100.13 41.37H69.87a1.5 1.5 0 0 1 0-3h60a1.5 1.5 0 0 1 0 3zM85.13 56.37a1.5 1.5 0 0 1 0-3H126a1.5 1.5 0 0 1 0 3zM100.13 26.37H74.07a1.5 1.5 0 0 1 0-3h51.57a1.5 1.5 0 0 1 0 3zM32 130.75a1.5 1.5 0 0 1-1.06-.44L9.69 109.09a1.5 1.5 0 0 1-.08-2l52.17-61a1.5 1.5 0 0 1 1.08-.52A1.52 1.52 0 0 1 64 46l30 30a1.5 1.5 0 0 1-.09 2.2l-61 52.17a1.49 1.49 0 0 1-.91.38zM12.8 108L32 127.2 90.72 77 63 49.28z"/><path class="cls-1" d="M92.93 78.57a1.5 1.5 0 0 1-1.06-.44l-30-30a1.5 1.5 0 0 1 0-2.12l7.07-7.07a1.5 1.5 0 0 1 2.12 2.12l-6 6L92.93 75l6-6a1.5 1.5 0 1 1 2.12 2.12L94 78.13a1.5 1.5 0 0 1-1.07.44zM10 131.5a1.5 1.5 0 0 1-1.06-2.56l11.36-11.36a1.5 1.5 0 0 1 2.12 2.12l-11.36 11.36a1.5 1.5 0 0 1-1.06.44zM60.25 88.32a1.5 1.5 0 0 1-1.06-.44l-7.07-7.07a1.5 1.5 0 0 1 0-2.12l14.14-14.14a1.5 1.5 0 0 1 2.12 0l7.07 7.07a1.5 1.5 0 0 1 0 2.12L61.31 87.88a1.5 1.5 0 0 1-1.06.44zm-5-8.57l5 5 12-12-5-5z"/><path class="cls-1" d="M65.91 82.66a1.5 1.5 0 0 1-1.06-.44l-7.07-7.07A1.5 1.5 0 0 1 59.9 73l7.1 7.1a1.5 1.5 0 0 1-1.06 2.56z"/></symbol><symbol id="icon-theme_conferences_o" viewbox="0 0 120 120"><title>Conferences</title><path class="cls-1" d="M60 111.5A51.5 51.5 0 1 1 111.5 60 51.56 51.56 0 0 1 60 111.5zm0-100A48.5 48.5 0 1 0 108.5 60 48.55 48.55 0 0 0 60 11.5z"/><circle class="cls-2" cx="60" cy="60" r="51.5"/><path class="cls-1" d="M72.5 61.5a1.5 1.5 0 0 1-1.06-.44l-12.5-12.5a1.5 1.5 0 0 1-.44-1.06 14 14 0 1 1 14 14zm-11-14.6l11.6 11.58A11 11 0 1 0 61.52 46.9z"/><path class="cls-1" d="M47.49 82.85a1.5 1.5 0 0 1-1.06-.44l-8.84-8.84a1.5 1.5 0 0 1-.09-2l18.4-22.08.09-.1 2.95-2.95a1.5 1.5 0 0 1 2.12 2.12l-2.9 2.9-17.48 21 6.9 6.9 21-17.48 2.9-2.9a1.5 1.5 0 0 1 2.12 2.12L70.61 64l-.1.09L48.45 82.5a1.5 1.5 0 0 1-.96.35z"/><path class="cls-1" d="M35 86.5a1.5 1.5 0 0 1-1.06-2.56L42 75.87A1.5 1.5 0 0 1 44.13 78l-8.07 8.07a1.5 1.5 0 0 1-1.06.43zM56.67 64.83a1.5 1.5 0 0 1-1.06-2.56l3.07-3.07a1.5 1.5 0 0 1 2.12 2.12l-3.07 3.07a1.5 1.5 0 0 1-1.06.44z"/></symbol><symbol id="icon-theme_cuisine" viewbox="0 0 80 80"><title>Cuisine_S</title><path class="cls-1" d="M47.12 59.91A9.15 9.15 0 0 1 38 50.77v-7.63a5.28 5.28 0 0 1 1.5-3.7l4.85-5.9a3.51 3.51 0 0 1 .35-.42 3.45 3.45 0 0 1 3.71-.71l9.15 4.13a7.2 7.2 0 0 1 4.44 6.6 7.19 7.19 0 0 1-1.24 4l-6.08 8.76a9.12 9.12 0 0 1-7.56 4.01zm-.43-24.52l-4.93 6-.1.11a2.3 2.3 0 0 0-.66 1.64v7.64a6.14 6.14 0 0 0 11.21 3.42l6.06-8.72a4.18 4.18 0 0 0 .62-1.48 4.24 4.24 0 0 0-2.5-4.75l-9.15-4.13a.63.63 0 0 0-.38.07l-.17.21zM30.5 39.7a7.55 7.55 0 0 1-7.5-7.57V20a1.5 1.5 0 0 1 1.5-1.5A1.5 1.5 0 0 1 26 20v12.13a4.55 4.55 0 1 0 9.09 0L35 20a1.5 1.5 0 0 1 1.5-1.5A1.5 1.5 0 0 1 38 20v12.13a7.55 7.55 0 0 1-7.5 7.57z"/><path class="cls-1" d="M30.5 70a1.5 1.5 0 0 1-1.5-1.5V20a1.5 1.5 0 0 1 3 0v48.46A1.5 1.5 0 0 1 30.5 70zM15.33 47.5H10A1.5 1.5 0 0 1 8.5 46V20a1.5 1.5 0 0 1 2.89-.56L20 40.65a5 5 0 0 1-4.62 6.85zm-3.83-3h3.83a2 2 0 0 0 1.84-2.73l-5.67-14z"/><path class="cls-1" d="M10 66.5A1.5 1.5 0 0 1 8.5 65V46a1.5 1.5 0 0 1 3 0v19a1.5 1.5 0 0 1-1.5 1.5z"/><path class="cls-1" d="M40 71.5A31.59 31.59 0 0 1 9.13 46.3a1.5 1.5 0 0 1 2.94-.6 28.56 28.56 0 1 0 2.19-17.87 1.5 1.5 0 0 1-2.71-1.28A31.49 31.49 0 1 1 40 71.5z"/></symbol><symbol id="icon-theme_cuisine_lg" viewbox="0 0 140 140"><title>Cuisine_L</title><path class="cls-1" d="M50 121.5H40a1.5 1.5 0 0 1-1.5-1.5V85a1.5 1.5 0 0 1 1.5-1.5h10a1.5 1.5 0 0 1 1.5 1.5v35a1.5 1.5 0 0 1-1.5 1.5zm-8.5-3h7v-32h-7zM20 121.5H10a1.5 1.5 0 0 1-1.5-1.5V85a1.5 1.5 0 0 1 1.5-1.5h10a1.5 1.5 0 0 1 1.5 1.5v35a1.5 1.5 0 0 1-1.5 1.5zm-8.5-3h7v-32h-7z"/><path class="cls-1" d="M50 86.5H40a1.5 1.5 0 0 1-1.5-1.5V61.33a6.51 6.51 0 0 1-5-6.33v-.15l2.5-25a1.5 1.5 0 0 1 1.5-1.35h15a1.5 1.5 0 0 1 1.5 1.35l2.5 25V55a6.51 6.51 0 0 1-5 6.33V85a1.5 1.5 0 0 1-1.5 1.5zm-8.5-3h7V60a1.5 1.5 0 0 1 1.5-1.5 3.5 3.5 0 0 0 3.5-3.43L51.14 31.5H38.86L36.5 55.07A3.5 3.5 0 0 0 40 58.5a1.5 1.5 0 0 1 1.5 1.5zM20 86.5H10A1.5 1.5 0 0 1 8.5 85V30a1.5 1.5 0 0 1 1.5-1.5h5a1.5 1.5 0 0 1 1.44 1.09l10 35a1.51 1.51 0 0 1 .06.41 6.51 6.51 0 0 1-5 6.33V85a1.5 1.5 0 0 1-1.5 1.5zm-8.5-3h7V70a1.5 1.5 0 0 1 1.5-1.5 3.5 3.5 0 0 0 3.49-3.31L13.87 31.5H11.5z"/><path class="cls-1" d="M70 131.5A61.42 61.42 0 0 1 18.75 104a1.5 1.5 0 0 1 2.5-1.66 58.5 58.5 0 1 0-2-61.36 1.5 1.5 0 1 1-2.6-1.49A61.5 61.5 0 1 1 70 131.5z"/><path class="cls-1" d="M47.5 51.5A1.5 1.5 0 0 1 46 50V30a1.5 1.5 0 0 1 3 0v20a1.5 1.5 0 0 1-1.5 1.5zM42.5 51.5A1.5 1.5 0 0 1 41 50V30a1.5 1.5 0 0 1 3 0v20a1.5 1.5 0 0 1-1.5 1.5zM82.46 104A21.52 21.52 0 0 1 61 82.5v-20a11.42 11.42 0 0 1 3.32-8.08l12.79-15.61a6.5 6.5 0 0 1 .74-.9 6.5 6.5 0 0 1 7.15-1.4l23.92 10.8a16.49 16.49 0 0 1 7.23 24.42l-15.87 22.81A21.48 21.48 0 0 1 82.46 104zm-3-63.33L66.55 56.38l-.1.11a8.45 8.45 0 0 0-2.49 6v20A18.5 18.5 0 0 0 97.8 92.84L113.67 70a13.42 13.42 0 0 0 2-4.81 13.52 13.52 0 0 0-8-15.16L83.79 39.26a3.44 3.44 0 0 0-1.33-.26A3.48 3.48 0 0 0 80 40l-.56.69z"/><path class="cls-1" d="M104.12 79.49a1.5 1.5 0 0 1-1.3-.75l-15-26a1.5 1.5 0 0 1 2.6-1.5l15 26a1.5 1.5 0 0 1-1.3 2.25zM95.46 84.49a1.5 1.5 0 0 1-1.3-.75l-15-26a1.5 1.5 0 0 1 2.6-1.5l15 26a1.5 1.5 0 0 1-1.3 2.25zM86.8 89.49a1.5 1.5 0 0 1-1.3-.75l-15-26a1.5 1.5 0 0 1 2.6-1.5l15 26a1.5 1.5 0 0 1-1.3 2.25z"/></symbol><symbol id="icon-theme_cuisine_o" viewbox="0 0 120 120"><title>Cuisine</title><path class="cls-1" d="M60 111.5A51.5 51.5 0 1 1 111.5 60 51.56 51.56 0 0 1 60 111.5zm0-100A48.5 48.5 0 1 0 108.5 60 48.55 48.55 0 0 0 60 11.5z"/><circle class="cls-2" cx="60" cy="60" r="51.5"/><path class="cls-1" d="M65.93 76.84A7.87 7.87 0 0 1 58.07 69v-6.39a4.65 4.65 0 0 1 1.32-3.25l4-4.9a3.06 3.06 0 0 1 .32-.38 3.13 3.13 0 0 1 3.37-.64l7.63 3.45a6.25 6.25 0 0 1 3.8 5.77 6.33 6.33 0 0 1-.13 1.26 6.22 6.22 0 0 1-.37 1.18 6.29 6.29 0 0 1-.58 1.07l-5.06 7.27a7.85 7.85 0 0 1-6.44 3.4zm-.16-20.53l-4.11 5-.1.11a1.67 1.67 0 0 0-.49 1.19V69A4.86 4.86 0 0 0 70 71.7l5-7.27a3.28 3.28 0 0 0 .29-.54 3.23 3.23 0 0 0 .19-.61 3.31 3.31 0 0 0 .07-.66 3.27 3.27 0 0 0-2-3l-7.65-3.46zM52.08 60a6.54 6.54 0 0 1-6.54-6.56V43.33a1.5 1.5 0 0 1 1.5-1.5 1.5 1.5 0 0 1 1.5 1.5v10.11a3.52 3.52 0 0 0 1 2.51 3.62 3.62 0 0 0 5 0 3.52 3.52 0 0 0 1-2.51V43.33a1.5 1.5 0 0 1 1.5-1.5 1.5 1.5 0 0 1 1.5 1.5v10.11A6.54 6.54 0 0 1 52.08 60z"/><path class="cls-1" d="M52.08 85.22a1.5 1.5 0 0 1-1.5-1.5V43.33a1.5 1.5 0 0 1 3 0v40.39a1.5 1.5 0 0 1-1.5 1.5zM39.44 66.5H35a1.5 1.5 0 0 1-1.5-1.5V43.33a1.5 1.5 0 0 1 2.89-.56l7.14 17.67a4.41 4.41 0 0 1-4.09 6.06zm-2.94-3h2.94a1.41 1.41 0 0 0 1.3-1.93L36.5 51.05z"/><path class="cls-1" d="M35 82.33a1.5 1.5 0 0 1-1.5-1.5V65a1.5 1.5 0 0 1 3 0v15.83a1.5 1.5 0 0 1-1.5 1.5z"/><path class="cls-1" d="M60 86.5a26.57 26.57 0 0 1-26-21.2 1.5 1.5 0 0 1 3-.6A23.55 23.55 0 1 0 38.77 50a1.5 1.5 0 1 1-2.71-1.28A26.49 26.49 0 1 1 60 86.5z"/></symbol><symbol id="icon-theme_culture" viewbox="0 0 80 80"><title>Culture_S</title><path class="cls-1" d="M69.6 71.5H10.12a1.5 1.5 0 0 1 0-3H69.6a1.5 1.5 0 0 1 0 3zM64.92 43.1H15.08a1.5 1.5 0 1 1 0-3h49.84a1.5 1.5 0 0 1 0 3zM63.9 31.85H15.82a1.5 1.5 0 1 1 0-3H63.9a1.5 1.5 0 0 1 0 3z"/><path class="cls-1" d="M63.9 31.85a1.5 1.5 0 0 1-1-.35l-24-20.35a1.5 1.5 0 0 1 1.94-2.29l24 20.35a1.5 1.5 0 0 1-1 2.65z"/><path class="cls-1" d="M15.82 31.85a1.5 1.5 0 0 1-1-2.65l24-20.35a1.5 1.5 0 0 1 1.94 2.29l-24 20.35a1.49 1.49 0 0 1-.94.36zM39.86 71.5a1.5 1.5 0 0 1-1.5-1.5V41.6a1.5 1.5 0 0 1 3 0V70a1.5 1.5 0 0 1-1.5 1.5zM24 71.5a1.5 1.5 0 0 1-1.5-1.5V41.6a1.5 1.5 0 0 1 3 0V70a1.5 1.5 0 0 1-1.5 1.5zM55.69 71.5a1.5 1.5 0 0 1-1.5-1.5V41.6a1.5 1.5 0 0 1 3 0V70a1.5 1.5 0 0 1-1.5 1.5zM70 48.18a1.5 1.5 0 0 1-1.5-1.5 3.58 3.58 0 0 0-3.58-3.58 1.5 1.5 0 0 1 0-3 6.58 6.58 0 0 1 6.58 6.58 1.5 1.5 0 0 1-1.5 1.5zM10 48.18a1.5 1.5 0 0 1-1.5-1.5 6.58 6.58 0 0 1 6.58-6.58 1.5 1.5 0 0 1 0 3 3.58 3.58 0 0 0-3.58 3.58 1.5 1.5 0 0 1-1.5 1.5z"/></symbol><symbol id="icon-theme_culture_lg" viewbox="0 0 140 140"><title>Culture_L</title><path class="cls-1" d="M130 131.5H10a1.5 1.5 0 0 1 0-3h120a1.5 1.5 0 0 1 0 3zM130 121.5H10a1.5 1.5 0 0 1 0-3h120a1.5 1.5 0 0 1 0 3zM119.52 61.5H21a1.5 1.5 0 1 1 0-3h98.47a1.5 1.5 0 0 1 0 3zM126.57 51.5H13.43a1.5 1.5 0 1 1 0-3h113.14a1.5 1.5 0 0 1 0 3z"/><path class="cls-1" d="M126.57 51.5a1.49 1.49 0 0 1-.86-.28l-56.57-40a1.5 1.5 0 1 1 1.73-2.45l56.57 40a1.5 1.5 0 0 1-.87 2.72z"/><path class="cls-1" d="M13.43 51.5a1.5 1.5 0 0 1-.87-2.72l56.57-40a1.5 1.5 0 1 1 1.73 2.45l-56.57 40a1.49 1.49 0 0 1-.86.27zM70 121.5a1.5 1.5 0 0 1-1.5-1.5V60a1.5 1.5 0 0 1 3 0v60a1.5 1.5 0 0 1-1.5 1.5zM52 121.5a1.5 1.5 0 0 1-1.5-1.5V60a1.5 1.5 0 0 1 3 0v60a1.5 1.5 0 0 1-1.5 1.5zM34 121.5a1.5 1.5 0 0 1-1.5-1.5V60a1.5 1.5 0 0 1 3 0v60a1.5 1.5 0 0 1-1.5 1.5zM88 121.5a1.5 1.5 0 0 1-1.5-1.5V60a1.5 1.5 0 0 1 3 0v60a1.5 1.5 0 0 1-1.5 1.5zM106 121.5a1.5 1.5 0 0 1-1.5-1.5V60a1.5 1.5 0 0 1 3 0v60a1.5 1.5 0 0 1-1.5 1.5zM130 131.5a1.5 1.5 0 0 1-1.5-1.5v-10a1.5 1.5 0 0 1 3 0v10a1.5 1.5 0 0 1-1.5 1.5zM10 131.5a1.5 1.5 0 0 1-1.5-1.5v-10a1.5 1.5 0 1 1 3 0v10a1.5 1.5 0 0 1-1.5 1.5zM121.57 79.93a8.06 8.06 0 0 1-8.05-8.05 6.75 6.75 0 0 1 6.74-6.74 5.7 5.7 0 0 1 5.74 5.69 1.5 1.5 0 0 1-3 0 2.7 2.7 0 0 0-2.69-2.69 3.75 3.75 0 0 0-3.74 3.74 5.06 5.06 0 0 0 5.05 5.05 6.7 6.7 0 0 0 6.69-6.69 8.75 8.75 0 0 0-8.74-8.74 1.5 1.5 0 0 1 0-3 11.75 11.75 0 0 1 11.74 11.74 9.7 9.7 0 0 1-9.74 9.69zM19 79.93a9.7 9.7 0 0 1-9.69-9.69A11.75 11.75 0 0 1 21 58.5a1.5 1.5 0 0 1 0 3 8.75 8.75 0 0 0-8.74 8.74A6.7 6.7 0 0 0 19 76.93a5.06 5.06 0 0 0 5.05-5.05 3.75 3.75 0 0 0-3.74-3.74 2.7 2.7 0 0 0-2.69 2.69 1.5 1.5 0 0 1-3 0 5.7 5.7 0 0 1 5.69-5.69 6.75 6.75 0 0 1 6.74 6.74A8.06 8.06 0 0 1 19 79.93z"/></symbol><symbol id="icon-theme_culture_o" viewbox="0 0 120 120"><title>Culture</title><path class="cls-1" d="M60 111.5A51.5 51.5 0 1 1 111.5 60 51.56 51.56 0 0 1 60 111.5zm0-100A48.5 48.5 0 1 0 108.5 60 48.55 48.55 0 0 0 60 11.5z"/><circle class="cls-2" cx="60" cy="60" r="51.5"/><path class="cls-1" d="M84.67 83.17H35.1a1.5 1.5 0 0 1 0-3h49.57a1.5 1.5 0 0 1 0 3zM80.77 59.5H39.23a1.5 1.5 0 0 1 0-3h41.54a1.5 1.5 0 0 1 0 3zM79.92 50.12H39.85a1.5 1.5 0 0 1 0-3h40.07a1.5 1.5 0 0 1 0 3z"/><path class="cls-1" d="M79.91 50.12a1.49 1.49 0 0 1-1-.35l-20-17a1.5 1.5 0 0 1 1.94-2.29l20 17a1.5 1.5 0 0 1-1 2.65z"/><path class="cls-1" d="M39.85 50.12a1.5 1.5 0 0 1-1-2.65l20-17a1.5 1.5 0 1 1 1.94 2.29l-20 17a1.49 1.49 0 0 1-.94.36zM59.88 83.17a1.5 1.5 0 0 1-1.5-1.5V58a1.5 1.5 0 0 1 3 0v23.67a1.5 1.5 0 0 1-1.5 1.5zM46.69 83.17a1.5 1.5 0 0 1-1.5-1.5V58a1.5 1.5 0 0 1 3 0v23.67a1.5 1.5 0 0 1-1.5 1.5zM73.07 83.17a1.5 1.5 0 0 1-1.5-1.5V58a1.5 1.5 0 0 1 3 0v23.67a1.5 1.5 0 0 1-1.5 1.5zM85 63.73a1.5 1.5 0 0 1-1.5-1.5 2.73 2.73 0 0 0-2.73-2.73 1.5 1.5 0 0 1 0-3 5.74 5.74 0 0 1 5.73 5.73 1.5 1.5 0 0 1-1.5 1.5zM35 63.73a1.5 1.5 0 0 1-1.5-1.5 5.74 5.74 0 0 1 5.73-5.73 1.5 1.5 0 0 1 0 3 2.73 2.73 0 0 0-2.73 2.73 1.5 1.5 0 0 1-1.5 1.5z"/></symbol><symbol id="icon-theme_divers" viewbox="0 0 80 80"><title>Divers_S</title><path class="cls-1" d="M40 59.9a9 9 0 0 1-9-9V40a1.5 1.5 0 0 1 3 0v10.9a6 6 0 0 0 12 0V40a1.5 1.5 0 0 1 3 0v10.9a9 9 0 0 1-9 9z"/><path class="cls-1" d="M40 53.65a1.5 1.5 0 0 1-1.5-1.5v-3.61a1.5 1.5 0 0 1 3 0v3.61a1.5 1.5 0 0 1-1.5 1.5zM70 29.5H10A1.5 1.5 0 0 1 8.5 28v-6A13.52 13.52 0 0 1 22 8.5h36A13.52 13.52 0 0 1 71.5 22v6a1.5 1.5 0 0 1-1.5 1.5zm-58.5-3h57V22A10.51 10.51 0 0 0 58 11.5H22A10.51 10.51 0 0 0 11.5 22z"/><path class="cls-1" d="M40 50a2.64 2.64 0 0 1-1.32-4.92A2.64 2.64 0 1 1 40 50zm-.32-2.46a.37.37 0 0 0 .22.17.37.37 0 0 0 .28 0 .36.36 0 0 0-.09-.67.37.37 0 0 0-.28 0 .36.36 0 0 0-.13.5zm0 0z"/><path class="cls-1" d="M70 71.5H10A1.5 1.5 0 0 1 8.5 70V40a1.5 1.5 0 0 1 1.5-1.5h60a1.5 1.5 0 0 1 1.5 1.5v30a1.5 1.5 0 0 1-1.5 1.5zm-58.5-3h57v-27h-57z"/><path class="cls-1" d="M10 41.5A1.5 1.5 0 0 1 8.87 39l10.4-12a1.5 1.5 0 0 1 2.27 2L11.13 41a1.5 1.5 0 0 1-1.13.5zM70 41.5a1.5 1.5 0 0 1-1.13-.5l-10.4-12a1.5 1.5 0 0 1 2.27-2l10.4 12A1.5 1.5 0 0 1 70 41.5z"/></symbol><symbol id="icon-theme_divers_lg" viewbox="0 0 140 140"><title>Divers_L</title><path class="cls-1" d="M120 121.5H20a1.5 1.5 0 0 1-1.5-1.5V70a1.5 1.5 0 0 1 1.5-1.5h35a1.5 1.5 0 0 1 0 3H21.5v47h97v-47H85a1.5 1.5 0 0 1 0-3h35a1.5 1.5 0 0 1 1.5 1.5v50a1.5 1.5 0 0 1-1.5 1.5z"/><path class="cls-1" d="M70 103.5A16.52 16.52 0 0 1 53.5 87V70a1.5 1.5 0 0 1 3 0v17a13.5 13.5 0 0 0 27 0V70a1.5 1.5 0 0 1 3 0v17A16.52 16.52 0 0 1 70 103.5z"/><path class="cls-1" d="M70 81.5a6.5 6.5 0 1 1 6.5-6.5 6.51 6.51 0 0 1-6.5 6.5zm0-10a3.5 3.5 0 1 0 3.5 3.5 3.5 3.5 0 0 0-3.5-3.5z"/><path class="cls-1" d="M70 91a1.5 1.5 0 0 1-1.5-1.5V80a1.5 1.5 0 0 1 3 0v9.5A1.5 1.5 0 0 1 70 91zM130 47.5H10A1.5 1.5 0 0 1 8.5 46V30A21.52 21.52 0 0 1 30 8.5h80A21.52 21.52 0 0 1 131.5 30v16a1.5 1.5 0 0 1-1.5 1.5zm-118.5-3h117V30A18.52 18.52 0 0 0 110 11.5H30A18.52 18.52 0 0 0 11.5 30zM120 106.18H20a1.5 1.5 0 0 1 0-3h100a1.5 1.5 0 0 1 0 3z"/><path class="cls-1" d="M120 37.5H20a1.5 1.5 0 0 1-1.5-1.5v-6.21A21.31 21.31 0 0 1 39.79 8.5h60.42a21.31 21.31 0 0 1 21.29 21.29V36a1.5 1.5 0 0 1-1.5 1.5zm-98.5-3h97v-4.71a18.31 18.31 0 0 0-18.29-18.29H39.79A18.31 18.31 0 0 0 21.5 29.79z"/><path class="cls-1" d="M118.73 24.33H21.27a1.5 1.5 0 0 1 0-3h97.46a1.5 1.5 0 0 1 0 3zM55 89H20a1.5 1.5 0 0 1 0-3h35a1.5 1.5 0 0 1 0 3zM120 89H85a1.5 1.5 0 0 1 0-3h35a1.5 1.5 0 0 1 0 3z"/><path class="cls-1" d="M130 131.5H10a1.5 1.5 0 0 1-1.5-1.5V60a1.5 1.5 0 0 1 1.5-1.5h120a1.5 1.5 0 0 1 1.5 1.5v70a1.5 1.5 0 0 1-1.5 1.5zm-118.5-3h117v-67h-117z"/><path class="cls-1" d="M10 61.5a1.5 1.5 0 0 1-1-2.63l16-14a1.5 1.5 0 1 1 2 2.26l-16 14a1.49 1.49 0 0 1-1 .37zM130 61.5a1.49 1.49 0 0 1-1-.37l-16-14a1.5 1.5 0 1 1 2-2.26l16 14a1.5 1.5 0 0 1-1 2.63z"/></symbol><symbol id="icon-theme_divers_o" viewbox="0 0 120 120"><title>Divers</title><path class="cls-1" d="M60 111.5A51.5 51.5 0 1 1 111.5 60 51.56 51.56 0 0 1 60 111.5zm0-100A48.5 48.5 0 1 0 108.5 60 48.55 48.55 0 0 0 60 11.5z"/><circle class="cls-2" cx="60" cy="60" r="51.5"/><path class="cls-1" d="M60 76.83a7.76 7.76 0 0 1-7.75-7.75V60a1.5 1.5 0 0 1 3 0v9.08a4.75 4.75 0 0 0 9.5 0V60a1.5 1.5 0 0 1 3 0v9.08A7.76 7.76 0 0 1 60 76.83z"/><path class="cls-1" d="M60 71.63a1.5 1.5 0 0 1-1.5-1.5v-3a1.5 1.5 0 0 1 3 0v3a1.5 1.5 0 0 1-1.5 1.5zM85 51.5H35a1.5 1.5 0 0 1-1.5-1.5v-5A11.51 11.51 0 0 1 45 33.5h30A11.51 11.51 0 0 1 86.5 45v5a1.5 1.5 0 0 1-1.5 1.5zm-48.5-3h47V45a8.51 8.51 0 0 0-8.5-8.5H45a8.51 8.51 0 0 0-8.5 8.5z"/><path class="cls-1" d="M60 68.62a2.46 2.46 0 0 1-.64-.08 2.43 2.43 0 1 1 .64.08zm0-3a.55.55 0 1 0 .14 0z"/><path class="cls-1" d="M85 86.5H35a1.5 1.5 0 0 1-1.5-1.5V60a1.5 1.5 0 0 1 1.5-1.5h50a1.5 1.5 0 0 1 1.5 1.5v25a1.5 1.5 0 0 1-1.5 1.5zm-48.5-3h47v-22h-47z"/><path class="cls-1" d="M35 61.5a1.5 1.5 0 0 1-1.13-2.5l8.67-10a1.5 1.5 0 0 1 2.27 2l-8.68 10a1.5 1.5 0 0 1-1.13.5zM85 61.5a1.5 1.5 0 0 1-1.13-.5L75.2 51a1.5 1.5 0 0 1 2.27-2l8.67 10A1.5 1.5 0 0 1 85 61.5z"/></symbol><symbol id="icon-theme_enpleinair" viewbox="0 0 80 80"><title>EnPleinAir_S</title><path class="cls-1" d="M46.39 25.74a1.5 1.5 0 0 1-.89-.29L40 21.4l-5.5 4.05a1.5 1.5 0 0 1-1.78 0l-6.39-4.71a1.5 1.5 0 0 1 1.78-2.42l5.5 4.05 5.5-4.05a1.5 1.5 0 0 1 1.78 0l5.5 4.05 5.5-4.05a1.5 1.5 0 0 1 1.78 2.42l-6.39 4.71a1.5 1.5 0 0 1-.89.29z"/><path class="cls-1" d="M10 33.9a1.5 1.5 0 0 1-.9-2.7l30-22.4a1.5 1.5 0 0 1 1.79 0l13.59 10.14a1.5 1.5 0 0 1-1.79 2.4L40 11.87 10.9 33.6a1.5 1.5 0 0 1-.9.3zM49.07 63.7a1.5 1.5 0 0 1-1.41-1l-8-21.8a1.5 1.5 0 0 1 2.82-1l8 21.8a1.5 1.5 0 0 1-1.41 2z"/><path class="cls-1" d="M49.07 71.5a9.3 9.3 0 1 1 9.3-9.3 9.31 9.31 0 0 1-9.3 9.3zm0-15.6a6.3 6.3 0 1 0 6.3 6.3 6.31 6.31 0 0 0-6.3-6.3zM17.8 71.5a9.3 9.3 0 1 1 9.3-9.3 9.31 9.31 0 0 1-9.3 9.3zm0-15.6a6.3 6.3 0 1 0 6.3 6.3 6.31 6.31 0 0 0-6.3-6.3z"/><path class="cls-1" d="M31.2 63.7H17.8a1.5 1.5 0 0 1 0-3h13.4a1.5 1.5 0 1 1 0 3z"/><path class="cls-1" d="M31.2 63.7a1.5 1.5 0 0 1-1.13-2.48l12.56-14.47a1.5 1.5 0 1 1 2.26 2L32.33 63.18a1.5 1.5 0 0 1-1.13.52zM27.11 53.35a1.5 1.5 0 0 1-1.38-.92l-3.22-7.64a1.5 1.5 0 1 1 2.76-1.16l3.22 7.64a1.5 1.5 0 0 1-1.38 2.08z"/><path class="cls-1" d="M40.19 53.35H27.11a1.5 1.5 0 0 1 0-3h13.08a1.5 1.5 0 0 1 0 3zM28.36 45.71h-8.94a1.5 1.5 0 1 1 0-3h8.94a1.5 1.5 0 1 1 0 3zM47.94 41.9h-6.87a1.5 1.5 0 0 1 0-3h6.87a1.5 1.5 0 0 1 0 3zM64.93 45.23a10.06 10.06 0 0 1-10.24-9.84 9.45 9.45 0 0 1 .31-2.56 9.69 9.69 0 0 1-4.41-8.08 10 10 0 0 1 9.77-9.83A10.18 10.18 0 0 1 70 8.5a1.5 1.5 0 0 1 0 3 7.13 7.13 0 0 0-7 5.29 1.5 1.5 0 0 1-1.56 1.14h-.52a7.06 7.06 0 0 0-7.24 6.84 6.79 6.79 0 0 0 3.9 6.06 1.5 1.5 0 0 1 .71 2 6.47 6.47 0 0 0-.55 2.63 7.06 7.06 0 0 0 7.24 6.84 7.47 7.47 0 0 0 4.23-1.29 1.5 1.5 0 0 1 1.69 2.48 10.46 10.46 0 0 1-5.97 1.74z"/><path class="cls-1" d="M63.81 71.5a1.5 1.5 0 0 1 0-3 4.69 4.69 0 0 0 4.69-4.69V42.18a1.5 1.5 0 0 1 3 0v21.63a7.7 7.7 0 0 1-7.69 7.69z"/></symbol><symbol id="icon-theme_enpleinair_lg" viewbox="0 0 140 140"><title>EnPleinAir_L</title><path class="cls-1" d="M97.64 29.92a1.49 1.49 0 0 1-.83-.25L69.17 11.25a1.5 1.5 0 1 1 1.66-2.5l27.64 18.43a1.5 1.5 0 0 1-.83 2.75z"/><path class="cls-1" d="M10 51.5a1.5 1.5 0 0 1-.83-2.75l60-40a1.5 1.5 0 1 1 1.66 2.5l-60 40a1.49 1.49 0 0 1-.83.25zM90.41 113.63a1.5 1.5 0 0 1-1.42-1L75.4 73.83a1.5 1.5 0 0 1 2.83-1l13.6 38.8a1.5 1.5 0 0 1-1.42 2z"/><path class="cls-1" d="M90.41 131.5a19.37 19.37 0 1 1 19.37-19.37 19.39 19.39 0 0 1-19.37 19.37zm0-35.74a16.37 16.37 0 1 0 16.37 16.37 16.39 16.39 0 0 0-16.37-16.37zM27.87 131.5a19.37 19.37 0 1 1 19.37-19.37 19.39 19.39 0 0 1-19.37 19.37zm0-35.74a16.37 16.37 0 1 0 16.37 16.37 16.39 16.39 0 0 0-16.37-16.37z"/><path class="cls-1" d="M54.67 113.63h-26.8a1.5 1.5 0 0 1 0-3h26.8a1.5 1.5 0 0 1 0 3z"/><path class="cls-1" d="M54.67 113.63a1.5 1.5 0 0 1-1.07-2.55l26.3-26.92a1.5 1.5 0 1 1 2.15 2.1l-26.3 26.92a1.5 1.5 0 0 1-1.08.45z"/><path class="cls-1" d="M54.67 113.63a1.5 1.5 0 0 1-1.41-1L41 79.06a1.5 1.5 0 0 1 2.82-1l12.22 33.58a1.5 1.5 0 0 1-1.41 2z"/><path class="cls-1" d="M48.89 97.73a1.5 1.5 0 0 1-.49-2.92l32.09-11a1.5 1.5 0 1 1 1 2.84l-32.09 11a1.5 1.5 0 0 1-.51.08zM27.87 113.63a1.5 1.5 0 0 1-1.23-2.36l17.64-25.19a1.5 1.5 0 0 1 2.46 1.72L29.1 113a1.5 1.5 0 0 1-1.23.63zM51.39 80H33.52a1.5 1.5 0 0 1 0-3h17.87a1.5 1.5 0 1 1 0 3zM85.75 83.77a1.5 1.5 0 0 1 0-3 3 3 0 0 0 0-5.93h-8.94a1.5 1.5 0 0 1 0-3h8.94a6 6 0 0 1 0 11.93zM81 33.67a1.5 1.5 0 0 1-.84-.26L70 26.5l-10.16 6.91a1.5 1.5 0 0 1-1.69 0l-11-7.48a1.5 1.5 0 1 1 1.69-2.48L59 30.35l10.16-6.91a1.5 1.5 0 0 1 1.69 0L81 30.35l10.16-6.91a1.5 1.5 0 1 1 1.69 2.48l-11 7.48a1.5 1.5 0 0 1-.85.27zM118.87 85.58c-11.42 0-20.71-8.89-20.71-19.82a19 19 0 0 1 1.11-6.4 19.58 19.58 0 0 1-10-17c0-10.93 9.29-19.82 20.71-19.82h.24A20.51 20.51 0 0 1 130 8.5a1.5 1.5 0 0 1 0 3 17.45 17.45 0 0 0-17.23 13 1.5 1.5 0 0 1-1.56 1.14h-1.28c-9.76 0-17.71 7.55-17.71 16.82a16.69 16.69 0 0 0 9.57 14.93 1.5 1.5 0 0 1 .71 2 16 16 0 0 0-1.37 6.49c0 9.27 7.94 16.82 17.71 16.82a18.21 18.21 0 0 0 10.29-3.15 1.5 1.5 0 0 1 1.69 2.48 21.19 21.19 0 0 1-11.95 3.55z"/><path class="cls-1" d="M122 131.5a1.5 1.5 0 0 1 0-3 6.46 6.46 0 0 0 6.5-6.5V80.67a1.5 1.5 0 0 1 3 0V122a9.46 9.46 0 0 1-9.5 9.5z"/></symbol><symbol id="icon-theme_enpleinair_o" viewbox="0 0 120 120"><title>EnPleinAir</title><path class="cls-1" d="M60 111.5A51.5 51.5 0 1 1 111.5 60 51.56 51.56 0 0 1 60 111.5zm0-100A48.5 48.5 0 1 0 108.5 60 48.55 48.55 0 0 0 60 11.5z"/><circle class="cls-2" cx="60" cy="60" r="51.5"/><path class="cls-1" d="M65.32 48.37a1.5 1.5 0 0 1-.89-.29L60 44.81l-4.43 3.27a1.5 1.5 0 0 1-1.78 0l-5.32-3.92a1.5 1.5 0 1 1 1.78-2.42L54.68 45l4.43-3.27a1.5 1.5 0 0 1 1.78 0L65.32 45l4.43-3.27a1.5 1.5 0 1 1 1.78 2.42l-5.32 3.92a1.5 1.5 0 0 1-.89.3z"/><path class="cls-1" d="M35 55.17a1.5 1.5 0 0 1-.9-2.7l25-18.67a1.5 1.5 0 0 1 1.79 0l11.32 8.45a1.5 1.5 0 0 1-1.79 2.4L60 36.87l-24.1 18a1.5 1.5 0 0 1-.9.3zM67.56 80a1.5 1.5 0 0 1-1.41-1l-6.67-18.15a1.5 1.5 0 1 1 2.82-1L69 78a1.5 1.5 0 0 1-1.41 2z"/><path class="cls-1" d="M67.56 86.5a8 8 0 1 1 8-8 8 8 0 0 1-8 8zm0-13a5 5 0 1 0 5 5 5 5 0 0 0-5-5zM41.5 86.5a8 8 0 1 1 8-8 8 8 0 0 1-8 8zm0-13a5 5 0 1 0 5 5 5 5 0 0 0-5-5z"/><path class="cls-1" d="M52.67 80H41.5a1.5 1.5 0 0 1 0-3h11.17a1.5 1.5 0 1 1 0 3z"/><path class="cls-1" d="M52.67 80a1.5 1.5 0 0 1-1.13-2.48L62 65.46a1.5 1.5 0 0 1 2.26 2L53.8 79.48a1.5 1.5 0 0 1-1.13.52zM49.26 71.38a1.5 1.5 0 0 1-1.38-.92l-2.68-6.37a1.5 1.5 0 1 1 2.8-1.17l2.68 6.37a1.5 1.5 0 0 1-1.38 2.08z"/><path class="cls-1" d="M60.16 71.38h-10.9a1.5 1.5 0 0 1 0-3h10.9a1.5 1.5 0 0 1 0 3zM50.3 65h-7.45a1.5 1.5 0 0 1 0-3h7.45a1.5 1.5 0 0 1 0 3zM66.62 61.83h-5.73a1.5 1.5 0 0 1 0-3h5.72a1.5 1.5 0 0 1 0 3zM80.78 64.61A8.63 8.63 0 0 1 72 56.16a8.14 8.14 0 0 1 .25-2 8.32 8.32 0 0 1-3.63-6.84 8.61 8.61 0 0 1 8.22-8.43A8.75 8.75 0 0 1 85 33.5a1.5 1.5 0 0 1 0 3 5.69 5.69 0 0 0-5.63 4.22 1.49 1.49 0 0 1-1.56 1.14h-.42a5.63 5.63 0 0 0-5.79 5.45 5.41 5.41 0 0 0 3.11 4.83 1.5 1.5 0 0 1 .71 2 5.13 5.13 0 0 0-.42 2.02 5.63 5.63 0 0 0 5.79 5.45 6 6 0 0 0 3.38-1 1.5 1.5 0 1 1 1.69 2.48 9 9 0 0 1-5.08 1.52z"/><path class="cls-1" d="M79.84 86.5a1.5 1.5 0 0 1 0-3 3.66 3.66 0 0 0 3.66-3.66v-18a1.5 1.5 0 1 1 3 0v18a6.67 6.67 0 0 1-6.66 6.66z"/></symbol><symbol id="icon-theme_entraide" viewbox="0 0 80 80"><title>Entraide_S</title><path class="cls-1" d="M36.59 71.5a6.53 6.53 0 0 1-6.37-5.16 6.54 6.54 0 0 1-5-5 6.54 6.54 0 0 1-5-5 6.52 6.52 0 1 1 7.73-7.73 6.54 6.54 0 0 1 5 5 6.54 6.54 0 0 1 5 5 6.52 6.52 0 0 1-1.36 12.89zM21.54 46.41a3.52 3.52 0 0 0 0 7 1.5 1.5 0 0 1 1.5 1.5 3.52 3.52 0 0 0 3.52 3.52 1.5 1.5 0 0 1 1.5 1.5 3.52 3.52 0 0 0 3.52 3.52 1.5 1.5 0 0 1 1.5 1.5 3.52 3.52 0 1 0 3.52-3.52 1.5 1.5 0 0 1-1.5-1.5 3.52 3.52 0 0 0-3.52-3.52 1.5 1.5 0 0 1-1.5-1.5 3.52 3.52 0 0 0-3.52-3.52 1.5 1.5 0 0 1-1.5-1.5 3.52 3.52 0 0 0-3.52-3.48zM38.09 60zM62.21 48.16a1.5 1.5 0 0 1-1.06-2.56l.61-.61a4.69 4.69 0 0 0 0-6.63 1.5 1.5 0 0 1 0-2.12l7.17-7.17a1.5 1.5 0 0 1 2.12 2.12l-6.21 6.21a7.69 7.69 0 0 1-1 9.71l-.61.61a1.5 1.5 0 0 1-1.02.44z"/><path class="cls-1" d="M43.41 71.5A6.49 6.49 0 0 1 39 69.76a1.5 1.5 0 0 1 2-2.2A3.52 3.52 0 0 0 46.92 65a1.5 1.5 0 0 1 1.5-1.5 3.52 3.52 0 0 0 3.52-3.5 1.5 1.5 0 0 1 1.5-1.5A3.52 3.52 0 0 0 57 54.95a1.5 1.5 0 0 1 1.5-1.5 3.52 3.52 0 0 0 3.5-3.52 3.48 3.48 0 0 0-1.12-2.57l-11.5-11.5-7.75 7.74a7.28 7.28 0 1 1-10.29-10.29l8.89-8.89a7.26 7.26 0 0 1 9.08-1L63.69 9.09a1.5 1.5 0 0 1 2.12 2.12L50.48 26.54a1.5 1.5 0 0 1-2.12 0 4.25 4.25 0 0 0-6 0l-8.89 8.89a4.28 4.28 0 1 0 6 6l8.79-8.8a1.54 1.54 0 0 1 2.12 0L62.94 45.2a6.52 6.52 0 0 1-3.13 11.1 6.54 6.54 0 0 1-5 5 6.54 6.54 0 0 1-5 5 6.53 6.53 0 0 1-6.4 5.2zM17.76 48.13a1.5 1.5 0 0 1-1.06-.44l-.58-.58a7.69 7.69 0 0 1-1-9.71l-6.18-6.21a1.5 1.5 0 1 1 2.12-2.12l7.17 7.17a1.5 1.5 0 0 1 0 2.12 4.69 4.69 0 0 0 0 6.63l.58.58a1.5 1.5 0 0 1-1.06 2.56z"/><path class="cls-1" d="M40 28.27a1.5 1.5 0 0 1-1.06-.44l-1.29-1.29a4.26 4.26 0 0 0-6 0 1.5 1.5 0 0 1-2.12 0L14 11.06a1.5 1.5 0 0 1 2.12-2.12l14.57 14.53a7.26 7.26 0 0 1 9.08 1l1.29 1.29A1.5 1.5 0 0 1 40 28.27z"/></symbol><symbol id="icon-theme_entraide_lg" viewbox="0 0 140 140"><title>Entraide_L</title><path class="cls-1" d="M62.12 131.51a9.15 9.15 0 1 1 6.47-2.68 9.12 9.12 0 0 1-6.47 2.68zm0-15.3a6.13 6.13 0 0 0-4.35 1.8 6.16 6.16 0 1 0 4.35-1.8zm-5.41.74z"/><path class="cls-1" d="M51.3 120.68a9.15 9.15 0 1 1 6.47-2.68 9.12 9.12 0 0 1-6.47 2.68zm0-15.3a6.13 6.13 0 0 0-4.35 1.8 6.16 6.16 0 1 0 4.35-1.8zm-5.41.74z"/><path class="cls-1" d="M40.48 109.86a9.15 9.15 0 1 1 6.47-2.68 9.12 9.12 0 0 1-6.47 2.68zm0-15.3a6.15 6.15 0 1 0 4.35 1.8 6.13 6.13 0 0 0-4.35-1.79z"/><path class="cls-1" d="M29.65 99a9.15 9.15 0 0 1-6.47-15.62A9.15 9.15 0 1 1 29.65 99zM25.3 85.54a6.15 6.15 0 1 0 8.7 0 6.16 6.16 0 0 0-8.7 0zM114.43 84.83a1.5 1.5 0 0 1-1.06-2.56l1.22-1.27a10.87 10.87 0 0 0 0-15.38 1.5 1.5 0 0 1 0-2.12l14.35-14.35a1.5 1.5 0 0 1 2.12 2.12l-13.34 13.39a13.88 13.88 0 0 1-1 18.51l-1.23 1.23a1.5 1.5 0 0 1-1.06.43z"/><path class="cls-1" d="M76.81 131.49a11.5 11.5 0 0 1-7.81-3.08 1.5 1.5 0 0 1 2-2.2A8.54 8.54 0 0 0 85.35 120a1.5 1.5 0 0 1 1.5-1.5 8.54 8.54 0 0 0 8.54-8.53 1.5 1.5 0 0 1 1.5-1.5 8.54 8.54 0 0 0 8.54-8.53 1.5 1.5 0 0 1 1.5-1.5 8.54 8.54 0 0 0 8.54-8.53 8.46 8.46 0 0 0-2.71-6.24l-27-27-18 18a10.93 10.93 0 1 1-15.52-15.49L71.51 39.9a13 13 0 0 1 17.26-1l29.66-29.66a1.5 1.5 0 1 1 2.12 2.12L89.89 42a1.5 1.5 0 0 1-2.12 0 10 10 0 0 0-14.14 0L54.36 61.3a7.93 7.93 0 0 0 11.22 11.21l19.09-19.09a1.5 1.5 0 0 1 2.12 0l28 28a11.53 11.53 0 0 1-6.49 19.84 11.56 11.56 0 0 1-10 10 11.56 11.56 0 0 1-10 10 11.55 11.55 0 0 1-11.49 10.23zM25.64 84.88a1.49 1.49 0 0 1-1.06-.44l-1.29-1.28a13.88 13.88 0 0 1-1-18.51L8.94 51.31a1.5 1.5 0 1 1 2.12-2.12l14.35 14.35a1.5 1.5 0 0 1 0 2.12 10.87 10.87 0 0 0 0 15.38l1.28 1.28a1.5 1.5 0 0 1-1.06 2.56z"/><path class="cls-1" d="M70 45a1.5 1.5 0 0 1-1.06-.44L66.36 42a10 10 0 0 0-14.14 0 1.5 1.5 0 0 1-2.12 0l-31-31a1.5 1.5 0 0 1 2.12-2.12l30 30a13 13 0 0 1 17.26 1l2.58 2.57A1.5 1.5 0 0 1 70 45z"/></symbol><symbol id="icon-theme_entraide_o" viewbox="0 0 120 120"><title>Entraide</title><path class="cls-1" d="M60 111.5A51.5 51.5 0 1 1 111.5 60 51.56 51.56 0 0 1 60 111.5zm0-100A48.5 48.5 0 1 0 108.5 60 48.55 48.55 0 0 0 60 11.5z"/><circle class="cls-2" cx="60" cy="60" r="51.5"/><path class="cls-1" d="M57.16 86.5a5.69 5.69 0 0 1-5.52-4.34A5.7 5.7 0 0 1 47.46 78a5.7 5.7 0 0 1-4.18-4.18 5.68 5.68 0 1 1 6.86-6.86 5.7 5.7 0 0 1 4.18 4.18 5.7 5.7 0 0 1 4.18 4.16 5.68 5.68 0 0 1-1.34 11.2zM44.62 65.59a2.68 2.68 0 1 0 0 5.36 1.5 1.5 0 0 1 1.5 1.5 2.68 2.68 0 0 0 2.68 2.68 1.5 1.5 0 0 1 1.5 1.5 2.68 2.68 0 0 0 2.7 2.69 1.5 1.5 0 0 1 1.5 1.5 2.68 2.68 0 1 0 2.68-2.68 1.5 1.5 0 0 1-1.5-1.5A2.68 2.68 0 0 0 53 74a1.5 1.5 0 0 1-1.5-1.5 2.68 2.68 0 0 0-2.68-2.68 1.5 1.5 0 0 1-1.5-1.5 2.68 2.68 0 0 0-2.7-2.73zm14 11zM78.51 67.05a1.5 1.5 0 0 1-1.06-2.56L78 64a3.66 3.66 0 0 0 0-5.17 1.5 1.5 0 0 1 0-2.12l6-6a1.5 1.5 0 0 1 2.12 2.12l-5 5a6.66 6.66 0 0 1-.94 8.23l-.51.51a1.5 1.5 0 0 1-1.16.48z"/><path class="cls-1" d="M62.84 86.5A5.66 5.66 0 0 1 59 85a1.5 1.5 0 1 1 2-2.2 2.68 2.68 0 0 0 4.5-2 1.5 1.5 0 0 1 1.5-1.5 2.68 2.68 0 0 0 2.68-2.68 1.5 1.5 0 0 1 1.5-1.5 2.68 2.68 0 0 0 2.68-2.68 1.5 1.5 0 0 1 1.5-1.5 2.68 2.68 0 0 0 1.83-4.64l-9.39-9.39-6.27 6.27a6.31 6.31 0 1 1-8.93-8.93l7.4-7.41a6.3 6.3 0 0 1 7.71-.93l11.85-11.85a1.5 1.5 0 0 1 2.12 2.12L68.91 49a1.5 1.5 0 0 1-1.06.44 1.5 1.5 0 0 1-1.06-.44 3.37 3.37 0 0 0-4.65 0l-7.41 7.41a3.31 3.31 0 1 0 4.69 4.69l7.33-7.33a1.54 1.54 0 0 1 2.12 0L79.3 64.16a5.68 5.68 0 0 1-2.57 9.64 5.7 5.7 0 0 1-4.19 4.2 5.7 5.7 0 0 1-4.18 4.18 5.69 5.69 0 0 1-5.52 4.32zM41.46 67a1.5 1.5 0 0 1-1.06-.44l-.49-.49a6.66 6.66 0 0 1-.91-8.2l-5-5a1.5 1.5 0 0 1 2.12-2.12l6 6a1.5 1.5 0 0 1 0 2.12A3.66 3.66 0 0 0 42 64l.49.49A1.5 1.5 0 0 1 41.46 67z"/><path class="cls-1" d="M60 50.47a1.5 1.5 0 0 1-1.06-.47l-1.07-1a3.37 3.37 0 0 0-4.65 0 1.54 1.54 0 0 1-2.12 0L38.2 36.1a1.5 1.5 0 0 1 2.12-2.12l12 12a6.3 6.3 0 0 1 7.71.93l1.07 1.07a1.5 1.5 0 0 1-1.1 2.49z"/></symbol><symbol id="icon-theme_informatique" viewbox="0 0 80 80"><title>Informatique_S</title><path class="cls-1" d="M60 71.5A11.51 11.51 0 0 1 48.5 60V40a11.5 11.5 0 0 1 23 0v20A11.51 11.51 0 0 1 60 71.5zm0-40a8.51 8.51 0 0 0-8.5 8.5v20a8.5 8.5 0 0 0 17 0V40a8.51 8.51 0 0 0-8.5-8.5z"/><path class="cls-1" d="M70 47.65H50a1.5 1.5 0 0 1 0-3h20a1.5 1.5 0 0 1 0 3z"/><path class="cls-1" d="M21.25 51.5A12.77 12.77 0 0 1 8.5 38.75V22.5a1.5 1.5 0 0 1 3 0v16.25a9.75 9.75 0 0 0 19.5 0v-15a15.25 15.25 0 1 1 30.5 0v22.4a1.5 1.5 0 0 1-3 0v-22.4a12.25 12.25 0 0 0-24.5 0v15A12.77 12.77 0 0 1 21.25 51.5zM10 16.3a1.5 1.5 0 0 1-1.5-1.5V10a1.5 1.5 0 0 1 3 0v4.8a1.5 1.5 0 0 1-1.5 1.5z"/></symbol><symbol id="icon-theme_informatique_lg" viewbox="0 0 140 140"><title>Informatique_L</title><path class="cls-1" d="M110 131.5A21.52 21.52 0 0 1 88.5 110V70a21.5 21.5 0 0 1 43 0v40a21.52 21.52 0 0 1-21.5 21.5zm0-80A18.52 18.52 0 0 0 91.5 70v40a18.5 18.5 0 0 0 37 0V70A18.52 18.52 0 0 0 110 51.5z"/><path class="cls-1" d="M110 81.5a1.5 1.5 0 0 1-1.5-1.5V37.5a1.5 1.5 0 0 1 3 0V80a1.5 1.5 0 0 1-1.5 1.5z"/><path class="cls-1" d="M130 81.5H90a1.5 1.5 0 0 1 0-3h40a1.5 1.5 0 0 1 0 3zM20 51.5H10A1.5 1.5 0 0 1 8.5 50V35a1.5 1.5 0 0 1 1.5-1.5h10a1.5 1.5 0 0 1 1.5 1.5v15a1.5 1.5 0 0 1-1.5 1.5zm-8.5-3h7v-12h-7z"/><path class="cls-1" d="M18 36.5h-6a1.5 1.5 0 0 1-1.5-1.5v-6a1.5 1.5 0 0 1 1.5-1.5h6a1.5 1.5 0 0 1 1.5 1.5v6a1.5 1.5 0 0 1-1.5 1.5zm-4.5-3h3v-3h-3zM35 91.5A21.52 21.52 0 0 1 13.5 70V50a1.5 1.5 0 0 1 3 0v20a18.5 18.5 0 0 0 37 0V37.5a1.5 1.5 0 0 1 3 0V70A21.52 21.52 0 0 1 35 91.5z"/><path class="cls-1" d="M110 39a1.5 1.5 0 0 1-1.5-1.5 26 26 0 0 0-52 0 1.5 1.5 0 0 1-3 0 29 29 0 0 1 58 0A1.5 1.5 0 0 1 110 39z"/></symbol><symbol id="icon-theme_informatique_o" viewbox="0 0 120 120"><title>Informatique</title><path class="cls-1" d="M60 111.5A51.5 51.5 0 1 1 111.5 60 51.56 51.56 0 0 1 60 111.5zm0-100A48.5 48.5 0 1 0 108.5 60 48.55 48.55 0 0 0 60 11.5z"/><circle class="cls-2" cx="60" cy="60" r="51.5"/><path class="cls-1" d="M76.67 86.5a9.84 9.84 0 0 1-9.83-9.83V60a9.83 9.83 0 1 1 19.66 0v16.67a9.84 9.84 0 0 1-9.83 9.83zm0-33.33A6.84 6.84 0 0 0 69.83 60v16.67a6.83 6.83 0 1 0 13.67 0V60a6.84 6.84 0 0 0-6.83-6.83z"/><path class="cls-1" d="M85 66.63H68.33a1.5 1.5 0 0 1 0-3H85a1.5 1.5 0 0 1 0 3z"/><path class="cls-1" d="M44.38 69.83A10.89 10.89 0 0 1 33.5 59V45.42a1.5 1.5 0 0 1 3 0V59a7.88 7.88 0 1 0 15.75 0V46.46a13 13 0 1 1 25.92 0v18.67a1.5 1.5 0 0 1-3 0V46.46a10 10 0 1 0-19.92 0V59a10.89 10.89 0 0 1-10.87 10.83zM35 40.5a1.5 1.5 0 0 1-1.5-1.5v-4a1.5 1.5 0 0 1 3 0v4a1.5 1.5 0 0 1-1.5 1.5z"/></symbol><symbol id="icon-theme_intergenerationnel" viewbox="0 0 80 80"><title>Intergenerationnel_S</title><path class="cls-1" d="M59.45 66.5a1.5 1.5 0 0 1-.39-.05L14.61 54.54a1.5 1.5 0 1 1 .78-2.9l44.45 11.91a1.5 1.5 0 0 1-.39 2.95z"/><path class="cls-1" d="M59.45 66.5A1.5 1.5 0 0 1 58 64.61a13.84 13.84 0 1 0-26.73-7.16 1.5 1.5 0 0 1-2.9-.78 16.84 16.84 0 0 1 32.53 8.72 1.5 1.5 0 0 1-1.45 1.11z"/><path class="cls-1" d="M48.6 47.71a1.5 1.5 0 0 1-1.45-1.89l1.45-5.39a1.5 1.5 0 0 1 2.9.78l-1.45 5.39a1.5 1.5 0 0 1-1.45 1.11z"/><path class="cls-1" d="M53.78 43.86a2.52 2.52 0 0 1-.65-.09 14.21 14.21 0 0 1-3.48-1.44 14.19 14.19 0 0 1-3.74-.49 2.13 2.13 0 0 1-1.64-2.56 2 2 0 0 1 .92-1.19 2.36 2.36 0 0 1 1.81-.21 14.23 14.23 0 0 1 3.48 1.44 14.06 14.06 0 0 1 3.74.49 2.13 2.13 0 0 1 1.64 2.56 2.06 2.06 0 0 1-2.08 1.49zm-7.09-4.92zM21.79 39.15a1.5 1.5 0 0 1-.39-2.95l43.21-11.58a1.5 1.5 0 1 1 .78 2.9L22.18 39.1a1.5 1.5 0 0 1-.39.05z"/><path class="cls-1" d="M27 37.74h-.13a1.5 1.5 0 0 1-1.36-1.62l1.05-12a7.56 7.56 0 0 1 8.18-6.86l4.8.42 4-2.77A7.56 7.56 0 0 1 54 16.71l7 9.91a1.5 1.5 0 1 1-2.46 1.72l-6.94-9.91a4.55 4.55 0 0 0-6.33-1.12l-4.4 3.08a1.48 1.48 0 0 1-1 .27l-5.35-.47a4.56 4.56 0 0 0-4.93 4.13l-1.05 12A1.5 1.5 0 0 1 27 37.74z"/><path class="cls-1" d="M25.38 31.63A11.66 11.66 0 0 1 13.74 20a1.5 1.5 0 0 1 1.5-1.5 14.09 14.09 0 0 1 13.83 11.05 1.5 1.5 0 0 1-1.14 1.79 11.7 11.7 0 0 1-2.55.29zm-8.49-10a8.6 8.6 0 0 0 8.77 7 11.08 11.08 0 0 0-8.77-7.02z"/></symbol><symbol id="icon-theme_intergenerationnel_lg" viewbox="0 0 140 140"><title>Intergenerationnel_L</title><path class="cls-1" d="M119.82 131.5a1.5 1.5 0 0 1-.39-.05l-84.1-22.54a1.5 1.5 0 1 1 .78-2.9l84.1 22.54a1.5 1.5 0 0 1-.39 2.95z"/><path class="cls-1" d="M119.82 131.5a1.5 1.5 0 0 1-1.45-1.89 27.52 27.52 0 1 0-53.17-14.25 1.5 1.5 0 0 1-2.9-.78 30.52 30.52 0 1 1 59 15.8 1.5 1.5 0 0 1-1.48 1.12z"/><path class="cls-1" d="M99.3 96a1.5 1.5 0 0 1-1.45-1.89l2.5-9.35a1.5 1.5 0 0 1 2.9.78l-2.5 9.35A1.5 1.5 0 0 1 99.3 96z"/><path class="cls-1" d="M110.48 129a1.5 1.5 0 0 1-1.45-1.89c3.93-14.66-.61-28.66-10.12-31.21-4.49-1.2-9.48.34-14 4.35-4.73 4.16-8.4 10.41-10.33 17.62a1.5 1.5 0 0 1-2.9-.78c2.08-7.77 6.08-14.55 11.25-19.1 5.34-4.69 11.3-6.46 16.79-5 11.1 3 16.59 18.62 12.24 34.88a1.5 1.5 0 0 1-1.48 1.13z"/><path class="cls-1" d="M101.13 126.49a1.5 1.5 0 0 1-1.45-1.89c4.41-16.47 2.53-27.82-.77-28.7s-10.61 8-15 24.47a1.5 1.5 0 0 1-2.9-.78C84.82 105.3 92.68 91.13 99.69 93s6.72 18.08 2.89 32.38a1.5 1.5 0 0 1-1.45 1.11zM125.16 97.71a6.33 6.33 0 0 1-1.64-.22 63.75 63.75 0 0 1-22.14-10.82A63.78 63.78 0 0 1 76.8 85a6.34 6.34 0 0 1 3.28-12.24 63.75 63.75 0 0 1 22.14 10.82 63.75 63.75 0 0 1 24.58 1.7 6.34 6.34 0 0 1-1.64 12.46zm-19.28-11.5a60.83 60.83 0 0 0 18.42 8.39 3.34 3.34 0 0 0 1.7-6.45 60.84 60.84 0 0 0-20.12-1.94zm-28.3-4.13A60.83 60.83 0 0 0 97.72 84a60.83 60.83 0 0 0-18.42-8.37 3.34 3.34 0 0 0-1.73 6.45zM45.37 47.1a1.5 1.5 0 0 1-.37-2.95l68.29-18.3a1.5 1.5 0 1 1 .78 2.9L45.76 47a1.5 1.5 0 0 1-.39.1zM36.55 64.49a1.5 1.5 0 0 1-.39-2.95l93.45-25a1.5 1.5 0 1 1 .78 2.9l-93.45 25a1.5 1.5 0 0 1-.39.05z"/><path class="cls-1" d="M44 62.48h-.1a1.5 1.5 0 0 1-1.36-1.62l2.53-28.91a16 16 0 0 1 17.34-14.57l12.29 1.08 10.11-7.08a16 16 0 0 1 22.3 3.93l16.65 23.78a1.5 1.5 0 0 1-2.46 1.72L104.65 17a13 13 0 0 0-18.12-3.19L76 21.23a1.48 1.48 0 0 1-1 .27l-12.85-1.13a13 13 0 0 0-14.1 11.83l-2.53 28.91A1.5 1.5 0 0 1 44 62.48z"/><path class="cls-1" d="M39 47.82A30.56 30.56 0 0 1 8.5 17.29a1.5 1.5 0 0 1 1.5-1.5 37.55 37.55 0 0 1 36.84 29.48 1.5 1.5 0 0 1-1.14 1.79 30.68 30.68 0 0 1-6.7.76zm-27.48-29a27.56 27.56 0 0 0 27.48 26 27.08 27.08 0 0 0 4.51-.39 34.53 34.53 0 0 0-31.97-25.6z"/><path class="cls-1" d="M29.43 46.16A1.5 1.5 0 0 1 28 44.09a15.94 15.94 0 0 1 13.38-9.88 1.5 1.5 0 0 1 .27 3 13 13 0 0 0-10.87 8 1.5 1.5 0 0 1-1.35.95zM21.77 42.09h-.28a1.5 1.5 0 0 1-1.19-1.75A16 16 0 0 1 36 27.3h.5a1.5 1.5 0 0 1-.09 3H36a13 13 0 0 0-12.76 10.57 1.5 1.5 0 0 1-1.47 1.22zM15 35a1.5 1.5 0 0 1-1.47-1.8 16.1 16.1 0 0 1 14.25-12.7 1.5 1.5 0 0 1 .27 3 13.08 13.08 0 0 0-11.62 10.33A1.5 1.5 0 0 1 15 35z"/></symbol><symbol id="icon-theme_intergenerationnel_o" viewbox="0 0 120 120"><title>Intergenerationnel</title><path class="cls-1" d="M60 111.5A51.5 51.5 0 1 1 111.5 60 51.56 51.56 0 0 1 60 111.5zm0-100A48.5 48.5 0 1 0 108.5 60 48.55 48.55 0 0 0 60 11.5z"/><circle class="cls-2" cx="60" cy="60" r="51.5"/><path class="cls-1" d="M79.45 86.5a1.5 1.5 0 0 1-.39-.05L34.61 74.54a1.5 1.5 0 1 1 .78-2.9l44.45 11.91a1.5 1.5 0 0 1-.39 2.95z"/><path class="cls-1" d="M79.45 86.5A1.5 1.5 0 0 1 78 84.61a13.84 13.84 0 1 0-26.73-7.16 1.5 1.5 0 0 1-2.9-.78 16.84 16.84 0 0 1 32.53 8.72 1.5 1.5 0 0 1-1.45 1.11z"/><path class="cls-1" d="M68.6 67.71a1.5 1.5 0 0 1-1.45-1.89l1.45-5.39a1.5 1.5 0 0 1 2.9.78l-1.45 5.39a1.5 1.5 0 0 1-1.45 1.11z"/><path class="cls-1" d="M73.78 63.86a2.52 2.52 0 0 1-.65-.09 14.21 14.21 0 0 1-3.48-1.44 15.28 15.28 0 0 1-3.74-.49 2.13 2.13 0 0 1-1.64-2.56 2 2 0 0 1 .92-1.19 2.36 2.36 0 0 1 1.81-.21 14.23 14.23 0 0 1 3.48 1.44 14.58 14.58 0 0 1 3.74.49 2.13 2.13 0 0 1 1.64 2.56 2.06 2.06 0 0 1-2.08 1.49zm-7.09-4.92zM41.79 59.15a1.5 1.5 0 0 1-.39-2.95l43.21-11.58a1.5 1.5 0 1 1 .78 2.9L42.18 59.1a1.5 1.5 0 0 1-.39.05z"/><path class="cls-1" d="M47 57.74h-.13a1.5 1.5 0 0 1-1.36-1.62l1.05-12a7.56 7.56 0 0 1 8.18-6.86l4.8.42 4-2.77A7.56 7.56 0 0 1 74 36.71l7 9.91a1.5 1.5 0 1 1-2.46 1.72l-6.94-9.91a4.55 4.55 0 0 0-6.33-1.12l-4.4 3.08a1.49 1.49 0 0 1-1 .27l-5.35-.47a4.56 4.56 0 0 0-4.93 4.13l-1.05 12A1.5 1.5 0 0 1 47 57.74z"/><path class="cls-1" d="M45.38 51.63A11.66 11.66 0 0 1 33.74 40a1.5 1.5 0 0 1 1.5-1.5 14.09 14.09 0 0 1 13.83 11.05 1.5 1.5 0 0 1-1.14 1.79 11.7 11.7 0 0 1-2.55.29zm-8.49-10a8.6 8.6 0 0 0 8.77 7 11.08 11.08 0 0 0-8.77-7.02z"/></symbol><symbol id="icon-theme_jeuxetloisirs" viewbox="0 0 80 80"><title>JeuxEtLoisirs_S</title><path class="cls-1" d="M52.44 71.5a3.56 3.56 0 0 1-2.54-1L34.42 55a3.58 3.58 0 0 1 0-5.07L49.9 34.42a3.67 3.67 0 0 1 5.07 0L70.45 49.9a3.59 3.59 0 0 1 0 5.07L55 70.45a3.56 3.56 0 0 1-2.56 1.05zM52 68.33a.59.59 0 0 0 .83 0l15.5-15.48a.59.59 0 0 0 0-.83L52.85 36.55a.59.59 0 0 0-.83 0L36.55 52a.58.58 0 0 0 0 .83z"/><path class="cls-1" d="M52.44 55.07a2.64 2.64 0 0 1-1.86-4.5 2.7 2.7 0 0 1 3.73 0 2.64 2.64 0 0 1 0 3.73 2.62 2.62 0 0 1-1.87.77zm-.26-2.89a.36.36 0 0 0 0 .51.38.38 0 0 0 .51 0 .36.36 0 0 0 0-.51.38.38 0 0 0-.51 0zM52.44 47a2.64 2.64 0 0 1-1.86-4.5 2.7 2.7 0 0 1 3.73 0 2.64 2.64 0 0 1 0 3.73 2.62 2.62 0 0 1-1.87.77zm-.26-2.89a.36.36 0 0 0 0 .51.38.38 0 0 0 .51 0 .36.36 0 0 0 0-.51.38.38 0 0 0-.51.03zM60.48 55.07a2.64 2.64 0 1 1 1.87-.77 2.63 2.63 0 0 1-1.87.77zm.8-1.83zm-1.06-1.06a.36.36 0 0 0 .51.51zm.26-.11a.36.36 0 0 0-.26.11l.51.51a.36.36 0 0 0 0-.51.36.36 0 0 0-.25-.11zM44.4 55.07a2.64 2.64 0 1 1 1.87-.77 2.63 2.63 0 0 1-1.87.77zm.8-1.83zm-1.06-1.06a.36.36 0 0 0 .51.51zm.26-.11a.36.36 0 0 0-.26.11l.51.51a.36.36 0 0 0 0-.51.36.36 0 0 0-.25-.11zM52.44 63.11a2.64 2.64 0 0 1-1.86-4.5 2.7 2.7 0 0 1 3.73 0 2.64 2.64 0 0 1 0 3.73 2.62 2.62 0 0 1-1.87.77zm-.26-2.89a.36.36 0 0 0 0 .51.38.38 0 0 0 .51 0 .36.36 0 0 0 0-.51.38.38 0 0 0-.51 0zM23 45.57a3.59 3.59 0 0 1-3.11-1.79L9 24.82a3.59 3.59 0 0 1 1.31-4.9L29.25 9a3.58 3.58 0 0 1 4.9 1.31l10.94 19a3.58 3.58 0 0 1-1.31 4.9l-19 10.94a3.56 3.56 0 0 1-1.78.42zm8-34.07a.58.58 0 0 0-.29.08l-19 10.94a.59.59 0 0 0-.21.8l10.94 19a.59.59 0 0 0 .8.21l19-10.94a.58.58 0 0 0 .21-.8l-10.94-19a.58.58 0 0 0-.35-.27zm12 21.35z"/><path class="cls-1" d="M27 29.67a2.64 2.64 0 0 1-1.32-4.92 2.64 2.64 0 0 1 3.6 1 2.64 2.64 0 0 1-2.28 4zm-.32-2.46a.36.36 0 1 0 .13-.49.36.36 0 0 0-.17.22.37.37 0 0 0 .08.28zm0 0zM19.27 27.59a2.64 2.64 0 1 1 2.28-4 2.64 2.64 0 0 1-2.28 4zm.31-2.82l-.63.36a.36.36 0 0 0 .63-.36zm-.32-.18a.36.36 0 0 0-.31.54l.63-.36a.37.37 0 0 0-.31-.18zM34.81 31.75a2.64 2.64 0 0 1-2.29-1.32 2.64 2.64 0 0 1 4.57-2.64 2.64 2.64 0 0 1-2.28 4zm-.32-2.46a.36.36 0 1 0 0-.27.37.37 0 0 0 0 .28zm0 0z"/></symbol><symbol id="icon-theme_jeuxetloisirs_lg" viewbox="0 0 140 140"><title>JeuxEtLoisirs_L</title><path class="cls-1" d="M96.3 131.5a5.48 5.48 0 0 1-3.89-1.61l-29.7-29.7a5.51 5.51 0 0 1 0-7.78l29.7-29.7a5.51 5.51 0 0 1 7.78 0l29.7 29.7a5.5 5.5 0 0 1 0 7.78l-29.7 29.7a5.48 5.48 0 0 1-3.89 1.61zm-1.77-3.73a2.5 2.5 0 0 0 3.54 0l29.7-29.7a2.5 2.5 0 0 0 0-3.54l-29.7-29.7a2.5 2.5 0 0 0-3.54 0l-29.7 29.7a2.5 2.5 0 0 0 0 3.54l29.7 29.7z"/><path class="cls-1" d="M96.3 102.8a6.5 6.5 0 1 1 4.6-1.9 6.46 6.46 0 0 1-4.6 1.9zm0-10a3.5 3.5 0 0 0-2.48 6 3.58 3.58 0 0 0 5 0 3.5 3.5 0 0 0-2.47-6zM96.3 85.83a6.5 6.5 0 1 1 4.6-1.9 6.46 6.46 0 0 1-4.6 1.9zm0-10a3.5 3.5 0 0 0-2.48 6 3.58 3.58 0 0 0 5 0 3.5 3.5 0 0 0-2.47-6zM113.27 102.8a6.5 6.5 0 1 1 4.6-1.9 6.46 6.46 0 0 1-4.6 1.9zm0-10a3.5 3.5 0 0 0-2.48 6 3.58 3.58 0 0 0 5 0 3.5 3.5 0 0 0-2.47-6zM79.33 102.8a6.5 6.5 0 1 1 4.6-1.9 6.46 6.46 0 0 1-4.6 1.9zm0-10a3.5 3.5 0 0 0-2.47 6 3.58 3.58 0 0 0 4.95 0 3.5 3.5 0 0 0-2.47-6zM96.3 119.77a6.5 6.5 0 1 1 4.6-1.9 6.46 6.46 0 0 1-4.6 1.9zm0-10a3.5 3.5 0 0 0-2.48 6 3.58 3.58 0 0 0 5 0 3.5 3.5 0 0 0-2.47-6zM35 76.87a5.51 5.51 0 0 1-4.77-2.75l-21-36.37a5.51 5.51 0 0 1 2-7.51l36.37-21a5.51 5.51 0 0 1 7.51 2l21 36.37a5.51 5.51 0 0 1-2 7.51l-36.37 21a5.46 5.46 0 0 1-2.74.75zM50.37 11.5a2.49 2.49 0 0 0-1.25.33l-36.37 21a2.5 2.5 0 0 0-.92 3.42l21 36.37a2.51 2.51 0 0 0 3.42.92l36.37-21a2.5 2.5 0 0 0 .92-3.42l-21-36.37a2.5 2.5 0 0 0-2.17-1.25z"/><path class="cls-1" d="M42.7 49.19A6.54 6.54 0 0 1 41 49a6.5 6.5 0 1 1 7.31-9.53 6.5 6.5 0 0 1-5.62 9.75zm0-10a3.5 3.5 0 1 0 3 1.75 3.5 3.5 0 0 0-3.02-1.75zM26.31 44.79a6.5 6.5 0 1 1 3.24-.87 6.5 6.5 0 0 1-3.24.87zm0-10a3.51 3.51 0 1 0 .91.12 3.53 3.53 0 0 0-.93-.12zM59.09 53.58a6.54 6.54 0 0 1-1.69-.22 6.5 6.5 0 1 1 7.31-9.53 6.5 6.5 0 0 1-5.62 9.75zm0-10a3.5 3.5 0 1 0 3 1.75A3.48 3.48 0 0 0 60 43.7a3.53 3.53 0 0 0-.93-.12z"/></symbol><symbol id="icon-theme_jeuxetloisirs_o" viewbox="0 0 120 120"><title>JeuxEtLoisirs</title><path class="cls-1" d="M60 111.5A51.5 51.5 0 1 1 111.5 60 51.56 51.56 0 0 1 60 111.5zm0-100A48.5 48.5 0 1 0 108.5 60 48.55 48.55 0 0 0 60 11.5z"/><circle class="cls-2" cx="60" cy="60" r="51.5"/><path class="cls-1" d="M70.39 86.52a3.23 3.23 0 0 1-2.29-.95l-12.9-12.9a3.24 3.24 0 0 1 0-4.58L68.1 55.2a3.24 3.24 0 0 1 4.58 0l12.9 12.9a3.24 3.24 0 0 1 0 4.58l-12.9 12.9a3.23 3.23 0 0 1-2.29.94zm0-29.27a.24.24 0 0 0-.17.07l-12.9 12.9a.24.24 0 0 0 0 .34l12.9 12.9a.24.24 0 0 0 .34 0l12.9-12.9a.24.24 0 0 0 0-.34l-12.9-12.9a.24.24 0 0 0-.17-.07z"/><path class="cls-1" d="M70.39 72.83a2.45 2.45 0 1 1 1.73-.72 2.44 2.44 0 0 1-1.73.72zm0-3A.55.55 0 0 0 70 70a.55.55 0 1 0 .78 0 .55.55 0 0 0-.39-.17zM70.39 66.13a2.45 2.45 0 1 1 1.73-.72 2.44 2.44 0 0 1-1.73.72zm.67-1.78zM70 63.29a.55.55 0 0 0 .78.78zm.39-.16a.55.55 0 0 0-.39.16l.78.78a.55.55 0 0 0-.39-.94zM77.09 72.83a2.45 2.45 0 1 1 1.73-.72 2.44 2.44 0 0 1-1.73.72zm0-3a.55.55 0 0 0-.39.16.55.55 0 1 0 .78 0 .55.55 0 0 0-.39-.16zM63.69 72.83a2.47 2.47 0 0 1-1.69-.72 2.45 2.45 0 0 1 1.73-4.18 2.45 2.45 0 0 1 0 4.9zm0-3a.55.55 0 1 0 0 1.1.55.55 0 1 0 0-1.1zM70.39 79.53a2.45 2.45 0 1 1 1.73-.72 2.44 2.44 0 0 1-1.73.72zM70 76.7a.55.55 0 0 0 0 .78.55.55 0 0 0 .94-.39.55.55 0 0 0-.94-.39zM45.88 64.91a3.26 3.26 0 0 1-.88-.11 3.21 3.21 0 0 1-2-1.51L34 47.5a3.24 3.24 0 0 1 1.18-4.42L50.94 34a3.24 3.24 0 0 1 4.42 1.18l9.12 15.8a3.24 3.24 0 0 1-1.18 4.42l-15.8 9.08a3.22 3.22 0 0 1-1.62.43zm6.67-28.39a.24.24 0 0 0-.12 0l-15.8 9.12a.24.24 0 0 0-.09.32l9.12 15.8a.24.24 0 0 0 .32.09l15.8-9.12a.24.24 0 0 0 .09-.32l-9.12-15.8a.24.24 0 0 0-.2-.09zm10 17.54z"/><path class="cls-1" d="M49.22 51.66a2.45 2.45 0 1 1 1.22-.33 2.45 2.45 0 0 1-1.22.33zm0-3a.55.55 0 1 0 .14 0zM42.75 49.93a2.46 2.46 0 0 1-.64-.08 2.43 2.43 0 1 1 .64.08zm0-3a.55.55 0 0 0-.28.07.55.55 0 1 0 .28-.07zM55.69 53.4a2.46 2.46 0 0 1-.64-.08 2.43 2.43 0 1 1 .64.08zm-.48-2.17a.55.55 0 1 0-.06-.42.55.55 0 0 0 .06.42zm0 0z"/></symbol><symbol id="icon-theme_langues" viewbox="0 0 80 80"><title>Langues_S</title><path class="cls-1" d="M10 71.5A1.5 1.5 0 0 1 8.5 70V30A21.52 21.52 0 0 1 30 8.5h20A21.52 21.52 0 0 1 71.5 30v10A21.52 21.52 0 0 1 50 61.5H20.62l-9.56 9.56a1.5 1.5 0 0 1-1.06.44zm20-60A18.52 18.52 0 0 0 11.5 30v36.38l7.44-7.44A1.5 1.5 0 0 1 20 58.5h30A18.52 18.52 0 0 0 68.5 40V30A18.52 18.52 0 0 0 50 11.5z"/><path class="cls-1" d="M49 42.5H31a1.5 1.5 0 1 1 0-3h18a1.5 1.5 0 0 1 0 3z"/><path class="cls-1" d="M52 48.5a1.5 1.5 0 0 1-1.34-.83L40 26.35 29.34 47.67a1.5 1.5 0 0 1-2.68-1.34l12-24a1.5 1.5 0 0 1 2.68 0l12 24A1.5 1.5 0 0 1 52 48.5z"/></symbol><symbol id="icon-theme_langues_lg" viewbox="0 0 140 140"><title>Langues_L</title><path class="cls-1" d="M10 131.5a1.5 1.5 0 0 1-1.5-1.5V50A41.55 41.55 0 0 1 50 8.5h40A41.55 41.55 0 0 1 131.5 50v20A41.55 41.55 0 0 1 90 111.5H30.62l-19.56 19.56a1.5 1.5 0 0 1-1.06.44zm40-120A38.54 38.54 0 0 0 11.5 50v76.38l17.44-17.44a1.5 1.5 0 0 1 1.06-.44h60A38.54 38.54 0 0 0 128.5 70V50A38.54 38.54 0 0 0 90 11.5z"/><path class="cls-1" d="M80 71.5a21.24 21.24 0 0 1-8.35-1.7A21.7 21.7 0 0 1 60.2 58.35a1.5 1.5 0 0 1 2.8-1.17A18.69 18.69 0 0 0 72.82 67 18.26 18.26 0 0 0 80 68.5a1.5 1.5 0 0 1 0 3z"/><path class="cls-1" d="M60 71.5a1.5 1.5 0 1 1 0-3A18.56 18.56 0 0 0 78.5 50a1.5 1.5 0 0 1 3 0A21.56 21.56 0 0 1 60 71.5z"/><path class="cls-1" d="M80 51.5H70a1.5 1.5 0 0 1 0-3h10a1.5 1.5 0 0 1 0 3zM110 71.5H90a1.5 1.5 0 0 1-1.06-2.56L97.88 60l-8.94-8.94A1.5 1.5 0 0 1 90 48.5h20a1.5 1.5 0 0 1 0 3H93.62l7.44 7.44a1.5 1.5 0 0 1 0 2.12l-7.44 7.44H110a1.5 1.5 0 0 1 0 3zM47.5 66.5h-15a1.5 1.5 0 1 1 0-3h15a1.5 1.5 0 0 1 0 3z"/><path class="cls-1" d="M50 71.5a1.5 1.5 0 0 1-1.34-.83L40 53.35l-8.66 17.32a1.5 1.5 0 1 1-2.68-1.34l10-20a1.5 1.5 0 0 1 2.68 0l10 20A1.5 1.5 0 0 1 50 71.5z"/></symbol><symbol id="icon-theme_langues_o" viewbox="0 0 120 120"><title>Langues</title><path class="cls-1" d="M60 111.5A51.5 51.5 0 1 1 111.5 60 51.56 51.56 0 0 1 60 111.5zm0-100A48.5 48.5 0 1 0 108.5 60 48.55 48.55 0 0 0 60 11.5z"/><circle class="cls-2" cx="60" cy="60" r="51.5"/><path class="cls-1" d="M35 86.5a1.5 1.5 0 0 1-1.5-1.5V51.67A18.19 18.19 0 0 1 51.67 33.5h16.66A18.19 18.19 0 0 1 86.5 51.67V60a18.19 18.19 0 0 1-18.17 18.17H44l-7.89 7.89a1.5 1.5 0 0 1-1.11.44zm16.67-50A15.18 15.18 0 0 0 36.5 51.67v29.71l5.77-5.77a1.5 1.5 0 0 1 1.06-.44h25A15.18 15.18 0 0 0 83.5 60v-8.33A15.18 15.18 0 0 0 68.33 36.5z"/><path class="cls-1" d="M67.5 62.33h-15a1.5 1.5 0 0 1 0-3h15a1.5 1.5 0 0 1 0 3z"/><path class="cls-1" d="M70 67.33a1.5 1.5 0 0 1-1.34-.83L60 49.19 51.34 66.5a1.5 1.5 0 0 1-2.68-1.34l10-20a1.5 1.5 0 0 1 2.68 0l10 20A1.5 1.5 0 0 1 70 67.33z"/></symbol><symbol id="icon-theme_manifestations" viewbox="0 0 80 80"><title>Manifestations_S</title><path class="cls-1" d="M51.25 61.5C39.75 61.5 31 39.67 31 28.75a20.25 20.25 0 0 1 40.5 0c0 10.92-8.75 32.75-20.25 32.75zm0-50A17.27 17.27 0 0 0 34 28.75c0 5.14 2.14 12.7 5.32 18.82 3.62 6.95 8 10.93 11.93 10.93s8.31-4 11.93-10.93c3.18-6.12 5.32-13.68 5.32-18.82A17.27 17.27 0 0 0 51.25 11.5z"/><path class="cls-1" d="M51.25 71.5a1.5 1.5 0 0 1-1.5-1.5V60a1.5 1.5 0 0 1 3 0v10a1.5 1.5 0 0 1-1.5 1.5zM22.5 54.83c-3.66 0-7.27-3.07-10.17-8.64C10 41.8 8.5 36.29 8.5 32.5A14 14 0 0 1 34 24.59a1.5 1.5 0 1 1-2.47 1.7A11 11 0 0 0 11.5 32.5c0 6.93 5.54 19.33 11 19.33 4.17 0 8.34-7.13 10.14-13.84a1.5 1.5 0 1 1 2.9.78c-2.08 7.74-7.04 16.06-13.04 16.06z"/><path class="cls-1" d="M22.5 61.5A1.5 1.5 0 0 1 21 60v-6.67a1.5 1.5 0 0 1 3 0V60a1.5 1.5 0 0 1-1.5 1.5z"/></symbol><symbol id="icon-theme_manifestations_lg" viewbox="0 0 140 140"><title>Manifestations_L</title><path class="cls-1" d="M80 111.5c-13.23 0-23.12-15.22-27.85-24.29C45.48 74.39 41 58.44 41 47.5a39 39 0 0 1 78 0c0 21.35-16.86 64-39 64zm0-100a36 36 0 0 0-36 36c0 20.09 16.66 61 36 61s36-40.91 36-61a36 36 0 0 0-36-36z"/><path class="cls-1" d="M80 131.5a6.5 6.5 0 0 1 0-13 3.5 3.5 0 0 0 0-7 1.5 1.5 0 0 1 0-3 6.5 6.5 0 0 1 0 13 3.5 3.5 0 0 0 0 7 1.5 1.5 0 0 1 0 3zM30 101.5a6.5 6.5 0 0 1 0-13 3.5 3.5 0 0 0 0-7 1.5 1.5 0 0 1 0-3 6.5 6.5 0 0 1 0 13 3.5 3.5 0 0 0 0 7 1.5 1.5 0 0 1 0 3zM110 121.29a6.5 6.5 0 0 1 0-13 3.5 3.5 0 0 0 0-7 1.5 1.5 0 1 1 0-3 6.5 6.5 0 1 1 0 13 3.5 3.5 0 0 0 0 7 1.5 1.5 0 0 1 0 3z"/><path class="cls-1" d="M110 101.29c-3.41 0-6.77-1.56-10-4.62a1.5 1.5 0 1 1 2.07-2.17c2.65 2.52 5.32 3.8 7.93 3.8 4.36 0 9-3.69 12.85-10.12 3.43-5.8 5.65-13 5.65-18.38a18.4 18.4 0 0 0-11.72-17.2 1.5 1.5 0 1 1 1.1-2.79 21.38 21.38 0 0 1 13.61 20c0 5.86-2.38 13.67-6.07 19.91-4.42 7.46-9.89 11.57-15.42 11.57zM30 81.5c-5.53 0-11-4.12-15.43-11.59C10.88 63.67 8.5 55.86 8.5 50a21.49 21.49 0 0 1 36.88-15 1.5 1.5 0 0 1-2.15 2.1A18.49 18.49 0 0 0 11.5 50c0 10.74 8.65 28.5 18.5 28.5 5 0 10.28-4.75 14.24-12.7a1.5 1.5 0 0 1 2.69 1.34C42.38 76.27 36.21 81.5 30 81.5z"/></symbol><symbol id="icon-theme_manifestations_o" viewbox="0 0 120 120"><title>Manifestations</title><path class="cls-1" d="M60 111.5A51.5 51.5 0 1 1 111.5 60 51.56 51.56 0 0 1 60 111.5zm0-100A48.5 48.5 0 1 0 108.5 60 48.55 48.55 0 0 0 60 11.5z"/><circle class="cls-2" cx="60" cy="60" r="51.5"/><path class="cls-1" d="M67.71 79.83c-9.72 0-17.12-18.36-17.12-27.54a17.13 17.13 0 1 1 34.25 0c-.01 9.19-7.41 27.54-17.13 27.54zm0-41.67a14.14 14.14 0 0 0-14.13 14.13c0 7.87 6.68 24.54 14.13 24.54s14.12-16.67 14.12-24.54a14.14 14.14 0 0 0-14.12-14.12z"/><path class="cls-1" d="M67.71 88.17a1.5 1.5 0 0 1-1.5-1.5v-8.34a1.5 1.5 0 0 1 3 0v8.33a1.5 1.5 0 0 1-1.5 1.51zM43.75 74.28c-6.88 0-11.92-12.4-11.92-18.86a11.91 11.91 0 0 1 21.74-6.73 1.5 1.5 0 1 1-2.47 1.7 8.91 8.91 0 0 0-16.27 5c0 5.55 4.58 15.86 8.92 15.86 3.23 0 6.71-5.77 8.21-11.35a1.5 1.5 0 1 1 2.9.78c-1.36 5.07-5.22 13.6-11.11 13.6z"/><path class="cls-1" d="M43.75 79.83a1.5 1.5 0 0 1-1.5-1.5v-5.55a1.5 1.5 0 0 1 3 0v5.56a1.5 1.5 0 0 1-1.5 1.49z"/></symbol><symbol id="icon-theme_mouvementsetbienetre" viewbox="0 0 80 80"><title>MouvementsEtBienEtre_S</title><path class="cls-1" d="M16.4 41.5H10a1.5 1.5 0 0 1 0-3h6.4a1.5 1.5 0 0 1 0 3z"/><path class="cls-1" d="M10 51.5A1.5 1.5 0 0 1 8.5 50V30a1.5 1.5 0 0 1 3 0v20a1.5 1.5 0 0 1-1.5 1.5zM70 51.5a1.5 1.5 0 0 1-1.5-1.5V30a1.5 1.5 0 0 1 3 0v20a1.5 1.5 0 0 1-1.5 1.5zM63.6 71.5h-8.4a1.5 1.5 0 0 1-1.5-1.5V10a1.5 1.5 0 0 1 1.5-1.5h8.4a1.5 1.5 0 0 1 1.5 1.5v60a1.5 1.5 0 0 1-1.5 1.5zm-6.9-3h5.4v-57h-5.4zM24.8 71.5h-8.4a1.5 1.5 0 0 1-1.5-1.5V10a1.5 1.5 0 0 1 1.5-1.5h8.4a1.5 1.5 0 0 1 1.5 1.5v60a1.5 1.5 0 0 1-1.5 1.5zm-6.9-3h5.4v-57h-5.4z"/><path class="cls-1" d="M55.2 41.5H24.8a1.5 1.5 0 0 1 0-3h30.4a1.5 1.5 0 0 1 0 3zM70 41.5h-6.4a1.5 1.5 0 0 1 0-3H70a1.5 1.5 0 0 1 0 3z"/></symbol><symbol id="icon-theme_mouvementsetbienetre_lg" viewbox="0 0 140 140"><title>MouvementsEtBienEtre_L</title><path class="cls-1" d="M30 101.5H10a1.5 1.5 0 0 1 0-3h20a1.5 1.5 0 0 1 0 3z"/><path class="cls-1" d="M20 111.5a1.5 1.5 0 0 1-1.5-1.5V90a1.5 1.5 0 0 1 3 0v20a1.5 1.5 0 0 1-1.5 1.5zM120 111.5a1.5 1.5 0 0 1-1.5-1.5V90a1.5 1.5 0 0 1 3 0v20a1.5 1.5 0 0 1-1.5 1.5z"/><path class="cls-1" d="M130 101.5h-20a1.5 1.5 0 0 1 0-3h20a1.5 1.5 0 0 1 0 3zM90 101.5H50a1.5 1.5 0 0 1 0-3h40a1.5 1.5 0 0 1 0 3zM35 131.5a6.51 6.51 0 0 1-6.5-6.5V75a6.5 6.5 0 0 1 13 0v50a6.51 6.51 0 0 1-6.5 6.5zm0-60a3.5 3.5 0 0 0-3.5 3.5v50a3.5 3.5 0 0 0 7 0V75a3.5 3.5 0 0 0-3.5-3.5z"/><path class="cls-1" d="M45 131.5a6.51 6.51 0 0 1-6.5-6.5V75a6.5 6.5 0 0 1 13 0v50a6.51 6.51 0 0 1-6.5 6.5zm0-60a3.5 3.5 0 0 0-3.5 3.5v50a3.5 3.5 0 0 0 7 0V75a3.5 3.5 0 0 0-3.5-3.5zM105 131.5a6.51 6.51 0 0 1-6.5-6.5V75a6.5 6.5 0 0 1 13 0v50a6.51 6.51 0 0 1-6.5 6.5zm0-60a3.5 3.5 0 0 0-3.5 3.5v50a3.5 3.5 0 0 0 7 0V75a3.5 3.5 0 0 0-3.5-3.5z"/><path class="cls-1" d="M95 131.5a6.51 6.51 0 0 1-6.5-6.5V75a6.5 6.5 0 0 1 13 0v50a6.51 6.51 0 0 1-6.5 6.5zm0-60a3.5 3.5 0 0 0-3.5 3.5v50a3.5 3.5 0 0 0 7 0V75a3.5 3.5 0 0 0-3.5-3.5zM66.17 31.51a11.5 11.5 0 0 1-3-22.61 11.5 11.5 0 1 1 6 22.22 11.55 11.55 0 0 1-3 .39zm0-20a8.54 8.54 0 0 0-2.21.29 8.45 8.45 0 1 0 2.21-.29zm-2.6-1.16z"/><path class="cls-1" d="M61.7 43.41a1.5 1.5 0 0 1-1.45-1.11L55.08 23a1.5 1.5 0 0 1 2.92-.8l5.18 19.32a1.5 1.5 0 0 1-1.45 1.89z"/><path class="cls-1" d="M70.77 82.22a6.51 6.51 0 0 1-6.28-4.82l-7.76-29a6.5 6.5 0 0 1 12.56-3.36L77 74a6.51 6.51 0 0 1-4.6 8 6.48 6.48 0 0 1-1.63.22zm1.29-1.67zM63 43.24a3.51 3.51 0 0 0-3.38 4.41l7.76 29a3.51 3.51 0 0 0 4.29 2.48 3.5 3.5 0 0 0 2.47-4.29l-7.76-29a3.52 3.52 0 0 0-3.38-2.6zM88.51 22.84a1.49 1.49 0 0 1-.75-.2l-17.32-10a1.5 1.5 0 0 1 1.5-2.6L89.26 20a1.5 1.5 0 0 1-.75 2.8z"/><path class="cls-1" d="M118.8 45.34a6.43 6.43 0 0 1-3.23-.87l-26-15a6.5 6.5 0 0 1 6.5-11.26l26 15a6.51 6.51 0 0 1 2.38 8.88 6.45 6.45 0 0 1-3.95 3 6.58 6.58 0 0 1-1.7.25zm-25.94-25a3.55 3.55 0 0 0-.92.12 3.5 3.5 0 0 0-.85 6.41l26 15a3.51 3.51 0 0 0 4.78-1.28 3.5 3.5 0 0 0-1.28-4.78l-26-15a3.46 3.46 0 0 0-1.74-.46zm30.3 21z"/></symbol><symbol id="icon-theme_mouvementsetbienetre_o" viewbox="0 0 120 120"><title>MouvementsEtBienEtre</title><path class="cls-1" d="M60 111.5A51.5 51.5 0 1 1 111.5 60 51.56 51.56 0 0 1 60 111.5zm0-100A48.5 48.5 0 1 0 108.5 60 48.55 48.55 0 0 0 60 11.5z"/><circle class="cls-2" cx="60" cy="60" r="51.5"/><path class="cls-1" d="M40.33 61.5H35a1.5 1.5 0 0 1 0-3h5.33a1.5 1.5 0 0 1 0 3z"/><path class="cls-1" d="M35 69.83a1.5 1.5 0 0 1-1.5-1.5V51.67a1.5 1.5 0 0 1 3 0v16.66a1.5 1.5 0 0 1-1.5 1.5zM85 69.83a1.5 1.5 0 0 1-1.5-1.5V51.67a1.5 1.5 0 0 1 3 0v16.66a1.5 1.5 0 0 1-1.5 1.5zM79.67 86.5h-7a1.5 1.5 0 0 1-1.5-1.5V35a1.5 1.5 0 0 1 1.5-1.5h7a1.5 1.5 0 0 1 1.5 1.5v50a1.5 1.5 0 0 1-1.5 1.5zm-5.5-3h4v-47h-4zM47.33 86.5h-7a1.5 1.5 0 0 1-1.5-1.5V35a1.5 1.5 0 0 1 1.5-1.5h7a1.5 1.5 0 0 1 1.5 1.5v50a1.5 1.5 0 0 1-1.5 1.5zm-5.5-3h4v-47h-4z"/><path class="cls-1" d="M72.67 61.5H47.33a1.5 1.5 0 0 1 0-3h25.34a1.5 1.5 0 0 1 0 3zM85 61.5h-5.33a1.5 1.5 0 0 1 0-3H85a1.5 1.5 0 0 1 0 3z"/></symbol><symbol id="icon-theme_rencontresthematiques" viewbox="0 0 80 80"><title>RencontresThematiques_S</title><path class="cls-1" d="M33.77 71.5a1.5 1.5 0 0 1-1.36-2.13l5.08-11a1.5 1.5 0 0 1 2.72 1.26l-5.08 11a1.5 1.5 0 0 1-1.36.87z"/><path class="cls-1" d="M33.77 71.5a1.5 1.5 0 0 1-.63-2.86l11-5.08a1.5 1.5 0 0 1 1.26 2.72l-11 5.08a1.49 1.49 0 0 1-.63.14z"/><path class="cls-1" d="M44.79 66.42a1.5 1.5 0 0 1-1.06-2.56l24.15-24.15-3.81-3.81L39.91 60a1.5 1.5 0 0 1-2.12-2.12L63 32.71a1.54 1.54 0 0 1 2.12 0l5.94 5.94a1.5 1.5 0 0 1 0 2.12L45.85 66a1.5 1.5 0 0 1-1.06.42z"/><path class="cls-1" d="M38.38 61.5H10A1.5 1.5 0 0 1 8.5 60V10A1.5 1.5 0 0 1 10 8.5h40a1.5 1.5 0 0 1 1.5 1.5v37.84a1.5 1.5 0 0 1-3 0V11.5h-37v47h26.88a1.5 1.5 0 0 1 0 3zM63.6 45.21a1.5 1.5 0 0 1-1.06-.44L59 41.23a1.5 1.5 0 0 1 2.12-2.12l3.54 3.54a1.5 1.5 0 0 1-1.06 2.56z"/><path class="cls-1" d="M41.5 21.5H27.7a1.5 1.5 0 1 1 0-3h13.8a1.5 1.5 0 0 1 0 3zM41.5 31.5H27.7a1.5 1.5 0 1 1 0-3h13.8a1.5 1.5 0 0 1 0 3zM41.5 41.5H27.7a1.5 1.5 0 1 1 0-3h13.8a1.5 1.5 0 0 1 0 3zM19.93 22.64a2.64 2.64 0 1 1 2.28-4 2.64 2.64 0 0 1-2.28 4zm.31-2.82l-.63.36a.36.36 0 0 0 .63-.36zm-.31-.18a.37.37 0 0 0-.18 0 .36.36 0 0 0-.13.5l.63-.36a.37.37 0 0 0-.22-.17zM19.93 32.64a2.64 2.64 0 1 1 2.28-4 2.64 2.64 0 0 1-2.28 4zm.31-2.82l-.63.36a.36.36 0 0 0 .63-.36zm-.31-.18a.37.37 0 0 0-.18 0 .36.36 0 0 0-.13.5l.63-.36a.37.37 0 0 0-.22-.17zM19.93 42.64a2.64 2.64 0 1 1 2.28-4 2.64 2.64 0 0 1-2.28 4zm.31-2.82l-.63.36a.36.36 0 0 0 .63-.36zm-.31-.18a.37.37 0 0 0-.18 0 .36.36 0 0 0-.13.5l.63-.36a.37.37 0 0 0-.22-.17z"/></symbol><symbol id="icon-theme_rencontresthematiques_lg" viewbox="0 0 140 140"><title>RencontresThematiques_L</title><path class="cls-1" d="M73 31.5H43a1.5 1.5 0 0 1 0-3h30a1.5 1.5 0 0 1 0 3zM73 51.5H43a1.5 1.5 0 0 1 0-3h30a1.5 1.5 0 0 1 0 3zM73 71.5H43a1.5 1.5 0 0 1 0-3h30a1.5 1.5 0 0 1 0 3zM59 91.5H43a1.5 1.5 0 0 1 0-3h16a1.5 1.5 0 0 1 0 3zM24 36.5a6.5 6.5 0 1 1 6.5-6.5 6.51 6.51 0 0 1-6.5 6.5zm0-10a3.5 3.5 0 1 0 3.5 3.5 3.5 3.5 0 0 0-3.5-3.5zM24 66.5a6.5 6.5 0 1 1 6.5-6.5 6.51 6.51 0 0 1-6.5 6.5zm0-10a3.5 3.5 0 1 0 3.5 3.5 3.5 3.5 0 0 0-3.5-3.5zM24 96.5a6.5 6.5 0 1 1 6.5-6.5 6.51 6.51 0 0 1-6.5 6.5zm0-10a3.5 3.5 0 1 0 3.5 3.5 3.5 3.5 0 0 0-3.5-3.5zM62.34 131.5a1.5 1.5 0 0 1-1.29-2.26L71.21 112a1.5 1.5 0 0 1 2.58 1.52l-10.15 17.24a1.5 1.5 0 0 1-1.3.74z"/><path class="cls-1" d="M62.35 131.5a1.5 1.5 0 0 1-.76-2.79l17.23-10.16a1.5 1.5 0 0 1 1.52 2.58l-17.23 10.16a1.49 1.49 0 0 1-.76.21z"/><path class="cls-1" d="M79.57 121.34a1.5 1.5 0 0 1-1.06-.44l-7.07-7.07a1.5 1.5 0 0 1 0-2.12l50.43-50.43a1.54 1.54 0 0 1 2.12 0l7.07 7.07a1.5 1.5 0 0 1 0 2.12L80.63 120.9a1.5 1.5 0 0 1-1.06.44zm-4.95-8.57l4.95 4.95 48.31-48.3-5-5z"/><path class="cls-1" d="M75.27 111.5H10a1.5 1.5 0 0 1-1.5-1.5V10A1.5 1.5 0 0 1 10 8.5h80a1.5 1.5 0 0 1 1.5 1.5v85.27a1.5 1.5 0 0 1-3 0V11.5h-77v97h63.77a1.5 1.5 0 0 1 0 3zM122 78.92a1.5 1.5 0 0 1-1.06-.44l-7.07-7.07a1.5 1.5 0 0 1 2.13-2.13l7.07 7.07a1.5 1.5 0 0 1-1.07 2.57z"/></symbol><symbol id="icon-theme_rencontresthematiques_o" viewbox="0 0 120 120"><title>RencontresThematiques</title><path class="cls-1" d="M60 111.5A51.5 51.5 0 1 1 111.5 60 51.56 51.56 0 0 1 60 111.5zm0-100A48.5 48.5 0 1 0 108.5 60 48.55 48.55 0 0 0 60 11.5z"/><circle class="cls-2" cx="60" cy="60" r="51.5"/><path class="cls-1" d="M54.81 86.5a1.5 1.5 0 0 1-1.36-2.13l4.23-9.18a1.5 1.5 0 0 1 2.72 1.26l-4.23 9.18a1.5 1.5 0 0 1-1.36.87z"/><path class="cls-1" d="M54.81 86.5a1.5 1.5 0 0 1-.63-2.86l9.18-4.23a1.5 1.5 0 1 1 1.26 2.72l-9.18 4.23a1.49 1.49 0 0 1-.63.14z"/><path class="cls-1" d="M64 82.27a1.5 1.5 0 0 1-1.06-2.56l20-20-2.83-2.83-20 20A1.5 1.5 0 0 1 58 74.76l21-21a1.5 1.5 0 0 1 2.12 0l4.95 4.95a1.5 1.5 0 0 1 0 2.12l-21 21a1.5 1.5 0 0 1-1.07.44z"/><path class="cls-1" d="M58.65 78.17H35a1.5 1.5 0 0 1-1.5-1.5V35a1.5 1.5 0 0 1 1.5-1.5h33.33a1.5 1.5 0 0 1 1.5 1.5v31.53a1.5 1.5 0 1 1-3 0v-30H36.5v38.64h22.15a1.5 1.5 0 0 1 0 3zM79.67 64.59a1.5 1.5 0 0 1-1.06-.44l-2.95-2.95a1.5 1.5 0 0 1 2.12-2.12L80.73 62a1.5 1.5 0 0 1-1.06 2.56z"/><path class="cls-1" d="M61.25 44.83h-11.5a1.5 1.5 0 0 1 0-3h11.5a1.5 1.5 0 0 1 0 3zM61.25 53.17h-11.5a1.5 1.5 0 0 1 0-3h11.5a1.5 1.5 0 0 1 0 3zM61.25 61.5h-11.5a1.5 1.5 0 0 1 0-3h11.5a1.5 1.5 0 0 1 0 3zM43.28 45.78a2.45 2.45 0 1 1 1.22-.33 2.45 2.45 0 0 1-1.22.33zm0-3a.55.55 0 0 0-.48.83.55.55 0 1 0 .48-.83zM43.28 54.11a2.44 2.44 0 1 1 1.22-.33 2.45 2.45 0 0 1-1.22.33zm0-3a.55.55 0 0 0-.48.83.55.55 0 1 0 1-.55.55.55 0 0 0-.53-.28zM43.28 62.45a2.45 2.45 0 1 1 1.22-.33 2.45 2.45 0 0 1-1.22.33zm0-3a.55.55 0 1 0 .48.28.55.55 0 0 0-.49-.28z"/></symbol><symbol id="icon-themes" viewbox="0 0 50 50"><g fill="currentColor"><path d="M11.65 21.625c0-7.608 6.167-13.775 13.775-13.775 7.607 0 13.775 6.167 13.775 13.775a1.425 1.425 0 1 0 2.85 0C42.05 12.443 34.606 5 25.425 5 16.243 5 8.8 12.443 8.8 21.625a1.425 1.425 0 1 0 2.85 0z"/><path d="M7.85 23.05v11.875A8.075 8.075 0 0 0 15.925 43h19A8.075 8.075 0 0 0 43 34.925V23.05H7.85zm38-1.425v13.3c0 6.034-4.891 10.925-10.925 10.925h-19C9.89 45.85 5 40.958 5 34.925v-13.3c0-.787.638-1.425 1.425-1.425h38c.787 0 1.425.638 1.425 1.425z"/><path d="M5.417 26.433l7.6 7.6a1.425 1.425 0 0 0 2.016-2.016l-7.6-7.6a1.425 1.425 0 1 0-2.016 2.016z"/><path d="M26.432 43.417l-11.4-11.4a1.425 1.425 0 0 0-2.015 2.015l11.4 11.4a1.425 1.425 0 0 0 2.015-2.015zM44.244 38.429l-6.411-6.412a1.425 1.425 0 1 0-2.016 2.015l6.411 6.412a1.425 1.425 0 1 0 2.016-2.015z"/><path d="M24.417 22.632l11.4 11.4a1.425 1.425 0 0 0 2.015-2.015l-11.4-11.4a1.425 1.425 0 0 0-2.015 2.015zM8.621 40.444l6.411-6.412a1.425 1.425 0 1 0-2.015-2.015l-6.411 6.412a1.425 1.425 0 0 0 2.015 2.015z"/><path d="M15.033 34.032l11.4-11.4a1.425 1.425 0 0 0-2.016-2.015l-11.4 11.4a1.425 1.425 0 0 0 2.016 2.015zM26.432 45.432l11.4-11.4a1.425 1.425 0 0 0-2.015-2.015l-11.4 11.4a1.425 1.425 0 0 0 2.015 2.015z"/><path d="M37.832 34.032l7.6-7.6a1.425 1.425 0 0 0-2.015-2.015l-7.6 7.6a1.425 1.425 0 0 0 2.015 2.015z"/></g></symbol><symbol id="icon-user" viewbox="0 0 50 50"><g fill="currentColor"><path d="M25.564 42.082c3.944 0 7.633-1.758 10.064-4.716 2.589 1.282 5.6 2.36 9.253 3.251 1.517.35 2.245 2.13 2.245 4.883a1.5 1.5 0 0 0 3 0c0-4-1.243-7.038-4.552-7.802-3.949-.963-7.065-2.147-9.674-3.57a1.5 1.5 0 0 0-1.973.494c-1.814 2.769-4.961 4.46-8.363 4.46-3.403 0-6.55-1.69-8.366-4.46a1.5 1.5 0 0 0-1.973-.495c-2.607 1.423-5.724 2.608-9.692 3.576C2.243 38.462 1 41.5 1 45.5a1.5 1.5 0 0 0 3 0c0-2.753.728-4.533 2.226-4.879 3.67-.894 6.684-1.974 9.272-3.255 2.432 2.958 6.12 4.716 10.066 4.716zM33.935 20.808c.114-1.165.142-2.317.103-3.35a16.004 16.004 0 0 0-.064-.986 4.357 4.357 0 0 0-.026-.218c.076.48.047.357.387.7a1.5 1.5 0 0 1-.434-1.055c-.172-4.061-1.555-6.494-3.774-7.81-1.474-.873-3.2-1.168-4.456-1.077l-.107.004h-.438c-1.487 0-3.134.38-4.536 1.317-2.037 1.363-3.301 3.74-3.474 7.457v.109c0 .059-.04.53-.054.767-.136 2.226-.02 4.693.538 7.006.476 1.974 1.236 3.6 2.28 4.754 1.403 1.497 3.219 2.259 5.574 2.259h.219c2.446 0 4.207-.716 5.536-2.218 1.532-1.785 2.414-4.485 2.726-7.66zm2.985.293c-.366 3.736-1.431 6.991-3.443 9.33-1.94 2.198-4.53 3.253-7.804 3.253h-.22c-3.171 0-5.783-1.095-7.78-3.225-1.438-1.59-2.404-3.66-2.99-6.084-.638-2.651-.768-5.394-.615-7.892.021-.353.048-.671.048-.585l.001-.178c.217-4.712 1.953-7.972 4.805-9.88 1.966-1.315 4.174-1.824 6.204-1.824h.386c1.808-.119 4.1.281 6.144 1.493 3.114 1.845 5.028 5.211 5.245 10.28v.11c.217 1.221.213 3.223.02 5.202z"/><path d="M18.673 29.948c-.554 1.246-1.733 2.667-3.705 4.357a1.5 1.5 0 1 0 1.952 2.278c2.282-1.955 3.733-3.705 4.494-5.417a1.5 1.5 0 1 0-2.74-1.218zM36.158 34.305c-1.957-1.678-3.132-3.091-3.692-4.333a1.5 1.5 0 0 0-2.735 1.234c.767 1.699 2.211 3.436 4.474 5.377a1.5 1.5 0 1 0 1.953-2.278z"/></g></symbol><symbol id="icon-wait-lg" viewbox="0 0 143 143"><path d="M7.333 140A4.338 4.338 0 0 1 3 135.667a4.338 4.338 0 0 1 4.333-4.334h128.333a4.339 4.339 0 0 1 4.334 4.334 4.338 4.338 0 0 1-4.334 4.333H7.333zm49.314-59.19a13.077 13.077 0 0 0 3.858-9.31l-.001-23.333a1.5 1.5 0 1 0-3 0v14.967c-.27-.326-.554-.642-.857-.945L14.812 20.355a10.085 10.085 0 0 1-2.855-5.688h119.084a10.062 10.062 0 0 1-2.854 5.688L86.353 62.189c-.303.303-.587.619-.857.945V48.167a1.5 1.5 0 1 0-3 0V71.48a13.084 13.084 0 0 0 3.857 9.33l41.834 41.835a10.06 10.06 0 0 1 2.854 5.688H96.333v-10.166a1.5 1.5 0 1 0-3 0v10.166h-8.666V106.5a1.5 1.5 0 0 0-3 0v21.833H73V36.5a1.5 1.5 0 0 0-3 0v91.833h-8.667V106.5a1.5 1.5 0 0 0-3 0v21.833h-8.666v-10.166a1.5 1.5 0 1 0-3 0v10.166h-34.71a10.085 10.085 0 0 1 2.855-5.688L56.647 80.81zM7.333 3h128.333A4.338 4.338 0 0 1 140 7.333a4.339 4.339 0 0 1-4.334 4.334H7.333A4.338 4.338 0 0 1 3 7.333 4.338 4.338 0 0 1 7.333 3zm126.738 125.333a13.059 13.059 0 0 0-3.763-7.81L88.474 78.688a10.093 10.093 0 0 1-2.978-7.182 10.12 10.12 0 0 1 2.978-7.195l41.834-41.834a13.062 13.062 0 0 0 3.763-7.81h1.595c4.044 0 7.334-3.29 7.334-7.334C143 3.29 139.71 0 135.666 0H7.333C3.29 0 0 3.29 0 7.333c0 4.044 3.29 7.334 7.333 7.334h1.595a13.067 13.067 0 0 0 3.763 7.81l41.835 41.834a10.105 10.105 0 0 1 2.978 7.169 10.112 10.112 0 0 1-2.978 7.209l-41.835 41.834a13.064 13.064 0 0 0-3.763 7.81H7.333c-4.043 0-7.333 3.29-7.333 7.334C0 139.71 3.29 143 7.333 143h128.333c4.044 0 7.334-3.29 7.334-7.333 0-4.044-3.29-7.334-7.334-7.334h-1.595z" fill="currentColor"/></symbol><symbol id="icon-wait" viewbox="0 0 50 50"><g fill="currentColor"><path d="M41.476 6H9.524v1.833c0 .485.188.947.538 1.296l7.271 7.272v-3.526a1.5 1.5 0 0 1 3 0V19.4l1.681 1.682a4.835 4.835 0 0 1 0 6.835L10.061 39.87c-.35.35-.537.811-.537 1.296V43h31.952v-1.833a1.82 1.82 0 0 0-.538-1.296L28.986 27.917a4.835 4.835 0 0 1 0-6.835l1.681-1.681v-6.526a1.5 1.5 0 0 1 3 0V16.4l7.273-7.273c.348-.348.536-.81.536-1.295V6zm3 0v1.833a4.813 4.813 0 0 1-1.417 3.418L31.108 23.203a1.835 1.835 0 0 0 0 2.593l11.95 11.952a4.818 4.818 0 0 1 1.418 3.419V43H45.5a1.5 1.5 0 0 1 0 3h-40a1.5 1.5 0 0 1 0-3h1.024v-1.833c0-1.273.498-2.5 1.417-3.418l11.951-11.952a1.835 1.835 0 0 0 0-2.593L7.943 11.252a4.815 4.815 0 0 1-1.418-3.42V6H5.5a1.5 1.5 0 0 1 0-3h40a1.5 1.5 0 0 1 0 3h-1.024z"/><path d="M24 12.875v6a1.5 1.5 0 0 0 3 0v-6a1.5 1.5 0 0 0-3 0z"/></g></symbol><symbol id="icon-wheel" viewbox="0 0 90 90"><g fill="none" fill-rule="evenodd"><path d="M43.012 72.209V53.727c0-.037-.008-.072-.011-.107a8.847 8.847 0 0 0 1.999.235c.688 0 1.355-.086 1.999-.235-.003.036-.011.07-.011.107v18.482c-.657.048-1.32.081-1.988.081-.67 0-1.33-.033-1.988-.081zm3.976-54.418v18.482c0 .037.008.071.01.107A8.847 8.847 0 0 0 45 36.145c-.688 0-1.355.086-2 .235.004-.036.012-.07.012-.107V17.791A27.268 27.268 0 0 1 45 17.71c.669 0 1.33.033 1.988.081zm6.739 29.197c-.037 0-.071.009-.107.011A8.848 8.848 0 0 0 53.856 45c0-.688-.087-1.355-.236-1.999.036.003.07.011.107.011H72.21c.047.657.08 1.319.08 1.988s-.033 1.331-.081 1.988H53.727zM50.24 57.653l9.984 9.984a27.134 27.134 0 0 1-9.984 4.142V57.653zm0-25.306V18.221c3.636.71 7.017 2.14 9.984 4.142l-9.984 9.984zm21.539 7.412H57.653l9.984-9.984a27.152 27.152 0 0 1 4.143 9.984zm-6.143-12.584l-13.06 13.059c-.026.027-.046.059-.071.088a8.906 8.906 0 0 0-2.827-2.827c.028-.025.06-.046.086-.072l13.06-13.06a27.344 27.344 0 0 1 2.812 2.812zM39.397 45A5.61 5.61 0 0 1 45 39.397 5.61 5.61 0 0 1 50.603 45 5.61 5.61 0 0 1 45 50.603 5.61 5.61 0 0 1 39.398 45zm.362 12.653v14.126a27.122 27.122 0 0 1-9.983-4.142l9.983-9.984zm-3.485-14.641c.037 0 .07-.008.107-.011A8.848 8.848 0 0 0 36.145 45c0 .688.087 1.355.236 1.999-.036-.002-.07-.011-.107-.011H17.792A27.245 27.245 0 0 1 17.71 45c0-.669.033-1.331.08-1.988h18.483zm3.485-10.665l-9.984-9.984a27.134 27.134 0 0 1 9.984-4.142v14.126zm-12.584-7.984l13.059 13.058c.027.028.059.049.088.074a8.916 8.916 0 0 0-2.827 2.827c-.025-.029-.045-.061-.073-.089L24.364 27.174a27.526 27.526 0 0 1 2.81-2.811zm-4.811 5.412l9.984 9.984H18.22a27.152 27.152 0 0 1 4.143-9.984zm-4.142 20.466h14.126l-9.984 9.984a27.134 27.134 0 0 1-4.142-9.984zm6.142 12.584l13.059-13.059c.027-.027.048-.059.073-.088a8.913 8.913 0 0 0 2.826 2.827c-.028.025-.06.046-.087.073l-13.06 13.059a27.536 27.536 0 0 1-2.811-2.812zm38.46 2.812l-13.06-13.061c-.026-.026-.058-.046-.086-.071a8.906 8.906 0 0 0 2.827-2.827c.025.029.046.06.072.087l13.06 13.06a27.445 27.445 0 0 1-2.812 2.812zm4.813-5.412l-9.984-9.984h14.126a27.134 27.134 0 0 1-4.142 9.984zM45 14.458c-16.841 0-30.542 13.701-30.542 30.542S28.158 75.542 45 75.542c16.842 0 30.543-13.701 30.543-30.542S61.842 14.458 45 14.458z" fill="currentColor"/><mask id="b" fill="#fff"><use xlink:href="#a"/></mask><path d="M86.747 46.988h-4.029a38.564 38.564 0 0 0 0-3.976h4.03v3.976zm-10.82 26.126l-2.814 2.811-2.862-2.863a38.049 38.049 0 0 0 2.811-2.812l2.864 2.864zM46.987 86.747h-3.976v-4.029a37.43 37.43 0 0 0 3.976 0v4.03zM16.886 75.925l-2.81-2.81 2.862-2.864a38.23 38.23 0 0 0 2.811 2.811l-2.863 2.863zM3.253 46.988v-3.976h4.03a37.417 37.417 0 0 0 0 3.976h-4.03zm10.822-30.103l2.811-2.81 2.863 2.863a38.035 38.035 0 0 0-2.81 2.811l-2.864-2.864zM43.012 3.253h3.976v4.028a38.555 38.555 0 0 0-3.976 0V3.253zm30.101 10.821l2.813 2.811-2.864 2.864a38.049 38.049 0 0 0-2.812-2.81l2.863-2.865zM45 79.518c-19.034 0-34.518-15.484-34.518-34.519 0-19.033 15.484-34.517 34.518-34.517 19.033 0 34.518 15.484 34.518 34.517 0 19.035-15.485 34.52-34.518 34.52zM88.373 39.76H82.4a37.584 37.584 0 0 0-7.256-17.49l4.233-4.234a1.623 1.623 0 0 0 0-2.299l-5.113-5.112a1.625 1.625 0 0 0-2.3 0l-4.232 4.233A37.596 37.596 0 0 0 50.241 7.6V1.626C50.241.728 49.512 0 48.614 0h-7.229c-.898 0-1.626.728-1.626 1.626V7.6a37.596 37.596 0 0 0-17.49 7.257l-4.233-4.233a1.625 1.625 0 0 0-2.3 0l-5.112 5.112a1.625 1.625 0 0 0 0 2.3l4.233 4.232A37.588 37.588 0 0 0 7.601 39.76H1.626C.728 39.76 0 40.487 0 41.385v7.23c0 .897.728 1.626 1.626 1.626h5.975a37.584 37.584 0 0 0 7.256 17.49l-4.233 4.233a1.627 1.627 0 0 0 0 2.3l5.112 5.112a1.63 1.63 0 0 0 2.3 0l4.232-4.233A37.577 37.577 0 0 0 39.76 82.4v5.974c0 .898.728 1.627 1.626 1.627h7.23c.897 0 1.626-.729 1.626-1.627V82.4a37.576 37.576 0 0 0 17.49-7.258l4.232 4.234a1.624 1.624 0 0 0 2.3 0l5.113-5.112a1.627 1.627 0 0 0 0-2.3l-4.233-4.233a37.584 37.584 0 0 0 7.256-17.49h5.974c.898 0 1.627-.729 1.627-1.627v-7.229c0-.898-.729-1.626-1.627-1.626z" fill="currentColor" mask="url(#b)"/></g></symbol></svg>