<svg xmlns="http://www.w3.org/2000/svg" xmlns:xlink="http://www.w3.org/1999/xlink" style="display:none"><defs><path id="a" d="M1 142h141V1H1z"/><path id="a" d="M0 90h90V0H0z"/></defs><symbol id="icon-activities-big" viewbox="0 0 141 141"><g fill="currentColor"><path d="M103.531 12.983c0-5.537-4.488-10.025-10.025-10.025-5.536 0-10.024 4.488-10.024 10.025 0 5.536 4.488 10.024 10.024 10.024 5.537 0 10.025-4.488 10.025-10.024zm2.958 0c0 7.17-5.812 12.982-12.983 12.982-7.17 0-12.982-5.813-12.982-12.982C80.524 5.813 86.337 0 93.506 0c7.17 0 12.983 5.813 12.983 12.983zM57.517 12.983c0-5.537-4.488-10.025-10.025-10.025-5.536 0-10.024 4.488-10.024 10.025 0 5.536 4.488 10.024 10.024 10.024 5.537 0 10.025-4.488 10.025-10.024zm2.958 0c0 7.17-5.812 12.982-12.983 12.982-7.17 0-12.982-5.813-12.982-12.982C34.51 5.813 40.323 0 47.492 0c7.17 0 12.983 5.813 12.983 12.983zM7.231 48.972a7.231 7.231 0 0 1 0-14.462H133.77a7.231 7.231 0 0 1 0 14.462h-15.776v84.797a7.231 7.231 0 0 1-14.462 0V83.483h-8.545v50.286a7.231 7.231 0 0 1-14.461 0V48.972H60.476v84.797a7.231 7.231 0 0 1-14.462 0V83.483h-8.546v50.286a7.23 7.23 0 1 1-14.46 0V48.972H7.23zM133.77 37.468H7.231a4.273 4.273 0 1 0 0 8.546h17.255c.817 0 1.48.662 1.48 1.48v86.275a4.272 4.272 0 1 0 8.544 0V82.004c0-.817.662-1.48 1.48-1.48h11.503c.817 0 1.48.663 1.48 1.48v51.765a4.273 4.273 0 0 0 8.546 0l-.001-86.276c0-.817.662-1.479 1.479-1.479h23.007c.816 0 1.479.662 1.479 1.48v86.275a4.273 4.273 0 0 0 8.546 0V82.004c0-.817.662-1.48 1.478-1.48h11.503c.817 0 1.48.663 1.48 1.48v51.765a4.273 4.273 0 0 0 8.545 0V47.493c0-.817.662-1.479 1.48-1.479h17.254a4.273 4.273 0 0 0 0-8.546z"/></g></symbol><symbol id="icon-activities" viewbox="0 0 50 50"><g fill="currentColor"><path d="M14 8.834a4.833 4.833 0 1 1 9.668 0 4.833 4.833 0 0 1-9.668 0zm3 0a1.833 1.833 0 1 0 3.665 0 1.833 1.833 0 0 0-3.665 0zM27.333 8.834a4.834 4.834 0 1 1 9.667 0 4.834 4.834 0 0 1-9.667 0zm3 0A1.834 1.834 0 1 0 34 8.832a1.834 1.834 0 0 0-3.667.002zM8.833 25.666a4.834 4.834 0 0 1 0-9.667h33.334a4.834 4.834 0 0 1 0 9.667h-1.5V40.5a6.5 6.5 0 0 1-6.5 6.5 6.5 6.5 0 0 1-6.5-6.5V25.666h-4.334V40.5a6.5 6.5 0 1 1-13 0V25.666h-1.5zm33.334-3a1.833 1.833 0 1 0 0-3.667H8.833a1.834 1.834 0 0 0 0 3.668h3a1.5 1.5 0 0 1 1.5 1.5v16.332a3.5 3.5 0 1 0 7 0V24.166a1.5 1.5 0 0 1 1.5-1.5h7.334a1.5 1.5 0 0 1 1.5 1.5V40.5a3.5 3.5 0 1 0 7 0V24.166a1.5 1.5 0 0 1 1.5-1.5h3z"/></g></symbol><symbol id="icon-calendar-big" viewbox="0 0 143 143"><g fill="currentColor"><path d="M54 14.667h35a1.5 1.5 0 0 0 0-3H54a1.5 1.5 0 0 0 0 3zM42.333 11.667H13.166C5.896 11.667 0 17.562 0 24.834v105C0 137.104 5.895 143 13.166 143h99.167a1.5 1.5 0 0 0 0-3H13.166C7.552 140 3 135.448 3 129.834v-105c0-5.615 4.552-10.167 10.166-10.167h29.167a1.5 1.5 0 0 0 0-3zM100.667 14.667h29.167c5.614 0 10.166 4.552 10.166 10.167v87.5a1.5 1.5 0 0 0 3 0v-87.5c0-7.272-5.895-13.167-13.166-13.167h-29.167a1.5 1.5 0 0 0 0 3z"/><path d="M43.833 19a4.333 4.333 0 1 0 8.667 0V7.334a4.334 4.334 0 0 0-8.667 0V19zm-3-11.666a7.333 7.333 0 1 1 14.667 0V19a7.334 7.334 0 0 1-14.667 0V7.334zM90.5 19a4.333 4.333 0 1 0 8.667 0V7.334a4.334 4.334 0 0 0-8.667 0V19zm-3-11.666a7.333 7.333 0 1 1 14.667 0V19A7.334 7.334 0 0 1 87.5 19V7.334zM137.879 113.833H124c-5.615 0-10.167 4.552-10.167 10.167v13.879l24.046-24.046zM110.833 141.5V124c0-7.272 5.895-13.167 13.167-13.167h17.5c1.337 0 2.006 1.616 1.06 2.56l-29.166 29.168c-.945.945-2.56.275-2.56-1.06zM1.5 49.667h140a1.5 1.5 0 0 0 0-3H1.5a1.5 1.5 0 0 0 0 3zM29.167 71.5a4.333 4.333 0 1 0-8.666 0 4.333 4.333 0 0 0 8.666 0zm3 0a7.333 7.333 0 0 1-7.333 7.333 7.333 7.333 0 1 1 7.333-7.333zM52.5 71.5a4.333 4.333 0 1 0-8.666 0 4.333 4.333 0 0 0 8.666 0zm3 0a7.333 7.333 0 0 1-7.333 7.333A7.333 7.333 0 1 1 55.5 71.5zM75.833 71.5a4.333 4.333 0 1 0-8.666 0 4.333 4.333 0 0 0 8.666 0zm3 0a7.333 7.333 0 0 1-7.333 7.333 7.333 7.333 0 1 1 7.333-7.333zM99.167 71.5a4.333 4.333 0 1 0-8.666 0 4.333 4.333 0 0 0 8.666 0zm3 0a7.333 7.333 0 0 1-7.333 7.333 7.333 7.333 0 1 1 7.333-7.333zM122.5 71.5a4.333 4.333 0 1 0-8.666 0 4.333 4.333 0 0 0 8.666 0zm3 0a7.333 7.333 0 0 1-7.333 7.333A7.333 7.333 0 1 1 125.5 71.5zM29.167 94.833a4.333 4.333 0 1 0-8.666 0 4.333 4.333 0 0 0 8.666 0zm3 0a7.333 7.333 0 0 1-7.333 7.333 7.333 7.333 0 1 1 7.333-7.333zM52.5 94.833a4.333 4.333 0 1 0-8.666 0 4.333 4.333 0 0 0 8.666 0zm3 0a7.333 7.333 0 0 1-7.333 7.333 7.333 7.333 0 1 1 7.333-7.333zM75.833 94.833a4.333 4.333 0 1 0-8.666 0 4.333 4.333 0 0 0 8.666 0zm3 0a7.333 7.333 0 0 1-7.333 7.333 7.333 7.333 0 1 1 7.333-7.333zM99.167 94.833a4.333 4.333 0 1 0-8.666 0 4.333 4.333 0 0 0 8.666 0zm3 0a7.333 7.333 0 0 1-7.333 7.333 7.333 7.333 0 1 1 7.333-7.333zM29.167 118.167a4.333 4.333 0 1 0-8.666 0 4.333 4.333 0 0 0 8.666 0zm3 0a7.333 7.333 0 0 1-7.333 7.333 7.333 7.333 0 1 1 7.333-7.333zM52.5 118.167a4.333 4.333 0 1 0-8.666 0 4.333 4.333 0 0 0 8.666 0zm3 0a7.333 7.333 0 0 1-7.333 7.333 7.333 7.333 0 1 1 7.333-7.333zM75.833 118.167a4.333 4.333 0 1 0-8.666 0 4.333 4.333 0 0 0 8.666 0zm3 0A7.333 7.333 0 0 1 71.5 125.5a7.333 7.333 0 1 1 7.333-7.333zM99.167 118.167a4.333 4.333 0 1 0-8.666 0 4.333 4.333 0 0 0 8.666 0zm3 0a7.333 7.333 0 0 1-7.333 7.333 7.333 7.333 0 1 1 7.333-7.333zM122.5 94.833a4.333 4.333 0 1 0-8.666 0 4.333 4.333 0 0 0 8.666 0zm3 0a7.333 7.333 0 0 1-7.333 7.333 7.333 7.333 0 1 1 7.333-7.333z"/></g></symbol><symbol id="icon-calendar" viewbox="0 0 50 50"><g fill="currentColor"><path d="M44 11H7v33h37V11zm.167 36H6.834A2.833 2.833 0 0 1 4 44.167V10.833A2.833 2.833 0 0 1 6.834 8h37.333A2.833 2.833 0 0 1 47 10.833v33.334A2.833 2.833 0 0 1 44.167 47z"/><path d="M14.008 5.5v4a1.5 1.5 0 0 0 3 0v-4a1.5 1.5 0 0 0-3 0zM34.008 5.5v4a1.5 1.5 0 0 0 3 0v-4a1.5 1.5 0 0 0-3 0zM5.5 23h40a1.5 1.5 0 0 0 0-3h-40a1.5 1.5 0 0 0 0 3zM5.5 31h40a1.5 1.5 0 0 0 0-3h-40a1.5 1.5 0 0 0 0 3zM5.5 39h40a1.5 1.5 0 0 0 0-3h-40a1.5 1.5 0 0 0 0 3z"/></g></symbol><symbol id="icon-chevron-left" viewbox="0 0 50 50"><path d="M35.06 7.06a1.5 1.5 0 0 0-2.12-2.12l-20 20a1.5 1.5 0 0 0 0 2.12l20 20a1.5 1.5 0 0 0 2.12-2.12L16.122 26l18.94-18.94z" fill="currentColor"/></symbol><symbol id="icon-chevron-top" viewbox="0 0 50 50"><path d="M25 19.121l18.94 18.94a1.5 1.5 0 0 0 2.12-2.122l-20-20a1.5 1.5 0 0 0-2.12 0l-20 20a1.5 1.5 0 0 0 2.12 2.122L25 19.12z" fill="currentColor"/></symbol><symbol id="icon-confirmed" viewbox="0 0 50 50"><path d="M10.335 25.745a2.36 2.36 0 1 0-3.338 3.337l8.95 8.95a2.36 2.36 0 0 0 3.338 0L42.35 14.966a2.36 2.36 0 1 0-3.338-3.338L17.616 33.025l-7.28-7.28z" fill="currentColor"/></symbol><symbol id="icon-flag" viewbox="0 0 84 104"><path d="M2.056 103.559a1.607 1.607 0 0 1-1.996-1.56V8C.06 3.8 3.466.394 7.667.394h68c4.2 0 7.607 3.406 7.607 7.607v94a1.607 1.607 0 0 1-1.996 1.559l-39.611-9.895-39.61 9.895z" fill="currentColor"/><path d="M79 98.667L41.668 89.34 4.333 98.667V10.933a5.6 5.6 0 0 1 5.6-5.6H73.4a5.6 5.6 0 0 1 5.6 5.6v87.734z"/></symbol><symbol id="icon-look" viewbox="0 0 50 50"><g fill="currentColor"><path d="M30.046 30.046c5.271-5.272 5.271-13.82 0-19.092-5.272-5.272-13.82-5.272-19.092 0-5.272 5.273-5.272 13.82 0 19.092 5.273 5.271 13.82 5.271 19.092 0zm2.122 2.121c-6.444 6.443-16.89 6.443-23.336 0-6.443-6.443-6.443-16.89 0-23.334 6.445-6.444 16.892-6.444 23.336 0 6.442 6.444 6.442 16.89 0 23.334z"/><path d="M15.904 25.096a6.5 6.5 0 0 1 0-9.192 1.5 1.5 0 0 0-2.121-2.121 9.5 9.5 0 0 0 0 13.434 1.5 1.5 0 0 0 2.12-2.121zM38.429 43.379L28.016 32.965a1.5 1.5 0 0 0-2.122 2.12l11.474 11.476a1.5 1.5 0 0 0 2.122 0l7.07-7.071a1.5 1.5 0 0 0 0-2.121L35.087 25.894a1.5 1.5 0 0 0-2.122 2.121L43.38 38.429l-4.95 4.95z"/></g></symbol><symbol id="icon-meeting" viewbox="0 0 50 50"><g fill="currentColor"><path d="M9 4.5v40a1.5 1.5 0 0 0 3 0v-40a1.5 1.5 0 0 0-3 0z"/><path d="M5.5 46h10a1.5 1.5 0 0 0 0-3h-10a1.5 1.5 0 0 0 0 3zM43.379 19.5l-8.5-8.5H12v17H34.88l8.5-8.5zM35.5 31h-25A1.5 1.5 0 0 1 9 29.5v-20A1.5 1.5 0 0 1 10.5 8h25a1.5 1.5 0 0 1 1.061.44l10 10a1.5 1.5 0 0 1 0 2.12l-10 10a1.5 1.5 0 0 1-1.06.44z"/></g></symbol><symbol id="icon-money" viewbox="0 0 50 50"><g fill="currentColor"><path d="M5.5 37A1.5 1.5 0 0 1 4 35.5v-20A1.5 1.5 0 0 1 5.5 14h40a1.5 1.5 0 0 1 1.5 1.5v20a1.5 1.5 0 0 1-1.5 1.5h-40zM44 34V17H7v17h37z"/><path d="M5.5 24.253a8.753 8.753 0 0 0 8.753-8.753 1.5 1.5 0 0 0-3 0A5.753 5.753 0 0 1 5.5 21.253a1.5 1.5 0 0 0 0 3zM14.253 35.5A8.753 8.753 0 0 0 5.5 26.747a1.5 1.5 0 0 0 0 3 5.753 5.753 0 0 1 5.753 5.753 1.5 1.5 0 0 0 3 0zM45.5 26.747a8.753 8.753 0 0 0-8.753 8.753 1.5 1.5 0 0 0 3 0 5.753 5.753 0 0 1 5.753-5.753 1.5 1.5 0 0 0 0-3zM36.747 15.5a8.753 8.753 0 0 0 8.753 8.753 1.5 1.5 0 0 0 0-3 5.753 5.753 0 0 1-5.753-5.753 1.5 1.5 0 0 0-3 0zM28.699 25.5a3.198 3.198 0 1 0-6.397 0 3.198 3.198 0 0 0 6.397 0zm3 0a6.198 6.198 0 1 1-12.397 0 6.198 6.198 0 0 1 12.397 0z"/></g></symbol><symbol id="icon-pictures-big" viewbox="0 0 143 142"><g transform="translate(0 -1)"><path d="M74.02 6.498a2.52 2.52 0 1 0-5.039 0 2.52 2.52 0 0 0 5.038 0zm3 0a5.52 5.52 0 1 1-11.039 0 5.52 5.52 0 0 1 11.038 0z" fill="currentColor"/><path d="M74.492 6.89l37.909 31.257a1.5 1.5 0 0 0 1.908-2.314L76.401 4.576a1.5 1.5 0 1 0-1.909 2.315zM66.601 4.574l-37.91 31.258a1.5 1.5 0 1 0 1.908 2.315l37.91-31.259a1.5 1.5 0 1 0-1.908-2.314z" fill="currentColor"/><path d="M135 139.021c2.22 0 4.02-1.8 4.02-4.022V42.511c0-2.221-1.8-4.021-4.02-4.021H8A4.021 4.021 0 0 0 3.98 42.51V135c0 2.222 1.8 4.022 4.022 4.022h126.998zm0 3H8A7.021 7.021 0 0 1 .98 135V42.511A7.021 7.021 0 0 1 8 35.49h126.998a7.021 7.021 0 0 1 7.022 7.021V135a7.021 7.021 0 0 1-7.022 7.022z" fill="currentColor"/><path d="M62.63 102.484a1.5 1.5 0 0 0 2.12 0l28.841-28.84 32.826 32.827a1.5 1.5 0 1 0 2.121-2.121L94.652 70.462a1.5 1.5 0 0 0-2.122 0l-28.84 28.84-13.22-13.22a1.5 1.5 0 0 0-2.12 0L14.461 119.97a1.5 1.5 0 1 0 2.121 2.121L49.41 89.265l13.22 13.22z" fill="currentColor"/><path d="M70 68.735a9.545 9.545 0 0 0-9.545-9.546 9.545 9.545 0 0 0-9.545 9.546 9.545 9.545 0 0 0 9.545 9.545A9.545 9.545 0 0 0 70 68.735zm3 0c0 6.929-5.616 12.545-12.545 12.545S47.91 75.664 47.91 68.735c0-6.93 5.616-12.546 12.545-12.546S73 61.806 73 68.735zM62.63 102.485l26.053 26.053a1.5 1.5 0 0 0 2.12-2.121L64.75 100.363a1.5 1.5 0 0 0-2.12 2.122z" fill="currentColor"/><mask id="b" fill="#fff"><use xlink:href="#a"/></mask><path d="M15.522 128.978a1.5 1.5 0 0 1-1.5-1.5V50.033a1.5 1.5 0 0 1 1.5-1.5h111.955a1.5 1.5 0 0 1 1.5 1.5v77.445a1.5 1.5 0 0 1-1.5 1.5H15.522zm110.455-3V51.533H17.022v74.445h108.955z" fill="currentColor" mask="url(#b)"/></g></symbol><symbol id="icon-register" viewbox="0 0 50 50"><g fill="currentColor"><path d="M18.825 30.8a1.5 1.5 0 1 0-2.122 2.122l4.138 4.139a1.5 1.5 0 0 0 2.122 0L33.63 26.394a1.5 1.5 0 0 0-2.122-2.121l-9.606 9.606-3.077-3.078z"/><path d="M31.834 13.667H38.5c1.013 0 1.834.82 1.834 1.833v26.667A1.834 1.834 0 0 1 38.5 44H11.834A1.834 1.834 0 0 1 10 42.167V15.5c0-1.013.82-1.833 1.834-1.833H18.5a1.5 1.5 0 0 0 0-3h-6.666A4.834 4.834 0 0 0 7 15.5v26.667A4.834 4.834 0 0 0 11.834 47H38.5a4.834 4.834 0 0 0 4.834-4.833V15.5a4.834 4.834 0 0 0-4.834-4.833h-6.666a1.5 1.5 0 0 0 0 3z"/><path d="M30.334 12.167a5.167 5.167 0 1 0-10.335 0 5.167 5.167 0 0 0 10.335 0zm3 0a8.167 8.167 0 1 1-16.335 0 8.167 8.167 0 0 1 16.335 0z"/></g></symbol><symbol id="icon-settings-big" viewbox="0 0 143 143"><g fill="currentColor"><path d="M5.964 137.036c3.951 3.952 10.426 3.952 14.378 0L78.089 79.29c3.95-3.95 3.95-10.426 0-14.377-3.952-3.952-10.427-3.952-14.378 0L5.964 122.659c-3.951 3.95-3.951 10.426 0 14.377zm-2.121 2.122c-5.123-5.123-5.123-13.498 0-18.62L61.59 62.79c5.122-5.122 13.497-5.122 18.62 0 5.123 5.123 5.123 13.498 0 18.62l-57.747 57.748c-5.123 5.122-13.498 5.122-18.62 0z"/><path d="M132.94 3.311l6.749 6.75-9.921 20.75-14.66 3.522a1.5 1.5 0 0 0-.71.397L81.06 68.067a1.5 1.5 0 0 0 2.121 2.122l33.04-33.038 14.942-3.59a1.5 1.5 0 0 0 1.003-.81l10.687-22.354a1.5 1.5 0 0 0-.293-1.708L134.31.44a1.5 1.5 0 0 0-1.707-.292l-22.354 10.687a1.5 1.5 0 0 0-.812 1.003L105.85 26.78 72.81 59.818a1.5 1.5 0 0 0 2.121 2.122l33.337-33.338a1.5 1.5 0 0 0 .398-.71l3.52-14.66 20.752-9.92zM9.383 117.118l16.499 16.5a1.5 1.5 0 1 0 2.121-2.122l-16.499-16.499a1.5 1.5 0 1 0-2.121 2.121zM56.05 70.452L72.547 86.95a1.5 1.5 0 0 0 2.122-2.121l-16.5-16.5a1.5 1.5 0 0 0-2.12 2.122z"/><path d="M61.55 73.83l-46.668 46.667a1.5 1.5 0 1 0 2.121 2.122L63.67 75.952a1.5 1.5 0 0 0-2.12-2.122zM67.049 79.33l-46.667 46.667a1.5 1.5 0 1 0 2.121 2.121L69.17 81.451a1.5 1.5 0 0 0-2.121-2.121zM35 24.833c0-5.615-4.552-10.167-10.167-10.167-5.614 0-10.166 4.552-10.166 10.167S19.22 35 24.833 35C30.448 35 35 30.448 35 24.833zm3 0C38 32.105 32.105 38 24.833 38c-7.271 0-13.166-5.895-13.166-13.167 0-7.271 5.895-13.167 13.166-13.167C32.105 11.666 38 17.561 38 24.833z"/><path d="M46.209 37.43a24.674 24.674 0 0 0 3.458-12.597C49.667 11.118 38.55 0 24.833 0 11.118 0 0 11.118 0 24.833c0 13.715 11.118 24.833 24.833 24.833 4.478 0 8.788-1.207 12.598-3.457a1.5 1.5 0 1 0-1.526-2.583 21.685 21.685 0 0 1-11.072 3.04C12.775 46.666 3 36.891 3 24.833 3 12.775 12.775 3 24.833 3c12.059 0 21.834 9.775 21.834 21.833 0 3.934-1.06 7.72-3.041 11.071a1.5 1.5 0 1 0 2.583 1.526zM133.25 114.63l-5.773-5.774c-5.142-5.142-13.479-5.142-18.62 0-5.143 5.142-5.143 13.478 0 18.62l5.773 5.774-6.128 6.129-5.774-5.775c-7.077-7.076-8.375-17.997-3.352-26.509a1.5 1.5 0 0 0-2.584-1.524c-5.713 9.682-4.236 22.104 3.814 30.155l6.835 6.835a1.5 1.5 0 0 0 2.122 0l8.249-8.25a1.5 1.5 0 0 0 0-2.122l-6.834-6.834c-3.97-3.97-3.97-10.407 0-14.378 3.97-3.97 10.407-3.97 14.377 0l6.834 6.835a1.5 1.5 0 0 0 2.121 0l8.25-8.25a1.5 1.5 0 0 0 0-2.12l-6.833-6.835c-8.052-8.051-20.473-9.528-30.156-3.816a1.5 1.5 0 0 0 1.524 2.584c8.513-5.022 19.433-3.723 26.51 3.353l5.774 5.774-6.129 6.128z"/><path d="M31.833 26.333H36.5a1.5 1.5 0 0 0 0-3h-4.667a1.5 1.5 0 0 0 0 3zM13.167 26.333h4.667a1.5 1.5 0 0 0 0-3h-4.667a1.5 1.5 0 0 0 0 3zM23.333 31.833V36.5a1.5 1.5 0 0 0 3 0v-4.667a1.5 1.5 0 0 0-3 0zM23.333 13.166v4.667a1.5 1.5 0 0 0 3 0v-4.667a1.5 1.5 0 0 0-3 0zM107.394 97.022L83.42 73.05a1.5 1.5 0 1 0-2.121 2.122l23.973 23.972a1.5 1.5 0 1 0 2.12-2.122zM43.857 37.728L67.829 61.7a1.5 1.5 0 0 0 2.121-2.121L45.978 35.607a1.5 1.5 0 0 0-2.121 2.121zM74.564 84.935l22.46 22.459a1.5 1.5 0 1 0 2.12-2.122L76.687 82.813a1.5 1.5 0 0 0-2.122 2.122zM60.187 66.314L37.729 43.856a1.5 1.5 0 0 0-2.122 2.122l22.458 22.458a1.5 1.5 0 0 0 2.122-2.122z"/></g></symbol><symbol id="icon-stories-big" viewbox="0 0 143 143"><g fill="currentColor"><path d="M116.667 1.497v127.429a1.5 1.5 0 0 0 3 0V1.496a1.5 1.5 0 0 0-3 0zM13.167 142.01h116.667a1.5 1.5 0 0 0 0-3H13.167a1.5 1.5 0 0 0 0 3zM48.167 26.165h35a1.5 1.5 0 0 0 0-3h-35a1.5 1.5 0 1 0 0 3zM13.167 118.84a1.5 1.5 0 0 1-1.5-1.5V94.173a1.5 1.5 0 0 1 1.5-1.5H36.5a1.5 1.5 0 0 1 1.5 1.5v23.169a1.5 1.5 0 0 1-1.5 1.5H13.167zm1.5-3H35V95.673H14.667v20.169zM13.167 72.504a1.5 1.5 0 0 1-1.5-1.5V24.665a1.5 1.5 0 0 1 1.5-1.5H36.5a1.5 1.5 0 0 1 1.5 1.5v46.339a1.5 1.5 0 0 1-1.5 1.5H13.167zm1.5-3H35V26.165H14.667v43.339zM48.167 72.504h35a1.5 1.5 0 1 0 0-3h-35a1.5 1.5 0 0 0 0 3zM48.167 49.335H106.5a1.5 1.5 0 0 0 0-3H48.167a1.5 1.5 0 0 0 0 3zM48.167 60.919H106.5a1.5 1.5 0 0 0 0-3H48.167a1.5 1.5 0 0 0 0 3zM48.167 84.088H106.5a1.5 1.5 0 0 0 0-3H48.167a1.5 1.5 0 1 0 0 3zM48.167 95.673H106.5a1.5 1.5 0 0 0 0-3H48.167a1.5 1.5 0 0 0 0 3zM48.167 107.257H106.5a1.5 1.5 0 0 0 0-3H48.167a1.5 1.5 0 0 0 0 3zM48.167 118.842H106.5a1.5 1.5 0 1 0 0-3H48.167a1.5 1.5 0 0 0 0 3z"/><path d="M118.167-.003H1.5a1.5 1.5 0 1 0 0 3h116.667a1.5 1.5 0 0 0 0-3zM140 128.926c0 5.567-4.55 10.085-10.166 10.085-5.618 0-10.167-4.518-10.167-10.085a1.5 1.5 0 0 0-3 0c0 7.229 5.897 13.085 13.167 13.085 7.269 0 13.166-5.856 13.166-13.085V13.081a1.5 1.5 0 0 0-1.5-1.5h-23.333a1.5 1.5 0 0 0 0 3H140v114.345zM0 128.926c0 7.229 5.897 13.085 13.167 13.085a1.5 1.5 0 0 0 0-3C7.549 139.01 3 134.493 3 128.926a1.5 1.5 0 0 0-3 0z"/><path d="M3 128.926V1.496a1.5 1.5 0 0 0-3 0v127.43a1.5 1.5 0 0 0 3 0z"/></g></symbol><symbol id="icon-themes" viewbox="0 0 50 50"><g fill="currentColor"><path d="M11.65 21.625c0-7.608 6.167-13.775 13.775-13.775 7.607 0 13.775 6.167 13.775 13.775a1.425 1.425 0 1 0 2.85 0C42.05 12.443 34.606 5 25.425 5 16.243 5 8.8 12.443 8.8 21.625a1.425 1.425 0 1 0 2.85 0z"/><path d="M7.85 23.05v11.875A8.075 8.075 0 0 0 15.925 43h19A8.075 8.075 0 0 0 43 34.925V23.05H7.85zm38-1.425v13.3c0 6.034-4.891 10.925-10.925 10.925h-19C9.89 45.85 5 40.958 5 34.925v-13.3c0-.787.638-1.425 1.425-1.425h38c.787 0 1.425.638 1.425 1.425z"/><path d="M5.417 26.433l7.6 7.6a1.425 1.425 0 0 0 2.016-2.016l-7.6-7.6a1.425 1.425 0 1 0-2.016 2.016z"/><path d="M26.432 43.417l-11.4-11.4a1.425 1.425 0 0 0-2.015 2.015l11.4 11.4a1.425 1.425 0 0 0 2.015-2.015zM44.244 38.429l-6.411-6.412a1.425 1.425 0 1 0-2.016 2.015l6.411 6.412a1.425 1.425 0 1 0 2.016-2.015z"/><path d="M24.417 22.632l11.4 11.4a1.425 1.425 0 0 0 2.015-2.015l-11.4-11.4a1.425 1.425 0 0 0-2.015 2.015zM8.621 40.444l6.411-6.412a1.425 1.425 0 1 0-2.015-2.015l-6.411 6.412a1.425 1.425 0 0 0 2.015 2.015z"/><path d="M15.033 34.032l11.4-11.4a1.425 1.425 0 0 0-2.016-2.015l-11.4 11.4a1.425 1.425 0 0 0 2.016 2.015zM26.432 45.432l11.4-11.4a1.425 1.425 0 0 0-2.015-2.015l-11.4 11.4a1.425 1.425 0 0 0 2.015 2.015z"/><path d="M37.832 34.032l7.6-7.6a1.425 1.425 0 0 0-2.015-2.015l-7.6 7.6a1.425 1.425 0 0 0 2.015 2.015z"/></g></symbol><symbol id="icon-user" viewbox="0 0 50 50"><g fill="currentColor"><path d="M25.564 42.082c3.944 0 7.633-1.758 10.064-4.716 2.589 1.282 5.6 2.36 9.253 3.251 1.517.35 2.245 2.13 2.245 4.883a1.5 1.5 0 0 0 3 0c0-4-1.243-7.038-4.552-7.802-3.949-.963-7.065-2.147-9.674-3.57a1.5 1.5 0 0 0-1.973.494c-1.814 2.769-4.961 4.46-8.363 4.46-3.403 0-6.55-1.69-8.366-4.46a1.5 1.5 0 0 0-1.973-.495c-2.607 1.423-5.724 2.608-9.692 3.576C2.243 38.462 1 41.5 1 45.5a1.5 1.5 0 0 0 3 0c0-2.753.728-4.533 2.226-4.879 3.67-.894 6.684-1.974 9.272-3.255 2.432 2.958 6.12 4.716 10.066 4.716zM33.935 20.808c.114-1.165.142-2.317.103-3.35a16.004 16.004 0 0 0-.064-.986 4.357 4.357 0 0 0-.026-.218c.076.48.047.357.387.7a1.5 1.5 0 0 1-.434-1.055c-.172-4.061-1.555-6.494-3.774-7.81-1.474-.873-3.2-1.168-4.456-1.077l-.107.004h-.438c-1.487 0-3.134.38-4.536 1.317-2.037 1.363-3.301 3.74-3.474 7.457v.109c0 .059-.04.53-.054.767-.136 2.226-.02 4.693.538 7.006.476 1.974 1.236 3.6 2.28 4.754 1.403 1.497 3.219 2.259 5.574 2.259h.219c2.446 0 4.207-.716 5.536-2.218 1.532-1.785 2.414-4.485 2.726-7.66zm2.985.293c-.366 3.736-1.431 6.991-3.443 9.33-1.94 2.198-4.53 3.253-7.804 3.253h-.22c-3.171 0-5.783-1.095-7.78-3.225-1.438-1.59-2.404-3.66-2.99-6.084-.638-2.651-.768-5.394-.615-7.892.021-.353.048-.671.048-.585l.001-.178c.217-4.712 1.953-7.972 4.805-9.88 1.966-1.315 4.174-1.824 6.204-1.824h.386c1.808-.119 4.1.281 6.144 1.493 3.114 1.845 5.028 5.211 5.245 10.28v.11c.217 1.221.213 3.223.02 5.202z"/><path d="M18.673 29.948c-.554 1.246-1.733 2.667-3.705 4.357a1.5 1.5 0 1 0 1.952 2.278c2.282-1.955 3.733-3.705 4.494-5.417a1.5 1.5 0 1 0-2.74-1.218zM36.158 34.305c-1.957-1.678-3.132-3.091-3.692-4.333a1.5 1.5 0 0 0-2.735 1.234c.767 1.699 2.211 3.436 4.474 5.377a1.5 1.5 0 1 0 1.953-2.278z"/></g></symbol><symbol id="icon-wait" viewbox="0 0 50 50"><g fill="currentColor"><path d="M41.476 6H9.524v1.833c0 .485.188.947.538 1.296l7.271 7.272v-3.526a1.5 1.5 0 0 1 3 0V19.4l1.681 1.682a4.835 4.835 0 0 1 0 6.835L10.061 39.87c-.35.35-.537.811-.537 1.296V43h31.952v-1.833a1.82 1.82 0 0 0-.538-1.296L28.986 27.917a4.835 4.835 0 0 1 0-6.835l1.681-1.681v-6.526a1.5 1.5 0 0 1 3 0V16.4l7.273-7.273c.348-.348.536-.81.536-1.295V6zm3 0v1.833a4.813 4.813 0 0 1-1.417 3.418L31.108 23.203a1.835 1.835 0 0 0 0 2.593l11.95 11.952a4.818 4.818 0 0 1 1.418 3.419V43H45.5a1.5 1.5 0 0 1 0 3h-40a1.5 1.5 0 0 1 0-3h1.024v-1.833c0-1.273.498-2.5 1.417-3.418l11.951-11.952a1.835 1.835 0 0 0 0-2.593L7.943 11.252a4.815 4.815 0 0 1-1.418-3.42V6H5.5a1.5 1.5 0 0 1 0-3h40a1.5 1.5 0 0 1 0 3h-1.024z"/><path d="M24 12.875v6a1.5 1.5 0 0 0 3 0v-6a1.5 1.5 0 0 0-3 0z"/></g></symbol><symbol id="icon-wheel" viewbox="0 0 90 90"><g fill="none" fill-rule="evenodd"><path d="M43.012 72.209V53.727c0-.037-.008-.072-.011-.107a8.847 8.847 0 0 0 1.999.235c.688 0 1.355-.086 1.999-.235-.003.036-.011.07-.011.107v18.482c-.657.048-1.32.081-1.988.081-.67 0-1.33-.033-1.988-.081zm3.976-54.418v18.482c0 .037.008.071.01.107A8.847 8.847 0 0 0 45 36.145c-.688 0-1.355.086-2 .235.004-.036.012-.07.012-.107V17.791A27.268 27.268 0 0 1 45 17.71c.669 0 1.33.033 1.988.081zm6.739 29.197c-.037 0-.071.009-.107.011A8.848 8.848 0 0 0 53.856 45c0-.688-.087-1.355-.236-1.999.036.003.07.011.107.011H72.21c.047.657.08 1.319.08 1.988s-.033 1.331-.081 1.988H53.727zM50.24 57.653l9.984 9.984a27.134 27.134 0 0 1-9.984 4.142V57.653zm0-25.306V18.221c3.636.71 7.017 2.14 9.984 4.142l-9.984 9.984zm21.539 7.412H57.653l9.984-9.984a27.152 27.152 0 0 1 4.143 9.984zm-6.143-12.584l-13.06 13.059c-.026.027-.046.059-.071.088a8.906 8.906 0 0 0-2.827-2.827c.028-.025.06-.046.086-.072l13.06-13.06a27.344 27.344 0 0 1 2.812 2.812zM39.397 45A5.61 5.61 0 0 1 45 39.397 5.61 5.61 0 0 1 50.603 45 5.61 5.61 0 0 1 45 50.603 5.61 5.61 0 0 1 39.398 45zm.362 12.653v14.126a27.122 27.122 0 0 1-9.983-4.142l9.983-9.984zm-3.485-14.641c.037 0 .07-.008.107-.011A8.848 8.848 0 0 0 36.145 45c0 .688.087 1.355.236 1.999-.036-.002-.07-.011-.107-.011H17.792A27.245 27.245 0 0 1 17.71 45c0-.669.033-1.331.08-1.988h18.483zm3.485-10.665l-9.984-9.984a27.134 27.134 0 0 1 9.984-4.142v14.126zm-12.584-7.984l13.059 13.058c.027.028.059.049.088.074a8.916 8.916 0 0 0-2.827 2.827c-.025-.029-.045-.061-.073-.089L24.364 27.174a27.526 27.526 0 0 1 2.81-2.811zm-4.811 5.412l9.984 9.984H18.22a27.152 27.152 0 0 1 4.143-9.984zm-4.142 20.466h14.126l-9.984 9.984a27.134 27.134 0 0 1-4.142-9.984zm6.142 12.584l13.059-13.059c.027-.027.048-.059.073-.088a8.913 8.913 0 0 0 2.826 2.827c-.028.025-.06.046-.087.073l-13.06 13.059a27.536 27.536 0 0 1-2.811-2.812zm38.46 2.812l-13.06-13.061c-.026-.026-.058-.046-.086-.071a8.906 8.906 0 0 0 2.827-2.827c.025.029.046.06.072.087l13.06 13.06a27.445 27.445 0 0 1-2.812 2.812zm4.813-5.412l-9.984-9.984h14.126a27.134 27.134 0 0 1-4.142 9.984zM45 14.458c-16.841 0-30.542 13.701-30.542 30.542S28.158 75.542 45 75.542c16.842 0 30.543-13.701 30.543-30.542S61.842 14.458 45 14.458z" fill="currentColor"/><mask id="b" fill="#fff"><use xlink:href="#a"/></mask><path d="M86.747 46.988h-4.029a38.564 38.564 0 0 0 0-3.976h4.03v3.976zm-10.82 26.126l-2.814 2.811-2.862-2.863a38.049 38.049 0 0 0 2.811-2.812l2.864 2.864zM46.987 86.747h-3.976v-4.029a37.43 37.43 0 0 0 3.976 0v4.03zM16.886 75.925l-2.81-2.81 2.862-2.864a38.23 38.23 0 0 0 2.811 2.811l-2.863 2.863zM3.253 46.988v-3.976h4.03a37.417 37.417 0 0 0 0 3.976h-4.03zm10.822-30.103l2.811-2.81 2.863 2.863a38.035 38.035 0 0 0-2.81 2.811l-2.864-2.864zM43.012 3.253h3.976v4.028a38.555 38.555 0 0 0-3.976 0V3.253zm30.101 10.821l2.813 2.811-2.864 2.864a38.049 38.049 0 0 0-2.812-2.81l2.863-2.865zM45 79.518c-19.034 0-34.518-15.484-34.518-34.519 0-19.033 15.484-34.517 34.518-34.517 19.033 0 34.518 15.484 34.518 34.517 0 19.035-15.485 34.52-34.518 34.52zM88.373 39.76H82.4a37.584 37.584 0 0 0-7.256-17.49l4.233-4.234a1.623 1.623 0 0 0 0-2.299l-5.113-5.112a1.625 1.625 0 0 0-2.3 0l-4.232 4.233A37.596 37.596 0 0 0 50.241 7.6V1.626C50.241.728 49.512 0 48.614 0h-7.229c-.898 0-1.626.728-1.626 1.626V7.6a37.596 37.596 0 0 0-17.49 7.257l-4.233-4.233a1.625 1.625 0 0 0-2.3 0l-5.112 5.112a1.625 1.625 0 0 0 0 2.3l4.233 4.232A37.588 37.588 0 0 0 7.601 39.76H1.626C.728 39.76 0 40.487 0 41.385v7.23c0 .897.728 1.626 1.626 1.626h5.975a37.584 37.584 0 0 0 7.256 17.49l-4.233 4.233a1.627 1.627 0 0 0 0 2.3l5.112 5.112a1.63 1.63 0 0 0 2.3 0l4.232-4.233A37.577 37.577 0 0 0 39.76 82.4v5.974c0 .898.728 1.627 1.626 1.627h7.23c.897 0 1.626-.729 1.626-1.627V82.4a37.576 37.576 0 0 0 17.49-7.258l4.232 4.234a1.624 1.624 0 0 0 2.3 0l5.113-5.112a1.627 1.627 0 0 0 0-2.3l-4.233-4.233a37.584 37.584 0 0 0 7.256-17.49h5.974c.898 0 1.627-.729 1.627-1.627v-7.229c0-.898-.729-1.626-1.627-1.626z" fill="currentColor" mask="url(#b)"/></g></symbol></svg>