<svg xmlns="http://www.w3.org/2000/svg" viewBox="0 0 277.5 299.40001"><path d="M76.5,257.40001c-3,.60001-6.29999.89999-9,.89999C30.60001,258.3,0,227.7,0,190.8c0-14.39999,5.39999-29.70001,14.10001-41.10001C5.40001,138.59999,0,122.40001,0,108.59999,0,71.39998,30.60001,41.09999,67.79999,41.09999c3,0,5.70001,0,8.70001.60001C86.39999,16.8,111.60001,0,138.89999,0s52.20001,16.5,62.10001,41.7c3-.60001,6-.60001,9-.60001,38.10001,0,67.5,31.20001,67.5,67.5,0,14.10001-5.39999,29.70001-14.10001,41.10001,9,11.70001,14.10001,26.70001,14.10001,41.10001,0,37.79999-31.79999,67.5-67.20001,67.5-3.29999,0-6-.29999-9.29999-.89999-10.20001,26.10001-35.70001,42-62.10001,42s-52.5-17.10001-62.39999-42ZM67.5,226.8c8.70001,0,12.60001-2.10001,32.70001-10.79999,5.10001,37.79999,13.5,52.20001,38.70001,52.20001s33.60001-15.29999,38.10001-52.20001c21.60001,9.29999,24.29999,10.79999,33,10.79999,20.10001,0,36-16.20001,36-36.29999,0-17.10001-6.60001-22.79999-30.29999-40.79999,24.60001-18.89999,30.29999-24.29999,30.29999-40.79999,0-20.10001-15.89999-36.29999-36-36.29999-9,0-12.60001,2.10001-33,10.5-4.5-37.2-13.20001-51.60001-38.10001-51.60001s-33.89999,15-38.70001,51.60001c-21.29999-9-24.29999-10.5-32.70001-10.5-19.5,0-36,15.29999-36,35.70001,0,17.39999,6.89999,23.10001,30.29999,41.39999-24.3,18.60001-30.3,24.29999-30.3,41.10001,0,21,17.09999,36,36.00002,36v-.00006ZM138.89999,90.00002c32.70001,0,59.70001,27,59.70001,59.70001s-27,59.70001-59.70001,59.70001-59.70001-26.70001-59.70001-59.70001,26.70001-59.70001,59.70001-59.70001ZM138.89999,177.90001c15.60001,0,28.20001-12.60001,28.20001-28.20001s-12.60001-28.20001-28.20001-28.20001-28.20001,12.60001-28.20001,28.20001,12.60001,28.20001,28.20001,28.20001Z" /></svg>