<svg xmlns="http://www.w3.org/2000/svg" viewBox="0 0 355.19998 299.40002"><path d="M38.40001,250.20001v-47.70001C16.20001,195.60001,0,174.89999,0,150.60001s16.2-45,38.39999-51.60001V27.89999l57.29999,20.10001C112.19998,18.3,143.39999,0,177.59998,0s64.80002,18,81.89999,48l57-20.10001v71.10001c22.5,6.60001,38.70001,27.29999,38.70001,51.60001s-16.20001,45-38.70001,51.89999v47.70001l-138.89996,49.20001-139.2-49.20001ZM54.3,173.10001c12.60001,0,22.8-9.89999,22.8-22.5s-10.2-22.5-22.8-22.5-22.8,10.20001-22.8,22.5,10.2,22.5,22.8,22.5ZM162,260.39999V104.70001l-92.09999-32.39999v26.70001c22.2,6.60001,38.40001,27.29999,38.40001,51.60001s-16.20001,45-38.39999,51.89999v25.5l92.10001,32.39999-.00003-.00003ZM177.60001,77.10001l51.29999-18.3c-11.10001-16.8-30.29999-27.60001-51.29999-27.60001s-40.20001,10.8-51.29999,27.60001l51.29999,18.3ZM285.30002,228v-25.5c-22.20001-6.89999-38.39999-27.60001-38.39999-51.89999s16.20001-45,38.39999-51.60001v-26.69998l-92.10001,32.39999v155.69998l92.10001-32.39999ZM301.20001,173.10001c12.29999,0,22.5-9.89999,22.5-22.5s-10.20001-22.5-22.5-22.5-22.79999,10.20001-22.79999,22.5,10.20001,22.5,22.79999,22.5Z" /></svg>