<svg xmlns="http://www.w3.org/2000/svg" viewBox="0 0 322.49997 299.39998"><path d="M20.10001,105.90001l17.7,17.70001-19.8,20.10001L0,125.70003l20.10001-19.79999v-.00003ZM54.60001,38.10001l13.20001-13.2c17.39999-15,42.29999-17.7,68.39999-15.89999,1.20001,33.60001-1.20001,54-15.89999,68.70001l-13.20001,13.5-10.20001,44.10001-17.39999-17.39999-14.39999,14.70001L12,79.50005l14.7-14.39999-16.8-17.10001,44.7-9.89999.00002-.00005ZM55.5,161.7c6,60.29999,56.70001,106.5,117.60001,106.5,65.10001,0,118.19998-53.10001,118.19998-118.5S237.29999,31.2,173.09998,31.2V0c82.20001,0,149.39999,66.59999,149.39999,149.7s-68.10001,149.69998-149.39999,149.69998c-76.79999,0-141-57.89999-148.8-134.10001l31.2-3.60001.00003.00003ZM65.10001,96.89998l37.5-37.2c6.60001-6.60001,7.5-15.3,8.10001-24.89999-9.89999.89999-18.60001,3-25.79999,8.7l-36.89999,36.29999,17.10001,17.10001h-.00003ZM173.10001,95.39998c30,0,54.29999,24.29999,54.29999,54.29999s-24.29999,54.29999-54.29999,54.29999-54.60001-24.29999-54.60001-54.29999,24.60001-54.29999,54.60001-54.29999ZM173.10001,178.79997c15.89999,0,29.10001-12.89999,29.10001-29.10001s-13.20001-29.10001-29.10001-29.10001-29.39999,12.89999-29.39999,29.10001,13.20001,29.10001,29.39999,29.10001Z" /></svg>