<svg xmlns="http://www.w3.org/2000/svg" viewBox="0 0 592.10672 572.39001"><path d="M409.53,369.92001v108.73999h53.68997c8.1756-27.8443,33.76038-46.94119,62.78003-46.85999,36.43701,1.00336,65.16162,31.35477,64.15826,67.79175-.96454,35.02634-29.13196,63.1937-64.15826,64.15823-29.58002,0-54.59998-20-62.78998-46.40997h-91.89999v-147.42001h-60.06c13.65125,24.48792,20.85345,52.04416,20.92999,80.07999v122.39001H0v-122.39001c0-56.88,29.58-107.84,73.71-137.87-16.19904-20.45999-25.0089-45.79364-25-71.89,0-65.06,52.29-116.92,117.39001-116.92,64.40173-.16039,116.73965,51.91751,116.90005,116.31923.00049.20026.00046.40051-.00006.60077,0,27.3-9.10001,52.33-25,71.89,8.38596,5.72577,16.2981,12.11633,23.66,19.10999h89.63998v-148.77998h91.90997c8.17004-27.85385,33.76282-46.95772,62.79004-46.87,36.45081,0,66,29.54921,66,66.00002s-29.54919,66-66,66c-29.58002,0-54.59998-20-62.78998-46.41h-53.67999v110.06h53.69c7.96503-28.0549,33.61639-47.38943,62.77997-47.32001,36.45074-.05896,66.04773,29.44244,66.10663,65.89319.05896,36.45074-29.44238,66.0477-65.89313,66.10663-28.78528.04657-54.28064-18.56799-63.00348-45.99982h-53.68002ZM283,450c0-44.14001-26.85001-86.45001-66.42999-105.10999-15,8.19-32.31,12.29001-50.50999,12.29001s-35.94-4.10001-51-12.29001c-40.49001,20-66,60.51999-66,105.10999v73.25h233.93999v-73.25ZM97.85001,240.24c0,39.12999,32.31,68.24998,68.25,68.24998,37.63815.05527,68.19473-30.41168,68.25-68.04987.00009-.06671.00009-.13342,0-.20013,0-39.13-31.85001-68.25-68.25-68.25-37.64369-.04974-68.20026,30.42619-68.25,68.06989-.00008.06004-.00008.12007,0,.18011v.00002ZM224.34,55.06c0-31.85,23.66-55.06,53.23999-55.06,16.42001,0,31.42001,7.32,42.31003,18.66l-12.73999,12.74c-9.54999-9.1-20-12.29-29.12-12.29-19.56,0-34.12,13.65-34.12,35.95,0,21.84,14.10001,35.94,33.66998,35.94,11.37,0,22.75-5,30.94-11.83l10.92001,12.74c-10.92001,10.92-26.38998,18.2-42.32001,18.2-29.12,0-52.78-23.2-52.78-55.05h-.00003ZM369.94,107.38h-31.85001V.91h31.85001c33.66998,0,58.23999,22.3,58.23999,53.24s-24.57001,53.23-58.23999,53.23ZM369.94,19.57h-12.73999v68.75h12.73999c24.12,0,38.67999-13.19,38.67999-35,0-20.1-15.01999-33.75-38.67999-33.75ZM468.21997,107.38h-19.10999V.91h19.10999v44.59h49.59998V.91h19.56v106.47h-19.56v-44.13h-49.59998v44.13ZM498.21997,201.57c-.0943,15.23172,12.177,27.65591,27.40875,27.7502.12378.00076.2475.0007.37128-.0002,15.46997,0,27.29999-12.74001,27.29999-27.75,0-15.47-11.83002-27.75999-27.29999-27.75999-15.23175-.09421-27.65582,12.17715-27.75006,27.40887-.00073.11705-.00073.23409.00006.35112h-.03003ZM498.21997,349.90002c-.0943,15.23172,12.17706,27.65588,27.40875,27.75018.12378.00076.2475.0007.37128-.00021,15.46997,0,27.29999-12.28,27.29999-27.75,0-15-12.28998-27.76001-27.29999-27.76001-15.30249.06577-27.68976,12.45752-27.75,27.76001l-.03003.00003ZM498.21997,497.77002c.06036,15.31415,12.46582,27.71069,27.78003,27.76001,15.46997,0,27.29999-12.73999,27.29999-27.76001,0-15.47-11.83002-27.75-27.29999-27.75-15.22614-.09973-27.65027,12.16266-27.75,27.38882-.00079.12039-.00079.24078,0,.36118h-.03003Z" /></svg>