<svg xmlns="http://www.w3.org/2000/svg" viewBox="0 0 499.05 577.39499"><path d="M0,.94001h19.11v106.47H0V.94001ZM45.05,350.35001c0-125.58,101.92-227,227-227s227,101.45999,227,227c0,125.39349-101.65152,227.04498-227.04498,227.04498S44.96001,475.7435,44.96001,350.35001h.09ZM47.32,55.06C47.32,23.21,70.98,0,100.56,0c16.38,0,31.39,7.28,42.31,18.66l-12.74001,12.77c-9.55-9.1-20-12.29-29.12-12.29-19.56,0-34.14999,13.65-34.14999,35.95,0,21.84,14.10001,35.94,33.67,35.94,11.37,0,22.75-5,30.94-11.83l10.92,12.74c-10.92,10.92-26.39,18.2-42.32001,18.2-29.09,0-52.75-23.2-52.75-55.05v-.03ZM178.31999,330.79001c2.28-61.42999,16.38-115.57001,37.31-149.24001-66.42999,22.28999-114.2,81.00002-120.57001,149.24001h83.26001ZM178.31999,369.46h-83.22c5.46001,66,62.33,139.22998,120.57001,149.23999-20.92999-33.64001-35.03-87.35001-37.31-149.21002l-.04001-.02997ZM327.11,330.79001c-2.25-51.84-20.89001-142.39-55.01999-155.58-35.94,14.10001-53.23001,105.99998-55.51001,155.61l110.53-.03ZM327.11,369.46h-110.53c2.28,49.14001,20,142,55.51001,156.07001,35.48999-13.62,52.76999-106.89999,55.06-156.03998l-.04001-.03003ZM449.05,330.79001c-8.19-75.5-52.29001-120.55-120.54001-149.21001,20.48001,34.12,35,87.80998,36.86002,149.24001l83.67999-.03ZM449.05,369.46h-83.67999c-1.82001,61.88-16.38,116-36.85999,149.23999,60.97-12.71002,112.83997-81.41,120.58002-149.21002l-.04004-.02997Z" /></svg>