<svg xmlns="http://www.w3.org/2000/svg" viewBox="0 0 292.49994 299.39999"><path d="M29.10001,233.40002c0-3.60001.3-6.89999.89999-10.20001C11.39999,210.30002,0,189.60001,0,168.30002c0-12.29999,4.5-26.39999,11.7-36.60001-2.7-2.70001-5.10001-14.70001-5.10001-22.5,0-24.60001,13.2-48.60001,35.09999-61.8C47.69998,20.10001,71.99997,0,101.09998,0c17.70001,0,33.89999,7.8,45,19.8C157.19998,7.8,173.39996,0,191.39996,0c29.10001,0,53.39999,20.39999,59.39999,47.39999,21.89999,13.2,34.79999,37.20001,34.79999,61.79999,0,7.79999-2.39999,19.79999-5.10001,22.5,7.20001,10.20001,12,24.29999,12,36.60001,0,21.29999-11.70001,42-30,55.20001.29999,3.29999.60001,6.60001.60001,9.89999,0,37.20001-30.60001,66-66.29999,66-20.39999,0-38.39999-9-50.70001-23.39999-12.29999,14.39999-30.29999,23.39999-50.70001,23.39999-35.70001,0-66.3-28.79999-66.3-66l.00008.00003ZM42.60001,193.20001c12-15.89999,31.20001-26.10001,52.79999-26.10001v31.20001c-19.20001,0-34.79999,15.89999-34.79999,35.10001s15.60001,34.79999,34.79999,34.79999,35.10001-15.89999,35.10001-34.79999V60.60002c0-16.2-13.20001-29.39999-29.39999-29.39999s-29.39999,13.2-29.39999,29.39999,12.89999,29.7,29.39999,29.7v31.20001c-24.60001,0-45.89999-14.70001-55.5-36-4.8,6.89999-7.5,15-7.5,23.39999,0,10.5,2.39999,16.20001,12.3,29.10001-13.8,12.29999-18.89999,18-18.89999,30,0,9.60001,4.2,18.60001,11.10001,25.20001l-.00002-.00003ZM196.80002,268.20001c19.20001,0,35.10001-15.89999,35.10001-34.79999s-15.90002-35.10001-35.10001-35.10001v-31.20001c21.60001,0,40.79999,10.20001,52.79999,26.10001,7.20001-6.60001,11.39999-15.60001,11.39999-25.20001,0-12-5.39999-17.70001-19.20001-30,9.89999-12.89999,12.60001-18.60001,12.60001-29.10001,0-8.39999-2.70001-16.5-7.5-23.10001-9.60001,21-30.89999,35.70001-55.5,35.70001v-31.19998c16.20001,0,29.39999-13.5,29.39999-29.7s-13.20001-29.39999-29.39999-29.39999-29.39999,13.2-29.39999,29.39999v172.8c0,18.89999,15.60001,34.79999,34.79999,34.79999h.00003Z" /></svg>