<svg xmlns="http://www.w3.org/2000/svg" viewBox="0 0 390.60005 296.10004"><path d="M390.59999,234h-39l-.60001,3.60001c-6.29999,32.70001-36,58.5-72,58.5s-63.89999-24-71.10001-57c0-.89999-.29999-2.10001-.60001-3.29999-6.89999-5.70001-17.39999-5.70001-24.29999,0-.29999,1.20001-.60001,2.39999-.60001,3.60001-7.20001,32.39999-36.29999,56.70001-70.79999,56.70001s-64.8-24.89999-71.39999-57.60001c-.60001-1.5-.89999-3-1.2-4.5H0V0h31.5v202.5h9.89999c9-30.29999,36.90001-52.5,70.2-52.5s60.60001,21.89999,69.60001,51.89999c9.89999-2.39999,18-2.39999,28.20001.29999,8.70001-30.29999,36.60001-52.20001,69.60001-52.20001s60.89999,22.20001,70.20001,52.5h9.90002V0h31.5v234h-.00006ZM111.59999,264.89999c22.5,0,41.39999-18.29999,41.39999-41.70001s-19.20001-41.70001-41.39999-41.70001c-23.39999,0-41.7,18.29999-41.7,41.70001s18.3,41.70001,41.7,41.70001ZM278.99998,264.89999c22.79999,0,41.70001-18.29999,41.70001-41.70001s-19.20001-41.70001-41.70001-41.70001-41.70001,18.89999-41.70001,41.70001,18.89999,41.70001,41.70001,41.70001Z" /></svg>