<svg xmlns="http://www.w3.org/2000/svg" viewBox="0 0 700 600"><path d="M630.05 140v193.37l-90.09.45v249.34H289.71V486.7H182.79V329.27H70V140Zm-447.26 47.77h-65.07V282h65.07Zm202.93 251.16V187.77H230.56v251.16Zm-34.13-100.56c0 21.84-13.65 35.49-30.94 40v26.43h-29.12v-26.39c-11.37-2.27-21.84-8.19-31.39-16.38l13.65-22.75c9.1 8.19 20.47 14.11 31.85 14.11 9.1 0 16.83-5 16.83-12.74 0-20.48-56-14.56-56-56.42 0-18.66 10.92-31.4 26.39-36.4v-27.76h29.57V246c9.56 1.36 18.66 5.91 28.21 13.19l-15 21.84c-6.83-5.91-15-10.46-24.12-10.46-8.64 0-14.56 5-14.56 11.37.04 19.12 54.63 13.66 54.63 56.43ZM492.19 277h-58.7v209.7h-96v48.69h154.7Zm90.09-89.18H433.49v41.4H540v56.88l42.32-.46Z"/></svg>