<svg xmlns="http://www.w3.org/2000/svg" viewBox="0 0 158.10001 299.39996"><path d="M.00003,220.49997C.00003,179.39996,31.80002,148.19998,63.00003,143.39996v-15.29999H29.40002v-31.5h33.60001v-36.89999l-21.60001,22.20001-22.5-22.2L78.30002,0l60.29999,59.39999-21.89999,22.5-22.20001-21.60001v36.29999h34.20001v31.5h-34.20001v15.29999c36,6.89999,63.60001,38.70001,63.60001,77.10001,0,43.79999-35.39999,78.89999-79.20001,78.89999S0,264.29996,0,220.49997h.00003ZM78.90002,268.19998c27,0,47.70001-22.5,47.70001-47.70001s-21.89999-47.39999-47.70001-47.39999-47.70001,21.29999-47.70001,47.39999,21.29999,47.70001,47.70001,47.70001Z" /></svg>