<svg xmlns="http://www.w3.org/2000/svg" viewBox="0 0 286.80005 296.10004"><path d="M286.79999,135.60001v47.70001c0,28.5-23.39999,52.20001-52.20001,52.20001h-28.79999v14.70001c0,25.5-20.39999,45.89999-45.89999,45.89999h-94.5c-25.5,0-46.2-20.39999-46.2-45.89999v-119.10004C6.89999,119.10001,0,102.89999,0,85.5,0,48.89999,30.3,20.39999,65.39999,21,77.69998,7.5,95.10001,0,113.10001,0c20.10001,0,39,9.60001,50.10001,23.7,33,1.8,59.10001,27.60001,61.20001,59.99998h10.20001c28.79999,0,52.20001,23.10001,52.20001,51.89999l-.00006.00003ZM64.49997,118.5c7.20001,0,9.29999-1.20001,21.60001-6,12.89999,15,19.20001,19.79999,32.10001,19.79999,11.39999,0,16.5-3.89999,27.60001-13.5,9.29999,1.79999,12.29999,2.39999,14.39999,2.39999,18.29999,0,33-15,33-33.29999s-14.70001-33-33-33c-.29999,0-6.60001.60001-13.20001,1.5-11.10001-18.60001-18.60001-25.2-33.89999-25.2s-21.60001,6.60001-32.70001,23.39999c-13.20001-2.39999-14.70001-2.39999-15.89999-2.39999-18,0-33,15-33,33.3s15,33,33,33ZM65.39996,264.60001h94.5c8.10001,0,14.39999-6.60001,14.39999-14.39999v-99.89999c-4.5,1.5-9.29999,2.39999-14.10001,2.39999-2.10001,0-3.60001-.29999-5.39999-.29999-10.79999,7.20001-23.70001,11.10001-36.60001,11.10001-15.29999,0-29.70001-5.10001-41.39999-15-3.89999,1.20001-8.10001,1.5-12.29999,1.5-4.79999,0-9.29999-.60001-14.10001-2.10001v102.30002c0,7.79999,6.89999,14.39999,15,14.39999v-.00003ZM234.59995,204c11.39999,0,20.70001-9.29999,20.70001-20.70001v-47.70001c0-11.39999-9.29999-20.39999-20.70001-20.39999h-15.89999c-3,6.60001-7.20001,12.89999-12.89999,18.29999v70.5h28.79999v.00003Z" /></svg>