<svg xmlns="http://www.w3.org/2000/svg" viewBox="0 0 274.20001 296.10001"><path d="M274.20001,159c0,75.89999-61.20001,137.10001-137.10001,137.10001S0,234.89999,0,159C0,100.5,37.5,48.60001,89.10001,28.8v33.59999c-34.20001,17.10001-57.60001,57.89999-57.60001,96.60001,0,58.20001,47.70001,105.89999,105.60001,105.89999s105.60001-47.39999,105.60001-105.89999c0-42.60001-25.79999-80.10001-62.70001-96.60001V28.79999c54.89999,18,94.20001,69.60001,94.20001,130.20001ZM118.5,166.5l-34.79999-34.5,18-18,34.79999,34.79999,34.5-34.79999,18,18-34.79999,34.5,34.79999,34.79999-18,17.70001-34.5-34.5-34.79999,34.5-18-17.70001,34.79999-34.79999ZM150,92.39999V0h-31.5v92.39999h31.5Z" /></svg>