<svg xmlns="http://www.w3.org/2000/svg" viewBox="0 0 314.40001 299.39999"><path d="M314.39998,149.70001c0,82.80002-66.89999,149.69998-149.69998,149.69998S15,232.5,15,149.69998c0-15.89999,2.39999-30.89999,6.89999-45.29999C8.09999,96,0,79.5,0,60.59999,0,32.7,41.09999,0,45.3,0c2.39999,0,18.89999,12.3,31.79999,27.89999C101.7,10.5,131.99998,0,164.7,0c82.79999,0,149.70001,66.89999,149.70001,149.69998l-.00003.00003ZM45.29997,85.80002c13.8,0,21.29999-12,21.29999-25.2,0-8.7-15.3-24-21.3-29.10001-7.5,6.60001-20.10001,21.60001-20.10001,29.10001,0,13.8,6.60001,25.2,20.10001,25.2h.00002ZM164.69997,268.20001c66,0,118.5-54,118.5-118.5S230.39998,31.20001,164.69997,31.20001c-26.70001,0-54.29999,9.60001-74.39999,26.7.89999,6,.89999,10.2-.29999,16.8-1.79999,10.20001-7.79999,18.89999-15.60001,23.39999-6,5.39999-12.89999,9-20.7,10.79999-5.10001,13.20001-7.2,26.70001-7.2,40.79999,0,66,54,118.5,118.20001,118.5l-.00003.00003ZM164.69997,164.10001c25.20001,0,51.89999,13.79999,70.5,34.79999l-18.89999,16.5c-13.5-15.60001-33.89999-26.10001-51.60001-26.10001s-38.10001,10.5-52.20001,26.39999l-19.20001-16.79999c19.20001-21.29999,46.79999-34.79999,71.39999-34.79999h.00003ZM117.59996,103.5c9.89999,0,17.70001,7.79999,17.70001,17.70001s-7.79999,17.70001-17.70001,17.70001-17.70001-7.79999-17.70001-17.70001,7.79999-17.70001,17.70001-17.70001ZM211.49995,103.5c9.89999,0,17.70001,7.79999,17.70001,17.70001s-7.79999,17.70001-17.70001,17.70001-17.70001-7.79999-17.70001-17.70001,7.79999-17.70001,17.70001-17.70001Z" /></svg>