<svg xmlns="http://www.w3.org/2000/svg" viewBox="0 0 399.29999 296.10002"><path d="M.00003,296.10002v-79.79999C.00003,180.30003,22.20003,162.90004,30.60004,156.60002c-5.39999-8.10001-8.10001-17.70001-8.10001-28.20001,0-30,24.60001-54.60001,54.60001-54.60001,3.60001,0,6.89999.29999,10.5.89999-2.7-6.29999-4.2-13.2-4.2-20.39999C83.40004,24.3,108.00003,0,138.00003,0s54.60001,24.3,54.60001,54.3c0,7.2-1.5,14.39999-4.20001,20.70001,7.79999-1.20001,15.60001-1.5,22.20001,0-2.70001-6.29999-4.20001-13.5-4.20001-20.7C206.40002,24.30002,231.00003.00002,261.00003.00002s54.29999,24.3,54.29999,54.3c0,7.2-1.20001,14.40001-3.89999,20.7,3.60001-.89999,7.20001-1.20001,10.79999-1.20001,30,0,54.59998,24.60001,54.59998,54.60001,0,10.5-2.70001,20.10001-8.09998,28.20001,19.20001,14.10001,30.59998,39,30.59998,60.89999v78.60001H0h.00003ZM122.70001,264.60002v-48.89999c-1.20001-17.10001-9-27.29999-23.7-37.79999-12.89999,6.89999-30.60001,6.89999-43.5.29999-18,12-24,20.10001-24,38.10001v48.29999h91.2ZM77.10001,151.50002c12.60001,0,23.10001-10.20001,23.10001-23.10001s-10.5-23.10001-23.10001-23.10001-23.10001,10.5-23.10001,23.10001,10.2,23.10001,23.10001,23.10001ZM119.10001,67.80003c3.29999,2.70001,7.20001,5.39999,10.79999,8.10001,5.10001,2.10001,11.10001,2.10001,16.20001,0,3.60001-2.39999,6.89999-5.39999,10.5-7.79999,2.70001-3.89999,4.5-8.7,4.5-13.8,0-12.60001-10.5-23.10001-23.10001-23.10001s-23.10001,10.5-23.10001,23.10001c0,5.10001,1.5,9.89999,4.20001,13.49998ZM138.30002,171.90004c5.10001-8.10001,11.39999-12.60001,14.70001-15.29999-5.10001-8.10001-7.79999-17.70001-7.79999-28.20001,0-7.20001,1.5-14.39999,3.89999-20.70001-6.60001,1.5-15.89999,1.20001-21.29999.29999,2.39999,6.29999,3.89999,13.20001,3.89999,20.39999,0,10.5-3,20.10001-8.10001,28.20001,6,4.20001,10.79999,9.60001,14.70001,15.29999l-.00003.00003ZM245.10004,264.60002v-47.10001c0-16.79999-8.70001-29.10001-23.39999-39.60001-12.89999,6.89999-31.20001,6.89999-44.39999,0-18,13.20001-23.10001,20.70001-23.10001,39.29999v47.39999h90.89999v.00003ZM199.50003,151.50002c12.60001,0,23.10001-10.20001,23.10001-23.10001s-10.5-23.10001-23.10001-23.10001-23.10001,10.5-23.10001,23.10001,10.5,23.10001,23.10001,23.10001ZM241.80002,67.20001c3.29999,2.99998,7.20001,5.99998,10.79999,8.7,5.70001,2.39999,12.29999,2.39999,17.70001-.29999,3.60001-3,6.89999-6.29999,10.20001-9.3,2.10001-3.60001,3.60001-7.5,3.60001-12,0-12.60001-10.5-23.10001-23.10001-23.10001s-23.10001,10.5-23.10001,23.10001c0,4.8,1.5,9,3.89999,12.89999ZM260.40002,171.90001c5.39999-7.79999,11.70001-12.60001,15.29999-15.29999-5.10001-8.10001-8.10001-17.70001-8.10001-28.20001,0-7.20001,1.5-14.10001,3.89999-20.70001-5.70001,1.79999-15.60001,1.5-21.60001,0,2.70001,6.60001,4.20001,13.5,4.20001,20.70001,0,10.5-2.70001,20.10001-8.10001,28.20001,6,4.20001,10.79999,9.60001,14.39999,15.29999h.00003ZM367.80005,264.60002v-47.10001c0-16.20001-8.70001-29.39999-23.10001-39.60001-13.79999,6.60001-30.89999,6.89999-44.39999.29999-16.5,11.70001-23.70001,19.20001-23.70001,38.10001v48.29999h91.20001v.00003ZM322.20004,151.50002c12.89999,0,23.10001-10.20001,23.10001-23.10001s-10.20001-23.10001-23.10001-23.10001-23.10001,10.5-23.10001,23.10001,10.5,23.10001,23.10001,23.10001Z" /></svg>