<svg xmlns="http://www.w3.org/2000/svg" viewBox="0 0 373.5 295.20003"><path d="M13.5,39.00003l9.89999,7.8c5.10001,2.7,9.89999,4.2,14.10001,4.2,3,0,8.7-1.5,12.3-1.5,7.5,0,13.8,3.3,19.2,8.7,9.60001,7.8,13.8,21,13.8,30.60001h-18.89999c0-5.70001-3.3-14.70001-7.8-18.29999-1.8-1.5-4.8-2.10001-6.60001-2.10001s-8.10001,1.20001-12,1.20001c-7.8,0-16.8-2.70001-24-6.89999C3.89999,57.30006.60001,52.80006,0,52.50006l13.5-13.5v-.00003ZM58.5,119.70003v-15.89999h117.60001v15.89999c0,43.20001,6,82.79999,18,117.89999,12-35.10001,18.29999-74.69998,18.29999-117.89999v-15.89999h117.60001v15.89999c0,69.29999,10.79999,109.5,43.5,175.5H15c33-66.60001,43.5-108,43.5-175.5ZM70.2,20.70003c18.60001,0,37.8,4.8,46.8,18.3,4.79999,7.2,16.5,13.8,29.10001,17.7,6.89999,2.10001,15,3.60001,21,3.60001,5.10001,0,9.29999-.89999,12.60001-2.39999,5.10001-2.39999,10.5-3.60001,15.89999-3.60001,7.5,0,15.29999,2.39999,21.89999,6.60001,10.5,6.60001,17.10001,17.70001,17.10001,27.89999h-18.89999c0-3.60001-3-8.70001-8.39999-12-2.39999-1.5-6.60001-3.60001-11.70001-3.60001-2.39999,0-5.39999.60001-8.10001,1.79999-5.70001,2.70001-12.29999,3.89999-20.10001,3.89999-8.39999,0-17.70001-1.5-27-4.20001-17.39999-5.39999-32.39999-14.7-39-24.89999-6.29999-9.60001-27.89999-10.8-37.5-9.89999l-1.8-18.60001c.3,0,3.3-.60001,8.10001-.60001v.00003ZM170.10001,263.70003c-11.39999-27.89999-18.89999-58.5-22.5-91.20001h-60.89999c-3.60001,32.70001-11.10001,63.29999-22.2,91.20001h105.59999ZM145.80002,153.60002c-.60001-6-.89999-12-.89999-18.29999h-55.2c-.3,6.29999-.60001,12.29999-1.2,18.29999h57.29999ZM155.10001.00002C175.20001.00002,186.89999,6.90001,197.70001,12.90001c12,6.89999,18.89999,10.2,27.29999,10.2,6.60001,0,12-2.10001,18-3.60001,7.5-1.8,15.29999-3.89999,24.29999-3.89999,22.5,0,42.29999,12,51.29999,35.7,3.89999,10.5,5.70001,20.39999,5.70001,35.10001h-18.89999c0-11.39999-1.5-20.7-4.20001-28.2-6-15.89999-18.89999-23.7-33.89999-23.7-6.60001,0-12.89999,1.5-19.5,3.3-6.89999,1.8-14.70001,3.89999-23.10001,3.89999-13.79999,0-24.60001-5.7-36.29999-12.3-11.70001-6.89999-21.29999-12-40.79999-10.5l-1.5-18.60001c3-.3,6-.3,9-.3v.00002ZM324,263.70003c-11.39999-27.89999-19.20001-58.5-22.5-91.20001h-60.89999c-3.60001,32.70001-11.10001,63.29999-22.20001,91.20001h105.60001ZM299.39999,153.60002c-.29999-6-.60001-12-.60001-18.29999h-55.20001c-.29999,6.29999-.60001,12.29999-1.20001,18.29999h57.00003Z" /></svg>