<svg xmlns="http://www.w3.org/2000/svg" viewBox="0 0 700 600"><path d="M294.72 563.14 99.07 367.49A77.34 77.34 0 0 1 76.32 312c0-20.93 8.19-40 23.2-55.05l95.55-94.64c15-14.11 34.13-22.3 54.6-22.3h202a78.22 78.22 0 0 1 55.06 22.75l94.18 94.64a76 76 0 0 1 22.77 54.6c0 20-7.73 39.59-22.75 55.06l-196.1 196.1a77.87 77.87 0 0 1-55.06 22.75c-20.02-.02-39.58-7.75-55.05-22.77Zm76.44-33.67 11.37-11.37-41.86-41.86L368 449.39l41.86 41.86 26.85-27.75-41.86-41.86 26.84-26.85L464 436.65l32.3-32.3-86.9-86.45-51.4 51.87a73.25 73.25 0 0 1-125.16-51.87 73.77 73.77 0 0 1 21.38-51.9l78.26-78.26h-82.81a30 30 0 0 0-20.93 8.64l-96 94.64a29.51 29.51 0 0 0-8.65 21.39 31.94 31.94 0 0 0 8.65 21.38l195.65 195.68c6.37 5.46 13.65 8.65 21.38 8.65a30.3 30.3 0 0 0 21.39-8.65Zm196.1-196.1a29.6 29.6 0 0 0 9.1-21.39 28.6 28.6 0 0 0-9.1-20.93l-94.18-94.64a31.11 31.11 0 0 0-21.39-8.64h-65.06L281.52 293.33c-6.82 6.37-10 15.47-10 24.57a34.18 34.18 0 0 0 34.58 34.58c9.1 0 18.2-3.19 24.57-10l115.11-115.13 26.84 27.3-35.94 36 86.45 86.9Z"/></svg>