<svg xmlns="http://www.w3.org/2000/svg" viewBox="0 0 369.30002 292.5"><path d="M0,27h45c19.5,0,36,12.3,42.3,30,51.90001,3.89999,80.7,27.89999,80.7,80.10001,0,35.39999,8.39999,56.70001,40.20001,60.29999v-104.39999h41.39999V31.5h-88.20001V0h207.90002v31.5h-88.20001v61.5h41.10001v168h47.10001v31.5h-207.89999v-31.5h46.79999v-32.10001c-51.60001-5.10001-71.69998-37.5-71.69998-91.80002,0-33.29999-15.29999-46.79999-50.10001-48.89999-6.3,16.5-22.5,28.5-41.39999,28.5H.00003V27h-.00003ZM45,85.20001c7.2,0,13.5-6.29999,13.5-13.5s-6.3-13.2-13.5-13.2h-13.5v26.7h13.5ZM290.69998,261V124.5h-51v136.5h51Z" /></svg>