<svg xmlns="http://www.w3.org/2000/svg" viewBox="0 0 475.80005 142.79999"><path d="M.00002,76.80002C43.80002,44.10001,116.70001,5.10001,153.60004,5.10001c9.89999,0,23.39999,1.79999,50.70001,6.89999,27.29999,5.10001,53.70001,9.89999,76.5,9.29999C304.20004,11.09998,327.00006,0,361.20004,0c49.50003,0,114.60001,33,114.60001,75,0,38.70001-57.59998,60.89999-106.20001,60.89999-24.89999,0-49.5-5.10001-74.10001-11.10001-31.79999,0-59.10001,5.39999-84.30002,9.89999-20.70001,3.89999-44.39999,8.10001-59.10001,8.10001-38.39999,0-93.60001-26.10001-152.10001-66l.00002.00003ZM156.00003,123.90002c25.20001-1.79999,72.89999-12.89999,101.69998-15.29999-17.10001-7.5-31.79999-15.29999-41.10001-21-13.20001,1.79999-17.10001,2.10001-51,3-36.60001,1.20001-47.7,1.20001-105.89999,1.20001,44.10001,19.79999,67.8,34.20001,96.29999,32.10001l.00003-.00003ZM223.20001,54.90002c9.89999-2.39999,22.20001-9.89999,32.39999-16.20001-17.39999-1.5-36.60001-5.10001-54.29999-8.10001-18.89999-3.29999-36.89999-6.60001-48.29999-6.60001-22.2,0-67.5,21.60001-93,36.29999,73.5,0,138,.60001,163.19998-5.39999v.00003ZM369,104.40002c27.60001,0,77.40002-12.89999,75-30.89999-3-22.20001-55.20001-42-82.79999-42s-45.60001,7.5-71.70001,23.10001c-9.89999,5.70001-20.39999,12.29999-32.10001,19.5,36.29999,17.70001,75.60001,30.29999,111.60001,30.29999ZM407.70001,58.80002c3.59998,0,6.29999,2.70001,6.29999,6.29999s-2.70001,6.29999-6.29999,6.29999-6.29999-3-6.29999-6.29999c0-3.60001,3-6.29999,6.29999-6.29999Z" /></svg>