<svg xmlns="http://www.w3.org/2000/svg" viewBox="0 0 400.80002 291.59999"><path d="M56.7,0h40.5c16.49998,0,31.49998,7.2,41.40001,18.60001C148.80002,7.20001,163.80002,0,180.30002,0h40.20001c16.79999,0,31.5,7.2,41.70001,18.60001,9.89999-11.39999,24.89999-18.60001,41.39999-18.60001h40.5c31.50003,0,56.69998,25.2,56.69998,56.7v234.89999H0V56.7C0,25.2,25.5,0,56.7,0ZM56.7,141.3h40.5c14.99998,0,26.40001-12.89999,26.40001-26.39999v-58.2c0-14.39999-12-26.39999-26.39999-26.39999h-40.5c-15.3,0-26.39999,12.89999-26.39999,26.39999v58.2c0,14.10001,12,26.39999,26.39999,26.39999h-.00002ZM370.49997,261.3v-97.5c-7.5,4.79999-16.5,8.10001-26.39999,8.10001h-40.5c-16.5,0-31.5-7.5-41.39999-19.20001-10.20001,11.70001-24.89999,19.20001-41.70001,19.20001h-40.20001c-16.5,0-31.5-7.5-41.70001-19.20001-9.89999,11.70001-24.89999,19.20001-41.39999,19.20001h-40.5c-9.60001,0-18.60001-3.29999-26.39999-8.10001v97.5h340.20001ZM77.09999,49.5c19.2,0,34.8,15.59999,34.8,34.8s-15.60001,35.10001-34.8,35.10001-35.09999-15.89999-35.09999-35.10001,15.89999-34.8,35.10001-34.8h-.00002ZM58.2,212.09999c-3.89999-1.20001-7.8-2.10001-12-2.10001v-27.29999c11.7,0,23.39999,3,33.59999,9,9.89999-6,21.3-9,33.29999-9v27.29999c-4.20001,0-8.10001.89999-12,2.10001,7.79999,10.79999,12.29999,24,12.29999,37.79999h-27.60001c0-7.5-2.10001-14.39999-6-19.79999-4.2,5.10001-6.60001,12.29999-6.60001,19.79999h-27.3c0-13.79999,4.5-27.29999,12.3-37.79999h.00005ZM77.09999,95.09999c5.7,0,10.2-4.79999,10.2-10.79999s-4.5-10.5-10.2-10.5c-6,0-10.5,4.79999-10.5,10.5,0,6,4.5,10.79999,10.5,10.79999ZM180.29999,141.3h40.20001c14.39999,0,26.39999-11.70001,26.39999-26.39999v-58.2c0-15-11.70001-26.39999-26.39999-26.39999h-40.20001c-14.39999,0-26.39999,11.7-26.39999,26.39999v58.2c0,14.70001,12.29999,26.39999,26.39999,26.39999ZM200.39999,49.5c19.20001,0,35.10001,15.59999,35.10001,34.8s-15.89999,35.10001-35.10001,35.10001-34.79999-15.89999-34.79999-35.10001,15.60001-34.8,34.79999-34.8ZM179.10001,212.09999c-3.89999-1.20001-7.79999-2.10001-12-2.10001v-27.29999c12,0,23.39999,3,33.29999,9,10.20001-6,21.60001-9,33.60001-9v27.29999c-4.20001,0-8.39999.89999-12,2.10001,8.10001,11.10001,12.29999,24,12.29999,37.79999h-27.29999c0-7.5-2.70001-14.70001-6.60001-19.79999-3.89999,5.10001-6.29999,12.29999-6.29999,19.79999h-27.29999c0-14.10001,4.5-27,12.29999-37.79999ZM200.39999,95.09999c6,0,10.5-4.79999,10.5-10.79999s-4.5-10.5-10.5-10.5-10.5,4.79999-10.5,10.5c0,6,4.79999,10.79999,10.5,10.79999ZM303.60001,141.3h40.5c14.39999,0,26.40002-12,26.40002-26.39999v-58.2c0-14.39999-11.70001-26.39999-26.39999-26.39999h-40.5c-14.39999,0-26.39999,12-26.39999,26.39999v58.2c0,14.10001,12,26.39999,26.39999,26.39999h-.00003ZM300,212.09999c-3.60001-1.20001-7.79999-2.10001-12-2.10001v-27.29999c12,0,23.39999,3,33.60001,9,9.89999-6,21.29999-9,33.29999-9v27.29999c-4.20001,0-8.39999.89999-12,2.10001,7.79999,10.79999,12,24,12,37.79999h-27c0-7.5-2.39999-14.39999-6.29999-19.79999-3.89999,5.10001-6.60001,12.29999-6.60001,19.79999h-27.29999c0-13.79999,4.20001-26.70001,12.29999-37.79999ZM324,49.49998c19.20001,0,34.79999,15.60001,34.79999,34.79999s-15.60001,35.10001-34.79999,35.10001-35.10001-15.89999-35.10001-35.10001,15.89999-34.8,35.10001-34.8v.00002ZM324,95.09999c5.70001,0,10.5-4.79999,10.5-10.79999s-4.79999-10.5-10.5-10.5c-6,0-10.5,4.79999-10.5,10.5,0,6,4.5,10.79999,10.5,10.79999Z" /></svg>