<svg xmlns="http://www.w3.org/2000/svg" viewBox="0 0 382.19998 292.79999"><path d="M126.60001,261.29999h48.89999v-27.89999H0V0h382.19998v233.39999h-175.19998v27.89999h48.89999v31.5H126.60001v-31.5ZM58.5,201.89999c5.39999-38.10001,28.8-69.60001,60.89999-92.69998,9.60001-7.20001,18-14.70001,25.20001-22.79999h-39.60001l8.70001,9.29999-12.89999,13.5c-23.10001-23.39999-38.10001-46.2-42.3-77.7h-27v170.40001h27l-.00002-.00003ZM79.2,40.2h91.2c.89999-3,1.20001-5.7,1.5-8.7h-94.2c.3,3,.89999,5.7,1.5,8.7ZM171.89999,201.89999c-.29999-3-.89999-5.70001-1.5-8.70001h-91.2c-.60001,3-1.2,5.70001-1.5,8.70001h94.2ZM91.2,67.5h67.49998c.29999-.60001,4.20001-7.2,4.5-8.7h-76.8c1.2,3,2.7,5.99998,4.8,8.7h.00002ZM163.19998,174.60001c-1.20001-3-3-5.70001-4.5-8.70001h-67.8c-1.5,2.39999-3.60001,6.89999-4.5,8.70001h76.8ZM144.59998,147.30002c-2.39999-3.29999-6-6.60001-9-9.60001l13.20001-13.5c22.5,21.29999,38.39999,48.29999,42.29999,77.70001h159.60001V31.5h-159.59998c-5.70001,38.39999-29.10001,69.89999-60.29999,92.70001-11.10001,8.10001-18.60001,14.70001-25.79999,23.10001h39.60001-.00006ZM224.09998,49.20001c13.20001,0,24.89999,8.39999,29.10001,20.39999l21-2.70001c2.39999-15.3,15.29999-26.7,31.20001-26.7,17.10001,0,30.89999,13.8,30.89999,31.2,0,13.5-8.70001,24.89999-20.70001,29.10001l4.79999,35.70001c12.89999,3.60001,22.5,15.60001,22.5,30,0,17.10001-13.79999,30.89999-30.89999,30.89999-14.10001,0-26.39999-9.29999-30-21.89999l-30.60001-2.70001c-5.39999,9-15.29999,15-26.39999,15-17.39999,0-31.20001-13.79999-31.20001-30.89999s13.79999-31.20001,31.20001-31.20001c16.20001,0,29.39999,12.29999,30.89999,28.5l26.70001,2.10001c.29999-1.79999.89999-3.29999,2.10001-4.79999l-48.59998-42.30002c-3.60001,1.5-7.79999,2.39999-12,2.39999-17.39999,0-31.5-13.79999-31.5-31.20001s14.10001-30.89999,31.5-30.89999l-.00003.00003ZM224.09998,92.70001c6.60001,0,12-5.70001,12-12.60001s-5.39999-12.29999-12-12.29999-12.60001,5.70001-12.60001,12.29999,5.70001,12.60001,12.60001,12.60001ZM224.99997,168.90002c6.60001,0,12.29999-5.70001,12.29999-12.29999s-5.70001-12.60001-12.29999-12.60001-12.60001,5.70001-12.60001,12.60001,5.70001,12.29999,12.60001,12.29999ZM298.19998,138.00003c1.20001-.60001,2.10001-.89999,3.29999-1.20001l-4.79999-35.70001c-8.39999-2.10001-15.29999-7.79999-19.20001-15.60001l-23.70001,3.29999c-.60001,2.39999-1.79999,5.10001-3.29999,7.20001l47.70001,42v.00003ZM305.39999,83.70004c6.60001,0,12-5.70001,12-12.29999s-5.39999-12.60001-12-12.60001-12.60001,5.70001-12.60001,12.60001,5.70001,12.29999,12.60001,12.29999ZM312,178.50006c6.60001,0,12-5.70001,12-12.29999s-5.39999-12.60001-12-12.60001-12.60001,5.70001-12.60001,12.60001,5.70001,12.29999,12.60001,12.29999Z" /></svg>