<svg xmlns="http://www.w3.org/2000/svg" viewBox="0 0 264.30003 300.00003"><path d="M106.8,274.79999c0-2.39999.29999-4.5,1.20001-6.89999l-64.80002-37.5c-4.5,4.5-10.8,7.5-18,7.5-14.10001,0-25.2-11.39999-25.2-25.5,0-11.70001,8.10001-21.60001,18.89999-24.29999v-75.89999c-10.8-3-18.89999-12.89999-18.89999-24.60001,0-13.79999,11.10001-25.5,25.2-25.5,7.2,0,13.5,3,18,7.79999l64.79999-37.5c-.60001-2.10001-.89999-4.5-.89999-6.89999,0-13.8,11.10001-25.5,25.20001-25.5s25.20001,11.7,25.20001,25.5c0,2.7-.29999,4.8-.89999,7.2l64.20001,37.2c4.5-4.8,11.10001-7.8,18-7.8,14.10001,0,25.5,11.7,25.5,25.50002,0,11.70001-8.39999,21.89999-19.20001,24.60001v77.39999c10.79999,2.70001,19.20001,12.60001,19.20001,24.60001,0,14.10001-11.39999,25.20001-25.5,25.20001-7.5,0-14.10001-3.29999-18.89999-8.70001l-63.60001,37.20001c.60001,2.39999,1.20001,4.5,1.20001,6.89999,0,14.10001-11.39999,25.20001-25.5,25.20001s-25.20001-11.10001-25.20001-25.20001l-.00003-.00003ZM50.7,212.69998l69,39.89999c.89999-.29999,1.79999-.89999,3-1.20001v-78.60001c-2.10001-.60001-3.60001-1.5-5.10001-2.39999l-42.60001,26.39999-37.2-69.89999v63.89999c7.8,3.89999,12.90001,12.29999,12.90001,21.89999v.00003ZM116.09999,129.89999c4.20001-3.60001,9.89999-5.70001,15.89999-5.70001,6.29999,0,11.70001,2.10001,16.20001,5.70001l65.70001-38.70001c-.29999-1.20001-.29999-2.10001-.29999-3.60001l-69-39.89999c-3.60001,2.10001-7.79999,3.3-12.29999,3.3s-9-1.2-12.89999-3.60001l-68.69998,39.90001c0,1.79999-.29999,2.70001-.29999,4.20001l65.70001,38.39999h-.00009ZM82.2,170.10001l25.20001-15.60001c-.60001-1.79999-.89999-5.39999-.60001-8.10001l-54.29999-31.79999,29.70001,55.5h-.00003ZM170.99998,183.89999l-24-13.79999c-1.5,1.20001-3.60001,2.10001-5.39999,2.70001v62.70001l29.39999-51.60001v-.00003ZM180.29997,167.69998l29.70001-52.20001-52.79999,30.89999c.29999,3,.29999,4.79999-.29999,7.5l23.39999,13.79999-.00003.00003ZM213.59996,212.69998c0-1.20001,0-2.39999.29999-3.29999l-26.70001-15.89999-29.39999,51.60001,55.79999-32.39999.00003-.00003ZM224.69997,193.49997c.29999-.60001.89999-.89999,1.5-1.20001v-67.20001l-29.70001,51.89999,28.20001,16.5v.00003Z" /></svg>