<svg xmlns="http://www.w3.org/2000/svg" viewBox="0 0 679.25003 453.66805"><path d="M347.59,156.96999c.03918,28.61415-17.75732,54.2213-44.59,64.16002v88.72l-126,.45999v-24.12c0-10.92001-9.56-20.47-20.48-20.47-11.41486-.08368-20.76003,9.05612-20.93001,20.47v24.12l-135.59-.45999V0h303v93.27c25.89999,9.56,44.59,35.04001,44.59,63.7ZM299.81,156.96999c-.11374-11.25781-9.21219-20.35625-20.47-20.47h-24.14999V47.76999H47.71v214.31001l44.59.45001c9.9326-26.83298,35.5377-44.63083,64.15-44.59,28.67,0,54.15001,18.66,63.25,44.59h35.49001v-84.63h24.12c11.37,0,20.47-9.10001,20.47-20.92999l.03-.00002ZM585.51999,409.05c-12.80768,35.18054-51.70984,53.31732-86.89041,40.50958-18.82587-6.8537-33.65591-21.68372-40.50958-40.50958h-88.72l-.91-126h24.10001c11.50516-.1297,20.80029-9.42484,20.92999-20.92999,0-11.38-9.54999-20.48001-20.92999-20.48001h-24.10001l.91-135.59h309.85004v303h-93.73004ZM631.51999,153.79h-214.35001l-.45001,44.12999c25.92999,10,44.59,35,44.59,64.16s-19.10999,54.13998-44.59,63.70001v35.48999h84.17001v24.16c.1351,11.50125,9.42865,20.79041,20.92999,20.92001,11.38,0,20.47998-9.54999,20.47998-20.92001v-24.16h89.17999l.04004-207.48Z" /></svg>