<svg xmlns="http://www.w3.org/2000/svg" viewBox="0 0 339.90001 299.7"><path d="M149.7,31.2c-66.29999,0-118.2,54.89999-118.2,118.5s50.99998,118.5,118.2,118.5c48.60001,0,89.70001-30,107.39999-69.89999l28.79999,12.89999c-23.39999,51.60001-75.89999,88.5-136.19998,88.5C65.39999,299.7,0,230.09999,0,149.7S64.8,0,149.7,0c73.5,0,132.29999,50.7,146.39999,121.50002l26.39999-17.70001,17.40002,26.10001-56.70001,38.39999-56.39999-38.39999,17.39999-26.10001,17.70001,12c-13.5-49.5-59.70001-84.60001-112.20001-84.60001ZM68.7,99.00002c0-29.70001,44.39999-41.10001,75-41.10001,32.10001,0,74.70001,12.29999,74.70001,41.10001v101.39999c0,28.5-42.60001,41.10001-74.70001,41.10001s-75-11.70001-75-41.10001v-101.39999ZM143.7,165.60002c13.5,0,45.60001-5.10001,49.5-16.5v-19.5c-13.20001,6.60001-31.5,10.20001-49.5,10.20001s-36.89999-3.60001-49.79999-10.20001v19.5c3.89999,11.39999,36.29999,16.5,49.79999,16.5ZM143.7,216.30003c15,0,45.89999-5.70001,49.5-16.20001v-19.80002c-13.20001,7.20001-31.5,10.5-49.5,10.5s-36.89999-3.60001-49.79999-10.5v19.79999c3.60001,10.5,34.79999,16.20001,49.79999,16.20001v.00003ZM143.7,114.60005c15.89999,0,45-5.70001,49.20001-15.60001-4.20001-10.20001-33-15.89999-49.20001-15.89999s-45.29999,5.70001-49.5,15.89999c4.20001,9.89999,33.60001,15.60001,49.5,15.60001Z" /></svg>