<svg xmlns="http://www.w3.org/2000/svg" viewBox="0 0 700 600"><path d="M358 228.54a68.32 68.32 0 0 1-44.59 64.16v88.72l-126 .46v-24.12c0-10.92-9.56-20.47-20.48-20.47A20.78 20.78 0 0 0 146 357.76v24.12l-135.59-.46V71.57h303v93.27c25.9 9.56 44.59 35.04 44.59 63.7Zm-47.78 0a20.68 20.68 0 0 0-20.47-20.47H265.6v-88.73H58.12v214.31l44.59.45a68.3 68.3 0 0 1 64.15-44.59c28.67 0 54.15 18.66 63.25 44.59h35.49v-84.63h24.12c11.37 0 20.47-9.1 20.47-20.93Zm285.71 252.08a67.79 67.79 0 0 1-127.4 0h-88.72l-.91-126H403a21.17 21.17 0 0 0 20.93-20.93c0-11.38-9.55-20.48-20.93-20.48h-24.1l.91-135.59h309.85v303Zm46-255.26H427.58l-.45 44.13c25.93 10 44.59 35 44.59 64.16s-19.11 54.14-44.59 63.7v35.49h84.17V457a21.17 21.17 0 0 0 20.93 20.92c11.38 0 20.48-9.55 20.48-20.92v-24.16h89.18Z"/></svg>