<svg xmlns="http://www.w3.org/2000/svg" viewBox="0 0 640.50004 296.10001"><path d="M5.7,226.5c0-21,8.7-37.79999,23.4-51.29999L0,0h101.4l46.2,72.89999c24-15,53.40001-19.5,82.8-19.8v129.60002h76.79999l28.20001-42.60001c40.5,0,68.10001,4.5,112.5,18.29999,3.60001-.89999,7.5-1.20001,11.10001-1.20001,21.89999,0,43.80002,11.10001,54.30002,26.39999,33.90002,14.70001,80.70001,35.70001,105.90002,52.5,11.70001,7.79999,21.29999,16.5,21.29999,28.20001v15.60001h-136.50006c-12.29999,10.5-28.20001,16.20001-45,16.20001s-32.10001-5.70001-44.39999-16.20001H120.00001c-12.3,10.5-28.2,16.20001-44.4,16.20001-38.4,0-69.9-31.20001-69.90001-69.60001ZM58.2,159.60001c4.2-1.5,9.3-2.39999,14.1-2.39999,11.1-25.20001,28.49999-49.5,49.2-66.29999l-37.5-59.39999h-47.10001l21.3,128.10001v-.00003ZM75.6,264.90002c20.7,0,37.8-17.10001,37.8-38.39999s-17.1-37.79999-37.8-37.79999-38.4,17.10001-38.4,37.79999,17.1,38.39999,38.40001,38.39999ZM75.6,208.80002c9.9,0,17.7,7.79999,17.7,17.70001s-7.8,18-17.7,18-18-8.10001-18-18,8.1-17.70001,17.99999-17.70001ZM144.9,226.50003c0,7.79999-1.5,15-4.2,21.89999h253.2c-2.70001-6.89999-4.20001-14.10001-4.20001-21.89999,0-17.39999,6.60001-33.60001,18.29999-46.20001-22.20001-6-39.89999-8.39999-55.79999-8.70001l-27.89999,42.29999h-125.39999v-126.60001c-40.2,6.89999-75.60001,37.20001-94.8,76.20001,24.3,10.5,40.8,35.39999,40.8,63v.00003ZM288.60001,50.10004c28.79999,0,52.5,23.39999,52.5,52.20001s-23.70001,52.20001-52.5,52.20001-52.20001-23.39999-52.20001-52.20001,23.39999-52.2,52.20001-52.2v-.00002ZM288.60001,123.30005c11.70001,0,21-9.29999,21-21s-9.29999-20.70001-21-20.70001-21,9.29999-21,20.70001,9.60001,21,21,21ZM459.00001,264.90005c21.29999,0,38.39999-17.10001,38.39999-38.39999s-17.10001-37.79999-38.39999-37.79999-37.79999,17.10001-37.79999,37.79999,17.10001,38.39999,37.79999,38.39999ZM459.00001,208.80005c9.89999,0,18,7.79999,18,17.70001s-8.10001,18-18,18c-9.29999,0-17.70001-8.10001-17.70001-18s8.39999-17.70001,17.70001-17.70001ZM575.10001,248.40005c-13.79999-8.70001-33.29999-17.70001-46.5-23.39999.59998,8.10001-.59998,15.89999-3.90002,23.39999h50.40002Z" /></svg>