<svg xmlns="http://www.w3.org/2000/svg" viewBox="0 0 346.2 380.09998"><path d="M314.40001,230.4c0,82.80002-66.89999,149.69998-149.70001,149.69998S15,313.19999,15,230.39997c0-15.89999,2.39999-30.89999,6.89999-45.29999C8.09999,176.69999,0,160.19999,0,141.29998c0-27.89999,41.09999-60.59999,45.3-60.59999,2.39999,0,18.89999,12.3,31.8,27.89999,24.59999-17.39999,54.90001-27.89999,87.59999-27.89999,82.79999,0,149.70001,66.89999,149.70001,149.69998v.00003ZM45.3,166.50001c13.8,0,21.3-12,21.3-25.2,0-8.7-15.3-24-21.3-29.10001-7.5,6.60001-20.10001,21.60001-20.10001,29.10001,0,13.8,6.60001,25.2,20.10001,25.2ZM164.7,348.9c66,0,118.5-54,118.5-118.5s-52.79999-118.5-118.5-118.5c-26.70001,0-54.29999,9.60001-74.39999,26.7.89999,6,.89999,10.2-.29999,16.8-1.79999,10.20001-7.79999,18.89999-15.60001,23.39999-6,5.39999-12.89999,9-20.7,10.79999-5.10001,13.20001-7.2,26.70001-7.2,40.79999,0,66,54,118.5,118.19998,118.5v.00003ZM164.7,244.8c25.20001,0,51.89999,13.79999,70.5,34.79999l-18.89999,16.5c-13.5-15.60001-33.89999-26.10001-51.60001-26.10001s-38.10001,10.5-52.20001,26.39999l-19.20001-16.79999c19.20001-21.29999,46.79999-34.79999,71.39999-34.79999h.00003ZM117.59999,184.19999c9.89999,0,17.70001,7.79999,17.70001,17.70001s-7.79999,17.70001-17.70001,17.70001-17.70001-7.79999-17.70001-17.70001,7.79999-17.70001,17.70001-17.70001ZM211.49998,184.19999c9.89999,0,17.70001,7.79999,17.70001,17.70001s-7.79999,17.70001-17.70001,17.70001-17.70001-7.79999-17.70001-17.70001,7.79999-17.70001,17.70001-17.70001ZM305.7,31.8l-23.10001-23.1,8.70001-8.7,23.39999,23.1L337.49998,0l8.70001,8.7-23.10001,23.1,23.10001,23.10001-8.70001,8.7-22.79999-23.10001-23.39999,23.10001-8.70001-8.7,23.10001-23.10001Z" /></svg>