<svg xmlns="http://www.w3.org/2000/svg" viewBox="0 0 316.20001 292.19998"><path d="M0,243.60001V48.89999C0,21.89999,21.89999,0,48.60001,0h99c23.70001,0,43.20001,16.8,47.70001,39.3v1.2c5.39999-.60001,10.20001-1.2,15.29999-1.2,59.10001,0,105.60001,48.3,105.60001,105.59999s-47.10001,105.60001-105.60001,105.60001c-4.79999,0-9.89999-.60001-14.70001-1.20001l-.29999,2.39999c-3.89999,23.39999-24.29999,40.5-48,40.5H48.60001c-26.7,0-48.60001-21.89999-48.60001-48.60001v.00003ZM113.10001,175.5c-5.10001-8.70001-8.10001-19.5-8.10001-30.60001,0-40.5,24.89999-78.89999,59.70001-94.8v-1.2c0-9.60001-7.5-17.39999-17.10001-17.39999H48.60001c-9.60001,0-17.10001,7.8-17.10001,17.39999v126.60001h81.60001ZM48.60001,260.69998h99c9.60001,0,17.10001-7.5,17.10001-17.10001v-3.60001c-16.79999-9-32.10001-22.79999-41.39999-39H31.50002v42.60001c0,9.60001,7.5,17.10001,17.10001,17.10001h-.00002ZM98.10001,212.09998c9.89999,0,17.70001,8.10001,17.70001,18s-7.79999,17.70001-17.70001,17.70001-17.70001-7.79999-17.70001-17.70001,7.79999-18,17.70001-18ZM210.60001,218.99997c41.70001,0,74.10001-33.89999,74.10001-74.10001s-33.29999-74.10001-74.10001-74.10001-74.10001,33.60001-74.10001,74.10001,33,74.10001,74.10001,74.10001ZM181.20001,132.59998l20.39999,20.39999,42-42.29999,18,17.70001-60,60.60001-38.39999-38.70001,18-17.70001Z" /></svg>