<svg xmlns="http://www.w3.org/2000/svg" viewBox="0 0 299.7 299.40001"><path d="M299.7,149.70003c0,82.80002-67.20001,149.69998-150,149.69998S0,232.50002,0,149.7,66.90001,0,149.7,0s150,66.59999,150,149.7v.00003ZM149.7,268.20003c65.39999,0,118.5-53.10001,118.5-118.5S215.09999,31.20003,149.7,31.20003,31.5,84.90004,31.5,149.70003s53.7,118.5,118.2,118.5ZM99.90001,103.20003c9.89999,0,17.70001,7.79999,17.70001,17.70001s-7.79999,18-17.70001,18-17.70001-8.10001-17.70001-18,7.79999-17.70001,17.70001-17.70001ZM147.90001,147.30003c24.29999,0,43.79999,19.79999,43.79999,44.10001s-19.5,44.10001-43.79999,44.10001-44.10001-19.79999-44.10001-44.10001,19.79999-44.10001,44.10001-44.10001ZM147.90001,210.00005c10.20001,0,18.60001-8.39999,18.60001-18.60001s-8.39999-18.89999-18.60001-18.89999-18.60001,8.39999-18.60001,18.89999,8.39999,18.60001,18.60001,18.60001ZM199.50002,103.20006c9.89999,0,17.70001,7.79999,17.70001,17.70001s-7.79999,18-17.70001,18-17.70001-8.10001-17.70001-18,7.79999-17.70001,17.70001-17.70001Z" /></svg>