<svg xmlns="http://www.w3.org/2000/svg" viewBox="0 0 301.20001 295.20001"><path d="M90.90005,199.19998l.89999,18.89999c-21.89999,1.20001-43.2,3.29999-53.7,5.70001,20.40001,5.10001,82.49998,7.5,112.49998,7.5,32.10001,0,91.20001-2.70001,112.79999-7.5-11.10001-2.39999-32.39999-4.5-54-5.70001l.89999-18.89999c30,2.10001,90.89999,3.89999,90.89999,24.60001,0,23.10001-82.5,26.10001-150.60001,26.10001-41.10001,0-150.60001.60001-150.60001-26.10001,0-18,44.7-21.60001,90.89999-24.60001h.00006ZM7.20006,78.89999c0-30.60001,19.5-54,51.00002-55.8C70.20007,8.99998,88.50006,1.2,107.70007,1.2c11.39999,0,22.5,2.7,31.79999,6,11.10001-4.2,28.20001-7.2,40.20001-7.2,19.79999,0,37.79999,6,52.79999,16.8,27.29999,8.39999,51.60001,29.7,53.70001,58.2,1.79999,4.20001,4.5,12,4.5,21.60001,0,15-6.89999,28.5-20.39999,39-8.10001,23.39999-24.89999,42-48.29999,45l-4.20001-30.89999c12-1.79999,20.39999-14.39999,25.5-34.20001,11.39999-6.89999,16.20001-10.79999,16.20001-18.89999,0-6.29999-1.79999-8.39999-4.5-13.5.60001-21-15.29999-31.5-36.89999-37.5-12.60001-9.89999-23.10001-14.10001-38.10001-14.10001s-27.29999,3.60001-40.20001,9.89999c-15.29999-6.60001-21.89999-9-31.79999-9-17.10001,0-25.20001,8.10001-33.29999,22.5-30.89999-2.7-36,10.8-35.7,30.29999-3.60001,7.5-4.8,10.20001-4.8,16.5,0,13.20001,6,21,18.60001,28.5-4.2,19.5,13.5,33.60001,29.10001,27.29999l13.20001,28.79999c-5.70001,2.39999-12,3.89999-18.89999,3.89999-27.60001,0-53.7-18.29999-56.10001-45.89999-10.5-10.5-17.39999-26.70001-17.39999-41.70001,0-7.79999,1.5-15.60001,4.5-23.70001l-.00008.00006ZM95.40005,256.5l30.60001,8.70001c-3.29999,12-6.89999,22.20001-9.89999,30h-33.89999c3.89999-8.70001,8.70001-21.60001,13.20001-38.70001h-.00003ZM110.40005,135.60001h31.20001c0,28.79999-1.79999,56.39999-6,82.79999l-31.20001-4.79999c3.89999-24.60001,6-51,6-78ZM190.80005,135.60001c0,27,2.10001,53.39999,5.70001,78l-30.89999,4.79999c-3.89999-26.39999-6-54-6-82.79999h31.20001-.00003ZM205.80005,256.5c4.5,17.10001,9.29999,30,13.20001,38.70001h-33.89999c-3-8.10001-6.60001-18-9.89999-30l30.60001-8.70001h-.00003Z" /></svg>