<svg xmlns="http://www.w3.org/2000/svg" viewBox="0 0 325.8 299.7"><path d="M.00002,97.2C.00002,43.2,42.90001.3,96.60002.3c23.70001,0,47.39999,8.39999,66,25.5C181.20003,8.7,204.90001,0,228.60002,0c54.60001,0,97.19998,45,97.19998,97.2,0,25.5-10.20001,50.10001-28.5,68.39999l-134.70001,134.10001L28.2,165.59999C8.7,146.09999,0,121.2,0,97.2h.00002ZM48.30002,140.09999l91.2-91.2c-11.39999-10.8-26.70001-16.2-42.60001-16.2-36.3,0-64.8,28.5-64.8,64.5,0,16.20001,6,30.89999,16.2,42.89999h.00002ZM90.3,181.8l72.89999-72.89999,17.70001,17.70001-72.89999,72.89999,17.70001,17.39999,72.89999-72.60001,17.70001,17.70001-72.89999,72.89999,19.20001,19.5,111.89999-111.60001c12.29999-12.29999,18.60001-28.79999,18.60001-45.89999,0-35.10001-27.89999-64.5-64.5-64.5-16.5,0-37.5,8.39999-45.29999,18.60001l-111.89999,111.89999,18.89999,18.89999h-.00006Z" /></svg>