<svg xmlns="http://www.w3.org/2000/svg" viewBox="0 0 369.63125 296.10001"><path d="M347.09999,236.39999l-99.89999,50.10001c-12.60001,6.60001-25.79999,9.60001-38.10001,9.60001h-107.39999c-13.8,0-27.89999-3.60001-40.5-11.10001l-32.39999-20.10001H0v-31.5h37.8l39.89999,24.60001c7.2,4.5,15.60001,6.60001,24,6.60001h107.39999c7.79999,0,15.60001-1.79999,22.79999-5.70001l100.5-50.10001c4.79999-2.39999,6.89999-8.10001,5.10001-13.79999s-7.5-9.60001-14.10001-8.10001l-97.79999,24c-5.39999,17.39999-21.89999,30.29999-41.39999,30.29999h-72v-31.5h72c6.89999,0,12-5.10001,12-11.70001s-5.10001-12-12-12h-62.39999c-12.29999,0-41.39999-12.29999-45.89999-12.29999H.00002v-31.5h75.89999c10.5,0,41.39999,12.29999,45.89999,12.29999h62.39999c17.10001,0,31.79999,10.20001,39,24.60001l92.69998-22.79999c22.20001-5.39999,45,7.20001,51.90002,29.70001,5.70001,19.20001-2.09998,40.20001-20.70001,50.39999ZM140.99998,17.7c4.79999,0,10.20001.60001,15,2.10001C166.79997,7.8,182.7,0,200.09999,0c24.60001,0,45.89999,15.3,54.89999,36.60001,33.29999-.3,60.29999,26.39999,60.29999,59.70001s-27,60-60,60c-24.89999,0-46.20001-15.29999-55.20001-36.29999-5.39999,0-9.89999-.60001-15-2.10001-11.10001,12.29999-27,19.79999-44.10001,19.79999-33,0-60.3-27-60.3-60s27.3-60,60.3-60l.00003-.00002ZM138.89998,106.19998c6.29999.29999,12.29999-1.5,17.39999-5.70001-9.29999-9.29999-16.20001-26.39999-16.20001-38.39999,0-4.5.29999-8.39999,1.20001-12.3-1.5-.3-3.89999-.3-5.39999,0-14.10001,2.7-23.70001,15-23.70001,27.90001,0,15.60001,12.29999,27.60001,26.70001,28.5ZM200.09999,88.49997c15.60001,0,28.5-12.89999,28.5-28.5s-12.89999-28.5-28.5-28.5-28.5,12.89999-28.5,28.5,12.89999,28.5,28.5,28.5ZM254.09999,125.09998c15,0,29.70001-11.70001,29.70001-28.79999,0-14.39999-10.79999-26.10001-24.60001-27.60001-1.20001,6.89999-3.89999,13.5-7.5,19.5-3.60001,9.60001-11.10001,17.70001-20.39999,22.79999,4.20001,9,12.89999,14.10001,22.79999,14.10001Z" /></svg>