<svg xmlns="http://www.w3.org/2000/svg" viewBox="0 0 562.0016 443.62108"><path d="M.00116,124.21107C-.14192,91.24214,12.97484,59.59976,36.40116,36.40107,59.60116,12.74107,90.54117.00107,123.76117.00107h314.45001c32.96198-.1377,64.59619,12.97865,87.78998,36.4,23.14319,23.35547,36.08807,54.93027,36,87.81v319.41h-47.81V124.21107c0-42.31-34.12-76.44-76-76.44H123.80116c-41.86,0-76,34.13-76,76.44v319.41H.00116V124.21107ZM94.18115,443.62108l92.37-83.26001c-29.45613-8.65399-49.65141-35.7291-49.54999-66.42999v-132.38c0-38.44453,31.16547-69.61,69.61002-69.61h148.78c38.23001,0,69.16,31.39,69.16,69.61v132.38c0,31.39001-20,57.78-48.67999,66.42999l92.37003,83.26001h-71.44006l-88.26999-80.07001h-54.60001l-88.73001,80.07001h-71.01999ZM377.18115,217.94108v-56.39001c-.00552-12.05962-9.7804-21.83447-21.84-21.84h-148.73001c-12.0596.00552-21.83446,9.7804-21.83998,21.84v56.41998l192.40999-.02997ZM355.34115,315.7711c11.99438-.16147,21.67853-9.84561,21.84-21.84v-28.20999h-192.40999v28.20999c.16145,11.99438,9.84563,21.67856,21.84001,21.84h148.72998Z" /></svg>