<svg xmlns="http://www.w3.org/2000/svg" viewBox="0 0 190.49997 292.80002"><path d="M110.39999,198v31.20001h31.79999v31.5h-31.79999v32.10001h-31.5v-32.10001h-31.79999v-31.5h31.79999v-31.5C33.89999,190.20001,0,151.20001,0,104.10001,0,63,25.79999,28.20001,62.10001,14.70001v35.10001c-18.89999,11.10001-30.60001,32.10001-30.60001,54.29999,0,35.10001,28.20001,63.60001,63.29999,63.60001s64.19998-28.20001,64.19998-63.60001c0-23.10001-12-43.8-31.79999-55.2V14.40001c36.89999,12.89999,63.29999,48.3,63.29999,89.7,0,47.39999-34.79999,86.69998-80.10001,93.89999h.00003ZM81.89999,0h25.20001v66.89999h-25.20001V0Z" /></svg>