<svg xmlns="http://www.w3.org/2000/svg" viewBox="0 0 384.30003 296.39999"><path d="M192.3,296.39999C95.10001,296.39999,0,237.60001,0,148.5S94.5,0,192.3,0s192.00003,59.7,192.00003,148.5-94.79999,147.89999-192,147.89999h-.00003ZM135.3,254.69998c-48.3-29.39999-81-78.29999-73.8-127.79999-5.7-15.89999-3.89999-31.20001,2.39999-45.29999-20.10001,17.70001-32.40001,41.39999-32.40001,66.89999,0,52.79999,48.60001,93,103.79999,106.19998h.00003ZM212.10002,98.39999c-27.89999-24.60001-65.10001-37.5-102.60001-39.3-21.89999,18.59999-27.89999,42.90001-13.2,66.90001,32.09999-24,75.3-32.70001,115.8-27.60001ZM228.60002,261.89999c45.29999-7.20001,89.39999-32.70001,108.89999-67.20001-9,6.60001-31.5,10.5-45.29999,10.5-16.79999,0-35.70001-4.20001-49.5-12.29999-15.89999,4.79999-33,7.20001-50.39999,7.20001-34.5,0-67.20001-9.60001-91.20001-27.60001,19.20001,46.5,74.39999,75.60001,127.5,89.39999ZM192.30003,168.60001c25.5,0,52.79999-7.20001,72.60001-20.10001-19.20001-13.20001-45.29999-20.70001-72.60001-20.70001s-53.70001,7.5-72.89999,20.70001c19.79999,12.89999,47.10001,20.10001,72.89999,20.10001ZM267.30003,113.10001c7.79999,3.89999,14.70001,7.79999,20.70001,12.89999,5.39999-8.10001,8.10001-17.10001,8.10001-25.79999,0-41.7-54.60001-68.7-103.5-68.7-11.70001,0-22.20001,1.8-32.10001,5.10001,44.39999,11.39999,84.89999,38.7,106.79999,76.49998ZM352.80003,145.20001c-.89999-24-13.20001-46.5-32.39999-63.60001,12.60001,34.20001-1.79999,69.29999-34.79999,90.60001,25.5,3.29999,58.20001-6.89999,67.19998-27Z" /></svg>