<svg xmlns="http://www.w3.org/2000/svg" viewBox="0 0 700 600"><path d="m29.45 310.62 46-24.57 2.27-68.71 55.51-35.94 25.94 40-34.58 22.75-2.73 71-69.66 37.33Zm33.67 66.43 70.07-32.31 15.47-46.41 45.51 15-21.85 66-89.18 40.94Zm105.11-207.48A118.34 118.34 0 0 1 252.41 135 120.19 120.19 0 0 1 337 169.57l-33.67 33.67a72 72 0 0 0-101.47 0Zm96 339v-27.78h-43.67c-23.66 0-40.5-16.84-40.5-42.32 0-46.41 74.17-96.91 119.21-96.91 13.65 0 35.49 18.65 46 18.65s34.12-19.11 52.32-19.11c43.23 0 112.84 56.42 112.84 97.83 0 25.93-18.2 41.86-40.49 41.86h-43.72v27.75c0 44.59-36.4 80.54-81 80.54s-80.98-35.95-80.98-80.54ZM455.79 433c2.28 0 2.73-1.36 2.73-3.18 0-8.19-39.58-40.95-60.06-40.95-10.92 0-21.84 19.11-53.23 19.11-29.58.02-43.23-19.1-53.23-19.1-22.75 0-60.06 28.21-60.06 41.4 0 1.82 1.36 2.73 5 2.73ZM236 280.59a27.08 27.08 0 1 1 27.31 26.84A27 27 0 0 1 236 280.59Zm142.42 228v-27.8H312v27.75a33.22 33.22 0 1 0 66.43 0Zm-24.57-339a118.36 118.36 0 0 1 84.2-34.59 120.19 120.19 0 0 1 84.63 34.58L489 203.24c-14.11-13.65-31.85-20.93-51-20.93a70.54 70.54 0 0 0-50.51 20.93Zm46.41 111a27.08 27.08 0 1 1 27.3 26.84 27 27 0 0 1-27.28-26.84Zm127.4 98.73-21.84-66 45.5-15 15.47 46.41 70.53 32.31-20 43.22Zm51-64.15-2.73-71-35-22.75 25.93-40 56 35.94 2.27 68.71 45.5 24.57-22.83 41.84Z"/></svg>