<svg xmlns="http://www.w3.org/2000/svg" viewBox="0 0 772 600.6"><path d="M161.69 263h-47.78a89.29 89.29 0 0 1 49.14-79.63c-17.29-12.28-29.12-32.3-29.12-55.51 0-38.22 31.4-69.16 69.62-69.16s69.61 30.94 69.61 69.16c0 23.21-11.83 43.23-29.57 55.51A88.89 88.89 0 0 1 293.18 263h-47.77a41.86 41.86 0 1 0-83.72 0Zm99.19 189.73c-52.78-39.13-83.27-101.46-83.27-167.44h47.78c0 51.42 23.2 99.65 64.15 129.22Zm-79.17-324.88a21.84 21.84 0 0 0 21.84 21.84 21.84 21.84 0 0 0 0-43.68 21.84 21.84 0 0 0-21.84 21.84Zm104.65-25.48a206.8 206.8 0 0 1 199.29 0l-22.75 41.41c-48.69-25.94-105.11-25.48-153.79 0Zm189.28 405.41h-47.78a41.86 41.86 0 1 0-83.72 0h-47.77c0-35 20-65.52 49.14-79.62-17.75-12.29-28.67-32.77-28.67-56 0-38.22 30.49-69.62 69.16-69.62 38.22 0 69.16 31.4 69.16 69.62a68.52 68.52 0 0 1-28.66 56c29.12 14.1 49.14 44.59 49.14 79.62ZM364.16 372.19A21.85 21.85 0 0 0 386 394c11.83 0 21.39-10 21.39-21.84A21.46 21.46 0 0 0 386 350.35a21.84 21.84 0 0 0-21.84 21.84ZM658.09 263h-47.77a41.86 41.86 0 0 0-83.72 0h-47.78a88.88 88.88 0 0 1 49.6-79.63c-17.75-12.28-29.58-32.3-29.58-55.51 0-38.22 31.4-69.16 69.62-69.16s69.61 30.94 69.61 69.16c0 23.21-11.83 43.23-29.12 55.51A89.29 89.29 0 0 1 658.09 263Zm-63.24 22.29c0 65.52-31.4 128.77-83.72 167.44l-28.21-38.23c40.49-30.94 64.15-77.8 64.15-129.22Zm-48.23-157.44A21.84 21.84 0 1 0 568.46 106a22.14 22.14 0 0 0-21.84 21.85Z"/></svg>