<svg xmlns="http://www.w3.org/2000/svg" viewBox="0 0 293.3133 294.24773"><path d="M173.09999,225.54775l-22.79999,22.5-105.60001-105.60001,22.5-22.5L0,52.44774l153.00002-16.8,3-2.7C190.8,1.74775,242.70003-3.05226,292.50002,1.44774c3.29999,68.10001-2.70001,107.10001-31.79999,136.5l-2.70001,3-17.40002,152.39999-67.5-67.80002v.00003ZM23.09999,167.34774l104.70001,104.39999-22.79999,22.5L.59999,190.44774l22.5-23.10001ZM85.49998,102.54772l38.70001-39-69.60001,8.10001,30.89999,30.89999ZM150.59999,202.74773l86.10001-86.10001c17.70001-17.70001,26.39999-52.8,24.60001-85.5-33.29999-.89999-64.20001,5.39999-84,25.5l-86.70001,86.10001,60,60ZM221.7,238.74773l8.10001-69.29999-39,38.39999,30.89999,30.89999Z" /></svg>