<svg xmlns="http://www.w3.org/2000/svg" viewBox="0 0 540.89996 296.09998"><path d="M48.60001,124.5c-10.2-12.89999-16.5-29.39999-16.5-47.39999C32.10001,34.20001,66.60001,0,109.5,0s77.10001,34.2,77.10001,77.10001c0,18-6,34.5-16.5,47.39999,29.39999,19.79999,48.89999,53.39999,48.89999,90.89999v80.69998H0v-80.70001c0-37.5,19.5-71.10001,48.60001-90.89999v.00003ZM186.60001,263.70001v-48.29999c0-29.10001-17.7-57-43.8-69.29999-9.89999,5.39999-21.3,8.10001-33.3,8.10001s-23.7-2.70001-33.60001-8.10001c-26.7,13.20001-43.5,39.89999-43.5,69.29999v48.29999h154.20001ZM109.5,122.10001c24.3,0,45-19.5,45-45s-21-45-45-45c-25.2,0-45,20.10001-45,45s21.3,45,45,45ZM223.5,31.5l9,6.89999-19.20001,26.39999h111l-19.20001-26.39999,9-6.89999,27.89999,39.60001-27.60001,39.60001-8.70001-6.60001,18.89999-27.60001h-111.60001l18.89999,27.60001-8.70001,6.60001-27.60001-39.60001,27.89999-39.60001h.00009ZM322.20001,215.39999c0-37.5,19.20001-71.10001,48.60001-90.89999-10.5-12.89999-16.5-29.39999-16.5-47.39999,0-42.89999,34.5-77.10001,77.39999-77.10001s77.09998,34.2,77.09998,77.10001c0,18-6.29999,34.5-16.5,47.39999,29.40002,19.79999,48.59998,53.39999,48.59998,90.89999v80.69998h-218.70001v-80.70001l.00006.00003ZM508.79999,263.69998v-48.29999c0-29.10001-17.70001-57-43.79999-69.30002-9.90002,5.39999-21.59998,8.10001-33.29999,8.10001-12.29999,0-23.70001-2.70001-33.89999-8.10001-26.39999,13.20001-43.5,39.89999-43.5,69.29999v48.29999h154.49997v.00003ZM431.69998,122.09998c24.30002,0,44.69998-19.5,44.69998-45s-20.70001-45-44.70001-45c-25.5,0-45,20.10001-45,45s21,45,45,45h.00003Z" /></svg>