<svg xmlns="http://www.w3.org/2000/svg" viewBox="0 0 700 600"><path d="m52.21 136.41 298-59.15 297.59 59.15v387.66H600V172.36L350.23 125 100 172.36v351.71H52.21Zm115.11 293.93c0-27.3 10.92-62.79 23.21-86.45-16.84-34.58-25-67.79-21.84-101 6.37-50.5 43.68-79.62 93.27-79.62 29.58 0 60.06 10 86.45 22.75 27.76-13.2 56.42-22.3 84.63-22.3 54.15 0 89.64 30.49 95.1 81.45 3.18 34.12-6.83 68.25-21.84 99.19 13.65 28.21 22.75 60.06 22.75 86.45 0 56.42-37.77 94.18-94.64 94.18-29.58 0-59.61-9.55-86.45-22.75C320.66 515.88 289.72 525 262 525c-56.91 0-94.68-37.33-94.68-94.66Zm130.59 40c-27.3-19.11-56.88-48.68-76-76-4.09 12.74-6.82 25-6.82 35.94 0 31.4 16.38 46.87 46.86 46.87 10.93.06 23.67-2.67 35.96-6.77Zm0-252.52c-12.29-4.1-25-6.83-36-6.83-29.57 0-45.95 15.93-46.41 45.5-.45 11.38 1.82 23.66 6.37 36.86 21.44-29.08 47.83-54.56 76.04-75.49Zm153.33 126.53c-25.48-42.35-62.79-78.26-102.83-103.29C307 267 270.15 302.94 244.67 343.89c25.48 38.68 72.35 84.63 103.74 103.74C387.09 424 428 383 451.24 344.35Zm-130.13 0a27 27 0 0 1 27.3-26.85 26.61 26.61 0 0 1 26.85 26.85c0 14.56-11.83 27.3-26.85 27.3s-27.3-12.74-27.3-27.3Zm160.16-86.45c0-30.94-16.83-46.41-46.86-46.41-10.92 0-23.21 2.73-35.49 6.37 25.93 18.65 57.33 50.05 75.53 76 5-13.21 6.82-23.22 6.82-35.96Zm0 172.9c0-11.38-2.73-23.66-6.82-35.95-21.84 29.12-47.32 55.06-75.53 76 12.28 4.09 24.57 6.37 35.49 6.37 32.3-.01 46.86-17.76 46.86-46.42Z"/></svg>