<svg xmlns="http://www.w3.org/2000/svg" viewBox="0 0 331.80002 295.49997"><path d="M331.80002,156.29999l-32.39999,22.79999v60l-67.50003,15.60001-6.29999,40.79999H81.29999c-11.39999-37.19998-19.5-48.29999-44.39999-79.79999C16.79999,190.49997,0,167.99997,0,120.89999,0,40.79999,63.89999,0,151.5,0c80.10001,0,142.19998,27,144.89999,102.89999l35.40002,53.39999ZM64.2,200.69998c13.49998,16.20001,28.8,34.20001,39.59999,63.29999h94.80002l5.39999-35.10001,63.89999-14.70001v-51.29999l20.39999-14.70001-23.10001-35.70001c0-56.39999-33.89999-81.3-113.70001-81.3-68.70001,0-120,27.60001-120,89.7,0,37.5,10.8,53.70001,32.7,79.79999l.00003.00006ZM91.79999,65.39998c18.89999,0,34.5,15.59999,34.5,34.8,0,14.39999-9,27-21.89999,31.79999v60.60001h-25.20001v-60.60001c-12.89999-4.79999-21.89999-17.39999-21.89999-31.79999,0-19.20001,15.29999-34.8,34.5-34.8ZM91.79999,109.19998c5.10001,0,9.29999-3.89999,9.29999-9s-4.20001-9.60001-9.29999-9.60001-9.29999,4.5-9.29999,9.60001,4.20001,9,9.29999,9ZM139.79999,126.89999v-60.60001h25.20001v60.60001c12.89999,4.79999,21.89999,17.39999,21.89999,31.79999,0,18.89999-15.60001,34.20001-34.5,34.20001s-34.5-15.30002-34.5-34.20001c0-14.39999,9-27,21.89999-31.79999ZM152.39999,167.69998c5.10001,0,9.29999-3.89999,9.29999-9s-4.20001-9.29999-9.29999-9.29999-9.29999,4.20001-9.29999,9.29999,4.20001,9,9.29999,9ZM213,65.39998c18.89999,0,34.5,15.59999,34.5,34.8,0,14.39999-9,27-21.89999,31.79999v60.60001h-25.20001v-60.60001c-12.89999-4.79999-21.89999-17.39999-21.89999-31.79999,0-19.20001,15.29999-34.8,34.5-34.8ZM213,109.19998c4.79999,0,9.29999-3.89999,9.29999-9s-4.5-9.60001-9.29999-9.60001c-5.10001,0-9.29999,4.5-9.29999,9.60001s4.20001,9,9.29999,9Z" /></svg>