<svg xmlns="http://www.w3.org/2000/svg" viewBox="0 0 343.5 296.10001"><path d="M.00006,243v-85.20001C.00006,132.89999,17.40005,111.89999,40.50006,106.5v-45.89999C40.50006,27,67.80006,0,101.40005,0c18,0,34.5,7.8,45.29999,20.7C157.50003,7.8,174.00003,0,192.00003,0s34.20001,7.8,45.29999,20.7c10.79999-12.89999,27-20.7,45-20.7,33.60001,0,61.19998,27,61.19998,60.60001v182.39999c0,29.10001-24,53.10001-53.39999,53.10001H53.40001c-29.39999,0-53.40001-24-53.40001-53.10001h.00006ZM53.40005,264.60001h236.69998c12,0,21.89999-9.60001,21.89999-21.60001v-70.20001c-8.39999,5.39999-18.60001,8.70001-29.70001,8.70001-12.60001,0-24.29999-4.20001-33.29999-10.79999-2.70001,6.89999-6.89999,13.79999-12,19.20001-10.79999,14.39999-27.29999,23.10001-46.20001,23.10001h-102.60001v-31.20001h102.60001c17.10001,0,30.60001-13.79999,30.60001-30.60001v-15.29999H53.40002c-12,0-21.89999,9.89999-21.89999,21.89999v85.19998c0,12,9.89999,21.60001,21.89999,21.60001h.00003ZM131.10004,104.70001v-44.10001c0-15.89999-13.20001-29.39999-29.70001-29.39999s-29.39999,13.5-29.39999,29.39999v44.10001h59.10001ZM221.40002,104.70001v-44.10001c0-15.89999-13.20001-29.39999-29.39999-29.39999s-29.39999,13.5-29.39999,29.39999v44.10001h58.79999ZM282.30002,150.30002c16.5,0,29.70001-13.5,29.70001-29.39999v-60.3c0-15.89999-13.20001-29.39999-29.70001-29.39999s-29.39999,13.5-29.39999,29.39999v60.3c0,15.89999,13.20001,29.39999,29.39999,29.39999Z" /></svg>