<svg xmlns="http://www.w3.org/2000/svg" viewBox="0 0 373.5 292.49998"><path d="M331.19998,164.99998l32.39999,18.89999-15.89999,27.29999-32.39999-18.89999c-4.5,5.70001-7.20001,8.70001-12.89999,13.20001l18.89999,32.39999-27.29999,15.60001-18.89999-32.39999c-6.29999,2.39999-12.29999,3.89999-18.60001,4.79999l20.10001,66.60001H66.3L0,72.89998h123.60001l11.70001-20.7,32.70001,18.90001c3.89999-4.79999,8.10001-9,13.20001-12.89999l-18.89999-32.7,27.29999-15.89999,18.60001,33c6-2.39999,11.70001-4.2,17.70001-4.8V0h31.5v37.5c6.29999.89999,12,2.39999,17.70001,5.10001l18.89999-33,27.29999,15.89999-18.89999,32.7c4.79999,3.60001,9.29999,7.79999,12.89999,12.89999l32.39999-18.89999,15.89999,27.29999-32.39999,18.60001c2.39999,5.70001,3.89999,11.70001,4.79999,18h37.49997v31.5h-37.5c-.89999,6-2.70001,12-4.79999,17.39999h-.00003ZM53.09999,140.7h58.8l-11.10001-35.39999h-58.2l10.5,35.39999ZM71.09999,200.09999h58.8l-10.20001-34.20001h-58.8l10.2,34.20001h.00002ZM89.39999,260.99998h59.39999l-11.10001-35.39999h-58.8l10.5,35.39999h.00002ZM138.29999,140.7h59.70001l-10.79999-35.39999h-59.70001l10.79999,35.39999ZM156.59998,200.09999h59.39999l-10.20001-34.20001h-60l10.79999,34.20001h.00003ZM175.19998,260.99998h59.10001l-10.79999-35.39999h-59.10001l10.79999,35.39999ZM247.19998,195.29997c32.39999-2.70001,58.5-29.39999,58.5-63.60001s-28.5-63.89999-63.89999-63.89999c-11.10001,0-21.60001,2.70001-30.60001,7.79999l36,119.70001Z" /></svg>