<svg xmlns="http://www.w3.org/2000/svg" viewBox="0 0 496.70608 454.13104"><path d="M.00008,304.38008c.02221-63.19073,39.42983-119.6698,98.73-141.5-.37444-4.23576-.52464-8.48837-.45-12.74001C98.28009,66.87007,165.65008.00008,248.88009.00008c82.84268-.08288,150.06711,67.0072,150.14999,149.84987.00009.09671.00009.19342,0,.29013.07465,4.25163-.07556,8.50424-.45001,12.74001,77.82672,28.82086,117.55383,115.27582,88.73297,193.10257s-115.27582,117.55386-193.10254,88.733c-16.55444-6.13043-31.89917-15.12988-45.33044-26.58557-27.61465,23.30237-62.59741,36.05811-98.73001,36C67.51773,454.42281.29368,387.67342.00093,305.04109c-.00078-.22034-.00107-.44067-.00088-.66101h.00002ZM253.89007,301.20009c0-56-47.78-100.56-103.73999-100.56-58.7,0-103.29001,48.23001-103.29001,103.73999,0,56.41998,46,102.83002,103.29001,102.83002,58.69,0,103.73999-45.95001,103.73999-106.01001ZM156.06005,297.10008c-11.83-6.37-20-12.28-20-19.56,0-8.19,6.37-12.73999,14.56-12.73999,8.64999,0,13.64999,4.09,20.48001,10.45999l10.89999-12.26001c-8.19-7.73999-15.92999-11.82999-25.48001-14.10999v-13.67001h-13.64999v14.10999c-13.64999,2.73001-24.57001,14.10001-24.57001,28.20999,0,10.92001,8.19,19.56,16.38,24.57001,9.55,6.82001,31.85001,16.82999,31.85001,26.84,0,9.56-8.19,14.56-15.92999,14.56-11.83,0-17.29001-7.28-27.75-15.92001l-11.82999,11.41003c8.64,9.56,20.47,18.20001,31.85001,20v14.10999h13.64999v-14.10999c15.92001-3.17999,27.29999-13.64999,27.29999-30,0-14.60999-12.29001-23.25-27.76001-31.89999ZM351.71005,154.69008c.91-61.88-45.5-107.84-102.82999-107.84-58.22998,0-104.22998,45.95999-103.22998,107.84,36.85001-1.82001,74.62,11.37,103.28,35.94,27.72-24.57001,66.84-37.75999,102.78-35.94h-.00003ZM450.45007,304.38008c0-56.87-46-103.73999-103.29001-103.73999-25.35233.09338-49.79214,9.47089-68.69998,26.35999,14.65555,22.79297,22.39731,49.34216,22.29001,76.44-.07669,27.50101-7.79376,54.43973-22.29001,77.81,42.82556,37.84366,108.22089,33.80499,146.06458-9.02057,16.56641-18.74734,25.78009-42.86169,25.93542-67.87943l-.01001.03Z" /></svg>