<svg xmlns="http://www.w3.org/2000/svg" viewBox="0 0 518.40001 299.09995"><path d="M44.39999,61.5l.60001,25.20001-44.4.89999-.6-25.2,44.40001-.89999-.00002-.00002ZM32.7,0l32.39999,31.2-17.7,18.3L14.99999,18.60001,32.7,0ZM65.09999,112.79999l88.8,88.79999-18,17.70001-88.5-88.5,17.7-18ZM415.49998,228.59998c-18.60001,23.70001-39,35.70001-64.5,36.29999-21.89999.60001-54.89999-10.79999-73.20001-22.20001-5.39999,7.20001-11.39999,14.10001-19.20001,21.60001-21.60001,21-43.79999,34.79999-69.29999,34.79999-44.10001,0-86.10001-39.60001-134.7-93.60001l23.39999-21c38.40001,42,56.40001,59.10001,78.90001,72.60001,31.5,18.60001,51,12.60001,80.10001-15.60001,38.70001-37.20001,36.89999-64.5,1.5-102l-81.89999-80.39999,22.20001-22.5,69.30002,68.39999,40.79999-92.7,28.79999,12.60001-45.60001,105.00002c21.29999,26.39999,31.79999,55.20001,20.39999,85.20001,7.5,4.5,18,8.70001,26.70001,10.20001,33.29999,12.60001,52.20001,9.29999,71.70001-16.5,19.20001-25.20001,30.90002-54.60001,46.5-96.89999l29.70001,11.10001c-19.5,51.60001-30.59998,78.60001-51.60001,105.60001l-.00003-.00003ZM84.89999,71.39999l99.59999,99.30002-18,18-99.60001-99.60001,18-17.70001h.00002ZM121.49998,46.5l93.89999,93.89999-17.70001,18.29999-93.89999-94.2,17.7-18,.00002.00002ZM345.89998.60001l23.10001,10.2-52.5,122.09999-23.10001-9.89999L345.89998.60001ZM389.09999,10.20001l23.10001,9.89999-55.20001,129.30002-23.39999-9.89999L389.09999,10.20003v-.00002ZM422.7,41.40001l23.40002,9.89999-49.5,115.2-23.10001-9.89999,49.19998-115.2ZM485.7,0l17.40002,18.60001-32.09998,30.89999-17.70001-18.3L485.70006,0h-.00006ZM473.7,61.5l44.70001.89999-.29999,25.20001-44.70001-.89999.29999-25.2v-.00002Z" /></svg>