<svg xmlns="http://www.w3.org/2000/svg" viewBox="0 0 610.56 577.39001"><path d="M570.06,319.86999l30.94,21.84-28.21002,40-30.94-21.79999c-17.40326,16.59433-39.79236,26.98752-63.70001,29.57001l-3.64001,37.76999-48.67999-4.54999,3.17999-37.76999c-23.20001-6.37-43.22-21.38-57.33002-40.48999l-44.59,21.38c1.90915,7.89526,2.8262,15.99777,2.73001,24.12l49.60001,7.73001-7.28,47.78-50.04999-7.73999c-10.03284,31.34674-31.2514,57.90466-59.60995,74.60995l18.20001,47.32001-45,17.75-18.66-47.32001c-8.97327,1.95526-18.11757,3.02045-27.3,3.17999-23.44945-.05212-46.48752-6.16302-66.87999-17.73999l-31.89,39.59003-38.22-30.47998,31.85001-39.59c-21.84003-23.66006-34.13004-56.42004-34.58003-88.71005l-50-7.73999,7.68-48.26001,49.6,7.73999c10.35267-31.17389,31.48564-57.63263,59.60001-74.62l-18.2-47.32001,45.5-17.29001,18.2,46.86002c8.97758-1.92926,18.11934-2.99414,27.3-3.17999,23.45891.07312,46.50072,6.20816,66.89,17.81l31.85001-39.58,38.22,30.48-31.85001,39.59c5.35059,5.86331,10.07608,12.26782,14.10001,19.10999l42.32001-20c-2.30673-8.44214-3.22873-17.20261-2.73001-25.94.06522-15.0238,3.16025-29.88007,9.10001-43.67999l-30.94-21.84,28.20999-40,30.94,21.84c17.51401-16.43103,39.84561-26.7975,63.70001-29.57001l3.64001-37.77,48.23001,4.10001-3.19,38.22c23.21002,6.82001,43.22998,21.38,57.78998,40l34.12-15.47,20.47998,44.13-34.58002,15.93001c2.2016,8.62125,3.27063,17.49255,3.17999,26.39001-.45001,15.39999-4.09003,32.69-9.09998,43.60999ZM280.67999,393.57998c0-51.87-41.85999-91.91-91-91.91-52.32001,0-91,43.67999-91,91.45001,0,51,43.23,91,91,91,50.04999,0,91-42.31,91-90.54001ZM185.59,79.63c0-23.21-47.34-17.31-47.34-49.14,0-17.75,14.56-30.49,33.20999-30.49,11.83,0,25.48,5.92,34.13,14.11l-12.72,12.74c-6.37-5.46-12.74001-8.19-20.48-8.19-9.10001,0-14.56,3.18-14.56,9.1,0,18.65,47.78,13.65,47.78,48.68,0,20-15.93001,33.67-34.58,33.67-15,0-30-8.64-39.59-21.84l12.28999-12.74c8.64,10.92,16.83,15.93,26.84,15.93,9.56,0,15.02-4.14,15.02-11.83ZM216.97998,393.11999c-.08191,14.91147-12.23645,26.9332-27.14792,26.85126-.05069-.00027-.10139-.0007-.15208-.00125-14.82608-.28616-26.61302-12.53705-26.32687-27.36313.27838-14.42307,11.90382-26.04849,26.32687-26.32687,14.91077-.16595,27.13286,11.78711,27.29878,26.69788.00055.04736.00095.09473.00122.14212ZM250.64996,19.11999h-35V.91h88.72v18.2h-34.61002v88.27h-19.10995l-.00003-88.26001ZM343.92996,107.38999h-19.11002V.91h19.10999l.00003,106.47998ZM464.49997,208.38998c-37.31,0-68.69998,29.58-69.16,62.79001-.45001,38.22,29.57999,70.53,68.25,70.53,35.48999,0,66-28.67001,66.42999-62.34.46002-37.31-27.77002-70.98001-65.51999-70.98001ZM490.43994,274.38998c0,14.56-12.28998,26.84-27.29999,26.84-14.77167-.16193-26.71155-12.0885-26.88995-26.85999,0-15,12.29001-27.29999,26.85001-27.29999,15.07474.02197,27.29599,12.22528,27.34,27.29999l-.00006.01999Z" /></svg>