<svg xmlns="http://www.w3.org/2000/svg" viewBox="0 0 700 600"><path d="M52.21 133.68 350.23 75l297.57 58.68v390.39H600v-354L350.2 122.3 100 170.08v354H52.21Zm273 368.1a95 95 0 0 1-45.5-160.16l16.38-16.84-89.18-55.51 93.27-122.85L511.76 294.3l-85.54 111.93-96.92-60.52-22.75 22.75A58.32 58.32 0 0 0 290.17 409a56.74 56.74 0 0 0 16.38 40.49 56.16 56.16 0 0 0 40 16.84 57.46 57.46 0 0 0 41-16.84l5-5.46h110.11v38.22H408a91.23 91.23 0 0 1-44.59 20.48v21.38h-38.2Zm118.3-197-132.86-92.84L276.52 257l138.32 85.54Z"/></svg>