<svg xmlns="http://www.w3.org/2000/svg" viewBox="0 0 492.00002 292.79999"><path d="M93.30001,261.29999h34.2v-19.5h-31.8v-30.29999h-12.3v57.60001H0V21h83.4v57.29999h12.3v-30h31.8v-16.8h-34.2V0h100.20001v31.5h-34.5v16.8h9.60001c75.30002,0,110.39999,24.3,181.80002,24.3h11.10001V31.5h-34.20001V0h99.89999v31.5h-34.20001v41.39999c6.29999.29999,11.39999,1.20001,16.20001,3.60001v-28.2h82.79999v193.49998h-82.79999v-28.5c-5.10001,2.39999-9.89999,3.60001-16.20001,3.60001v44.39999h34.20001v31.5h-99.89999v-31.5h34.20001v-44.10001h-11.10001c-75.29999,0-105.89999,24.60001-181.79999,24.60001h-9.60001v19.5h34.5v31.5h-100.20004v-31.5ZM51.90002,237.59998V52.5h-20.39999v185.10001h20.39999v-.00003ZM95.70002,179.99997v-70.19998h-12.3v70.20001h12.3v-.00003ZM168.60003,210.29996c75.60001,0,105.30002-24.60001,181.80002-24.60001h38.39996c17.10001,0,31.20001-13.5,31.20001-30.89999v-19.79996c0-17.10001-14.10001-30.89999-31.20001-30.89999h-38.39999c-76.80002,0-107.10001-24.60001-181.80002-24.60001h-41.7v49.79999h14.39999c6-15.60001,21.3-27,39.3-27h78.60001c23.70001,0,42.89999,19.20001,42.89999,42.89999s-19.20001,42.60001-42.89999,42.60001h-78.60001c-18,0-33.3-11.10001-39.3-27h-14.39999v49.5h41.7l.00003-.00003ZM180.60003,156.59995h78.60001c6,0,11.39999-5.39999,11.39999-11.39999,0-6.29999-5.39999-11.39999-11.39999-11.39999h-78.60001c-6,0-11.39999,5.10001-11.39999,11.39999s5.39999,11.39999,11.39999,11.39999ZM460.80001,210.29999V79.5h-20.09998v20.70001c6.90002,10.20001,10.5,22.20001,10.5,34.79999v19.79999c0,12.89999-3.59998,24.60001-10.5,35.10001v20.39999h20.09998Z" /></svg>