<svg xmlns="http://www.w3.org/2000/svg" viewBox="0 0 298.80002 292.79999"><path d="M97.79999,95.10001V0h103.80002v95.39999l97.20001,197.39999H0L97.80002,95.09998l-.00003.00003ZM247.49997,261.29999l-77.70001-159V31.49998h-40.20001v70.50002l-78,159.29999h195.90002ZM114.29996,203.39999c9.89999,0,18.29999,7.79999,18.29999,16.79999,0,10.5-8.39999,18.89999-18.29999,18.89999s-17.10001-8.39999-17.10001-18.89999c0-8.39999,7.20001-16.79999,17.10001-16.79999ZM147.59995,150.89999c10.20001,0,18.29999,8.10001,18.29999,18.29999s-8.70001,18-18.29999,18-17.39999-8.10001-17.39999-18c0-9,8.70001-18.29999,17.39999-18.29999ZM181.19995,203.10001c9.29999,0,18,7.79999,18,17.10001,0,10.5-8.70001,19.20001-18,19.20001-9.89999,0-17.70001-8.70001-17.70001-19.20001,0-8.39999,8.39999-17.10001,17.70001-17.10001Z" /></svg>