<svg xmlns="http://www.w3.org/2000/svg" viewBox="0 0 591.35775 577.11199"><path d="M573.2528,394.49002c-13.08337,13.10706-31.80066,18.89816-50,15.47-24.10999-1.37-44.13-17.29001-52.32001-40.5h-61.92999c-1.28024,21.08759-8.71716,41.33661-21.39001,58.23999l25.94,28.67001c15-3.64001,25.48001-2.73001,37.31,1.35999,32.76001,11.38,50.04999,48.23001,36.84998,81.44998-12.73999,30.47998-44.59,45-77.79999,34.58002-34.13-10-50-49.14001-36.85999-81.45001,2.16577-5.24524,5.07928-10.14941,8.64999-14.56l-21.84-23.20001c-47.66739,33.22845-112.75183,24.97031-150.60999-19.10999l-86,26.84c.05392,9.27951-1.9688,18.45355-5.92,26.85001-10.46001,21.84003-32.75999,33.66998-55.50999,33.66998-45.95,0-76-48.69-55-90.09,10.6961-20.77213,32.14603-33.78275,55.50999-33.67001,19.99132.04312,38.68443,9.90933,50,26.39001l76.89-23.66c-15.47-36.86002-7.73-81.44998,17.29001-112.84l-49.14-48.69c-8.57976,3.87932-17.88402,5.89694-27.3,5.92001-34.12,0-61.88-27.75999-61.88-61.42999,0-34.17538,27.70462-61.88,61.88-61.88s61.88,27.70462,61.88,61.88c-.02563,10.00703-2.51564,19.8537-7.25,28.67l49.60001,49.59001c23.20001-15,57.78-20.47,90.09-12.73999l8.19-18.2c-7.84204-6.04967-13.96198-14.04866-17.75-23.2-16.85001-40.53003,12.26999-85.53003,56.87-85.53003,25.1236-.16858,47.82272,14.96416,57.33002,38.22,13.19,31.39-1.82001,67.79001-33.22,80.53-8.64001,3.64001-20.47,5-27.75,4.54999l-9.10001,19.57001c22.98444,14.99704,39.53662,38.04022,46.41,64.60999h66.00003c2.9657-11.09674,10.37427-20.48041,20.47998-25.94,23.20001-21.38,59.15002-20,81.44,2.28,24.10217,24.13531,24.08423,63.23676-.03998,87.35001l-.00006.00003ZM62.2528,437.26001c-14.11,0-23.66,11.82999-22.3,25,0,11.38,9.56,19.10999,18.2,20.92999,8.65,2.28,19.57001-1.82001,24.57001-11.37,7.78-15.91-2.69-34.56-20.43-34.56h-.04ZM153.70281,184.73001c0-13.06706-10.59294-23.66-23.66-23.66s-23.66,10.59294-23.66,23.66c0,12.74001,10.92,23.20999,23.66,23.20999s23.66-10.47,23.66-23.20999ZM361.70281,360.82c.31485-36.62616-29.12128-66.57278-65.74744-66.88766-.22751-.00195-.45505-.00275-.68256-.00235-36.85999,0-66.42999,29.57999-66.42999,66.89001,0,37.76001,31.39001,66.42999,66.42999,66.42999,36.57211.11615,66.31384-29.43723,66.42999-66.00934.00046-.14023.00046-.28043,0-.42065ZM247.93282,55.06c0-31.85,23.66-55.06,53.23001-55.06,16.38,0,31.39999,7.28,42.32001,18.66l-12.78003,12.74001c-9.56-9.1-20-12.29-29.12-12.29-19.57001,0-34.13,13.65-34.13,35.95,0,21.84,14.10999,35.94,33.66998,35.94,11.38,0,22.75-5,30.94-11.83l10.92001,12.74c-10.92001,10.92-26.38998,18.2-42.31,18.2-29.07999,0-52.73999-23.2-52.73999-55.05001ZM349.85284,188.36999c1.35999,9.56,8.64001,17.29001,17.73999,18.66,15.47,2.73,28.67001-10.47,25.94-25.48-1.12042-11.25772-10.52737-19.87216-21.84-20-15.47-.02-24.57001,14.99001-21.84,26.81999ZM393.53283,107.36999h-31.39999V.91h31.39999c34.12,0,58.69,22.3,58.69,53.24s-24.51999,53.23-58.69,53.23v-.01001ZM393.53283,19.55999h-12.29001v68.76001h12.29001c24.10999,0,38.66998-13.19,38.66998-35,0-20.1-14.56-33.75-38.66998-33.75v-.01001ZM424.01284,537.79998c11.76776,3.19751,23.89954-3.75006,27.09705-15.51782.31982-1.177.54156-2.37854.66296-3.59216,4.09-14.56-9.10001-26.84-21.38998-26.84-11.59424-.14468-21.23438,8.89066-21.84006,20.47-1.84,11.39001,4.54999,22.31,15.47,25.48999l.00003-.01001ZM481.34283,108.32h-19.10999V0l51.46997,55.06L564.70281,0v108.32h-19.20001v-60.09l-31.79999,32.31-32.35999-32.31v60.09ZM529.57281,327.63c-12.8158-.26596-23.42059,9.90765-23.68658,22.72342s9.90765,23.42062,22.72339,23.68658c.32104.00665.64215.00665.9632,0,6.37,0,14.10999-3.64001,18.65997-11.82999,9.54999-13.67999,0-34.60999-18.65997-34.60999v.02997Z" /></svg>