<svg xmlns="http://www.w3.org/2000/svg" viewBox="0 0 327.90209 299.70004"><path d="M0,227.70004c0-40.5,33-72.30002,71.7-72.30002,11.39999,0,22.79999,2.39999,33,8.10001l38.70001-47.10001L64.20001,20.10002,88.20003.00002l75.60001,91.49998L239.40004,0l24.29999,20.10001-79.5,96.30002,38.70001,47.10001c10.20001-5.70001,21.29999-8.10001,33-8.10001,39.60001,0,72.29999,33.29999,72,73.20001-.59998,40.20001-33.60001,71.10001-72.29999,71.10001s-72.29999-31.79999-72.29999-72c0-16.5,6-32.70001,15.29999-44.39999l-34.80005-42.30002-34.79999,42.29999c10.5,13.5,15.29999,29.39999,15.29999,44.70001,0,39.89999-32.39999,71.69998-72.29999,71.69998S.00002,267.30002.00002,227.70001l-.00002.00003ZM75.3,268.20004c22.20001-1.79999,37.5-19.79999,37.5-40.5,0-22.5-18-40.79999-40.5-40.79999s-40.8,18-40.8,40.79999,19.5,42.29999,43.8,40.5ZM256.2,268.50003c22.20001,0,40.20001-18.60001,40.20001-40.79999s-18-40.79999-40.79999-40.79999-40.79999,18.29999-40.79999,41.10001,18.29999,40.5,41.39999,40.5l-.00003-.00003Z" /></svg>