<svg xmlns="http://www.w3.org/2000/svg" viewBox="0 0 338.69998 299.70001"><path d="M15.90001,23.09993l29.10001,16.8-15.89999,27.60001L.00002,50.39993l15.89999-27.3ZM29.10001,73.19992l15.89999,27.29999-29.10001,16.79999L0,89.99991l29.10001-16.79999ZM34.5,229.19992L0,209.39993l15.89999-27.29999,34.2,19.79999v-39.60001h31.50002v39.60001l34.5-19.79999,15.60001,27.29999-34.5,19.79999,34.5,19.79999-15.60001,27.29999-34.5-19.79999v39.60001h-31.5v-39.60001l-34.2,19.79999L.00002,248.99991l34.5-19.79999h-.00002ZM50.10001,3.29993h31.5l-.29999,33.89999-31.2-.3V3.29993h-.00002ZM50.10001,103.49994h31.5v33.60001h-31.5v-33.60001ZM116.10001,23.09995l15.60001,27.3-29.10001,17.09999-15.89999-27.60001,29.39999-16.8v.00002ZM102.60001,73.19995l29.10001,16.79999-15.60001,27.29999-29.39999-16.79999,15.89999-27.29999ZM245.70001,131.39996c-17.10001,0-32.39999-4.79999-44.70001-13.79999-12.60001-9-21.89999-21.89999-27-37.79999s-6.60001-33.89999-4.5-54.3l.89999-8.7,8.10001-3.89999C197.39999,4.2,214.79999,0,231.29999,0h.29999c16.79999,0,32.10001,4.5,44.39999,13.5,12.60001,9,21.89999,22.2,27,37.8,4.5,13.5,6.29999,28.2,5.39999,44.7l30.30002,20.10001-17.39999,26.39999-30.89999-20.70001c-15.60001,6.29999-30.60001,9.60001-44.70001,9.60001l.00003-.00003ZM191.70001,209.99997c9.89999,0,17.70001,7.79999,17.70001,17.70001s-7.79999,17.70001-17.70001,17.70001-18-7.79999-18-17.70001,8.10001-17.70001,18-17.70001ZM195,176.69998c6.89999-6.89999,18.29999-6.89999,25.20001,0,6.89999,6.89999,6.89999,18.29999,0,25.20001s-18.29999,6.89999-25.20001,0c-6.89999-6.89999-6.89999-18.29999,0-25.20001ZM195,253.5c6.89999-6.89999,18.29999-6.89999,25.20001,0,6.89999,6.89999,6.89999,18.29999,0,25.20001s-18.29999,6.89999-25.20001,0c-6.89999-6.89999-6.89999-18.29999,0-25.20001ZM203.70001,69.89999c3,9,8.39999,17.10001,15.60001,22.20001s15.89999,7.79999,26.39999,7.79999c9.60001,0,20.10001-2.39999,31.20001-6.60001.60001-12.29999-.60001-22.79999-3.60001-31.8-3.29999-9.89999-8.70001-17.39999-15.60001-22.5-7.20001-5.10001-15.89999-7.8-26.10001-7.8h-.29999c-9.60001,0-20.10001,2.39999-31.20001,6.89999-.60001,12,.60001,22.5,3.60001,31.79999v.00003ZM246,155.39999c9.89999,0,18,8.10001,18,17.70001s-8.10001,18-18,18-17.70001-8.10001-17.70001-18,8.10001-17.70001,17.70001-17.70001ZM246,210c9.89999,0,18,7.79999,18,17.70001s-8.10001,17.70001-18,17.70001-17.70001-7.79999-17.70001-17.70001,8.10001-17.70001,17.70001-17.70001ZM246,264c9.89999,0,18,8.39999,18,18s-8.10001,17.70001-18,17.70001-17.70001-7.79999-17.70001-17.70001,8.10001-18,17.70001-18ZM272.10001,176.70001c6.89999-6.89999,18.29999-6.89999,25.20001,0,6.60001,6.89999,6.29999,18.89999,0,25.20001-6.60001,6.60001-17.70001,7.20001-25.20001,0-6.9588-6.62741-7.22742-17.6412-.60001-24.60001.1951-.20483.39514-.40491.60001-.60001ZM272.10001,253.5c6.89999-6.89999,18.29999-6.89999,25.20001,0,6.60001,6.60001,6.29999,18.89999,0,25.20001-6.60001,6.60001-17.70001,7.20001-25.20001,0-6.9588-6.62741-7.22742-17.6412-.60001-24.60001.1951-.20483.39514-.40491.60001-.60001ZM300.60001,210c9.60001,0,17.70001,7.79999,17.70001,17.70001s-8.10001,17.70001-17.70001,17.70001-17.70001-7.79999-17.70001-17.70001,7.79999-17.70001,17.70001-17.70001Z" /></svg>