<svg xmlns="http://www.w3.org/2000/svg" viewBox="0 0 344.10001 299.40004"><path d="M.00002,154.50002C.00002,111.3,35.10001,76.20003,78.60001,76.20003c22.20001,0,42.60001,9.29999,57.60001,25.20001,10.79999-6.29999,23.10001-9.60001,36-9.60001s24.89999,3.29999,35.70001,9.60001c15-16.20001,35.39999-25.20001,57.60001-25.20001,44.10001,0,78.59998,35.70001,78.59998,78.29999s-35.39999,78.60001-78.60001,78.60001-78.30002-35.10001-78.30002-78.60001c0-9,1.20001-17.70001,4.5-26.10001-6-3.29999-12.60001-5.10001-19.5-5.10001s-13.79999,1.79999-19.79999,5.10001c3,8.39999,4.5,17.10001,4.5,26.10001,0,44.39999-35.70001,78.60001-78.29999,78.60001S0,197.70003,0,154.50002h.00002ZM77.10001.00002C93.89999.00002,110.39999,3.60002,125.39999,10.80002l-13.20001,28.5c-10.79999-5.10001-22.5-7.8-34.5-7.8-18.60001,0-35.7,5.7-50.10001,16.8L8.39998,23.40002C27.89998,8.40002,52.49997.00003,77.09998.00003l.00003-.00002ZM78.60001,201.60002c26.10001,0,46.79999-21.29999,46.79999-47.10001s-21-46.79999-46.79999-46.79999-47.10001,21-47.10001,46.79999,21.3,47.10001,47.10001,47.10001ZM137.39999,264.00002c9.89999,0,18,7.79999,18,17.70001s-8.10001,17.70001-18,17.70001-17.70001-7.79999-17.70001-17.70001,7.79999-17.70001,17.70001-17.70001ZM206.69998,264.00002c9.89999,0,17.70001,7.79999,17.70001,17.70001s-7.79999,17.70001-17.70001,17.70001-17.70001-7.79999-17.70001-17.70001,8.10001-17.70001,17.70001-17.70001ZM265.49997,201.60002c26.10001,0,47.10001-21.29999,47.10001-47.10001s-21.29999-46.79999-47.10001-46.79999-47.10001,21-47.10001,46.79999,21.29999,47.10001,47.10001,47.10001ZM266.99997.00002C291.59998.00002,316.19998,8.40001,335.69998,23.40001l-18.89999,24.89999c-15.60001-11.7-32.39999-16.8-50.10001-16.8-12,0-23.70001,2.7-34.5,7.8l-13.5-28.5c15.29999-7.2,31.5-10.8,48.29999-10.8v.00002Z" /></svg>