<svg xmlns="http://www.w3.org/2000/svg" viewBox="0 0 484.5 295.79994"><path d="M129.60001,279.00002C71.10001,269.70003,0,251.40001,0,203.10002c0-20.70001,14.4-43.79999,31.5-62.70001-2.39999-6.29999-3.60001-12.60001-3.60001-19.20001C27.89999,44.09999,124.79999,0,216,0c39.89999,0,69.60001,6.3,105,22.5,6.89999-6.89999,15.60001-10.8,25.5-10.8,29.70001,0,52.20001,32.7,53.39999,64.80002,36.00003,42.89999,56.69998,75,84.60001,129-53.70001-5.39999-86.39999-5.70001-146.70001-2.10001,7.79999,12.29999,19.79999,18.89999,36.29999,19.79999l-1.5,18.89999c-25.79999-1.79999-47.70001-16.79999-56.10001-36.89999-36,2.70001-68.69998,8.39999-105,8.39999-25.5,0-58.5-3-81.60001-8.39999-1.2,3-3,6.89999-3,10.79999,0,9.60001,11.10001,15.89999,29.70001,18.29999l-2.39999,18.60001c-25.2-3-45.89999-14.70001-45.89999-37.20001,0-5.10001,1.5-10.5,3.3-15-27.60001-8.39999-54.90001-21.29999-70.5-42.60001-12.3,14.70001-22.2,29.70001-22.2,45,0,32.39999,58.2,48.29999,114.3,57.29999,69.3,11.10001,174.00002,16.5,320.39998,16.5v18.89999c-146.39999,0-252.60001-5.39999-324-16.79999l.00003.00006ZM210.90002,181.8c41.10001,0,93.60001-7.79999,157.20001-10.5,20.39999-.89999,40.79999-1.5,60.59998-1.5-16.79999-26.70001-37.79999-55.79999-60.89999-82.5,2.10001-23.7-10.20001-46.5-21.89999-44.10001-4.20001.89999-7.79999,8.10001-7.79999,17.7,0,8.40001,3.29999,18.59999,8.39999,25.49998l-25.79999,18.29999c-8.70001-12-14.39999-29.70001-14.39999-44.39999,0-3,.60001-6.60001.89999-9.3-31.79999-14.7-55.20001-19.5-90.60001-19.5-73.2,0-157.2,33.3-157.2,88.8,0,45,94.2,61.5,151.49998,61.5v.00003ZM381.60004,128.09999c3.89999,0,6.60001,2.70001,6.60001,6.29999,0,3.29999-2.70001,6.29999-6.29999,6.29999s-6.29999-2.70001-6.29999-6c0-3.60001,2.70001-6.60001,6-6.60001l-.00003.00003Z" /></svg>