<svg xmlns="http://www.w3.org/2000/svg" viewBox="0 0 457.73001 572.39001"><path d="M457.73001,572.39001h-47.78003c-.05823-6.88281-.81885-13.74164-2.27002-20.46997H49.59001c-1.2997,6.7439-1.90952,13.60254-1.82001,20.46997H0c0-107.83002,101-191.10001,218.85001-243.88,45.04999-19.56,70.07001-35.94,106-61.88h-192.45c19.75645,15.09174,40.76237,28.47342,62.78999,40l-47.32999,25.51999C83.26001,298.02999.00002,216.58.00002,128.32h47.77c-.08867,7.62297.52054,15.23807,1.82001,22.75h358.09c1.45117-7.49791,2.211-15.11319,2.27002-22.75h47.77997c0,109.66-105.10999,192.47-219.31,243.88-37.31,16.84-81.45001,41.85999-108.29001,64.16h197c-14.10001-11.82999-30.48001-23.20999-58.23999-41.41l46-26.39001c75.5,45.04001,142.84,116.47,142.84,203.83002ZM394.48001,513.23998c-5-10.91998-17.73999-30-25.92999-38.66998H88.72002c-10.92,12.73999-20,25.92999-25.93001,38.66998h331.69ZM367.18002,227.95999c10.40775-11.54889,19.27802-24.39546,26.39001-38.22H63.70001c5.91,11.83,18.64999,29.57001,26.39,38.22h277.09001ZM197.92001,79.63c0-23.21-47.76999-17.29-47.76999-49.14,0-17.75,15-30.49,33.67001-30.49,11.82999,0,25.48001,5.92,34.12,14.11l-12.73999,12.74c-6.37-5.46-12.73999-8.19-20.92999-8.19-8.64001,0-14.10001,3.18-14.10001,9.1,0,18.65,47.76999,13.65,47.76999,48.68,0,20-15.92001,33.67-35,33.67-14.56,0-29.57999-8.64-39.13-21.84l12.25-12.74c8.64999,10.92,16.84,15.93,26.85001,15.93,9.54999,0,15.01001-4.14,15.01001-11.83h-.00003ZM277.09,109.63L226.59.91h20.92999l29.57001,62.79L306.66998.91h21.38l-50.95999,108.72Z" /></svg>