<svg xmlns="http://www.w3.org/2000/svg" viewBox="0 0 282.90001 296.10001"><path d="M0,128.10001v-15.60001h15.89999c21.60001,0,45.3,5.70001,63.90001,15.60001,11.70001-30.29999,27.89999-56.70001,50.39999-78.60001l11.10001-11.10001,11.10001,11.10001c22.20001,21.60001,37.79999,46.20001,50.39999,78.60001,19.20001-9.89999,42.60001-15.60001,64.20001-15.60001h15.89999v15.60001c0,72-54.60001,133.5-126,140.39999v27.60001h-31.5v-27.60001C54.59999,261.60001.00002,200.39999.00002,128.10001h-.00002ZM38.40001,10.8l2.7,23.39999C70.50002,11.7,105.90001,0,141.3,0s71.70001,12,100.5,34.2l2.39999-23.39999,21,2.10001-5.39999,50.40001-48,15.89999-6.60001-20.10001,24-7.8c-24.29999-19.8-57.60001-30.3-87.89999-30.3s-63.89999,11.10001-87.60001,30.3l24,7.8-6.60001,20.10001-48.3-15.89999-5.10001-50.39999,20.7-2.10001.00003-.00002ZM63.60002,206.10001c16.5,16.79999,37.79999,27,60.29999,30.60001-3.29999-22.79999-13.79999-43.79999-30.60001-60.60001-16.5-16.5-37.79999-27-60.3-30.60001,3.3,22.79999,14.40001,44.10001,30.59999,60.60001h.00003ZM141.3,190.80002c8.10001-17.70001,16.79999-28.5,34.5-45-8.39999-24.60001-20.39999-45.60001-34.5-62.10001-15.60001,18.29999-26.70001,40.20001-34.5,62.10001,18.29999,16.79999,26.70001,27.60001,34.5,45ZM219.00002,206.10001c16.5-16.5,27.29999-37.79999,30.89999-60.60001-23.10001,3.60001-45,14.70001-60.60001,30.60001-16.5,16.79999-27.29999,37.79999-30.60001,60.60001,22.79999-3.60001,43.20001-13.5,60.29999-30.60001h.00003Z" /></svg>