<svg xmlns="http://www.w3.org/2000/svg" viewBox="0 0 371.82387 296.09993"><path d="M17.7,70.8c9.89999,0,18,7.79999,18,17.70001s-8.10001,17.70001-18,17.70001S0,98.40004,0,88.50002s7.8-17.70001,17.7-17.70001ZM63.60001,284.7l-32.39999-20.10001H2.10001v-31.5h37.8l39.90001,24.60001c7.5,4.5,15.29999,6.89999,24.29999,6.89999h107.39999c8.10001,0,15.89999-2.10001,22.5-6l100.5-49.79999c4.79999-3,6.89999-8.70001,5.39999-13.79999-1.79999-6.29999-8.10001-9.60001-14.10001-8.10001l-98.10001,23.70001c-5.10001,17.70001-21.60001,30.29999-41.10001,30.29999h-72v-31.20001h72c6.60001,0,12-5.39999,12-11.70001,0-6.89999-5.39999-12-12-12h-62.39999c-4.5,0-9.60001-.89999-15.29999-3l-27.3-8.70001c-1.5-.60001-2.39999-.60001-3.3-.60001H2.09999v-31.20001h76.2c5.10001,0,9.89999.60001,14.39999,2.39999l27.89999,8.70001c1.20001.60001,2.70001.89999,4.5.89999h61.5c17.10001,0,31.79999,9.89999,39,24.29999l92.39999-22.5c22.5-5.39999,45,7.5,51.90002,29.39999,6,19.20001-2.40002,40.20001-20.09998,50.39999l-100.5,50.10001c-12,6.29999-24.89999,9.89999-37.79999,9.89999h-107.39999c-15,0-29.10001-4.5-40.5-11.39999l-.00003.00006ZM87.60001,80.7c9.89999,0,18,7.79999,18,17.70001s-8.10001,17.70001-18,17.70001-17.7-7.79999-17.7-17.70001,7.8-17.70001,17.7-17.70001ZM95.39999,1.8c9.60001,0,17.70001,8.10001,17.70001,17.7s-8.10001,18-17.70001,18-17.7-8.39999-17.7-18S85.5,1.8,95.39999,1.8ZM185.10001,0c26.70001,26.7,54.29999,62.40001,54.29999,85.2,0,29.70001-24.29999,54-54.29999,54s-54.29999-24.29999-54.29999-54c0-23.10001,29.39999-60,54.29999-85.2ZM185.10001,108.00002c12.60001,0,22.79999-10.5,22.79999-22.79999,0-9.89999-11.39999-25.2-22.79999-38.39999-10.79999,12.60001-23.10001,30.60001-23.10001,38.39999,0,12.29999,10.5,22.79999,23.10001,22.79999ZM277.80002,22.50002c9.89999,0,18,7.8,18,17.7s-8.10001,17.7-18,17.7-17.70001-7.8-17.70001-17.7,7.79999-17.7,17.70001-17.7ZM283.20001,106.50002c9.89999,0,18,7.79999,18,17.70001s-8.10001,17.70001-18,17.70001-17.70001-7.79999-17.70001-17.70001,7.79999-17.70001,17.70001-17.70001ZM347.70004,60.30002c9.90002,0,18,8.09999,18,17.7s-8.09998,17.70001-18,17.70001-17.70001-7.79999-17.70001-17.70001,7.79999-17.7,17.70001-17.7Z" /></svg>