<svg xmlns="http://www.w3.org/2000/svg" viewBox="0 0 393 299.40004"><path d="M0,94.2C0,41.39999,42.60001,0,94.2,0c25.2,0,48.3,9.60001,66.59999,27.60001l5.39999,5.10001,5.10001-5.10001C188.39999,10.5,211.5,0,237.89999,0c52.79999,0,94.5,43.5,94.5,94.2,0,3.60001-.60001,7.5-.89999,11.10001,23.70001,14.10001,40.5,31.5,61.5,62.70001-37.20001,54.89999-76.79999,81-126,81-14.39999,0-28.79999-2.39999-42.60001-7.79999l-58.20001,58.20001L27.29999,161.10005C10.5,144.3,0,120.3,0,94.2ZM49.5,138.90001l116.70001,116.10001,29.10001-29.10001c-21.60001-14.39999-35.10001-29.70001-54-57.89999,36.89999-54.60001,76.5-81,125.69998-81,11.39999,0,22.5,1.5,33.29999,4.79999.29999-.89999.29999-2.39999.29999-3.29999-3-32.7-30.89999-57.3-62.70001-57.3-16.79999,0-32.70001,6.89999-44.10001,18.60001l-27.60001,28.2-27.60001-28.2c-11.70001-11.7-27.89999-18.60001-44.39999-18.60001-35.10001,0-62.7,28.2-62.7,63.00002,0,18,6.89999,33.60001,18,44.70001l.00005-.00003ZM267,217.8c35.39999,0,65.10001-21,87.60001-49.79999-23.10001-29.39999-53.10001-49.5-87.60001-49.5s-65.39999,20.70001-87.60001,49.5c22.79999,29.70001,53.10001,49.79999,87.60001,49.79999ZM267,150.3c9.89999,0,18,7.79999,18,17.70001s-8.10001,17.70001-18,17.70001-17.70001-7.79999-17.70001-17.70001,8.10001-17.70001,17.70001-17.70001Z" /></svg>