<svg xmlns="http://www.w3.org/2000/svg" viewBox="0 0 435.94 444.08002"><path d="M116.02,299.85001c-32.3-5-57.78-33.67001-57.78-67.80002V69.16001C58.24001,30.94001,89.63,0,127.85001,0h180.63998c38.17944-.01658,69.14343,30.92054,69.16,69.09998v162.91003c0,34.13-25,62.79001-57.79001,67.79999l116.08002,144.27002h-61.48001l-45-56H106.47l-45.05,56H0l116.02-144.23001ZM329.87,125.58001v-56.42c.01657-11.79128-9.52869-21.36342-21.31995-21.38-.02002-.00003-.04004-.00003-.06006,0H127.85001c-11.85017-.20995-21.62683,9.22633-21.83676,21.0765-.0018.10115-.00287.20233-.00323.3035v56.42h223.85999ZM308.48999,253.44001c11.79678.01111,21.36899-9.54306,21.3801-21.33987.00003-.03003,0-.06009-.00009-.09012v-67.75H106.01001v67.75c.04242,11.85748,9.68918,21.43549,21.54666,21.39307.09778-.00034.19556-.00137.29333-.00305l180.63998.03998ZM291.19998,340.34l-31.85001-39.13h-82.80997l-31.85001,39.13h146.50998Z" /></svg>