<svg xmlns="http://www.w3.org/2000/svg" viewBox="0 0 700 600"><path d="m193.48 383.42-28.66-195.65H75.18V140h526.89l-37.31 243.42ZM349.55 499.9a89 89 0 0 1-89.18 89.18c-49.6 0-89.64-40-89.64-89.18a89.41 89.41 0 1 1 178.82 0Zm-136.5-312.13 21.84 147.87h288.92l22.75-147.87Zm89.18 310.76a41.86 41.86 0 1 0-41.86 41.86 42 42 0 0 0 41.86-41.86Zm278.46 1.37c0 49.14-40.5 89.18-89.64 89.18s-89.63-40-89.63-89.18a89.64 89.64 0 1 1 179.27 0Zm-47.78-1.37a41.86 41.86 0 1 0-41.86 41.86 41.75 41.75 0 0 0 41.86-41.86Z"/></svg>