<svg xmlns="http://www.w3.org/2000/svg" viewBox="0 0 499.80002 300.29996"><path d="M67.2,128.39999c26.39999,0,50.40001,15.29999,61.2,39.29999,30,7.20001,51,34.79999,51,65.39999,0,37.20001-30,67.19998-67.2,67.19998-26.39999,0-49.8-15.29999-61.2-39.29999C20.1,252.89996,0,225.89996,0,195.59998c0-37.20001,30-67.19998,67.2-67.19998ZM67.2,231.29999c19.8,0,36-15.89999,36-35.70001s-16.2-35.70001-36-35.70001-35.7,15.89999-35.7,35.70001,16.2,35.70001,35.7,35.70001ZM112.2,268.79999c19.8,0,36-15.89999,36-35.70001,0-11.39999-7.2-25.20001-15-27.60001-3,25.79999-21,46.5-44.09999,53.39999,5.7,6,14.10001,9.89999,23.10001,9.89999l-.00002.00003ZM218.39999,161.69998l-35.70001-22.79999,13.5-5.39999,42,27-12.89999,48.29999-13.5,5.39999,10.79999-40.79999-41.39999,15.89999-4.5-11.70001,41.70001-15.89999ZM259.19998,109.79999l13.79999-5.39999-11.39999,41.10001,41.70001-15.89999,4.5,11.10001-41.39999,16.20001,35.39999,23.10001-13.5,5.10001-42-27.29999,12.89999-48v-.00006ZM499.80002,67.19998c0,22.5-10.5,42.29999-28.5,55.20001,0,36.89999-30.29999,67.5-67.5,67.5-31.5,0-58.20001-22.20001-65.10001-51-24.29999-11.39999-39.29999-34.79999-39.29999-61.5,0-38.10001,30.60001-67.2,67.19998-67.2,8.39999,0,16.79999,1.5,24,4.5,11.70001-9.3,26.70001-14.7,42-14.7,36.90002,0,67.20001,30.3,67.20001,67.2v-.00002ZM340.50003,100.79999c7.79999-24,29.10001-41.7,53.70001-44.39999-6.29999-9.3-16.20001-14.7-27.60001-14.7-19.79999,0-35.70001,15.89999-35.70001,35.7,0,9,3.60001,17.70001,9.60001,23.39999ZM403.80002,158.39999c19.79999,0,36-16.20001,36-36s-16.20001-35.70001-36-35.70001-35.70001,15.89999-35.70001,35.70001,15.89999,36,35.70001,36ZM431.70004,61.5c11.70001,4.8,23.09998,15,29.40002,26.10001,4.5-5.39999,7.20001-12.60001,7.20001-20.39999,0-14.39999-9.29999-26.7-20.70001-31.5-9.59998-4.2-19.79999-4.8-29.40002-.60001,6.59998,7.5,11.40002,16.5,13.5,26.39999Z" /></svg>