<svg xmlns="http://www.w3.org/2000/svg" viewBox="0 0 455.00001 577.36999"><path d="M417.69001,350.32c24.12,44.14001,37.31,87.82001,37.31,124.66998,0,63.70001-39.13,102.38-102.37,102.38-37.31,0-81-12.73999-125.58002-37.31-44.14001,24.10999-87.82001,37.31-124.67,37.31-65.06999,0-102.38-40-102.38-102.38,0-37.31,13.2-81,37.31001-125.12C13.2,305.72997,0,262.04998,0,224.73998,0,161.49998,38.68,122.36999,102.38001,122.36999c37.31,0,81,13.19,125.12,37.75999,44.59-24.56999,88.26999-37.31,125.13-37.31,63.70001,0,102.37,38.22,102.37,102.37999,0,36.88-13.19,80.56-37.31,125.12v.00003ZM180.64002,510.05999c-43.55429-31.49792-81.80208-69.7457-113.3-113.29999-10.92,24.12-19.56,54.14999-19.56,78.26001,0,37.31,16.83,54.59998,54.59999,54.59998,26.39,0,52.32001-8.19,78.26001-19.56ZM67.80003,303.05999c31.85001-44.13,71-83.26001,113.29001-112.84-25-11.37-54.14-20-78.70999-20-32.31,0-51,13.2-53.69,45.5-3.19,24.52,6.37,59.10001,19.11,87.31l-.00002.03ZM227.50001,484.58001c52.78-33.66998,100.10001-82.81,134.67999-134.26001-32.29999-50.5-84.16998-101.91998-134.67999-134.67999-52.32001,33.22-99.64,81-134.67999,134.22998,32.75999,50.53,83.26999,101.95001,134.67999,134.71002ZM192.92002,79.63c0-23.21-47.76999-17.29-47.76999-49.14,0-17.75,14.56-30.49,33.20999-30.49,11.82999,0,25.94,5.92,34.57999,14.11l-13.19,12.74c-5.49927-5.29342-12.84717-8.23185-20.48001-8.19-9.10001,0-14.56,3.18-14.56,9.1,0,18.65,47.78,13.65,47.78,48.68,0,20-15.92999,33.67-34.58002,33.67-15,0-29.57999-8.64-39.59-21.84l12.73999-12.74c8.64999,10.92,16.38,15.93,26.85001,15.93,9.10001,0,15.01001-4.14,15.01001-11.83h.00003ZM254.35001,349.89999c0,14.82886-12.02112,26.85001-26.84998,26.85004-14.82886,0-26.85001-12.02115-26.85004-26.84998,0-14.82886,12.02115-26.85004,26.84998-26.85004h.00003c14.79477.08197,26.76804,12.05524,26.85001,26.85001v-.00003ZM269.82001,107.37998h-35.48999V.91h33.66998c19.56,0,33.66998,12.74,33.66998,27.76.10947,8.00653-3.82797,15.52788-10.47,20,10.47,3.18,18.20001,15,18.20001,27.3,0,18.67-17.29001,31.41-39.57999,31.41v-.00002ZM266.63001,19.56999h-13.19v22.75002h13.19c9.10001,0,15.92999-4.55,15.92999-11.83,0-6.37-6.37-10.92-15.92999-10.92h0ZM271.18,59.56999h-17.73999v29.12h17.73999c10.92001,0,18.66-5.46,18.66-14.56,0-8.61-7.73999-14.52-18.66-14.52v-.04001ZM406.77003,475.47997c0-25-9.09998-56-19.56-78.26001-30.48999,42.76999-72.35001,83.72-113.29999,112.84003,25,11.83002,55.06,20,78.72,20,39.12997.02002,54.13998-19.54999,54.13998-54.58002ZM407.23005,225.22997c0-37.31-17.75-55.06-54.60001-55.06-24.12,0-52.78,8.64999-78.26001,20,40.94998,29.15002,85.12997,72.82004,112.83997,113.32004,11.82999-25.94,20.01999-52.78,20.01999-78.26001l.00006-.00003Z" /></svg>