<svg xmlns="http://www.w3.org/2000/svg" viewBox="0 0 700 600"><path d="m294 514.06-96-56.42c-48.65-40.49-75.5-99.64-75.5-159.7v-74.17l95.55-16.83a144.61 144.61 0 0 0 43.23-16.38c54.6-32.31 122.85-32.31 177 0a143 143 0 0 0 44.14 16.38l95.09 16.83v74.17c0 61.42-28.21 121-75.53 159.7l-96 56.42c-17.29 10.47-36.86 15-56 15s-38.65-4.53-55.98-15Zm87.81-40.95 91-53.69a159.23 159.23 0 0 0 56.88-121.48v-34.58l-56-9.56c-21.38-3.64-40-10.92-59.6-22.29-39.59-23.66-89.18-23.21-128.77 0-19.11 11.37-38.22 18.65-59.15 22.29l-56 9.56v34.58c0 45.95 21.38 92.36 56.87 121.48l91.46 53.69c19.22 11.38 43.79 11.38 63.35 0ZM217.6 101.83a26.85 26.85 0 1 1 26.84 26.85 26.6 26.6 0 0 1-26.84-26.85Zm110.56 238.42-105.1-21.84 7.73-37.31 105.11 21.84a73.55 73.55 0 0 0 28.21 0l105.1-21.84 7.79 37.31-105.16 21.84a105.74 105.74 0 0 1-43.68 0Zm5 83.72-77.34-15.47 7.73-37.76 76.9 15.92a44.94 44.94 0 0 0 19.11 0l76.89-15.92 7.74 37.76-77.35 15.5a78.77 78.77 0 0 1-33.67 0Zm95.09-322.14a27.08 27.08 0 1 1 27.3 26.85 27 27 0 0 1-27.29-26.85Z"/></svg>