<svg xmlns="http://www.w3.org/2000/svg" viewBox="0 0 303.89999 292.80002"><path d="M.00002,57.89999V0h31.5v57.89999c0,23.10001,18.89999,42,41.99998,42s42-18.89999,42-42V0h31.5v57.89999c0,35.10001-25.20001,64.5-57.89999,71.69998v163.20001h-31.5v-163.19998C24.3,122.10001,0,92.10001,0,57.90001l.00002-.00002ZM60.60001,0h25.5v62.7h-25.5V0ZM198.29999,0h52.5c29.39999,0,53.10001,23.7,53.10001,53.10001v103.5c0,29.39999-23.70001,53.10001-53.10001,53.10001h-21v83.10001h-31.5V0ZM250.79999,178.20001c11.70001,0,21.60001-9.60001,21.60001-21.60001V53.10001c0-12-9.89999-21.60001-21.60001-21.60001h-21v146.70001h21Z" /></svg>