<svg xmlns="http://www.w3.org/2000/svg" viewBox="0 0 466.80001 296.10001"><path d="M352.49999,31.5h-60.60001l52.20001,104.39999c11.70001-6,24.29999-9.29999,37.79999-9.29999,47.09998,0,84.90002,38.10001,84.90002,84.89999s-37.79999,84.60001-84.89999,84.60001-84.30002-37.79999-84.30002-84.60001c0-21.60001,8.10001-41.10001,21.29999-55.79999l-17.10001-33.89999-31.79999,63.89999c4.79999,7.20001,8.10001,15.89999,8.10001,24.89999,0,24.60001-20.10001,44.70001-44.70001,44.70001s-44.39999-19.79999-44.39999-44.10001h-19.79999c0,46.79999-37.5,84.89999-84.3,84.89999S0,258.30002,0,211.5s37.8-84.89999,84.9-84.89999c13.5,0,26.39999,3.29999,37.8,9.29999l19.79999-39-19.2-38.39999h-29.7v-31.5h95.10001v31.5h-30l18.60001,38.10001h112.20001l-37.20001-73.8,13.5-22.8h86.70001v31.5h-.00003ZM84.89999,264.89999c29.10001,0,53.10001-23.70001,53.10001-53.39999s-24-53.39999-53.10001-53.39999-53.39999,24.29999-53.39999,53.39999,23.39999,53.39999,53.39999,53.39999ZM164.99999,186h32.10001c7.5-11.70001,21-19.79999,36.29999-19.79999,5.70001,0,11.39999,1.5,16.20001,4.20001l24-48.60001h-115.5l-14.39999,29.39999c10.20001,9.29999,17.70001,21,21.29999,34.79999ZM233.39999,230.10001c10.5,0,19.20001-8.70001,19.20001-19.5s-8.70001-19.20001-19.20001-19.20001-19.20001,8.70001-19.20001,19.20001,8.39999,19.5,19.20001,19.5ZM381.89999,264.89999c29.40002,0,53.70001-23.39999,53.70001-53.39999s-24.29999-53.39999-53.70001-53.39999-53.10001,24-53.10001,53.39999,24,53.39999,53.10001,53.39999Z" /></svg>