<svg xmlns="http://www.w3.org/2000/svg" viewBox="0 0 669.00013 295.79999"><path d="M351.9,31.5h-60.60001l52.20001,104.10001c11.70001-5.70001,24.29999-9,38.10001-9,27.29999,0,51.89999,13.79999,66.30002,34.20001,12,1.5,26.10001,5.70001,38.39999,11.39999,12.30002,6,42.60001,24,45.60001,26.10001v-68.39999h32.40002v-47.70001h-35.09998v-31.5h101.70001v31.5h-35.09998v47.70001h32.40002v131.39999h40.79999v31.5h-177.90012v-31.5h40.80002v-27.60001c-7.20001-3-16.5-9-27-15.60001-12-7.5-25.5-16.20001-39.89999-20.70001.89999,4.79999,1.20001,9.29999,1.20001,14.10001,0,46.79999-37.79999,84.29999-84.60001,84.29999s-84.60001-37.5-84.60001-84.29999c0-21.60001,8.10001-41.39999,21.60001-56.10001l-17.10004-33.60001-32.10001,63.89999c5.10001,6.89999,8.10001,15.60001,8.10001,24.89999,0,24.60001-20.10001,44.39999-44.7,44.39999s-44.09999-19.5-44.40001-43.79999h-19.5s.3,0,.3.29999c0,46.79999-38.09999,84.30002-84.9,84.30002S0,258.29999,0,211.5s37.5-84.89999,84.3-84.89999c13.8,0,27,3.29999,38.4,9l19.2-38.70001-16.2-33.60001h-32.4v-31.5h95.1v31.5h-27.60001l16.2,33.29999h111.90001l-36.89999-73.2,13.5-23.39998h86.39999v31.5ZM84.30001,264.60001c29.39999,0,53.40001-24,53.40001-53.10001s-24.3-53.39999-53.4-53.39999-53.1,23.70001-53.1,53.39999,24,53.10001,53.09999,53.10001ZM164.70002,185.70001h31.79999c7.8-11.70001,21.3-19.5,36.3-19.5,6,0,11.7,1.5,16.2,3.89999l24.29999-48.29999h-115.19998l-14.7,29.10001c9.89999,9.29999,17.39999,21.29999,21.3,34.79999ZM232.80003,229.80002c10.79999,0,19.5-8.70001,19.5-19.20001s-8.70001-19.20001-19.5-19.20001-19.2,8.39999-19.2,19.20001,8.7,19.20001,19.2,19.20001ZM381.60004,264.60001c29.39999,0,53.10001-23.70001,53.10001-53.10001s-23.70001-53.39999-53.10001-53.39999-53.39999,24.29999-53.39999,53.39999,24.29999,53.10001,53.39999,53.10001ZM596.70008,261.30002v-99.89999h-33.29999v99.89999h33.29999Z" /></svg>