<svg xmlns="http://www.w3.org/2000/svg" viewBox="0 0 700 600"><path d="M567.49 280.65V353c0 43.23-35.49 79.17-79.17 79.17h-43.68v22.3a69.32 69.32 0 0 1-69.64 69.6H231.7a69.72 69.72 0 0 1-70.07-69.61V273.82a96 96 0 0 1-29.12-69.16c0-55.51 46-98.73 99.19-97.82A97.89 97.89 0 0 1 304.05 75c30.48 0 59.15 14.56 76 35.94 50.05 2.73 89.64 41.86 92.82 91h15.47c43.66-.01 79.15 35.06 79.15 78.71Zm-337.15-25.94c10.92 0 14.1-1.82 32.76-9.1 19.56 22.75 29.12 30 48.68 30 17.29 0 25-5.91 41.86-20.47 14.11 2.73 18.66 3.64 21.84 3.64 27.76 0 50-22.75 50-50.51a50.19 50.19 0 0 0-50-50.05c-.45 0-10 .91-20 2.28-16.83-28.21-28.21-38.22-51.41-38.22-22.75 0-32.76 10-49.6 35.49-20-3.64-22.29-3.64-24.11-3.64-27.3 0-50.05 22.75-50.05 50.5-.02 27.37 22.69 50.08 50.03 50.08Zm166.53 199.75V302.94a68 68 0 0 1-21.39 3.64c-3.18 0-5.46-.45-8.19-.45A100.72 100.72 0 0 1 311.78 323 96 96 0 0 1 249 300.21c-5.91 1.82-12.28 2.28-18.65 2.28A69.55 69.55 0 0 1 209 299.3v155.16c0 11.83 10.47 21.84 22.75 21.84H375a21.85 21.85 0 0 0 21.87-21.84Zm122.85-173.81a31.08 31.08 0 0 0-31.4-30.94h-24.11a88.15 88.15 0 0 1-19.57 27.75v106.93h43.68a31.47 31.47 0 0 0 31.4-31.4Z"/></svg>