<svg xmlns="http://www.w3.org/2000/svg" viewBox="0 0 425.40001 296.10004"><path d="M231.90001,281.39999l-52.20001-52.5H10.5v-31.5h182.40001l61.20001,61.79999c3.89999,3.89999,9,5.70001,14.39999,5.70001,5.10001,0,10.5-1.79999,14.10001-5.70001l7.20001-7.79999-27.60001-27.60001,18-17.70001,27.60001,27.60001,17.70001-18-27.60001-27.29999,18-18,27.60001,27.60001,21.29999-21-57.29999-60-15.60001,15.60001c-8.70001,9-21.60001,14.39999-33.89999,14.10001-25.79999-.29999-48-20.70001-48-48,0-9.29999,2.70001-20.39999,9-28.5.60001-.60001,4.5-5.10001,6.60001-7.2h-75l52.20001,84.59999-10.79999,18.89999H10.5L0,147.60001,90.59999,0h21.60001l18.89999,31.5h125.69998L288.29997,0h137.09998v25.2h-126.59995l-57,57.00002c-4.20001,4.20001-6.60001,10.20001-6.60001,16.5,0,13.5,10.79999,22.79999,22.79999,22.79999,6.29999,0,12.29999-2.70001,16.20001-6.60001l57.29999-57.3,17.70001,17.7-23.70001,24,64.5,67.20001h35.40002v25.20001h-30.90002l-89.70001,89.70001c-9.29999,9.29999-22.5,14.70001-36.29999,14.70001s-27.29999-5.39999-36.60001-14.70001l.00003-.00003ZM169.50002,141.29999L101.40001,31.49998l-67.8,109.8h135.90001ZM88.80002,64.5h25.2v37.20001h-25.2v-37.20001ZM88.80002,113.39999h25.2v18h-25.2v-18Z" /></svg>