<svg xmlns="http://www.w3.org/2000/svg" viewBox="0 0 299.7 299.40001"><path d="M299.7,149.70003c0,82.80002-67.20001,149.69998-150,149.69998S0,232.50002,0,149.7,66.90001,0,149.7,0s150,66.59999,150,149.7v.00003ZM149.7,268.20003c66,0,118.5-54.60001,118.5-118.5S214.2,31.20003,149.7,31.20003,31.5,84.00002,31.5,149.70003s52.8,118.5,118.2,118.5ZM100.49998,103.20003c9.89999,0,17.70001,7.79999,17.70001,17.70001s-7.79999,17.70001-17.70001,17.70001-18-7.79999-18-17.70001,8.10001-17.70001,18-17.70001ZM86.7,170.40001h123.89999v25.5h-123.89999v-25.5ZM197.40001,103.2c9.89999,0,17.70001,7.79999,17.70001,17.70001s-7.79999,17.70001-17.70001,17.70001-17.70001-7.79999-17.70001-17.70001,7.79999-17.70001,17.70001-17.70001Z" /></svg>