<svg xmlns="http://www.w3.org/2000/svg" viewBox="0 0 212.39995 297.00002"><path d="M5.39999,271.8h56.40001v-22.79999C26.09999,244.8,0,215.10002,0,179.7c0-19.5,7.8-36.89999,20.09999-49.5l22.79999-22.5L7.49998,55.8,126.89998,0l48.89999,158.40001-75.30002,34.79999-39.89999-58.79999-18,18c-7.5,7.5-11.39999,17.39999-11.39999,27.29999,0,21.29999,17.10001,38.39999,38.39999,38.39999,14.10001,0,21-4.79999,31.79999-15.89999h111v31.5h-98.10001c-6.29999,5.10001-13.5,9.29999-21.29999,11.70001v26.39999h56.39999v25.20001H5.39995v-25.20001h.00005ZM111.59999,153.3l25.79999-11.70001-30-98.10001-53.10001,25.20001,57.29999,84.60001h.00003Z" /></svg>