<svg xmlns="http://www.w3.org/2000/svg" viewBox="0 0 440.10001 296.10001"><path d="M440.10001,75.89999v170.10001h-38.40002c-6.90002,29.39999-33.60001,50.10001-63.89999,50.10001s-57-21.29999-63.60001-50.10001h-111.89999c-7.79999,30.60001-34.20001,50.10001-63.89999,50.10001s-56.10001-20.39999-63.89999-50.10001H0V0h361.5v44.10001l78.60001,31.79999ZM330,214.79999V31.5h-44.39999v79.79999h-12.60001c-15.60001,0-18-6.60001-26.70001-6.60001s-11.70001,6.60001-26.70001,6.60001-18-6.60001-26.70001-6.60001c-8.10001,0-12,6.60001-26.70001,6.60001-15.60001,0-17.70001-6.60001-26.70001-6.60001-8.39999,0-11.70001,6.60001-26.7,6.60001s-17.7-6.60001-26.39999-6.60001h-12.60001V31.49998H31.49994v183.3h298.50006ZM98.39999,264.89999c13.2,0,24.60001-7.79999,29.70001-18.89999h-59.10001c5.10001,11.10001,16.5,18.89999,29.39999,18.89999ZM86.39999,150.89999h186.60001v25.20001H86.39999v-25.20001ZM112.79999,86.09998c8.7,0,12-6.60001,26.70001-6.60001s18.89999,6.60001,26.70001,6.60001,12.29999-6.60001,26.70001-6.60001c15.29999,0,18.29999,6.60001,26.70001,6.60001,7.79999,0,12.29999-6.60001,26.70001-6.60001,6,0,10.20001,1.20001,14.10001,2.10001V31.49997H99.00006v50.10001c6.3,1.20001,7.5,4.5,13.8,4.5h-.00008ZM337.79999,264.89996c12.89999,0,24.60001-7.79999,29.70001-18.89999h-59.39999c5.10001,11.10001,16.5,18.89999,29.70001,18.89999h-.00003ZM408.60001,214.79996v-117.29996l-47.10001-19.20001v136.5h47.10001v-.00003Z" /></svg>