<svg xmlns="http://www.w3.org/2000/svg" viewBox="0 0 342.60005 298.80006"><path d="M0,217.49998l22.2-22.20001,29.7,29.70001,55.8-55.79999v-39.29999l-56.10001-55.79999-29.39999,29.39999L0,81.3,81.59999,0l22.20001,22.2-29.7,29.7,33.90001,33.59999v-5.39999c0-33,29.10001-58.8,62.10001-58.8s62.70001,26.7,62.70001,60.3v6l36-35.7-29.70001-29.7L261.60002,0l81.00003,81.3-22.20001,22.20001-29.39999-29.39999-58.20001,57.89999v35.39999l57.89999,57.60001,29.70001-29.70001,22.20001,22.20001-81,81.30002-22.5-22.20001,29.39999-29.39999-35.70001-35.39999v5.70001c0,32.70001-29.10001,58.20001-62.70001,58.20001s-62.10001-25.79999-62.10001-57.29999v-5.10001l-33.89999,33.89999,29.70001,29.39999-22.20001,22.20001L.00002,217.50005l-.00002-.00006ZM170.09999,244.49998c17.39999,0,31.5-13.79999,31.5-31.20001V83.99998c0-17.39999-14.10001-31.2-31.5-31.2s-30.89999,13.8-30.89999,31.2v129.29999c0,17.39999,13.79999,31.20001,30.89999,31.20001ZM154.49998,85.49998h31.5v126h-31.5v-126Z" /></svg>