<svg xmlns="http://www.w3.org/2000/svg" viewBox="0 0 642.46 577.39997"><path d="M70.07,107.38001H0V.91001h68.71v18.66H19.11v24.57h40v17.29H19.11v26.89h51l-.04,19.06ZM642.46,182v390.39001h-47.77002V212.49002l-81-36.86-81,36.86v109.19998c23.66-5,39.58002-5.92001,78.26001-5.92001,0,152-93.73001,261.62997-238.41998,261.62997-140.60001,0-238-106.47-238-261.63,65.52,0,106.47,6.82999,156.07001,40.5,9.10001-50.04999,32.75999-90.54999,81.89999-142,45,47.32001,71.42999,85.54001,81.89999,142,9.66251-6.86349,19.85452-12.94925,30.48001-18.20001v-156.06995l128.81998-58.67999,128.76001,58.67999ZM247.06999,527.79999c-13.2-86.89999-79.17-151.47998-162.89-162.42999,11.34001,85.08002,77.34001,149.23999,162.89,162.42999ZM114.66,108.32001h-19.14V.00001l71,66.43V1.82001h19.11v108.29L114.63,44.59002l.03,63.73ZM226.59001,108.32001h-21.38L257.52.00001l52.34,108.32h-21.34l-9.10001-19.56h-43.73l-9.09999,19.56ZM272.59001,452.32001c9.41336-21.91772,22.49026-42.07248,38.66998-59.60001-1.82001-38.22-15.47-76-38.66998-105.56-23.20999,31.38998-36.86,66.88-38.67999,105.56,16.06064,17.60773,29.10587,37.74487,38.60999,59.60001h.07001ZM271.18,70.98001l-13.66-29.12-13.64,29.12h27.3ZM298.52,527.79999c87.82001-13.19,150.14999-77.79999,162.89001-162.42999-84.67001,10.95001-152.01001,78.71002-162.89001,162.42999ZM318.52,55.06c0-31.85,23.66-55.06,53.23999-55.06,16.38,0,31.39001,7.28,42.31,18.66l-12.76001,12.74c-9.54999-9.1-20-12.29-29.12-12.29-19.56,0-34.12,13.65-34.12,35.95,0,21.84,14.10001,35.94,33.66998,35.94,11.37,0,22.75-5,31.39001-11.83l10.92001,12.74c-11.37,10.92-26.84,18.2-42.76999,18.2-29.12,0-52.76001-23.2-52.76001-55.05Z" /></svg>