<svg xmlns="http://www.w3.org/2000/svg" viewBox="0 0 282.30005 295.49997"><path d="M0,199.80005v-122.70001h47.10001c-1.2-2.70001-1.8-5.10001-1.8-8.10001,0-10.2,3.90001-19.8,11.40001-27.3,1.20001-1.2,2.10001-2.7,2.10001-4.5s-.89999-3.60001-2.10001-4.8l-10.2-10.2L68.70001.00003l10.5,10.2c7.20001,7.2,11.10001,17.10001,11.10001,27s-3.60001,19.5-11.10001,27.3c-1.79999,1.2-2.10001,3-2.10001,4.5s.29999,3.29999,2.10001,4.79999l3,3.29999h48c-1.20001-2.70001-1.79999-5.39999-1.79999-8.10001,0-10.2,3.60001-19.8,11.10001-27.3,1.20001-1.2,2.10001-2.7,2.10001-4.5s-.89999-3.60001-2.10001-4.8l-9.89999-10.2L151.80005,0l10.20001,10.2c7.5,7.5,11.39999,17.10001,11.39999,27s-3.89999,19.5-11.39999,27.3c-1.5,1.2-2.10001,3-2.10001,4.5s.60001,3.29999,2.10001,4.79999l3.29999,3.29999h54c34.79999,0,63,27.89999,63,63s-28.79999,63-63,63h-4.79999l-1.20001,9.29999c-4.5,36.89999-22.20001,63.60001-56.70001,83.10001H58.20004C19.50005,273.89996.00005,239.09998.00005,199.79996l-.00005.00009ZM66.60001,263.70004h81.29999c21.60001-13.20001,34.79999-37.79999,34.79999-63.89999v-90.89999H31.79999v90.89999c0,26.10001,13.2,50.10001,34.79999,63.89999h.00003ZM219.30002,171.60004c17.10001,0,31.5-14.39999,31.5-31.5s-14.39999-31.20001-31.5-31.20001h-4.79999v62.70001h4.79999Z" /></svg>