<svg xmlns="http://www.w3.org/2000/svg" viewBox="0 0 336.93923 292.8"><path d="M96,268.50002H0V88.2h89.39999V0h54.89999c26.10001,0,47.70001,21.60001,47.70001,48v35.40001h96.60001c31.79999,0,54.60001,30.29999,46.80002,60.60001l-29.10001,112.5c-5.70001,21.60001-24.60001,36.29999-47.10001,36.29999h-121.5c-18,0-33.60001-9.60001-41.70001-24.29999ZM89.39999,236.40001v-116.10001h-57.3v116.10001h57.3ZM137.69998,260.7h121.5c7.5,0,14.10001-5.39999,15.89999-12.29999l29.10001-112.5c2.70001-10.5-5.10001-20.39999-15.60001-20.39999h-129V48.00002c0-8.7-6.89999-15.60001-15.29999-15.60001h-22.79999v213.30002c.60001,8.10001,7.79999,15,16.20001,15l-.00003-.00003Z" /></svg>