<svg xmlns="http://www.w3.org/2000/svg" viewBox="0 0 340.80002 299.10002"><path d="M20.7,291.3l33-123.60001C21.29999,154.8,0,122.09999,0,86.7,0,39.3,39.60001,0,87.60001,0c33.89999,0,64.79999,20.10001,78.29999,49.5h143.70001c.60001-3.3.89999-6,.89999-9h30.30002c0,55.8-46.79999,105.59999-126.60001,141.3-20.10001,9-40.5,20.70001-54,30.89999h96c-6-4.79999-12.89999-9.29999-20.39999-13.5l15.29999-26.39999c27.89999,16.20001,49.5,34.20001,65.10001,54.89999,17.10001,22.5,24.60001,45,24.60001,67.5h-30.29999c0-2.39999-.29999-5.10001-.60001-7.5H106.5c-.60001,2.39999-.60001,5.10001-.60001,7.5h-30.60001c0-55.5,47.10001-105.60001,126.60001-141.29999,15.89999-7.20001,47.39999-24.29999,52.5-30h-86.70001c-.29999,1.5-.60001,2.39999-.89999,3.29999l12.60001,7.5-16.20001,25.79999-16.20001-9.60001c-11.70001,11.39999-27,19.20001-43.5,22.20001-5.10001.89999-14.39999,1.5-20.10001,1.20001l-33,124.80002-29.7-7.79999.00003-.00003ZM87.29999,146.99998c11.10001,0,20.70001-3,28.79999-7.79999-36.29999-29.39999-55.5-63.29999-55.5-98.7h30.60001c0,8.7,1.79999,18,6.29999,28.49998h46.5c-7.79999-24.60001-30.89999-41.39999-56.39999-41.39999-33.60001,0-60,27.89999-60,59.39999s26.7,60,59.70001,60ZM299.10001,257.09999c-1.79999-3.89999-4.20001-7.79999-7.20001-11.39999-.89999-.89999-1.5-1.5-2.10001-2.39999H126.29999c-3.60001,4.5-6.60001,9-9,13.79999h181.80002ZM138.29999,118.2c3.89999-6,6.29999-12,7.20001-18.60001h-27c5.39999,6.29999,12,12.29999,19.79999,18.60001ZM288.89999,93.59999c3.89999-4.5,6.89999-9.29999,9.60001-13.79999h-124.20001c.60001,4.5.60001,9.29999,0,13.79999h114.60001Z" /></svg>