<svg xmlns="http://www.w3.org/2000/svg" viewBox="0 0 388.50003 376.79999"><path d="M69.3,376.79999L0,309.59998v-91.20001c0-18.29999,11.10001-34.5,26.10001-41.10001,2.39999-.89999,4.8-1.79999,7.5-2.39999v-39.89996c0-25.5,20.39999-45.89999,45.89999-45.89999,11.10001,0,19.8,2.7,27.29999,8.39999,3.89999-8.7,22.20001-16.8,34.79999-16.8s23.70001,3.89999,32.10001,12c8.39999-8.10001,18.89999-12,32.39999-12,15.29999,0,30,8.10001,38.10001,21.3,7.5-4.8,15-6.60001,23.70001-6.60001,25.20001,0,45.89999,20.7,45.89999,45.89999v78.29999c0,9.60001-2.70001,18.60001-8.10001,26.10001l-.29999,62.39999-63.60001,68.70001H69.3ZM81.90001,345.29999h146.10002l45.89999-49.5.29999-31.79999c-6.29999.89999-12.60001.89999-18.29999,0-6.29999-.89999-12.60001-3.60001-18.89999-9.60001-8.70001,8.39999-19.5,12.60001-33,12.60001-12,0-23.39999-4.79999-31.5-13.20001-8.39999,8.39999-19.5,13.20001-31.5,13.20001H57.60004v-31.79999h83.39999c7.5,0,13.79999-6.60001,13.79999-14.10001,0-11.10001-6.29999-16.79999-13.79999-16.79999H45.30003c-7.5,0-13.8,6.29999-13.8,14.10001v78l50.39999,48.89999-.00002-.00003ZM95.40001,173.09998v-39.3c0-7.8-6.60001-12.89999-15.89999-12.89999-7.8,0-14.10001,6.3-14.10001,14.10001v38.09999h30ZM141,173.09998c6,0,11.70001,1.5,16.79999,4.20001v-51c0-7.8-6-14.10001-16.20001-14.10001-7.79999,0-14.39999,6.60001-14.39999,14.39999v46.5h13.80002ZM204,235.19998c10.5,0,16.20001-6,16.20001-13.20001v-95.39999c0-7.8-6.60001-14.39999-14.10001-14.39999-10.79999,0-16.5,6.89999-16.5,14.39999v94.5c0,8.10001,6.60001,14.10001,14.39999,14.10001ZM266.10001,233.69998c10.79999,0,16.20001-6.60001,16.20001-14.10001v-78.3c0-7.5-6.60001-14.10001-14.39999-14.10001-9.89999,0-15.29999,6-15.89999,13.2v80.39999c.60001,7.20001,6.89999,12.89999,14.10001,12.89999l-.00003.00003ZM351.30002,0c20.70001,0,37.20001,16.8,37.20001,37.5,0,18.60001-13.5,33.89999-31.20001,36.89999v12.3h12.59998v12.3h-12.59998v12.60001h-12.29999v-12.60001h-12.60001v-12.3h12.60001v-12.60001c-17.70001-3-31.20001-18-31.20001-36.59999,0-20.7,16.79999-37.5,37.5-37.5ZM351.30002,62.39999c13.79999,0,24.90002-11.10001,24.90002-24.89999s-11.09998-25.2-24.89999-25.2-24.89999,11.39999-24.89999,25.2,11.10001,24.89999,24.89999,24.89999h-.00003Z" /></svg>