<svg xmlns="http://www.w3.org/2000/svg" viewBox="0 0 555.59999 292.80002"><path d="M132.3,239.70001l39.3-39.29999c-3.3-3.60001-5.39999-7.20001-7.5-11.70001-11.39999,12.29999-27.89999,19.5-45,19.5-36.3,0-64.2-29.70001-64.2-64.20001,0-29.70001,21-55.5,48.3-62.10001V31.5H0V0h237.89998v31.5h-103.19998v50.39999c11.39999,2.39999,21.89999,8.70001,29.39999,17.39999,15.89999-27.89999,45-45.3,77.39999-45.3h72.60001c32.10001,0,61.20001,17.40001,77.39999,45.3,7.5-8.70001,18-15,29.39999-17.39999V31.5h-103.19998V0h237.89999v31.5h-103.20001v50.39999c27.59998,6.89999,48.29999,33,48.29999,62.10001,0,35.10001-28.79999,64.20001-64.20001,64.20001-17.39999,0-33.60001-7.20001-45-19.5-2.10001,4.20001-5.10001,9-7.79999,11.70001l39.29999,39.29999v53.10001h-31.5v-39.89999l-31.5-31.79999c-15,8.39999-28.20001,12.89999-45.89999,12.89999h-72.60001c-16.5,0-31.5-4.5-46.20001-12.89999l-31.49994,31.79996v39.89999h-31.5v-53.10001.00003ZM119.10001,176.70001c18,0,32.40001-14.70001,32.40001-32.70001s-14.39999-32.70001-32.39999-32.70001-32.7,14.70001-32.7,32.70001,14.7,32.70001,32.7,32.70001h-.00002ZM241.50002,202.5h72.60001c32.10001,0,58.20001-26.39999,58.20001-58.5s-26.39999-58.5-58.20001-58.5h-72.60001c-32.10001,0-58.5,26.10001-58.5,58.5s26.39999,58.5,58.5,58.5ZM223.8,128.10001h108v31.5h-108v-31.5ZM436.50002,176.70001c18,0,32.70001-14.70001,32.70001-32.70001s-14.70001-32.70001-32.70001-32.70001-32.70001,14.70001-32.70001,32.70001,14.70001,32.70001,32.70001,32.70001Z" /></svg>