<svg xmlns="http://www.w3.org/2000/svg" viewBox="0 0 338.69998 292.79999"><path d="M120,261.29999h33.60001l.29999-34.79999H0V0h338.69998v226.5h-153.89999l.29999,34.79999h33.29999v31.5h-98.39999v-31.5h.00003ZM102.60001,195.59998l48.60001-49.20001-27.89999-28.20001-14.39999,14.39999c-3.89999,3.89999-11.39999,4.20001-15.60001,0l-19.2-19.20001c-4.2-4.20001-4.2-11.39999,0-15.60001l14.7-14.39999-9.29999-9.29999,18-17.7,9,9.00002,15-15c4.20001-4.2,11.39999-4.5,15.89999,0l18.89999,18.89999c4.5,4.5,4.5,11.39999,0,15.89999l-15.29999,15,28.20001,28.20001,21.60001-21.89999-8.10001-32.10001,28.79999-28.8,24,3.60001-3.29999,25.2-11.70001-1.79999-9.89999,9.89999,4.5,16.79999,16.79999,4.20001,9.60001-9.60001-1.5-11.70001,25.20001-3.60001,3.29999,24.29999-28.79999,28.5-30.60001-7.5-22.20001,22.5,48.89999,49.20001h72V30.89999H30.90002v164.69998h71.69998ZM199.80002,195.59998l-30.60001-30.89999-30.60001,30.89999h61.20001Z" /></svg>