<svg xmlns="http://www.w3.org/2000/svg" viewBox="0 0 405.26273 299.40624"><path d="M78.89999.00627C97.79999.00627,116.39999,9.00627,137.10001,27.00627c18.29999-13.2,43.20001-21,66.30002-21s46.5,7.5,64.5,19.5C285.60004,10.20626,306.00003-.29374,326.10004.00627c25.79999.60001,44.70001,13.2,78.90002,47.09999-28.20001,28.5-48.60001,45.60001-77.70001,45.60001-3.89999,0-8.39999-.60001-10.79999-2.10001,3.60001,8.39999,5.10001,18,5.10001,26.70001,21.29999-9.89999,48.60001-5.10001,65.99997,12.29999,23.70001,23.70001,23.40002,62.70001,0,85.79999l-84,84-62.10001-61.5c-12,4.20001-24.89999,6-38.10001,6-66.60001,0-119.10001-54.29999-119.10001-118.79999,0-11.70001,2.10001-23.39999,5.7-34.20001-2.10001,1.20001-9.60001,1.79999-11.10001,1.79999-26.10001,0-45-12.89999-78.90001-47.10001C29.10001,16.80622,48.60001.00622,78.89999.00622v.00005ZM79.5,61.20626c12,.3,21-4.8,32.39999-14.10001-12.3-10.2-23.39999-15-33.60001-15.3-11.39999-.3-22.5,5.7-32.10001,13.8,14.39999,12.3,24,15.3,33.3,15.60001h.00002ZM133.20001,175.80627c5.10001,6.60001,9,10.5,17.10001,17.39999-3-3.89999-4.5-8.70001-4.5-13.20001,0-31.79999,25.79999-57.60001,57.60001-57.60001,7.20001,0,14.39999,1.79999,19.79999,4.5,11.10001-9.60001,24.60001-15,39-15,9.89999,0,18.60001,2.39999,27.60001,7.5-.60001-6.29999-1.79999-12.89999-3.89999-18.89999-10.20001-36.60001-43.5-62.7-82.5-62.7-47.70001,0-87.29999,39.00002-87.29999,87.3,0,20.10001,6.29999,36.60001,17.10001,50.70001h-.00003ZM152.10001,88.50628c0-9.89999,8.10001-18,18-18s18.29999,8.10001,18.29999,18-8.10001,18.29999-18.29999,18.29999-18-8.10001-18-18.29999ZM203.39999,212.10629c4.20001,0,7.79999-.89999,11.10001-2.70001-2.39999-3.29999-3.89999-6-6.89999-11.39999-5.70001-10.79999-7.20001-24.60001-3.29999-36,.89999-4.20001,2.10001-8.10001,4.20001-11.70001-3.29999-1.5-8.39999-2.10001-12-1.5-14.10001,2.70001-25.20001,15.60001-25.20001,31.20001,0,17.70001,14.39999,32.10001,32.10001,32.10001h-.00003ZM235.79999,70.20626c9.89999,0,18,8.10001,18,18s-8.10001,18.29999-18,18.29999-18.29999-8.10001-18.29999-18.29999,8.10001-18,18.29999-18ZM303.59998,255.00628l61.5-61.79999c11.70001-11.39999,11.70001-29.70001,0-41.10001-11.39999-11.39999-29.39999-11.10001-41.10001,0l-20.39999,20.70001-20.70001-20.70001c-11.10001-11.10001-29.70001-11.39999-41.10001,0-11.34946,11.2782-11.40723,29.62152-.12903,40.97098.04288.04315.08588.08615.12903.12903l61.79999,61.79999h.00003ZM326.69998,61.20628c11.10001,0,22.20001-5.39999,32.10001-14.10001-12.29999-10.2-23.39999-15-33.29999-15.3-11.70001-.3-22.5,5.7-32.39999,13.8,12,10.2,23.10001,15.60001,33.60001,15.60001h-.00003Z" /></svg>