<svg xmlns="http://www.w3.org/2000/svg" viewBox="0 0 389.59506 298.52273"><path d="M.79146,238.19998c6.60001-14.70001,18.3-26.39999,27-46.79999,8.10001-18.89999,11.10001-106.5,66.90001-144l100.20001,42.89999,99.89999-42.89999c56.10001,37.5,58.79999,125.10001,66.89999,144,8.09998,18.89999,21.59998,34.79999,27,46.79999,1.79999,3.89999.59998,6.29999-.90002,8.70001-6,9-30,19.79999-57.29999,31.5-21.89999,9.29999-46.5,20.70001-60.29999,20.10001-4.5,0-7.79999-1.79999-9-5.39999-6.29999-14.10001-8.39999-34.5-15.60001-51.89999-4.79999-11.70001-36.89999-47.10001-50.70001-88.19998-13.79999,41.10001-45.29999,75.29999-51,88.20001-7.5,17.10001-9.60001,38.70001-15.29999,51.89999-1.79999,3.60001-4.79999,5.39999-9.29999,5.39999-12.60001.29999-32.10001-8.10001-60-20.10001-29.10001-12.60001-53.39999-22.79999-58.5-33-.89999-2.10001-1.2-4.5,0-7.20001l-.00002-.00003ZM104.89145,261.59998c2.39999-9.89999,4.79999-21,9.89999-33,2.10001-4.79999,6.89999-12.29999,15.89999-25.20001,10.79999-15.29999,24.89999-35.39999,32.70001-55.5-15.29999,4.79999-25.5,6.29999-42.89999,7.79999-18,1.5-35.7,1.79999-52.5.89999-1.5,6.29999-3.89999,18.89999-5.7,27.60001-2.10001,9-3.3,15-5.39999,19.5-5.39999,12.29999-10.5,19.5-17.10001,30,4.2,4.79999,61.2,29.10001,65.09999,27.89999v.00003ZM170.29144,117.89999c.60001-.89999,1.20001-2.39999,1.5-3.29999l-71.39999-30.60001c-12.60001,13.5-20.10001,31.20001-25.8,48,26.10001.60001,79.8-1.79999,95.7-14.10001ZM167.29144,0c9.89999,13.2,14.10001,21.60001,17.10001,33.89999l-30.29999,7.5c-2.10001-8.10001-4.20001-12-11.70001-22.2L167.29144,0ZM222.79144,61.5l-31.5-1.8c1.5-26.10001,6.29999-39.3,18.89999-59.7l26.70001,16.8c-10.20001,16.2-13.20001,24.3-14.10001,44.7ZM258.79144,203.39999c7.5,10.5,12.89999,18,15.89999,25.20001,5.10001,12,7.5,23.70001,10.20001,33,4.79999.89999,60.29999-22.79999,64.80002-27.89999-5.10001-8.70001-11.70001-18.29999-16.79999-30-2.70001-6.29999-3.89999-12.89999-6.29999-23.39999-2.39999-11.10001-5.70001-27.60001-8.10001-36.89999-.60001,0-30.60001,0-49.79999-1.79999-6.60001-.60001-41.39999-5.39999-47.70001-9.29999,6,24.29999,22.79999,50.10001,37.79999,71.10001l-.00003-.00006ZM235.69144,109.79999c18.60001,6.60001,53.39999,7.79999,74.39999,8.10001-4.79999-11.39999-13.5-27-21-33.89999l-56.39999,24.29999c.89999.29999,2.10001.89999,3,1.5Z" /></svg>