<svg xmlns="http://www.w3.org/2000/svg" viewBox="0 0 394.50002 299.40004"><path d="M61.2,222.90001C29.7,217.50002,0,197.7,0,170.40001c0-29.10001,31.2-44.70001,67.2-53.10001,21-38.39999,61.5-63.89999,107.69998-63.89999s87,25.79999,108,63.89999c43.79999,9.89999,67.5,28.79999,67.5,53.10001,0,28.79999-34.79999,47.70001-61.20001,52.20001-18.60001,45.29999-62.39999,76.80002-114.29999,76.80002s-95.39999-31.5-113.7-76.5l.00002-.00003ZM53.39999,194.40001c-.89999-5.70001-1.5-11.70001-1.5-18,0-10.20001,1.5-20.10001,3.89999-29.70001-13.8,4.5-30.60001,12.89999-30.60001,23.70001,0,12,15.3,19.5,28.2,24h.00002ZM88.2,202.8c23.39999,3.89999,53.10001,6,86.69998,6s63.29999-2.10001,87.29999-6.29999c2.39999-8.39999,3.60001-17.10001,3.60001-26.10001,0-51-41.39999-90.89999-90.89999-90.89999s-90.60001,40.5-90.60001,90.89999c0,9,1.2,17.70001,3.89999,26.39999h.00003ZM174.89998,267.3c28.5,0,56.70001-14.39999,72.29999-37.20001-21,2.70001-45.29999,3.89999-72.29999,3.89999s-51-1.20001-72-3.89999c15.60001,22.5,43.79999,37.20001,72,37.20001ZM343.8,0c27.90002,0,50.70001,22.5,50.70001,50.7s-22.79999,50.39999-50.70001,50.39999-50.39999-22.5-50.39999-50.39999S315.90001,0,343.8,0ZM297.90001,176.39998c0,6-.29999,12-1.20001,17.70001,17.70001-6.60001,28.5-14.39999,28.5-23.70001s-12.29999-17.39999-30.60001-23.70001c2.39999,9.60001,3.29999,19.5,3.29999,29.70001h.00003ZM343.8,75.59999c14.09998,0,25.5-11.39999,25.5-24.89999s-11.40002-25.5-25.5-25.5-24.89999,11.39999-24.89999,25.5,11.39999,24.89999,24.89999,24.89999Z" /></svg>