<svg xmlns="http://www.w3.org/2000/svg" viewBox="0 0 400.8 296.09998"><path d="M200.69997,0l200.10004,71.10001-10.5,29.39999L200.7,33.3,10.5,100.5,0,71.10001,200.7,0h-.00003ZM24.89996,130.79999h31.50002v102h289.20001v-27.89999c0-16.20001-13.20001-29.39999-29.39999-29.39999h-99.89999v-31.5h99.89999c33.60001,0,60.89999,27.29999,60.89999,60.89999v91.19998h-31.5v-31.79999H56.39998v31.79999h-31.5v-165.29999h-.00002ZM136.49995,212.69998c-32.7,0-60-26.70001-60-60s27.3-59.70001,60-59.70001,60,26.70001,60,59.70001-27,60-60,60ZM136.49995,181.19998c15.89999,0,28.5-12.60001,28.5-28.5s-12.60001-28.20001-28.5-28.20001-28.5,12.60001-28.5,28.20001,12.89999,28.5,28.5,28.5Z" /></svg>