<svg xmlns="http://www.w3.org/2000/svg" viewBox="0 0 452.09993 299.91824"><path d="M0,83.94274c0-12,3.3-24,9.89999-34.2l16.2-24.89999V3.24275h31.5v31.2l-21.60001,32.7c-3.3,5.40001-4.8,11.40001-4.8,16.8v85.5c0,5.10001,1.5,11.10001,4.2,15.89999l42.60001,79.5c3.60001,6.89999,15.3,2.39999,14.10001-3.89999l-19.8-75.60001c-15-5.10001-26.39999-18.89999-26.39999-35.39999v-57.29999h31.8v57.29999c0,7.79999,15,7.79999,15,0v-49.79999c0-4.20001.89999-9,2.39999-13.20001l8.10001-23.39999V3.24275h31.5v60.59999c0,4.79999-1.20001,8.70001-2.7,12.89999-3.60001,9.60001-5.39999,16.79999-7.8,23.39999v49.79999c0,14.10001-8.10001,26.10001-20.10001,32.70001l18.3,70.20001c5.7,21-7.8,40.20001-26.7,45.60001-16.2,4.79999-35.7-2.39999-44.7-17.39999L8.40001,201.54275C2.70001,191.34274,0,180.54275,0,169.44274,0,169.44274,0,83.94274,0,83.94274ZM162.59999,138.24273c-3-5.10001-6.89999-12-9.60001-19.5-9.89999-26.70001-4.5-42.29999,4.5-51,7.5-7.2,22.5-15.60001,51.29999-4.5,6.29999,2.39999,13.5,6,19.20001,9.29999,6.60001-3.60001,13.5-6.60001,19.20001-9.3,29.10001-11.10001,44.10001-2.7,51.29999,4.49998,7.5,7.20001,14.70001,23.39999,4.20001,51-2.39999,6.29999-5.39999,12.60001-9.60001,19.5,4.20001,6,7.20001,12.89999,9.60001,19.20001,9,24.60001,5.39999,40.79999-4.5,51-12,12.29999-32.70001,11.39999-51,4.20001-1.5-.60001-12.60001-5.10001-19.5-9-6.89999,4.20001-12.89999,6.60001-21,9.29999-19.79999,6.60001-37.79999,6.89999-49.20001-4.5-8.10001-8.10001-15-23.39999-4.5-51.29999,2.70001-7.20001,6.29999-13.5,9.60001-18.89999ZM179.09999,114.84274c6.89999-8.10001,19.20001-20.39999,26.10001-25.79999-9.89999-5.39999-24.60001-8.10001-30-3.89999-5.39999,6.29999.29999,20.70001,3.89999,29.70001v-.00003ZM204.89998,186.84274c-9-7.20001-17.39999-16.20001-25.79999-25.79999-3.89999,8.39999-9,24-3.89999,29.39999,4.79999,5.10001,20.70001,0,29.70001-3.60001h-.00003ZM227.69997,172.74273c12.60001-9.60001,25.79999-22.20001,34.79999-34.5-9.89999-13.79999-22.20001-25.79999-34.5-35.39999-12.89999,10.20001-26.70001,24.29999-34.5,35.39999,8.39999,12.29999,21.60001,24.89999,34.20001,34.5ZM280.19997,190.44274c5.39999-5.10001,0-23.39999-3.60001-29.70001-5.10001,7.20001-17.10001,18.89999-25.79999,26.10001,9,3.60001,23.70001,9,29.39999,3.60001ZM276.89998,114.54275c3.89999-9,8.10001-24.29999,3.29999-29.10001-3.60001-4.79999-21.89999-.29999-29.10001,3.60001,12,10.20001,15.29999,13.79999,25.79999,25.5h.00003ZM394.49995,296.64276v-30.89999l21.59998-32.70001c3-5.39999,4.79999-11.39999,4.79999-16.79999v-85.20001c0-5.70001-1.5-11.10001-4.20001-16.20001l-42.60001-79.5c-3.60001-6.89999-16.20001-2.7-14.10001,3.89999l19.79999,75.30002c15,5.39999,26.40002,19.5,26.40002,36v57.29999h-31.79999v-57.29999c0-7.79999-15-8.10001-15,0v49.5c0,4.79999-.89999,8.70001-2.70001,12.89999l-7.79999,24v59.70001h-31.5v-60c0-3.89999.89999-8.70001,2.39999-12.89999l8.10001-24v-49.20001c0-13.79999,7.79999-26.10001,19.79999-32.70001l-18-70.5c-5.39999-20.39999,6.60001-39.89999,27-45.89999,16.79999-4.8,35.40002,2.7,44.40002,17.7l42.59998,79.8c5.70001,9.29999,8.40002,20.70001,8.40002,32.10001v85.20001c0,12.60001-3.90002,24.60001-10.20001,33.89999l-16.20001,24.89999v21.60001h-31.20001.00006Z" /></svg>