<svg xmlns="http://www.w3.org/2000/svg" viewBox="0 0 298.80002 299.39998"><path d="M0,149.7C0,66.89999,66.89999,0,149.10001,0s149.70001,66.90001,149.70001,149.7-67.20001,149.69998-149.70001,149.69998S0,232.49998,0,149.69997v.00003ZM149.39999,267.3c64.79999,0,117.29999-52.5,117.29999-117s-52.5-117.3-117.29999-117.3-116.7,52.2-116.7,117.3,51.90001,117,116.7,117ZM97.5,167.7c14.10001,15.89999,34.79999,26.39999,52.20001,26.39999s37.79999-10.5,51.29999-26.10001l19.20001,16.5c-18.60001,21.29999-45.60001,34.79999-70.5,34.79999s-52.20001-13.20001-71.10001-34.79999l18.89999-16.79999ZM99.89999,103.2c9.89999,0,18,7.79999,18,17.70001s-8.10001,18-18,18-17.70001-8.10001-17.70001-18,7.79999-17.70001,17.70001-17.70001ZM199.5,103.2c9.89999,0,18,7.79999,18,17.70001s-8.10001,18-18,18-17.70001-8.10001-17.70001-18,7.79999-17.70001,17.70001-17.70001Z" /></svg>