<svg xmlns="http://www.w3.org/2000/svg" viewBox="0 0 292.80002 296.09999"><path d="M292.79999,169.8v126.29999H0V3.3h126.30002v31.5H31.50002v229.79999h229.8v-94.79999h31.5-.00003ZM203.69998,0c32.39999,0,58.5,26.10001,58.5,58.5,0,17.40001-7.5,33.59999-21,44.7v23.70001h-74.70001v-23.70001c-13.5-11.10001-21.29999-27.29999-21.29999-44.7,0-32.40001,26.39999-58.5,58.5-58.5ZM166.49997,144.00002h74.70001v25.20001h-74.70001v-25.20001ZM191.69998,90.00002v11.70001h24.29999v-11.70001c15-9.60001,21-17.70001,21-31.5,0-18.3-14.70001-33.3-33.29999-33.3s-33.29999,15-33.29999,33.3c0,14.39999,6.89999,22.20001,21.29999,31.5Z" /></svg>