<svg xmlns="http://www.w3.org/2000/svg" viewBox="0 0 700 600"><path d="M29.91 250.1c34.58-61.42 91.46-102.83 160.16-115.1l9.1 46.41c-54.6 10.46-99.64 42.77-126.94 91.91Zm91.91 182.46C220.1 322 282.44 276.49 353 276.49c75.08 0 142.42 57.79 207 129.22 20.93-5.46 40.49-13.19 60.51-22.75l20.93 42.77a424.47 424.47 0 0 1-76 28.21C499 528.11 428.49 589.08 353 589.08c-81 0-152.46-67.34-231.18-156.52Zm32.76-155.16c45-56.42 111-88.27 182.91-88.27l1.37 47.78c-58.7.45-110.57 24.57-146.51 70.07ZM488.1 464.86c-64.16 2.28-120.58-8.19-175.63-31.85L332 389.33c55.51 24.57 111 32.31 172.45 26.85-59.61-61-106.93-91.91-151.52-91.91-47.77 0-99.64 35.94-167 108.29 67.34 73.25 119.21 109.2 167 109.2 40.98 0 83.75-26.85 135.17-76.9Zm-79.63-277.09 15-45.05c27.3 9.1 58.24 13.2 90.54 12.29 34.13-.91 69.16-7.74 104.2-20l15.92 44.59c-40 14.1-80.53 21.84-120.12 23.2-42.75-.02-74.6-4.57-105.54-15.03Z"/></svg>