<svg xmlns="http://www.w3.org/2000/svg" viewBox="0 0 456.17362 292.79999"><path d="M99.17359,273C33.17359,270-2.82641,212.70001.17359,146.70001l.6-9.89999,9.00001-3.60001c22.5-9,43.8-13.5,63.89999-12.60001,26.39999,1.20001,50.10001,12,66.89999,31.5v-35.10001c-30-6.89999-51.60001-34.20001-51.60001-65.39999V0h31.5v51.60001c0,19.79999,15.89999,36,36,36s35.70001-16.20001,35.70001-36V0h31.5v51.60001c0,31.79999-22.5,58.79999-51.60001,65.39999v175.79999h-31.5v-25.20001c-13.8,3.89999-26.10001,5.39999-41.39999,5.39999v.00003ZM100.07359,241.5c7.8.29999,15.89999-.60001,24.3-2.39999l-47.09999-33,14.7-20.70001,47.09999,33c-10.5-58.79999-52.2-78-107.39999-60,.3,46.20001,24,81.30002,68.39999,83.10001ZM143.57359,0h25.20001v56.10001h-25.20001V0ZM272.87357,96.60001c2.10001,0,3.89999.29999,5.70001.60001,5.70001-10.20001,4.5-16.5,4.5-65.7h-22.5V0h179.70001v31.5h-18.90002v49.20001c0,11.39999,6.29999,19.20001,12.90002,27.89999,13.79999,13.79999,21.90002,34.20001,21.90002,54.29999v129.89999h-183.29999c-50.70001,0-78.29999-43.5-78.29999-97.79999,0-49.5,34.20001-98.39999,78.29999-98.39999h-.00006ZM272.87357,261.29999c33.89999,0,47.39999-31.79999,47.39999-66.29999,0-31.20001-21.60001-66.89999-47.39999-66.89999s-46.79999,36.29999-46.79999,66.89999c0,36,13.79999,66.29999,46.79999,66.29999ZM329.27357,127.5c4.79999,3,13.79999,6.89999,21.89999,9.60001,18.89999,8.39999,38.39999,16.20001,72.59998,18-1.79999-10.79999-6.29999-19.79999-13.79999-27.60001-12.29999-11.10001-19.79999-29.70001-19.79999-46.79999V31.50002h-75.89999v49.2c0,9.60001-2.10001,18.89999-6.29999,27.29999,7.79999,4.79999,15.29999,11.70001,21.29999,19.5ZM424.67356,261.29999v-74.70001c-27.59998-.89999-48.89999-5.70001-76.20001-15.89999,3.29999,13.20001,3.89999,27.60001,2.10001,42.60001-2.10001,18.29999-8.10001,36-18.60001,48h92.70001Z" /></svg>