<svg xmlns="http://www.w3.org/2000/svg" viewBox="0 0 700 600"><path d="M326.12 482.21c-107.38-10.46-190.65-103.28-190.65-212.94v-23.66h24.11c32.77 0 68.71 8.65 97.38 23.66 17.74-45.95 41-85.08 76.44-119.21l16.83-16.83 16.84 16.83c35 34.13 58.69 73.26 76.44 119.21 28.66-15 64.15-23.66 96.91-23.66h24.12v23.66c0 109.2-82.81 202.48-190.65 212.94v41.86h-47.77ZM170.5 171l-8.19-76.44 31.86-3.18 3.64 35.49a249.22 249.22 0 0 1 304.39 0l3.64-35.49 31.85 3.18L530 171l-73.3 24.11-10-30.49 36.4-11.83c-36.85-30-87.36-45.95-132.86-45.95-46.86 0-97.37 16.83-133.31 45.95l36.4 11.83-10 30.49Zm106.93 171.07a166.41 166.41 0 0 0-91.91-46.41c5 34.58 21.84 66.89 46.41 91.91 25 25.48 57.79 40.95 91.91 46.41-5-34.58-21.38-66.43-46.41-91.91Zm125.13-45.95c-13.2-37.31-30.94-69.16-52.33-94.19-24.11 27.76-40.49 61-52.78 94.19C325.21 321.6 338 338 350.23 364.37c12.29-26.85 25.03-43.23 52.33-68.25Zm65.06 91.45a161.37 161.37 0 0 0 46.87-91.91 166.41 166.41 0 0 0-91.91 46.41c-25 25.48-41.41 57.33-46 91.91 34.17-5.46 66.47-21.38 91.04-46.41Z"/></svg>