<svg xmlns="http://www.w3.org/2000/svg" viewBox="0 0 700 600"><path d="M92.47 397.8c0-56.87 29.58-107.83 73.71-137.86a115.77 115.77 0 0 1-25-71.89c0-65.07 52.32-116.94 117.39-116.94a116.61 116.61 0 0 1 116.91 116.94c0 27.3-9.1 52.32-25 71.89 20.47 14.1 39.13 32.76 52.32 54.14v-63.24h121.47v87.81l83.27 181.1-515.07.45Zm249.34 73.26L374.12 401v-14.12c-2.73-39.58-29.12-77.35-65.07-94.18-15 8.19-32.3 12.28-50.5 12.28s-36-4.09-51-12.28c-40.5 20-66 60.51-66 105.1v73.26Zm-15-283c0-39.13-31.85-68.25-68.25-68.25a67.87 67.87 0 0 0-68.25 68.25c0 39.13 32.3 68.25 68.25 68.25a68.16 68.16 0 0 0 68.24-68.26Zm221.12 293.47-61.88-134.69v-57.78h-44.59v57.78l-62.34 134.69Zm-73.71-308.95c0-15.93-47.78-10.92-47.78-47.78 0-16.8 9.56-28.21 22.76-32.8V75.21h28.21v15.47a51.57 51.57 0 0 1 23.66 11.37L487 122.53c-5.46-4.55-12.28-8.19-20-8.19-6.83 0-11.38 3.18-11.38 7.73 0 15.93 46.87 10.47 46.87 48.23 0 19.11-11.37 30.94-26.84 35.49v15.93h-27.82v-15.93c-9.56-2.27-18.66-7.28-26.85-14.1l13.2-21.84c8.19 6.82 17.75 11.83 26.85 11.83 7.73 0 13.19-4.1 13.19-9.1Z"/></svg>