<svg xmlns="http://www.w3.org/2000/svg" viewBox="0 0 346.20001 299.39998"><path d="M43.20001,176.99998l71.39999,13.79999-.89999,29.10001-39-6.60001c12.89999,29.10001,35.39999,54.89999,62.39999,54.89999,8.70001,0,14.39999-2.10001,26.39999-7.20001,13.20001,5.39999,18.29999,7.20001,26.39999,7.20001,27.89999,0,50.10001-27.29999,63-54.89999l28.5,13.20001c-19.20001,41.70001-51.29999,72.89999-91.5,72.89999-8.70001,0-17.39999-1.5-26.39999-4.5-8.70001,2.70001-17.70001,4.5-26.39999,4.5-42,0-75.60001-35.39999-92.10001-75l-22.5,26.39999L0,230.69997l43.2-53.70001.00002.00003ZM217.20001,157.2l18-24.60001,33,21.60001c2.39999-46.5-17.70001-72-63.29999-72-12.29999,0-24.89999,2.10001-41.39999,6-17.39999-4.20001-30-6-41.39999-6-41.70001,0-64.2,21.89999-64.2,63.60001h-31.2c0-59.70001,37.2-95.10001,95.39999-95.10001,9.89999,0,20.39999,1.2,30.89999,3.3,6.89999-24.3,21.29999-41.7,43.20001-54l12.29999,21.60001c-15.29999,8.7-24.29999,20.39999-27.89999,31.2,8.10001-1.2,15.89999-2.10001,23.39999-2.10001,60.29999,0,96.30002,36.29999,95.69998,96.89999l30.60001-15.89999,15.89999,26.70001-66.29999,40.79999-62.70001-42Z" /></svg>