<svg xmlns="http://www.w3.org/2000/svg" viewBox="0 0 339.60001 296.09998"><path d="M.00002,215.39999C.00002,177.89999,19.50002,144.29999,48.60001,124.5c-10.2-12.89999-16.5-29.39999-16.5-47.39999C32.10001,34.20001,66.60001,0,109.5,0s77.10001,34.2,77.10001,77.10001c0,18-6,34.5-16.5,47.39999,13.5,9.29999,25.79999,21.60001,34.5,35.70001v-41.70001h80.10001v57.89999l54.89999,119.39999-339.60001.29999v-80.70001l.00002.00003ZM164.39999,263.69998l21.29999-46.20001v-9.29999c-1.79999-26.10001-19.20001-51-42.89999-62.10001-9.89999,5.39999-21.29999,8.10001-33.29999,8.10001s-23.70001-2.70001-33.60001-8.10001c-26.7,13.20001-43.5,39.89999-43.5,69.29999v48.29999h132v.00003ZM109.5,122.09998c24.29999,0,45-19.5,45-45s-21-45-45-45c-25.20001,0-45,20.10001-45,45s21.29999,45,45,45ZM300.30002,270.59998l-40.79999-88.79999v-38.10001h-29.39999v38.10001l-41.10001,88.79999h111.29999ZM251.70001,66.89998c0-10.5-31.5-7.2-31.5-31.5,0-11.10001,6.29999-18.60001,15-21.60001V2.69997h18.60001v10.2c5.10001.89999,10.5,3.3,15.60001,7.5l-9.29999,13.5c-3.60001-3-8.10001-5.39999-13.20001-5.39999-4.5,0-7.5,2.10001-7.5,5.10001,0,10.5,30.89999,6.89999,30.89999,31.8,0,12.59999-7.5,20.40001-17.70001,23.40001v10.5h-18.29999v-10.5c-6.29999-1.5-12.29999-4.79999-17.70001-9.29999l8.70001-14.39999c5.39999,4.5,11.70001,7.79999,17.70001,7.79999,5.10001,0,8.70001-2.70001,8.70001-6l-.00003-.00002Z" /></svg>