<svg xmlns="http://www.w3.org/2000/svg" viewBox="0 0 291.90999 292.79999"><path d="M291.90999,0v292.79999H0V0h291.90999ZM227.40999,261.29999h33V31.49998H31.50999v114.59999c70.5,13.5,144.29999,59.39999,195.89999,115.19998v.00003ZM182.70998,261.29999c-56.10001-51.29999-114.89999-75-151.2-82.80002v82.79999h151.2v.00003ZM175.50996,57.29999c29.70001,0,54,24.29999,54,54.29999s-24.29999,54.29999-54,54.29999-54.29999-24.29999-54.29999-54.29999,24.29999-54.3,54.29999-54.3v.00002ZM175.50996,134.39999c12.60001,0,22.5-10.20001,22.5-22.79999s-9.89999-22.79999-22.5-22.79999-22.79999,10.5-22.79999,22.79999,10.20001,22.79999,22.79999,22.79999Z" /></svg>