<svg xmlns="http://www.w3.org/2000/svg" viewBox="0 0 300.00003 299.99997"><path d="M.00003,232.5C.00003,207.89999,8.70003,179.10001,24.60004,150,8.70004,120.89999.00003,92.10001.00003,67.5.00003,25.8,25.50003,0,67.50003,0c24.60001,0,53.39999,8.7,82.5,24.89999C179.40002,8.7,208.20004.29999,232.50003.29999c42,0,67.5,25.2,67.5,67.5,0,24.29999-8.70001,53.10001-24.60001,82.5,15.89999,29.10001,24.60001,57.89999,24.60001,82.19998,0,42-25.79999,67.5-67.5,67.5-24.60001,0-53.39999-8.39999-82.80002-24.60001-29.10001,15.89999-57.89999,24.60001-82.20001,24.60001C24.60001,299.99997,0,273.59998,0,232.49997l.00003.00003ZM44.40002,119.10001c21-29.10001,47.10001-54.89999,74.70001-74.39999-16.5-7.5-35.39999-13.2-51.60001-13.2-20.7,0-33.60001,7.8-35.7,29.7-1.8,17.39999,4.2,39.29999,12.60001,57.89999h-.00002ZM67.50003,268.5c17.10001,0,34.5-5.39999,51.29999-12.89999-28.79999-20.70001-54.89999-47.10001-74.39999-74.70001-7.2,15.89999-12.89999,35.70001-12.89999,51.60001,0,24.60001,11.10001,36,36,36ZM150.00003,238.79999c34.79999-22.20001,66-54.60001,88.5-88.5-21.29999-33.29999-55.20001-67.19998-88.5-88.8-34.5,21.90001-66,53.40001-88.80002,88.49998,21.60001,33.29999,54.89999,67.20001,88.79999,88.79999l.00003.00003ZM150.00003,132.29999c9.89999,0,17.70001,8.10001,17.70001,17.70001s-7.79999,18-17.70001,18-18-8.10001-18-18,8.10001-17.70001,18-17.70001ZM232.50003,268.79999c25.5,0,35.70001-12.89999,35.70001-36,0-16.5-6-36.89999-12.89999-51.60001-20.10001,28.20001-47.70001,55.20001-74.70001,74.39999,16.5,7.79999,36,13.20001,51.89999,13.20001ZM255.30002,119.39999c7.79999-17.10001,13.20001-34.79999,13.20001-51.60001,0-24.60001-12-36.3-36-36.3-16.20001,0-34.79999,5.7-51.60001,13.2,27,19.2,55.79999,48,74.39999,74.70001Z" /></svg>