<svg xmlns="http://www.w3.org/2000/svg" viewBox="0 0 211.79999 295.20003"><path d="M105.89999.00002C164.39999.00002,211.79999,47.40001,211.79999,106.2c0,36.89999-19.5,69.60001-48.60001,88.5v40.5H48.89999v-40.5C19.79999,175.8,0,143.09999,0,106.2,0,47.39999,47.70001,0,105.89999,0v.00002ZM80.10001,177.60002v26.39999h51.89999v-26.39999c31.79999-20.70001,48.29999-38.10001,48.29999-71.39999,0-42.3-34.20001-74.7-74.39999-74.7S31.5,64.50003,31.5,106.20003c0,34.20001,17.70001,51.89999,48.60001,71.39999ZM48.89999,264.00002h114.60001v31.20001H48.89999v-31.20001ZM158.10001,97.50002h-24.89999c0-12-9.60001-21.89999-21.29999-21.89999v-24.89999c25.5,0,46.20001,21,46.20001,46.79999h-.00003Z" /></svg>