<svg xmlns="http://www.w3.org/2000/svg" viewBox="0 0 199.5 292.8"><path d="M67.5,18.59999v34.8c-21.60001,10.5-36,33.90001-36,59.40001,0,28.5,12,44.10001,42.89999,65.69998v23.39999h51v-23.39999c31.20001-22.20001,42.60001-37.5,42.60001-65.70001s-14.39999-47.39999-36.89999-60V18.29997c39.60001,12.89999,68.39999,50.39999,68.39999,94.5,0,33.89999-17.10001,63.89999-42.89999,81.89999v38.70001H42.89999v-38.70001C17.10001,176.69997,0,146.69997,0,112.79997,0,68.99998,28.20001,31.79997,67.5,18.59998v.00002ZM156.60001,292.8v-31.5H42.89999v31.5h113.70001ZM112.20001,81.3V0h-25.20001v81.3h25.20001Z" /></svg>