<svg xmlns="http://www.w3.org/2000/svg" viewBox="0 0 392.70001 295.20003"><path d="M.00003,39L196.50003,0l196.19998,39v255.59999h-31.5V62.7l-164.70001-31.2L31.5,62.7v231.89999H0V39h.00003ZM91.20003,175.8c-11.10001-23.10001-16.8-44.10001-14.10001-67.5,3.89999-33,29.40001-51.60001,61.2-51.60001,19.5,0,39.60001,6.60001,57,15,18.29999-8.7,37.20001-14.7,55.79999-14.7,34.79999,0,59.10001,19.2,62.70001,54.00002,2.10001,21.60001-4.5,44.70001-14.39999,65.10001,9,18.60001,15,39.60001,15,57,0,37.20001-24.89999,62.10001-62.39999,62.10001-19.5,0-39.29999-6.29999-57-15-18,9-38.39999,15-56.70001,15-37.5,0-62.39999-24.60001-62.39999-62.39999,0-18,7.2-41.39999,15.3-57v-.00003ZM138.30002,263.7c7.20001,0,15.60001-1.79999,23.70001-4.5-18-12.60001-37.5-32.10001-50.10001-50.10001-2.70001,8.39999-4.5,16.5-4.5,23.70001,0,20.70001,10.79999,30.89999,30.89999,30.89999ZM111.90002,142.50002c14.10001-19.20001,31.5-36,50.10001-49.79999-8.10001-2.70001-16.5-4.5-23.70001-4.5-19.5,0-30.29999,10.5-30.60001,30-.29999,7.5,1.20001,15.60001,4.20001,24.29999ZM195.30002,244.20003c25.5-15.60001,52.5-42.60001,67.80002-68.10001-16.79999-27.89999-41.39999-51.60001-67.79999-68.10001-27.29999,17.10001-51.60001,40.79999-68.39999,67.79999,16.79999,25.5,47.70001,55.79999,68.39999,68.39999l-.00003.00003ZM195.30002,158.40004c9.89999,0,17.70001,7.79999,17.70001,17.70001s-7.79999,18-17.70001,18-18-8.39999-18-18,8.10001-17.70001,18-17.70001ZM278.40002,142.80003c3.29999-8.70001,4.5-15.29999,4.5-23.70001,0-20.39999-11.10001-30.60001-30.89999-30.60001-7.20001,0-15.29999,1.79999-23.39999,4.20001,17.10001,12.29999,37.79999,33,49.79999,50.10001ZM252.00003,263.70003c21.29999,0,30.89999-11.70001,30.89999-30.60001,0-7.5-1.79999-15.60001-4.5-23.70001-14.39999,19.20001-31.20001,36.29999-49.79999,50.10001,8.10001,2.70001,16.20001,4.20001,23.39999,4.20001Z" /></svg>