<svg xmlns="http://www.w3.org/2000/svg" viewBox="0 0 329.09998 295.2"><path d="M316.80005,240.89998l-16.20001-9.29999c-7.5,8.39999-17.39999,14.10001-28.5,16.79999v18.60001l-25.20001.29999-.29999-18.89999c-11.10001-2.39999-21-8.10001-28.5-16.5l-16.20001,9.60001-12.60001-21.89999,15.89999-9.29999c-3.60001-12.60001-3.29999-21.89999,0-33l-14.39999-8.39999c-7.79999,10.20001-17.10001,18.89999-27.60001,25.79999v40.5H48.90001v-40.5C19.8,175.8,0,143.09999,0,106.2,0,47.39999,47.7,0,105.89999,0s105.89999,47.40001,105.89999,106.2c0,14.39999-3,28.20001-8.39999,40.79999l14.39999,8.39999c7.20001-8.39999,17.10001-14.39999,28.20001-16.79999v-18.60001h25.5v18.60001c11.39999,2.10001,21,8.10001,28.5,16.20001l16.5-9.60001,12.59998,21.89999-16.20001,9.60001c3.60001,10.5,3.89999,23.10001,0,33l16.20001,9.29999-12.29999,21.89999h.00006ZM80.10004,177.59999v26.39999h51.89999v-26.39999c31.79999-20.70001,48.29999-38.10001,48.29999-71.39999,0-42.3-34.20001-74.7-74.39999-74.7S31.50003,64.5,31.50003,106.2c0,34.20001,17.7,51.89999,48.60001,71.39999ZM48.90004,263.99998h114.59999v31.20001H48.90002v-31.20001h.00002ZM259.20004,224.39998c18.29999,0,31.20001-14.70001,31.20001-30.89999s-14.10001-31.20001-31.5-31.20001-31.5,13.20001-30.89999,33.29999c.29999,15.29999,15,28.79999,31.20001,28.79999l-.00003.00003ZM259.20004,182.69997c6,0,10.79999,4.79999,10.79999,10.79999s-5.10001,10.79999-10.79999,11.10001c-4.79999.29999-11.10001-3-11.10001-11.10001,0-6,4.79999-10.79999,11.10001-10.79999Z" /></svg>