<svg xmlns="http://www.w3.org/2000/svg" viewBox="0 0 198.29999 296.10001"><path d="M114.60001,197.10001v33.60001h33.89999v31.5h-33.89999v33.89999h-31.20001v-33.89999h-33.89999v-31.5h33.89999v-33.60001C36.89999,190.5,0,147.89999,0,99,0,44.39999,44.39999,0,99.29999,0s99,44.39999,99,99c0,49.5-37.5,91.5-83.70001,98.10001h.00003ZM99.30002,166.5c37.20001,0,67.5-30.60001,67.5-67.5S136.20001,31.2,99.30002,31.2,31.5,62.39999,31.5,99s30.29999,67.5,67.79999,67.5h.00003ZM90.30002,55.8l27.89999.3-15,32.10001h31.5l-23.40002,53.10001-27.29999-.29999,12.29999-27.29999h-32.70001l26.70001-57.89999.00003-.00005Z" /></svg>