<svg xmlns="http://www.w3.org/2000/svg" viewBox="0 0 388.5 292.79999"><path d="M0,0h388.5v292.79999H0V0ZM357,261.29999V31.49998H31.5v229.8h325.5ZM115.20001,55.49998c34.79999,0,66.29999,21.59999,66.29999,51.90001s-32.10001,52.20001-66.29999,52.20001-66-21.60001-66-52.20001,31.8-51.89999,66-51.89999v-.00002ZM81.60001,179.69998c9.89999,0,17.7,8.10001,17.7,17.70001s-7.8,18-17.7,18-18-8.10001-18-18,8.39999-17.70001,18-17.70001ZM115.20001,134.39999c21.29999,0,40.79999-11.70001,40.79999-27s-20.39999-26.70001-40.79999-26.70001-40.8,11.39999-40.8,26.70001,20.39999,27,40.8,27ZM148.80002,204.29999c9.89999,0,18,8.10001,18,18s-8.10001,17.70001-18,17.70001-17.70001-7.79999-17.70001-17.70001,7.79999-18,17.70001-18ZM264.60004,111.60001c39.60001,0,71.70001,29.39999,71.70001,66s-33.29999,66.29999-71.70001,66.29999-71.70001-28.20001-71.70001-66.29999,32.70001-66,71.70001-66ZM232.20004,50.10001c9.60001,0,17.70001,7.8,17.70001,17.7s-8.10001,18.00002-17.70001,18.00002-18-8.10001-18-18,8.10001-17.7,18-17.7v-.00002ZM264.60004,218.70001c25.5,0,46.5-18.60001,46.5-41.10001s-21-40.79999-46.5-40.79999-46.5,18.29999-46.5,40.79999,21,41.10001,46.5,41.10001Z" /></svg>