<svg xmlns="http://www.w3.org/2000/svg" viewBox="0 0 365.10324 299.70006"><path d="M349.8,226.80003l-71.10001,71.10001-12.60001-12.29999c-19.79999,9.89999-52.5,14.10001-79.79999,14.10001-31.79999,0-70.5-4.79999-93-22.5-12.60001-9.89999-16.2-21-16.2-29.10001v-31.50003L7.2,186.00002c-4.5-2.10001-7.2-6.89999-7.2-11.10001,0-5.10001,2.7-9.60001,7.2-11.70001l73.2-33.60001c3.60001-14.70001,12.90001-31.79999,23.09999-43.5-7.79999-7.5-15.89999-17.70001-15.89999-31.5,0-22.5,18-40.5,39.89999-40.5,7.5,0,14.70001,2.39999,20.39999,6.3C156.29997,8.09999,170.99998,0,185.99998,0c18.29999,0,33.60001,10.5,41.39999,25.8,6.29999-3.60001,13.79999-5.10001,21.29999-4.5,23.39999,2.10001,39,18.89999,39,40.2,0,13.8-8.10001,25.8-13.5,31.8,10.20001,13.79999,17.70001,32.39999,19.5,48.60001,3.89999-1.5,7.5-2.39999,11.39999-2.70001,15.29999-3.60001,33,1.20001,44.69998,13.20001,21,21.60001,19.79999,54.60001,0,74.39999l.00006.00003ZM77.09999,188.70003v-29.70001l-33.89999,15.60001,33.89999,14.10001ZM186.3,268.50005c20.70001,0,40.20001-2.39999,55.79999-7.20001l-34.5-34.5c-19.79999-19.79999-21.29999-52.5,0-74.39999,13.79999-14.10001,36.29999-18.89999,54-11.39999-6.60001-35.39999-39-60.29999-75.29999-60.29999-43.5,0-78,34.20001-78,75.60001v91.80002c7.79999,15,50.10001,20.39999,78,20.39999v-.00003ZM122.39998,69.60002c9.29999-6.3,12-7.2,22.20001-12l-3.89999-9.89999c-2.39999-5.7-7.79999-8.39999-13.20001-8.39999-8.10001,0-15,6.89999-15,15.3,0,5.10001,4.79999,10.5,9.89999,14.99998ZM147.29997,124.20003c9.89999,0,18,7.79999,18,17.70001s-8.10001,18-18,18-17.70001-8.10001-17.70001-18,7.79999-17.70001,17.70001-17.70001ZM207.29997,51.60002c.89999-6.3-.29999-10.8-2.10001-13.8-3.29999-7.8-10.79999-12.89999-19.20001-12.89999s-15.60001,4.5-18.89999,12.3c-1.5,3.89999-2.70001,9-3,14.39999,13.5-2.7,29.70001-2.7,43.20001,0ZM278.69997,254.10002l48.89999-49.20001c8.10001-7.5,9-21.60001,0-30.29999-8.10001-7.79999-21-8.70001-30,0l-18.89999,18.89999-18.89999-18.89999c-8.10001-8.10001-22.20001-7.79999-30,0-9,9-7.79999,22.5,0,30.29999l48.89999,49.20001ZM256.79997,75.30003c3.89999-5.39999,6.60001-12.3,4.79999-18.3-1.5-7.8-12-12-17.10001-8.7-5.39999,0-10.79999,3.60001-14.70001,10.2,9.60001,4.2,19.20001,9.90001,27,16.8h.00003Z" /></svg>