<svg xmlns="http://www.w3.org/2000/svg" viewBox="0 0 313.20001 300.00005"><path d="M90.89999,141.00002c0,27,.60001,33.89999,9.29999,48.89999,8.10001,14.10001,14.39999,18.29999,37.20001,31.5l-45.29999,78.60001c-36.60001-21-53.7-35.70001-70.5-64.19998C4.5,207.30003,0,184.20003,0,141.00005h90.89999v-.00003ZM48.89999,220.2c8.39999,13.79999,19.20001,26.10001,32.10001,36l14.10001-24.29999c-10.79999-9-16.79999-16.79999-22.20001-25.79999-6.29999-10.5-10.20001-22.20001-12-33.89999h-28.2c1.8,17.10001,7.2,33.29999,16.2,48v-.00003ZM156.89999,0c33.29999,0,54.60001,7.2,92.10001,29.10001l-45.60001,78.3c-23.10001-12.89999-30.29999-16.79999-46.5-16.79999s-23.10001,3.29999-46.5,16.79999L64.19998,29.10001C101.39999,7.5,122.69998,0,156.89999,0ZM156.89999,107.40001c26.70001,0,48.89999,22.20001,48.89999,49.20001s-22.20001,48.89999-48.89999,48.89999-49.20001-21.89999-49.20001-48.89999,21.89999-49.20001,49.20001-49.20001ZM122.39999,65.70001c11.10001-4.2,22.79999-6.3,34.5-6.3s23.10001,2.10001,34.20001,6.3l14.10001-24.60001c-15.29999-6.3-31.79999-9.60001-48.29999-9.60001s-33.60001,3.3-48.60001,9.60001l14.10001,24.60001h-.00003ZM156.89999,176.40001c11.10001,0,19.79999-8.70001,19.79999-19.79999s-8.70001-20.10001-19.79999-20.10001-20.10001,9-20.10001,20.10001,9,19.79999,20.10001,19.79999ZM213.60001,189.90001c8.10001-13.79999,9-24,9-48.89999h90.60001c0,42.89999-4.20001,66.30002-21.29999,94.80002-16.5,28.20001-33.60001,42.89999-70.5,64.20001l-45.29999-78.60001c21.89999-12.60001,29.70001-18,37.5-31.5l-.00003-.00003ZM232.5,256.2c13.79999-10.5,24.29999-22.79999,32.10001-36,9-15.29999,14.10001-31.20001,16.20001-48h-28.20001c-1.79999,11.70001-5.70001,22.79999-12.29999,33.89999-6,10.20001-12.29999,17.70001-21.89999,25.79999l14.10001,24.29999-.00003.00003Z" /></svg>