<svg xmlns="http://www.w3.org/2000/svg" viewBox="0 0 377.7 296.09996"><path d="M17.70003,250.79997l20.10001,20.10001h301.79999l20.09998-20.10001,18,18-27.29999,27.29999H27.3L0,268.79997l17.7-18h.00003ZM177.60002,214.49998c-17.70001,25.5-45,38.39999-74.10001,29.70001C46.20001,261.3,2.70001,201.90001,2.70001,141.59999c0-44.70001,29.10001-71.39999,71.40001-71.39999,6.3,0,12.89999.60001,19.8,1.79999,2.09999-11.39999,17.99998-30.89999,32.7-39l12.29999,21.60001c-8.39999,5.10001-12.89999,11.10001-16.5,16.20001,6.60001-.60001,12.60001-.60001,20.10001,0,27.29999,1.79999,48.60001,18.29999,57.29999,42h171.60001v48.29999c0,40.20001-20.70001,66-57.60001,87h-97.80002c-17.10001-9.60001-27.60001-18.29999-38.39999-33.60001h.00003ZM84.90002,215.39998c6.3,0,9.60001-1.20001,18.59999-5.10001,10.79999,4.20001,12.60001,5.10001,18.89999,5.10001,29.10001,0,50.39999-41.39999,50.39999-73.80002,0-26.70001-13.5-39.60001-39.89999-39.60001-8.70001,0-17.39999,1.20001-29.39999,4.20001-11.7-3-20.39999-4.20001-29.10001-4.20001-26.7,0-40.2,12.89999-40.2,39.60001,0,33.29999,21.89999,73.79999,50.7,73.79999l.00002.00003ZM224.40001,216.59999h80.70001c21.60001-13.20001,34.79999-30,34.79999-55.5v-16.80002h-135.60001c-.29999,14.10001-3.60001,30.60001-9,45.60001,5.70001,14.10001,15.89999,18.60001,29.10001,26.70001ZM233.40001,44.09999c1.5-1.5,2.39999-3.60001,2.39999-5.7,0-1.8-.60001-3.89999-2.39999-5.7l-10.79999-10.2L244.80003,0l10.79999,10.5c7.5,7.5,11.70001,17.39999,11.70001,27.89999s-4.20001,20.39999-11.70001,27.89999c-1.5,1.49998-2.39999,3.59999-2.39999,5.40001,0,2.10001.89999,4.20001,2.39999,5.70001l8.10001,8.10001-22.20001,22.5-8.10001-8.39999c-7.5-7.79999-11.39999-17.39999-11.39999-27.60001s3.89999-20.7,11.39999-27.89999v-.00003ZM309.60002,44.09999c1.5-1.5,2.39999-3.60001,2.39999-5.7,0-1.8-.60001-3.89999-2.39999-5.7l-10.79999-10.2L321.00005,0l10.79999,10.5c7.20001,7.2,11.39999,17.39999,11.39999,27.89999s-3.89999,20.39999-11.39999,27.89999c-1.5,1.49998-2.39999,3.59999-2.39999,5.40001,0,2.10001.89999,4.20001,2.39999,5.70001l8.10001,8.10001-22.20001,22.5-8.10001-8.39999c-7.5-7.79999-11.70001-17.39999-11.70001-27.60001s4.20001-20.7,11.70001-27.89999v-.00003Z" /></svg>