<svg xmlns="http://www.w3.org/2000/svg" viewBox="0 0 358.80002 296.10001"><path d="M32.39999,82.20001c-11.39999-8.10001-19.2-21.3-19.2-36.60001C13.2,20.40001,33.89999,0,59.10001,0s45.89999,20.39999,45.89999,45.60001c0,15.3-7.79999,28.5-19.5,36.60001,19.5,9.60001,32.70001,29.70001,32.70001,52.5h-31.5c0-15.29999-12.3-27.60001-27.60001-27.60001s-27.60001,12.29999-27.60001,27.60001H0c0-22.79999,13.2-42.89999,32.39999-52.5ZM73.5,149.39999c0,33.89999,15.29999,65.70001,42.29999,85.20001l-18.89999,25.20001c-34.8-25.79999-54.89999-66.89999-54.89999-110.39999h31.5v-.00003ZM59.10001,60c7.8,0,14.39999-6.60001,14.39999-14.39999s-6.60001-14.39999-14.39999-14.39999-14.39999,6.60001-14.39999,14.39999,6.3,14.39999,14.39999,14.39999ZM245.10001,28.8l-15,27.3c-32.10001-17.10001-69.29999-16.8-101.39999,0l-15-27.3c40.79999-22.5,90.30002-22.5,131.39999,0ZM238.5,296.10001h-31.5c0-15.60001-12.29999-27.89999-27.60001-27.89999s-27.60001,12.29999-27.60001,27.89999h-31.5c0-23.10001,13.20001-43.20001,32.39999-52.5-11.70001-8.10001-18.89999-21.60001-18.89999-36.89999,0-25.20001,20.10001-45.89999,45.60001-45.89999s45.60001,20.70001,45.60001,45.89999c0,15.29999-7.5,28.79999-18.89999,36.89999,19.20001,9.29999,32.39999,29.39999,32.39999,52.5ZM179.39999,221.10001c7.79999,0,14.10001-6.60001,14.10001-14.39999s-6.30002-14.39999-14.10001-14.39999-14.39999,6.29999-14.39999,14.39999,6.60001,14.39999,14.39999,14.39999ZM273.29999,82.20001c-11.70001-8.10001-19.5-21.3-19.5-36.60001,0-25.2,20.70001-45.60001,45.89999-45.60001s45.90002,20.39999,45.90002,45.60001c0,15.3-7.79999,28.5-19.20001,36.60001,19.20001,9.60001,32.40002,29.70001,32.40002,52.5h-31.5c0-15.29999-12.29999-27.60001-27.60001-27.60001s-27.60001,12.29999-27.60001,27.60001h-31.5c0-22.79999,13.20001-42.89999,32.70001-52.5h-.00003ZM285.59998,149.39999h31.5c0,43.20001-20.70001,84.89999-55.20001,110.39999l-18.60001-25.20001c26.70001-20.39999,42.29999-51.29999,42.29999-85.19998h.00003ZM299.69998,60c8.10001,0,14.39999-6.60001,14.39999-14.39999s-6.29999-14.39999-14.39999-14.39999-14.39999,6.60001-14.39999,14.39999,6.60001,14.39999,14.39999,14.39999Z" /></svg>