<svg xmlns="http://www.w3.org/2000/svg" viewBox="0 0 392.70001 296.10002"><path d="M.00003,38.7L196.50003,0l196.19998,38.7v257.39999h-31.5V62.7l-164.70001-31.5L31.5,62.7v233.39999H0V38.7h.00003ZM163.50003,47.09999l139.5,97.5-56.39999,73.79999-63.89999-39.89999-15,15c-7.20001,7.20001-10.79999,17.10001-10.79999,26.70001s3.60001,19.5,10.79999,26.70001c7.20001,7.20001,16.5,11.10001,26.39999,11.10001s20.10001-3.89999,27-11.10001l3.29999-3.60001h72.60001v25.20001h-62.39999c-8.39999,7.20001-18.60001,11.70001-29.39999,13.5v14.10001h-25.20001v-14.70001c-11.39999-2.70001-21.60001-8.39999-30-16.79999-12.29999-12-18.60001-28.20001-18.60001-44.39999,0-15,5.70001-31.5,18.60001-44.39999l10.79999-11.10001-58.8-36.60001,61.49998-81,.00003-.00003ZM239.10004,176.39998l18.89999-24.89999-87.60001-61.20001-22.5,29.70001,91.20001,56.39999Z" /></svg>