<svg xmlns="http://www.w3.org/2000/svg" viewBox="0 0 700 600"><path d="M463.53 381.6v108.74h53.69A65.24 65.24 0 0 1 580 443.48a66 66 0 0 1 0 131.95c-29.58 0-54.6-20-62.79-46.41h-91.9V381.6h-60.06a165.39 165.39 0 0 1 20.93 80.08v122.39H54V461.68c0-56.88 29.58-107.84 73.71-137.87a115.75 115.75 0 0 1-25-71.89C102.71 186.86 155 135 220.1 135A116.61 116.61 0 0 1 337 251.92c0 27.3-9.1 52.33-25 71.89a189.49 189.49 0 0 1 23.66 19.11h89.64V194.14h91.91A65.23 65.23 0 0 1 580 147.27a66 66 0 0 1 0 132c-29.58 0-54.6-20-62.79-46.41h-53.68v110.06h53.69A65.1 65.1 0 0 1 580 295.6a66 66 0 1 1-62.79 86ZM337 461.68c0-44.14-26.85-86.45-66.43-105.11-15 8.19-32.31 12.29-50.51 12.29s-35.94-4.1-51-12.29c-40.49 20-66 60.52-66 105.11v73.25H337ZM151.85 251.92c0 39.13 32.31 68.25 68.25 68.25a68.15 68.15 0 0 0 68.25-68.25c0-39.13-31.85-68.25-68.25-68.25a68.16 68.16 0 0 0-68.25 68.25ZM278.34 66.74c0-31.85 23.66-55.06 53.24-55.06C348 11.68 363 19 373.89 30.34l-12.74 12.74c-9.55-9.1-20-12.29-29.12-12.29-19.56 0-34.12 13.65-34.12 35.95 0 21.84 14.1 35.94 33.67 35.94 11.37 0 22.75-5 30.94-11.83l10.92 12.74c-10.92 10.92-26.39 18.2-42.32 18.2-29.12 0-52.78-23.2-52.78-55.05Zm145.6 52.32h-31.85V12.59h31.85c33.67 0 58.24 22.3 58.24 53.24s-24.57 53.23-58.24 53.23Zm0-87.81H411.2V100h12.74c24.12 0 38.68-13.19 38.68-35 0-20.1-15.02-33.75-38.68-33.75Zm98.28 87.81h-19.11V12.59h19.11v44.59h49.6V12.59h19.56v106.47h-19.56V74.93h-49.6Zm30 94.19A27.58 27.58 0 0 0 580 241c15.47 0 27.3-12.74 27.3-27.75 0-15.47-11.83-27.76-27.3-27.76a27.58 27.58 0 0 0-27.75 27.76Zm0 148.33A27.58 27.58 0 0 0 580 389.33c15.47 0 27.3-12.28 27.3-27.75 0-15-12.29-27.76-27.3-27.76a27.87 27.87 0 0 0-27.75 27.76Zm0 147.87A27.87 27.87 0 0 0 580 537.21c15.47 0 27.3-12.74 27.3-27.76 0-15.47-11.83-27.75-27.3-27.75a27.57 27.57 0 0 0-27.75 27.75Z"/></svg>