<svg xmlns="http://www.w3.org/2000/svg" viewBox="0 0 434.69998 296.40001"><path d="M99,248.10002c3.3-27,9.3-41.70001,20.7-49.79999,8.09999-5.70001,17.99998-10.20001,32.40001-14.39999,9.29999-2.70001,12.29999-4.20001,16.79999-6.89999,8.70001-5.70001,14.10001-14.10001,22.20001-39,3.89999-12.29999,6-28.5,6-43.20001,0-9.89999-.89999-19.5-3-26.70001-6-20.39999-39.60001-36.60001-69-36.60001-37.2,0-54.60001,20.7-54.60001,60,0,10.20001,2.39999,20.10001,9,35.10001s8.39999,21.60001,8.39999,32.10001c0,25.79999-15.3,54.89999-23.7,68.39999-14.10001,23.39999-30.89999,30.60001-50.09999,43.79999L0,242.40001c6-2.70001,27.89999-15.60001,37.5-31.5,11.39999-18.89999,19.2-39.29999,19.2-52.5,0-6.60001-3.3-12.29999-6-19.20001-5.10001-12-12-27-12-47.39999C38.7,36,69.3,0,125.10001,0c51.60001,0,90.60001,29.7,99,59.40001,3.29999,11.39999,4.79999,26.39999,4.20001,43.20001-.60001,15.89999-3.60001,33.60001-7.5,45.29999-7.79999,23.70001-15,42.60001-34.5,55.20001-6,3.89999-12.89999,7.20001-24.60001,10.79999-8.70001,2.70001-17.70001,5.10001-24,10.20001-2.39999,1.79999-5.39999,8.70001-7.5,24.29999-.89999,8.10001-1.20001,13.5-1.20001,16.5h258.60001l-84.29999-201.29999,28.79999-12.3,102.59998,245.09999H97.19998c0-29.39999-.3-30.89999,1.8-48.29999h.00002ZM250.5,148.20003c10.5,0,17.70001,9,17.70001,18,0,9.89999-7.79999,17.70001-17.70001,17.70001-10.79999,0-17.70001-9-17.70001-17.70001,0-9.60001,7.79999-18,17.70001-18ZM270.60001,207.90004c10.79999,0,18,8.70001,18,17.70001,0,9.89999-7.79999,17.70001-18,17.70001s-17.70001-7.79999-17.70001-17.70001,7.79999-17.70001,17.70001-17.70001ZM309.89999,168.60005c9.29999,0,17.70001,7.79999,17.70001,17.70001,0,10.79999-8.70001,18-17.70001,18-9.89999,0-18-8.10001-18-18s9-17.70001,18-17.70001Z" /></svg>