<svg xmlns="http://www.w3.org/2000/svg" viewBox="0 0 380.70001 292.19998"><path d="M89.39998,83.09998c-29.7,0-57.90001,8.39999-57.90001,35.39999,0,12.89999,5.7,23.39999,14.10001,31.79999,15.60001-24,45-39.29999,74.10001-39.29999,25.5,0,59.70001,8.10001,77.10001,12.60001,10.79999-16.20001,29.70001-27.29999,51-27.29999,32.39999,0,58.5,24,61.20001,57.29999.29999,2.70001.29999,5.70001,0,8.10001,45.59998,21.29999,71.70001,66.60001,71.70001,114.89999v15.60001H119.70001c-50.7,0-90.60001-41.70001-90.60001-90.60001,0-7.20001.89999-14.10001,2.7-21.29999C11.7,164.09998,0,142.5,0,117.89999,0,73.5,39.89999,51.59999,89.39999,51.59999c35.10001,0,45.29999-15.89999,45.29999-51.59999h31.5c0,54-24,83.10001-76.8,83.10001v-.00003ZM119.69998,260.69998h228.30002c-7.79999-44.70001-32.39999-63.60001-75.89999-79.5,1.79999-6.60001,2.39999-7.79999,3-10.20001,2.70001-8.70001,2.70001-9.60001,2.70001-13.20001,0-16.5-13.5-30-30-30s-30,13.5-30,30c0,8.10001,3.29999,15.89999,9,21.60001l-21.89999,22.5c-7.5-7.5-12.60001-15.89999-15.29999-25.20001-2.39999-7.79999-3.29999-13.79999-3-23.10001-16.5-4.20001-45.60001-11.10001-66.89999-11.10001-32.39999,0-59.10001,26.70001-59.10001,59.10001s26.7,59.10001,59.10001,59.10001l-.00006.00003ZM299.09998,212.99997c3.60001,0,6.89999,2.39999,6.89999,6s-2.70001,6.89999-6.29999,6.89999-6.29999-2.70001-6.29999-6.60001c0-3.29999,2.39999-6.29999,5.70001-6.29999h-.00003Z" /></svg>