<svg xmlns="http://www.w3.org/2000/svg" viewBox="0 0 246.60001 296.10002"><path d="M126.89999,243.60002v27.29999h57v25.20001H38.69998v-25.20001h57v-27.89999c-36.29999-8.70001-60.29999-40.5-60.29999-75.89999,0-14.10001,3.89999-27.89999,11.10001-39.60001L0,100.8,76.79999,0l136.5,130.80003-48.89999,64.5-96-55.20001c-4.79999,8.10001-7.79999,17.39999-7.79999,27,0,30,24.89999,52.5,52.79999,52.5,16.79999,0,28.20001-6.29999,41.10001-19.20001h92.10001v25.5h-82.19998c-10.79999,9.29999-23.70001,15.60001-37.5,17.70001h-.00003ZM156,154.20003l15.29999-20.10001L80.69998,46.80002l-33.89999,44.40001,109.20001,63Z" /></svg>