<svg xmlns="http://www.w3.org/2000/svg" viewBox="0 0 299.7 299.40001"><path d="M299.7,149.70003c0,82.80002-67.20001,149.69998-150,149.69998S0,232.50002,0,149.7,66.90001,0,149.7,0s150,66.90001,150,149.7v.00003ZM76.49998,134.10002c-2.70001-17.70001-12.89999-36.60001-26.10001-48.29999-9.60001,14.10001-15.60001,31.20001-17.7,48.29999h43.8ZM50.69998,213.90001c13.50002-12.89999,22.8-30,25.8-48.29999h-43.8c2.10001,16.79999,8.39999,34.5,18,48.29999ZM108.59999,134.10002h28.5V32.10002c-23.70001,2.10001-48.60001,13.2-66,29.39999,20.70001,19.5,33.89999,45,37.5,72.60001ZM71.39998,238.20003c17.70001,15.89999,42.29999,27,65.69998,29.10001v-101.70001h-28.5c-3.60001,27.60001-16.79999,53.39999-37.5,72.29999l.29999.29999.00003.00003ZM191.09996,134.10002c3.60001-27.89999,16.79999-53.70001,37.5-72.60001,0,0,0-.3-.29999-.3-18-15.89999-42.29999-27-65.70001-29.10001v102.00002h28.5ZM228.29997,238.20003l.29999-.29999c-20.70001-18.89999-33.89999-44.70001-37.5-72.30002h-28.5v101.70001c23.70001-2.10001,48-13.5,65.70001-29.10001ZM266.99998,134.10002c-1.79999-16.20001-9-34.79999-18.29999-48.29999-13.5,12.89999-22.5,29.70001-25.5,48.29999h43.79999ZM248.7,213.60002c9.60001-13.79999,16.20001-31.5,18.29999-48h-43.79999c3,18.29999,12,35.39999,25.5,48Z" /></svg>