<svg xmlns="http://www.w3.org/2000/svg" viewBox="0 0 350.10005 296.7"><path d="M6.3,176.39998l36.89999,9.89999,66-38.10001-66-37.79999-36.89999,9.89999L0,95.69997l33.90001-9-9.3-33.89999,24.60001-6.89999,9.60001,37.20001,69.3,39.60001V48l-30-30L115.80003,0l37.5,37.5v221.7l-37.5,37.5-17.70001-18,30-30v-74.69998l-69.3,39.60001-9.60001,37.20001-24.60001-6.89999,9.3-33.89999L.00002,201.00005l6.3-24.60001-.00002-.00006ZM275.09999,181.79997l60.89999,35.39999-12.60001,21.60001-61.79999-35.70001c-2.39999,3.29999-9.29999,9.60001-12.60001,12.29999l35.70001,62.10001-21.60001,12.60001-36.29999-62.39999c-5.39999,1.79999-10.79999,3.29999-16.5,3.89999v63.60001h-25.20001v-93.89999c43.20001-.29999,65.39999-20.10001,65.39999-53.10001s-23.39999-52.79999-65.39999-52.79999V2.39998h25.20001v62.7c6.89999.60001,13.5,2.7,19.5,5.09999l33.29999-56.7,21.60001,12.3-33.29999,57.89999c4.5,3,11.10001,10.5,13.79999,14.39999l58.20001-33.60001,12.60001,21.89999-58.79999,33.89999c2.10001,6,3.60001,12.29999,4.20001,18.60001h68.70001v25.50003h-69.60001c-1.20001,6-3,11.70001-5.39999,17.39999h-.00006Z" /></svg>