<svg xmlns="http://www.w3.org/2000/svg" viewBox="0 0 700 600"><path d="M653.94 242.82 638 287.41 350.46 185.49 62 287.41l-15.94-44.59L350.46 135ZM618 445.75v138.32h-47.78v-48.23H131.6v48.23H83.83v-250.7h47.77v154.7h438.62v-42.32a44.66 44.66 0 0 0-44.59-44.59H374.12v-47.77h151.51A92.43 92.43 0 0 1 618 445.75Zm-364.91 11.83c-49.6 0-91-40.49-91-91 0-50.05 41.4-90.54 91-90.54 50 0 91 40.49 91 90.54a91 91 0 0 1-91 91Zm0-47.77a43 43 0 1 0 0-86c-23.66 0-43.23 19.11-43.23 42.77a43.21 43.21 0 0 0 43.23 43.23Z"/></svg>