<svg xmlns="http://www.w3.org/2000/svg" viewBox="0 0 360.59998 293.99998"><path d="M144,278.99998L15,149.99998C5.10001,140.09999,0,127.2,0,113.39998s5.39999-26.39999,15.3-36.29999L78,14.7C87.60001,5.09999,101.10001,0,114.29999,0h132.89999c13.79999,0,27,5.39999,36.60001,15l62.09998,62.40001c9.90002,9.89999,14.70001,23.10001,14.70001,36,0,14.10001-5.40002,27-14.70001,36.29999l-129.29999,129.29999c-9.60001,9.60001-22.5,15-36.29999,15s-26.39999-5.10001-36.29999-15ZM37.19998,127.79997l129,129c3.29999,3.29999,8.39999,5.70001,14.10001,5.70001,5.10001,0,10.5-2.10001,14.10001-5.70001l7.5-7.5-27.60001-27.60001,17.70001-17.70001,27.60001,27.60001,18-18.29999-27.60001-27.60001,17.70001-17.70001,27.60001,27.60001,21.60001-21.29999-57.29999-57-33.89999,34.20001c-8.70001,8.70001-21,14.10001-34.20001,14.10001s-24.89999-4.79999-34.20001-14.10001c-9.29999-9.60001-14.10001-21.89999-14.10001-34.20001s4.79999-24.89999,14.10001-34.20001l51.60001-51.60001h-54.60004c-5.39999,0-10.5,2.10001-14.10001,5.7l-63,62.40001c-3.60001,3.60001-5.7,8.39999-5.7,14.10001,0,5.10001,1.8,10.20001,5.7,14.10001ZM135,133.49998c4.20001,4.20001,10.5,6.60001,16.5,6.60001s11.70001-2.10001,16.20001-6.60001l75.60001-75.89999,18,18-24,23.70001,57.29999,57.29999,29.10001-29.10001c3.60001-3.60001,5.70001-9,5.70001-14.10001s-2.10001-10.20001-5.70001-13.79999l-62.10001-62.39999c-3.60001-3.60001-8.39999-5.7-14.39999-5.7h-42.60001l-69.60001,69.59999c-4.20001,4.20001-6.60001,10.20001-6.60001,16.20001s2.70001,12.29999,6.60001,16.20001v-.00003Z" /></svg>