<svg xmlns="http://www.w3.org/2000/svg" viewBox="0 0 700 600"><path d="m614.81 331.55 30.94 21.84-28.21 40-30.94-21.8a109.32 109.32 0 0 1-63.7 29.57l-3.64 37.77-48.68-4.55 3.18-37.77c-23.2-6.37-43.22-21.38-57.33-40.49l-44.59 21.38a97.7 97.7 0 0 1 2.73 24.12l49.6 7.73-7.28 47.78-50.05-7.74A134 134 0 0 1 307.23 524l18.2 47.32-45 17.75-18.66-47.32a139.62 139.62 0 0 1-27.3 3.18 136.08 136.08 0 0 1-66.88-17.74l-31.89 39.59-38.22-30.48 31.85-39.59C107.49 473.05 95.2 440.29 94.75 408l-50-7.74L52.43 352l49.6 7.74a138 138 0 0 1 59.6-74.62l-18.2-47.32 45.5-17.29 18.2 46.86a143.79 143.79 0 0 1 27.3-3.18A136.11 136.11 0 0 1 301.32 282l31.85-39.58 38.22 30.48-31.85 39.59a114.34 114.34 0 0 1 14.1 19.11l42.32-20a80.92 80.92 0 0 1-2.73-25.94 111.71 111.71 0 0 1 9.1-43.68l-30.94-21.84 28.21-40 30.94 21.84a112 112 0 0 1 63.7-29.57l3.64-37.77 48.23 4.1-3.19 38.22c23.21 6.82 43.23 21.38 57.79 40l34.12-15.47 20.48 44.13-34.58 15.93a102.44 102.44 0 0 1 3.18 26.39c-.45 15.4-4.09 32.69-9.1 43.61Zm-289.38 73.71c0-51.87-41.86-91.91-91-91.91-52.32 0-91 43.68-91 91.45 0 51 43.23 91 91 91 50.05 0 91-42.31 91-90.54ZM230.34 91.31C230.34 68.1 183 74 183 42.17c0-17.75 14.56-30.49 33.21-30.49 11.83 0 25.48 5.92 34.13 14.11l-12.72 12.74c-6.37-5.46-12.74-8.19-20.48-8.19-9.1 0-14.56 3.18-14.56 9.1 0 18.65 47.78 13.65 47.78 48.68 0 20-15.93 33.67-34.58 33.67-15 0-30-8.64-39.59-21.84l12.29-12.74c8.64 10.92 16.83 15.93 26.84 15.93 9.56 0 15.02-4.14 15.02-11.83Zm31.39 313.49a27 27 0 0 1-27.3 26.85 26.85 26.85 0 0 1 0-53.69 27 27 0 0 1 27.3 26.84Zm33.67-374h-35V12.59h88.72v18.2h-34.61v88.27H295.4Zm93.28 88.27h-19.11V12.59h19.11Zm120.57 101c-37.31 0-68.7 29.58-69.16 62.79-.45 38.22 29.58 70.53 68.25 70.53 35.49 0 66-28.67 66.43-62.34.46-37.31-27.77-70.98-65.52-70.98Zm25.94 66c0 14.56-12.29 26.84-27.3 26.84A27.19 27.19 0 0 1 481 286.05c0-15 12.29-27.3 26.85-27.3a27.38 27.38 0 0 1 27.34 27.3Z"/></svg>