<svg xmlns="http://www.w3.org/2000/svg" viewBox="0 0 351.30002 299.40001"><path d="M159.60001,276.59999c-16.20001,9.29999-33.89999,14.10001-53.10001,14.10001C46.5,290.7,0,241.49998,0,183.59999V26.39999c75.89999,13.2,85.5,15.60001,109.5,15.3V0c89.10001,15.3,96,17.39999,120.89999,17.39999s34.20001-2.39999,120.90002-17.39999v178.8c0,66-54,120.60001-120.29999,120.60001h-.60001c-25.79999,0-49.20001-7.79999-70.80002-22.79999v-.00003ZM106.5,259.2c10.5,0,20.10001-2.10001,29.10001-6-9.89999-12.89999-18-28.20001-21.89999-43.5-14.70001-1.20001-25.5.60001-35.7,11.10001l-18-18c13.8-13.5,32.40001-19.79999,49.8-18.89999-.29999-1.79999-.29999-3.60001-.29999-5.70001v-105c-22.5.3-36.89999-2.10001-78-9.3v119.7c0,41.39999,33.89999,75.60001,75,75.60001h-.00003ZM92.10001,91.8v25.5c-11.10001,0-20.10001,9.29999-20.10001,20.39999h-25.2c0-25.20001,20.39999-45.89999,45.3-45.89999ZM231,268.49998c50.39999-.60001,88.80002-42,88.80002-89.70001V37.5c-56.10001,9.3-64.79999,11.10001-89.39999,11.10001s-34.5-2.10001-89.39999-11.10001v140.7c0,49.20001,40.5,90.60001,90,90.29999h-.00003ZM188.70001,78.89998c19.79999,0,36,16.20001,36,36.29999h-25.20001c0-6-4.79999-11.10001-10.79999-11.10001s-10.79999,5.10001-10.79999,11.10001h-25.5c0-20.10001,16.20001-36.29999,36.29999-36.29999ZM195.90002,182.7c9,9.29999,21.29999,14.10001,34.20001,14.10001s25.20001-4.79999,34.20001-14.10001l18,18c-14.10001,13.79999-32.39999,21.60001-52.20001,21.60001s-38.10001-7.79999-52.20001-21.60001l18-18ZM272.10001,78.90001c19.79999,0,36,16.20001,36,36.29999h-25.20001c0-6-4.79999-11.10001-10.79999-11.10001-6.29999,0-11.10001,5.10001-11.10001,11.10001h-25.20001c0-20.10001,16.20001-36.29999,36.29999-36.29999h.00003Z" /></svg>