<svg xmlns="http://www.w3.org/2000/svg" viewBox="0 0 700 600"><path d="M122.5 426.7c0-37.31 13.2-81 37.31-125.12-24.11-44.14-37.31-87.82-37.31-125.13 0-63.24 38.68-102.37 102.38-102.37 37.31 0 81 13.19 125.12 37.76 44.59-24.57 88.27-37.31 125.13-37.31 63.7 0 102.37 38.22 102.37 102.38 0 36.85-13.19 80.53-37.31 125.12 24.12 44.14 37.31 87.82 37.31 124.67 0 63.7-39.13 102.38-102.37 102.38-37.31 0-81-12.74-125.58-37.31-44.14 24.11-87.82 37.31-124.67 37.31-65.07 0-102.38-40.08-102.38-102.38Zm180.64 35a505.12 505.12 0 0 1-113.3-113.3c-10.92 24.12-19.56 54.15-19.56 78.26 0 37.31 16.83 54.6 54.6 54.6 26.39.04 52.32-8.15 78.26-19.52Zm.45-319.87c-25-11.37-54.14-20-78.71-20-32.31 0-51 13.2-53.69 45.5-3.19 24.57 6.37 59.15 19.11 87.36 31.85-44.11 70.98-83.24 113.29-112.82ZM484.68 302c-32.3-50.5-84.17-101.92-134.68-134.68-52.32 33.22-99.64 81-134.68 134.23C248.08 352.08 298.59 403.5 350 436.26c52.78-33.67 100.1-82.81 134.68-134.26Zm-161.52-.45A26.85 26.85 0 1 1 350 328.88a26.9 26.9 0 0 1-26.84-27.3Zm206.11 125.61c0-25-9.1-56-19.56-78.26-30.49 42.77-72.35 83.72-113.3 112.84 25 11.83 55.06 20 78.72 20 39.13.02 54.14-19.55 54.14-54.58Zm.46-250.25c0-37.31-17.75-55.06-54.6-55.06-24.12 0-52.78 8.65-78.26 20C437.82 171 482 214.67 509.71 255.17c11.83-25.94 20.02-52.78 20.02-78.26Z"/></svg>