<svg xmlns="http://www.w3.org/2000/svg" viewBox="0 0 700 600"><path d="M580.92 418 489 442.11 513.58 534l-46 12.29-28.17-105.09-66-37.76V479l77.36 76.89L417.12 590l-67.35-67.34L282.89 590l-33.67-34.13L325.66 479v-75.56l-65.07 37.76-28.21 105.11L186.43 534 211 442.11 119.09 418l12.28-46.41 105.11 28.21 66-37.77-66-37.76-105.11 28.21-12.28-46.41L210.54 282l-24.11-92 45.95-12.74 27.76 105.56 65.52 37.77V245.1l-76.44-77.35 33.67-33.67 66.88 67.34 67.35-67.34 33.67 33.67-77.36 77.35v75.53l66-37.77 28.19-105.56 46 12.74L489.46 282l91.46 24.12-12.74 46.41-104.65-28.26-66 37.76 65.52 37.77 105.11-28.21Z"/></svg>