<svg xmlns="http://www.w3.org/2000/svg" viewBox="0 0 292.8 292.80002"><path d="M292.8,0v76.79999h-31.79999v-23.7l-49.20001,49.2c5.70001,10.20001,9,21.89999,9,34.5,0,35.70001-25.20001,65.70001-58.20001,72.60001v26.10001h27v31.20001h-27v26.10001h-31.5v-26.10001h-27v-31.20001h27v-25.79999c-33.60001-7.20001-58.5-36.89999-58.5-72.89999,0-12.29999,3.29999-24,8.39999-34.20001l-9.29999-9.60001-17.70001,18-18-17.70001,17.70001-18-22.2-22.2v23.7H0V0h78.90001v31.5h-24.60001l21.29999,21.3,18.60001-18.60001,18.29999,17.39999-18.60001,18.90001,7.5,7.79999c12.60001-9.89999,28.20001-15.60001,45.29999-15.60001s32.39999,5.70001,44.70001,15.29999l46.5-46.5h-24V0h78.90002ZM146.7,180c23.70001,0,42.60001-19.20001,42.60001-43.20001s-19.20001-42.60001-42.60001-42.60001c-24.60001,0-42.60001,20.10001-42.60001,42.60001,0,24,18.89999,43.20001,42.60001,43.20001Z" /></svg>