<svg xmlns="http://www.w3.org/2000/svg" viewBox="0 0 480.30003 292.82682"><path d="M134.09999,267.62678h49.20001v-16.5H0V.02677h375.90001c48.90002-1.2,87.90002,38.10001,87.90002,85.20001,0,28.79999-15,56.10001-39,71.70001l55.5,135.89999h-33.59998l-51-124.19998c-3.29999.89999-7.5,1.5-10.79999,1.5v81h-176.10001v16.5h49.20001v25.20001h-123.89999v-25.20001l-.00009-.00003ZM353.40001,225.92677v-59.39999c-34.5-9.29999-60.29999-44.10001-60.29999-81.29999,0-18.89999,8.10001-40.5,21-53.7H25.20003v194.40001h328.20001l-.00003-.00003ZM45.90001,42.62676h25.5v144.3h9.89999v-39h31.5v39h10.5v-95.69998h31.5v95.70001h38.10001v-60.60001h31.5v60.60001h20.10001V55.22677h31.5v131.7h17.10001v-24.89999h31.5v24.89999h18v25.5H45.90001V42.62676ZM373.50002,138.62675v-56.70001h-48.29999c-3,28.79999,19.5,54.29999,48.29999,56.70001ZM405.00005,50.42675v80.99998c16.5-9,27.29999-27,27.29999-46.20001,0-29.7-24.59998-53.7-54-53.7-19.20001,0-27.89999,5.39999-39.60001,18.89999h66.30002v.00003Z" /></svg>