<svg xmlns="http://www.w3.org/2000/svg" viewBox="0 0 700 600"><path d="m163.22 286.57-30 30.49-27.3-27.3 30.49-30ZM288.35 217l-20 20.47-15.47 66.89-26.39-26.39-21.84 22.29-80.54-80.53 22.3-21.84-25.48-25.94 67.79-15 20-20c26.39-22.75 64.16-26.85 103.74-24.12 1.82 54.08-2.73 82.29-24.11 104.17Zm80.08 336.25c-116.48 0-213.85-87.82-225.68-203.39l47.32-5.46a179.24 179.24 0 0 0 178.36 161.48c98.74 0 179.27-80.53 179.27-179.72 0-100.56-81.9-179.73-179.27-179.73V99.11C493.1 99.11 595 200.12 595 326.16c0 126.94-103.26 227.05-226.57 227.05ZM234.66 165.09l-56 55 25.94 25.94 56.87-56.42c10-10 11.38-23.21 12.29-37.77-14.99 1.42-28.18 4.6-39.1 13.25Zm133.77 78.71a82.36 82.36 0 1 1 0 164.71c-45.5 0-82.81-36.85-82.81-82.35s37.31-82.36 82.81-82.36Zm-44.59 82.36A44.36 44.36 0 1 0 368.43 282a44.27 44.27 0 0 0-44.59 44.16Z"/></svg>