<svg xmlns="http://www.w3.org/2000/svg" viewBox="0 0 345.30002 300.00002"><path d="M50.7.00002C78.59999.00002,101.10001,22.80002,101.10001,50.70001c0,22.49998-14.70001,41.7-34.8,47.99998v197.70001h-31.5V98.7C14.7,92.40001,0,73.2,0,50.7,0,22.8,22.8,0,50.7,0v.00002ZM50.7,69.90001c10.5,0,18.89999-8.7,18.89999-19.2s-8.39999-19.2-18.89999-19.2-19.2,8.7-19.2,19.2,8.7,19.2,19.2,19.2ZM222.60001,149.10002c0,22.5-14.39999,41.39999-34.20001,47.70001v99.60001h-31.5v-99c-20.39999-6.29999-35.39999-25.5-35.39999-48.29999s15-41.70001,35.39999-47.70001V3.60004h31.5v98.09999c19.79999,6.29999,34.20001,25.20001,34.20001,47.39999ZM172.20001,168.30003c10.5,0,18.89999-8.70001,18.89999-19.20001s-8.39999-19.20001-18.89999-19.20001-19.20001,8.70001-19.20001,19.20001,8.70001,19.20001,19.20001,19.20001ZM278.70001,201.90004V3.60001h31.5v198.3c20.10001,6.29999,35.10001,25.5,35.10001,47.70001,0,27.89999-22.79999,50.39999-50.70001,50.39999s-50.70001-22.5-50.70001-50.39999c0-22.20001,14.70001-41.39999,34.79999-47.70001l.00003.00003ZM294.60001,268.80003c10.5,0,19.20001-8.70001,19.20001-19.20001s-8.70001-19.20001-19.20001-19.20001-19.20001,8.70001-19.20001,19.20001,8.70001,19.20001,19.20001,19.20001Z" /></svg>