<svg xmlns="http://www.w3.org/2000/svg" viewBox="0 0 402.01078 296.10001"><path d="M122.70001,0l122.70001,69v227.10001h-105.90002v-88.5h-33.60001v88.5H0V69L122.70001,0ZM74.40001,264.60001v-88.5h96.59999v88.5h42.89999V87.29999l-91.19998-51.3L31.50002,87.29999v177.29999h42.90001l-.00002.00003ZM272.40002,90.90002c.29999-16.5-2.70001-32.39999-9-48l23.39999-9.3c7.5,18,11.10001,37.2,10.79999,56.7-.29999,18.89999-3.89999,37.20001-11.39999,54.60001l-23.10001-9.60001c6-14.39999,9-29.39999,9.29999-44.39999h.00003ZM324.60004,90.60004c.29999-21.89999-3.89999-43.8-12.29999-64.5l23.39999-9.3c9.60001,23.7,14.39999,48.59999,14.10001,74.09999-.29999,24.60001-5.39999,48.60001-14.70001,71.39999l-23.39999-9.60001c8.10001-19.79999,12.60001-40.79999,12.89999-62.10001v.00003ZM376.80005,91.20004c.29999-27.89999-4.79999-55.5-15.89999-81.89999L384.30005.00005c12,29.39999,18,60.3,17.70001,91.2-.59998,30.60001-6.59998,60.29999-18.59998,88.19998l-23.39999-9.60001c10.80002-25.20001,16.50003-51.60001,16.80002-78.60001l-.00006.00003Z" /></svg>