<svg xmlns="http://www.w3.org/2000/svg" viewBox="0 0 400.80002 299.40001"><path d="M400.79996,38.7v257.39999h-31.5V58.8l-53.39999-24.3-53.39999,24.3v72c15.60001-3.29999,26.10001-3.89999,51.60001-3.89999,0,100.19998-61.79999,172.5-157.19998,172.5S0,229.20003,0,126.90001c43.2,0,70.2,4.5,102.89999,26.70001,6-33,21.60001-59.70001,54-93.60001,29.70001,31.20001,47.10001,56.39999,54,93.60001,6.29999-4.5,12.89999-8.39999,20.10001-12V38.7L315.89999,0l84.90002,38.7h-.00006ZM140.09995,266.7c-8.70001-57.29999-52.2-99.89999-107.39999-107.10001,7.5,56.10001,51,98.39999,107.39999,107.10001ZM156.89993,216.90001c6.29999-14.70001,15-27.89999,25.5-39.29999-1.20001-25.20001-10.20001-50.10001-25.5-69.60001-15.29999,20.70001-24.29999,44.10001-25.5,69.60001,10.5,11.39999,19.20001,24.89999,25.5,39.29999ZM281.39993,159.60002c-55.79999,7.20001-100.20001,51.89999-107.39999,107.10001,57.89999-8.70001,99-51.29999,107.39999-107.10001Z" /></svg>