<svg xmlns="http://www.w3.org/2000/svg" viewBox="0 0 341.10001 296.10001"><path d="M122.10001,0h96.89999c67.19998,0,122.10001,54.89999,122.10001,122.10001,0,58.79999-42,108-97.79999,119.10001v54.89999l-81-52.20001h-40.20001C54.90001,243.89999,0,189,0,122.09998S54.90002,0,122.10001,0ZM87,205.20001c19.20001,7.79999,26.39999,7.20001,84.60001,7.20001l40.20001,26.10001v-22.79999l25.5-5.10001c43.5-8.70001,72.29999-47.39999,72.29999-88.5,0-50.70001-41.70001-90.60001-90.60001-90.60001h-96.89999c-49.2,0-90.60001,40.79999-90.60001,90.60001,0,36,22.5,69.29999,55.5,83.10001v-.00003ZM204,147.30002l-35.10001-8.70001-50.39999,51.29999-18-17.70001,50.10001-50.70001-9-36.29999,31.5-31.5,26.70001,3.60001-3.29999,24.89999-14.39999-2.10001-12.60001,12.60001,5.39999,21.29999,21.29999,5.39999,12.60001-12.29999-2.10001-14.39999,24.89999-3.60001,3.89999,26.70001-31.5,31.5v.00003Z" /></svg>