<svg xmlns="http://www.w3.org/2000/svg" viewBox="0 0 312.30003 299.99994"><path d="M99.3,263.39999l-46.8-25.79999c-5.39999,6.29999-13.5,10.20001-22.5,10.20001-16.5,0-30-13.5-30-30,0-14.10001,9.89999-26.39999,23.39999-29.39999v-107.10004C9.89999,78.29999,0,66.59999,0,51.89999c0-16.5,13.5-30,30-30,12.89999,0,24,8.10001,28.2,19.5l95.70001-13.5c.89999-15.3,13.79999-27.89999,29.70001-27.89999,20.10001,0,34.20001,18.89999,29.10001,38.39999l47.10001,25.8c5.39999-6.3,13.5-10.2,22.20001-10.2,16.79999,0,30.29999,13.5,30.29999,30.29999,0,14.10001-9.89999,26.10001-23.10001,29.39999l-.29999,106.79999c13.5,3,23.39999,15,23.39999,29.39999,0,16.5-13.5,30-30.29999,30-12.60001,0-23.70001-7.79999-27.89999-19.20001l-95.69998,13.5c-2.10001,14.70001-14.39999,25.79999-29.70001,25.79999-18.60001,0-33-15.89999-29.39999-36.60001l-.00006.00006ZM54.60001,200.10001l65.40001-6.89999.29999-57.89999c-16.20001-3.29999-23.70001-16.20001-21-28.5l-54.89999-28.5c-.60001.60001-1.5.89999-2.10001,1.20001v110.70001c4.8,2.10001,9,5.39999,12.3,9.89999v-.00003ZM107.7,90.30002c5.10001-6,12.89999-9,21.29999-9,12.29999,0,22.79999,7.20001,27.29999,17.70001l17.39999-2.39999v-37.8c-6.60001-2.10001-12-6.89999-15.89999-12.60001l-98.7,13.8c-.60001,1.5-.89999,2.7-1.5,3.89999l50.09999,26.39999h.00003ZM109.2,247.20001c3-2.70001,6.60001-4.5,10.79999-6v-28.79999l-59.7,6v2.10001l48.90001,26.70001v-.00003ZM154.2,189.60001c2.10001-10.20001,9.60001-18.29999,19.5-21.89999v-52.20001l-15.29999,2.10001c-2.39999,9.29999-9.89999,15-19.5,17.39999l-.29999,56.39999,15.60001-1.79999h-.00003ZM155.09999,255.60001l92.69998-13.20001-43.79999-24.29999c-5.10001,5.10001-12.29999,8.10001-20.39999,8.10001-12.29999,0-22.79999-7.5-27.29999-18l-17.70001,2.10001v31.5c7.20001,2.39999,12.89999,7.5,16.5,13.79999ZM251.99998,85.5v-4.20001l-49.79999-27c-3,2.10001-6.29999,3.89999-9.89999,5.10001v34.79999l59.70001-8.70001-.00003.00003ZM213.59999,196.19998c0,1.79999,0,3.60001-.29999,5.39999l48,26.70001c2.39999-2.39999,5.39999-4.5,8.70001-5.70001l.29999-110.69998c-4.5-1.79999-8.10001-4.79999-10.79999-8.10001l-67.19998,9.29999v54.29999c12.29999,3.89999,21.29999,15,21.29999,28.79999l-.00003.00003Z" /></svg>