<svg xmlns="http://www.w3.org/2000/svg" viewBox="0 0 700 600"><path d="M179.6 306.07c0-94.64 76-171.08 170.63-171.08 94.19-.46 170.63 76.44 170.63 171.08 0 159.7-161.53 276.64-170.63 283-9.1-6.36-170.63-123.3-170.63-283Zm293.48 0c0-69.62-56-122.85-122.85-123.76-68.25-.46-122.85 55.05-122.85 123.76 0 81.9 56.42 165.16 122.85 221.58 68.71-60.06 122.85-140.14 122.85-221.58Zm-197.47 10c0-40.95 33.67-74.17 74.62-74.17a74.4 74.4 0 1 1-74.62 74.17Zm110.57 0a35.95 35.95 0 1 0-35.95 36.4 36 36 0 0 0 35.95-36.39Z"/></svg>