<svg xmlns="http://www.w3.org/2000/svg" viewBox="0 0 364.80002 299.40002"><path d="M.00006,102C.00006,45.60001,45.60007,0,101.70004,0c25.20001,0,49.5,11.10001,69.29999,27C191.10004,10.8,216.60004,0,240.30002,0c56.10001,0,102,45.60001,102,102,0,8.39999-.89999,16.79999-3,25.20001,12.90002,9.29999,25.5,27.29999,25.5,57.60001,0,51.89999-34.20001,114.60001-83.10001,114.60001-6.29999,0-12.60001-.89999-18.89999-2.70001-6.29999,1.79999-12.89999,2.70001-19.20001,2.70001-17.39999,0-33-8.10001-45-19.5l-27.60001,19.5C90.60001,247.50003,0,166.80002,0,102.00003l.00006-.00003ZM171.00006,261.29999l8.70001-6.60001c-11.70001-20.70001-19.20001-47.10001-19.20001-69.89999,0-45.29999,29.10001-72.29999,72.30002-72.29999,6.60001,0,13.5.89999,20.39999,1.79999,3.60001-11.70001,12.29999-26.39999,30.89999-36.60001l12.60001,21.89999c-6.29999,3.60001-11.10001,8.10001-14.10001,13.79999,9.60001-.60001,14.10001-1.5,27,.89999,6.60001-45.60001-26.10001-83.10001-69.29999-83.10001-24.89999,0-43.5,12.3-69.29999,39.89999-22.20001-24-42-39.89999-69.29999-39.89999-38.7,0-70.2,31.8-70.2,70.79999,0,53.10001,81.90001,117,139.49998,159.29999l-.00003.00006ZM243.60007,268.19998c5.70001,0,9.89999-1.5,19.20001-5.39999,9.89999,4.20001,14.39999,5.39999,19.20001,5.39999,28.79999,0,51.29999-48.89999,51.29999-83.39999,0-28.20001-15-40.79999-41.10001-40.79999-9.89999,0-17.39999,1.5-29.39999,4.5-13.20001-3.29999-21.89999-4.5-29.70001-4.5-27.89999,0-41.10001,14.70001-41.10001,40.79999,0,35.39999,23.10001,83.39999,51.60001,83.39999Z" /></svg>