<svg xmlns="http://www.w3.org/2000/svg" viewBox="0 0 700 600"><path d="M60.17 298.39c0-80.53 64.61-142.87 142.87-142.87a143.07 143.07 0 0 1 41.86 5.92l52.32-51.87h-46L253.54 80H360v106.46h-30.47v-45l-40 42.77a194.73 194.73 0 0 1 15 13.19l-33.67 33.67c-58.69-59.6-162.89-17.74-162.89 67.34a95.56 95.56 0 0 0 162.89 67.8l33.67 33.67c-27.3 27.3-62.79 41.86-101.46 41.86-80.57-.04-142.9-65.11-142.9-143.37Zm232.05-56.87h115.57v38.67H292.22Zm0 71.43h115.57v38.22H292.22Zm180.63 189.28h-29.12V464h29.12v-24.1c-29.12-5-56.87-19.11-77.35-40l33.67-33.67a96.24 96.24 0 0 0 67.34 27.75c53.24 0 95.55-41.86 95.55-95.55 0-54.14-43.68-95.09-95.55-95.09a94.33 94.33 0 0 0-67.34 27.75l-33.67-33.71c26.39-27.3 62.79-41.86 101-41.86 80.54 0 143.33 65.52 143.33 142.87 0 69.62-51 129.68-119.21 141.51V464h29.12v38.22h-29.11v21.84h-47.78Z"/></svg>