<svg xmlns="http://www.w3.org/2000/svg" viewBox="0 0 448.54415 300.29997"><path d="M86.74414,291.59999L6.94414,236.7c-3.9-2.70001-6.6-7.5-6.9-11.70001-.3-3.60001.9-8.70001,4.5-12.29999l23.7-23.70001c9.60001-9.60001,22.2-14.39999,34.8-14.39999,7.8,0,14.39999,1.79999,23.10001,6l.60001-43.79999c0-4.20001,1.5-7.79999,4.5-10.79999l23.7-23.70001c9.60001-9.60001,22.2-14.39999,35.09999-14.39999,7.79999,0,14.10001,1.79999,22.79999,6l.60001-43.5c.29999-4.5,1.79999-8.10001,4.5-11.10001l23.70001-23.7c9.60001-9.60001,22.20001-14.39999,34.79999-14.39999,9.29999,0,19.79999,2.7,28.20001,8.7l22.79999,15.89999C305.74413,7.5,321.94414,0,343.54415,0h32.39999c40.80002,0,72.60001,33,72.60001,72.3,0,22.5-9,38.70001-27,56.70001l5.40002,5.39999c4.79999,4.79999,5.09998,12.60001,0,17.70001l-73.79999,74.10001,13.79999,14.70001c2.39999,2.70001,3.60001,5.70001,3.60001,9,0,6.29999-5.70001,12.29999-12.60001,12.29999h-69.60001c-22.20001,22.5-41.39999,34.20001-70.5,34.20001h-25.79999v-25.20004h25.79999c16.79999,0,33.60001-7.79999,44.39999-18.60001l7.20001-7.20001v-72c0-7.5,6.60001-12.29999,12.29999-12.29999,3.29999,0,6.89999,1.20001,9,3.29999l14.70001,14.10001,73.79999-73.79999c5.10001-5.39999,13.79999-4.20001,18,0l6.29999,6.29999,5.70001-5.39999c9-8.70001,14.09998-21,14.09998-33.29999,0-26.10001-21.29999-47.10001-47.39999-47.10001h-32.39999c-13.20001,0-24.29999,4.8-34.79999,15l35.39999,24.60001c8.70001,6,8.39999,18,2.39999,24l-23.70001,23.70001c-9.60001,9.60001-22.20001,14.39999-34.79999,14.39999-8.10001,0-14.70001-1.79999-23.39999-6.60001v43.79999c0,5.10001-1.5,7.79999-5.10001,11.39999l-23.70001,23.70001c-9,9-21.29999,14.39999-34.5,14.39999-8.10001,0-14.70001-1.79999-23.70001-6.60001v42.89999c0,4.79999-1.20001,8.70001-4.20001,11.70001l-24.29999,24.29999c-9.60001,9.60001-21.89999,14.39999-34.8,14.39999-8.39999,0-18.60001-2.39999-27.60001-8.70001l.00003.00003ZM104.44414,265.8c3,2.10001,6.89999,3,9.89999,3,4.8,0,9.3-1.79999,12.60001-5.10001l10.20001-10.20001-63.89999-44.39999c-3-2.10001-7.2-3-10.2-3-4.2,0-9,1.79999-12.3,5.10001l-10.5,10.20001,64.2,44.39999h-.00002ZM146.14415,221.09999l.29999-34.5-28.8-19.79999-.3,34.5,28.79999,19.79999h.00003ZM191.14415,179.09999c3,2.10001,6.89999,3,10.20001,3,4.5,0,9.29999-1.79999,12.60001-5.10001l9.89999-10.5-63.89999-44.10001c-2.70001-1.79999-5.70001-3-9.89999-3-4.79999,0-9.29999,1.5-12.89999,5.10001l-10.2,10.20001,64.2,44.39999h-.00003ZM233.14415,134.39998l.29999-34.5-29.10001-20.10001-.29999,34.79999,29.10001,19.79999v.00003ZM277.84416,92.39998c2.70001,1.79999,5.70001,3,10.20001,3s9.29999-1.79999,12.60001-5.10001l10.20001-10.5-64.20001-44.10001c-3-2.10001-6.60001-3.3-9.89999-3.3-4.5,0-9.29999,1.8-12.89999,5.39999l-10.20001,10.2,64.20001,44.39999-.00003.00003ZM328.24416,236.7c-4.5-4.5-5.39999-7.5-5.39999-10.5,0-3.29999.89999-6.29999,3.60001-9l73.79999-73.79999-12-12-73.79999,73.5c-2.70001,2.70001-5.70001,3.89999-9,3.89999-3,0-6-.89999-10.79999-5.39999v33.29999h33.60001-.00003Z" /></svg>