<svg xmlns="http://www.w3.org/2000/svg" viewBox="0 0 347.39999 296.10001"><path d="M77.99998,160.5L59.09999,31.5H0V0h347.39999l-24.60001,160.5H77.99998ZM122.09998,178.20001c32.70001,0,58.79999,26.39999,58.79999,59.10001s-26.10001,58.79999-58.79999,58.79999-59.10001-26.39999-59.10001-58.79999,26.39999-59.10001,59.10001-59.10001ZM105.29999,129h190.5l15-97.5H90.89999l14.39999,97.5ZM122.09998,264c15,0,27.60001-12.29999,27.60001-27.60001s-12.60001-27.60001-27.60001-27.60001-27.60001,12.29999-27.60001,27.60001,12.60001,27.60001,27.60001,27.60001ZM274.19998,178.20001c32.39999,0,59.10001,26.39999,59.10001,59.10001s-26.70001,58.79999-59.10001,58.79999-59.10001-26.39999-59.10001-58.79999,26.70001-59.10001,59.10001-59.10001ZM274.19998,264c15.29999,0,27.60001-12.29999,27.60001-27.60001s-12.29999-27.60001-27.60001-27.60001-27.60001,12.29999-27.60001,27.60001,12.29999,27.60001,27.60001,27.60001Z" /></svg>