<svg xmlns="http://www.w3.org/2000/svg" viewBox="0 0 390.30002 296.09998"><path d="M48.59998,124.5c-10.2-12.89999-16.5-29.39999-16.5-47.39999C32.09998,34.20001,66.59998,0,109.49997,0s77.10001,34.2,77.10001,77.10001c0,18-6,34.5-16.5,47.39999,5.39999,3.60001,10.79999,8.10001,15.60001,12.60001h59.10001V39h60.60001c5.10001-17.7,21.60001-30.89999,41.39999-30.89999,24.00003,0,43.50003,19.5,43.50003,43.5s-19.5,43.5-43.5,43.5c-19.5,0-36-13.20001-41.39999-30.60001h-35.39999v72.60001h35.39999c5.10001-18,21.60001-31.20001,41.39999-31.20001,24,0,43.5,19.5,43.5,43.5s-19.5,43.5-43.5,43.5c-19.5,0-36-12.89999-41.39999-30.29999h-35.39999v71.69998h35.39999c5.10001-17.70001,21.60001-30.89999,41.39999-30.89999,24,0,43.5,19.5,43.5,43.5s-19.5,43.5-43.5,43.5c-19.5,0-36-13.20001-41.39999-30.60001h-60.60001v-97.20001h-39.60001c8.70001,15.60001,13.79999,33.89999,13.79999,52.79999v80.70001H0v-80.70001c0-37.5,19.5-71.10001,48.60001-90.89999l-.00003.00003ZM186.59998,263.70001v-48.29999c0-29.10001-17.70001-57-43.79999-69.29999-9.89999,5.39999-21.29999,8.10001-33.29999,8.10001s-23.7-2.70001-33.60001-8.10001c-26.7,13.20001-43.5,39.89999-43.5,69.29999v48.29999h154.20001-.00003ZM109.49997,122.09998c24.29999,0,45-19.5,45-45s-21-45-45-45c-25.2,0-45,20.10001-45,45s21.3,45,45,45ZM346.79996,69.89996c10.20001,0,18.29999-8.39999,18.29999-18.3s-8.09998-18.3-18.29999-18.3-18.29999,8.39999-18.29999,18.3,8.10001,18.3,18.29999,18.3ZM346.79996,167.69995c10.20001,0,18.29999-8.10001,18.29999-18.29999s-8.40002-18.29999-18.29999-18.29999-18.29999,8.39999-18.29999,18.29999,8.10001,18.29999,18.29999,18.29999ZM346.79996,265.19995c10.20001,0,18.29999-8.39999,18.29999-18.29999s-8.09998-18.29999-18.29999-18.29999-18.29999,8.39999-18.29999,18.29999,8.10001,18.29999,18.29999,18.29999Z" /></svg>