<svg xmlns="http://www.w3.org/2000/svg" viewBox="0 0 337.49997 296.10002"><path d="M327.89999,166.20003v58.20001c0,39.60001-34.5,71.69998-77.39999,71.69998H77.10001c-41.7,0-75.60001-30.60001-77.10001-68.70001v-91.5c0-21.29999,14.39999-39.29999,34.2-44.70001v-36.60001c0-25.8,20.39999-46.2,46.8-46.2,12.29999,0,23.10001,4.8,31.20001,12.3C120.90002,7.5,135,0,151.20001,0c14.10001,0,26.39999,6.3,34.5,15.89999,9-10.2,21-15.89999,35.39999-15.89999,18.29999,0,34.20001,10.8,41.39999,26.39999,8.10001-6.60001,18-9.89999,28.79999-9.89999,25.20001,0,46.19998,21,46.19998,46.2v75.60004c0,10.5-3.59998,20.10001-9.60001,27.89999h.00003ZM77.10001,264.60002h173.39999c23.70001,0,46.20001-17.39999,46.20001-40.20001v-41.39999c-2.10001.89999-3.89999,1.20001-6.29999,1.20001-13.79999,0-25.79999-6-34.20001-15.29999-8.39999,9.89999-20.70001,16.5-35.10001,16.5-17.10001,0-31.79999-8.10001-40.5-22.5-8.10001,13.79999-23.10001,22.79999-40.20001,22.79999h-76.2v-31.20001h76.2c8.39999,0,15.60001-6.89999,15.60001-15.60001,0-11.39999-7.20001-17.70001-15.60001-17.70001l-94.2-.60001c-8.7,0-15.3,7.20001-15.3,15.29999v88.5c0,22.79999,22.5,40.20001,46.20001,40.20001v.00003ZM96,89.70003v-35.10001c0-8.39999-6.89999-15-15.89999-15-8.10001,0-14.7,7.2-14.7,15v35.10001h30.59999ZM140.39999,89.70003c9.89999,0,18.60001,3,25.79999,8.10001v-51.60001c0-8.10001-6.89999-15-15.60001-15s-15,7.2-15,15v43.5h4.80002ZM205.5,141.00002c.60001,7.5,7.20001,13.20001,14.70001,13.20001,9.89999,0,15.89999-7.20001,15.89999-14.39999V46.20003c0-8.39999-6.89999-15-15.89999-15-8.10001,0-15,7.2-15,15v80.10001c1.20001,4.79999,1.20001,9.89999.29999,14.70001v-.00003ZM290.39999,153.00002c9.60001,0,15.89999-7.20001,15.89999-14.70001V62.7c0-7.8-6.89999-15-15-15-9.29999,0-15.60001,6.89999-15.60001,14.39999v76.5c0,7.79999,6.89999,14.39999,14.70001,14.39999v.00003Z" /></svg>