<svg xmlns="http://www.w3.org/2000/svg" viewBox="0 0 351.30002 299.39996"><path d="M6.60005,105.29999c6-15.89999,16.8-28.79999,32.09999-36.89999-8.10001-5.7-15.89999-14.7-21.89999-24.89999C8.70004,30.3,3.30005,16.5,1.80005,6L32.70004,0s3,15.60001,12.89999,30.3c9.60001,14.39999,21.60001,22.8,38.39999,26.10001C98.40002,23.40001,130.80002,1.80002,167.10004,1.80002s68.69998,21.3,83.39999,54.60001c16.79999-3.3,28.5-11.7,38.10001-25.8C298.50003,15.90002,301.50003.00002,301.50003.00002l31.20001,6c-1.5,9-5.70001,21.60001-13.20001,34.5-6.60001,11.39999-15,21.3-24,28.2,15.60001,8.10001,27.89999,20.70001,33.89999,36.29999,4.20001,11.10001,4.79999,20.39999,4.79999,39.89999,11.10001,11.10001,17.10001,24.60001,17.10001,39.89999,0,14.10001-5.09998,27.89999-16.5,39.29999l-75.60001,75.29999-27.29999-26.70001c-18.29999,18.29999-41.10001,26.70001-64.80002,26.70001-50.70001,0-90.60001-41.39999-90.60001-90.60001v-61.49997c-8.39999,5.70001-17.39999,9.29999-27.60001,11.70001-13.5,3.29999-27.60001,4.5-48.89999,4.5,0-32.39999,1.2-44.39999,6.60001-58.20001h.00005ZM63.60005,119.39999c5.7-5.70001,9.89999-14.10001,12-29.70001-14.7,1.79999-25.5,5.70001-31.5,11.70001-5.10001,5.10001-9.60001,13.79999-11.7,29.70001,14.7-1.5,25.2-5.70001,31.2-11.70001ZM173.70004,162c3-11.39999,12.29999-21.89999,24.89999-26.70001,9-3.60001,18-4.79999,27.60001-3.29999v-39.60001c0-32.39999-26.39999-59.39999-59.10001-59.39999s-59.10001,27.3-59.10001,59.39999v69.60001h65.70001ZM167.10004,268.20001c16.5,0,31.5-6.89999,42.29999-17.70001l-26.10001-26.39999c-8.70001-9-13.79999-19.20001-15.60001-30.60001h-59.70001v15.29999c0,32.70001,26.70001,59.39999,59.10001,59.39999l.00003.00003ZM122.10004,105.30002c0-9.60001,8.10001-17.70001,17.70001-17.70001s17.70001,8.10001,17.70001,17.70001-7.79999,17.70001-17.70001,17.70001-17.70001-7.79999-17.70001-17.70001ZM139.80005,202.5c9.89999,0,17.70001,8.10001,17.70001,18s-7.79999,17.70001-17.70001,17.70001-17.70001-8.10001-17.70001-17.70001,8.10001-18,17.70001-18ZM197.10004,87.29999c9.89999,0,18,8.10001,18,18s-8.10001,17.70001-18,17.70001-17.70001-7.79999-17.70001-17.70001,8.10001-18,17.70001-18ZM259.20004,255.29999l53.39999-53.39999c10.20001-10.20001,9.29999-25.20001,0-34.20001-9.89999-9.89999-25.20001-8.70001-33.89999,0l-19.5,19.5-19.5-19.5c-9.89999-9.89999-25.20001-9-34.20001,0s-9.29999,24.89999,0,34.20001l53.70001,53.39999ZM270.30005,119.39999c1.5,1.79999,2.39999,2.10001,4.5,3.60001l26.70001,7.79999c-2.39999-18.29999-8.10001-25.79999-11.70001-29.39999-6.60001-6.29999-16.79999-9.89999-31.5-11.70001,2.39999,18.89999,8.10001,25.79999,12,29.70001Z" /></svg>