<svg xmlns="http://www.w3.org/2000/svg" viewBox="0 0 369.30002 292.20003"><path d="M0,.00005h369.30002v127.5l-59.39999.29999v164.39999h-165v-63.60001h-70.5v-103.80002H.00003V0l-.00003.00005ZM74.39999,93.60005V31.50005H31.5v62.10001h42.89999ZM208.19998,197.10005V31.50005h-102.29999v165.60001h102.29999ZM185.69998,130.80006c0,14.39999-9,23.39999-20.39999,26.39999v17.39999h-19.20001v-17.39999c-7.5-1.5-14.39999-5.39999-20.70001-10.79999l9-15c6,5.39999,13.5,9.29999,21,9.29999,6,0,11.10001-3.29999,11.10001-8.39999,0-13.5-36.89999-9.60001-36.89999-37.20001,0-12.29999,7.20001-20.70001,17.39999-24v-18.3h19.5v17.10001c6.29999.89999,12.29999,3.90001,18.60001,8.7l-9.89999,14.39999c-4.5-3.89999-9.89999-6.89999-15.89999-6.89999s-9.60001,3.29999-9.60001,7.5c0,12.60001,36,9,36,37.20001ZM278.39999,260.70006V90.30006h-38.70001v138.29999h-63.29999v32.10001h102ZM309.89999,58.80006v37.5l27.89999-.29999V31.50008h-98.10001v27.3h70.20001v-.00002Z" /></svg>