<svg xmlns="http://www.w3.org/2000/svg" viewBox="0 0 300.59998 300.59999"><path d="M112.79999,4.80002l11.10001,29.7c-54.29999,12.3-92.39999,59.70001-92.39999,115.79999,0,19.5,4.5,38.39999,13.5,55.20001l-29.39999,12C5.40001,197.40001,0,173.10002,0,150.3,0,81.00002,46.2,22.5,112.79999,4.8v.00002ZM27.29999,218.40001l6.89999-4.5-2.10001,9.60001,59.70001-39,8.10001,1.79999-64.8,41.70001,9.60001,2.10001-6.89999,4.5-13.5-3,3-13.20001h-.00002ZM55.79999,222.3c15.89999,22.20001,42.60001,38.10001,68.10001,43.79999l-10.79999,29.70001c-32.10001-8.70001-61.5-27-81-52.5l23.7-21h-.00002ZM128.09998,278.7l-.60001-18.89999,7.79999,6.60001,5.70001,5.39999v-85.5c-34.79999-1.20001-99-10.5-99-36,0-23.70001,57.29999-35.10001,99-36V28.8l-13.5,13.2v-19.2L150.29996,0l22.79999,22.8v19.2l-13.5-13.2v85.5c35.39999,1.20001,99,10.79999,99,36,0,23.70001-56.39999,34.5-99,36v85.5l13.5-13.20001v19.5l-23.10001,22.5-21.89999-21.89999h.00003ZM140.99997,180.59999v-20.70001l-23.39999,15.29999-9-1.20001,32.39999-21v-33c-35.10001.89999-93.3,10.79999-93.3,30.29999s64.2,29.39999,93.3,30.29999v.00006ZM252.89996,150.3c0-20.39999-64.5-29.39999-93.29999-30.29999v21l24-15.60001,8.70001,1.20001-32.70001,21.29999v32.70001c35.39999-.89999,93.29999-11.10001,93.29999-30.29999v-.00003ZM269.09998,150.3c0-56.39999-39-103.8-92.10001-115.8l10.5-29.7c67.80002,18.3,113.10001,77.39999,113.10001,145.5s-46.20001,127.5-113.10001,145.5l-10.79999-29.70001c54-12.29999,92.39999-60,92.39999-115.79999ZM216.29999,104.10002c-.89999-1.79999-1.5-4.20001-1.5-6.29999,0-10.20001,8.10001-17.10001,16.79999-17.10001,9.29999,0,17.10001,7.5,17.10001,16.79999,0,10.20001-8.39999,17.10001-16.79999,17.10001-4.20001,0-9.60001-2.10001-12.60001-5.70001l-10.20001,6.89999-8.39999-1.5,15.60001-10.20001v.00003ZM231.59998,108.90001c7.20001,0,11.39999-6,11.39999-11.39999,0-6.89999-6.29999-11.10001-11.39999-11.10001-6,0-11.10001,5.39999-11.10001,11.10001,0,7.20001,6,11.39999,11.10001,11.39999Z" /></svg>