<svg xmlns="http://www.w3.org/2000/svg" viewBox="0 0 431.40001 292.79999"><path d="M0,0h431.40001l-77.39999,146.39999,77.39999,146.39999H0V0ZM378.90001,261.29999l-60.60001-114.89999,60.60001-114.89999H31.5v229.79999h347.40001ZM170.99998,40.5l134.39999,61.79999v142.20001h-25.20001v-126.29999l-109.19998-50.10001-116.7,53.70001-10.5-22.79999,127.2-58.5v-.00003ZM156.89998,248.10001h-12.89999c-50.7,0-91.8-49.20001-91.8-110.39999,30,0,45.3,3,63.3,14.39999,5.10001-22.79999,16.5-36.60001,34.79999-54.89999,21,20.70001,28.20001,32.39999,34.5,54.89999,16.79999-11.39999,34.20001-14.39999,63-14.39999,0,63.29999-41.70001,110.39999-90.89999,110.39999ZM135.89998,221.39999c-5.70001-29.39999-29.10001-51.60001-56.7-56.70001,5.10001,28.5,28.2,51.29999,56.7,56.70001ZM150.29997,188.39999c3-6.29999,7.20001-12.29999,12-17.70001-.89999-12.89999-5.10001-25.20001-12-35.39999-7.20001,10.20001-11.39999,22.5-12.29999,35.39999,4.79999,5.39999,9,11.39999,12.29999,17.70001ZM221.09996,164.69998c-28.20001,5.10001-51.60001,28.5-56.70001,56.70001,28.79999-5.70001,51-27.89999,56.70001-56.70001Z" /></svg>