<svg xmlns="http://www.w3.org/2000/svg" viewBox="0 0 301.8 292.79999"><path d="M144.60002,132c29.10001-12.89999,45.89999-23.70001,69.60001-40.79999h-126.89999c9.29999,7.20001,23.70001,17.10001,41.39999,26.39999l-31.20001,16.79999C54.60002,111.89999.00002,58.2.00002,0h31.5c0,5.10001.3,10.2,1.2,15h236.09999c.89999-4.8,1.5-9.89999,1.5-15h31.5c0,72.29999-69.29999,126.89999-144.60001,160.79999-24.60001,11.10001-53.70001,27.60001-71.39999,42.29999h129.89999c-9.29999-7.79999-20.39999-15.29999-38.39999-27.29999l30.29999-17.39999c49.79999,29.70001,94.20001,76.80002,94.20001,134.39999h-31.5c0-4.5-.60001-9.29999-1.5-13.5H32.7c-.89999,4.20001-1.2,9-1.2,13.5H0c0-71.39999,66.3-126,144.59999-160.79999h.00003ZM260.10002,253.79999c-3.29999-7.20001-11.70001-19.79999-17.39999-25.5H58.50002c-7.2,8.39999-13.2,17.10001-17.10001,25.5h218.70001ZM59.40004,65.69998h182.39999c7.5-8.10001,13.20001-16.8,17.70001-25.2H42.00005c3.89999,7.8,12.3,19.5,17.39999,25.2Z" /></svg>