<svg xmlns="http://www.w3.org/2000/svg" viewBox="0 0 358.5 300.60004"><path d="M0,167.70001h98.10001v36.60001h57v25.20001h-57v36.29999H0v-98.10001ZM52.2.00002l104.40001,109.49998-22.79999,21.60001L29.40002,21.60001,52.20003,0l-.00003.00002ZM66.59999,234.30002v-35.10001H31.5v35.10001h35.10001-.00002ZM194.09998.90002c9.60001,0,17.70001,7.8,17.70001,17.7s-8.10001,17.7-17.70001,17.7-18-7.8-18-17.7S184.19998.90002,194.09998.90002ZM194.09998,66.60002c9.60001,0,17.70001,8.09999,17.70001,18.00002s-8.10001,17.70001-17.70001,17.70001-18-7.79999-18-17.70001,8.10001-18,18-18v-.00002ZM194.09998,132.90002c9.60001,0,17.70001,8.10001,17.70001,17.70001s-8.10001,18-17.70001,18-18-8.10001-18-18,8.10001-17.70001,18-17.70001ZM194.09998,198.90002c9.60001,0,17.70001,7.79999,17.70001,17.70001s-8.10001,18-17.70001,18-18-8.10001-18-18,8.10001-17.70001,18-17.70001ZM194.09998,265.20001c9.60001,0,17.70001,7.79999,17.70001,17.70001s-8.10001,17.70001-17.70001,17.70001-18-7.79999-18-17.70001,8.10001-17.70001,18-17.70001ZM231.29999,109.5L335.69998,0l22.80002,21.60001-104.39999,109.5-22.79999-21.60001h-.00003ZM300,139.5l9.89999,23.39999-67.19998,28.20001-9.89999-23.10001,67.19998-28.5ZM242.70001,243.29999l67.20001,28.20001-9.89999,23.39999-67.19998-28.5,9.89999-23.10001h-.00003ZM234.90002,204.29999h72.89999v25.20001h-72.89999v-25.20001Z" /></svg>