<svg xmlns="http://www.w3.org/2000/svg" viewBox="0 0 549.30008 299.40004"><path d="M213,116.40001l-37.2-47.10001c-6-7.5-14.39999-11.7-24-11.7h-71.7c-6,15.3-21,26.09999-38.4,26.09999C18.60001,83.7,0,64.8,0,41.7S18.6,0,41.7,0c17.39999,0,32.40001,10.8,38.40001,26.10001h71.7c19.2,0,36.90001,8.7,48.59999,23.39999l37.20001,47.40001c6,7.5,14.70001,11.70001,24,11.70001h26.10001c9.29999,0,18-4.20001,24-11.70001l37.5-47.39999c12-15,29.70001-23.39999,48.29999-23.39999h71.69998C475.49997,10.80002,490.19998.00002,507.89999.00002,530.69998.00002,549.30002,18.90001,549.30002,41.70001s-18.59998,42.00002-41.40002,42.00002c-17.70001,0-32.40002-10.79999-38.70001-26.10001h-71.70001c-9.89999,0-18.29999,4.8-23.70001,11.70001l-37.5,47.10001c-12.29999,15.60001-30.60001,23.70001-48.60001,23.70001h-26.10001c-19.20001,0-36.60001-8.70001-48.60001-23.70001l.00006-.00003ZM41.7,216.00002c17.39999,0,32.40001,10.79999,38.40001,26.10001h71.7c9.60001,0,18-4.20001,24-11.70001l37.2-47.10001c12.60001-15.89999,30.29999-23.70001,48.60001-23.70001h26.10001c19.20001,0,36.60001,8.70001,48.60001,23.70001l37.5,47.10001c5.39999,6.89999,14.10001,11.70001,23.70001,11.70001h71.70001c6.29999-15.29999,21-26.10001,38.70001-26.10001,22.79999,0,41.40002,18.60001,41.40002,41.70001s-18.59998,41.70001-41.40002,41.70001c-17.70001,0-32.40002-10.79999-38.70001-25.79999h-71.70001c-18.60001,0-36.60001-8.70001-48.29999-23.70001l-37.5-47.39999c-6.29999-8.10001-15.89999-11.70001-24-11.70001h-26.10001c-8.70001,0-17.70001,3.89999-24,11.70001l-37.20001,47.39999c-12,15.29999-29.7,23.70001-48.60001,23.70001h-71.7c-6,15-21,25.79999-38.4,25.79999C18.60002,299.40004.00002,280.80003.00002,257.70003s18.6-41.70001,41.7-41.70001h-.00002ZM41.7,58.50002c9,0,16.5-7.5,16.5-16.8s-7.5-16.5-16.5-16.5-16.5,7.5-16.5,16.5,7.5,16.8,16.5,16.8ZM41.7,274.20003c9,0,16.5-7.5,16.5-16.5s-7.5-16.5-16.5-16.5-16.5,7.20001-16.5,16.5,7.5,16.5,16.5,16.5ZM102.89999,82.20003c46.8,0,91.79999,33,91.79999,74.70001,0,36.29999-34.5,60-73.8,60-46.5,0-92.1-33-92.1-74.70001,0-36.89999,35.1-60,74.1-60h.00002ZM120.29999,196.80003c29.39999,0,54.60001-15.60001,54.60001-39.89999,0-30.89999-38.10001-54.89999-72.3-54.89999-28.5,0-54,15.89999-54,40.20001,0,30.89999,37.8,54.60001,71.7,54.60001v-.00003ZM65.09999,136.80003c3.60001,0,6.3,3,6.3,6.29999,0,3.60001-2.7,6.29999-6.3,6.29999-3.3,0-6-2.70001-6-6.29999,0-3.29999,2.7-6.29999,6-6.29999ZM82.49998,118.50005c3.60001,0,6.3,2.70001,6.3,6.29999,0,3.29999-2.7,6-6.3,6-3.3,0-6-2.70001-6-6,0-3.60001,2.7-6.29999,6-6.29999ZM95.09999,140.40004c9,0,16.2,7.20001,16.2,16.20001s-7.2,16.5-16.2,16.5-16.2-7.5-16.2-16.5,7.2-16.20001,16.2-16.20001ZM103.49998,106.20003c18.89999,3,33.59999,14.39999,42.90001,30.60001l-17.7,9c-5.7-10.20001-13.8-17.10001-27-19.79999l1.8-19.79999-.00002-.00003ZM139.49998,149.10002l13.5,14.70001-31.5,28.79999-13.5-14.70001,31.5-28.79999ZM348.29999,137.10002h13.20001c.60001-3,1.5-6,2.39999-8.70001l-11.39999-6.89999,12.29999-21.60001,12,6.89999c1.79999-2.39999,3.60001-4.5,6.29999-6.60001l-6.60001-11.70001,21.60001-12.60001,6.89999,11.70001c2.70001-1.20001,5.70001-2.10001,8.70001-2.39999v-13.5h25.20001v13.5c3,.29999,6,1.20001,8.70001,2.39999l6.90002-11.70001,21.59998,12.60001-6.59998,11.70001c2.70001,2.10001,4.5,3.89999,6.29999,6.60001l11.70001-6.89999,12.59998,21.60001-11.40002,6.89999c.90002,2.70001,1.79999,5.70001,2.40002,8.70001h13.20001v25.19998h-13.20001c-.59998,3.29999-1.5,6-2.40002,9l11.40002,6.60001-12.59998,21.89999-11.70001-6.60001c-2.09998,2.10001-3.90002,4.20001-6.29999,6l6.59998,12-21.59998,12.60001-6.90002-11.70001c-2.70001.89999-5.70001,1.79999-8.70001,2.39999v13.20001h-25.20001v-13.20001c-3-.60001-6-1.5-8.70001-2.39999l-6.89999,11.70001-21.60001-12.60001,6.60001-12c-2.10001-1.5-4.5-3.89999-6.29999-6l-12,6.60001-12.29999-21.89999,11.39999-6.60001c-.89999-3-1.79999-5.70001-2.39999-9h-13.20001v-25.20001.00003ZM426.29999,190.50002c22.19998,0,40.50003-18.60001,40.50003-40.5s-18.29999-40.79999-40.5-40.79999-40.5,18.29999-40.5,40.79999,18.29999,40.5,40.5,40.5h-.00003ZM426.29999,143.70003c3.29999,0,6.29999,2.70001,6.29999,6.29999,0,3.29999-3,6.29999-6.29999,6.29999-3.60001,0-6.29999-3-6.29999-6.29999,0-3.60001,2.70001-6.29999,6.29999-6.29999ZM507.89999,58.50003c8.70001,0,16.20001-7.5,16.20001-16.8s-7.5-16.5-16.20001-16.5c-9.29999,0-16.79999,7.5-16.79999,16.5s7.5,16.8,16.79999,16.8ZM507.89999,274.20003c8.70001,0,16.20001-7.5,16.20001-16.5s-7.5-16.5-16.20001-16.5c-9.29999,0-16.79999,7.20001-16.79999,16.5s7.5,16.5,16.79999,16.5Z" /></svg>