<svg xmlns="http://www.w3.org/2000/svg" viewBox="0 0 700 600"><path d="M138.88 454.46v-72.35c-33.67-10.46-58.24-41.86-58.24-78.71a81.76 81.76 0 0 1 58.24-78.26V117.3l86.91 30.49A141.58 141.58 0 0 1 350 75c52.33 0 98.29 27.3 124.22 72.8l86.45-30.49v107.83a81.63 81.63 0 0 1 58.7 78.26c0 36.85-24.58 68.25-58.7 78.71v72.35L350 529.08Zm58.7-151.06c0-18.66-15.47-34.13-34.58-34.13s-34.58 15.47-34.58 34.13c0 19.11 15.47 34.12 34.58 34.12s34.58-15.01 34.58-34.12Zm128.76-69.62-139.68-49.14v40.5a81.76 81.76 0 0 1 58.24 78.26c0 36.85-24.57 68.25-58.24 78.71v38.68l139.68 49.14Zm101.47-69.61a93.24 93.24 0 0 0-155.61 0l77.8 27.75Zm85.54 256.62v-38.68c-33.67-10.46-58.24-41.86-58.24-78.71a81.76 81.76 0 0 1 58.24-78.26v-40.5l-139.69 49.14v236.15Zm58.24-117.39a34.38 34.38 0 0 0-34.13-34.13c-19.1 0-34.58 15.47-34.58 34.13 0 19.11 15.48 34.12 34.58 34.12a34.08 34.08 0 0 0 34.13-34.12Z"/></svg>