<svg xmlns="http://www.w3.org/2000/svg" viewBox="0 0 306.59999 301.80003"><path d="M69.3,147.90004l5.39999,30.89999-69.3,12.29999-5.39999-30.89999,69.3-12.29999ZM28.8,59.10004l63.89999,36.90001-15.60001,27.29999L12.89999,86.10002l15.89999-27,.00002.00002ZM86.7,204.00002l24,20.10001-43.79999,52.5-24-20.39999,43.79999-52.20001ZM115.8.00002l26.10001,71.39999-29.70001,10.5L86.09999,10.8,115.8,0v.00002ZM91.50002,153.60002c0-34.20001,27.60001-61.79999,61.79999-61.79999s62.10001,27.60001,62.10001,61.79999-27.60001,62.10001-62.10001,62.10001-61.79999-27.89999-61.79999-62.10001ZM153.3,184.20003c16.79999,0,30.60001-13.79999,30.60001-30.60001s-13.79999-30.29999-30.60001-30.29999-30.29999,13.5-30.29999,30.29999,13.5,30.60001,30.29999,30.60001ZM137.7,234.90004h31.5v66.89999h-31.5v-66.89999ZM191.09999.00005l29.39999,10.8-26.10001,71.09999-29.39999-10.5L191.09999.00005ZM220.2,204.00005l43.5,52.20001-24,20.39999-43.79999-52.5,24.29999-20.10001ZM278.09999,59.10005l15.60001,27-63.89999,37.20001-15.89999-27.29999,64.19998-36.89999v-.00003ZM236.99998,147.90004l69.60001,12.29999-5.10001,30.89999-69.89999-12.29999,5.39999-30.89999Z" /></svg>