<svg xmlns="http://www.w3.org/2000/svg" viewBox="0 0 700 600"><path d="M78.14 12.59h19.11v106.47H78.14ZM123.19 362c0-125.58 101.92-227 227-227s227 101.46 227 227a227 227 0 1 1-454.09 0Zm2.27-295.29c0-31.85 23.66-55.06 53.24-55.06 16.38 0 31.39 7.28 42.31 18.66l-12.74 12.77c-9.55-9.1-20-12.29-29.12-12.29-19.56 0-34.15 13.65-34.15 35.95 0 21.84 14.1 35.94 33.67 35.94 11.37 0 22.75-5 30.94-11.83l10.92 12.74c-10.92 10.92-26.39 18.2-42.32 18.2-29.09 0-52.75-23.2-52.75-55.05Zm131 275.73c2.28-61.43 16.38-115.57 37.31-149.24-66.43 22.29-114.2 81-120.57 149.24Zm0 38.67h-83.22c5.46 66 62.33 139.23 120.57 149.24-20.93-33.64-35.03-87.35-37.31-149.21Zm148.79-38.67c-2.25-51.84-20.89-142.39-55.02-155.58-35.94 14.1-53.23 106-55.51 155.61Zm0 38.67H294.72c2.28 49.14 20 142 55.51 156.07 35.49-13.62 52.77-106.9 55.06-156.04Zm121.94-38.67c-8.19-75.5-52.29-120.55-120.54-149.21 20.48 34.12 35 87.81 36.86 149.24Zm0 38.67h-83.68c-1.82 61.88-16.38 116-36.86 149.24 60.97-12.71 112.84-81.41 120.58-149.21Z"/></svg>