<svg xmlns="http://www.w3.org/2000/svg" viewBox="0 0 370.69984 292.79999"><path d="M99.79984,273C33.79984,270-4.90015,212.39999.49984,146.70001l.89999-9.89999,9-3.60001c23.39999-9.60001,44.7-13.5,63.90001-12.60001,26.39999,1.20001,50.10001,12,66.89999,31.5v-35.10001c-30-6.89999-51.60001-34.20001-51.60001-65.39999V0h31.5v51.60001c0,19.79999,15.89999,36,36,36s35.70001-16.20001,35.70001-36V0h31.5v51.60001c0,31.79999-22.5,58.79999-51.60001,65.39999v175.79999h-31.5v-25.20001c-13.79999,3.89999-26.10001,5.39999-41.39999,5.39999v.00003ZM100.69984,241.5c7.79999.29999,15.89999-.60001,24.29999-2.39999l-47.10001-33,14.70001-20.70001,47.10001,33c-10.5-58.79999-52.2-78-107.39999-60,.3,46.20001,24,81.30002,68.39999,83.10001ZM144.19984,0h25.20001v56.10001h-25.20001V0ZM262.09983,0h54c30.29999,0,54.60001,22.5,54.60001,52.5v97.5c0,30-24.60001,54.60001-54.60001,54.60001h-22.5v88.19998h-31.5V0ZM316.09983,173.10001c12.89999,0,23.10001-10.20001,23.10001-23.10001V52.5c0-13.8-11.39999-21-23.10001-21h-22.5v141.60001h22.5Z" /></svg>