<svg xmlns="http://www.w3.org/2000/svg" viewBox="0 0 700 600"><path d="m117.27 374.32 105.11-18.66 8.62 46.87-105.54 18.65Zm19.56-112.39L161 221l97.37 56-23.66 41.4Zm45.5 258 66.89-79.17 36.4 30.48-66.43 79.63Zm66-372.19 45.05-16.38 39.58 108.29-45 15.92Zm7.74 216.58a94 94 0 1 1 93.73 94.18c-51.44-.01-93.75-42.32-93.75-94.19Zm140.14 0a46.19 46.19 0 0 0-92.37 0c0 25.48 20.48 46.41 46 46.41a46.32 46.32 0 0 0 46.35-46.42Zm-70.07 123.3h47.77v101.46h-47.79Zm41.4-248 39.59-108.29 45 16.38-39.56 107.85Zm46.87 231.59 36.85-30.48 66 79.17-36.4 30.94ZM441.69 277l97.37-56 23.66 41-96.92 56.35Zm26.84 125.58 8.19-46.87 106 18.66-8.19 46.86Z"/></svg>