<svg xmlns="http://www.w3.org/2000/svg" viewBox="0 0 299.70003 299.39999"><path d="M112.8,289.5l-63-37.20001C17.7,225.59998,0,186.59998,0,147v-48.89999l63.00002-11.10001c9.60001-1.79999,20.39999-6,28.5-10.79999,36-21.3,80.70001-21.3,116.70001,0,8.70001,5.10001,19.79999,9.29999,28.79999,10.79999l62.70001,11.10001v48.89999c0,40.5-18.60001,79.79999-49.79999,105.29999l-63,37.20001c-11.70001,6.89999-24.29999,9.89999-36.89999,9.89999s-25.5-3-37.20001-9.89999h-.00003ZM68.7,227.10001l60.29999,35.39999c12.89999,7.5,29.39999,7.5,42,0l60-35.39999c23.70001-19.79999,37.5-49.5,37.5-80.10001v-22.79999l-36.89999-6.29999c-14.10001-2.39999-26.70001-7.20001-39.29999-14.70001-26.10001-15.60001-58.79999-15.29999-84.89999,0-12.29999,7.20001-24,12-39.29999,14.70001l-36.60001,6.29999v22.79999c0,30.29999,13.8,60.89999,37.20001,80.10001h-.00003ZM80.40001,0c9.89999,0,17.70001,7.8,17.70001,17.7s-7.79999,17.7-17.70001,17.7-18-7.8-18-17.7S70.50002,0,80.40001,0ZM71.40001,135.89999l69.30002,14.39999c6.29999,1.20001,12.29999,1.20001,18.29999,0l69.29999-14.39999,5.10001,24.60001-69.30002,14.39999c-4.79999.89999-8.39999,1.5-14.10001,1.5s-9.60001-.60001-14.39999-1.5l-69.29999-14.39999,5.10001-24.60001ZM93.00002,195l50.70001,10.5c4.20001.89999,7.5.89999,12.29999,0l50.70001-10.5,5.39999,24.89999-51,10.20001c-4.5.89999-7.79999,1.20001-11.10001,1.20001-3.60001,0-6.89999-.29999-11.39999-1.20001l-50.70001-10.20001,5.10001-24.89999ZM219.3,0c9.89999,0,18,7.8,18,17.7s-8.10001,17.7-18,17.7-17.70001-7.8-17.70001-17.7S209.7,0,219.3,0Z" /></svg>