<svg xmlns="http://www.w3.org/2000/svg" viewBox="0 0 296.70001 303.60001"><path d="M40.20001,238.5c0-4.20001.3-8.10001,1.2-12C17.40001,218.10001,0,195.29999,0,168.60001c0-12.60001,3.89999-24.60001,10.5-34.5-3.3-7.79999-5.10001-15.89999-5.10001-24.60001,0-24.29999,14.10001-45.60001,35.39999-55.8C44.69998,23.09999,70.79999,0,102,0c18.89999,0,35.39999,8.7,46.5,21.60001C159.29999,8.70001,175.79999,0,194.70001,0c31.20001,0,57.29999,23.39999,61.5,53.7,21,10.2,35.10001,31.50002,35.10001,55.8,0,8.70001-1.79999,16.79999-5.39999,24.60001,7.20001,9.89999,10.79999,21.89999,10.79999,34.5,0,26.70001-17.39999,49.79999-41.39999,57.89999.89999,3.89999,1.20001,7.79999,1.20001,12,0,34.20001-27.89999,65.10001-61.79999,65.10001-18.89999,0-35.39999-11.70001-46.20001-24.89999-11.10001,13.20001-27.60001,21.89999-46.5,21.89999-34.20001,0-61.8-27.89999-61.8-62.10001h-.00002ZM62.10001,198.89999c13.20001,0,19.79999,15,13.79999,24-3,4.5-4.20001,10.20001-4.20001,15.60001,0,16.79999,13.5,30.60001,30.29999,30.60001s30.60001-13.79999,30.60001-30.60001v-76.79999l-6.89999.29999c-.60001,8.10001-8.39999,16.5-18.60001,17.70001l-.60001,31.20001c9.89999,1.5,17.39999,9.89999,17.39999,20.10001s-9,20.10001-20.39999,20.10001c-12,0-20.10001-10.5-20.10001-20.10001,0-5.70001,2.10001-11.10001,6-14.39999l-21.60001-29.39999c-2.10001,1.20001-5.70001,2.10001-9.60001,2.10001-11.10001,0-20.10001-9-20.10001-20.10001s9.60001-20.70001,21.89999-20.10001l3-12.29999c-6.29999-3.29999-12.60001-9.89999-12.60001-18.89999,0-11.70001,10.20001-20.10001,20.10001-20.10001,12,0,20.10001,10.5,20.10001,20.10001,0,5.39999-2.70001,10.79999-5.10001,13.79999l9,11.10001c2.10001-1.5,4.20001-2.10001,6-2.70001l-2.70001-44.70001c-12.29999-1.5-18.60001-11.10001-18.60001-20.10001,0-11.10001,9-20.10001,20.10001-20.10001s19.20001,9,19.79999,18.29999l13.5,1.20001v-12.89999c0-16.8-13.79999-30.3-30.60001-30.3s-30.29999,13.2-30.29999,32.40001c0,7.5-4.5,14.39999-12,16.20001-13.5,3.29999-22.8,15.60001-22.8,29.39999,0,6.29999,1.8,12.29999,5.39999,17.39999,4.5,6.60001,2.7,15.29999-1.8,19.79999-5.7,6-9,13.5-9,21.89999,0,16.79999,13.8,30.29999,30.60001,30.29999h.00009ZM58.20001,183.60001c8.39999,0,14.70001-6.29999,14.70001-14.39999s-6.29999-14.39999-14.70001-14.39999c-7.8,0-14.39999,6.60001-14.39999,14.39999s6.60001,14.39999,14.39999,14.39999ZM70.5,132.30002c8.10001,0,14.39999-6.29999,14.39999-14.39999s-6.60001-14.39999-14.39999-14.39999-14.39999,6.60001-14.39999,14.39999,6,14.39999,14.39999,14.39999ZM77.39999,162.30002l8.10001-1.5c0-6.60001,1.20001-9.89999,4.79999-14.10001l-9.29999-11.39999c-3.89999,2.39999-7.79999,3.29999-12.29999,2.70001l-3,12.60001c5.39999,1.79999,9.60001,6.29999,11.70001,11.70001l-.00003-.00003ZM94.19998,213.00003c1.79999-1.20001,4.20001-1.79999,6.60001-2.10001l.60001-31.5c-8.10001-3-12-7.20001-14.70001-13.20001l-8.10001,1.79999v1.20001c0,5.70001-2.39999,10.5-6,14.39999l21.60001,29.39999v.00003ZM99.29999,90.00003c8.10001,0,14.70001-6.89999,14.70001-14.70001,0-8.7-7.20001-14.39999-14.70001-14.39999s-14.39999,6.3-14.39999,14.39999,5.39999,14.70001,14.39999,14.70001ZM103.5,245.40002c8.10001,0,14.70001-6.60001,14.70001-14.39999s-6.89999-14.70001-14.70001-14.70001-14.39999,6.60001-14.39999,14.70001,6.29999,14.39999,14.39999,14.39999ZM105.89999,174.30002c7.20001,0,14.39999-6.29999,14.39999-14.70001,0-7.5-5.70001-14.39999-13.79999-14.39999-9.60001,0-15.29999,7.20001-15.29999,14.39999,0,7.79999,6.89999,14.70001,14.70001,14.70001h-.00003ZM106.19998,139.50003c9.89999,0,18.89999,9.60001,19.5,16.79999l6.89999-.29999v-75.60001l-13.5-1.20001c-.60001,6.60001-8.39999,15-15.60001,15.89999l2.70001,44.39999v.00003ZM194.69998,269.10004c16.79999,0,30.29999-13.79999,30.29999-30.60001,0-11.70001-6.60001-22.20001-16.79999-27.29999l14.10001-28.20001c7.5,3.60001,13.79999,8.70001,19.20001,15,13.5-3,23.70001-15,23.70001-29.39999,0-8.39999-3.29999-15.89999-8.70001-21.89999-5.70001-5.10001-6.60001-13.5-2.10001-19.79999,3.60001-5.10001,5.39999-11.10001,5.39999-17.39999,0-8.39999-3.60001-16.20001-9.60001-20.70001-5.10001,11.39999-15.60001,22.79999-27.89999,28.79999l-14.10001-28.20001c10.20001-5.39999,16.79999-15.60001,16.79999-27.60001,0-16.8-13.5-30.3-30.29999-30.3s-30.60001,13.5-30.60001,30.3v176.69998c0,16.79999,13.79999,30.60001,30.60001,30.60001v.00003Z" /></svg>