<svg xmlns="http://www.w3.org/2000/svg" viewBox="0 0 282.60002 296.10002"><path d="M11.10001,2.40001l41.7,20.39999-11.10001,22.5L0,25.2,11.10001,2.39999v.00002ZM41.7,129.3l11.10001,22.79999-41.7,20.10001L0,149.7l41.7-20.39999ZM53.99998,87.3C53.99998,39,92.7,0,140.69997,0s87.89999,39,87.89999,87.3-29.39999,50.39999-29.39999,96.89999v16.79999h-115.79996v-16.79999c0-45.60001-29.39999-51.29999-29.39999-96.89999h-.00003ZM83.7,217.50002h114.89999v31.5h-114.89999v-31.5ZM83.7,264.60002h114.89999v31.5h-114.89999v-31.5ZM113.40001,159.60002v9.89999h55.79999v-11.70001c0-30,27.89999-39.60001,27.89999-70.5s-24.89999-56.10001-56.10001-56.10001h-.29999c-31.5.60001-55.20001,26.10001-55.20001,56.10001s27.89999,43.20001,27.89999,72.29999l.00003.00003ZM271.50002,2.40002l11.10001,22.8-41.70001,20.10001-11.10001-22.5,41.70001-20.39999v-.00002ZM240.90001,129.3l41.70001,20.39999-11.10001,22.5-41.70001-20.10001,11.10001-22.79999Z" /></svg>