<svg xmlns="http://www.w3.org/2000/svg" viewBox="0 0 336.93921 292.80002"><path d="M306.30002,36.30003l29.09998,112.49998c7.79999,30.29999-15,60.89999-46.79999,60.89999h-96.60001v35.39999c0,26.10001-21.60001,47.70001-47.70001,47.70001h-54.89999v-88.20001H0V24.3h96C104.10001,9.60001,119.70001,0,137.70001,0h121.5c22.20001,0,41.39999,14.7,47.10001,36.3v.00003ZM89.40002,172.50003V56.40002h-57.3v116.10001h57.3ZM144.30002,260.40002c8.39999,0,15.29999-6.89999,15.29999-15.29999v-67.80002h129c10.5,0,18.29999-9.89999,15.60001-20.39999l-29.10001-112.5c-2.10001-7.8-9.29999-12-15.89999-12h-121.5c-8.39999,0-15.60001,6.60001-16.20001,14.7v213.3h22.80002Z" /></svg>