<svg xmlns="http://www.w3.org/2000/svg" viewBox="0 0 315.29999 299.39999"><path d="M72.89999,266.99997l-28.5,29.10001H0l50.39999-51c-21.89999-27.29999-34.2-60.89999-34.2-95.69998C16.2,67.5,83.39999,0,165.29999,0s150,66.60001,150,149.39999-66.89999,150-149.70001,150c-34.5,0-67.5-12-92.70001-32.39999l.00003-.00003ZM58.79999,199.49997c4.79999-6.89999,9.29999-15.89999,9.29999-24.29999,0-11.39999-9.60001-22.20001-20.39999-28.20001-.60001,18.29999,3,35.70001,11.10001,52.5ZM93.29999,174.59998c0,16.79999-9.60001,36-20.39999,48.29999,3.60001,4.5,7.20001,8.39999,11.39999,12.60001,19.79999-11.70001,38.70001-16.5,56.10001-16.5,30,0,60.29999,14.10001,81.89999,34.5,3.60001-2.39999,8.10001-5.10001,11.39999-7.5-8.10001-21.29999-9.60001-42-1.5-60.29999,9.89999-22.20001,28.5-33.60001,51.60001-40.5-.29999-6.89999-1.20001-13.5-2.70001-20.10001-24.89999-2.39999-47.70001-13.5-60.89999-29.10001-16.20001-18.89999-20.39999-42.3-20.70001-59.39999-7.5-2.39999-15.89999-3.89999-24-4.5-8.70001,36-30.89999,56.70001-66.89999,58.79999-16.5,0-27.60001-1.5-42-5.70001-6,9.60001-12.3,23.10001-15,34.79999,24,12,41.70001,30.60001,41.70001,54.60001v.00003ZM81.29999,116.99997c4.20001,0,7.5,3.29999,7.5,7.5s-3.29999,7.5-7.5,7.5-7.5-3.29999-7.5-7.5,3.29999-7.5,7.5-7.5ZM92.09998,95.99997c4.20001,0,7.5,3.29999,7.5,7.5s-3.29999,7.5-7.5,7.5c-3.89999,0-7.5-3.29999-7.5-7.5s3.60001-7.5,7.5-7.5ZM123.29999,61.49997c12.60001-4.2,21.29999-13.8,25.79999-28.5-23.39999,2.7-47.39999,14.10001-64.20001,30.60001,12.60001,2.7,28.5,2.7,38.39999-2.10001h.00003ZM138.29999,114.59998c22.5,0,40.79999,18.60001,40.79999,41.10001s-18.29999,40.79999-40.79999,40.79999-40.79999-18.29999-40.79999-40.79999,18.29999-41.10001,40.79999-41.10001ZM195,263.69998c-27.29999-20.39999-57.60001-25.79999-87.89999-11.39999,26.10001,15,59.10001,19.20001,87.89999,11.39999ZM153.29999,93.59998c.29999.29999,9.89999,1.20001,21,7.79999,13.20001,7.79999,24.89999,21,31.20001,40.20001l-12.89999,4.20001c-4.79999-14.39999-12.29999-24.89999-24.60001-32.39999-8.70001-5.39999-16.20001-6.29999-16.20001-6.29999l1.5-13.5v-.00003ZM170.69998,198.59998l18.29999,3.60001c3.60001.60001,6,4.20001,5.10001,8.10001-.60001,3-3.29999,5.70001-6.60001,5.39999l-19.5-3.89999c-4.20001-.89999-6-5.39999-5.39999-8.10001.60001-3,4.20001-6,8.10001-5.10001ZM171.59998,76.79996c1.5.89999,36.60001,16.20001,50.10001,42.89999l-12,6.29999c-11.39999-22.5-43.20001-36.60001-43.5-36.60001l5.39999-12.60001v.00003ZM200.09998,173.69995l20.70001-14.70001c2.39999-1.79999,7.20001-1.79999,9.29999,1.79999,3,3.60001.89999,7.79999-1.5,9.29999l-20.70001,14.39999c-3.60001,3-7.5.89999-9.29999-1.5-2.10001-2.70001-1.5-7.20001,1.5-9.29999v.00003ZM239.69998,80.09995c7.5,8.39999,18.29999,14.10001,31.79999,17.70001-8.70001-19.5-27-38.7-45.60001-49.5,1.20001,10.8,5.39999,22.79999,13.79999,31.79999h.00003ZM281.09998,173.09995c-10.79999,3.60001-22.20001,12-26.10001,24-3.89999,9-3.29999,21-.60001,30,13.5-14.70001,24.29999-37.20001,26.70001-54Z" /></svg>