<svg xmlns="http://www.w3.org/2000/svg" viewBox="0 0 300.30002 299.39998"><path d="M300.29999,189.29997l-44.39999,21.60001,3.60001,49.20001-25.5,2.10001-3-47.70001-65.39999-37.20001v75l39.60001,26.10001-14.10001,21-41.10001-27.29999-40.79999,27.29999-14.10001-21,39.29999-26.10001v-75l-65.10001,37.20001-3.29999,47.70001-25.2-2.10001,3.3-49.20001L0,189.29997l11.10001-22.79999,42.60001,20.70001,64.80002-37.20001-64.8-37.79999-42.59999,21L.00003,110.40001l44.10001-21.60001-3.3-49.5,25.2-1.5,3.29999,47.39999,65.10001,37.20001V47.40001l-39.29999-26.10001L109.20004,0l40.79999,27.60001L191.10004,0l14.10001,21.3-39.60001,26.10001v75l65.39999-37.20001,3-47.39999,25.5,1.5-3.60001,49.5,44.39999,21.60001-11.10001,22.79999-42.60001-21-65.10001,37.79999,65.10001,37.20001,42.60001-20.70001,11.10001,22.79999h-.00003Z" /></svg>