<svg xmlns="http://www.w3.org/2000/svg" viewBox="0 0 700 600"><path d="M460.34 441.94v83.27L337.49 446h-61C174.6 446 91.33 362.77 91.33 261.3c0-101.92 83.27-185.18 185.19-185.18h147c101.92 0 185.19 83.26 185.19 185.18-.04 89.18-63.71 163.8-148.37 180.64Zm-36.86-318h-147c-74.62 0-137.41 61.88-137.41 137.41 0 54.6 34.12 105.11 84.17 126 29.12 11.83 40 10.92 128.31 10.92l61 39.58v-34.59l38.68-7.73c65.06-13.2 109.65-71 109.65-134.23.01-76.89-63.23-137.41-137.4-137.41Zm-22.75 175.58-53.23-13.19-76.44 77.8-27.3-26.84 76-76.9-13.65-55 47.78-47.78 40.47 5.39-5 37.77-21.84-3.19-19.11 19.11L356.6 249l32.3 8.19 19.1-18.64-3.18-21.84 37.76-5.46 5.92 40.5Z"/></svg>