<svg xmlns="http://www.w3.org/2000/svg" viewBox="0 0 422.69998 299.40002"><path d="M30,99.60001l1.5-45.3,36.89999-23.7,17.10001,26.39999-23.10001,15-1.8,46.79999-45.59999,24.60001L0,115.79999l30-16.20001v.00003ZM68.39999,138.30002l10.2-30.60001,30,9.89999-14.7,43.5-58.8,27-13.2-28.5,46.5-21.29999ZM146.69998.00002C167.69998.00002,187.79999,8.10002,202.49997,22.80002l-22.20001,22.2c-9-9.3-21.29999-13.8-33.29999-13.8s-24.29999,4.5-33.60001,13.8l-22.2-22.2C106.19997,8.10002,125.69998.00002,146.69998.00002ZM154.79999,246.30002v-18.29999h-29.10001c-15.3,0-26.39999-11.10001-26.39999-27.89999,0-30.60001,48.60001-63.89999,78.30002-63.89999,9.29999,0,23.39999,12.29999,30.29999,12.29999s22.5-12.60001,34.79999-12.60001c28.5,0,74.39999,37.20001,74.39999,64.5,0,17.10001-12,27.60001-26.70001,27.60001h-28.79999v18.29999c0,29.39999-24.29999,53.10001-53.70001,53.10001s-53.10001-23.70001-53.10001-53.10001h.00003ZM136.79999,196.50003h144c1.5,0,2.10001-.89999,2.10001-2.10001,0-5.39999-26.10001-27-39.60001-27-7.20001,0-14.39999,12.60001-35.39999,12.60001-19.5,0-28.20001-12.60001-34.79999-12.60001-15.29999,0-39.89999,18.60001-39.89999,27.29999,0,1.20001,1.20001,1.79999,3.60001,1.79999l-.00003.00003ZM153.89999,78.30002c9.89999,0,18,7.79999,18,17.70001s-8.10001,17.70001-18,17.70001-17.70001-7.79999-17.70001-17.70001,7.79999-17.70001,17.70001-17.70001ZM207.89999,268.20001c12.29999,0,22.20001-9.89999,22.20001-21.89999v-18.29999h-44.10001v18.29999c0,12,9.89999,21.89999,21.89999,21.89999ZM269.10001,0c21,0,41.10001,8.10001,55.79999,22.8l-22.20001,22.2c-9-9-20.70001-13.8-33.60001-13.8s-24,4.8-33.29999,13.8l-22.20001-22.2C228.59998,8.10001,248.39996,0,269.09998,0h.00003ZM262.20001,78.30002c9.89999,0,18,7.79999,18,17.70001s-8.10001,17.70001-18,17.70001-17.70001-7.79999-17.70001-17.70001,7.79999-17.70001,17.70001-17.70001ZM344.10001,107.70001l9.89999,30.60001,46.50003,21.29999-13.20001,28.5-58.79999-27-14.39999-43.5,30-9.89999h-.00003ZM354,30.60001l36.89999,23.7,1.5,45.3,30.29999,16.20001-15,27.60001-45.89999-24.60001-1.79999-46.79999-22.79999-15,16.79999-26.39999v-.00003Z" /></svg>