<svg xmlns="http://www.w3.org/2000/svg" viewBox="0 0 493.67998 454.27946"><path d="M342.62001.00035C425.42998.00035,493.67998,67.34034,493.67998,150.60035c-.05457,40.1543-16.10034,78.63321-44.59003,106.92999l-192.00995,192.47c-6.82001,6.37-16.82999,5-21.38,0C45.5,259.79033,39.12999,253.42033,41.41,255.24034,14.92081,227.18187.11368,190.08717,0,151.50035,0,66.87034,69.16.00035,151.07001.00035c34.82021.08025,68.55479,12.12655,95.55,34.12C273.70915,11.98356,307.6364-.07474,342.62001.00035ZM150.62001,47.77035c-57.11725.06452-103.36763,46.41951-103.30312,103.53676.00027.23108.0013.46216.00311.69324.46001,30.94,9.10001,50.5,43.23,86,23.66,25,69.16,68.70999,150.61002,150.60999,1.82001,1.82001,7.73001,1.82001,9.54999,0,70.53-71,118.29999-116.48001,151.52002-151.06,34.58002-35.95001,43.67999-56,43.67999-86.91,0-58.24001-47.78-103.28-103.73999-103.28-38.67999,0-56.41998,16.38-95.54999,48.67999-40.04001-32.81-58.23999-48.28-96.01001-48.28l.00998.01003ZM169.73003,198.83037h57.79001v-58.7h38.22v58.68999h58.69v38.17999h-58.70001v57.79001h-38.22v-57.79001h-57.79001l.01001-38.16998Z" /></svg>