<svg xmlns="http://www.w3.org/2000/svg" viewBox="0 0 455 454.99995"><path d="M455,227.49998c0,125.57999-101.91998,227.49997-227.5,227.49997S0,353.07997,0,227.49995,101.92,0,227.5,0s227.5,101.92,227.5,227.49998ZM227.5,47.77c-99.64,0-179.72,82.35999-179.72,179.72999,0,100.55002,82.35001,180.17999,179.72,180.17999,99.20691.05566,179.67511-80.32227,179.73077-179.52917.00012-.21692-.00012-.43387-.00079-.65082,0-98.73999-80.54001-179.73-179.72998-179.72999ZM251.62,203.84001v-81h-47.78v81h-81.44v47.76999h81.44v81.45001h47.78v-81.45001h81.44v-47.76999h-81.44Z" /></svg>