<svg xmlns="http://www.w3.org/2000/svg" viewBox="0 0 700 600"><path d="M55.39 80h589.23v444.07H55.39Zm541.45 396.3V127.77H103.16V476.3ZM130 242.88c0-46.86 48.23-78.71 100.1-78.71 52.78 0 100.56 32.76 100.56 78.71 0 46.87-48.69 79.17-100.56 79.17-52.77 0-100.1-32.76-100.1-79.17Zm21.84 136.5c0-14.56 12.74-26.84 27.3-26.84a27.07 27.07 0 0 1 0 54.14c-14.55 0-27.29-12.28-27.29-27.3ZM292 242.88c0-23.2-30.94-40.49-61.88-40.49-31.85 0-61.88 17.29-61.88 40.49 0 24.12 30.94 40.95 61.88 40.95 32.29 0 61.88-17.74 61.88-40.95Zm-37.78 174.27a27 27 0 0 1 26.85-27.3 27.38 27.38 0 0 1 27.3 27.3 27 27 0 0 1-27.3 26.85 26.61 26.61 0 0 1-26.85-26.85Zm93.78-67.8c0-57.33 49.59-100.1 108.74-100.1 60.06 0 108.75 44.59 108.75 100.1 0 56.42-50.51 100.56-108.75 100.56C398 449.91 348 407.14 348 349.35Zm32.3-166.53a27.08 27.08 0 0 1 54.15 0c0 15-12.29 27.3-26.85 27.3a27.37 27.37 0 0 1-27.34-27.3Zm147 166.53c0-34.12-31.85-61.88-70.53-61.88s-70.53 27.76-70.53 61.88 31.76 62.34 70.46 62.34 70.53-28.21 70.53-62.34Z"/></svg>