<svg xmlns="http://www.w3.org/2000/svg" viewBox="0 0 410.40002 292.80005"><path d="M.00002,146.39999L84.60001,0h168.89999l79.20001,137.10001h50.70001l-25.5-44.10001,16.5-9.29999,36,62.70001-36,62.70001-16.5-9.29999,25.5-43.79999h-50.70001l-79.20001,136.79999H84.60001L0,146.40005l.00002-.00006ZM90.30002,239.70001c3-13.5,9-27.29999,15.89999-39.29999,13.5-23.39999,33-43.79999,57.89999-61.79999,14.10001-10.20001,26.70001-21.89999,36.89999-34.20001h-63c1.20001,1.5,1.79999,3,3.89999,5.10001,4.5,4.79999,6.89999,7.20001,11.39999,11.70001l-12.89999,13.5c-2.39999-2.39999-9-9-12.29999-12.60001-18.89999-21-31.8-44.70001-37.8-69l-54,93.29999,54,93.29999h.00002ZM108.60001,50.10001h121.80002c1.79999-5.7,3-12.3,3.60001-18.60001H105.00003c.60001,8.10001,1.20001,11.7,3.60001,18.60001h-.00003ZM234,261.29999c-1.20001-9.29999-2.10001-12.60001-3.89999-18.60001h-121.79999c-1.79999,6-3,12.60001-3.3,18.60001h128.99998ZM221.39999,223.79999c-2.39999-5.39999-5.39999-11.10001-8.10001-16.5h-89.09998c-.60001.89999-1.20001,1.79999-1.5,2.70001-3,4.5-5.39999,9.29999-7.20001,13.79999h105.89999ZM125.39999,85.5h89.10001c3.89999-5.39999,6.29999-10.5,9-16.5h-105.89999c2.39999,6,4.5,11.10001,7.79999,16.5ZM201,188.39999l-4.20001-5.10001c-3.29999-3.89999-7.5-8.10001-11.39999-11.39999l12.89999-13.79999c3.60001,3.29999,9,8.70001,12.60001,12.60001,18.60001,20.70001,31.20001,44.10001,37.5,68.39999l53.70001-92.69998-53.70001-92.7c-3.89999,15.3-9,27.3-15.89999,38.7-14.10001,23.70001-33,44.10001-57.89999,61.79999-13.79999,9.89999-26.70001,21.89999-36.60001,34.20001h63v-.00003Z" /></svg>