<svg xmlns="http://www.w3.org/2000/svg" viewBox="0 0 376.50002 299.40001"><path d="M376.50002,149.70003c0,82.80002-67.20001,149.69998-149.70001,149.69998-13.20001,0-26.10001-1.79999-38.39999-5.10001-12.29999,3.29999-25.20001,5.10001-38.70001,5.10001C67.2,299.40001,0,232.50002,0,149.7S67.2,0,149.7,0c13.5,0,26.39999,1.8,38.70001,5.10001,12.29999-3.3,25.20001-5.10001,38.39999-5.10001,82.5,0,149.70001,66.90001,149.70001,149.7v.00003ZM149.70003,268.20003c65.10001,0,118.5-52.20001,118.5-118.5S214.50002,31.20003,149.70003,31.20003,31.50003,84.90004,31.50003,149.70003s53.09999,118.5,118.2,118.5ZM101.70003,102.00005c9.89999,0,17.70001,7.79999,17.70001,17.70001s-7.79999,17.70001-17.70001,17.70001-18-7.79999-18-17.70001,8.10001-17.70001,18-17.70001ZM87.90002,170.70006h123.90001v25.5h-123.89999v-25.5h-.00002ZM196.80003,102.00005c9.89999,0,17.70001,7.79999,17.70001,17.70001s-7.79999,17.70001-17.70001,17.70001-18-7.79999-18-17.70001,8.10001-17.70001,18-17.70001ZM269.40004,258.60005c43.20001-16.5,75.89999-58.79999,75.89999-108.89999s-35.10001-98.10001-84-111.89999c-4.20001-1.2-12-3.3-18.89999-3.89999,34.79999,26.10001,57,68.39999,57,115.79999s-22.20001,89.70001-57,116.10001c9.29999-1.20001,18-3.60001,27-7.20001Z" /></svg>