<svg xmlns="http://www.w3.org/2000/svg" viewBox="0 0 293.34254 296.70004"><path d="M24.90001,177.60004l21.89999,22.20001-24.60001,24.60001L0,201.90005l24.89999-24.29999.00002-.00003ZM53.7,221.40002l22.20001,22.20001-53.10001,53.10001L.60001,274.50003l53.09999-53.10001ZM142.8,250.20001c-37.79999,0-108.3-73.20001-98.7-107.10001,1.5-5.10001,4.2-11.39999,6.60001-17.39999l-27-27c-8.10001-7.5-2.39999-21.60001,8.7-21.60001h47.39999c1.79999-2.39999,11.10001-13.5,16.79999-19.2C132.3,22.20001,178.49998,0,217.8,0c21.60001,0,41.10001,6.60001,54.89999,20.39999,38.39999,38.7,21.60001,117.89999-36.89999,176.10001-.60001.29999-10.5,10.5-15.89999,14.39999v49.20001c0,11.39999-13.5,17.10001-21.60001,9.29999l-27.60001-27.60001c-9.60001,3.89999-21.29999,8.39999-27.89999,8.39999v.00003ZM63.00002,102.30002c.29999-.60001.60001-1.20001.89999-1.5h-2.10001l1.20001,1.5ZM97.8,249.60004l21.89999,22.5-24.60001,24.60001-22.20001-22.5,24.89999-24.60001h.00003ZM142.2,218.40002c21.60001-5.70001,48.89999-23.70001,66.89999-40.20001,17.39999-16.20001,32.10001-35.10001,39.29999-52.79999-25.5-10.5-69-54-80.39999-80.7-20.10001,9.89999-41.10001,26.09999-56.39999,43.2-16.5,18.89999-29.70001,40.20001-36.60001,62.10001,5.10001,24,45,63.29999,67.19998,68.39999h.00003ZM133.49998,104.40002c15.89999-15.60001,40.79999-15,55.79999,0,15.29999,15.29999,14.70001,40.5,0,55.20001-15.60001,15.60001-39.89999,15.89999-55.79999.29999-15.29999-15.60001-15.29999-40.20001,0-55.5ZM170.99998,141.90002c5.70001-5.39999,6-14.10001,0-19.79999-5.10001-5.10001-13.79999-5.39999-19.5,0-5.39999,5.39999-5.39999,14.39999,0,19.79999,4.79999,4.79999,13.20001,6.29999,19.5,0ZM218.99998,72.00003c11.10001,11.39999,24.89999,22.5,38.70001,29.70001,3.60001-10.20001,5.10001-22.5,3.29999-34.8-1.20001-8.7-4.20001-17.7-10.5-24-6.89999-6.89999-15.60001-10.2-26.70001-11.10001-10.5-.89999-21.89999.89999-32.10001,3.60001,2.10001,4.2,12.89999,21.60001,27.29999,36.59999h.00003ZM196.49998,229.20001v-2.70001c-.60001,0-1.5.89999-1.79999.89999l1.79999,1.79999v.00003Z" /></svg>