<svg xmlns="http://www.w3.org/2000/svg" viewBox="0 0 700 600"><path d="M445.78 75c82.81 0 151.06 67.34 151.06 150.6a151 151 0 0 1-44.59 106.93L360.24 525c-6.82 6.37-16.83 5-21.38 0-190.2-190.21-196.57-196.58-194.29-194.76a151.77 151.77 0 0 1-41.41-103.74c0-84.63 69.16-151.5 151.07-151.5a151.83 151.83 0 0 1 95.55 34.12 151.2 151.2 0 0 1 96-34.12Zm-192 47.77A103.42 103.42 0 0 0 150.48 227c.46 30.94 9.1 50.5 43.23 86 23.66 25 69.16 68.71 150.61 150.61 1.82 1.82 7.73 1.82 9.55 0 70.53-71 118.3-116.48 151.52-151.06 34.58-35.95 43.68-56 43.68-86.91 0-58.24-47.78-103.28-103.74-103.28-38.68 0-56.42 16.38-95.55 48.68-40.04-32.81-58.24-48.28-96.01-48.28Zm19.11 151.06h57.79v-58.7h38.22v58.69h58.69V312h-58.7v57.79h-38.22V312h-57.79Z"/></svg>