<svg xmlns="http://www.w3.org/2000/svg" viewBox="0 0 478.79996 190.79999"><path d="M132.29999,141.90002c0-6.60001,3.3-12,6.60001-16.5-8.39999-2.70001-15.89999-4.79999-23.39999-5.70001-18,17.70001-49.5,35.10001-72.3,35.10001C13.5,154.80002,0,123.90002,0,88.20001,0,50.70001,16.8,8.70001,49.5,8.70001c18.89999,0,38.7,14.39999,65.39999,37.79999,3,0,7.5-.29999,13.2-.89999,0-10.5,4.2-18.60001,13.8-26.10001C158.10001,6.89999,175.5,0,192.29999,0c19.5,0,34.5,9.29999,44.39999,26.39999,18.60001-2.70001,37.20001-4.20001,55.79999-4.20001,68.10001,0,147.59998,21.29999,186.29999,48.29999-33.90002,64.19998-97.79999,90.30002-177,90.30002-13.79999,0-40.20001-1.79999-53.10001-3.89999-17.70001,17.10001-41.39999,33.89999-61.5,33.89999-21.60001,0-54.89999-27-54.89999-48.89999l.00003.00003ZM44.69998,123.60004c25.2-5.39999,40.8-18.60001,49.5-27.29999v-25.79999c-7.8-9.60001-34.2-28.5-44.10001-30.60001-11.39999,0-18.60001,31.5-18.60001,49.20001,0,14.10001,3.60001,35.39999,13.2,34.5l.00002-.00003ZM173.39999,103.80005c46.20001,16.20001,79.79999,25.79999,128.70001,25.79999,52.20001,0,101.70001-15.29999,131.39996-47.39999-43.5-18.60001-93.89999-28.79999-141.89999-28.79999-34.20001,0-68.10001,5.10001-101.10001,15.29999-17.10001,5.10001-47.39999,7.5-64.8,8.70001v12.29999c15.3,2.70001,27.3,6.89999,47.7,14.10001h.00003ZM181.5,38.70004c15.60001-4.5,23.39999-6.60001,34.5-8.70001-6.89999-8.10001-12.89999-10.79999-24-10.79999-12.29999,0-25.79999,5.10001-38.10001,15-4.5,3.60001-6.29999,6.29999-6,9.89999,12.60001-1.20001,25.5-3,33.60001-5.39999ZM158.10001,154.50006c6.60001,7.5,21.29999,17.39999,29.39999,17.39999,9.89999,0,18.60001-6.60001,37.79999-19.5-21-4.5-37.79999-10.20001-67.5-20.70001-3,3.29999-6.60001,7.5-6.60001,10.20001,0,2.10001,1.79999,6.89999,6.89999,12.60001h.00003ZM365.10001,81.60007c3.89999,0,7.5,3.29999,7.5,7.5s-3.60001,7.5-7.5,7.5c-4.20001,0-7.5-3.29999-7.5-7.5s3.29999-7.5,7.5-7.5Z" /></svg>