<svg xmlns="http://www.w3.org/2000/svg" viewBox="0 0 299.87623 299.40001"><path d="M149.93902,299.39998C63.53903,299.39998-4.56098,227.09996.23902,140.7,4.73902,60,70.73901,0,153.23901,0s151.20001,73.8,146.39999,158.10002c-4.79999,80.10001-70.80002,141.29999-149.69998,141.29999v-.00003ZM149.93902,268.19997c62.39999,0,114.29999-48.89999,118.20001-111.89999,3.89999-65.70001-47.10001-121.5-112.5-125.10001-69,0-120,46.79999-124.2,111.30002-4.5,66.60001,50.7,125.70001,118.49998,125.70001v-.00003ZM125.03903,148.19997l25.20001,25.20001,26.10001-26.10001,44.10001,51.60001-19.20001,16.20001-26.39999-30.60001-24.60001,24.60001-24.60001-24.29999-28.20001,30.60001-18.60001-16.79999,46.20001-50.39999v-.00006ZM100.43902,103.19997c9.89999,0,17.70001,7.79999,17.70001,17.70001s-7.79999,17.70001-17.70001,17.70001-18-7.79999-18-17.70001,8.10001-17.70001,18-17.70001ZM197.33901,103.19997c9.89999,0,17.70001,7.79999,17.70001,17.70001s-7.79999,17.70001-17.70001,17.70001-17.70001-7.79999-17.70001-17.70001,7.79999-17.70001,17.70001-17.70001Z" /></svg>