<svg xmlns="http://www.w3.org/2000/svg" viewBox="0 0 390.30997 292.8"><path d="M390.30997,37.19998v218.40001c0,20.39999-16.79999,37.20001-37.20001,37.20001H37.2c-20.7,0-37.2-16.79999-37.2-37.20001V37.2C0,16.8,16.5,0,37.2,0h315.90001c20.40002,0,37.20001,16.8,37.20001,37.2l.00995-.00002ZM358.80997,81.89998v-44.7c0-3.3-2.39999-5.7-5.70001-5.7H37.2c-3.3,0-5.7,2.39999-5.7,5.7v44.7h327.30997ZM37.20996,261.29997h315.89999c3.29999,0,5.70001-2.39999,5.70001-5.70001V113.39998H31.5v142.20001c0,3.29999,2.39999,5.70001,5.7,5.70001l.00996-.00003Z" /></svg>