<svg xmlns="http://www.w3.org/2000/svg" viewBox="0 0 700 600"><path d="M101.34 479.88c0-61.43 50-109.66 108.75-109.66 17.74 0 34.58 3.64 50 12.29l58.69-71.44L198.71 165l36.4-30.49 114.66 138.8 114.66-138.78L501.29 165 380.71 311l59.15 71.44c15-8.65 32.31-12.29 49.6-12.29 60.51 0 110.11 50.51 109.2 111-.45 61-50.51 107.84-109.66 107.84-60.06 0-109.65-48.23-109.65-109.2 0-25 9.55-49.6 23.66-67.34l-53.24-64.16-52.32 64.16a112.56 112.56 0 0 1 22.75 67.79c0 60.52-49.14 108.75-109.66 108.75a109.23 109.23 0 0 1-109.2-109.11Zm171.08 0a61.65 61.65 0 1 0-123.3 0c0 35.94 30.48 64.61 66.43 61.42a61.23 61.23 0 0 0 56.87-61.42Zm278.46 0a61.88 61.88 0 1 0-123.76.45c0 34.13 27.76 61.43 62.79 61.43 33.67 0 60.97-28.21 60.97-61.88Z"/></svg>