<svg xmlns="http://www.w3.org/2000/svg" viewBox="0 0 267.90001 300.00005"><path d="M98.7,266.40001l-46.5-27c-4.79999,2.39999-10.5,3.89999-16.5,3.89999-19.8,0-35.7-15.89999-35.7-36,0-12.60001,6.60001-23.39999,16.5-30v-54.60001C6.89999,116.40001.3,105.3.3,92.7c0-19.5,16.2-35.7,36-35.7,5.70001,0,11.10001,1.2,15.89999,3.89999l46.20001-26.7C99.3,15,114.90001,0,134.40001,0s35.10001,15.60001,35.70001,34.8l45.29999,26.10001c5.10001-2.39999,10.5-3.89999,16.5-3.89999,20.10001,0,36,16.20001,36,35.70001,0,13.20001-6.89999,24.29999-16.79999,30.60001v53.70001c9.89999,6.60001,16.79999,17.70001,16.79999,30.29999,0,20.10001-15.89999,36-36,36-6,0-11.39999-1.5-16.5-3.89999l-45,26.10001c-.60001,19.5-16.79999,34.5-35.70001,34.5s-34.79999-14.70001-36-33.60001v-.00003ZM71.7,207.3c0,2.39999-.29999,4.5-.89999,6.60001l40.5,23.39999c1.79999-2.10001,4.20001-3.60001,6.89999-4.79999v-60c-7.20001-4.20001-11.70001-12-12-20.10001l-50.39999-29.70001c-2.39999,1.79999-4.79999,3-7.79999,3.89999v47.39999c13.79999,4.79999,23.70001,18,23.70001,33.29999l-.00003.00003ZM71.7,95.7l49.5,28.79999c3.60001-1.79999,8.10001-3.29999,12.60001-3.29999s9,1.5,12.60001,3.29999l50.10001-29.39999c-.29999-3-.29999-6.29999.29999-8.39999l-39.89999-23.10001c-6,5.10001-13.79999,8.10001-22.5,8.10001s-17.10001-3.29999-23.39999-8.39999l-39.60001,22.79999c.60001,2.70001.89999,5.70001.29999,9.60001ZM157.2,236.99998l39.60001-23.10001c-.29999-2.10001-.60001-4.20001-.60001-6.60001,0-15.29999,9.60001-28.20001,23.39999-33.29999v-47.70001c-3-.89999-5.39999-2.10001-7.5-3.89999l-50.39999,29.70001c-.29999,8.70001-5.39999,16.20001-12,20.39999v59.40002c2.70001,1.20001,5.39999,2.70001,7.5,5.10001v-.00003Z" /></svg>