<svg xmlns="http://www.w3.org/2000/svg" viewBox="0 0 324.00003 299.40001"><path d="M45,82.8L0,56.7l15.60001-27.3,45,26.10001V3.3h31.5v52.2l45.29999-26.10001,15.60001,27.3-45,26.10001,45,25.79999-15.60001,27.29999-45.29999-25.79999v51.89999h-31.5v-51.89999l-45,25.79999L0,108.59999l45-25.79999ZM219.30002,0l28.20001,13.8L104.40002,299.40001l-28.20001-13.79999L219.30002.00002v-.00002ZM186.60001,163.50002l40.79999,23.70001c-8.39999,6.60001-14.39999,16.20001-15.89999,27.29999l-40.5-23.70001,15.60001-27.29999ZM211.20001,219.3c1.5,11.10001,7.5,21,15.89999,27.29999l-40.5,23.70001-15.60001-27.29999,40.20001-23.70001ZM231.60001,137.7h31.5l.60001,47.10001c-4.79999-1.79999-10.5-3-15.89999-3-5.70001,0-10.79999.89999-15.60001,3l-.60001-47.10001ZM231.60001,249.59999c4.79999,1.79999,10.20001,3,15.60001,3,5.70001,0,11.10001-1.20001,15.89999-3v46.5h-31.5v-46.5ZM308.39999,163.49998l15.59998,27.29999-40.5,23.39999c-1.5-11.10001-7.20001-21-15.60001-27.29999l40.5-23.39999h.00003ZM283.5,219.59999l40.50003,23.39999-15.60001,27.29999-40.5-23.39999c8.39999-6.89999,14.10001-16.20001,15.60001-27.29999h-.00003Z" /></svg>