<svg xmlns="http://www.w3.org/2000/svg" viewBox="0 0 182.4 53"><path d="M0 21.6h11.4V9.8h26.9V0H0zM0 53h38.3v-9.8H11.4V31.4H0z"/><path d="M11.4 21.6H36v9.8H11.4zM86 4.9c-1.5-1.5-3.4-2.6-5.7-3.5C78 .4 75.1 0 71.8 0H48.1v53h11.4V31.4h12.2c3.3 0 6.1-.4 8.5-1.3 2.3-.9 4.2-2.1 5.7-3.5 1.5-1.5 2.5-3.1 3.2-5s1-3.8 1-5.8-.3-4-1-5.8c-.6-2-1.7-3.7-3.1-5.1zm-8 13.8c-.6.8-1.3 1.4-2.3 1.8-.9.4-2 .7-3.3.9-1.2.1-2.5.2-3.9.2h-9.1V9.8h9.1c1.3 0 2.6.1 3.9.2 1.2.1 2.3.4 3.3.9.9.4 1.7 1 2.3 1.8.6.8.9 1.8.9 3s-.3 2.3-.9 3zM155.5 43.2V0H144v53h38.4v-9.8zM97.4 21.6h11.5V9.8h26.9V0H97.4zM97.4 31.4h11.4V53H97.4zM108.9 21.6h24.6v9.8h-24.6z"/></svg>
