<svg xmlns="http://www.w3.org/2000/svg" viewBox="0 0 700 600"><path d="M325.66 494.5a159.17 159.17 0 0 1-80.53 21.38c-91 0-161.53-74.62-161.53-162.43V115c115.12 20 129.68 23.66 166.08 23.2V75c135.13 23.2 145.6 26.39 183.36 26.39 38.22 0 51.87-3.64 183.37-26.39v271.17c0 100.1-81.9 182.91-182.46 182.91H433c-39.09 0-74.58-11.83-107.34-34.58Zm-36.4-35.5c-15-19.57-27.3-42.77-33.21-66-22.3-1.82-38.68.91-54.15 16.84l-27.3-27.3a101.45 101.45 0 0 1 75.53-28.67 52.79 52.79 0 0 1-.45-8.64V186c-34.13.45-56-3.19-118.3-14.11v181.56c0 62.79 51.41 114.66 113.75 114.66a109.48 109.48 0 0 0 44.13-9.11Zm-66-244.79v38.67c-16.84 0-30.49 14.11-30.49 30.94h-38.19c0-38.21 30.94-69.6 68.71-69.6Zm345.34 132V131.86C483.55 146 470.35 148.7 433 148.7c-38.67 0-52.32-3.19-135.59-16.84v213.4c0 75.07 61.88 137.86 136.5 136.5 76.03 0 134.72-62.76 134.72-135.59ZM369.8 194.65c30 0 54.6 24.57 54.6 55.06h-38.22c0-9.1-7.28-16.84-16.38-16.84s-16.38 7.74-16.38 16.84h-38.68a55 55 0 0 1 55.06-55.06Zm-16.38 184.73 27.3-27.3c13.65 14.11 32.3 21.39 51.87 21.39s38.22-7.28 51.87-21.39l27.3 27.3c-21.39 20.93-49.14 32.76-79.17 32.76s-57.79-11.83-79.17-32.76Zm142.87-184.73c30 0 54.6 24.57 54.6 55.06h-38.22c0-9.1-7.28-16.84-16.38-16.84a16.8 16.8 0 0 0-16.84 16.84h-38.22a55 55 0 0 1 55.06-55.06Z"/></svg>