<svg xmlns="http://www.w3.org/2000/svg" viewBox="0 0 549.29997 295.79999"><path d="M0,0h31.5v27.3h54.3V0h31.5v58.8H0V0ZM0,86.10001h117.3v117.30002H0v-117.30002ZM0,234.29999h117.3v58.5h-31.5v-27H31.5v27H0s0-58.5,0-58.5ZM85.8,171.89999v-54.29999H31.5v54.29999h54.3ZM78,144.60001c0,10.79999-8.7,19.5-19.5,19.5s-19.5-8.70001-19.5-19.5,9-19.5,19.5-19.5,19.5,9,19.5,19.5ZM138.59999,0h31.5v27.3h54V0h31.5v58.8h-117V0ZM138.59999,86.10001h117v117.30002h-117v-117.30002ZM155.99998,231l61.79999,35.39999,68.39999-39.60001v-94.79999l81.30002-46.79999V0h25.5v85.20001l81.29999,46.79999v94.79999l75,43.5-12.59998,21.60001-75-43.20001-81.29999,47.10001-81.29999-47.10001-81.29999,47.10001-74.39999-43.20001,12.60001-21.60001-.00006.00003ZM224.09999,171.89999v-54.29999h-54v54.29999h54ZM380.40001,266.39999l68.70001-39.60001v-80.10001l-68.70001-39.60001-68.70001,39.60001v80.10001l68.70001,39.60001Z" /></svg>