<svg xmlns="http://www.w3.org/2000/svg" viewBox="0 0 409.20004 296.09998"><path d="M42.3,132.89999c-12.89999-14.70001-20.10001-32.70001-20.10001-52.79999C22.2,35.70001,58.5,0,103.2,0s80.7,35.7,80.7,80.10001c0,19.79999-6.89999,38.39999-20.10001,52.79999,4.79999,3.60001,9.60001,7.20001,13.5,11.70001l26.70001-63V3.29999h112.80002v78.29999l92.40002,214.5H0v-80.10001c0-32.70001,15.89999-63.89999,42.3-83.10001v.00003ZM125.39999,264.59998l37.79999-87.60001c-6.60001-9.89999-15-18-25.5-23.70001-10.79999,5.10001-22.20001,7.79999-34.5,7.79999s-24-2.70001-34.8-7.79999c-22.5,12-36.90001,36.89999-36.90001,62.70001v48.60001h93.90002ZM103.2,129.59998c27.3,0,49.2-22.20001,49.2-49.5s-22.20001-48.89999-49.2-48.89999-49.5,21.89999-49.5,48.89999,21.89999,49.5,49.5,49.5ZM361.19998,264.59998l-75.59998-176.39999v-52.8h-50.10001v52.8l-75.60001,176.39999h201.29999ZM222.60001,202.5c9.89999,0,17.70001,8.10001,17.70001,18s-7.79999,18-17.70001,18-18-8.10001-18-18,8.10001-18,18-18ZM260.70001,137.39999c9.89999,0,17.70001,8.10001,17.70001,18s-7.79999,17.70001-17.70001,17.70001-18-7.79999-18-17.70001,8.10001-18,18-18ZM298.5,202.5c9.89999,0,18,8.10001,18,18s-8.10001,18-18,18-17.70001-8.10001-17.70001-18,7.79999-18,17.70001-18Z" /></svg>