<svg xmlns="http://www.w3.org/2000/svg" viewBox="0 0 382.081 299.39996"><path d="M21.63094,111.60004c10.5-10.79999,24.60001-17.39999,43.8-20.70001-1.8-3.89999-2.39999-8.10001-2.39999-13.20001,0-19.8,12.89999-36.60001,30.89999-42.3C98.13094,15.3,116.13094,0,137.43096,0c14.10001,0,27,6.89999,35.10001,17.39999C180.63098,6.89999,193.23098,0,207.63098,0c21.60001,0,39.29999,15.3,43.5,35.39999,18.29999,5.7,31.20001,22.5,31.20001,42.29999,0,5.70001-.89999,11.10001-3.29999,15.89999,19.79999,3,34.20001,9.60001,44.70001,20.39999,9.89999,9.89999,15.89999,22.5,18.60001,35.39999,9,.60001,17.69998,4.5,24.89999,11.70001,19.79999,19.5,19.79999,51.29999,0,71.10001l-67.20001,67.19998-45-45.29999c-17.10001,27.29999-47.70001,45.29999-82.5,45.29999-53.70001,0-97.2-43.5-97.2-97.20001v-21.8999c-7.2,4.5-14.10001,7.5-22.5,9.60001-12.3,4.20001-28.5,5.70001-52.8,6-.3-41.10001,1.2-64.19998,21.60001-84.30002h-.00006ZM63.33094,151.20004c3-3.60001,8.7-11.10001,10.8-29.39999-14.7,1.79999-25.5,6.29999-30.89999,12.29999-3,3.60001-8.7,10.79999-10.8,29.39999,14.39999-2.10001,24.3-6,30.89999-12.29999ZM105.93093,90.60004c6-.29999,7.79999-.60001,10.79999-3.89999,5.10001-5.70001,14.10001-9.89999,23.10001-9.89999s16.79999,3.60001,22.79999,9.89999c1.79999,2.10001,5.10001,3.89999,9.29999,3.89999,4.79999,0,7.79999-2.10001,9.89999-3.89999,6-6.60001,14.39999-10.5,23.10001-10.5s17.39999,3.89999,23.39999,10.5c2.10001,1.79999,5.39999,3.89999,9.60001,3.89999,7.20001,0,12.89999-5.70001,12.89999-12.89999,0-5.10001-3.60001-10.5-9-12.3-10.5-3.3-18.89999-11.39999-21.29999-23.39999-1.20001-5.7-6-10.8-12.89999-10.8-5.10001,0-8.70001,3-10.20001,5.39999-6,7.5-15.29999,12-24.89999,12s-18.89999-4.5-24.60001-12c-2.10001-2.39999-5.70001-5.39999-10.5-5.39999-6,0-11.39999,4.5-12.60001,10.2-2.10001,10.8-9.89999,20.39999-21.60001,24-4.79999,1.5-8.7,5.99998-8.7,12.3,0,6.89999,5.09999,12.29999,11.40001,12.89999h.00003ZM159.03094,266.40002v-21.89999l-20.70001-18.89999,17.10001-18.60001,16.20001,14.70001,16.20001-14.70001,17.10001,18.60001-20.70001,18.89999v22.20001c21-3.29999,38.70001-16.5,47.70001-35.70001-6.60001-8.70001-10.79999-18.89999-11.39999-29.39999-2.70001-10.5-1.20001-21.29999,4.79999-30,3.60001-5.10001,7.79999-9.89999,13.20001-14.39999v-36c-6.29999.29999-11.70001-.60001-18.29999-3-6-2.10001-11.10001-5.70001-15.29999-10.20001-8.10001,9-19.79999,14.39999-33,14.39999s-24.29999-5.39999-32.10001-13.79999c-4.5,4.79999-10.79999,8.70001-16.20001,10.5-5.39999,1.79999-11.70001,2.70001-16.79999,2.10001v81c0,32.10001,22.5,58.20001,52.20001,64.19998h-.00006ZM156.93093,148.50003c0,9.89999-8.39999,17.70001-18,17.70001s-17.70001-7.79999-17.70001-17.70001,8.10001-17.70001,17.70001-17.70001,18,7.79999,18,17.70001ZM205.53094,130.80002c9.89999,0,17.70001,7.79999,17.70001,17.70001s-7.79999,17.70001-17.70001,17.70001-17.70001-7.79999-17.70001-17.70001,7.79999-17.70001,17.70001-17.70001ZM300.03094,255l45-45c6.89999-6.89999,7.20001-19.79999,0-26.70001-7.5-7.20001-19.79999-6.60001-26.39999,0l-18.60001,18.29999-18.29999-18.29999c-7.20001-7.20001-18.89999-7.20001-26.39999,0-7.20001,7.20001-7.20001,19.79999,0,26.70001l44.70001,45h-.00003ZM278.43093,147.60001c8.70001,1.20001,14.70001,4.5,21.60001,10.20001,3.89999-3,6.89999-4.79999,10.5-6.60001-5.70001-17.39999-18.89999-24.29999-39-26.70001,1.5,11.39999,4.5,18,6.89999,23.10001Z" /></svg>