<svg xmlns="http://www.w3.org/2000/svg" viewBox="0 0 382.2 292.79999"><path d="M.00002,144C.00002,90.89999,42.60002,49.8,94.20001,49.8c9.59999,0,18.59999,1.2,27.59999,3.89999l34.5-34.2h-30.29999l1.5-19.5h70.19998v70.20001h-20.10001v-29.7l-26.39999,28.2c3.29999,2.70001,6.60001,5.39999,9.89999,8.70001l-22.20001,22.20001c-38.70001-39.3-107.39999-11.70001-107.39999,44.39999,0,35.10001,28.2,63,63,63,16.20001,0,32.39999-6.29999,44.39999-18.29999l22.20001,22.20001c-18,18-41.39999,27.60001-66.89999,27.60001C41.09999,238.50006,0,195.60007,0,144.00006l.00002-.00006ZM153.00002,106.5h76.19998v25.5h-76.20001v-25.5h.00003ZM153.00002,153.60001h76.19998v25.20001h-76.20001v-25.20001h.00003ZM243.30003,188.70001c12.29999,12,28.20001,18.29999,44.39999,18.29999,35.10001,0,63-27.60001,63-63s-28.79999-62.70001-63-62.70001c-16.20001,0-32.10001,6-44.39999,18.29999l-22.20001-22.19998c17.39999-18,41.39999-27.60001,66.60001-27.60001,53.10001,0,94.49997,43.20001,94.49997,94.20001,0,45.89999-33.60001,85.5-78.60001,93.29999v15.89999h19.20001v25.20001h-19.20001v14.39999h-31.49997v-14.39999h-19.20001v-25.20001h19.20001v-15.89999c-19.20001-3.29999-37.5-12.60001-51-26.39999l22.20001-22.20001v.00003Z" /></svg>