<svg xmlns="http://www.w3.org/2000/svg" viewBox="0 0 470.70004 299.70004"><path d="M0,3.90002h18.9v60.3H0V3.90002ZM0,85.20001h18.9v40.5H0v-40.5ZM0,174.60001h18.9v40.5H0v-40.5ZM0,236.10001h18.9v60.60001H0v-60.60001ZM137.7,0c47.39999,0,62.70001,24.60001,63.29999,82.20001,1.5,1.20001,3,2.39999,4.79999,3.60001,8.39999,5.70001,18.60001,8.70001,28.79999,8.70001,12.60001,0,24.29999-4.5,34.79999-13.20001C269.99996,27.90002,282.89996.00002,332.39996.00002,402.59994.00002,444.89993,54.60001,444.89993,128.10004s-45.29999,171.60001-112.5,171.60001c-33.89999,0-51.60001-24.89999-58.79999-61.20001-12.60001,2.70001-25.79999,3.89999-39,3.89999s-25.79999-1.20001-38.10001-3.60001c-7.5,37.5-25.79999,60.89999-58.8,60.89999-65.7,0-112.2-93-112.2-171.60001C25.49993,54,68.39993,0,137.69993,0h.00008ZM137.7,268.20001c17.70001,0,24.89999-15.89999,28.20001-37.79999-61.2-24.60001-95.10001-59.10001-95.10001-99.29999s33-73.8,74.10001-73.8c8.10001,0,16.20001,1.2,23.70001,4.2-2.70001-23.39999-8.39999-30-30.89999-30-52.5,0-81,40.79999-81,96.60001s34.8,140.10001,81,140.10001l-.00003-.00003ZM154.2,204.30002c-27.89999-30-45.3-70.80002-48.3-111.89999-10.5,10.20001-16.2,24-16.2,38.70001,0,32.39999,30.89999,57,64.5,73.20001v-.00003ZM200.1,220.50003c11.39999,2.10001,22.79999,3,34.5,3,41.70001,0,83.39999-15,113.70001-39.89999-87,11.70001-166.79999-30.89999-202.5-107.39999-7.2-.29999-15,1.20001-21.60001,3.89999.89999,57,30,109.5,75.89999,140.39999ZM318.30001,167.10004c18.29999,0,36.60001-2.70001,54-8.70001,6.60001-11.39999,9.29999-27.29999,6-39.89999-19.79999,5.70001-36,8.10001-60.60001,7.5-24-.60001-45.60001-5.70001-66.89999-14.70001-5.39999,1.20001-10.79999,1.79999-16.20001,1.79999-18.29999,0-36.60001-7.20001-50.70001-21-3.89999-3.60001-8.10001-6.89999-12.89999-9,30.29999,51.89999,87.30002,84,147.30002,84v.00003ZM213.6,3.90002h42v18.89999h-42V3.90002ZM213.6,33.00003h42v18.89999h-42v-18.89999ZM213.6,62.10004h42v18.89999h-42v-18.89999ZM213.6,248.70004h42v18.89999h-42v-18.89999ZM213.6,277.80005h42v18.89999h-42v-18.89999ZM324.30001,107.40005c15.60001,0,31.20001-2.10001,46.20001-6.29999-11.10001-15.89999-26.70001-25.20001-45.89999-25.20001-15,0-28.79999,5.70001-39.29999,16.20001-3,3.29999-6.29999,5.70001-9.60001,8.10001,15.60001,4.79999,31.79999,7.20001,48.60001,7.20001l-.00003-.00003ZM324.6,57.30005c40.79999,0,74.09998,33,74.09998,73.79999,0,46.20001-44.70001,79.20001-94.5,99,3.89999,23.39999,10.79999,38.10001,28.20001,38.10001,47.10001,0,81-83.39999,81-140.10001s-29.10001-96.60001-81-96.60001c-23.39999,0-28.20001,7.8-30.60001,29.7,7.20001-2.7,14.70001-3.89999,22.79999-3.89999l.00003.00002ZM451.80001,3.90005h18.90002v60.3h-18.90002V3.90002v.00003ZM451.80001,85.20007h18.90002v40.5h-18.90002v-40.5ZM451.80001,174.60007h18.90002v40.5h-18.90002v-40.5ZM451.80001,236.10007h18.90002v60.60001h-18.90002v-60.60001Z" /></svg>