<svg xmlns="http://www.w3.org/2000/svg" viewBox="0 0 300.00003 300.00005"><path d="M132,282.30003c0-4.79999,1.79999-9.29999,5.10001-12.29999v-15.89999c-19.20001-2.10001-36.60001-9.60001-51.89999-21.60001l-11.10001,11.39999c.29999,9.29999-8.10001,17.70001-17.70001,17.70001-10.8,0-18-8.70001-18-18s8.10001-18,17.70001-17.70001l11.39999-11.10001c-12.3-15.89999-18.89999-31.5-21.89999-51.89999h-15.60001c-3.3,3.29999-7.5,5.10001-12.3,5.10001-9.89999,0-17.7-8.10001-17.7-18s7.8-17.70001,17.7-17.70001c4.8,0,9,2.10001,12.3,5.39999h15.60001c2.39999-19.20001,9.60001-36.89999,21.89999-52.20001l-11.39999-11.10001c-10.5-.29999-17.7-8.7-17.7-17.7,0-10.5,9.3-18,17.99998-18,10.20001,0,18,9.3,17.70001,17.7l11.10001,11.10001c14.70001-11.39999,33.60001-19.5,51.89999-21.3v-15.60001c-3.29999-3.3-5.10001-7.8-5.10001-12.60001,0-9.89999,8.10001-18,18-18s17.70001,8.10001,17.70001,18c0,4.8-2.10001,9.3-5.39999,12.60001v15.60001c18.60001,1.8,37.5,9.89999,52.20001,21.3l11.10001-11.10001c0-10.5,9-17.7,17.70001-17.7,9.60001,0,18,8.39999,18,18s-8.10001,17.40001-17.70001,17.7l-11.10001,11.10001c11.39999,14.70001,19.5,33.60001,21.29999,52.20001h15.60001c3.29999-3.29999,7.79999-5.39999,12.60001-5.39999,9.89999,0,18,8.10001,18,17.70001s-8.10001,18-18,18c-4.79999,0-9.29999-1.79999-12.60001-5.10001h-15.60001c-2.10001,18.29999-9.89999,37.20001-21.29999,51.89999l11.10001,11.10001c9.29999-.29999,17.70001,8.39999,17.70001,17.70001s-7.79999,18-18,18-17.39999-7.79999-17.70001-17.70001l-11.39999-11.39999c-14.70001,12-32.70001,19.5-51.89999,21.60001v15.89999c3.29999,3,5.39999,7.5,5.39999,12.29999,0,9.89999-7.79999,17.70001-17.70001,17.70001s-18-7.79999-18-17.70001h-.00003ZM150,223.50005c40.20001,0,73.19998-32.70001,73.19998-73.5s-33.89999-73.5-73.20001-73.5-73.5,33.29999-73.5,73.5,32.70001,73.5,73.5,73.5h.00003ZM112.20001,120.30006c10.5,0,18,9,18,18,0,10.5-9,18-18,18-10.5,0-18-9-18-18,0-10.5,9-18,18-18ZM138,169.80006c10.79999,0,18,9,18,18,0,10.5-9,18-18,18-10.20001,0-17.70001-9-17.70001-18,0-10.5,9-18,17.70001-18ZM161.39999,94.50008c10.5,0,18,9,18,18,0,10.5-9.29999,17.70001-18.29999,17.70001-9.60001,0-17.39999-7.79999-17.39999-17.70001,0-10.5,9.29999-18,17.70001-18h-.00003ZM187.5,144.00008c9.60001,0,17.70001,7.79999,17.70001,17.70001,0,10.5-9,18-17.70001,18-10.5,0-17.70001-9-17.70001-18,0-9.60001,7.79999-17.70001,17.70001-17.70001Z" /></svg>