<svg xmlns="http://www.w3.org/2000/svg" viewBox="0 0 402.89996 299.40004"><path d="M105.60001,0l6,30.60001c-36.3,6.89999-66,28.2-84,60.59999L0,75.90001C22.5,35.40001,60,8.10001,105.60001.00002v-.00002ZM60.3,196.2c65.10002-72.89999,105.90001-102.89999,152.7-102.89999,49.20001,0,93.60001,38.10001,136.5,85.20001,13.5-3.60001,26.70001-8.70001,39.59998-15l13.79999,28.20001c-16.20001,7.79999-33,14.10001-50.10001,18.60001-43.79999,48.89999-90.30002,89.10001-139.80002,89.10001-53.70001,0-100.5-44.39999-152.7-103.20001l.00006-.00003ZM202.5,35.7l1.20001,31.5c-38.70001.29999-73.20001,16.20001-96.89999,46.20001l-24.89999-19.5c29.70001-37.2,73.20001-58.2,120.60001-58.2l-.00003-.00002ZM213,268.2c26.70001,0,54.89999-17.70001,89.10001-50.70001-42.60001,1.5-79.5-5.39999-115.80002-21l12.60001-28.79999c36.60001,16.20001,73.19998,21.29999,113.69998,17.70001-39.29999-40.20001-70.5-60.60001-99.60001-60.60001-31.79999,0-66,23.70001-110.10001,71.39999,44.10001,48.29999,78.29999,72,110.10001,72h.00003ZM259.20001,5.09999c18,6,38.39999,8.7,59.70001,8.10001,22.79999-.60001,45.59998-5.10001,68.70001-13.2l10.5,29.39999c-28.79999,9.89999-51.89999,14.39999-79.20001,15-31.79999.60001-48.89999-3-69.60001-9.60001l9.89999-29.7Z" /></svg>