<svg xmlns="http://www.w3.org/2000/svg" viewBox="0 0 299.7 299.40001"><path d="M299.7,149.70003c0,82.80002-67.20001,149.69998-150,149.69998S0,232.50002,0,149.7,66.90001,0,149.7,0s150,66.90001,150,149.7v.00003ZM149.7,268.20003c65.39999,0,118.5-53.10001,118.5-118.5S215.09999,31.20003,149.7,31.20003,31.5,85.20003,31.5,149.70003s52.49998,118.5,118.2,118.5ZM149.7,164.10002c24.89999,0,51.89999,13.5,70.5,34.79999l-19.20001,16.5c-13.79999-15.60001-33.89999-26.10001-51.29999-26.10001s-38.10001,10.5-52.5,26.39999l-18.89999-16.79999c19.20001-21.29999,46.5-34.79999,71.39999-34.79999ZM99.90001,103.20003c9.89999,0,17.70001,7.79999,17.70001,17.70001s-7.79999,18-17.70001,18-17.70001-8.10001-17.70001-18,7.79999-17.70001,17.70001-17.70001ZM199.50002,103.20003c9.89999,0,17.70001,7.79999,17.70001,17.70001s-7.79999,18-17.70001,18-17.70001-8.10001-17.70001-18,7.79999-17.70001,17.70001-17.70001Z" /></svg>