<?xml version="1.0" encoding="utf-8"?>
<!--Generator: Adobe Illustrator 22.0.1, SVG Export Plug-In . SVG Version: 6.00 Build 0)-->
<svg xmlns="http://www.w3.org/2000/svg" xmlns:xlink="http://www.w3.org/1999/xlink" viewBox="0 0 24 24">
  <path d="M12 .3C5.5.3.3 5.5.3 12S5.5 23.7 12 23.7 23.7 18.5 23.7 12 18.5.3 12 .3zM2.6 7.9c1.1-2.5 3.1-4.4 5.6-5.4l.8-.4-.5.8C7.7 4.4 7 6.1 6.6 8.1v.2H2.4l.2-.4zm-.7 6.2c-.1-.7-.2-1.4-.2-2.1 0-.7.1-1.4.2-2.1v-.2h4.4v.3c-.1 1.3-.1 2.6 0 3.9v.3H2l-.1-.1zm6.3 7.5c-2.5-1-4.5-3-5.6-5.4l-.2-.4h4.2v.2c.4 1.9 1 3.7 1.9 5.2l.5.7-.8-.3zm3.1.9l-.5-.6c-1.2-1.5-2.2-3.5-2.7-5.8l-.1-.4h3.3v6.8zm0-8.2H7.8V14c-.1-1.4-.1-2.6 0-4.1v-.3h3.5v4.7zm0-6H8l.1-.4c.5-2.3 1.4-4.3 2.7-5.8l.5-.6v6.8zm4.5-5.9c2.5 1 4.5 3 5.6 5.4l.2.4h-4.2V8c-.4-1.9-1-3.7-1.9-5.2l-.5-.7.8.3zm-3.1-.9l.5.6c1.2 1.5 2.2 3.5 2.7 5.8l.1.4h-3.3V1.5zm0 8.2h3.5v.3c.1 1.4.1 2.6 0 4.1v.3h-3.5V9.7zm0 12.8v-6.8H16l-.1.4c-.5 2.3-1.4 4.3-2.7 5.8l-.5.6zm8.7-6.4c-1.1 2.5-3.1 4.4-5.6 5.4l-.8.4.4-.8c.9-1.5 1.5-3.3 1.9-5.2v-.2h4.2l-.1.4zm.6-1.8h-4.4V14c.1-1.3.1-2.6 0-3.9v-.3H22v.2c.1.7.2 1.4.2 2.1 0 .7-.1 1.4-.2 2.1v.1z" />
</svg>
